<svg preserveAspectRatio="none" width="100%" height="100%" overflow="visible" style="display: block;" viewBox="0 0 541.14 161.06" fill="none" xmlns="http://www.w3.org/2000/svg">
<g id="Group">
<path id="Vector" d="M528.64 0.5H12.5C5.87258 0.5 0.5 5.87258 0.5 12.5V148.56C0.5 155.187 5.87258 160.56 12.5 160.56H528.64C535.267 160.56 540.64 155.187 540.64 148.56V12.5C540.64 5.87258 535.267 0.5 528.64 0.5Z" fill="var(--fill-0, white)"/>
<path id="Vector_2" d="M528.64 161.06H12.5C5.61 161.06 0 155.45 0 148.56V12.5C0 5.61 5.61 0 12.5 0H528.64C535.53 0 541.14 5.61 541.14 12.5V148.56C541.14 155.45 535.53 161.06 528.64 161.06ZM12.5 1C6.16 1 1 6.16 1 12.5V148.56C1 154.9 6.16 160.06 12.5 160.06H528.64C534.98 160.06 540.14 154.9 540.14 148.56V12.5C540.14 6.16 534.98 1 528.64 1H12.5Z" fill="var(--fill-0, black)"/>
</g>
</svg>
