<svg preserveAspectRatio="none" width="100%" height="100%" overflow="visible" style="display: block;" viewBox="0 0 382.82 39.35" fill="none" xmlns="http://www.w3.org/2000/svg">
<g id="Group">
<path id="Vector" d="M10.92 26.14C10.92 26.92 10.63 27.6 10.06 28.17C9.49 28.74 8.72 29.02 7.77 29.02C6.91 29.02 6.17 28.74 5.55 28.17C4.93 27.6 4.62 26.93 4.62 26.14C4.62 25.35 4.93 24.68 5.55 24.11C6.17 23.54 6.91 23.26 7.77 23.26C8.31 23.26 8.79 23.36 9.2 23.57V18.99C9.2 17.8 6.13 16.75 0 15.85C0.19 12.77 1.73 11.23 4.63 11.23C5.3 11.23 6.24 11.38 7.47 11.69C8.69 12 9.58 12.15 10.12 12.15C10.44 12.15 10.74 11.82 11.03 11.15L12.51 11.5C12.03 12.89 11.22 13.59 10.08 13.59C9.41 13.59 8.45 13.43 7.19 13.11C5.93 12.79 4.99001 12.63 4.35001 12.63C3.78001 12.63 3.25 12.85 2.75 13.3C2.26 13.75 1.99001 14.21 1.96001 14.67C3.99001 14.99 6 15.47 7.97 16.11C9.94 16.75 10.93 17.66 10.93 18.86V26.14H10.92ZM9.39 26.14C9.39 25.73 9.23 25.39 8.91 25.09C8.59 24.8 8.21 24.65 7.77 24.65C7.33 24.65 6.94 24.8 6.63 25.09C6.31 25.38 6.14999 25.73 6.14999 26.14C6.14999 26.55 6.31 26.9 6.63 27.19C6.95 27.48 7.33 27.63 7.77 27.63C8.21 27.63 8.6 27.49 8.91 27.19C9.23 26.9 9.39 26.55 9.39 26.14Z" fill="var(--fill-0, white)"/>
<path id="Vector_2" d="M31.9 24.97C31.9 27.67 29.85 29.02 25.75 29.02C21.65 29.02 19.55 27.67 19.55 24.97V16.69C19.14 16.89 18.66 16.99 18.12 16.99C17.26 16.99 16.52 16.71 15.9 16.14C15.28 15.57 14.97 14.9 14.97 14.11C14.97 13.32 15.28 12.65 15.9 12.08C16.52 11.51 17.26 11.23 18.12 11.23C18.98 11.23 19.72 11.51 20.34 12.08C20.96 12.65 21.27 13.32 21.27 14.11V24.83C21.27 26.66 22.76 27.58 25.75 27.58C28.74 27.58 30.18 26.66 30.18 24.83V11.58H31.9V24.96V24.97ZM19.74 14.12C19.74 13.71 19.58 13.36 19.26 13.07C18.94 12.78 18.56 12.63 18.12 12.63C17.68 12.63 17.29 12.78 16.98 13.07C16.66 13.36 16.5 13.71 16.5 14.12C16.5 14.53 16.66 14.87 16.98 15.16C17.3 15.45 17.68 15.6 18.12 15.6C18.56 15.6 18.95 15.45 19.26 15.16C19.58 14.87 19.74 14.52 19.74 14.12Z" fill="var(--fill-0, white)"/>
<path id="Vector_3" d="M50.31 28.67H48.59V17.3C48.59 15.88 48.1 14.74 47.14 13.9C46.17 13.06 44.92 12.64 43.4 12.64C42.32 12.64 41.27 12.92 40.25 13.47C39.23 14.02 38.53 14.73 38.15 15.61C40.03 15.76 41.31 16.39 42.01 17.53C41.25 17.68 40.58 18.06 40.01 18.68C39.44 19.3 39.15 19.99 39.15 20.75V28.68H37.43V20.79C37.43 19.08 38.26 17.91 39.91 17.3C38.86 16.84 37.65 16.68 36.29 16.82C36.54 15.19 37.35 13.86 38.7 12.81C40.05 11.76 41.65 11.24 43.49 11.24C45.56 11.24 47.21 11.76 48.45 12.81C49.69 13.86 50.31 15.29 50.31 17.12V28.67Z" fill="var(--fill-0, white)"/>
<path id="Vector_4" d="M66.28 26.14C66.28 26.92 65.97 27.6 65.35 28.17C64.73 28.74 63.99 29.02 63.13 29.02C62.27 29.02 61.53 28.74 60.91 28.17C60.29 27.6 59.98 26.93 59.98 26.14C59.98 25.35 60.29 24.68 60.91 24.11C61.53 23.54 62.27 23.26 63.13 23.26C63.67 23.26 64.15 23.36 64.56 23.57V16.51C64.56 13.92 62.99 12.63 59.84 12.63C57.36 12.63 55.82 13.67 55.21 15.77H53.45C54.15 12.75 56.31 11.24 59.94 11.24C61.75 11.24 63.26 11.68 64.47 12.55C65.68 13.42 66.28 14.66 66.28 16.25V26.14ZM64.76 26.14C64.76 25.73 64.6 25.39 64.28 25.09C63.96 24.8 63.58 24.65 63.14 24.65C62.7 24.65 62.31 24.8 62 25.09C61.68 25.38 61.52 25.73 61.52 26.14C61.52 26.55 61.68 26.9 62 27.19C62.32 27.48 62.7 27.63 63.14 27.63C63.58 27.63 63.97 27.49 64.28 27.19C64.6 26.9 64.76 26.55 64.76 26.14Z" fill="var(--fill-0, white)"/>
<path id="Vector_5" d="M87.26 26.19C87.26 26.97 86.95 27.64 86.33 28.19C85.71 28.74 84.97 29.02 84.11 29.02C83.25 29.02 82.52 28.74 81.92 28.19C81.32 27.64 81.01 26.97 81.01 26.19V25.88C79.04 26.61 77.51 27.54 76.43 28.67H74.33V16.69C73.92 16.89 73.44 16.99 72.9 16.99C72.04 16.99 71.3 16.71 70.68 16.14C70.06 15.57 69.75 14.9 69.75 14.11C69.75 13.32 70.06 12.65 70.68 12.08C71.3 11.51 72.04 11.23 72.9 11.23C73.76 11.23 74.5 11.51 75.12 12.08C75.74 12.65 76.05 13.32 76.05 14.11V26.96C76.69 26.32 77.81 25.67 79.44 25C81.25 24.25 82.43 23.66 82.97 23.26C84.05 22.48 84.59 21.47 84.59 20.25V11.58H86.31V20.47C86.31 21.86 85.96 22.88 85.26 23.52C86.6 24.01 87.26 24.9 87.26 26.18V26.19ZM74.53 14.12C74.53 13.71 74.37 13.36 74.05 13.07C73.73 12.78 73.35 12.63 72.91 12.63C72.47 12.63 72.08 12.78 71.77 13.07C71.45 13.36 71.29 13.71 71.29 14.12C71.29 14.53 71.45 14.87 71.77 15.16C72.09 15.45 72.47 15.6 72.91 15.6C73.35 15.6 73.74 15.45 74.05 15.16C74.37 14.87 74.53 14.52 74.53 14.12ZM85.74 26.14C85.74 25.73 85.58 25.39 85.26 25.09C84.94 24.8 84.56 24.65 84.12 24.65C83.68 24.65 83.29 24.8 82.98 25.09C82.66 25.38 82.5 25.73 82.5 26.14C82.5 26.55 82.66 26.9 82.98 27.19C83.3 27.48 83.68 27.63 84.12 27.63C84.56 27.63 84.95 27.49 85.26 27.19C85.58 26.9 85.74 26.55 85.74 26.14Z" fill="var(--fill-0, white)"/>
<path id="Vector_6" d="M107.63 28.67H105.53L101 13.55L96.47 28.67H94.37V16.69C93.96 16.89 93.48 16.99 92.94 16.99C92.08 16.99 91.34 16.71 90.72 16.14C90.1 15.57 89.79 14.9 89.79 14.11C89.79 13.32 90.1 12.65 90.72 12.08C91.34 11.51 92.08 11.23 92.94 11.23C93.8 11.23 94.54 11.51 95.16 12.08C95.78 12.65 96.09 13.32 96.09 14.11V23.22C96.09 23.95 96.01 24.96 95.85 26.27C96.07 25.31 96.36 24.25 96.71 23.09L100.19 11.59H101.81L105.29 23.09C105.64 24.25 105.93 25.31 106.15 26.27C105.99 24.96 105.91 23.95 105.91 23.22V11.59H107.63V28.67ZM94.56 14.12C94.56 13.71 94.4 13.36 94.08 13.07C93.76 12.78 93.38 12.63 92.94 12.63C92.5 12.63 92.11 12.78 91.8 13.07C91.48 13.36 91.32 13.71 91.32 14.12C91.32 14.53 91.48 14.87 91.8 15.16C92.12 15.45 92.5 15.6 92.94 15.6C93.38 15.6 93.77 15.45 94.08 15.16C94.4 14.87 94.56 14.52 94.56 14.12Z" fill="var(--fill-0, white)"/>
<path id="Vector_7" d="M107.91 8.85001C104.25 7.66001 100.82 7.06001 97.61 7.06001C96.47 7.06001 95.21 7.15 93.84 7.32C93.87 5.81 94.56 4.59 95.89 3.66C97.1 2.82 98.54 2.4 100.23 2.4C104.52 2.4 107.08 4.55001 107.91 8.85001ZM106.05 7.19C104.65 4.84 102.73 3.66 100.28 3.66C98.06 3.66 96.56 4.43 95.8 5.97C96.47 5.88 97.21 5.84 98.04 5.84C101.09 5.84 103.76 6.29 106.05 7.19Z" fill="var(--fill-0, white)"/>
<path id="Vector_8" d="M126.7 28.67H124.84C122.36 26.93 120.04 25.78 117.88 25.23C117.98 25.49 118.02 25.75 118.02 26.01C118.02 26.85 117.69 27.56 117.04 28.15C116.39 28.73 115.6 29.02 114.68 29.02C113.76 29.02 112.98 28.73 112.34 28.15C111.7 27.57 111.39 26.86 111.39 26.01C111.39 25.16 111.71 24.45 112.34 23.85C112.98 23.25 113.75 22.96 114.68 22.96C115.03 22.96 115.36 23 115.68 23.09V16.68C115.27 16.88 114.79 16.98 114.25 16.98C113.39 16.98 112.65 16.7 112.03 16.13C111.41 15.56 111.1 14.89 111.1 14.1C111.1 13.31 111.41 12.64 112.03 12.07C112.65 11.5 113.39 11.22 114.25 11.22C115.11 11.22 115.85 11.5 116.47 12.07C117.09 12.64 117.4 13.31 117.4 14.1V23.51C120.55 24.53 123.07 25.7 124.98 27.04V11.57H126.7V28.65V28.67ZM115.88 14.12C115.88 13.71 115.72 13.36 115.4 13.07C115.08 12.78 114.7 12.63 114.26 12.63C113.82 12.63 113.43 12.78 113.12 13.07C112.8 13.36 112.64 13.71 112.64 14.12C112.64 14.53 112.8 14.87 113.12 15.16C113.44 15.45 113.82 15.6 114.26 15.6C114.7 15.6 115.09 15.45 115.4 15.16C115.72 14.87 115.88 14.52 115.88 14.12ZM116.45 25.97C116.45 25.53 116.27 25.16 115.93 24.84C115.58 24.52 115.17 24.36 114.69 24.36C114.21 24.36 113.8 24.52 113.45 24.84C113.1 25.16 112.93 25.54 112.93 25.97C112.93 26.4 113.1 26.78 113.45 27.1C113.8 27.42 114.21 27.58 114.69 27.58C115.17 27.58 115.58 27.42 115.93 27.1C116.28 26.78 116.45 26.4 116.45 25.97Z" fill="var(--fill-0, white)"/>
<path id="Vector_9" d="M148.02 28.67H145.92L141.39 13.55L136.86 28.67H134.76V16.69C134.35 16.89 133.87 16.99 133.33 16.99C132.47 16.99 131.73 16.71 131.11 16.14C130.49 15.57 130.18 14.9 130.18 14.11C130.18 13.32 130.49 12.65 131.11 12.08C131.73 11.51 132.47 11.23 133.33 11.23C134.19 11.23 134.93 11.51 135.55 12.08C136.17 12.65 136.48 13.32 136.48 14.11V23.22C136.48 23.95 136.4 24.96 136.24 26.27C136.46 25.31 136.75 24.25 137.1 23.09L140.58 11.59H142.2L145.68 23.09C146.03 24.25 146.32 25.31 146.54 26.27C146.38 24.96 146.3 23.95 146.3 23.22V11.59H148.02V28.67ZM134.95 14.12C134.95 13.71 134.79 13.36 134.47 13.07C134.15 12.78 133.77 12.63 133.33 12.63C132.89 12.63 132.5 12.78 132.19 13.07C131.87 13.36 131.71 13.71 131.71 14.12C131.71 14.53 131.87 14.87 132.19 15.16C132.51 15.45 132.89 15.6 133.33 15.6C133.77 15.6 134.16 15.45 134.47 15.16C134.79 14.87 134.95 14.52 134.95 14.12Z" fill="var(--fill-0, white)"/>
<path id="Vector_10" d="M150.11 0C150.01 0.99 149.49 1.7 148.54 2.14C148 2.4 147.24 2.63 146.25 2.84C145.33 2.99 144.76 3.17 144.53 3.41C145.23 3.47 145.81 3.72001 146.27 4.17001C146.73 4.62001 146.96 5.17 146.96 5.8C146.96 6.43 146.71 7.03 146.22 7.48C145.73 7.93 145.12 8.16 144.38 8.16C143.64 8.16 143.03 7.94 142.52 7.48C142.01 7.03 141.76 6.47 141.76 5.8C141.76 3.77 142.89 2.47001 145.15 1.92001L147.39 1.31001C148.19 1.05001 148.58 0.61 148.58 0H150.11ZM145.73 5.84C145.73 5.52 145.6 5.25 145.35 5.01C145.1 4.78 144.79 4.66 144.44 4.66C144.09 4.66 143.79 4.78 143.53 5.01C143.28 5.24 143.15 5.52 143.15 5.84C143.15 6.16 143.28 6.44001 143.53 6.67001C143.78 6.90001 144.09 7.02 144.44 7.02C144.79 7.02 145.09 6.90001 145.35 6.67001C145.6 6.44001 145.73 6.16 145.73 5.84Z" fill="var(--fill-0, white)"/>
<path id="Vector_11" d="M166.66 28.67H164.94V17.34C164.94 15.19 164.18 13.7 162.65 12.85C161.98 13.43 160.96 14.29 159.6 15.42L156.36 12.85C154.77 13.78 153.98 15.29 153.98 17.38C153.98 18.28 154.23 19.52 154.74 21.11C155.25 22.69 155.5 24.07 155.5 25.23C155.82 24.65 156.46 24 157.43 23.27C158.4 22.54 159.04 21.96 159.36 21.53C158.63 21.47 158.02 21.21 157.52 20.75C157.03 20.29 156.78 19.7 156.78 19.01C156.78 18.32 157.04 17.67 157.57 17.18C158.1 16.69 158.75 16.44 159.55 16.44C160.35 16.44 161.01 16.69 161.55 17.18C162.09 17.67 162.36 18.28 162.36 19.01C162.36 20.35 161.25 21.94 159.02 23.8C156.79 25.66 155.63 27.29 155.54 28.68H153.82V24.76C153.82 23.92 153.55 22.72 153.01 21.17C152.47 19.62 152.2 18.43 152.2 17.62C152.2 16.2 152.55 14.9 153.25 13.74C154.08 12.43 155.21 11.61 156.64 11.26L159.6 13.66L162.32 11.26C163.72 11.49 164.82 12.23 165.61 13.48C166.31 14.56 166.66 15.77 166.66 17.14V28.69V28.67ZM161.13 18.96C161.13 18.58 160.99 18.26 160.7 18C160.41 17.74 160.06 17.61 159.65 17.61C159.24 17.61 158.89 17.74 158.6 18C158.31 18.26 158.17 18.58 158.17 18.96C158.17 19.34 158.31 19.66 158.6 19.92C158.89 20.18 159.24 20.31 159.65 20.31C160.06 20.31 160.41 20.18 160.7 19.92C160.99 19.66 161.13 19.34 161.13 18.96Z" fill="var(--fill-0, white)"/>
<path id="Vector_12" d="M185.11 24.97C185.05 27.67 182.92 29.02 178.72 29.02C174.52 29.02 172.43 27.67 172.43 24.97V19.61C172.43 18.83 172.74 18.15 173.36 17.58C173.98 17.01 174.72 16.73 175.58 16.73C176.44 16.73 177.18 17.01 177.8 17.58C178.42 18.15 178.73 18.82 178.73 19.61C178.73 20.4 178.44 21.07 177.87 21.64C177.3 22.21 176.53 22.49 175.58 22.49C175.04 22.49 174.56 22.39 174.15 22.19V24.63C174.15 26.61 175.71 27.59 178.82 27.59C181.93 27.59 183.4 26.6 183.4 24.63V16.53C183.4 15.31 182.84 14.34 181.73 13.61C180.71 12.97 179.46 12.65 177.96 12.65C176.66 12.65 175.46 12.93 174.38 13.48C173.2 14.09 172.5 14.86 172.28 15.79H170.56C170.88 14.42 171.71 13.33 173.06 12.5C174.41 11.67 176.07 11.26 178.04 11.26C180.01 11.26 181.5 11.67 182.81 12.48C184.34 13.41 185.1 14.67 185.1 16.27V24.98L185.11 24.97ZM177.2 19.61C177.2 19.2 177.04 18.86 176.72 18.57C176.4 18.28 176.02 18.13 175.58 18.13C175.14 18.13 174.75 18.28 174.44 18.57C174.12 18.86 173.96 19.21 173.96 19.61C173.96 20.01 174.12 20.37 174.44 20.66C174.76 20.95 175.14 21.1 175.58 21.1C176.02 21.1 176.41 20.96 176.72 20.66C177.04 20.37 177.2 20.02 177.2 19.61Z" fill="var(--fill-0, white)"/>
<path id="Vector_13" d="M205.52 24.97C205.52 27.67 203.47 29.02 199.37 29.02C195.27 29.02 193.17 27.67 193.17 24.97V16.69C192.76 16.89 192.28 16.99 191.74 16.99C190.88 16.99 190.14 16.71 189.52 16.14C188.9 15.57 188.59 14.9 188.59 14.11C188.59 13.32 188.9 12.65 189.52 12.08C190.14 11.51 190.88 11.23 191.74 11.23C192.6 11.23 193.34 11.51 193.96 12.08C194.58 12.65 194.89 13.32 194.89 14.11V24.83C194.89 26.66 196.38 27.58 199.37 27.58C202.36 27.58 203.8 26.66 203.8 24.83V11.58H205.52V24.96V24.97ZM193.36 14.12C193.36 13.71 193.2 13.36 192.88 13.07C192.56 12.78 192.18 12.63 191.74 12.63C191.3 12.63 190.91 12.78 190.6 13.07C190.28 13.36 190.12 13.71 190.12 14.12C190.12 14.53 190.28 14.87 190.6 15.16C190.92 15.45 191.3 15.6 191.74 15.6C192.18 15.6 192.57 15.45 192.88 15.16C193.2 14.87 193.36 14.52 193.36 14.12Z" fill="var(--fill-0, white)"/>
<path id="Vector_14" d="M223.69 28.67H221.97V21.22C221.97 20.2 221.38 19.39 220.21 18.78C219.22 18.29 218.08 18.04 216.78 18.04C215.48 18.04 214.43 18.35 213.54 18.98C212.65 19.6 212.2 20.41 212.2 21.4V23.58C212.64 23.38 213.17 23.27 213.77 23.27C214.66 23.27 215.41 23.55 216.01 24.12C216.61 24.69 216.92 25.36 216.92 26.15C216.92 26.94 216.62 27.61 216.01 28.18C215.41 28.75 214.66 29.03 213.77 29.03C212.78 29.03 211.99 28.74 211.39 28.16C210.79 27.58 210.48 26.9 210.48 26.11V21.4C210.48 19.95 211.12 18.76 212.39 17.83C213.57 16.96 214.98 16.52 216.63 16.52C218.85 16.52 220.64 17.1 221.97 18.26V16.13C221.97 15.08 221.37 14.21 220.16 13.52C219.11 12.94 217.95 12.65 216.68 12.65C215.34 12.65 214.14 12.91 213.06 13.43C211.88 14.01 211.15 14.8 210.87 15.78H209.2C209.42 14.44 210.28 13.34 211.78 12.47C213.18 11.66 214.78 11.25 216.6 11.25C218.42 11.25 220.03 11.64 221.37 12.43C222.93 13.36 223.71 14.62 223.71 16.22V28.68L223.69 28.67ZM215.35 26.19C215.35 25.78 215.19 25.44 214.87 25.14C214.55 24.85 214.17 24.7 213.73 24.7C213.29 24.7 212.91 24.85 212.61 25.14C212.31 25.43 212.16 25.78 212.16 26.19C212.16 26.6 212.31 26.94 212.61 27.21C212.91 27.49 213.29 27.62 213.73 27.62C214.17 27.62 214.56 27.48 214.87 27.21C215.19 26.93 215.35 26.59 215.35 26.19Z" fill="var(--fill-0, white)"/>
<path id="Vector_15" d="M223.69 36.65C223.69 38.45 222.55 39.35 220.26 39.35C218.1 39.35 217.02 38.48 217.02 36.74V35.26C216.77 35.35 216.48 35.39 216.16 35.39C215.46 35.39 214.87 35.16 214.37 34.72C213.88 34.27 213.63 33.72 213.63 33.09C213.63 32.46 213.88 31.91 214.37 31.46C214.86 31.01 215.46 30.79 216.16 30.79C216.86 30.79 217.46 31.01 217.95 31.46C218.44 31.91 218.69 32.46 218.69 33.09V37.01C218.69 37.68 219.25 38.01 220.36 38.01C221.47 38.01 221.98 37.68 221.98 37.01V30.95H223.7V36.66L223.69 36.65ZM217.4 33.03C217.4 32.71 217.28 32.44 217.04 32.22C216.8 32 216.51 31.89 216.16 31.89C215.81 31.89 215.52 32 215.28 32.22C215.04 32.44 214.92 32.71 214.92 33.03C214.92 33.35 215.04 33.62 215.28 33.84C215.52 34.06 215.81 34.17 216.16 34.17C216.51 34.17 216.8 34.06 217.04 33.84C217.28 33.62 217.4 33.35 217.4 33.03Z" fill="var(--fill-0, white)"/>
<path id="Vector_16" d="M242.1 28.67H240.38V17.3C240.38 15.88 239.89 14.74 238.93 13.9C237.96 13.06 236.71 12.64 235.19 12.64C234.11 12.64 233.06 12.92 232.04 13.47C231.02 14.02 230.32 14.73 229.94 15.61C231.82 15.76 233.1 16.39 233.8 17.53C233.04 17.68 232.37 18.06 231.8 18.68C231.23 19.3 230.94 19.99 230.94 20.75V28.68H229.22V20.79C229.22 19.08 230.05 17.91 231.7 17.3C230.65 16.84 229.44 16.68 228.08 16.82C228.33 15.19 229.14 13.86 230.49 12.81C231.84 11.76 233.44 11.24 235.28 11.24C237.35 11.24 239 11.76 240.24 12.81C241.48 13.86 242.1 15.29 242.1 17.12V28.67Z" fill="var(--fill-0, white)"/>
<path id="Vector_17" d="M260.84 28.67H259.12V16.95C259.12 15.56 258.56 14.49 257.43 13.75C256.3 13.01 255.02 12.64 253.59 12.64C252.16 12.64 250.85 13.1 249.75 14.01C248.65 14.93 248.1 16.05 248.1 17.39C248.1 18.03 248.23 18.8 248.48 19.7C248.83 20.98 249.02 21.7 249.05 21.88C249.34 20.22 249.83 18.82 250.53 17.65C251.45 16.14 252.61 15.38 254.01 15.38C254.8 15.38 255.46 15.61 255.97 16.08C256.48 16.55 256.73 17.17 256.73 17.95C256.73 18.68 256.46 19.29 255.92 19.8C255.38 20.31 254.71 20.56 253.92 20.56C253.13 20.56 252.36 20.21 251.73 19.51C251.28 20.12 250.84 20.99 250.39 22.12C249.85 23.51 249.58 24.75 249.58 25.82V28.65H247.86V24.64C247.86 23.8 247.61 22.61 247.1 21.07C246.59 19.53 246.34 18.36 246.34 17.54C246.34 15.65 247.04 14.13 248.44 12.97C249.84 11.81 251.59 11.23 253.69 11.23C255.63 11.23 257.31 11.7 258.72 12.65C260.13 13.59 260.84 14.98 260.84 16.81V28.66V28.67ZM255.4 17.95C255.4 17.57 255.26 17.25 254.97 16.99C254.68 16.73 254.33 16.6 253.92 16.6C253.51 16.6 253.16 16.73 252.87 16.99C252.58 17.25 252.44 17.57 252.44 17.95C252.44 18.33 252.58 18.65 252.87 18.91C253.16 19.17 253.51 19.3 253.92 19.3C254.33 19.3 254.68 19.17 254.97 18.91C255.26 18.65 255.4 18.33 255.4 17.95Z" fill="var(--fill-0, white)"/>
<path id="Vector_18" d="M264.42 0.660004C263.94 3.42 262.64 5.37 260.51 6.5C258.76 7.43 256.41 7.89 253.45 7.89H252.5V6.97C253.74 6.51 254.6 5.84 255.07 4.97C253.26 4.77 252.35 3.94001 252.35 2.49001C252.35 1.85001 252.6 1.32 253.11 0.900002C253.62 0.480002 254.22 0.270004 254.92 0.270004C255.72 0.270004 256.34 0.500001 256.8 0.970001C257.26 1.43 257.49 2.02001 257.49 2.71001C257.49 4.34001 256.76 5.64 255.3 6.63C259.56 6.34 261.94 4.35 262.45 0.660004H264.41H264.42ZM256.21 2.62C256.21 2.3 256.09 2.03001 255.85 1.81001C255.61 1.59001 255.32 1.48 254.97 1.48C254.62 1.48 254.33 1.59001 254.09 1.81001C253.85 2.03001 253.73 2.3 253.73 2.62C253.73 2.94 253.85 3.21 254.09 3.43C254.33 3.65 254.62 3.76 254.97 3.76C255.32 3.76 255.61 3.65 255.85 3.43C256.09 3.21 256.21 2.94 256.21 2.62Z" fill="var(--fill-0, white)"/>
<path id="Vector_19" d="M275.91 28.67H274.19V15.64C274.19 14.77 273.83 14.05 273.12 13.48C272.4 12.91 271.43 12.63 270.19 12.63C269.08 12.63 268.19 12.97 267.52 13.65C266.85 14.33 266.49 15.07 266.42 15.85H264.66C264.69 14.63 265.22 13.56 266.26 12.63C267.29 11.7 268.62 11.24 270.24 11.24C272.08 11.24 273.49 11.65 274.46 12.46C275.43 13.27 275.91 14.35 275.91 15.68V28.66V28.67Z" fill="var(--fill-0, white)"/>
<path id="Vector_20" d="M289.4 26.06C289.4 26.87 289.08 27.57 288.45 28.15C287.81 28.73 287.07 29.02 286.21 29.02C285.19 29.02 284.37 28.7 283.73 28.06C283.19 27.51 282.92 26.84 282.92 26.06V8.24001C282.92 7.75001 283.06 7.18 283.35 6.54C284.02 5.06 284.35 4.14 284.35 3.79C284.35 3.06 284.08 2.47 283.54 2C283 1.54 282.33 1.3 281.54 1.3C280.36 1.3 279.46 1.63 278.82 2.3C279.68 2.18 280.39 2.36 280.97 2.82C281.55 3.28 281.83 3.89 281.83 4.65C281.83 5.32 281.58 5.88001 281.07 6.35001C280.56 6.81001 279.96 7.05 279.26 7.05C278.56 7.05 277.94 6.82001 277.4 6.35001C276.86 5.89001 276.59 5.19 276.59 4.26C276.59 3.07 277.05 2.07 277.97 1.25C278.89 0.44 280.13 0.0300064 281.69 0.0300064C282.83 0.0300064 283.86 0.360002 284.77 1.01C285.68 1.66 286.13 2.5 286.13 3.51C286.13 4.12 285.88 4.96 285.39 6.04C284.9 7.12 284.65 7.94 284.65 8.52V23.47C285.09 23.24 285.62 23.12 286.22 23.12C287.08 23.12 287.82 23.4 288.46 23.97C289.1 24.54 289.41 25.23 289.41 26.04L289.4 26.06ZM280.53 4.66C280.53 4.34 280.41 4.06001 280.17 3.81001C279.93 3.56001 279.61 3.44 279.19 3.44C278.77 3.44 278.45 3.56001 278.21 3.81001C277.97 4.06001 277.85 4.34 277.85 4.66C277.85 4.98 277.97 5.26 278.21 5.51C278.45 5.76 278.77 5.88 279.19 5.88C279.61 5.88 279.93 5.76 280.17 5.51C280.41 5.26 280.53 4.98 280.53 4.66ZM287.83 26.06C287.83 25.65 287.66 25.31 287.33 25.01C287 24.72 286.61 24.57 286.16 24.57C285.75 24.57 285.38 24.72 285.06 25.01C284.74 25.3 284.58 25.65 284.58 26.06C284.58 26.47 284.73 26.82 285.03 27.11C285.33 27.4 285.71 27.55 286.15 27.55C286.59 27.55 286.98 27.4 287.32 27.11C287.65 26.82 287.82 26.47 287.82 26.06H287.83Z" fill="var(--fill-0, white)"/>
<path id="Vector_21" d="M307.81 28.67H306.09V19.26C306.09 17.92 305.71 17.26 304.95 17.26C304.47 17.26 303.9 17.77 303.23 18.79L297.08 28.68H295.51V16.7C295.1 16.9 294.62 17 294.08 17C293.22 17 292.48 16.72 291.86 16.15C291.24 15.58 290.93 14.91 290.93 14.12C290.93 13.33 291.24 12.66 291.86 12.09C292.48 11.52 293.22 11.24 294.08 11.24C294.94 11.24 295.68 11.52 296.3 12.09C296.92 12.66 297.23 13.33 297.23 14.12V23.58C297.23 23.84 297.15 24.74 296.99 26.28C297.37 25.55 297.72 24.91 298.04 24.36L301.9 17.87C302.34 17.14 302.87 16.64 303.47 16.34C302.71 15.79 302.33 15.05 302.33 14.12C302.33 13.33 302.64 12.66 303.26 12.09C303.88 11.52 304.62 11.24 305.48 11.24C306.34 11.24 307.08 11.52 307.7 12.09C308.32 12.66 308.63 13.33 308.63 14.12C308.63 15.22 308.11 16.05 307.06 16.6C307.57 17.09 307.82 17.98 307.82 19.26V28.67H307.81ZM295.7 14.12C295.7 13.71 295.54 13.36 295.22 13.07C294.9 12.78 294.52 12.63 294.08 12.63C293.64 12.63 293.25 12.78 292.94 13.07C292.62 13.36 292.46 13.71 292.46 14.12C292.46 14.53 292.62 14.87 292.94 15.16C293.26 15.45 293.64 15.6 294.08 15.6C294.52 15.6 294.91 15.45 295.22 15.16C295.54 14.87 295.7 14.52 295.7 14.12ZM307.09 14.12C307.09 13.71 306.93 13.36 306.61 13.07C306.29 12.78 305.91 12.63 305.47 12.63C305.03 12.63 304.64 12.78 304.33 13.07C304.01 13.36 303.85 13.71 303.85 14.12C303.85 14.53 304.01 14.87 304.33 15.16C304.65 15.45 305.03 15.6 305.47 15.6C305.91 15.6 306.3 15.45 306.61 15.16C306.93 14.87 307.09 14.52 307.09 14.12Z" fill="var(--fill-0, white)"/>
<path id="Vector_22" d="M311.39 0.660004C310.91 3.42 309.61 5.37 307.48 6.5C305.73 7.43 303.38 7.89 300.42 7.89H299.47V6.97C300.71 6.51 301.57 5.84 302.04 4.97C300.23 4.77 299.32 3.94001 299.32 2.49001C299.32 1.85001 299.57 1.32 300.08 0.900002C300.59 0.480002 301.19 0.270004 301.89 0.270004C302.69 0.270004 303.31 0.500001 303.77 0.970001C304.23 1.43 304.46 2.02001 304.46 2.71001C304.46 4.34001 303.73 5.64 302.27 6.63C306.53 6.34 308.91 4.35 309.42 0.660004H311.38H311.39ZM303.18 2.62C303.18 2.3 303.06 2.03001 302.82 1.81001C302.58 1.59001 302.29 1.48 301.94 1.48C301.59 1.48 301.3 1.59001 301.06 1.81001C300.82 2.03001 300.7 2.3 300.7 2.62C300.7 2.94 300.82 3.21 301.06 3.43C301.3 3.65 301.59 3.76 301.94 3.76C302.29 3.76 302.58 3.65 302.82 3.43C303.06 3.21 303.18 2.94 303.18 2.62Z" fill="var(--fill-0, white)"/>
<path id="Vector_23" d="M328.31 28.67H326.59V14.73C326.59 13.42 326.13 12.77 325.21 12.77C324.64 12.77 324.14 13.15 323.73 13.9L317.67 28.67H315.86V16.69C315.45 16.89 314.97 16.99 314.43 16.99C313.57 16.99 312.83 16.71 312.21 16.14C311.59 15.57 311.28 14.9 311.28 14.11C311.28 13.32 311.59 12.65 312.21 12.08C312.83 11.51 313.57 11.23 314.43 11.23C315.29 11.23 316.03 11.51 316.65 12.08C317.27 12.65 317.58 13.32 317.58 14.11V22.65C317.52 23.99 317.44 24.94 317.34 25.53C317.53 24.95 317.82 24.14 318.2 23.09L322.06 13.68C322.73 12.05 323.82 11.24 325.35 11.24C327.32 11.24 328.31 12.4 328.31 14.73V28.67ZM316.06 14.12C316.06 13.71 315.9 13.36 315.58 13.07C315.26 12.78 314.88 12.63 314.44 12.63C314 12.63 313.61 12.78 313.3 13.07C312.98 13.36 312.82 13.71 312.82 14.12C312.82 14.53 312.98 14.87 313.3 15.16C313.62 15.45 314 15.6 314.44 15.6C314.88 15.6 315.27 15.45 315.58 15.16C315.9 14.87 316.06 14.52 316.06 14.12Z" fill="var(--fill-0, white)"/>
<path id="Vector_24" d="M328.6 8.85001C324.94 7.66001 321.51 7.06001 318.3 7.06001C317.16 7.06001 315.9 7.15 314.53 7.32C314.56 5.81 315.25 4.59 316.58 3.66C317.79 2.82 319.23 2.4 320.92 2.4C323.46 2.4 325.4 3.17001 326.74 4.71001V0.480003H328.31V7.67001C328.44 8.05001 328.53 8.44001 328.6 8.85001ZM326.74 7.19C325.34 4.84 323.42 3.66 320.97 3.66C318.75 3.66 317.25 4.43 316.49 5.97C317.16 5.88 317.9 5.84 318.73 5.84C321.78 5.84 324.45 6.29 326.74 7.19Z" fill="var(--fill-0, white)"/>
<path id="Vector_25" d="M347.05 28.67H345.33V16.95C345.33 15.56 344.77 14.49 343.64 13.75C342.51 13.01 341.23 12.64 339.8 12.64C338.37 12.64 337.06 13.1 335.96 14.01C334.86 14.93 334.31 16.05 334.31 17.39C334.31 18.03 334.44 18.8 334.69 19.7C335.04 20.98 335.23 21.7 335.26 21.88C335.55 20.22 336.04 18.82 336.74 17.65C337.66 16.14 338.82 15.38 340.22 15.38C341.01 15.38 341.67 15.61 342.18 16.08C342.69 16.55 342.94 17.17 342.94 17.95C342.94 18.68 342.67 19.29 342.13 19.8C341.59 20.31 340.92 20.56 340.13 20.56C339.34 20.56 338.57 20.21 337.94 19.51C337.49 20.12 337.05 20.99 336.6 22.12C336.06 23.51 335.79 24.75 335.79 25.82V28.65H334.07V24.64C334.07 23.8 333.82 22.61 333.31 21.07C332.8 19.53 332.55 18.36 332.55 17.54C332.55 15.65 333.25 14.13 334.65 12.97C336.05 11.81 337.8 11.23 339.9 11.23C341.84 11.23 343.52 11.7 344.93 12.65C346.34 13.59 347.05 14.98 347.05 16.81V28.66V28.67ZM341.62 17.95C341.62 17.57 341.48 17.25 341.19 16.99C340.9 16.73 340.55 16.6 340.14 16.6C339.73 16.6 339.38 16.73 339.09 16.99C338.8 17.25 338.66 17.57 338.66 17.95C338.66 18.33 338.8 18.65 339.09 18.91C339.38 19.17 339.73 19.3 340.14 19.3C340.55 19.3 340.9 19.17 341.19 18.91C341.48 18.65 341.62 18.33 341.62 17.95Z" fill="var(--fill-0, white)"/>
<path id="Vector_26" d="M361.84 26.14C361.84 26.92 361.55 27.6 360.98 28.17C360.41 28.74 359.64 29.02 358.69 29.02C357.83 29.02 357.09 28.74 356.47 28.17C355.85 27.6 355.54 26.93 355.54 26.14C355.54 25.35 355.85 24.68 356.47 24.11C357.09 23.54 357.83 23.26 358.69 23.26C359.23 23.26 359.71 23.36 360.12 23.57V18.99C360.12 17.8 357.05 16.75 350.92 15.85C351.11 12.77 352.65 11.23 355.55 11.23C356.22 11.23 357.16 11.38 358.39 11.69C359.61 12 360.5 12.15 361.04 12.15C361.36 12.15 361.66 11.82 361.95 11.15L363.43 11.5C362.95 12.89 362.14 13.59 361 13.59C360.33 13.59 359.37 13.43 358.11 13.11C356.85 12.79 355.91 12.63 355.27 12.63C354.7 12.63 354.17 12.85 353.67 13.3C353.18 13.75 352.91 14.21 352.88 14.67C354.91 14.99 356.92 15.47 358.89 16.11C360.86 16.75 361.85 17.66 361.85 18.86V26.14H361.84ZM360.31 26.14C360.31 25.73 360.15 25.39 359.83 25.09C359.51 24.8 359.13 24.65 358.69 24.65C358.25 24.65 357.86 24.8 357.55 25.09C357.23 25.38 357.07 25.73 357.07 26.14C357.07 26.55 357.23 26.9 357.55 27.19C357.87 27.48 358.25 27.63 358.69 27.63C359.13 27.63 359.52 27.49 359.83 27.19C360.15 26.9 360.31 26.55 360.31 26.14Z" fill="var(--fill-0, white)"/>
<path id="Vector_27" d="M367.42 1.7C367.39 3.68 366.67 5.29001 365.27 6.56001C363.87 7.82001 362.11 8.46001 359.98 8.46001C358.14 8.46001 356.66 8.11 355.55 7.41C354.44 6.71 353.88 5.80001 353.88 4.67001C353.88 3.91001 354.18 3.26001 354.79 2.71001C355.39 2.16001 356.11 1.88 356.94 1.88C357.77 1.88 358.48 2.15 359.09 2.69C359.69 3.23 360 3.87 360 4.63C360 5.62 359.52 6.4 358.57 6.98C359.02 7.07 359.6 7.11 360.33 7.11C361.89 7.08 363.18 6.52 364.19 5.41C365.08 4.39 365.56 3.16001 365.62 1.71001H367.43L367.42 1.7ZM358.45 4.58C358.45 4.17 358.3 3.83001 358 3.56001C357.7 3.28001 357.34 3.15 356.93 3.15C356.52 3.15 356.15 3.29001 355.83 3.56001C355.51 3.84001 355.35 4.18 355.35 4.58C355.35 4.98 355.51 5.32 355.83 5.58C356.15 5.84 356.51 5.97 356.93 5.97C357.35 5.97 357.7 5.84 358 5.58C358.3 5.32 358.45 4.99 358.45 4.58Z" fill="var(--fill-0, white)"/>
<path id="Vector_28" d="M382.82 24.97C382.82 27.67 380.77 29.02 376.67 29.02C372.57 29.02 370.47 27.67 370.47 24.97V16.69C370.06 16.89 369.58 16.99 369.04 16.99C368.18 16.99 367.44 16.71 366.82 16.14C366.2 15.57 365.89 14.9 365.89 14.11C365.89 13.32 366.2 12.65 366.82 12.08C367.44 11.51 368.18 11.23 369.04 11.23C369.9 11.23 370.64 11.51 371.26 12.08C371.88 12.65 372.19 13.32 372.19 14.11V24.83C372.19 26.66 373.68 27.58 376.67 27.58C379.66 27.58 381.1 26.66 381.1 24.83V11.58H382.82V24.96V24.97ZM370.66 14.12C370.66 13.71 370.5 13.36 370.18 13.07C369.86 12.78 369.48 12.63 369.04 12.63C368.6 12.63 368.21 12.78 367.9 13.07C367.58 13.36 367.42 13.71 367.42 14.12C367.42 14.53 367.58 14.87 367.9 15.16C368.22 15.45 368.6 15.6 369.04 15.6C369.48 15.6 369.87 15.45 370.18 15.16C370.5 14.87 370.66 14.52 370.66 14.12Z" fill="var(--fill-0, white)"/>
</g>
</svg>
