<svg preserveAspectRatio="none" width="100%" height="100%" overflow="visible" style="display: block;" viewBox="0 0 115.073 79.778" fill="none" xmlns="http://www.w3.org/2000/svg">
<g id="Group" opacity="0.2">
<path id="Vector" d="M13.1189 61.518C14.7489 59.888 16.0189 58.568 16.9289 57.568C17.8389 56.568 18.3889 55.378 18.5789 53.988C18.6989 53.178 18.6289 52.448 18.3389 51.828C18.0589 51.198 17.7589 50.668 17.4489 50.228C17.0689 49.728 16.6289 49.318 16.1289 49.008L14.1489 50.418L11.9889 49.098L11.1389 49.848C11.8289 50.228 12.4189 50.728 12.9289 51.358C13.3089 51.858 13.5989 52.548 13.8189 53.428C14.0389 54.308 13.9889 55.338 13.6789 56.528C13.4289 57.528 12.9389 58.358 12.2189 59.018C11.4989 59.678 10.6689 60.178 9.72891 60.528C8.78891 60.878 7.79891 61.028 6.76891 60.998C5.73891 60.968 4.74891 60.728 3.80891 60.288C2.67891 59.788 1.79891 59.038 1.17891 58.028C0.548908 57.028 0.178907 55.908 0.0489072 54.688C-0.0810928 53.468 0.0489083 52.228 0.428908 50.968C0.808908 49.718 1.39891 48.558 2.21891 47.488C3.02891 46.418 3.90891 45.528 4.84891 44.808C5.78891 44.088 6.66891 43.528 7.47891 43.118C8.28891 42.708 9.23891 42.318 10.2989 41.938L14.0589 44.388L17.9189 41.938C17.9789 41.938 18.3689 42.158 19.0989 42.598C19.8189 43.038 20.6489 43.668 21.5889 44.478C22.5289 45.298 23.4089 46.278 24.2189 47.438C25.0289 48.598 25.5689 49.898 25.8189 51.338C26.0089 52.598 26.0589 53.678 25.9589 54.588C25.8689 55.498 25.6589 56.358 25.3489 57.178C25.0389 57.998 24.5689 58.808 23.9389 59.628C23.3089 60.448 22.5889 61.358 21.7789 62.358C20.6489 63.738 19.4889 65.088 18.2989 66.408C17.1089 67.728 16.5089 69.168 16.5089 70.738V73.368H29.2089V54.928C29.2089 54.238 29.1889 53.678 29.1589 53.238C29.1289 52.798 28.9589 52.168 28.6389 51.358C28.1389 50.288 27.4489 49.558 26.5689 49.148C25.6889 48.738 25.1889 48.538 25.0589 48.538L31.0789 40.258H39.8289L34.4689 47.598C34.5289 47.598 34.8089 47.868 35.3189 48.398C35.8189 48.928 36.2289 49.638 36.5389 50.518C36.7889 51.338 36.9289 52.068 36.9589 52.728C36.9889 53.388 37.0089 54.058 37.0089 54.748V79.778H8.68891V69.708C8.68891 67.888 9.15891 66.338 10.0989 65.048C11.0389 63.768 12.0389 62.588 13.1089 61.518H13.1189ZM7.09891 52.008C6.27891 52.008 5.66891 52.258 5.26891 52.758C4.85891 53.258 4.65891 53.828 4.65891 54.448C4.65891 55.068 4.85891 55.638 5.26891 56.138C5.67891 56.638 6.28891 56.888 7.09891 56.888C7.90891 56.888 8.52891 56.638 8.92891 56.138C9.33891 55.638 9.53891 55.068 9.53891 54.448C9.53891 53.828 9.33891 53.258 8.92891 52.758C8.51891 52.258 7.90891 52.008 7.09891 52.008Z" fill="var(--fill-0, #06A16E)"/>
<path id="Vector_2" d="M30.2389 10.138C30.1789 10.138 29.9089 10.088 29.4389 9.99796C28.9689 9.90796 28.4489 9.69796 27.8889 9.38796C27.3289 9.07796 26.8189 8.57796 26.3789 7.87796C25.9389 7.18796 25.7189 6.24796 25.7189 5.05796C25.7189 3.73796 26.1289 2.60796 26.9389 1.66796C27.7589 0.727958 28.8789 0.197958 30.3289 0.0679578C31.8989 -0.122042 33.1689 0.0879579 34.1389 0.677958C35.1089 1.27796 35.7589 2.19796 36.0689 3.45796C36.3189 4.33796 36.3989 5.14796 36.3089 5.90796C36.2189 6.66796 36.0689 7.31796 35.8889 7.88796C35.6989 8.44796 35.3889 9.10796 34.9489 9.86796C35.0089 9.86796 35.4689 9.67796 36.3089 9.30796C37.1589 8.92796 38.0189 8.49796 38.8989 7.98796C40.3389 7.29796 41.3889 6.65796 42.0489 6.05796C42.7089 5.45796 43.0689 5.16796 43.1289 5.16796L45.2889 8.74796C45.2289 8.74796 44.5389 9.23796 43.2189 10.208C41.8989 11.178 39.8989 12.228 37.1989 13.358C36.1289 13.798 35.0989 14.188 34.0989 14.538C33.0989 14.888 32.1989 15.178 31.4189 15.428C30.6389 15.678 29.9889 15.888 29.4889 16.038C28.9889 16.198 28.7089 16.278 28.6389 16.278L26.4789 12.608C26.7289 12.548 26.9789 12.448 27.2289 12.328C27.7889 12.138 28.3289 11.858 28.8289 11.478C29.4589 11.098 29.8289 10.788 29.9589 10.538C30.0889 10.418 30.1789 10.288 30.2389 10.158V10.138ZM31.0889 2.98796C30.3989 2.98796 29.8789 3.20796 29.5389 3.64796C29.1989 4.08796 29.0189 4.55796 29.0189 5.05796C29.0189 5.55796 29.1889 6.02796 29.5389 6.46796C29.8889 6.90796 30.3989 7.12796 31.0889 7.12796C31.7789 7.12796 32.2989 6.90796 32.6389 6.46796C32.9889 6.02796 33.1589 5.55796 33.1589 5.05796C33.1589 4.55796 32.9889 4.08796 32.6389 3.64796C32.2989 3.20796 31.7789 2.98796 31.0889 2.98796Z" fill="var(--fill-0, #06A16E)"/>
<path id="Vector_3" d="M31.6589 35.268C29.0289 35.268 27.0689 34.458 25.7789 32.818C24.4989 31.188 23.8489 29.398 23.8489 27.458C23.8489 25.518 24.4889 23.728 25.7789 22.098C27.0689 20.468 29.0289 19.648 31.6589 19.648C34.2889 19.648 36.2589 20.468 37.5389 22.098C38.8289 23.728 39.4689 25.518 39.4689 27.458C39.4689 29.398 38.8289 31.188 37.5389 32.818C36.2589 34.448 34.2889 35.268 31.6589 35.268ZM31.6589 24.448C30.6589 24.448 29.8989 24.758 29.3989 25.388C28.8989 26.018 28.6489 26.718 28.6489 27.508C28.6489 28.298 28.8989 28.998 29.3989 29.628C29.8989 30.258 30.6589 30.568 31.6589 30.568C32.6589 30.568 33.4189 30.258 33.9189 29.628C34.4189 28.998 34.6689 28.298 34.6689 27.508C34.6689 26.718 34.4189 26.018 33.9189 25.388C33.4189 24.758 32.6689 24.448 31.6589 24.448ZM55.9289 48.528C54.6689 48.528 53.6389 48.728 52.8289 49.138C52.0089 49.548 51.3689 50.078 50.8989 50.738C50.4289 51.398 50.0989 52.168 49.9089 53.048C49.7189 53.928 49.6289 54.838 49.6289 55.778V57.188H42.0989V55.588C42.0989 53.648 42.3689 51.838 42.8989 50.178C43.4289 48.518 44.2989 47.078 45.4889 45.848C46.6789 44.628 48.1889 43.668 50.0089 42.978C51.8289 42.288 54.0589 41.948 56.6889 41.948C59.3189 41.948 61.5989 42.258 63.3189 42.888C65.0389 43.518 66.4089 44.378 67.4089 45.478C68.4089 46.578 69.0989 47.898 69.4789 49.428C69.8589 50.968 70.0389 52.608 70.0389 54.368V79.768H62.2289V53.798C62.2289 52.168 61.7689 50.878 60.8689 49.938C59.9589 48.998 58.3089 48.528 55.9289 48.528Z" fill="var(--fill-0, #06A16E)"/>
<path id="Vector_4" d="M96.7589 50.788C97.4489 50.848 98.0289 50.978 98.4989 51.168C98.9689 51.358 99.4589 51.638 99.9589 52.018C100.459 52.398 100.899 52.928 101.279 53.618C101.779 54.558 102.059 55.558 102.129 56.628C102.189 57.698 102.039 58.718 101.659 59.688C101.279 60.658 100.699 61.508 99.9189 62.228C99.1389 62.948 98.1189 63.438 96.8589 63.688C94.8489 64.068 93.1889 63.958 91.8689 63.358C90.5489 62.758 89.5289 61.868 88.8089 60.678C88.0889 59.488 87.6489 58.108 87.4889 56.538C87.3289 54.968 87.4389 53.368 87.8189 51.738C88.3189 49.608 89.1489 47.878 90.3089 46.568C91.4689 45.248 92.6489 44.258 93.8389 43.608C95.0289 42.948 96.5689 42.398 98.4489 41.958L102.969 45.538L107.019 41.958C107.959 42.018 108.739 42.148 109.369 42.338C109.999 42.528 110.669 42.828 111.389 43.228C112.109 43.638 112.719 44.188 113.219 44.878C113.849 45.758 114.289 46.648 114.539 47.558C114.789 48.468 114.949 49.358 115.009 50.238C115.069 51.118 115.089 51.918 115.059 52.638C115.029 53.358 115.009 53.938 115.009 54.378V79.778H107.199V50.328C107.199 50.208 107.139 50.018 107.009 49.768C106.759 49.388 106.539 49.208 106.349 49.208L102.589 52.128L98.2589 48.838C98.1289 48.838 97.9789 48.868 97.7889 48.928C97.4789 49.058 97.2289 49.238 97.0389 49.488C96.8489 49.738 96.7589 50.048 96.7589 50.428V50.808V50.788ZM94.9789 54.648C94.1589 54.648 93.5489 54.918 93.1489 55.448C92.7389 55.978 92.5389 56.548 92.5389 57.138C92.5389 57.728 92.7389 58.298 93.1489 58.828C93.5589 59.358 94.1689 59.628 94.9789 59.628C95.7889 59.628 96.4089 59.358 96.8089 58.828C97.2189 58.298 97.4189 57.728 97.4189 57.138C97.4189 56.548 97.2189 55.978 96.8089 55.448C96.3989 54.918 95.7889 54.648 94.9789 54.648Z" fill="var(--fill-0, #06A16E)"/>
</g>
</svg>
