<svg preserveAspectRatio="none" width="100%" height="100%" overflow="visible" style="display: block;" viewBox="0 0 183.121 126.947" fill="none" xmlns="http://www.w3.org/2000/svg">
<g id="Group" opacity="0.4">
<path id="Vector" d="M20.885 97.8574C23.475 95.2674 25.495 93.1674 26.945 91.5674C28.385 89.9674 29.265 88.0774 29.565 85.8774C29.765 84.5774 29.635 83.4374 29.195 82.4374C28.745 81.4374 28.275 80.5874 27.775 79.8974C27.175 79.0974 26.475 78.4474 25.675 77.9474L22.535 80.1974L19.095 78.0974L17.745 79.2974C18.845 79.8974 19.785 80.6974 20.585 81.6974C21.185 82.4974 21.655 83.5974 22.005 84.9874C22.355 86.3874 22.275 88.0374 21.785 89.9274C21.385 91.5274 20.615 92.8474 19.465 93.8974C18.315 94.9474 16.995 95.7474 15.495 96.2974C13.995 96.8474 12.425 97.0974 10.785 97.0474C9.135 96.9974 7.565 96.6274 6.065 95.9274C4.265 95.1274 2.865 93.9274 1.875 92.3374C0.874996 90.7374 0.275 88.9674 0.0750002 87.0274C-0.125 85.0774 0.0749987 83.1074 0.674999 81.1174C1.275 79.1174 2.225 77.2774 3.525 75.5774C4.825 73.8774 6.225 72.4574 7.715 71.3074C9.215 70.1574 10.605 69.2674 11.905 68.6174C13.195 67.9674 14.695 67.3474 16.395 66.7474L22.385 70.6374L28.525 66.7474C28.625 66.7474 29.245 67.0974 30.395 67.7974C31.545 68.4974 32.865 69.4974 34.365 70.7874C35.865 72.0874 37.255 73.6574 38.555 75.5074C39.855 77.3574 40.705 79.4274 41.105 81.7174C41.405 83.7174 41.475 85.4374 41.325 86.8774C41.175 88.3274 40.845 89.6974 40.355 90.9974C39.855 92.2974 39.105 93.5974 38.105 94.8874C37.105 96.1874 35.955 97.6374 34.665 99.2274C32.865 101.427 31.025 103.567 29.125 105.667C27.225 107.767 26.275 110.057 26.275 112.557V116.747H46.485V87.4074C46.485 86.3074 46.455 85.4074 46.415 84.7174C46.365 84.0174 46.085 83.0174 45.595 81.7274C44.795 80.0274 43.695 78.8574 42.305 78.2074C40.905 77.5574 40.105 77.2374 39.905 77.2374L49.485 64.0674H63.405L54.875 75.7474C54.975 75.7474 55.425 76.1774 56.225 77.0174C57.025 77.8674 57.675 78.9874 58.175 80.3874C58.575 81.6874 58.795 82.8574 58.845 83.9074C58.895 84.9574 58.915 86.0274 58.915 87.1274V126.947H13.855V110.927C13.855 108.037 14.605 105.567 16.105 103.517C17.605 101.477 19.195 99.5974 20.895 97.9074L20.885 97.8574ZM11.305 82.7374C10.005 82.7374 9.035 83.1374 8.385 83.9374C7.735 84.7374 7.415 85.6374 7.415 86.6274C7.415 87.6174 7.735 88.5274 8.385 89.3174C9.035 90.1174 10.005 90.5174 11.305 90.5174C12.605 90.5174 13.575 90.1174 14.225 89.3174C14.875 88.5174 15.195 87.6174 15.195 86.6274C15.195 85.6374 14.865 84.7374 14.225 83.9374C13.575 83.1374 12.605 82.7374 11.305 82.7374Z" fill="var(--fill-0, #06A16E)"/>
<path id="Vector_2" d="M48.125 16.1274C48.025 16.1274 47.605 16.0474 46.855 15.9074C46.105 15.7574 45.285 15.4374 44.385 14.9374C43.485 14.4374 42.685 13.6374 41.985 12.5374C41.285 11.4374 40.935 9.94742 40.935 8.04742C40.935 5.94742 41.585 4.1574 42.885 2.6574C44.185 1.1574 45.975 0.317414 48.275 0.107414C50.775 -0.192586 52.795 0.137415 54.335 1.07742C55.885 2.02742 56.905 3.49743 57.405 5.49743C57.805 6.89743 57.925 8.18741 57.775 9.38741C57.625 10.5874 57.405 11.6374 57.105 12.5274C56.805 13.4274 56.305 14.4774 55.605 15.6674C55.705 15.6674 56.425 15.3674 57.775 14.7674C59.125 14.1674 60.495 13.4674 61.895 12.6674C64.195 11.5674 65.865 10.5474 66.905 9.5974C67.955 8.6474 68.525 8.17742 68.625 8.17742L72.065 13.8674C71.965 13.8674 70.865 14.6374 68.775 16.1874C66.675 17.7374 63.485 19.4074 59.195 21.1974C57.495 21.8974 55.855 22.5174 54.255 23.0674C52.655 23.6174 51.235 24.0874 49.985 24.4874C48.735 24.8874 47.715 25.2174 46.915 25.4574C46.115 25.7074 45.665 25.8274 45.565 25.8274L42.125 19.9874C42.525 19.8874 42.925 19.7374 43.325 19.5374C44.225 19.2374 45.075 18.7874 45.875 18.1874C46.875 17.5874 47.475 17.0874 47.675 16.6874C47.875 16.4874 48.025 16.2874 48.125 16.0874V16.1274ZM49.475 4.74743C48.375 4.74743 47.555 5.09742 47.005 5.79742C46.455 6.49742 46.185 7.24742 46.185 8.04742C46.185 8.84742 46.465 9.59742 47.005 10.2974C47.555 10.9974 48.375 11.3474 49.475 11.3474C50.575 11.3474 51.395 10.9974 51.945 10.2974C52.495 9.59742 52.765 8.84742 52.765 8.04742C52.765 7.24742 52.495 6.49742 51.945 5.79742C51.395 5.09742 50.575 4.74743 49.475 4.74743Z" fill="var(--fill-0, #06A16E)"/>
<path id="Vector_3" d="M50.375 56.0974C46.185 56.0974 43.065 54.7974 41.015 52.2074C38.975 49.6174 37.945 46.7674 37.945 43.6774C37.945 40.5874 38.965 37.7374 41.015 35.1474C43.065 32.5574 46.175 31.2574 50.375 31.2574C54.575 31.2574 57.685 32.5574 59.735 35.1474C61.785 37.7474 62.805 40.5874 62.805 43.6774C62.805 46.7674 61.785 49.6174 59.735 52.2074C57.695 54.8074 54.575 56.0974 50.375 56.0974ZM50.375 38.8774C48.775 38.8774 47.585 39.3774 46.785 40.3774C45.985 41.3774 45.585 42.4974 45.585 43.7474C45.585 44.9974 45.985 46.1174 46.785 47.1174C47.585 48.1174 48.785 48.6174 50.375 48.6174C51.965 48.6174 53.165 48.1174 53.965 47.1174C54.765 46.1174 55.165 44.9974 55.165 43.7474C55.165 42.4974 54.765 41.3774 53.965 40.3774C53.165 39.3774 51.975 38.8774 50.375 38.8774ZM88.995 77.1974C86.995 77.1974 85.355 77.5274 84.055 78.1674C82.755 78.8174 81.735 79.6674 80.985 80.7174C80.235 81.7674 79.715 82.9874 79.415 84.3874C79.115 85.7874 78.965 87.2274 78.965 88.7274V90.9774H66.985V88.4274C66.985 85.3374 67.405 82.4674 68.255 79.8174C69.105 77.1774 70.475 74.8774 72.375 72.9274C74.265 70.9774 76.665 69.4574 79.565 68.3574C82.455 67.2574 86.005 66.7074 90.195 66.7074C94.385 66.7074 98.005 67.2074 100.745 68.2074C103.485 69.2074 105.655 70.5774 107.255 72.3274C108.855 74.0774 109.955 76.1674 110.545 78.6174C111.145 81.0674 111.445 83.6874 111.445 86.4774V126.897H99.015V85.5774C99.015 82.9874 98.295 80.9374 96.845 79.4374C95.395 77.9374 92.775 77.1874 88.985 77.1874L88.995 77.1974Z" fill="var(--fill-0, #06A16E)"/>
<path id="Vector_4" d="M153.965 80.7974C155.065 80.8974 155.985 81.0974 156.735 81.3974C157.485 81.6974 158.255 82.1474 159.055 82.7474C159.855 83.3474 160.555 84.1974 161.155 85.2974C161.955 86.7974 162.405 88.3874 162.505 90.0874C162.605 91.7874 162.355 93.4074 161.755 94.9574C161.155 96.5074 160.235 97.8574 158.985 98.9974C157.735 100.147 156.115 100.917 154.125 101.317C150.925 101.917 148.285 101.747 146.195 100.797C144.095 99.8474 142.475 98.4274 141.325 96.5274C140.175 94.6374 139.475 92.4374 139.225 89.9374C138.975 87.4474 139.145 84.8974 139.745 82.3074C140.545 78.9174 141.865 76.1674 143.715 74.0774C145.565 71.9774 147.435 70.4074 149.325 69.3574C151.215 68.3074 153.665 67.4374 156.665 66.7374L163.855 72.4274L170.295 66.7374C171.795 66.8374 173.035 67.0374 174.035 67.3374C175.035 67.6374 176.105 68.1074 177.255 68.7574C178.405 69.4074 179.375 70.2774 180.175 71.3774C181.175 72.7774 181.875 74.1974 182.275 75.6474C182.675 77.0974 182.925 78.5174 183.025 79.9174C183.125 81.3174 183.145 82.5874 183.095 83.7374C183.045 84.8874 183.025 85.8074 183.025 86.5074V126.927H170.595V80.0674C170.595 79.8674 170.495 79.5674 170.295 79.1674C169.895 78.5674 169.545 78.2674 169.245 78.2674L163.255 82.9074L156.365 77.6674C156.165 77.6674 155.915 77.7174 155.615 77.8174C155.115 78.0174 154.715 78.3174 154.415 78.7174C154.115 79.1174 153.965 79.6174 153.965 80.2174V80.8174V80.7974ZM151.125 86.9274C149.825 86.9274 148.855 87.3574 148.205 88.1974C147.555 89.0474 147.235 89.9474 147.235 90.8874C147.235 91.8274 147.555 92.7374 148.205 93.5774C148.855 94.4274 149.825 94.8474 151.125 94.8474C152.425 94.8474 153.395 94.4274 154.045 93.5774C154.695 92.7274 155.015 91.8374 155.015 90.8874C155.015 89.9374 154.685 89.0374 154.045 88.1974C153.395 87.3474 152.425 86.9274 151.125 86.9274Z" fill="var(--fill-0, #06A16E)"/>
</g>
</svg>
