<svg preserveAspectRatio="none" width="100%" height="100%" overflow="visible" style="display: block;" viewBox="0 0 381.822 264.653" fill="none" xmlns="http://www.w3.org/2000/svg">
<g id="Group" opacity="0.2">
<path id="Vector" d="M43.5476 204.073C48.9576 198.663 53.1677 194.293 56.1877 190.963C59.1977 187.633 61.0276 183.683 61.6476 179.103C62.0576 176.403 61.7976 174.003 60.8676 171.923C59.9376 169.843 58.9376 168.073 57.8976 166.613C56.6476 164.953 55.1877 163.603 53.5277 162.553L46.9777 167.233L39.7976 162.863L36.9876 165.363C39.2676 166.613 41.2477 168.283 42.9177 170.353C44.1677 172.023 45.1577 174.313 45.8877 177.223C46.6177 180.143 46.4577 183.573 45.4177 187.523C44.5777 190.853 42.9677 193.613 40.5777 195.793C38.1877 197.983 35.4277 199.643 32.3077 200.793C29.1877 201.943 25.9077 202.463 22.4777 202.353C19.0477 202.253 15.7676 201.473 12.6476 200.013C8.89765 198.353 5.98766 195.853 3.90766 192.523C1.82766 189.193 0.577657 185.503 0.157657 181.443C-0.262343 177.383 0.157657 173.283 1.40766 169.113C2.65766 164.953 4.63765 161.103 7.33765 157.563C10.0376 154.023 12.9577 151.063 16.0777 148.663C19.1977 146.273 22.1077 144.403 24.8177 143.043C27.5177 141.693 30.6376 140.393 34.1776 139.143L46.6677 147.263L59.4677 139.143C59.6777 139.143 60.9776 139.873 63.3676 141.333C65.7576 142.793 68.5177 144.873 71.6377 147.573C74.7577 150.283 77.6677 153.553 80.3777 157.403C83.0777 161.253 84.8477 165.573 85.6877 170.353C86.3177 174.523 86.4677 178.113 86.1577 181.123C85.8477 184.143 85.1677 187.003 84.1277 189.703C83.0877 192.413 81.5277 195.113 79.4477 197.823C77.3677 200.533 74.9676 203.553 72.2676 206.873C68.5176 211.453 64.6677 215.923 60.7177 220.293C56.7577 224.663 54.7877 229.453 54.7877 234.653V243.393H96.9276V182.213C96.9276 179.923 96.8776 178.053 96.7776 176.593C96.6676 175.143 96.0976 173.053 95.0576 170.353C93.3876 166.813 91.1077 164.373 88.1877 163.013C85.2777 161.663 83.6077 160.983 83.1977 160.983L103.178 133.513H132.208L114.418 157.863C114.618 157.863 115.558 158.753 117.228 160.513C118.898 162.283 120.248 164.623 121.288 167.533C122.118 170.243 122.588 172.683 122.698 174.873C122.798 177.053 122.848 179.293 122.848 181.583V264.613H28.8877V231.213C28.8877 225.183 30.4477 220.033 33.5777 215.763C36.6977 211.503 40.0277 207.593 43.5677 204.053L43.5476 204.073ZM23.5677 172.543C20.8577 172.543 18.8377 173.373 17.4777 175.043C16.1277 176.713 15.4477 178.583 15.4477 180.663C15.4477 182.743 16.1177 184.623 17.4777 186.283C18.8277 187.953 20.8577 188.783 23.5677 188.783C26.2777 188.783 28.2977 187.953 29.6577 186.283C31.0077 184.623 31.6877 182.743 31.6877 180.663C31.6877 178.583 31.0077 176.713 29.6577 175.043C28.3077 173.383 26.2777 172.543 23.5677 172.543Z" fill="var(--fill-0, #D10580)"/>
<path id="Vector_2" d="M100.358 33.6332C100.158 33.6332 99.2676 33.4732 97.7076 33.1632C96.1476 32.8532 94.4276 32.1832 92.5576 31.1332C90.6876 30.0932 89.0177 28.4332 87.5677 26.1332C86.1077 23.8432 85.3777 20.7232 85.3777 16.7732C85.3777 12.4032 86.7377 8.65321 89.4377 5.53321C92.1477 2.41321 95.8876 0.643212 100.678 0.223212C105.888 -0.396788 110.098 0.273211 113.318 2.25321C116.548 4.23321 118.678 7.3032 119.718 11.4632C120.548 14.3832 120.808 17.0832 120.498 19.5832C120.188 22.0832 119.718 24.2632 119.088 26.1332C118.468 28.0032 117.428 30.1932 115.968 32.6932C116.178 32.6932 117.688 32.0732 120.498 30.8232C123.308 29.5732 126.168 28.1232 129.088 26.4532C133.878 24.1632 137.358 22.0332 139.548 20.0532C141.738 18.0732 142.928 17.0832 143.138 17.0832L150.318 28.9432C150.108 28.9432 147.818 30.5532 143.448 33.7832C139.078 37.0132 132.418 40.4932 123.468 44.2432C119.928 45.7032 116.498 47.0032 113.168 48.1432C109.838 49.2932 106.878 50.2832 104.268 51.1132C101.668 51.9432 99.5376 52.6232 97.8676 53.1432C96.2076 53.6632 95.2676 53.9232 95.0576 53.9232L87.8777 41.7532C88.7077 41.5532 89.5477 41.2332 90.3777 40.8132C92.2477 40.1932 94.0177 39.2532 95.6877 38.0032C97.7677 36.7532 99.0177 35.7132 99.4377 34.8832C99.8577 34.4732 100.168 34.0532 100.368 33.6332H100.358ZM103.168 9.9032C100.878 9.9032 99.1576 10.6332 98.0176 12.0832C96.8776 13.5432 96.2976 15.1032 96.2976 16.7632C96.2976 18.4232 96.8776 19.9932 98.0176 21.4432C99.1676 22.9032 100.878 23.6332 103.168 23.6332C105.458 23.6332 107.178 22.9032 108.318 21.4432C109.468 19.9932 110.038 18.4332 110.038 16.7632C110.038 15.0932 109.468 13.5432 108.318 12.0832C107.178 10.6332 105.458 9.9032 103.168 9.9032Z" fill="var(--fill-0, #D10580)"/>
<path id="Vector_3" d="M105.048 116.973C96.3076 116.973 89.8077 114.273 85.5377 108.853C81.2777 103.443 79.1377 97.5132 79.1377 91.0632C79.1377 84.6132 81.2777 78.6832 85.5377 73.2732C89.8077 67.8632 96.3076 65.1532 105.048 65.1532C113.788 65.1532 120.298 67.8632 124.558 73.2732C128.828 78.6832 130.958 84.6232 130.958 91.0632C130.958 97.5032 128.828 103.443 124.558 108.853C120.298 114.263 113.788 116.973 105.048 116.973ZM105.048 81.0832C101.718 81.0832 99.2276 82.1232 97.5576 84.2032C95.8976 86.2832 95.0576 88.6232 95.0576 91.2232C95.0576 93.8232 95.8876 96.1732 97.5576 98.2432C99.2276 100.323 101.718 101.363 105.048 101.363C108.378 101.363 110.878 100.323 112.538 98.2432C114.208 96.1632 115.038 93.8232 115.038 91.2232C115.038 88.6232 114.208 86.2832 112.538 84.2032C110.878 82.1232 108.378 81.0832 105.048 81.0832ZM185.578 160.993C181.418 160.993 177.978 161.673 175.278 163.023C172.568 164.383 170.438 166.143 168.878 168.333C167.318 170.523 166.228 173.073 165.598 175.983C164.978 178.903 164.668 181.913 164.668 185.033V189.713H139.688V184.403C139.688 177.953 140.578 171.973 142.338 166.453C144.108 160.943 146.968 156.153 150.928 152.093C154.878 148.033 159.868 144.863 165.908 142.573C171.938 140.283 179.328 139.143 188.068 139.143C196.808 139.143 204.348 140.183 210.078 142.263C215.798 144.343 220.328 147.213 223.658 150.843C226.988 154.483 229.278 158.853 230.528 163.953C231.778 169.053 232.398 174.523 232.398 180.343V264.623H206.488V178.463C206.488 173.053 204.978 168.783 201.958 165.663C198.938 162.543 193.478 160.983 185.568 160.983L185.578 160.993Z" fill="var(--fill-0, #D10580)"/>
<path id="Vector_4" d="M321.058 168.483C323.348 168.693 325.268 169.103 326.828 169.733C328.388 170.353 329.998 171.293 331.668 172.543C333.328 173.793 334.788 175.563 336.038 177.853C337.708 180.973 338.638 184.303 338.848 187.843C339.048 191.383 338.538 194.763 337.288 197.993C336.038 201.223 334.108 204.033 331.508 206.423C328.908 208.813 325.528 210.433 321.368 211.263C314.708 212.513 309.198 212.153 304.828 210.173C300.458 208.193 297.068 205.233 294.678 201.273C292.288 197.323 290.828 192.743 290.308 187.533C289.788 182.333 290.148 177.023 291.398 171.613C293.068 164.543 295.818 158.813 299.668 154.443C303.518 150.073 307.418 146.793 311.378 144.613C315.328 142.423 320.428 140.613 326.678 139.153L341.658 151.013L355.078 139.153C358.198 139.363 360.798 139.773 362.888 140.403C364.968 141.023 367.208 142.013 369.598 143.373C371.988 144.733 374.018 146.553 375.688 148.833C377.768 151.753 379.228 154.713 380.058 157.733C380.888 160.753 381.408 163.713 381.618 166.633C381.818 169.553 381.878 172.203 381.768 174.593C381.658 176.993 381.618 178.913 381.618 180.373V264.653H355.708V166.943C355.708 166.533 355.498 165.903 355.078 165.073C354.248 163.823 353.518 163.203 352.888 163.203L340.408 172.883L326.048 161.953C325.628 161.953 325.118 162.063 324.488 162.263C323.448 162.683 322.618 163.303 321.988 164.133C321.358 164.963 321.048 166.003 321.048 167.253V168.503L321.058 168.483ZM315.128 181.283C312.418 181.283 310.388 182.173 309.038 183.933C307.678 185.703 307.008 187.573 307.008 189.553C307.008 191.533 307.678 193.403 309.038 195.173C310.388 196.943 312.418 197.823 315.128 197.823C317.838 197.823 319.858 196.943 321.218 195.173C322.568 193.403 323.248 191.533 323.248 189.553C323.248 187.573 322.568 185.703 321.218 183.933C319.858 182.163 317.828 181.283 315.128 181.283Z" fill="var(--fill-0, #D10580)"/>
</g>
</svg>
