<svg preserveAspectRatio="none" width="100%" height="100%" overflow="visible" style="display: block;" viewBox="0 0 148.21 102.746" fill="none" xmlns="http://www.w3.org/2000/svg">
<g id="Group" opacity="0.4">
<path id="Vector" d="M16.9 79.2263C19 77.1263 20.64 75.4263 21.81 74.1363C22.98 72.8463 23.69 71.3063 23.93 69.5363C24.09 68.4863 23.99 67.5563 23.63 66.7463C23.27 65.9363 22.88 65.2563 22.48 64.6863C22 64.0363 21.43 63.5163 20.78 63.1063L18.24 64.9263L15.45 63.2263L14.36 64.1963C15.25 64.6763 16.01 65.3263 16.66 66.1363C17.14 66.7863 17.53 67.6763 17.81 68.8063C18.09 69.9363 18.03 71.2763 17.63 72.8063C17.31 74.0963 16.68 75.1663 15.75 76.0163C14.82 76.8663 13.75 77.5163 12.54 77.9563C11.33 78.3963 10.06 78.6063 8.72 78.5663C7.39 78.5263 6.11001 78.2263 4.90001 77.6563C3.45001 77.0063 2.31001 76.0363 1.51001 74.7463C0.70001 73.4563 0.219998 72.0163 0.0599983 70.4463C-0.100002 68.8663 0.0600093 67.2763 0.540009 65.6563C1.03001 64.0363 1.79 62.5463 2.84 61.1763C3.89 59.8063 5.02001 58.6563 6.23001 57.7263C7.44001 56.7963 8.57001 56.0663 9.62001 55.5463C10.67 55.0263 11.88 54.5163 13.25 54.0363L18.1 57.1863L23.07 54.0363C23.15 54.0363 23.66 54.3163 24.59 54.8863C25.52 55.4563 26.59 56.2563 27.8 57.3063C29.01 58.3563 30.14 59.6263 31.19 61.1263C32.24 62.6263 32.93 64.2963 33.25 66.1563C33.49 67.7763 33.55 69.1663 33.43 70.3363C33.31 71.5063 33.05 72.6163 32.64 73.6663C32.23 74.7163 31.63 75.7663 30.82 76.8163C30.01 77.8663 29.08 79.0363 28.03 80.3263C26.58 82.1063 25.08 83.8363 23.55 85.5363C22.01 87.2363 21.25 89.0963 21.25 91.1063V94.4963H37.61V70.7463C37.61 69.8563 37.59 69.1263 37.55 68.5663C37.51 68.0063 37.29 67.1963 36.88 66.1463C36.23 64.7763 35.35 63.8263 34.21 63.2963C33.08 62.7763 32.43 62.5063 32.27 62.5063L40.03 51.8463H51.3L44.39 61.2963C44.47 61.2963 44.83 61.6363 45.48 62.3263C46.13 63.0163 46.65 63.9263 47.06 65.0563C47.38 66.1063 47.56 67.0563 47.61 67.9063C47.65 68.7563 47.67 69.6263 47.67 70.5163V102.746H11.19V89.7763C11.19 87.4363 11.8 85.4363 13.01 83.7763C14.22 82.1163 15.51 80.6063 16.89 79.2363L16.9 79.2263ZM9.14 66.9863C8.09 66.9863 7.3 67.3063 6.78 67.9563C6.25 68.6063 5.99001 69.3263 5.99001 70.1363C5.99001 70.9463 6.25 71.6763 6.78 72.3163C7.31 72.9663 8.09 73.2863 9.14 73.2863C10.19 73.2863 10.98 72.9663 11.5 72.3163C12.03 71.6663 12.29 70.9463 12.29 70.1363C12.29 69.3263 12.03 68.6063 11.5 67.9563C10.97 67.3063 10.19 66.9863 9.14 66.9863Z" fill="var(--fill-0, #FF6602)"/>
<path id="Vector_2" d="M38.96 13.0563C38.88 13.0563 38.54 12.9963 37.93 12.8763C37.32 12.7563 36.66 12.4963 35.93 12.0863C35.2 11.6863 34.56 11.0363 33.99 10.1463C33.43 9.25625 33.14 8.04625 33.14 6.50625C33.14 4.80625 33.67 3.35626 34.72 2.14626C35.77 0.936261 37.23 0.246263 39.08 0.0862632C41.1 -0.153737 42.74 0.106257 43.99 0.876257C45.24 1.64626 46.07 2.83626 46.47 4.45626C46.79 5.58626 46.89 6.63626 46.77 7.60626C46.65 8.57626 46.47 9.42625 46.22 10.1463C45.98 10.8763 45.57 11.7263 45.01 12.6863C45.09 12.6863 45.68 12.4463 46.77 11.9563C47.86 11.4763 48.97 10.9063 50.1 10.2563C51.96 9.36625 53.31 8.53626 54.16 7.77626C55.01 7.00626 55.47 6.62626 55.55 6.62626L58.34 11.2263C58.26 11.2263 57.37 11.8563 55.67 13.1063C53.97 14.3563 51.39 15.7163 47.91 17.1663C46.54 17.7363 45.2 18.2363 43.91 18.6763C42.62 19.1163 41.47 19.5063 40.46 19.8263C39.45 20.1463 38.62 20.4163 37.98 20.6163C37.33 20.8163 36.97 20.9163 36.89 20.9163L34.1 16.1863C34.42 16.1063 34.75 15.9863 35.07 15.8263C35.8 15.5863 36.48 15.2163 37.13 14.7363C37.94 14.2563 38.42 13.8463 38.58 13.5263C38.74 13.3663 38.86 13.2063 38.94 13.0463L38.96 13.0563ZM40.05 3.84626C39.16 3.84626 38.49 4.12626 38.05 4.69626C37.61 5.26626 37.38 5.86626 37.38 6.51626C37.38 7.16626 37.6 7.76626 38.05 8.33626C38.49 8.90626 39.16 9.18626 40.05 9.18626C40.94 9.18626 41.61 8.90626 42.05 8.33626C42.49 7.77626 42.72 7.16626 42.72 6.51626C42.72 5.86626 42.5 5.26626 42.05 4.69626C41.61 4.13626 40.94 3.84626 40.05 3.84626Z" fill="var(--fill-0, #FF6602)"/>
<path id="Vector_3" d="M40.77 45.4163C37.38 45.4163 34.85 44.3663 33.2 42.2663C31.54 40.1663 30.72 37.8663 30.72 35.3563C30.72 32.8463 31.55 30.5463 33.2 28.4463C34.86 26.3463 37.38 25.2963 40.77 25.2963C44.16 25.2963 46.69 26.3463 48.34 28.4463C50 30.5463 50.82 32.8463 50.82 35.3563C50.82 37.8663 49.99 40.1663 48.34 42.2663C46.68 44.3663 44.16 45.4163 40.77 45.4163ZM40.77 31.4763C39.48 31.4763 38.51 31.8763 37.86 32.6863C37.21 33.4963 36.89 34.4063 36.89 35.4163C36.89 36.4263 37.21 37.3363 37.86 38.1463C38.51 38.9563 39.48 39.3563 40.77 39.3563C42.06 39.3563 43.03 38.9563 43.68 38.1463C44.33 37.3363 44.65 36.4263 44.65 35.4163C44.65 34.4063 44.33 33.4963 43.68 32.6863C43.03 31.8763 42.07 31.4763 40.77 31.4763ZM72.04 62.5063C70.42 62.5063 69.09 62.7663 68.04 63.2963C66.99 63.8263 66.16 64.5063 65.56 65.3563C64.96 66.2063 64.53 67.1963 64.29 68.3263C64.05 69.4563 63.93 70.6263 63.93 71.8363V73.6563H54.23V71.5963C54.23 69.0963 54.57 66.7663 55.26 64.6263C55.95 62.4863 57.06 60.6263 58.59 59.0563C60.12 57.4763 62.06 56.2463 64.41 55.3563C66.75 54.4663 69.62 54.0263 73.01 54.0263C76.4 54.0263 79.33 54.4363 81.55 55.2363C83.77 56.0463 85.53 57.1563 86.82 58.5663C88.11 59.9763 89 61.6763 89.49 63.6563C89.97 65.6363 90.22 67.7563 90.22 70.0163V102.736H80.16V69.2863C80.16 67.1863 79.57 65.5263 78.4 64.3163C77.23 63.1063 75.11 62.4963 72.04 62.4963V62.5063Z" fill="var(--fill-0, #FF6602)"/>
<path id="Vector_4" d="M124.63 65.4063C125.52 65.4863 126.27 65.6463 126.87 65.8863C127.48 66.1263 128.1 66.4963 128.75 66.9763C129.4 67.4563 129.96 68.1463 130.45 69.0363C131.1 70.2463 131.46 71.5463 131.54 72.9163C131.62 74.2863 131.42 75.6063 130.93 76.8563C130.44 78.1063 129.7 79.1963 128.69 80.1263C127.68 81.0563 126.37 81.6863 124.75 82.0063C122.16 82.4863 120.02 82.3463 118.33 81.5863C116.63 80.8163 115.32 79.6663 114.39 78.1363C113.46 76.6063 112.89 74.8263 112.69 72.8063C112.49 70.7863 112.63 68.7263 113.11 66.6263C113.76 63.8763 114.83 61.6563 116.32 59.9563C117.81 58.2563 119.33 56.9863 120.86 56.1363C122.39 55.2863 124.37 54.5863 126.8 54.0163L132.62 58.6263L137.83 54.0163C139.04 54.0963 140.05 54.2563 140.86 54.4963C141.67 54.7363 142.54 55.1263 143.46 55.6463C144.39 56.1763 145.18 56.8763 145.82 57.7663C146.63 58.8963 147.19 60.0463 147.52 61.2163C147.84 62.3863 148.05 63.5363 148.13 64.6663C148.21 65.7963 148.23 66.8263 148.19 67.7563C148.15 68.6863 148.13 69.4363 148.13 69.9963V102.716H138.07V64.7863C138.07 64.6263 137.99 64.3863 137.83 64.0563C137.51 63.5763 137.22 63.3263 136.98 63.3263L132.13 67.0863L126.56 62.8463C126.4 62.8463 126.2 62.8863 125.95 62.9663C125.54 63.1263 125.22 63.3763 124.98 63.6963C124.74 64.0163 124.62 64.4263 124.62 64.9063V65.3963L124.63 65.4063ZM122.33 70.3763C121.28 70.3763 120.49 70.7163 119.97 71.4063C119.44 72.0963 119.18 72.8163 119.18 73.5863C119.18 74.3563 119.44 75.0863 119.97 75.7663C120.49 76.4563 121.28 76.7963 122.33 76.7963C123.38 76.7963 124.17 76.4563 124.69 75.7663C125.21 75.0763 125.48 74.3563 125.48 73.5863C125.48 72.8163 125.22 72.0963 124.69 71.4063C124.16 70.7163 123.37 70.3763 122.33 70.3763Z" fill="var(--fill-0, #FF6602)"/>
</g>
</svg>
