<svg preserveAspectRatio="none" width="100%" height="100%" overflow="visible" style="display: block;" viewBox="0 0 83.9782 58.2107" fill="none" xmlns="http://www.w3.org/2000/svg">
<g id="Group" opacity="0.15">
<path id="Vector" d="M9.56375 44.8907C10.7538 43.7007 11.6837 42.7407 12.3438 42.0107C13.0038 41.2807 13.4038 40.4107 13.5438 39.4007C13.6338 38.8107 13.5738 38.2807 13.3738 37.8207C13.1638 37.3607 12.9538 36.9707 12.7238 36.6507C12.4538 36.2807 12.1238 35.9907 11.7638 35.7607L10.3238 36.7907L8.74375 35.8307L8.12375 36.3807C8.62375 36.6507 9.06375 37.0207 9.42375 37.4807C9.69375 37.8507 9.91375 38.3507 10.0738 38.9907C10.2338 39.6307 10.2038 40.3907 9.97375 41.2607C9.79375 41.9907 9.43375 42.6007 8.91375 43.0807C8.38375 43.5607 7.78375 43.9307 7.09375 44.1807C6.40375 44.4307 5.68375 44.5507 4.93375 44.5207C4.17375 44.5007 3.45375 44.3307 2.77375 44.0107C1.95375 43.6407 1.30375 43.0907 0.85375 42.3607C0.39375 41.6307 0.12375 40.8207 0.03375 39.9207C-0.05625 39.0307 0.03375 38.1207 0.30375 37.2107C0.58375 36.2907 1.01375 35.4507 1.60375 34.6707C2.19375 33.8907 2.84375 33.2407 3.52375 32.7107C4.21375 32.1807 4.85375 31.7707 5.44375 31.4707C6.03375 31.1707 6.72375 30.8907 7.50375 30.6107L10.2538 32.4007L13.0638 30.6107C13.0638 30.6107 13.3937 30.7707 13.9237 31.0907C14.4537 31.4107 15.0538 31.8707 15.7438 32.4607C16.4338 33.0607 17.0737 33.7807 17.6637 34.6207C18.2537 35.4707 18.6437 36.4207 18.8337 37.4707C18.9737 38.3907 19.0038 39.1807 18.9338 39.8407C18.8638 40.5007 18.7137 41.1307 18.4837 41.7307C18.2537 42.3307 17.9137 42.9207 17.4537 43.5207C16.9937 44.1207 16.4738 44.7807 15.8738 45.5107C15.0538 46.5207 14.2038 47.5007 13.3338 48.4607C12.4638 49.4207 12.0338 50.4707 12.0338 51.6207V53.5407H21.3037V40.0807C21.3037 39.5807 21.2938 39.1607 21.2738 38.8407C21.2538 38.5207 21.1237 38.0607 20.8937 37.4707C20.5237 36.6907 20.0237 36.1507 19.3837 35.8607C18.7437 35.5607 18.3737 35.4107 18.2837 35.4107L22.6737 29.3707H29.0637L25.1537 34.7307C25.1537 34.7307 25.4038 34.9307 25.7738 35.3107C26.1438 35.7007 26.4337 36.2107 26.6637 36.8607C26.8437 37.4607 26.9537 37.9907 26.9737 38.4707C26.9937 38.9507 27.0037 39.4407 27.0037 39.9507V58.2107H6.33375V50.8607C6.33375 49.5307 6.67375 48.4007 7.36375 47.4607C8.05375 46.5207 8.78375 45.6607 9.56375 44.8907ZM5.16375 37.9507C4.56375 37.9507 4.12375 38.1307 3.82375 38.5007C3.52375 38.8707 3.37375 39.2807 3.37375 39.7407C3.37375 40.2007 3.52375 40.6107 3.82375 40.9807C4.12375 41.3507 4.56375 41.5307 5.16375 41.5307C5.76375 41.5307 6.20375 41.3507 6.50375 40.9807C6.80375 40.6107 6.95375 40.2007 6.95375 39.7407C6.95375 39.2807 6.80375 38.8707 6.50375 38.5007C6.20375 38.1307 5.76375 37.9507 5.16375 37.9507Z" fill="var(--fill-0, #D10580)"/>
<path id="Vector_2" d="M22.0637 7.40069C22.0637 7.40069 21.8237 7.37069 21.4837 7.30069C21.1437 7.23069 20.7638 7.08069 20.3538 6.85069C19.9438 6.62069 19.5737 6.26069 19.2537 5.75069C18.9337 5.25069 18.7738 4.56069 18.7738 3.69069C18.7738 2.73069 19.0737 1.90069 19.6637 1.22069C20.2637 0.530692 21.0837 0.15069 22.1337 0.0506895C23.2737 -0.0893105 24.2037 0.0606903 24.9137 0.50069C25.6237 0.94069 26.0937 1.61069 26.3237 2.53069C26.5037 3.17069 26.5637 3.77069 26.4937 4.32069C26.4237 4.87069 26.3238 5.35069 26.1838 5.76069C26.0438 6.17069 25.8137 6.65069 25.4937 7.20069C25.5437 7.20069 25.8737 7.06069 26.4937 6.79069C27.1137 6.52069 27.7437 6.20069 28.3837 5.83069C29.4337 5.33069 30.2038 4.86069 30.6838 4.42069C31.1638 3.99069 31.4237 3.77069 31.4737 3.77069L33.0537 6.38069C33.0537 6.38069 32.5037 6.74069 31.5437 7.44069C30.5837 8.15069 29.1137 8.92069 27.1537 9.74069C26.3737 10.0607 25.6237 10.3507 24.8837 10.6007C24.1537 10.8507 23.5037 11.0707 22.9237 11.2507C22.3537 11.4307 21.8838 11.5807 21.5138 11.7007C21.1438 11.8107 20.9437 11.8707 20.8937 11.8707L19.3137 9.19069C19.4937 9.14069 19.6837 9.08069 19.8637 8.98069C20.2737 8.84069 20.6637 8.64069 21.0337 8.36069C21.4937 8.09069 21.7638 7.86069 21.8538 7.67069C21.9438 7.58069 22.0137 7.49069 22.0637 7.40069ZM22.6737 2.18069C22.1737 2.18069 21.7937 2.34069 21.5437 2.66069C21.2937 2.98069 21.1637 3.32069 21.1637 3.69069C21.1637 4.06069 21.2937 4.40069 21.5437 4.72069C21.7937 5.04069 22.1737 5.20069 22.6737 5.20069C23.1737 5.20069 23.5537 5.04069 23.8037 4.72069C24.0537 4.40069 24.1838 4.06069 24.1838 3.69069C24.1838 3.32069 24.0537 2.98069 23.8037 2.66069C23.5537 2.34069 23.1737 2.18069 22.6737 2.18069Z" fill="var(--fill-0, #D10580)"/>
<path id="Vector_3" d="M23.0938 25.7307C21.1738 25.7307 19.7437 25.1407 18.8037 23.9407C17.8637 22.7507 17.3937 21.4507 17.3937 20.0307C17.3937 18.6107 17.8637 17.3107 18.8037 16.1207C19.7437 14.9307 21.1738 14.3307 23.0938 14.3307C25.0137 14.3307 26.4437 14.9307 27.3837 16.1207C28.3237 17.3107 28.7937 18.6207 28.7937 20.0307C28.7937 21.4407 28.3237 22.7507 27.3837 23.9407C26.4437 25.1307 25.0137 25.7307 23.0938 25.7307ZM23.0938 17.8307C22.3637 17.8307 21.8137 18.0607 21.4437 18.5207C21.0737 18.9807 20.8937 19.4907 20.8937 20.0707C20.8937 20.6507 21.0737 21.1607 21.4437 21.6107C21.8137 22.0707 22.3637 22.3007 23.0938 22.3007C23.8238 22.3007 24.3737 22.0707 24.7437 21.6107C25.1137 21.1507 25.2937 20.6407 25.2937 20.0707C25.2937 19.5007 25.1137 18.9807 24.7437 18.5207C24.3737 18.0607 23.8338 17.8307 23.0938 17.8307ZM40.8037 35.4107C39.8837 35.4107 39.1337 35.5607 38.5337 35.8607C37.9337 36.1607 37.4737 36.5507 37.1237 37.0307C36.7737 37.5107 36.5437 38.0707 36.4037 38.7107C36.2637 39.3507 36.1937 40.0107 36.1937 40.7007V41.7307H30.7037V40.5607C30.7037 39.1407 30.8937 37.8307 31.2837 36.6107C31.6737 35.4007 32.3037 34.3407 33.1737 33.4507C34.0437 32.5607 35.1438 31.8607 36.4738 31.3607C37.8038 30.8607 39.4237 30.6007 41.3537 30.6007C43.2837 30.6007 44.9337 30.8307 46.1937 31.2907C47.4537 31.7507 48.4438 32.3807 49.1838 33.1807C49.9138 33.9807 50.4237 34.9407 50.6937 36.0607C50.9637 37.1807 51.1037 38.3807 51.1037 39.6607V58.2007H45.4037V39.2507C45.4037 38.0607 45.0737 37.1207 44.4037 36.4307C43.7437 35.7407 42.5337 35.4007 40.8037 35.4007V35.4107Z" fill="var(--fill-0, #D10580)"/>
<path id="Vector_4" d="M70.6038 37.0607C71.1038 37.1107 71.5337 37.2007 71.8737 37.3307C72.2137 37.4707 72.5737 37.6707 72.9337 37.9507C73.3037 38.2207 73.6238 38.6107 73.8938 39.1207C74.2638 39.8107 74.4637 40.5407 74.5137 41.3207C74.5537 42.1007 74.4438 42.8407 74.1738 43.5507C73.8938 44.2607 73.4737 44.8807 72.9037 45.4007C72.3337 45.9307 71.5838 46.2807 70.6738 46.4607C69.2038 46.7307 67.9938 46.6607 67.0338 46.2207C66.0738 45.7907 65.3237 45.1307 64.8037 44.2607C64.2737 43.3907 63.9538 42.3807 63.8438 41.2407C63.7238 40.1007 63.8137 38.9307 64.0837 37.7407C64.4537 36.1807 65.0537 34.9207 65.9037 33.9607C66.7537 33.0007 67.6037 32.2807 68.4837 31.8007C69.3537 31.3207 70.4737 30.9207 71.8438 30.6007L75.1438 33.2107L78.0938 30.6007C78.7837 30.6507 79.3538 30.7407 79.8138 30.8707C80.2738 31.0107 80.7637 31.2307 81.2937 31.5207C81.8237 31.8207 82.2638 32.2207 82.6338 32.7207C83.0938 33.3607 83.4137 34.0107 83.5938 34.6807C83.7738 35.3407 83.8937 36.0007 83.9337 36.6407C83.9737 37.2807 83.9938 37.8707 83.9638 38.3907C83.9438 38.9207 83.9337 39.3407 83.9337 39.6607V58.2007H78.2337V36.7107C78.2337 36.6207 78.1838 36.4807 78.0938 36.3007C77.9137 36.0307 77.7537 35.8907 77.6137 35.8907L74.8637 38.0207L71.7038 35.6207C71.6138 35.6207 71.4937 35.6407 71.3637 35.6907C71.1337 35.7807 70.9538 35.9207 70.8138 36.1007C70.6738 36.2807 70.6038 36.5107 70.6038 36.7907V37.0607ZM69.3037 39.8707C68.7037 39.8707 68.2638 40.0707 67.9638 40.4507C67.6638 40.8407 67.5137 41.2507 67.5137 41.6907C67.5137 42.1307 67.6638 42.5407 67.9638 42.9307C68.2638 43.3207 68.7037 43.5107 69.3037 43.5107C69.9037 43.5107 70.3438 43.3207 70.6438 42.9307C70.9438 42.5407 71.0938 42.1307 71.0938 41.6907C71.0938 41.2507 70.9438 40.8407 70.6438 40.4507C70.3438 40.0607 69.8937 39.8707 69.3037 39.8707Z" fill="var(--fill-0, #D10580)"/>
</g>
</svg>
