<svg preserveAspectRatio="none" width="100%" height="100%" overflow="visible" style="display: block;" viewBox="0 0 45.9602 78.4701" fill="none" xmlns="http://www.w3.org/2000/svg">
<g id="Group">
<path id="Vector" d="M24.7171 13.3601C21.7271 23.1901 19.3271 31.3601 17.5171 37.8801C15.7071 44.4001 14.3171 49.7001 13.3371 53.7801C12.3571 57.8601 11.7171 60.9201 11.3971 62.9601C11.0771 65.0001 10.9471 66.5101 11.0071 67.4801C11.0071 68.4601 11.1671 69.2601 11.4771 69.8901C11.7871 70.5201 12.0471 71.1301 12.2571 71.7001C12.4571 72.2801 12.5271 72.8502 12.4771 73.4202C12.4171 74.0002 12.0471 74.6801 11.3571 75.4901C10.6671 76.3001 9.84712 76.7801 8.89712 76.9601C7.94712 77.1301 7.0171 77.0201 6.0971 76.6201C5.1771 76.2201 4.3171 75.5301 3.5071 74.5501C2.6971 73.5701 2.09711 72.3401 1.69711 70.8401C1.40711 69.8601 1.3371 68.3601 1.4771 66.3201C1.6171 64.2801 1.9171 61.9101 2.3771 59.2101C2.8371 56.5101 3.4071 53.5802 4.0971 50.4202C4.7871 47.2602 5.54711 44.0701 6.38711 40.8501C7.21711 37.6301 8.0771 34.4602 8.9771 31.3302C9.8671 28.2002 10.7171 25.3401 11.5171 22.7501C12.7771 18.7801 13.8271 15.5701 14.6671 13.1001C15.4971 10.6301 16.1771 8.70015 16.6971 7.32015C17.3271 5.65015 17.8471 4.42015 18.2471 3.61015C20.4871 1.94015 22.1671 1.23015 23.2871 1.46015C24.4071 1.69015 25.1371 2.44015 25.4871 3.70015C25.8271 4.96014 25.9071 6.52015 25.7071 8.36015C25.5071 10.2001 25.1771 11.8701 24.7171 13.3601ZM36.8671 3.62014C39.1071 1.95014 40.7871 1.24015 41.9071 1.47015C43.0271 1.70015 43.7771 2.45015 44.1471 3.71015C44.5171 4.97015 44.6071 6.53014 44.4071 8.37014C44.2071 10.2101 43.8771 11.8801 43.4171 13.3701C40.4271 23.2001 38.0171 31.3701 36.1771 37.8901C34.3371 44.4101 32.9271 49.7101 31.9571 53.7901C30.9771 57.8701 30.3371 60.9301 30.0171 62.9701C29.6971 65.0101 29.5671 66.5201 29.6271 67.4901C29.6871 68.4701 29.8671 69.2701 30.1871 69.9001C30.4971 70.5301 30.7571 71.1401 30.9671 71.7101C31.1671 72.2901 31.2371 72.8601 31.1871 73.4301C31.1271 74.0101 30.7571 74.6901 30.0671 75.5001C29.3771 76.3101 28.5571 76.7901 27.6071 76.9701C26.6571 77.1401 25.7271 77.0301 24.8071 76.6301C23.8871 76.2301 23.0271 75.5402 22.2171 74.5602C21.4071 73.5802 20.8071 72.3501 20.4071 70.8501C20.1171 69.8701 20.0471 68.3701 20.1871 66.3301C20.3271 64.2901 20.6171 61.9201 21.0471 59.2201C21.4771 56.5201 22.0371 53.5901 22.7271 50.4301C23.4171 47.2701 24.1771 44.0801 25.0071 40.8601C25.8371 37.6401 26.6871 34.4701 27.5471 31.3401C28.4071 28.2101 29.2671 25.3502 30.1371 22.7602C31.3971 18.7902 32.4671 15.5801 33.3271 13.1101C34.1871 10.6401 34.8771 8.71015 35.3971 7.33015C36.0271 5.66015 36.5171 4.43014 36.8671 3.62014Z" fill="var(--fill-0, white)"/>
<path id="Vector_2" d="M8.04713 78.4701C7.19713 78.4701 6.34714 78.2901 5.52714 77.9301C4.40714 77.4401 3.35712 76.6101 2.41712 75.4601C1.48712 74.3301 0.787138 72.9001 0.337138 71.2201C0.00713822 70.1001 -0.0828715 68.4601 0.0771285 66.2301C0.227128 64.1501 0.537142 61.7101 0.997142 58.9801C1.45714 56.2901 2.03713 53.3101 2.73713 50.1201C3.43713 46.9301 4.20712 43.6901 5.03712 40.5001C5.85712 37.3201 6.72712 34.1101 7.62712 30.9401C8.51712 27.8201 9.37713 24.9201 10.1771 22.3301C11.4271 18.4101 12.4871 15.1501 13.3371 12.6401C14.1571 10.2001 14.8471 8.24015 15.3771 6.82015C16.0371 5.08015 16.5671 3.83014 16.9871 2.98014L17.1371 2.68015L17.4071 2.48014C20.0471 0.520142 22.0071 -0.249854 23.5771 0.0701458C24.7371 0.310146 26.2371 1.06015 26.8571 3.33015C27.2471 4.76015 27.3371 6.50015 27.1171 8.51015C26.9071 10.4301 26.5571 12.2001 26.0771 13.7701C23.1171 23.5101 20.6971 31.7501 18.8871 38.2601C17.0871 44.7501 15.6871 50.0901 14.7171 54.1101C13.7471 58.1401 13.1071 61.1901 12.7971 63.1801C12.4971 65.1101 12.3671 66.5301 12.4271 67.4001C12.4271 68.2401 12.5371 68.8401 12.7571 69.2601C13.0971 69.9501 13.3871 70.6101 13.6071 71.2401C13.8771 72.0101 13.9771 72.8001 13.8971 73.5701C13.8071 74.4501 13.3371 75.3802 12.4471 76.4202C11.5471 77.4802 10.4371 78.1301 9.16712 78.3601C8.79712 78.4301 8.42712 78.4601 8.06712 78.4601L8.04713 78.4701ZM19.3771 4.56014C19.0171 5.32014 18.5671 6.42015 18.0271 7.83015C17.5071 9.22015 16.8271 11.1501 16.0171 13.5601C15.1771 16.0601 14.1171 19.3001 12.8771 23.1901C12.0771 25.7501 11.2271 28.6301 10.3471 31.7201C9.45712 34.8601 8.58713 38.0501 7.76713 41.2101C6.94713 44.3701 6.18714 47.5701 5.49714 50.7301C4.80714 53.8801 4.23712 56.8101 3.78712 59.4601C3.33712 62.1001 3.03714 64.4501 2.89714 66.4301C2.73714 68.7501 2.89714 69.9001 3.05714 70.4501C3.40714 71.7701 3.92712 72.8401 4.59712 73.6601C5.25712 74.4601 5.94712 75.0201 6.65711 75.3301C7.31712 75.6201 7.96713 75.7001 8.63713 75.5801C9.25713 75.4701 9.79714 75.1401 10.2771 74.5901C10.9871 73.7601 11.0571 73.3701 11.0671 73.3001C11.1071 72.9301 11.0571 72.5701 10.9271 72.1901C10.7471 71.6801 10.5071 71.1201 10.2171 70.5401C9.79711 69.7101 9.59712 68.7101 9.59712 67.5001C9.53712 66.5001 9.66714 64.9201 9.99714 62.7601C10.3171 60.7001 10.9771 57.5701 11.9571 53.4701C12.9271 49.4101 14.3371 44.0401 16.1471 37.5201C17.9571 30.9901 20.3871 22.7301 23.3571 12.9601C23.7871 11.5601 24.0971 9.96015 24.2971 8.22015C24.4771 6.57015 24.4171 5.18014 24.1271 4.09014C23.8771 3.16014 23.4371 2.95015 23.0171 2.86015C22.8471 2.83015 21.8871 2.75014 19.3771 4.56014ZM26.7571 78.4701C25.9071 78.4701 25.0571 78.2901 24.2371 77.9301C23.1171 77.4401 22.0671 76.6101 21.1271 75.4601C20.1971 74.3301 19.4971 72.9001 19.0471 71.2201C18.7171 70.1101 18.6271 68.4601 18.7871 66.2301C18.9271 64.1701 19.2271 61.7401 19.6671 58.9901C20.0971 56.2701 20.6671 53.2801 21.3671 50.1201C22.0571 46.9401 22.8271 43.7101 23.6671 40.5001C24.4871 37.3301 25.3471 34.1201 26.2171 30.9601C27.0871 27.8101 27.9671 24.9001 28.8271 22.3101C30.0771 18.3901 31.1571 15.1301 32.0271 12.6401C32.8771 10.1901 33.5771 8.24015 34.1071 6.83015C34.7371 5.16015 35.2371 3.90014 35.5971 3.06014L35.7471 2.71015L36.0571 2.48014C38.6971 0.520142 40.6571 -0.249854 42.2271 0.0701458C43.3771 0.300146 44.8771 1.06014 45.5371 3.30014C45.9671 4.74014 46.0671 6.49015 45.8471 8.51015C45.6371 10.4301 45.2871 12.2001 44.7971 13.7701C41.8071 23.5901 39.3771 31.8301 37.5671 38.2601C35.7471 44.7201 34.3271 50.0601 33.3571 54.1101C32.3871 58.1401 31.7471 61.1901 31.4371 63.1801C31.1371 65.1101 31.0071 66.5301 31.0671 67.4001C31.1071 68.1801 31.2471 68.8101 31.4771 69.2601C31.8171 69.9501 32.1071 70.6101 32.3271 71.2301C32.5971 72.0001 32.6971 72.7902 32.6171 73.5602C32.5271 74.4402 32.0471 75.3701 31.1571 76.4101C30.2571 77.4601 29.1471 78.1201 27.8771 78.3501C27.5071 78.4201 27.1371 78.4501 26.7771 78.4501L26.7571 78.4701ZM38.0271 4.53014C37.6971 5.32014 37.2671 6.43015 36.7371 7.83015C36.2171 9.21015 35.5271 11.1401 34.6771 13.5701C33.8171 16.0401 32.7471 19.2801 31.4971 23.1901C30.6471 25.7501 29.7771 28.6101 28.9271 31.7101C28.0571 34.8601 27.2071 38.0501 26.3871 41.2101C25.5671 44.3801 24.7971 47.5901 24.1171 50.7301C23.4371 53.8401 22.8771 56.7801 22.4471 59.4401C22.0271 62.1001 21.7371 64.4501 21.5971 66.4301C21.4371 68.7501 21.5971 69.9001 21.7571 70.4501C22.1171 71.7701 22.6271 72.8401 23.2971 73.6601C23.9571 74.4601 24.6471 75.0201 25.3571 75.3301C26.0171 75.6201 26.6671 75.7001 27.3371 75.5801C27.9571 75.4701 28.4971 75.1401 28.9671 74.5901C29.6771 73.7601 29.7471 73.3701 29.7571 73.3001C29.7971 72.9301 29.7471 72.5701 29.6171 72.1901C29.4371 71.6801 29.1971 71.1301 28.9071 70.5501C28.4971 69.7401 28.2671 68.7701 28.1971 67.5901C28.1371 66.5001 28.2671 64.9201 28.5971 62.7701C28.9171 60.7101 29.5771 57.5801 30.5571 53.4801C31.5371 49.3901 32.9671 44.0201 34.7971 37.5201C36.6171 31.0701 39.0571 22.8101 42.0471 12.9701C42.4771 11.5701 42.7971 9.97014 42.9871 8.23014C43.1671 6.59014 43.0971 5.21014 42.7771 4.13014C42.4971 3.18014 42.0271 2.96014 41.6071 2.88014C41.4371 2.85014 40.4871 2.77014 38.0071 4.56014L38.0271 4.53014Z" fill="var(--fill-0, #353535)"/>
</g>
</svg>
