<svg preserveAspectRatio="none" width="100%" height="100%" overflow="visible" style="display: block;" viewBox="0 0 42.118 45.2826" fill="none" xmlns="http://www.w3.org/2000/svg">
<g id="Group">
<path id="Vector" d="M39.8312 4.60259C40.1912 4.60259 40.5013 4.70259 40.7513 4.92259C41.0013 5.13259 41.2013 5.39259 41.3613 5.71259C41.5113 6.02259 41.6013 6.3526 41.6213 6.6926C41.6413 7.0326 41.5912 7.34258 41.4512 7.63258C41.3112 7.92258 41.1213 8.1626 40.8713 8.3626C40.6213 8.5626 40.3213 8.78259 39.9913 9.03259C39.6613 9.28259 39.3213 9.60259 38.9813 9.99259C38.6313 10.3926 38.2913 10.9026 37.9413 11.5426C37.7213 11.9726 37.3313 12.8726 36.7613 14.2526C36.2013 15.6326 35.5513 17.2626 34.8113 19.1226C34.0713 20.9926 33.2813 23.0026 32.4313 25.1626C31.5813 27.3226 30.7713 29.3726 30.0113 31.3326C29.2513 33.2926 28.5613 35.0526 27.9413 36.6126C27.3213 38.1726 26.8712 39.3126 26.5912 40.0326C26.1712 41.0726 25.6313 41.9226 24.9913 42.5926C24.3513 43.2526 23.5413 43.7626 22.5713 44.1126C21.6013 44.4626 20.4513 44.6726 19.1213 44.7526C17.7913 44.8226 16.2313 44.7926 14.4313 44.6526C12.6313 44.5126 11.1913 44.0826 10.1013 43.3526C9.01125 42.6326 8.18127 41.7826 7.62127 40.8126C7.06127 39.8426 6.72125 38.8426 6.60125 37.8026C6.48125 36.7626 6.51128 35.8626 6.69128 35.0926C6.80128 34.6526 6.95127 34.0926 7.12127 33.4026C7.29127 32.7126 7.52125 31.9626 7.79125 31.1726C8.06125 30.3826 8.37126 29.5626 8.73126 28.7126C9.08126 27.8726 9.47124 27.0826 9.90124 26.3326C8.65124 26.0926 7.44129 25.7126 6.26129 25.1826C5.08129 24.6526 4.04123 23.8926 3.14123 22.8826C2.24123 21.8826 1.54127 20.5826 1.06127 18.9826C0.581273 17.3826 0.411263 15.4226 0.551263 13.0826C0.721263 10.4826 1.38125 8.31259 2.54125 6.56259C3.70125 4.81259 5.09125 3.4526 6.72125 2.4726C8.35125 1.4926 10.1113 0.882594 11.9913 0.642594C13.8813 0.402594 15.6313 0.472596 17.2613 0.862596C18.9213 1.2526 20.1612 1.85258 20.9712 2.66258C21.7812 3.47258 22.2313 4.29259 22.3113 5.12259C22.4013 5.95259 22.1313 6.69259 21.5113 7.34259C20.8913 7.99259 19.9413 8.32259 18.6713 8.35259C18.0313 7.80259 17.3313 7.36258 16.5713 7.02258C15.9113 6.73258 15.1412 6.51259 14.2712 6.37259C13.4012 6.23259 12.4212 6.33259 11.3412 6.67259C10.3012 6.98259 9.43125 7.50259 8.72125 8.23259C8.02125 8.96259 7.47123 9.77259 7.08123 10.6426C6.69123 11.5126 6.42123 12.3926 6.27123 13.2526C6.12123 14.1126 6.05128 14.8226 6.07128 15.3926C6.09128 15.9526 6.23127 16.5726 6.49127 17.2526C6.75127 17.9326 7.16126 18.5626 7.73126 19.1426C8.29126 19.7226 9.04124 20.1826 9.96124 20.5126C10.8912 20.8526 12.0313 20.9726 13.3713 20.8826C13.5213 20.8226 13.7413 20.6726 14.0413 20.4426C14.3313 20.2126 14.6812 19.9426 15.0912 19.6526C15.5012 19.3526 15.9713 19.0626 16.5013 18.7526C17.0313 18.4526 17.6113 18.2426 18.2413 18.1126C18.9113 17.9526 19.5113 17.9626 20.0613 18.1226C20.6113 18.2926 21.0312 18.5626 21.3412 18.9526C21.6512 19.3426 21.8112 19.8326 21.8312 20.4326C21.8512 21.0326 21.6613 21.7026 21.2613 22.4526C20.7413 23.4126 20.0913 24.2226 19.3213 24.8926C18.5513 25.5626 17.5913 26.0626 16.4413 26.4026C16.0313 26.8826 15.4213 27.7926 14.6113 29.1326C13.8013 30.4726 13.1513 32.1626 12.6713 34.2026C12.3713 35.4826 12.3612 36.4626 12.6412 37.1726C12.9212 37.8726 13.3313 38.3826 13.8813 38.6926C14.4313 39.0126 15.0612 39.2026 15.7812 39.2726L17.7212 39.4626C18.3312 39.5226 18.8012 39.5026 19.1412 39.4026C19.4812 39.3026 19.7413 39.1726 19.9413 39.0026C20.1713 38.8426 20.3213 38.6326 20.3813 38.3726C21.8113 34.7026 23.2013 31.1826 24.5713 27.8126C25.1413 26.3726 25.7413 24.8926 26.3713 23.3726C27.0013 21.8526 27.6213 20.3626 28.2313 18.9126C28.8413 17.4626 29.4313 16.0826 30.0013 14.7726C30.5713 13.4626 31.0913 12.3326 31.5413 11.3726C32.4513 9.37259 33.3913 7.90259 34.3713 6.95259C35.3413 6.00259 36.2513 5.36259 37.0713 5.03259C38.0113 4.64259 38.9313 4.51258 39.8213 4.63258L39.8312 4.60259Z" fill="var(--fill-0, #FF6602)"/>
<path id="Vector_2" d="M17.6813 45.2826C16.6813 45.2826 15.5812 45.2326 14.3912 45.1426C12.5212 44.9926 10.9813 44.5326 9.82128 43.7626C8.67128 43.0026 7.78127 42.0826 7.19127 41.0526C6.60127 40.0326 6.23125 38.9526 6.10125 37.8426C5.97125 36.7526 6.01122 35.7826 6.20122 34.9626C6.32122 34.5126 6.46128 33.9526 6.63128 33.2626C6.81128 32.5526 7.04127 31.7826 7.31127 30.9926C7.58127 30.2026 7.90128 29.3726 8.26128 28.5126C8.53128 27.8726 8.82128 27.2626 9.13128 26.6826C8.08128 26.4426 7.05126 26.0926 6.05126 25.6426C4.81126 25.0926 3.70128 24.2726 2.76128 23.2226C1.81128 22.1726 1.08123 20.7926 0.581227 19.1326C0.0812268 17.4826 -0.0987414 15.4426 0.0512586 13.0526C0.231259 10.3826 0.921276 8.10259 2.13128 6.28259C3.32128 4.47259 4.78124 3.05259 6.47124 2.03259C8.15124 1.02259 9.99127 0.382595 11.9413 0.142595C13.8813 -0.107405 15.7112 -0.0274092 17.3912 0.372591C19.1412 0.782591 20.4712 1.4326 21.3412 2.3026C22.2312 3.1926 22.7312 4.12259 22.8312 5.06259C22.9312 6.04259 22.6112 6.92259 21.8912 7.67259C21.1812 8.41259 20.1012 8.8026 18.7012 8.8326H18.5113L18.3713 8.71259C17.7713 8.20259 17.1112 7.77259 16.3912 7.46259C15.7712 7.19259 15.0412 6.98259 14.2112 6.85259C13.4212 6.72259 12.5113 6.82259 11.5113 7.13259C10.5513 7.41259 9.74125 7.89259 9.10125 8.56259C8.44125 9.25259 7.92127 10.0126 7.56127 10.8326C7.19127 11.6726 6.93124 12.5026 6.78124 13.3226C6.63124 14.1426 6.57124 14.8326 6.59124 15.3526C6.61124 15.8526 6.74125 16.4326 6.98125 17.0526C7.22125 17.6726 7.60126 18.2426 8.11126 18.7726C8.61126 19.2926 9.30123 19.7126 10.1512 20.0226C10.9812 20.3226 12.0312 20.4426 13.2712 20.3626C13.3512 20.3226 13.5013 20.2326 13.7513 20.0226C14.0513 19.7826 14.4013 19.5226 14.8213 19.2226C15.2413 18.9226 15.7312 18.6126 16.2812 18.2926C16.8612 17.9626 17.4913 17.7326 18.1713 17.6026C18.9013 17.4326 19.6013 17.4326 20.2313 17.6326C20.8713 17.8226 21.3813 18.1626 21.7513 18.6226C22.1213 19.0926 22.3212 19.6926 22.3512 20.3926C22.3712 21.0726 22.1612 21.8426 21.7212 22.6526C21.1712 23.6626 20.4813 24.5326 19.6713 25.2326C18.8913 25.9226 17.9013 26.4426 16.7513 26.7926C16.3613 27.2826 15.7913 28.1426 15.0613 29.3426C14.2813 30.6326 13.6513 32.2826 13.1813 34.2726C12.9013 35.4426 12.8913 36.3426 13.1213 36.9426C13.3613 37.5426 13.6912 37.9626 14.1512 38.2126C14.6312 38.4926 15.2112 38.6626 15.8512 38.7326L17.7912 38.9226C18.4712 38.9926 18.8312 38.9426 19.0212 38.8826C19.2912 38.8026 19.4913 38.7026 19.6313 38.5826C19.8013 38.4626 19.8712 38.3526 19.9112 38.2226C21.3812 34.4426 22.7913 30.8926 24.1213 27.5926C24.6913 26.1526 25.2913 24.6726 25.9213 23.1426C26.5513 21.6226 27.1712 20.1326 27.7812 18.6726C28.3912 17.2226 28.9813 15.8326 29.5513 14.5326C30.1313 13.2226 30.6412 12.0826 31.0912 11.1226C32.0212 9.08259 33.0112 7.5426 34.0212 6.5526C35.0412 5.5626 36.0012 4.88259 36.8912 4.53259C37.8912 4.11259 38.8913 3.97259 39.8613 4.10259C40.3313 4.10259 40.7313 4.25259 41.0713 4.53259C41.3813 4.79259 41.6213 5.11259 41.8013 5.48259C41.9813 5.85259 42.0813 6.2426 42.1113 6.6426C42.1413 7.0626 42.0712 7.46259 41.8912 7.82259C41.7212 8.17259 41.4812 8.48259 41.1612 8.73259C40.9012 8.93259 40.6112 9.16258 40.2712 9.41258C39.9712 9.64258 39.6512 9.9426 39.3312 10.3026C39.0112 10.6726 38.6812 11.1626 38.3512 11.7626C38.1412 12.1626 37.7512 13.0626 37.2012 14.4226C36.6412 15.8026 35.9913 17.4226 35.2513 19.2926L32.8713 25.3326C32.0213 27.4826 31.2112 29.5426 30.4512 31.5026C29.6912 33.4626 29.0013 35.2226 28.3813 36.7826L27.0312 40.2026C26.5812 41.3026 26.0112 42.2126 25.3312 42.9226C24.6412 43.6426 23.7612 44.1926 22.7212 44.5726C21.7012 44.9426 20.4913 45.1626 19.1313 45.2426C18.6713 45.2726 18.1812 45.2826 17.6612 45.2826H17.6813ZM14.1213 0.992586C13.4513 0.992586 12.7713 1.03259 12.0713 1.12259C10.2613 1.35259 8.55126 1.94259 6.99126 2.88259C5.43126 3.81259 4.08124 5.14259 2.97124 6.82259C1.87124 8.49259 1.22127 10.6026 1.06127 13.1026C0.921268 15.3726 1.08126 17.2926 1.55126 18.8226C2.01126 20.3426 2.67123 21.5926 3.52123 22.5326C4.37123 23.4826 5.36125 24.2126 6.48125 24.7126C7.62125 25.2226 8.81128 25.5926 10.0113 25.8226L10.7112 25.9526L10.3512 26.5626C9.93125 27.2726 9.55123 28.0526 9.21123 28.8826C8.86123 29.7226 8.55125 30.5426 8.29125 31.3126C8.02125 32.0826 7.80128 32.8226 7.63128 33.5026C7.46128 34.1926 7.31122 34.7626 7.20122 35.2026C7.04122 35.9026 7.01127 36.7526 7.12127 37.7226C7.23127 38.6926 7.55123 39.6326 8.08123 40.5426C8.60123 41.4426 9.38123 42.2426 10.4012 42.9226C11.4112 43.5926 12.7913 44.0026 14.4913 44.1426C16.2513 44.2826 17.8113 44.3126 19.1113 44.2426C20.3813 44.1726 21.4913 43.9726 22.4213 43.6326C23.3213 43.3126 24.0712 42.8426 24.6512 42.2326C25.2412 41.6126 25.7512 40.8126 26.1412 39.8326L27.4913 36.4126C28.1113 34.8526 28.7913 33.0926 29.5613 31.1326C30.3213 29.1726 31.1313 27.1126 31.9813 24.9626L34.3613 18.9326C35.1013 17.0626 35.7513 15.4326 36.3113 14.0526C36.8913 12.6426 37.2813 11.7426 37.5113 11.3026C37.8813 10.6226 38.2513 10.0726 38.6213 9.65259C38.9913 9.23259 39.3512 8.88259 39.7112 8.62259C40.0412 8.38259 40.3312 8.15259 40.5812 7.96259C40.7712 7.81259 40.9212 7.63258 41.0212 7.41258C41.1212 7.20258 41.1612 6.9826 41.1412 6.7226C41.1212 6.4526 41.0513 6.18259 40.9313 5.92259C40.8113 5.67259 40.6512 5.4726 40.4512 5.3026C40.2912 5.1726 40.1013 5.10259 39.8613 5.10259H39.7912C38.9912 4.98259 38.1513 5.10259 37.3013 5.46259C36.5313 5.77259 35.6813 6.37258 34.7513 7.27258C33.8213 8.17258 32.9112 9.61259 32.0312 11.5426C31.5812 12.5126 31.0713 13.6426 30.4913 14.9426C29.9213 16.2426 29.3312 17.6226 28.7212 19.0726C28.1112 20.5226 27.5013 22.0126 26.8713 23.5326C26.2413 25.0526 25.6413 26.5326 25.0713 27.9626C23.7313 31.2626 22.3313 34.8126 20.8813 38.5226C20.8113 38.8326 20.6013 39.1426 20.2613 39.3826C20.0413 39.5726 19.7213 39.7326 19.3113 39.8526C18.9113 39.9726 18.3912 39.9926 17.7112 39.9226L15.7712 39.7326C14.9812 39.6526 14.2813 39.4326 13.6713 39.0926C13.0213 38.7226 12.5312 38.1226 12.2112 37.3226C11.8912 36.5226 11.8912 35.4526 12.2212 34.0626C12.7112 31.9826 13.3812 30.2226 14.2212 28.8426C15.0412 27.4926 15.6712 26.5526 16.0912 26.0526L16.1913 25.9326L16.3412 25.8926C17.4212 25.5826 18.3212 25.1126 19.0312 24.4926C19.7512 23.8626 20.3613 23.0926 20.8613 22.1926C21.2113 21.5326 21.3813 20.9426 21.3713 20.4326C21.3613 19.9426 21.2313 19.5526 20.9913 19.2526C20.7413 18.9426 20.4112 18.7326 19.9612 18.5926C19.5012 18.4526 18.9812 18.4526 18.4012 18.5926C17.8112 18.7126 17.2712 18.9026 16.7912 19.1826C16.2712 19.4726 15.8113 19.7626 15.4213 20.0426C15.0213 20.3326 14.6712 20.5926 14.3912 20.8226C14.0512 21.0926 13.8012 21.2526 13.6012 21.3326L13.4512 21.3626C12.0412 21.4626 10.8212 21.3226 9.83123 20.9626C8.83123 20.6026 8.02124 20.1026 7.41124 19.4726C6.81124 18.8526 6.35128 18.1626 6.07128 17.4226C5.79128 16.6926 5.63126 16.0126 5.61126 15.3926C5.59126 14.7926 5.66128 14.0526 5.82128 13.1526C5.98128 12.2526 6.26125 11.3426 6.67125 10.4326C7.08125 9.51259 7.66123 8.65259 8.40123 7.87259C9.16123 7.08259 10.1113 6.51259 11.2413 6.18259C12.3813 5.82259 13.4512 5.71259 14.3912 5.87259C15.3012 6.02259 16.1213 6.2526 16.8113 6.5526C17.5613 6.8826 18.2512 7.3126 18.8912 7.8326C19.9212 7.7826 20.7013 7.50259 21.1913 6.98259C21.7113 6.44259 21.9313 5.84258 21.8613 5.16258C21.7913 4.45258 21.3812 3.73259 20.6612 3.01259C19.9212 2.27259 18.7513 1.71259 17.1913 1.35259C16.2313 1.12259 15.2112 1.01259 14.1512 1.01259L14.1213 0.992586Z" fill="var(--fill-0, black)"/>
</g>
</svg>
