<svg preserveAspectRatio="none" width="100%" height="100%" overflow="visible" style="display: block;" viewBox="0 0 789.075 222.156" fill="none" xmlns="http://www.w3.org/2000/svg">
<g id="Group">
<path id="Vector" d="M787.244 60.9656C786.584 57.0056 785.174 53.2656 783.044 49.8356C783.024 49.8056 783.004 49.7756 782.984 49.7456C780.704 46.1056 777.744 43.0556 774.194 40.6756C774.164 40.6556 774.134 40.6356 774.104 40.6156C769.414 37.4956 763.934 35.8556 758.264 35.8556C758.024 35.8556 757.794 35.8556 757.554 35.8556C751.944 35.8656 746.504 37.2156 741.364 39.8556C740.994 40.0456 740.634 40.2356 740.274 40.4356C735.194 36.7856 729.034 34.4756 721.944 33.5656C719.864 33.2956 717.724 33.1556 715.584 33.1556C711.724 33.1556 707.754 33.6056 703.764 34.4956C697.114 35.9856 690.944 38.7456 685.424 42.7056C684.474 43.3856 683.574 44.1056 682.684 44.8556C679.864 43.5256 676.904 42.4056 673.814 41.5356C668.824 40.1356 663.524 39.4256 658.084 39.4256C656.484 39.4256 654.844 39.4856 653.174 39.6156C649.404 39.9056 645.724 40.4756 642.174 41.3056C642.354 40.0456 642.504 38.7756 642.594 37.5156C643.174 29.5856 641.854 22.9156 638.554 17.1356C635.094 11.0756 630.014 6.47559 623.874 3.84559C623.504 3.68559 623.134 3.53559 622.764 3.39559C619.264 2.08559 615.564 1.41559 611.774 1.41559C609.354 1.41559 606.904 1.69559 604.474 2.23559C600.344 3.12559 596.494 4.74559 593.024 7.05559C592.854 7.16559 592.694 7.27559 592.534 7.39559C588.974 9.88559 585.954 13.1156 583.564 16.9956C581.354 20.5856 578.804 26.5256 579.014 34.6256C578.864 35.5156 578.684 36.3756 578.474 37.1956C578.194 38.2856 577.914 39.2756 577.624 40.1756C577.204 41.5056 576.864 42.5856 576.604 43.4156C576.074 45.0456 575.624 46.7656 575.264 48.5356C575.044 49.6056 574.884 50.6756 574.744 51.7456C571.744 50.1956 568.444 48.9856 564.874 48.1456C562.104 47.4956 559.204 47.1656 556.244 47.1656C552.484 47.1656 548.514 47.7056 544.434 48.7656C540.104 49.8856 536.064 51.5956 532.324 53.8456C530.284 52.5956 528.124 51.5156 525.854 50.6156C520.944 48.6856 515.654 47.7156 510.154 47.7156C508.574 47.7156 506.944 47.7956 505.324 47.9556C505.244 47.9556 505.164 47.9756 505.084 47.9756C497.054 48.8556 489.644 51.9956 483.664 57.0556C482.984 57.6356 482.314 58.2356 481.664 58.8656C481.394 58.7256 481.114 58.5856 480.834 58.4456C475.244 55.6956 469.014 54.2256 462.304 54.0756C461.964 54.0756 461.624 54.0656 461.274 54.0656C460.354 54.0656 459.424 54.1056 458.484 54.1556C457.934 49.9656 456.674 46.1756 454.694 42.6956C451.274 36.7056 446.254 32.1656 440.164 29.5656C439.804 29.4156 439.444 29.2656 439.084 29.1356C435.624 27.8356 431.964 27.1756 428.214 27.1756C425.844 27.1756 423.434 27.4456 421.044 27.9756C416.984 28.8456 413.194 30.4456 409.774 32.7256C409.604 32.8356 409.444 32.9456 409.284 33.0656C405.774 35.5256 402.794 38.7056 400.454 42.5156C398.284 46.0356 395.784 51.8356 395.944 59.7056C395.824 60.4056 395.674 61.0856 395.514 61.7356C395.264 62.7056 395.014 63.5856 394.764 64.3856C394.374 65.6156 394.064 66.6156 393.824 67.3756C393.714 67.7056 393.634 68.0456 393.534 68.3756C392.744 68.1656 391.954 67.9756 391.154 67.8256C388.174 67.2356 385.144 66.9356 382.144 66.9356C379.474 66.9356 376.774 67.1756 374.154 67.6356C370.864 68.2156 367.664 69.1256 364.584 70.3456C362.394 69.2656 360.054 68.4356 357.594 67.9356C355.724 67.5556 353.814 67.3556 351.894 67.3556C348.704 67.3556 345.584 67.8656 342.504 68.8856C341.364 68.4956 340.184 68.1756 338.974 67.9256C337.104 67.5456 335.194 67.3456 333.274 67.3456C326.314 67.3456 319.684 69.7556 313.014 74.7256C309.724 77.1756 307.054 80.3556 305.214 84.0256C304.444 85.5556 303.664 87.3756 302.764 89.7156C298.174 89.8156 293.704 90.8456 289.444 92.7956C285.124 90.2156 280.134 88.5556 274.554 87.8356C272.644 87.5856 270.674 87.4656 268.724 87.4656C265.204 87.4656 261.584 87.8756 257.954 88.6756C251.854 90.0356 246.194 92.5756 241.124 96.2056C241.024 96.2756 240.924 96.3556 240.824 96.4356C238.734 95.7356 236.564 95.1956 234.344 94.8356C233.314 94.6656 232.264 94.5456 231.204 94.4556C230.884 94.1656 230.564 93.8756 230.234 93.5856C227.344 91.1456 222.914 88.3856 216.764 87.0356C216.094 84.3456 215.084 81.8256 213.724 79.4456C210.364 73.5656 205.414 69.0956 199.414 66.5356C199.054 66.3856 198.694 66.2356 198.334 66.1056C194.924 64.8256 191.324 64.1756 187.634 64.1756C185.314 64.1756 182.954 64.4356 180.634 64.9556C176.664 65.8056 172.964 67.3656 169.614 69.5956C169.444 69.7056 169.284 69.8156 169.114 69.9356C165.654 72.3556 162.734 75.4756 160.424 79.2156C158.314 82.6356 155.884 88.2456 155.984 95.8156C155.894 96.2856 155.794 96.7456 155.684 97.1856C155.504 97.8856 155.324 98.5156 155.144 99.1056C152.054 99.4356 148.974 100.086 145.944 101.066C141.904 102.376 137.984 104.246 134.304 106.616C134.044 106.786 133.794 106.956 133.534 107.126C133.174 106.956 132.814 106.776 132.454 106.616C127.984 104.646 123.134 103.426 118.024 102.986C117.834 102.966 117.644 102.956 117.454 102.946C116.444 102.886 115.424 102.846 114.414 102.846C110.444 102.846 106.504 103.346 102.684 104.346C98.5741 105.416 94.6741 106.946 91.1041 108.886C88.4541 110.316 85.9741 111.956 83.7141 113.766C83.0741 113.726 82.4441 113.706 81.8041 113.706C78.4141 113.706 75.0241 114.276 71.7241 115.406C70.2341 115.916 68.7741 116.546 67.3441 117.286C63.3141 114.596 58.8241 112.726 54.0841 111.786C51.3341 111.246 48.5441 110.966 45.7741 110.966C43.3041 110.966 40.8141 111.186 38.3941 111.616C33.5841 112.466 28.9741 114.076 24.6841 116.416C20.7241 118.576 17.2241 121.166 14.2741 124.116C11.1441 127.246 8.53405 130.856 6.49405 134.866C4.92405 137.956 3.70405 141.076 2.86405 144.126C1.72405 148.266 1.26405 152.106 1.45405 155.886C1.75405 161.716 3.69405 166.996 6.81405 171.256C6.24405 173.826 5.90405 176.426 5.77405 179.026C5.54405 183.796 6.06405 188.486 7.31405 192.976C8.88405 198.606 11.5841 203.596 15.3241 207.816C16.0141 208.586 16.7441 209.326 17.5141 210.006C21.1441 213.236 25.2841 215.586 29.8241 216.986C32.9241 217.986 36.1841 218.486 39.5341 218.486C40.9741 218.486 42.4541 218.386 43.9241 218.206C45.8241 217.966 48.1341 217.476 50.6641 216.546C52.4841 217.606 54.4241 218.476 56.4541 219.156C59.6441 220.226 62.9941 220.766 66.4341 220.766C71.7641 220.766 77.1041 219.256 81.8741 216.396C82.1141 216.256 82.3541 216.106 82.5941 215.946C86.2041 213.616 89.3041 210.546 91.6641 206.976C93.2141 208.726 94.9941 210.286 96.9741 211.606C101.634 214.716 107.134 216.356 112.894 216.356C113.824 216.356 114.764 216.316 115.724 216.226C121.074 215.736 126.124 213.866 130.754 210.656C133.264 208.916 135.594 206.756 137.714 204.226C139.954 206.006 142.404 207.506 145.054 208.696C148.724 210.346 152.604 211.366 156.564 211.736C157.774 211.846 159.014 211.906 160.234 211.906C162.324 211.906 164.434 211.736 166.494 211.406C170.014 210.846 173.404 209.816 176.574 208.336C177.434 207.936 178.274 207.516 179.094 207.056C179.274 207.176 179.454 207.316 179.644 207.436C183.614 210.006 187.894 211.656 192.414 212.366C194.074 212.626 195.764 212.756 197.414 212.756C200.154 212.756 202.864 212.396 205.494 211.696C210.114 210.456 214.244 208.236 217.814 205.066C218.624 204.346 219.394 203.586 220.114 202.786C221.334 202.756 222.564 202.656 223.784 202.506C229.144 201.816 234.334 199.996 239.214 197.096C241.844 195.546 244.334 193.636 246.724 191.356C249.064 193.436 251.704 195.246 254.624 196.756C259.924 199.486 265.944 200.876 272.524 200.876C272.844 200.876 273.174 200.876 273.484 200.876C277.234 200.806 280.534 200.546 283.534 200.086C287.854 199.436 291.864 198.266 295.444 196.616C298.364 195.266 301.024 193.586 303.414 191.586C304.244 192.046 305.094 192.476 305.964 192.856C309.944 194.596 314.144 195.486 318.444 195.486C320.294 195.486 322.164 195.316 323.984 194.986C325.284 194.746 326.554 194.436 327.804 194.036C330.834 194.996 333.964 195.486 337.154 195.486C339.004 195.486 340.874 195.316 342.694 194.986C349.624 193.726 355.744 190.196 360.374 184.786C360.704 184.396 361.024 184.006 361.334 183.616C362.354 184.046 363.394 184.426 364.464 184.756C367.684 185.796 371.074 186.316 374.564 186.316C376.074 186.316 377.624 186.216 379.174 186.016C382.464 185.596 385.624 184.676 388.654 183.266C391.144 185.016 393.934 186.416 396.914 187.416C400.204 188.516 403.664 189.076 407.224 189.076C412.684 189.076 418.164 187.516 423.084 184.566C423.324 184.426 423.564 184.276 423.794 184.126C428.104 181.346 431.724 177.536 434.264 173.096C434.764 172.216 435.214 171.326 435.644 170.426C439.644 173.176 444.274 174.916 449.234 175.486C450.374 175.616 451.534 175.686 452.694 175.686C455.894 175.686 459.144 175.186 462.354 174.196C463.404 177.236 464.704 180.166 466.244 182.946C467.714 185.586 469.624 187.956 471.894 189.936C474.314 192.056 477.064 193.816 480.074 195.186C480.164 195.226 480.254 195.266 480.334 195.306C483.274 196.606 486.464 197.466 489.834 197.876C491.044 198.016 492.274 198.096 493.504 198.096C496.794 198.096 500.124 197.576 503.464 196.536C508.884 194.836 513.714 191.766 517.434 187.656C520.244 184.546 522.404 181.016 523.854 177.156C525.364 173.126 526.044 168.906 525.864 164.646C525.704 160.546 524.804 156.636 523.204 153.026C523.064 152.696 522.914 152.376 522.754 152.056C522.764 150.976 522.794 149.886 522.814 148.786C523.954 152.136 525.664 155.246 527.934 158.006C530.874 161.616 534.524 164.476 538.794 166.526C542.874 168.486 547.264 169.476 551.834 169.476C553.754 169.476 555.694 169.296 557.634 168.936C560.744 168.356 563.784 167.296 566.734 165.766C572.064 170.016 578.674 172.336 585.454 172.336C586.334 172.336 587.224 172.296 588.124 172.216C593.044 171.776 600.174 169.876 606.914 163.426C610.694 160.106 613.794 156.136 616.174 151.566C617.554 153.036 618.994 154.406 620.494 155.646C623.844 158.416 627.364 160.606 630.974 162.146C631.164 162.226 631.364 162.306 631.564 162.386C634.404 163.526 637.564 164.416 641.214 165.106C644.204 165.676 647.354 165.966 650.574 165.966C651.804 165.966 653.074 165.926 654.334 165.836C658.694 165.546 663.214 164.696 667.794 163.296C673.154 161.656 678.394 159.026 683.354 155.466C686.214 153.416 688.984 151.006 691.644 148.286C694.374 150.886 697.514 153.106 701.054 154.926C706.674 157.826 713.114 159.296 720.194 159.296C720.544 159.296 720.904 159.296 721.244 159.286C725.534 159.206 729.294 158.906 732.694 158.396C737.404 157.686 741.754 156.426 745.624 154.636C750.854 152.226 755.294 148.826 758.834 144.516C761.974 140.676 764.364 136.186 765.934 131.146C765.964 131.066 767.794 124.936 767.794 124.936C768.614 122.196 769.524 119.116 770.534 115.676C771.514 112.336 772.554 108.826 773.664 105.136C774.784 101.396 775.834 97.9056 776.804 94.6456C777.714 91.5956 778.544 88.8556 779.274 86.5156C779.294 86.4456 779.314 86.3756 779.334 86.3156C782.154 83.3956 784.374 79.8956 785.784 76.1156C787.584 71.3156 788.084 66.0956 787.234 61.0156L787.244 60.9656Z" fill="var(--fill-0, #E2058C)"/>
<path id="Vector_2" d="M66.4341 222.156C62.8441 222.156 59.3341 221.586 56.0041 220.476C54.1041 219.846 52.2641 219.036 50.5341 218.076C48.4241 218.806 46.2641 219.316 44.1041 219.596C39.0041 220.246 34.0241 219.806 29.3941 218.326C24.6741 216.866 20.3541 214.416 16.5741 211.056C15.7641 210.336 14.9841 209.556 14.2641 208.746C10.3841 204.366 7.58405 199.186 5.95405 193.356C4.65405 188.726 4.12405 183.876 4.36405 178.956C4.48405 176.496 4.79405 174.016 5.30405 171.566C2.15405 167.056 0.334054 161.666 0.0440542 155.956C-0.155946 152.016 0.324054 148.026 1.50405 143.746C2.37405 140.606 3.62405 137.406 5.24405 134.226C7.34405 130.096 10.0541 126.356 13.2841 123.116C16.3241 120.076 19.9341 117.396 24.0141 115.176C28.4341 112.766 33.1941 111.096 38.1541 110.216C43.4741 109.276 49.0041 109.326 54.3741 110.386C59.0241 111.306 63.424 113.076 67.454 115.636C68.704 115.026 69.9841 114.496 71.284 114.046C75.1941 112.706 79.254 112.116 83.274 112.306C85.494 110.576 87.9041 108.996 90.4441 107.626C94.1241 105.636 98.1241 104.066 102.334 102.966C107.264 101.676 112.424 101.186 117.554 101.516C117.754 101.526 117.954 101.546 118.154 101.556C123.424 102.006 128.424 103.266 133.034 105.306C133.164 105.366 133.294 105.426 133.424 105.486C133.464 105.456 133.504 105.436 133.544 105.406C137.324 102.976 141.354 101.056 145.514 99.7056C148.304 98.8056 151.174 98.1556 154.064 97.7956C154.154 97.4856 154.234 97.1656 154.324 96.8256C154.414 96.4556 154.504 96.0756 154.584 95.6756C154.514 87.8056 157.074 81.9656 159.234 78.4556C161.644 74.5556 164.694 71.2856 168.314 68.7556C168.484 68.6356 168.664 68.5156 168.834 68.3956C172.324 66.0656 176.204 64.4356 180.344 63.5456C186.614 62.1456 193.034 62.5656 198.844 64.7556C199.224 64.8956 199.604 65.0556 199.984 65.2156C206.264 67.9056 211.444 72.5756 214.964 78.7256C216.234 80.9556 217.234 83.3456 217.924 85.8356C224.134 87.3556 228.524 90.2656 231.154 92.4856C231.384 92.6756 231.594 92.8656 231.814 93.0656C232.794 93.1656 233.694 93.2756 234.574 93.4156C236.604 93.7456 238.614 94.2256 240.574 94.8456C245.724 91.2056 251.464 88.6656 257.644 87.2856C263.434 85.9956 269.214 85.7056 274.734 86.4256C280.224 87.1256 285.194 88.7356 289.524 91.2056C293.444 89.5056 297.554 88.5456 301.774 88.3356C302.554 86.3556 303.244 84.7756 303.934 83.3956C305.864 79.5456 308.704 76.1556 312.154 73.5956C319.084 68.4456 325.984 65.9356 333.264 65.9356C335.274 65.9356 337.294 66.1356 339.254 66.5356C340.344 66.7556 341.434 67.0456 342.504 67.3856C347.504 65.8056 352.834 65.4956 357.874 66.5356C360.184 67.0056 362.454 67.7656 364.634 68.7956C367.624 67.6456 370.734 66.7856 373.904 66.2356C379.654 65.2156 385.634 65.2756 391.424 66.4256C391.794 66.4956 392.174 66.5756 392.564 66.6656C392.784 65.9456 393.074 65.0356 393.424 63.9356C393.674 63.1656 393.904 62.3256 394.154 61.3656C394.294 60.8056 394.424 60.2056 394.544 59.5756C394.404 51.4056 397.034 45.3756 399.264 41.7556C401.714 37.7856 404.814 34.4656 408.494 31.8956C408.664 31.7756 408.844 31.6556 409.014 31.5356C412.584 29.1556 416.544 27.4856 420.774 26.5756C427.164 25.1456 433.704 25.5756 439.604 27.7956C439.984 27.9456 440.364 28.0956 440.744 28.2556C447.114 30.9756 452.364 35.7256 455.944 41.9856C457.824 45.2856 459.064 48.7956 459.714 52.6756C460.674 52.6356 461.504 52.6356 462.344 52.6556C469.244 52.8056 475.664 54.3156 481.424 57.1456C481.864 56.7456 482.314 56.3456 482.764 55.9656C488.964 50.7156 496.624 47.4656 504.944 46.5556L505.194 46.5256C512.604 45.7856 519.844 46.7156 526.374 49.2756C528.424 50.0856 530.424 51.0556 532.334 52.1756C536.004 50.0656 539.944 48.4456 544.084 47.3756C551.594 45.4256 558.704 45.2256 565.204 46.7556C568.164 47.4556 570.994 48.4156 573.624 49.6156C573.704 49.1456 573.784 48.6856 573.874 48.2456C574.254 46.4256 574.714 44.6556 575.254 42.9756C575.504 42.1656 575.844 41.0756 576.274 39.7456C576.554 38.8756 576.824 37.9256 577.094 36.8456C577.284 36.1156 577.444 35.3356 577.594 34.5256C577.404 26.1256 580.074 19.9556 582.354 16.2556C584.844 12.2156 587.994 8.84559 591.724 6.23559C591.894 6.11559 592.074 5.99559 592.244 5.87559C595.864 3.46559 599.884 1.77559 604.184 0.845594C610.664 -0.604406 617.284 -0.184406 623.274 2.06559C623.664 2.21559 624.054 2.37559 624.444 2.53559C630.874 5.28559 636.184 10.0956 639.794 16.4256C643.234 22.4556 644.614 29.3856 644.014 37.6156C643.964 38.2256 643.914 38.8556 643.844 39.4856C646.874 38.8656 649.964 38.4356 653.074 38.1956C660.494 37.6356 667.574 38.3056 674.194 40.1656C677.014 40.9556 679.794 41.9756 682.474 43.1856C683.234 42.5656 683.924 42.0356 684.604 41.5456C690.274 37.4756 696.624 34.6356 703.464 33.1056C709.804 31.6956 716.094 31.3756 722.134 32.1556C729.124 33.0556 735.254 35.2756 740.384 38.7756C740.504 38.7156 740.614 38.6556 740.734 38.5956C746.064 35.8556 751.734 34.4556 757.564 34.4456C757.774 34.4456 758.024 34.4456 758.274 34.4456C764.224 34.4456 769.964 36.1756 774.894 39.4456L774.204 40.6856L774.994 39.5056C778.714 41.9956 781.804 45.1856 784.194 48.9956L784.254 49.0856C786.484 52.6756 787.964 56.5856 788.654 60.7256C789.544 66.0456 789.014 71.5256 787.134 76.5556C785.704 80.3856 783.444 83.9956 780.604 86.9956C779.884 89.2956 779.074 91.9956 778.174 94.9956C777.204 98.2556 776.154 101.746 775.034 105.496C773.924 109.176 772.884 112.686 771.904 116.026C770.894 119.466 769.984 122.546 769.164 125.286C769.164 125.286 767.324 131.426 767.304 131.506C765.684 136.726 763.204 141.386 759.944 145.366C756.274 149.836 751.654 153.376 746.234 155.876C742.244 157.716 737.764 159.016 732.924 159.746C729.454 160.266 725.644 160.566 721.294 160.656C720.944 160.656 720.584 160.666 720.224 160.666C712.924 160.666 706.264 159.146 700.434 156.146C697.224 154.496 694.304 152.496 691.724 150.206C689.304 152.596 686.784 154.736 684.214 156.576C679.134 160.226 673.764 162.926 668.244 164.616C663.564 166.046 658.934 166.916 654.464 167.206C649.724 167.516 645.234 167.256 640.984 166.446C637.244 165.736 633.994 164.816 631.074 163.646C630.864 163.566 630.664 163.476 630.454 163.386C626.724 161.786 623.084 159.526 619.634 156.666C618.584 155.796 617.544 154.856 616.534 153.856C614.204 157.886 611.294 161.426 607.884 164.416C600.844 171.156 593.334 173.106 588.284 173.556C580.524 174.236 572.794 171.996 566.604 167.356C563.784 168.726 560.874 169.696 557.924 170.246C555.904 170.626 553.864 170.816 551.854 170.816C547.074 170.816 542.484 169.776 538.204 167.726C533.754 165.586 529.934 162.596 526.854 158.826C526.734 158.686 526.624 158.536 526.504 158.396C526.954 160.376 527.214 162.426 527.294 164.516C527.474 168.976 526.764 173.376 525.194 177.576C523.684 181.606 521.424 185.296 518.494 188.536C514.604 192.826 509.554 196.036 503.894 197.816C499.134 199.306 494.304 199.766 489.674 199.216C486.174 198.796 482.844 197.896 479.774 196.536L479.494 196.406C476.364 194.986 473.494 193.146 470.974 190.936C468.574 188.836 466.564 186.356 465.014 183.566C463.654 181.116 462.464 178.526 461.474 175.856C457.334 176.966 453.144 177.296 449.074 176.826C444.484 176.296 440.074 174.776 436.214 172.416C435.974 172.876 435.744 173.316 435.504 173.736C432.854 178.376 429.074 182.356 424.564 185.256C424.314 185.416 424.064 185.566 423.814 185.726C418.674 188.806 412.934 190.436 407.224 190.436C403.514 190.436 399.904 189.856 396.464 188.706C393.604 187.756 390.934 186.456 388.504 184.836C385.574 186.116 382.494 186.966 379.344 187.366C374.014 188.046 368.824 187.596 364.014 186.046C363.274 185.816 362.534 185.556 361.764 185.266C361.654 185.396 361.554 185.526 361.444 185.646C356.594 191.306 350.204 194.996 342.944 196.316C337.914 197.236 332.684 196.936 327.804 195.456C326.644 195.806 325.444 196.096 324.244 196.316C322.334 196.666 320.394 196.836 318.454 196.836C313.954 196.836 309.564 195.916 305.404 194.086C304.824 193.836 304.234 193.546 303.584 193.216C301.284 195.036 298.744 196.586 296.044 197.836C292.344 199.546 288.204 200.756 283.744 201.416C280.674 201.876 277.324 202.146 273.504 202.216C273.184 202.216 272.854 202.226 272.514 202.226C265.704 202.226 259.464 200.786 253.964 197.956C251.374 196.626 248.954 195.026 246.754 193.196C244.544 195.196 242.304 196.856 239.924 198.256C234.884 201.256 229.504 203.146 223.954 203.856C222.894 203.996 221.814 204.086 220.744 204.126C220.114 204.806 219.444 205.456 218.754 206.066C215.024 209.366 210.694 211.706 205.864 213.006C201.474 214.186 196.824 214.426 192.204 213.716C187.554 212.986 183.114 211.286 179.014 208.656C178.394 208.976 177.784 209.286 177.174 209.566C173.894 211.096 170.374 212.176 166.724 212.756C163.324 213.296 159.824 213.416 156.434 213.096C152.304 212.706 148.274 211.646 144.474 209.936C142.154 208.886 139.954 207.606 137.914 206.106C135.954 208.296 133.824 210.196 131.564 211.766C126.734 215.116 121.454 217.076 115.854 217.586C114.854 217.676 113.864 217.726 112.894 217.726C106.854 217.726 101.084 216.006 96.1941 212.736C94.6341 211.696 93.1741 210.496 91.8341 209.156C89.5141 212.266 86.6141 214.986 83.3641 217.076C83.1141 217.236 82.864 217.396 82.604 217.546C77.614 220.536 72.0241 222.116 66.4341 222.116V222.156ZM50.8041 214.956L51.3841 215.286C53.1141 216.296 54.9741 217.126 56.9041 217.776C59.9441 218.796 63.1541 219.316 66.4341 219.316C71.5041 219.316 76.5941 217.876 81.1441 215.146C81.3741 215.006 81.6041 214.866 81.8241 214.726C85.2341 212.526 88.2341 209.566 90.4841 206.166L91.5041 204.626L92.7241 206.006C94.2241 207.696 95.9241 209.176 97.7541 210.406C102.174 213.356 107.414 214.916 112.884 214.916C113.764 214.916 114.674 214.876 115.584 214.796C120.684 214.326 125.514 212.536 129.934 209.466C132.334 207.796 134.584 205.716 136.624 203.286L137.514 202.226L138.594 203.086C140.744 204.796 143.114 206.236 145.634 207.376C149.154 208.956 152.874 209.946 156.694 210.296C159.844 210.596 163.104 210.486 166.274 209.976C169.664 209.436 172.924 208.446 175.984 207.016C176.784 206.646 177.604 206.236 178.414 205.786L179.174 205.366L180.154 206.036C180.244 206.096 180.324 206.156 180.414 206.216C184.214 208.676 188.334 210.266 192.634 210.936C196.854 211.586 201.114 211.376 205.124 210.296C209.524 209.106 213.484 206.986 216.874 203.976C217.634 203.296 218.374 202.566 219.064 201.806L219.474 201.356L220.084 201.336C221.254 201.306 222.444 201.216 223.604 201.066C228.764 200.406 233.774 198.646 238.484 195.836C241.014 194.346 243.384 192.526 245.744 190.286L246.684 189.386L247.664 190.256C249.944 192.286 252.504 194.026 255.274 195.456C260.374 198.086 266.174 199.416 272.524 199.416C272.834 199.416 273.154 199.416 273.454 199.416C277.144 199.346 280.374 199.096 283.324 198.646C287.514 198.016 291.394 196.886 294.854 195.286C297.624 194.006 300.204 192.386 302.514 190.456L303.254 189.836L304.104 190.296C305.014 190.796 305.794 191.186 306.534 191.506C310.334 193.176 314.344 194.016 318.444 194.016C320.214 194.016 321.994 193.856 323.734 193.536C324.964 193.316 326.194 193.006 327.374 192.636L327.804 192.496L328.234 192.636C332.804 194.086 337.714 194.396 342.444 193.536C349.054 192.336 354.884 188.976 359.304 183.806C359.624 183.436 359.924 183.056 360.224 182.686L360.894 181.836L361.884 182.256C362.924 182.696 363.904 183.046 364.884 183.346C369.314 184.776 374.084 185.186 379.004 184.556C382.134 184.156 385.174 183.276 388.064 181.926L388.804 181.576L389.474 182.046C391.854 183.716 394.504 185.056 397.374 186.006C400.514 187.056 403.834 187.596 407.234 187.596C412.434 187.596 417.664 186.106 422.364 183.286C422.594 183.146 422.814 183.016 423.034 182.866C427.164 180.206 430.624 176.566 433.044 172.326C433.484 171.566 433.904 170.746 434.374 169.756L435.084 168.256L436.454 169.206C440.304 171.856 444.654 173.476 449.404 174.026C453.514 174.496 457.754 174.076 461.944 172.786L463.254 172.386L463.704 173.686C464.724 176.646 465.994 179.506 467.494 182.206C468.884 184.706 470.684 186.936 472.844 188.826C475.154 190.846 477.794 192.546 480.674 193.856L480.924 193.966C483.734 195.206 486.794 196.036 490.014 196.416C494.234 196.916 498.674 196.486 503.054 195.126C508.234 193.496 512.854 190.566 516.404 186.656C519.094 183.676 521.164 180.296 522.554 176.606C523.994 172.756 524.644 168.726 524.484 164.646C524.324 160.726 523.474 156.986 521.944 153.546C521.804 153.236 521.664 152.926 521.514 152.626L521.364 152.326V151.986C521.384 151.026 521.404 150.046 521.424 149.066L521.604 140.646L524.194 148.286C525.284 151.506 526.924 154.456 529.064 157.056C531.874 160.506 535.364 163.246 539.444 165.196C543.334 167.056 547.514 168.006 551.874 168.006C553.704 168.006 555.574 167.826 557.414 167.486C560.374 166.926 563.304 165.906 566.134 164.456L566.944 164.036L567.664 164.606C573.404 169.176 580.704 171.406 588.044 170.756C592.644 170.346 599.494 168.556 605.984 162.346C609.654 159.136 612.654 155.276 614.974 150.856L615.904 149.086L617.264 150.546C618.614 151.986 620.024 153.316 621.454 154.496C624.704 157.176 628.104 159.296 631.584 160.786C631.764 160.866 631.954 160.946 632.144 161.016C634.894 162.116 637.964 162.986 641.534 163.666C645.544 164.426 649.784 164.676 654.294 164.376C658.544 164.096 662.964 163.266 667.434 161.896C672.654 160.306 677.744 157.736 682.574 154.266C685.354 152.276 688.074 149.916 690.674 147.246L691.654 146.246L692.674 147.216C695.304 149.716 698.364 151.876 701.754 153.626C707.174 156.416 713.394 157.836 720.244 157.836C720.584 157.836 720.934 157.836 721.264 157.826C725.494 157.746 729.184 157.456 732.534 156.946C737.114 156.256 741.334 155.036 745.084 153.306C750.114 150.986 754.394 147.706 757.794 143.566C760.824 139.876 763.124 135.536 764.634 130.676C764.674 130.536 766.484 124.476 766.484 124.476C767.304 121.746 768.214 118.666 769.224 115.226C770.204 111.886 771.244 108.376 772.354 104.686C773.474 100.946 774.524 97.4556 775.494 94.1956C776.404 91.1356 777.234 88.3956 777.964 86.0556L778.134 85.5256L778.364 85.2856C781.044 82.5056 783.174 79.1556 784.514 75.5756C786.224 71.0056 786.704 66.0456 785.894 61.2056C785.264 57.4356 783.914 53.8656 781.884 50.5956L781.834 50.5056C779.654 47.0356 776.834 44.1256 773.454 41.8556L774.154 40.6156L773.374 41.7956C768.724 38.7156 763.284 37.1256 757.654 37.2756C752.244 37.2856 747.014 38.5756 742.074 41.1156C741.714 41.2956 741.364 41.4856 741.024 41.6756L740.234 42.1056L739.504 41.5856C734.624 38.0756 728.674 35.8456 721.814 34.9656C716.104 34.2256 710.144 34.5356 704.124 35.8756C697.664 37.3256 691.664 40.0056 686.304 43.8556C685.484 44.4456 684.634 45.1056 683.644 45.9356L682.944 46.5156L682.124 46.1256C679.334 44.8056 676.424 43.7256 673.474 42.8956C667.174 41.1256 660.414 40.4856 653.324 41.0156C649.684 41.2956 646.054 41.8456 642.544 42.6756L640.524 43.1556L640.824 41.0956C641.004 39.8256 641.144 38.5856 641.234 37.4056C641.794 29.7656 640.534 23.3656 637.374 17.8356C634.064 12.0456 629.224 7.65559 623.364 5.14559C623.014 4.99559 622.664 4.85559 622.314 4.72559C616.844 2.67559 610.804 2.28559 604.834 3.62559C600.874 4.47559 597.184 6.02559 593.864 8.24559C593.704 8.34559 593.554 8.45559 593.394 8.56559C589.994 10.9456 587.104 14.0356 584.814 17.7456C582.724 21.1456 580.274 26.8256 580.474 34.5956V34.7356L580.454 34.8756C580.294 35.8056 580.104 36.7056 579.884 37.5556C579.594 38.6956 579.314 39.6956 579.014 40.6156C578.594 41.9456 578.254 43.0156 577.994 43.8456C577.474 45.4456 577.034 47.1156 576.684 48.8356C576.494 49.7756 576.324 50.7856 576.184 51.9256L575.934 53.9456L574.124 53.0156C571.204 51.5056 567.994 50.3356 564.574 49.5256C558.524 48.1056 551.884 48.2956 544.814 50.1356C540.664 51.2156 536.714 52.8656 533.074 55.0556L532.334 55.4956L531.604 55.0456C529.614 53.8256 527.514 52.7756 525.354 51.9256C519.234 49.5256 512.464 48.6556 505.484 49.3556L505.254 49.3756C497.514 50.2256 490.364 53.2456 484.604 58.1256C483.944 58.6856 483.294 59.2656 482.674 59.8756L481.944 60.5856L481.044 60.1156C480.774 59.9756 480.514 59.8456 480.244 59.7056C474.844 57.0456 468.804 55.6256 462.304 55.4856C461.174 55.4656 460.084 55.4856 458.604 55.5656L457.294 55.6356L457.124 54.3256C456.594 50.3056 455.414 46.7256 453.504 43.3856C450.234 37.6656 445.444 33.3356 439.654 30.8556C439.314 30.7056 438.974 30.5756 438.634 30.4456C433.244 28.4156 427.284 28.0256 421.404 29.3456C417.504 30.1856 413.874 31.7156 410.604 33.8956C410.444 33.9956 410.294 34.1056 410.134 34.2156C406.774 36.5656 403.934 39.6056 401.694 43.2456C399.644 46.5656 397.244 52.1056 397.404 59.6656V59.8056L397.384 59.9456C397.254 60.6856 397.094 61.4056 396.924 62.0756C396.664 63.0956 396.414 63.9856 396.154 64.8056C395.764 66.0256 395.454 67.0256 395.214 67.7856C395.154 67.9856 395.094 68.1756 395.044 68.3656L394.534 70.0956L393.204 69.7456C392.414 69.5356 391.644 69.3556 390.904 69.2156C385.454 68.1356 379.834 68.0756 374.424 69.0356C371.244 69.5956 368.114 70.4856 365.134 71.6656L364.544 71.8956L363.974 71.6156C361.834 70.5556 359.604 69.7856 357.334 69.3256C355.564 68.9656 353.744 68.7756 351.914 68.7756C348.844 68.7756 345.924 69.2556 342.974 70.2356L342.524 70.3856L342.074 70.2356C340.984 69.8656 339.854 69.5556 338.724 69.3256C336.954 68.9656 335.134 68.7756 333.304 68.7756C326.664 68.7756 320.314 71.0956 313.884 75.8756C310.784 78.1756 308.234 81.2256 306.504 84.6756C305.764 86.1656 305.004 87.9256 304.114 90.2356L303.774 91.1256L302.824 91.1456C298.414 91.2456 294.124 92.2356 290.064 94.0956L289.384 94.4056L288.744 94.0256C284.604 91.5456 279.774 89.9456 274.404 89.2556C269.204 88.5856 263.764 88.8556 258.294 90.0756C252.384 91.3956 246.894 93.8556 241.984 97.3756L241.104 98.0256L240.414 97.7956C238.384 97.1156 236.274 96.5956 234.164 96.2456C233.214 96.0956 232.224 95.9756 231.124 95.8756L230.654 95.8356L230.054 95.2856C229.834 95.0856 229.604 94.8756 229.374 94.6856C226.864 92.5656 222.604 89.7656 216.514 88.4356L215.654 88.2456L215.444 87.3956C214.804 84.8456 213.834 82.4156 212.544 80.1556C209.334 74.5456 204.624 70.2856 198.914 67.8456C198.574 67.6956 198.234 67.5656 197.894 67.4356C192.594 65.4456 186.764 65.0556 180.994 66.3356C177.194 67.1556 173.654 68.6456 170.454 70.7756C170.294 70.8856 170.144 70.9856 169.984 71.0956C166.684 73.4056 163.894 76.3856 161.694 79.9556C159.714 83.1656 157.374 88.5256 157.464 95.7956V95.9356L157.444 96.0756C157.354 96.5756 157.244 97.0656 157.124 97.5356C156.944 98.2556 156.754 98.9056 156.564 99.5156L156.294 100.416L155.364 100.516C152.354 100.836 149.354 101.476 146.454 102.416C142.524 103.686 138.724 105.506 135.144 107.806C134.974 107.916 134.804 108.026 134.634 108.146L133.724 108.756L132.684 108.256C132.444 108.136 132.194 108.016 131.944 107.906C127.624 105.996 122.924 104.816 117.964 104.386C117.784 104.376 117.604 104.356 117.434 104.346C112.594 104.036 107.754 104.496 103.114 105.706C99.1141 106.756 95.324 108.236 91.854 110.116C89.294 111.496 86.884 113.096 84.674 114.856L84.244 115.196L83.6941 115.166C79.8741 114.916 75.9941 115.446 72.2541 116.736C70.8341 117.226 69.4241 117.826 68.0741 118.536L67.3341 118.926L66.634 118.466C62.724 115.856 58.4341 114.086 53.8841 113.186C48.8641 112.196 43.6941 112.146 38.7141 113.026C34.0541 113.846 29.5841 115.416 25.4341 117.676C21.5941 119.776 18.2041 122.286 15.3541 125.136C12.3341 128.156 9.80405 131.656 7.83405 135.526C6.30405 138.536 5.12405 141.556 4.30405 144.516C3.20405 148.506 2.76405 152.206 2.94405 155.826C3.22405 161.206 4.98405 166.256 8.03405 170.426L8.41405 170.946L8.27405 171.576C7.72405 174.066 7.38405 176.596 7.26405 179.106C7.04405 183.726 7.54405 188.266 8.75405 192.606C10.2741 198.026 12.8641 202.826 16.4541 206.886C17.1041 207.616 17.7941 208.316 18.5241 208.966C22.0041 212.056 25.9641 214.306 30.3041 215.656C34.5541 217.026 39.1141 217.416 43.8041 216.816C45.9641 216.546 48.1241 216.006 50.2341 215.226L50.8641 214.996L50.8041 214.956Z" fill="var(--fill-0, black)"/>
</g>
</svg>
