<svg preserveAspectRatio="none" width="100%" height="100%" overflow="visible" style="display: block;" viewBox="0 0 558.909 212" fill="none" xmlns="http://www.w3.org/2000/svg">
<g id="wfh">
<path id="Vector" d="M63.17 33.817L63.6658 35.1878C64.2465 35.3715 64.8555 35.5128 65.4645 35.6117C66.0877 35.7106 66.6543 35.7954 67.2067 35.852L122.955 102.016L124.796 101.748C124.839 102.242 124.881 102.723 124.924 103.161C124.952 103.599 124.995 104.08 125.037 104.574L128.011 107.966L125.476 110.622C125.589 112.389 125.717 114.184 125.873 116.007C126.014 117.83 126.142 119.624 126.269 121.391L126.241 136.907C126.751 137.246 127.232 137.586 127.686 137.939C128.139 138.292 128.564 138.66 128.96 139.027L129.329 140.059C129.215 140.101 129.13 140.059 129.088 139.946L128.535 141.119L129.569 140.751L134.399 156.254L134.258 157.469C126.822 152.65 122.261 147.195 120.575 141.076C120.009 140.242 119.287 139.211 118.394 137.981C117.502 136.752 116.581 135.466 115.646 134.123C114.712 132.781 113.805 131.523 112.927 130.35C112.049 129.177 111.284 128.202 110.604 127.411C110.76 127.482 110.902 127.524 111.043 127.538C111.171 127.552 111.327 127.595 111.482 127.665C111.44 127.552 111.383 127.482 111.298 127.439C111.213 127.411 111.157 127.326 111.114 127.213L114.003 125.008L118.352 130.039C118.04 129.898 117.771 129.771 117.53 129.658C117.304 129.545 117.02 129.418 116.709 129.276L116.595 129.516C116.907 129.672 117.233 129.841 117.559 130.039C117.899 130.237 118.267 130.393 118.692 130.506L119.995 131.975C120.49 131.933 120.802 131.876 120.915 131.834C122.445 132.837 123.521 133.869 124.173 134.929C124.527 135.183 124.796 135.409 124.995 135.593C125.193 135.777 125.391 135.975 125.589 136.158C125.561 135 125.519 133.827 125.476 132.611C125.434 131.41 125.448 130.195 125.533 129.008C125.547 127.976 125.547 126.902 125.533 125.814C125.533 124.726 125.533 123.652 125.533 122.62L125.419 122.846C125.065 121.165 124.725 119.483 124.371 117.801C124.017 116.12 123.677 114.438 123.323 112.756L110.25 126.563L63.9207 51.0011C62.561 50.4641 61.088 49.8847 59.5158 49.2912C57.9436 48.6976 56.3148 48.0476 54.6435 47.3551C52.9722 46.6627 51.3009 46.0126 49.6579 45.3767C48.0007 44.7408 46.3577 44.1331 44.7289 43.5678L38.9643 44.2886L40.7064 44.8256L89.1462 191.314L85.7753 192.727L0 32.1495L37.6754 43.9777L38.5394 41.5329L38.8368 41.8155L39.1343 42.0982L40.5081 41.6035C40.239 41.5753 39.9841 41.5046 39.7575 41.3916C39.5167 41.2785 39.3326 41.1937 39.1768 41.1231L63.1559 33.8594L63.17 33.817ZM124.626 185.69L124.81 186.198C124.895 186.425 125.037 186.637 125.235 186.82L123.422 186.114L123.252 186.17L122.955 185.888L122.898 185.718L113.04 167.559L116.355 165.976C117.672 169.255 119.003 172.519 120.377 175.769C121.751 179.02 123.139 182.27 124.57 185.492L124.98 185.534L124.64 185.661L124.626 185.69ZM130.618 180.249C130.419 181.478 130.249 182.637 130.122 183.725C129.994 184.799 129.81 185.902 129.569 187.018L126.057 187.513L124.825 184.658L130.603 180.249H130.618ZM134.229 157.441C134.343 157.398 134.456 157.441 134.541 157.525C134.64 157.624 134.767 157.709 134.923 157.78L134.371 156.239L138.436 135.791C138.847 141.966 139.286 148.085 139.711 154.12C140.15 160.168 140.631 166.259 141.169 172.392L130.618 180.263C131.184 176.829 131.736 173.409 132.246 169.989C132.756 166.57 133.266 163.235 133.762 159.956L134.215 157.469L134.229 157.441ZM118.309 130.039C119.4 130.548 120.122 130.944 120.476 131.198C120.83 131.452 120.972 131.664 120.901 131.82C120.236 131.41 119.499 130.972 118.677 130.492L118.323 130.039H118.309ZM129.3 140.03C129.499 140.214 129.64 140.327 129.711 140.37C129.782 140.412 129.853 140.483 129.895 140.596L129.555 140.723L129.3 140.03ZM154.243 12.8739L154.852 16.7177C155.475 17.0145 156.07 17.3113 156.636 17.6222C157.203 17.933 157.741 18.2581 158.251 18.5972L219.835 89.637L219.778 89.4674C219.254 85.1431 218.857 81.1156 218.616 77.3848C218.376 73.6682 218.248 70.3756 218.262 67.5351L218.319 67.7047C218.177 65.1751 217.639 62.589 216.69 59.9605C216.279 58.8159 215.77 57.6147 215.189 56.3287C214.594 55.0569 213.942 53.7709 213.22 52.4849L216.421 51.1424C218.517 58.3919 220.684 66.0089 222.922 73.9933C225.16 81.9776 227.285 89.6652 229.324 97.0702C226.137 97.5648 224.778 98.8367 225.259 100.858C225.472 101.818 225.698 102.709 225.925 103.528C226.152 104.348 226.364 105.182 226.534 106.016C226.69 106.086 226.704 106.143 226.591 106.185C226.647 106.68 226.718 107.174 226.831 107.655C226.945 108.135 227.001 108.559 227.001 108.941C227.653 110.382 228.248 111.781 228.8 113.138C229.353 114.495 229.82 115.682 230.188 116.713C230.429 117.406 230.684 118.183 230.939 119.059C231.194 119.935 231.406 120.797 231.576 121.631L228.545 122.917C223.191 114.904 217.243 107.415 210.727 100.462C204 93.3253 198.716 84.7616 194.85 74.7846C188.745 69.3581 182.627 63.9739 176.48 58.618C170.332 53.2621 164.228 47.878 158.123 42.4514L155.546 38.537C155.546 38.9185 155.546 39.2153 155.475 39.4273C155.418 39.6392 155.376 39.8795 155.347 40.148C154.398 39.3283 153.492 38.4946 152.6 37.6467C151.707 36.7988 150.716 35.9368 149.611 35.0323L149.852 35.1454C149.144 34.6225 148.407 34.1138 147.642 33.6192C146.877 33.1246 146.013 32.5876 145.036 32.0364L154.682 45.8148C154.724 45.9278 154.823 46.0267 154.979 46.0974C154.696 48.528 154.441 50.351 154.243 51.5946C154.044 52.8241 153.917 53.5872 153.888 53.8557L138.422 135.749C137.345 121.673 136.24 107.598 135.122 93.5373C133.988 79.4763 132.912 65.4719 131.878 51.4957L134.612 42.9602C135.221 42.8754 135.731 42.7482 136.141 42.6069L137.26 42.2112C140.815 40.9394 142.529 36.8977 142.402 30.1004C140.674 28.9133 138.889 27.7121 137.034 26.511C135.178 25.3098 133.408 24.1651 131.722 23.0911L131.85 23.4303L131.326 23.0346L131.368 24.7586C131.099 24.7304 130.802 24.6456 130.49 24.4901C130.178 24.3488 129.881 24.2499 129.612 24.2216L131.312 23.0204L130.193 22.0736C129.796 21.7062 129.428 21.3812 129.074 21.1127C128.72 20.8583 128.309 20.6181 127.841 20.392L154.243 12.8315V12.8739ZM120.689 85.0018C121.581 80.296 122.36 76.1978 123.054 72.7214C123.748 69.245 124.343 66.0937 124.881 63.2532C125.405 60.4127 125.929 57.7419 126.453 55.2264C126.963 52.711 127.502 50.0684 128.054 47.2845C128.606 44.5005 129.215 41.4481 129.881 38.0989C130.547 34.7638 131.297 30.807 132.105 26.2566C133.549 27.0338 134.767 27.698 135.731 28.2491C136.708 28.8003 137.784 29.4503 138.96 30.1852L134.64 42.9743C134.144 43.0308 133.606 43.0874 133.054 43.158C132.501 43.2287 131.906 43.3135 131.297 43.3983C131.411 44.7832 131.51 46.1257 131.595 47.454C131.68 48.7824 131.779 50.1249 131.892 51.5098L120.689 84.9877V85.0018ZM154.993 46.1257C155.092 45.3202 155.163 44.4157 155.191 43.4407C155.22 42.4656 155.291 41.3774 155.376 40.1762C155.885 40.5154 156.339 40.897 156.764 41.3209C157.174 41.759 157.642 42.1405 158.152 42.4656L178.377 73.7389C174.412 69.2168 170.517 64.6805 166.664 60.1301C162.812 55.5797 158.931 50.9022 154.993 46.1115V46.1257ZM178.377 73.753C183.774 80.084 189.085 86.3726 194.326 92.6188C199.566 98.8791 204.835 105.139 210.147 111.442C215.458 117.731 220.812 124.048 226.208 130.364C231.605 136.695 237.114 143.168 242.737 149.795L243.686 167.474L240.4 168.068L233.871 148.905C233.063 148.806 232.341 148.707 231.718 148.608C231.095 148.509 230.301 148.368 229.338 148.198C228.956 148.594 228.63 149.004 228.333 149.428C228.035 149.852 227.823 150.092 227.71 150.135L178.363 73.7248L178.377 73.753ZM221.902 100.73C221.478 99.2041 221.095 97.5083 220.741 95.6288C220.387 93.7493 220.118 92.0111 219.92 90.4001L218.347 92.5198C216.407 91.7991 215.26 91.5024 214.92 91.6154C214.806 91.6578 215.246 92.534 216.251 94.2298C217.625 96.9713 219.537 99.5715 221.987 102.045L221.86 101.705L225.075 100.942L221.888 100.73H221.902ZM245.882 141.316C246.873 144.439 247.879 147.633 248.856 150.898C249.833 154.162 250.825 157.356 251.83 160.479C250.286 158.712 248.757 156.904 247.255 155.052C245.74 153.201 244.239 151.449 242.737 149.795L239.621 94.9222L245.882 141.302V141.316ZM212.71 47.8497C212.271 44.1331 211.676 40.148 210.926 35.9085C210.203 31.3864 210.005 27.9806 210.331 25.6631C210.175 24.1651 210.076 22.7237 210.019 21.3246C209.962 19.9256 210.019 18.5407 210.175 17.1982L213.574 16.9438L221.662 50.0684C216.917 51.2555 213.957 50.775 212.781 48.6128L212.71 47.8639V47.8497ZM224.353 1.62514C222.951 2.38825 221.577 3.17962 220.245 3.97099C218.914 4.77649 217.526 5.49721 216.081 6.14726L216.209 6.48642L211.648 8.90293C211.605 10.2172 211.591 11.5032 211.591 12.7891C211.591 14.0751 211.563 15.3187 211.478 16.5058L209.807 14.5838C209.538 14.5556 209.424 14.7958 209.481 15.2904C209.538 12.9446 209.141 10.0476 208.291 6.61361H208.872L208.461 3.84381L213.418 3.60357C214.608 3.3068 215.585 3.0807 216.379 2.92525C217.172 2.7698 217.951 2.61435 218.744 2.4589C219.523 2.30346 220.344 2.14801 221.18 1.9643C222.03 1.79472 223.007 1.63927 224.112 1.48382L224.339 1.59688L224.353 1.62514ZM239.621 94.9363L229.891 22.2997L229.947 22.4693C229.324 19.3321 228.673 16.2514 227.964 13.2131C227.256 10.1748 226.591 7.09408 225.982 3.94273L224.551 0L234.409 3.63183L239.621 94.9505V94.9363Z" fill="var(--fill-0, #FF6602)"/>
<path id="Vector_2" d="M287.35 38.595L299.719 1.28485L303.174 2.02226L300.085 29.4624L307.729 28.9094L378.67 36.9642L378.303 40.4385L299.719 33.8585L282.259 191.338C282.992 191.579 283.81 191.792 284.713 191.976C285.629 192.161 286.193 192.317 286.447 192.43L258.255 212L287.364 38.6092L287.35 38.595ZM303.527 189.863C303.893 177.427 304.26 165.018 304.613 152.638C304.979 140.258 305.402 127.85 305.882 115.413L383.183 119.072V114.86L386.088 115.413L386.638 128.034L310.423 136.628C309.45 148.214 308.392 160.013 307.236 172.024C306.079 184.035 304.965 195.89 303.865 207.604C302.046 206.753 300.325 205.987 298.675 205.321C297.039 204.654 295.459 203.974 293.95 203.307C292.427 202.641 290.89 201.96 289.31 201.293C287.731 200.627 286.038 199.918 284.219 199.195C284.092 198.344 284.036 197.635 284.036 197.096C284.036 196.557 283.979 195.905 283.852 195.181L303.498 189.878L303.527 189.863ZM306.263 61.8234C306.502 65.8508 306.714 69.9633 306.897 74.1751C307.081 78.3868 307.292 82.556 307.532 86.7111C306.926 82.5702 306.347 78.4577 305.797 74.3594C305.247 70.2753 304.613 66.1061 303.879 61.8376H306.249L306.263 61.8234ZM306.263 61.8234C306.136 60.6039 306.051 59.3559 305.995 58.0797C305.938 56.8034 305.91 55.5554 305.91 54.3359L352.48 60.7315L306.277 61.8234H306.263ZM308.449 104.622C308.322 101.7 308.181 98.7365 307.997 95.7443C307.814 92.7521 307.659 89.7458 307.546 86.6969C307.786 88.7673 308.096 90.8093 308.449 92.823C308.815 94.8367 309.112 96.9355 309.365 99.1336C309.845 99.871 310.296 100.594 310.733 101.332C311.171 102.069 311.551 102.863 311.918 103.714L308.463 104.636L308.449 104.622ZM385.383 109.018L388.302 115.782L386.116 115.413C386.116 114.562 386.088 113.74 386.032 112.946C385.961 112.152 385.933 111.329 385.933 110.478L383.93 108.28V108.465L383.38 108.096V111.485C383.38 112.648 383.324 113.768 383.197 114.874L312.44 102.253L312.976 98.5947L318.617 99.1478L383.197 104.083L383.564 104.636L384.466 103.714L388.105 106.281L386.836 109.202L385.383 109.018ZM389.755 56.1652C389.755 56.0518 389.811 55.8958 389.938 55.7114C390.051 55.5271 390.178 55.3711 390.305 55.2576L391.941 54.3359C392.42 54.9457 392.914 55.4987 393.394 55.9809C392.914 57.6968 392.449 59.3701 392.026 61.0151C391.602 62.6601 391.137 64.3335 390.658 66.0494L352.451 60.7457L380.827 60.0083L388.824 55.9809L389.741 56.1652H389.755ZM391.941 54.3217C391.814 54.2083 391.701 54.109 391.574 54.0523C391.447 53.9955 391.335 53.8963 391.208 53.7828C390.841 54.1515 390.545 54.6337 390.291 55.2435L388.838 55.9809L370.461 52.3222L370.828 48.8478L395.382 49.2165L393.93 50.4928L397.018 51.7691L391.927 54.3359L391.941 54.3217Z" fill="var(--fill-0, #FF6602)"/>
<path id="Vector_3" d="M416.099 156.789L412.436 156.238L429.642 35.0598L432.566 17.9363L436.229 18.4873L416.085 156.789H416.099ZM420.301 175.198H419.932C420.301 173.616 420.698 172.076 421.124 170.55C421.55 169.038 421.948 167.541 422.317 166.085L425.61 166.99C425.241 168.332 424.915 169.603 424.602 170.818C424.29 172.033 423.963 173.376 423.594 174.831L448.678 172.274L431.658 186.303L422.87 178.646V178.829C422.501 178.462 422.047 178.066 421.493 177.642C420.94 177.219 420.485 176.879 420.116 176.639L420.301 176.456L419.023 175.368L420.301 175.184V175.198ZM437.691 10.2788L453.988 18.12L458.019 20.3099L461.497 25.5938L466.437 71.3271L452.895 78.4336L530.163 86.0911C530.035 86.3313 529.978 86.5715 529.978 86.8258L522.468 87.5605V90.1177L459.297 96.8569C458.573 108.64 457.806 120.423 457.011 132.206C456.216 143.989 455.464 155.715 454.726 167.371L449.232 171.92C450.581 157.594 451.943 143.099 453.349 128.462C454.754 113.825 456.117 99.3435 457.466 85.0033L451.787 78.9846L450.879 79.5356L446.123 19.773C445.144 20.5077 444.022 21.2988 442.73 22.1465C441.453 22.9942 440.445 23.6018 439.707 23.9691L437.691 10.307V10.2788ZM449.232 172.274H448.678L449.232 171.906V172.274ZM538.212 102.664L538.581 111.593C534.549 110.858 530.617 110.137 526.77 109.403C522.923 108.668 519.047 108.004 515.143 107.397L515.328 103.751L538.212 102.664ZM547.183 31.0474L553.231 34.6925L556.709 38.5212L558.909 161.522L553.784 166.255C552.564 160.547 551.343 154.839 550.122 149.132C548.901 143.424 547.623 137.716 546.275 132.008L550.846 113.783C549.384 113.542 547.893 113.302 546.36 113.048C544.827 112.808 543.336 112.497 541.874 112.144C541.022 107.891 540.1 103.667 539.134 99.4848C538.155 95.2887 537.175 91.0784 536.21 86.8258L542.442 87.3768C541.959 84.5794 541.519 82.1211 541.164 80.0019C540.795 77.8826 540.426 75.7775 540.071 73.7148C539.702 71.652 539.333 69.5187 538.978 67.3429C538.609 65.153 538.183 62.5393 537.701 59.5017L533.669 74.0821C532.931 71.0445 532.235 67.9504 531.568 64.7857C530.901 61.6351 530.191 58.5269 529.467 55.4893L529.282 40.372L525.989 31.994L547.226 31.0756L547.183 31.0474ZM530.163 86.0911C530.645 84.1556 531.199 82.1776 531.809 80.1714C532.42 78.1652 533.03 76.1307 533.641 74.068L536.21 86.8258L530.163 86.0911ZM536.196 172.825L535.827 171.369L536.38 171.553L539.858 157.891L540.227 169.731L539.858 172.457L545.537 173.913L542.428 177.007L538.027 180.652L536.196 173.362V172.811V172.825ZM538.581 111.593C539.063 111.72 539.617 111.805 540.227 111.861C540.838 111.918 541.391 112.017 541.874 112.13C542.612 115.407 543.336 118.713 544.074 122.062C544.798 125.41 545.537 128.716 546.275 131.994L539.872 157.863L538.595 111.579L538.581 111.593ZM553.784 166.255C554.267 168.078 554.707 169.844 555.062 171.539C555.431 173.249 555.8 174.944 556.155 176.639L545.537 173.913L553.77 166.255H553.784Z" fill="var(--fill-0, #FF6602)"/>
</g>
</svg>
