<svg preserveAspectRatio="none" width="100%" height="100%" overflow="visible" style="display: block;" viewBox="0 0 39.5611 25.3725" fill="none" xmlns="http://www.w3.org/2000/svg">
<g id="Group">
<path id="Vector" d="M36.352 2.39247C36.712 2.43247 37.062 2.54247 37.402 2.75247C37.742 2.95247 38.052 3.21247 38.332 3.52247C38.612 3.83247 38.8121 4.18246 38.9421 4.59246C39.0621 4.99246 39.072 5.43247 38.952 5.91247C38.892 6.17247 38.6821 6.66247 38.3221 7.39247C37.9621 8.12247 37.512 8.99247 36.962 10.0025C36.412 11.0125 35.812 12.1025 35.162 13.2725C34.512 14.4425 33.8521 15.6025 33.1821 16.7725C32.5121 17.9425 31.8621 19.0525 31.2421 20.1125C30.6221 21.1725 30.072 22.0725 29.602 22.8025C29.472 23.0125 29.322 23.2725 29.152 23.5725C28.982 23.8725 28.8021 24.1425 28.6121 24.3825C28.4221 24.6225 28.252 24.7825 28.102 24.8625C27.952 24.9425 27.8121 24.8825 27.6821 24.6825C27.5921 24.5225 27.5021 24.3825 27.4221 24.2625C27.3421 24.1425 27.2421 23.9825 27.1121 23.7825C25.3421 20.6225 23.402 17.8425 21.272 15.4425C19.142 13.0425 17.1521 11.1125 15.3021 9.64247C13.4521 8.17247 11.882 7.21246 10.602 6.76246C9.32205 6.32246 8.64208 6.48246 8.57208 7.26246C8.50208 8.04246 8.82205 8.93246 9.54205 9.93246C10.262 10.9425 11.172 11.9725 12.262 13.0325C13.352 14.0925 14.552 15.1225 15.852 16.1325C17.152 17.1425 18.3621 18.0125 19.4921 18.7625C20.5821 19.5025 21.352 20.2025 21.792 20.8725C22.242 21.5325 22.512 22.1325 22.602 22.6625C22.692 23.2325 22.602 23.7625 22.342 24.2625C19.472 23.6425 16.8321 22.5825 14.4421 21.0925C12.0521 19.6025 9.93204 17.9525 8.09204 16.1525C6.25204 14.3425 4.73203 12.5325 3.52203 10.7125C2.31203 8.89247 1.44204 7.36247 0.912043 6.11247C0.382043 4.83247 0.312021 3.75246 0.702021 2.87246C1.09202 1.99246 1.83204 1.36247 2.91204 0.962474C4.00204 0.562474 5.36202 0.452468 7.01202 0.612468C8.66202 0.772468 10.482 1.27247 12.462 2.10247C14.242 2.84247 15.942 3.84247 17.582 5.10247C19.222 6.36247 20.7121 7.73247 22.0621 9.19247C23.4121 10.6525 24.6121 12.1125 25.6721 13.5825C26.7321 15.0525 27.5521 16.3525 28.1321 17.4925C28.4021 16.5525 28.7121 15.4825 29.0521 14.2825C29.4021 13.0825 29.762 11.9025 30.142 10.7225C30.522 9.55247 30.902 8.44247 31.292 7.42247C31.682 6.39247 32.022 5.60247 32.332 5.03247C32.802 4.22247 33.272 3.63246 33.722 3.26246C34.172 2.89246 34.602 2.64247 35.012 2.49247C35.462 2.35247 35.8921 2.32246 36.3221 2.40246L36.352 2.39247Z" fill="var(--fill-0, #FF6602)"/>
<path id="Vector_2" d="M27.9921 25.3725C27.7521 25.3725 27.482 25.2525 27.282 24.9225C27.182 24.7625 27.102 24.6325 27.032 24.5125C26.952 24.3925 26.8421 24.2225 26.7221 24.0225C24.9621 20.8825 23.0221 18.1025 20.9321 15.7525C18.8321 13.3925 16.842 11.4525 15.022 10.0125C13.222 8.58247 11.6921 7.64248 10.4721 7.22248C9.53205 6.89248 9.24203 7.03247 9.20203 7.06247C9.18203 7.07247 9.12207 7.11247 9.11207 7.29247C9.05207 7.94247 9.35207 8.73247 9.99207 9.62247C10.6921 10.6025 11.5921 11.6225 12.6621 12.6525C13.7421 13.6925 14.932 14.7225 16.212 15.7125C17.492 16.7025 18.7121 17.5825 19.8121 18.3225C20.9721 19.1125 21.7721 19.8425 22.2521 20.5625C22.7321 21.2725 23.032 21.9425 23.142 22.5425C23.252 23.2325 23.142 23.8725 22.832 24.4625L22.652 24.7925L22.282 24.7125C19.362 24.0825 16.6521 22.9925 14.2221 21.4825C11.8121 19.9825 9.64205 18.2925 7.78205 16.4725C5.92205 14.6525 4.36204 12.7925 3.15204 10.9525C1.93204 9.11247 1.04208 7.54248 0.502081 6.27248C-0.0879195 4.86248 -0.157941 3.63248 0.292059 2.63248C0.742059 1.63248 1.58206 0.902471 2.79206 0.452471C3.94206 0.0324708 5.40207 -0.0975189 7.11207 0.0724811C8.80207 0.242481 10.682 0.75248 12.712 1.60248C14.512 2.35248 16.2821 3.38247 17.9421 4.67247C19.5921 5.94247 21.1221 7.34247 22.4821 8.81247C23.8421 10.2825 25.0621 11.7725 26.1321 13.2525C26.8821 14.2925 27.522 15.2625 28.032 16.1525C28.212 15.5225 28.4121 14.8325 28.6221 14.1025C28.9721 12.9025 29.3321 11.7125 29.7221 10.5325C30.1021 9.35247 30.4921 8.23248 30.8821 7.21248C31.2721 6.17248 31.6321 5.34247 31.9421 4.76247C32.4621 3.87247 32.952 3.25247 33.452 2.84247C33.942 2.44247 34.432 2.15248 34.892 1.99248C35.422 1.82248 35.9421 1.78247 36.4421 1.87247C36.8621 1.92247 37.2821 2.06247 37.6821 2.29247C38.0621 2.52247 38.4221 2.81247 38.7321 3.15247C39.0621 3.51247 39.3021 3.93248 39.4421 4.41248C39.5921 4.90248 39.602 5.43248 39.462 5.99248C39.422 6.18248 39.3021 6.54248 38.8021 7.57248C38.4421 8.31248 37.9821 9.18247 37.4321 10.2025C36.8821 11.2125 36.2821 12.3025 35.6321 13.4725C34.9821 14.6425 34.312 15.8125 33.642 16.9725C32.972 18.1425 32.322 19.2525 31.702 20.3125C31.072 21.3725 30.5221 22.2825 30.0621 23.0225C29.9421 23.2225 29.7921 23.4725 29.6221 23.7725C29.4321 24.0925 29.2421 24.3825 29.0521 24.6425C28.8121 24.9525 28.5921 25.1525 28.3721 25.2625C28.2721 25.3125 28.142 25.3525 28.022 25.3525L27.9921 25.3725ZM9.46204 6.00247C9.83204 6.00247 10.262 6.09248 10.782 6.27248C12.112 6.73248 13.7421 7.73247 15.6321 9.23247C17.5021 10.7125 19.5321 12.6825 21.6621 15.0925C23.8021 17.5025 25.7921 20.3325 27.5721 23.5225C27.6821 23.6925 27.7821 23.8525 27.8621 23.9725C27.9221 24.0625 27.9821 24.1625 28.0521 24.2725C28.1021 24.2225 28.1621 24.1525 28.2321 24.0625C28.4021 23.8325 28.5721 23.5825 28.7321 23.3025C28.9021 23.0025 29.0621 22.7425 29.1921 22.5225C29.6621 21.7825 30.2021 20.8825 30.8221 19.8325C31.4421 18.7725 32.092 17.6625 32.762 16.5025C33.432 15.3425 34.0921 14.1725 34.7421 13.0125C35.3921 11.8425 35.992 10.7625 36.532 9.75247C37.072 8.75247 37.5221 7.88248 37.8821 7.16248C38.3221 6.25248 38.442 5.91247 38.472 5.79247C38.572 5.40247 38.562 5.05248 38.472 4.74248C38.372 4.41248 38.202 4.11247 37.972 3.86247C37.732 3.59247 37.452 3.37248 37.152 3.19248C36.872 3.02248 36.5921 2.93247 36.3021 2.90247H36.262C35.912 2.83247 35.5621 2.85248 35.1921 2.97248C34.8521 3.09248 34.4621 3.32247 34.0621 3.65247C33.6621 3.98247 33.2321 4.53247 32.7921 5.28247C32.5021 5.81247 32.1721 6.59247 31.7921 7.59247C31.4121 8.60247 31.032 9.70247 30.652 10.8725C30.272 12.0425 29.9121 13.2225 29.5621 14.4125C29.2121 15.6125 28.912 16.6825 28.642 17.6225L28.2921 18.8425L27.712 17.7125C27.142 16.5925 26.3321 15.3025 25.2921 13.8625C24.2521 12.4225 23.0521 10.9525 21.7221 9.52248C20.4021 8.09248 18.9121 6.73248 17.3021 5.49248C15.7021 4.26248 14.0221 3.27247 12.2921 2.56247C10.3621 1.75247 8.57206 1.26248 6.98206 1.10248C5.41206 0.94248 4.11206 1.05247 3.10206 1.42247C2.14206 1.77247 1.51206 2.31247 1.17206 3.06247C0.842063 3.80247 0.912034 4.76248 1.39203 5.91248C1.91203 7.12248 2.77204 8.64247 3.96204 10.4225C5.14204 12.2025 6.65204 14.0025 8.46204 15.7825C10.272 17.5525 12.3721 19.1925 14.7321 20.6625C16.9521 22.0425 19.4221 23.0525 22.0721 23.6725C22.1621 23.3725 22.1821 23.0625 22.1321 22.7325C22.0521 22.2825 21.802 21.7425 21.402 21.1425C20.992 20.5425 20.2621 19.8725 19.2321 19.1725C18.1121 18.4225 16.8721 17.5325 15.5721 16.5225C14.2621 15.5125 13.0421 14.4525 11.9421 13.3825C10.8321 12.3025 9.89205 11.2425 9.16205 10.2125C8.37205 9.11248 8.01206 8.10247 8.10206 7.20247C8.15206 6.65247 8.43204 6.36248 8.65204 6.22248C8.87204 6.08248 9.14205 6.00247 9.47205 6.00247H9.46204Z" fill="var(--fill-0, black)"/>
</g>
</svg>
