<svg preserveAspectRatio="none" width="100%" height="100%" overflow="visible" style="display: block;" viewBox="0 0 78.1744 76.0441" fill="none" xmlns="http://www.w3.org/2000/svg">
<g id="Group">
<path id="Vector" d="M74.8777 2.61413C75.7477 3.33413 76.2877 3.99413 76.4977 4.58413C76.6977 5.17413 76.7777 5.67414 76.7277 6.09414C76.6277 6.61414 76.3877 7.04413 76.0377 7.40413C75.1077 7.35413 73.9577 7.45413 72.5677 7.71413C71.3877 7.92413 69.8777 8.25413 68.0477 8.71413C66.2177 9.17413 63.9977 9.92414 61.3677 10.9541C59.4077 11.6741 57.3777 12.5641 55.2677 13.6141C53.1577 14.6741 51.1277 15.7341 49.1677 16.8141C47.2077 17.8941 45.4277 18.9341 43.7977 19.9441C42.1777 20.9441 40.8477 21.7841 39.8177 22.4541C40.0277 22.8141 40.3477 23.2541 40.7877 23.7641C41.2277 24.2841 41.6377 24.9841 42.0277 25.8841C42.4177 26.7841 42.7077 27.9041 42.9177 29.2441C43.1277 30.5841 43.0977 32.2541 42.8377 34.2641C42.7377 35.2941 42.5377 36.4741 42.2577 37.8141C41.9777 39.1541 41.6377 40.5841 41.2577 42.0941C40.8677 43.6141 40.4577 45.1741 40.0277 46.7641C39.5877 48.3641 39.1377 49.9041 38.6777 51.3941C37.6477 54.9441 36.4877 58.6241 35.2077 62.4341C34.8477 63.5641 34.4377 64.6741 33.9677 65.7541C33.5077 66.8341 32.9477 67.8641 32.3077 68.8441C31.6677 69.8241 30.9177 70.7141 30.0677 71.5041C29.2177 72.3041 28.2277 72.9541 27.0977 73.4741C26.1177 73.9341 25.0677 74.2641 23.9277 74.4441C22.7977 74.6241 21.6777 74.6641 20.5677 74.5641C19.4577 74.4641 18.3977 74.1741 17.3677 73.7141C16.3377 73.2541 15.4377 72.6041 14.6677 71.7841C13.1777 70.1941 12.1477 68.2641 11.5777 65.9941C11.0077 63.7341 10.7577 61.5441 10.8077 59.4341C10.8577 56.1941 11.3777 52.9841 12.3477 49.8241C13.3277 46.6541 14.6877 43.7141 16.4377 40.9841C18.3377 38.0041 19.7177 35.4941 20.5677 33.4541C21.4177 31.4241 21.8677 29.7741 21.9177 28.5141C21.9677 27.2541 21.6977 26.3141 21.1077 25.6941C20.5177 25.0741 19.7277 24.6941 18.7577 24.5341C16.7977 24.1741 15.0777 24.5741 13.5877 25.7341C12.0977 26.8941 10.9077 28.5741 10.0377 30.7941C9.62769 31.9241 9.03769 32.7641 8.25769 33.3041C7.48769 33.8441 6.73769 34.2441 6.01769 34.5041C5.13769 34.7641 4.23769 34.8641 3.31769 34.8141C2.64769 34.7641 2.13768 34.4041 1.77768 33.7341C1.62768 33.4241 1.51769 33.0941 1.46769 32.7341C1.25769 30.7241 1.51769 28.7841 2.23769 26.9041C2.95769 25.0241 3.98769 23.3041 5.32769 21.7341C6.66769 20.1641 8.23769 18.8041 10.0377 17.6441C11.8377 16.4841 13.6877 15.5941 15.5977 14.9841C17.4977 14.3641 19.3777 14.0541 21.2377 14.0541C23.0977 14.0541 24.7677 14.4641 26.2577 15.2941C28.7277 16.6341 30.3477 18.3541 31.1177 20.4641C32.2977 19.2241 34.2677 17.6941 37.0277 15.8741C39.7777 14.0441 43.1377 11.9741 47.0977 9.66413C50.4977 7.70413 53.6977 6.11413 56.7077 4.87413C59.7177 3.63413 62.4277 2.73413 64.8477 2.17413C67.2677 1.60413 69.3377 1.36413 71.0577 1.44413C72.7777 1.52413 74.0577 1.92413 74.8777 2.64413V2.61413ZM34.2677 34.8041C34.5777 33.0041 34.6677 31.5241 34.5377 30.3641C34.4077 29.2041 34.1677 28.2641 33.8077 27.5441C33.4477 26.8241 33.0477 26.2941 32.6077 25.9641C32.1677 25.6341 31.7977 25.4141 31.4877 25.3041C31.1777 27.5141 30.4277 29.9341 29.2477 32.5641C28.0677 35.1941 26.6477 38.0441 24.9977 41.1341C23.3477 44.2241 22.1677 46.9141 21.4477 49.2041C20.7277 51.4941 20.2377 53.4141 19.9777 54.9541C19.6677 56.7541 19.6177 58.3041 19.8277 59.5841C20.2377 61.3841 20.7677 62.5341 21.4077 63.0241C22.0477 63.5141 22.6777 63.6841 23.2977 63.5241C24.0677 63.3741 24.8677 62.8841 25.6877 62.0541C27.0277 58.5541 28.2577 55.1541 29.3977 51.8641C30.3777 48.9841 31.3277 45.9941 32.2577 42.9041C33.1877 39.8141 33.8577 37.1141 34.2677 34.7941V34.8041Z" fill="var(--fill-0, white)"/>
<path id="Vector_2" d="M21.7777 76.0341C21.3277 76.0341 20.8777 76.0141 20.4377 75.9741C19.1777 75.8541 17.9577 75.5341 16.7877 75.0041C15.5877 74.4641 14.5277 73.7041 13.6377 72.7541C11.9877 70.9841 10.8277 68.8341 10.2077 66.3341C9.61768 63.9641 9.33769 61.6341 9.39769 59.3941C9.44769 56.0441 9.98769 52.6841 11.0077 49.4041C12.0177 46.1341 13.4477 43.0441 15.2577 40.2141C17.1077 37.3141 18.4577 34.8541 19.2777 32.9041C20.0577 31.0341 20.4777 29.5341 20.5177 28.4541C20.5377 27.8641 20.4877 27.0841 20.0977 26.6741C19.7277 26.2841 19.2177 26.0441 18.5477 25.9341C16.9577 25.6441 15.6377 25.9341 14.4677 26.8541C13.1877 27.8441 12.1377 29.3441 11.3677 31.3141C10.8677 32.6841 10.0977 33.7541 9.08767 34.4641C8.20767 35.0741 7.34769 35.5341 6.50769 35.8341C5.40769 36.1641 4.33768 36.2841 3.24768 36.2241C2.06768 36.1341 1.11769 35.4841 0.537686 34.3941C0.297686 33.9141 0.147679 33.4241 0.0776791 32.9141C-0.152321 30.6441 0.127685 28.4641 0.927685 26.3841C1.69769 24.3641 2.81769 22.4841 4.25769 20.8041C5.67769 19.1341 7.36768 17.6641 9.27768 16.4441C11.1677 15.2241 13.1477 14.2741 15.1677 13.6241C19.3377 12.2741 23.6177 12.2041 26.9477 14.0441C28.9777 15.1441 30.5177 16.5141 31.5477 18.1341C32.7377 17.1241 34.2977 15.9841 36.2477 14.6841C39.0277 12.8441 42.4377 10.7341 46.3877 8.42413C49.8377 6.43413 53.1277 4.80414 56.1777 3.55414C59.2377 2.29414 62.0577 1.36413 64.5377 0.784131C67.0777 0.194131 69.2977 -0.0658659 71.1377 0.0141341C73.1977 0.104134 74.7277 0.604133 75.8077 1.54413C76.8877 2.43413 77.5577 3.28413 77.8477 4.12413C78.1277 4.93413 78.2277 5.63414 78.1477 6.27414L78.1277 6.38414C77.9677 7.17414 77.6077 7.86414 77.0477 8.41414L76.5977 8.86413L75.9677 8.83413C75.1577 8.78413 74.0977 8.88414 72.8277 9.12414C71.6677 9.32414 70.1877 9.65413 68.4077 10.1041C66.6477 10.5541 64.4577 11.2841 61.8977 12.2841C59.9777 12.9941 57.9777 13.8641 55.9177 14.8941C53.8277 15.9341 51.7977 17.0041 49.8677 18.0741C47.9477 19.1341 46.1677 20.1741 44.5577 21.1641C43.5477 21.7941 42.6477 22.3541 41.8677 22.8441C41.8677 22.8441 41.8677 22.8441 41.8677 22.8541C42.4077 23.4941 42.8877 24.3041 43.3277 25.3441C43.7577 26.3541 44.0877 27.5941 44.3177 29.0441C44.5477 30.5241 44.5177 32.2941 44.2477 34.4541C44.1477 35.4841 43.9477 36.7241 43.6477 38.1141C43.3477 39.5041 43.0077 40.9641 42.6277 42.4541C42.2377 43.9841 41.8277 45.5441 41.3877 47.1441C40.9377 48.7641 40.4877 50.3441 40.0277 51.8241C38.9977 55.3541 37.8277 59.0941 36.5377 62.8941C36.1677 64.0441 35.7377 65.2041 35.2577 66.3241C34.7677 67.4741 34.1677 68.5841 33.4777 69.6341C32.7777 70.7041 31.9477 71.6841 31.0277 72.5541C30.0677 73.4541 28.9377 74.2041 27.6677 74.7841C26.5977 75.2941 25.3977 75.6541 24.1377 75.8541C23.3477 75.9841 22.5577 76.0441 21.7677 76.0441L21.7777 76.0341ZM17.3877 22.9841C17.9177 22.9841 18.4477 23.0341 19.0077 23.1341C20.2577 23.3341 21.3177 23.8641 22.1277 24.7041C22.9977 25.6141 23.3977 26.9041 23.3277 28.5641C23.2677 30.0041 22.7877 31.7841 21.8677 33.9941C20.9877 36.0841 19.5677 38.6941 17.6277 41.7341C15.9477 44.3441 14.6277 47.2041 13.6977 50.2341C12.7577 53.2641 12.2677 56.3641 12.2177 59.4441C12.1677 61.4341 12.4177 63.5141 12.9477 65.6341C13.4477 67.6541 14.3777 69.3941 15.6977 70.8041C16.3477 71.4941 17.0777 72.0241 17.9477 72.4141C18.8277 72.8141 19.7577 73.0541 20.6977 73.1441C21.6777 73.2341 22.6877 73.2041 23.6977 73.0441C24.6977 72.8841 25.6277 72.6041 26.4777 72.1941C27.4877 71.7341 28.3577 71.1641 29.0877 70.4741C29.8477 69.7541 30.5277 68.9441 31.1077 68.0641C31.7077 67.1541 32.2177 66.1941 32.6477 65.1941C33.0877 64.1641 33.4877 63.0941 33.8377 62.0041C35.1177 58.2141 36.2777 54.5241 37.2977 51.0041C37.7577 49.5241 38.2077 47.9841 38.6477 46.3941C39.0777 44.8141 39.4877 43.2641 39.8777 41.7541C40.2477 40.3041 40.5777 38.8741 40.8677 37.5241C41.1377 36.2341 41.3277 35.0941 41.4177 34.1241C41.6577 32.2141 41.6877 30.6641 41.5077 29.4641C41.3177 28.2541 41.0577 27.2341 40.7177 26.4441C40.3877 25.6841 40.0477 25.0841 39.7077 24.6841C39.2077 24.1041 38.8477 23.6041 38.5877 23.1541L37.9277 21.9941L39.0477 21.2641C40.0877 20.5941 41.4177 19.7541 43.0477 18.7441C44.6877 17.7241 46.5177 16.6641 48.4777 15.5841C50.4377 14.5041 52.4977 13.4141 54.6277 12.3541C56.7777 11.2841 58.8777 10.3641 60.8677 9.63414C63.5077 8.59414 65.8177 7.82413 67.6877 7.35413C69.5377 6.88413 71.0877 6.54413 72.3077 6.32413C73.4377 6.11413 74.4177 6.00414 75.2877 5.98414C75.2977 5.95414 75.3077 5.91414 75.3177 5.88414C75.3177 5.76414 75.3077 5.51413 75.1477 5.06413C75.0977 4.91413 74.8677 4.47413 73.9677 3.72413L73.9377 3.69413C73.3777 3.20413 72.3477 2.90414 70.9877 2.84414C69.4077 2.77414 67.4477 3.00413 65.1577 3.54413C62.8177 4.09413 60.1577 4.97413 57.2277 6.17413C54.2977 7.37413 51.1177 8.95414 47.7877 10.8741C43.8977 13.1541 40.5277 15.2241 37.7877 17.0441C35.1277 18.8041 33.2277 20.2841 32.1177 21.4341L30.5477 23.0741L29.7677 20.9341C29.1077 19.1441 27.7377 17.7041 25.5577 16.5241C22.9077 15.0641 19.4277 15.2141 16.0177 16.3141C14.2377 16.8941 12.4777 17.7341 10.7877 18.8241C9.11769 19.9041 7.63768 21.1841 6.38768 22.6441C5.15768 24.0841 4.19768 25.6841 3.54768 27.4041C2.90768 29.0641 2.67768 30.8041 2.85768 32.5841C2.87768 32.7441 2.93768 32.9241 3.02768 33.1041C3.17768 33.3841 3.30768 33.3941 3.41768 33.4041C4.15768 33.4441 4.88768 33.3641 5.60768 33.1441C6.12768 32.9541 6.76768 32.6141 7.43768 32.1441C7.95768 31.7741 8.38767 31.1641 8.69767 30.3141C9.67767 27.8341 11.0277 25.9341 12.7177 24.6241C14.1077 23.5441 15.6777 23.0041 17.3977 23.0041L17.3877 22.9841ZM22.8677 64.9941C22.2377 64.9941 21.4277 64.8041 20.5577 64.1441C19.6277 63.4341 18.9577 62.0841 18.4577 59.8941C18.2077 58.3741 18.2677 56.6541 18.5977 54.7041C18.8677 53.1041 19.3777 51.1041 20.1077 48.7641C20.8477 46.4041 22.0777 43.6041 23.7577 40.4541C25.3777 37.4141 26.7977 34.5541 27.9577 31.9641C29.0777 29.4741 29.7977 27.1641 30.0877 25.0941L30.3277 23.4041L31.9477 23.9541C32.4077 24.1141 32.9077 24.3941 33.4777 24.8241C34.0977 25.3041 34.6177 25.9741 35.0777 26.9041C35.5177 27.7841 35.7977 28.8641 35.9577 30.1941C36.0977 31.5041 36.0077 33.0841 35.6777 35.0341C35.2577 37.4041 34.5677 40.1941 33.6277 43.3041C32.7177 46.3541 31.7477 49.3841 30.7577 52.3041C29.6277 55.5941 28.3777 59.0341 27.0377 62.5441L26.9277 62.8241L26.7177 63.0341C25.6977 64.0541 24.6477 64.6841 23.5977 64.8841C23.3977 64.9341 23.1577 64.9741 22.8777 64.9741L22.8677 64.9941ZM32.4077 27.9341C31.9877 29.5841 31.3577 31.3241 30.5377 33.1441C29.3477 35.7941 27.8977 38.7041 26.2477 41.7941C24.6477 44.7941 23.4877 47.4241 22.7977 49.6241C22.0977 51.8341 21.6277 53.7041 21.3777 55.1841C21.0977 56.8341 21.0477 58.2341 21.2277 59.3541C21.6977 61.4041 22.2077 61.8441 22.2677 61.8841C22.6877 62.2041 22.8877 62.1541 22.9577 62.1441C23.4477 62.0441 23.9477 61.7441 24.4877 61.2541C25.7777 57.8741 26.9777 54.5641 28.0677 51.4041C29.0477 48.5141 29.9977 45.5241 30.9077 42.5041C31.8077 39.4941 32.4777 36.8241 32.8777 34.5641C33.1577 32.9041 33.2477 31.5441 33.1377 30.5241C33.0277 29.5441 32.8277 28.7541 32.5477 28.1841C32.5077 28.0941 32.4577 28.0141 32.4177 27.9441L32.4077 27.9341Z" fill="var(--fill-0, #353535)"/>
</g>
</svg>
