<svg preserveAspectRatio="none" width="100%" height="100%" overflow="visible" style="display: block;" viewBox="0 0 39.5741 63.8957" fill="none" xmlns="http://www.w3.org/2000/svg">
<g id="Group">
<path id="Vector" d="M3.67407 11.0557C4.38407 9.92569 5.38408 8.74569 6.69408 7.54569C7.99408 6.33569 9.52407 5.26568 11.2741 4.31568C13.0241 3.36568 14.9441 2.62569 17.0241 2.07569C19.1041 1.53569 21.2541 1.32568 23.4841 1.47568C25.7041 1.66568 27.7341 2.16569 29.5541 2.96569C31.3741 3.76569 32.9241 4.86569 34.2041 6.26569C35.4841 7.66569 36.4641 9.29569 37.1441 11.1657C37.8241 13.0357 38.1741 15.1257 38.1741 17.4457C38.1741 18.9557 37.9941 20.7357 37.6441 22.7657C37.2941 24.7957 36.8141 26.9457 36.2241 29.1857C35.6341 31.4357 34.9841 33.7357 34.2741 36.1057C33.5641 38.4757 32.8441 40.7457 32.1141 42.9157C31.3841 45.0957 30.6841 47.1257 30.0241 49.0157C29.3641 50.9057 28.8141 52.5357 28.3941 53.9157C27.7341 55.9057 26.9641 57.5157 26.0841 58.7357C25.2041 59.9657 24.3441 60.8757 23.4941 61.4657C22.6441 62.0557 21.8241 62.3857 21.0441 62.4557C20.2641 62.5257 19.6641 62.4157 19.2341 62.1357C18.8041 61.8557 18.5641 61.3657 18.4841 60.6757C18.4141 59.9957 18.5741 58.8057 18.9841 57.1257C19.3841 55.4457 20.0641 53.1457 21.0041 50.2057C21.9541 47.2757 23.2541 43.4157 24.9041 38.6357C26.5641 33.8557 27.7741 29.7457 28.5541 26.2857C29.3341 22.8357 29.6841 19.9357 29.6141 17.5957C29.5441 15.2557 29.0941 13.4457 28.2641 12.1657C27.4341 10.8857 26.2641 10.0657 24.7541 9.68569C23.2441 9.30569 21.7941 9.15568 20.4241 9.22568C19.0541 9.29568 17.7841 9.53569 16.6241 9.93569C15.4641 10.3357 14.4241 10.8657 13.5041 11.5357C12.5841 12.1957 11.8141 12.9357 11.1941 13.7357C10.5741 14.4957 10.0841 15.3257 9.70407 16.2157C9.32407 17.1157 8.89407 17.9057 8.42407 18.5957C7.95407 19.2857 7.36408 19.7657 6.65408 20.0457C5.94408 20.3257 4.95407 20.2357 3.67407 19.7657C2.39407 19.2957 1.67408 18.5757 1.51408 17.6057C1.34408 16.6357 1.43408 15.6757 1.76408 14.7357C2.14408 13.5957 2.78408 12.3757 3.68408 11.0457L3.67407 11.0557Z" fill="var(--fill-0, white)"/>
<path id="Vector_2" d="M20.5841 63.8957C19.7241 63.8957 19.0041 63.7057 18.4241 63.3157C17.8841 62.9557 17.2041 62.2257 17.0541 60.8257C16.9641 59.9657 17.1341 58.6857 17.5841 56.8057C17.9941 55.1057 18.6841 52.7357 19.6341 49.7857C20.5741 46.8857 21.8841 42.9857 23.5441 38.1857C25.1741 33.4757 26.3941 29.3757 27.1541 25.9957C27.9041 22.6757 28.2541 19.8757 28.1841 17.6557C28.1241 15.5857 27.7441 14.0057 27.0641 12.9557C26.4341 11.9857 25.5641 11.3657 24.3941 11.0757C23.0241 10.7357 21.7041 10.5957 20.4841 10.6557C19.2541 10.7157 18.1041 10.9357 17.0841 11.2857C16.0641 11.6357 15.1341 12.1157 14.3241 12.6957C13.5141 13.2757 12.8441 13.9157 12.3141 14.6057C11.7641 15.2857 11.3341 16.0057 11.0041 16.7757C10.5941 17.7557 10.1141 18.6457 9.58408 19.4057C8.95408 20.3257 8.14408 20.9857 7.17408 21.3757C6.11408 21.7957 4.80408 21.7057 3.17408 21.1057C0.954075 20.2857 0.284076 18.8857 0.104076 17.8557C-0.105924 16.6557 0.00408089 15.4457 0.414081 14.2757C0.824081 13.0557 1.51408 11.6957 2.47408 10.2757C3.24408 9.04569 4.33408 7.77569 5.71408 6.49569C7.09408 5.21569 8.73408 4.05569 10.5841 3.05569C12.4241 2.06569 14.4641 1.26569 16.6441 0.695686C18.8641 0.115686 21.1841 -0.104308 23.5541 0.0456924C25.9541 0.255692 28.1441 0.795693 30.1041 1.65569C32.0941 2.53569 33.8241 3.75569 35.2241 5.29569C36.6241 6.81569 37.7041 8.62569 38.4541 10.6557C39.1941 12.6757 39.5741 14.9557 39.5741 17.4257C39.5741 19.0157 39.3841 20.8857 39.0241 22.9957C38.6641 25.0557 38.1841 27.2557 37.5841 29.5357C36.9941 31.7957 36.3341 34.1357 35.6241 36.4957C34.9141 38.8457 34.1841 41.1557 33.4441 43.3557C32.7041 45.5357 32.0041 47.5757 31.3441 49.4757C30.7041 51.3157 30.1541 52.9457 29.7241 54.3257C29.0141 56.4657 28.1741 58.2157 27.2241 59.5557C26.2441 60.9357 25.2841 61.9357 24.2841 62.6257C23.2341 63.3557 22.1741 63.7757 21.1541 63.8657C20.9641 63.8857 20.7741 63.8957 20.5841 63.8957ZM21.0641 7.81568C22.3541 7.81568 23.7041 7.98569 25.0941 8.33569C26.9641 8.80569 28.4241 9.84568 29.4541 11.4257C30.4341 12.9357 30.9541 14.9557 31.0341 17.5857C31.1041 20.0357 30.7441 23.0757 29.9341 26.6357C29.1441 30.1257 27.9041 34.3257 26.2341 39.1357C24.5841 43.9057 23.2741 47.7957 22.3441 50.6757C21.4141 53.5657 20.7441 55.8557 20.3541 57.4857C19.8641 59.5457 19.8641 60.3157 19.8841 60.5557C19.9141 60.8557 19.9841 60.9657 20.0041 60.9757C20.1041 61.0457 20.4041 61.1057 20.8941 61.0657C21.4241 61.0157 22.0141 60.7657 22.6641 60.3157C23.3741 59.8157 24.1341 59.0157 24.9041 57.9257C25.6941 56.8157 26.4041 55.3257 27.0141 53.4757C27.4441 52.0957 27.9941 50.4257 28.6541 48.5557C29.3141 46.6657 30.0041 44.6457 30.7441 42.4657C31.4741 40.2957 32.1941 38.0257 32.8941 35.6957C33.5941 33.3657 34.2441 31.0457 34.8341 28.8257C35.4141 26.6257 35.8841 24.5057 36.2241 22.5257C36.5641 20.5757 36.7341 18.8757 36.7341 17.4457C36.7341 15.3057 36.4141 13.3657 35.7941 11.6557C35.1741 9.96569 34.2841 8.47569 33.1341 7.22569C31.9941 5.98569 30.5941 4.98569 28.9541 4.26569C27.2841 3.52569 25.3941 3.06569 23.3441 2.88569C21.3141 2.75569 19.2941 2.94569 17.3641 3.44569C15.3941 3.95569 13.5741 4.66569 11.9341 5.55569C10.2941 6.44569 8.85408 7.45569 7.64408 8.57569C6.44408 9.68569 5.50408 10.7757 4.86408 11.7957L4.83408 11.8357C4.01408 13.0457 3.42408 14.1757 3.09408 15.1757C2.83408 15.9157 2.77408 16.6257 2.89408 17.3657C2.92408 17.5257 3.00408 18.0157 4.15408 18.4357C5.45408 18.9157 5.98408 18.7857 6.11408 18.7357C6.56408 18.5557 6.93408 18.2457 7.24408 17.7957C7.66408 17.1957 8.04407 16.4757 8.38407 15.6757C8.81407 14.6557 9.38408 13.7057 10.0841 12.8457C10.7541 11.9657 11.6341 11.1357 12.6641 10.3857C13.6941 9.64569 14.8641 9.04569 16.1441 8.60569C17.4241 8.16569 18.8341 7.89568 20.3341 7.81568C20.5741 7.80568 20.8141 7.79569 21.0541 7.79569L21.0641 7.81568Z" fill="var(--fill-0, #353535)"/>
</g>
</svg>
