<svg preserveAspectRatio="none" width="100%" height="100%" overflow="visible" style="display: block;" viewBox="0 0 64.4685 59.5647" fill="none" xmlns="http://www.w3.org/2000/svg">
<g id="Group">
<path id="Vector" d="M2.58029 10.6047C4.11029 9.07467 5.79025 7.58467 7.60025 6.13467C9.41025 4.68467 11.2803 3.47467 13.1903 2.49467C15.1003 1.52467 17.0302 0.894677 18.9702 0.624677C20.9102 0.344677 22.7803 0.594683 24.5803 1.36468C26.3803 2.13468 27.8002 3.10467 28.8402 4.27467C29.8802 5.44467 30.6003 6.76468 30.9903 8.23468C31.3803 9.70468 31.4703 11.3347 31.2503 13.1247C31.0403 14.9047 30.5703 16.8247 29.8503 18.8847C29.1303 20.9447 28.0903 23.3147 26.7403 25.9947C25.3903 28.6747 24.0202 31.3347 22.6502 33.9747C21.2802 36.6047 20.0503 39.0747 18.9803 41.3647C17.9003 43.6547 17.2603 45.4147 17.0503 46.6247C16.8403 47.8447 16.9503 48.7247 17.3803 49.2947C17.8103 49.8547 18.3003 50.2347 18.8503 50.4447C19.5003 50.6547 20.2902 50.7147 21.2102 50.6047L34.1502 50.7047C35.5602 46.3447 37.0602 42.0947 38.6502 37.9447C39.3402 36.1847 40.0603 34.3547 40.8203 32.4447C41.5703 30.5447 42.3503 28.6647 43.1403 26.8147C43.9303 24.9647 44.7503 23.1847 45.5803 21.4547C46.4103 19.7347 47.2503 18.1747 48.1003 16.7747C49.7503 13.9747 51.2803 11.7747 52.6703 10.1847C54.0703 8.59468 55.3603 7.47467 56.5403 6.82467C57.7303 6.17467 58.8102 5.90467 59.7802 5.99467C60.7502 6.08467 61.6203 6.42467 62.3803 6.99467C63.1403 7.56467 63.6103 8.14468 63.8003 8.73468C63.9803 9.32468 64.0003 9.88467 63.8603 10.4147C63.7103 10.9947 63.4203 11.5547 62.9803 12.1047C62.0503 12.8047 61.0803 13.7447 60.0503 14.9347C59.1403 15.9347 58.1203 17.2147 56.9903 18.7847C55.8603 20.3547 54.6603 22.3147 53.3803 24.6547C52.5603 26.2047 51.7202 27.9647 50.8402 29.9247C49.9602 31.8947 49.1003 33.9147 48.2603 36.0147C47.4203 38.1047 46.6203 40.2047 45.8703 42.3047C45.1203 44.4047 44.4403 46.3647 43.8103 48.1847C43.1803 50.0047 42.6502 51.5947 42.2102 52.9647C41.7702 54.3347 41.4703 55.3547 41.3103 56.0247C41.0803 56.9947 40.2603 57.7047 38.8503 58.1547C37.4403 58.6047 35.9403 58.8847 34.3503 58.9647C32.4603 59.1247 30.3802 59.1147 28.0902 58.9347C24.3102 58.8547 21.0802 58.6447 18.4002 58.3047C15.7202 57.9647 13.5602 57.4047 11.9002 56.6247C10.2502 55.8447 9.06025 54.7947 8.35025 53.4847C7.63025 52.1747 7.37026 50.5447 7.55026 48.5847C7.73026 46.6247 8.10026 44.6947 8.67026 42.7947C9.23026 40.8947 9.96026 38.9747 10.8603 37.0447C11.7603 35.1047 12.7903 33.1147 13.9303 31.0847C15.0803 29.0447 16.3103 26.9047 17.6203 24.6647C18.9303 22.4247 19.9203 20.6047 20.5803 19.2047C21.2403 17.8147 21.6602 16.6447 21.8402 15.6947C22.0202 14.7447 21.9903 13.9547 21.7403 13.3147C21.4903 12.6747 21.1102 12.0247 20.5902 11.3847C20.0702 10.7447 19.5203 10.3047 18.9203 10.0647C18.3203 9.83468 17.7502 9.73468 17.2202 9.78468C16.6902 9.83468 16.2003 9.95468 15.7503 10.1547C15.3003 10.3547 14.9403 10.5647 14.6803 10.7947C14.4203 11.0247 14.0003 11.3847 13.4303 11.8947C12.8503 12.4047 12.2103 12.9847 11.5103 13.6347C10.8003 14.2847 10.0603 14.9647 9.2703 15.6747C8.4803 16.3847 7.73028 17.0547 7.00028 17.6747C6.27028 18.3447 5.59025 18.7947 4.97025 19.0347C4.35025 19.2647 3.80028 19.3747 3.32028 19.3547C2.84028 19.3347 2.48026 19.2447 2.23026 19.0947C1.98026 18.9447 1.86028 18.7947 1.88028 18.6547C1.91028 18.3647 1.88024 18.0647 1.78024 17.7547C1.68024 17.4447 1.36024 16.7747 0.780244 15.7247C0.500244 15.1547 0.430293 14.5747 0.580293 13.9947C0.730293 13.4147 0.950266 12.8747 1.24027 12.3547C1.58027 11.7947 2.02026 11.2247 2.55026 10.6347L2.58029 10.6047Z" fill="var(--fill-0, #FF6602)"/>
<path id="Vector_2" d="M31.5803 59.5647C30.4703 59.5647 29.3003 59.5147 28.0903 59.4247C24.3403 59.3447 21.0603 59.1347 18.3803 58.7947C15.6603 58.4447 13.4303 57.8647 11.7303 57.0647C9.99029 56.2347 8.71032 55.1147 7.95032 53.7147C7.19032 52.3247 6.90027 50.5847 7.09027 48.5247C7.28027 46.5347 7.66028 44.5547 8.22028 42.6447C8.78028 40.7347 9.53031 38.7747 10.4403 36.8247C11.3503 34.8747 12.3903 32.8547 13.5303 30.8247C14.6803 28.7847 15.9103 26.6447 17.2303 24.3947C18.5303 22.1747 19.5203 20.3547 20.1703 18.9747C20.8103 17.6247 21.2203 16.4847 21.3903 15.5847C21.5503 14.7347 21.5303 14.0247 21.3103 13.4747C21.0803 12.8847 20.7103 12.2747 20.2303 11.6747C19.7703 11.1047 19.2803 10.7147 18.7603 10.5147C18.2303 10.3147 17.7403 10.2247 17.2803 10.2647C16.8103 10.3047 16.3703 10.4147 15.9703 10.5947C15.5603 10.7747 15.2403 10.9647 15.0203 11.1547C14.7603 11.3747 14.3503 11.7347 13.7703 12.2447C13.2003 12.7547 12.5603 13.3347 11.8503 13.9747C11.1403 14.6247 10.3903 15.3047 9.61029 16.0147C8.82029 16.7347 8.06032 17.4047 7.33032 18.0247C6.55032 18.7347 5.84027 19.2047 5.15027 19.4647C4.47027 19.7247 3.85029 19.8347 3.30029 19.8147C2.74029 19.7847 2.30029 19.6847 1.98029 19.4847C1.45029 19.1747 1.36031 18.8147 1.38031 18.5647C1.40031 18.3347 1.38029 18.1047 1.30029 17.8547C1.25029 17.6747 1.03027 17.1847 0.340271 15.9247C-0.00972921 15.2247 -0.0897194 14.5247 0.100281 13.8347C0.260281 13.2147 0.500302 12.6247 0.810302 12.0747C1.1703 11.4747 1.63031 10.8747 2.19031 10.2547L2.21027 10.2347C3.75027 8.69468 5.46032 7.17467 7.27032 5.72467C9.10032 4.25467 11.0103 3.01468 12.9503 2.03468C14.9003 1.04468 16.9003 0.394682 18.8903 0.114682C20.9203 -0.175318 22.8903 0.0846808 24.7703 0.894681C26.6303 1.69468 28.1203 2.71467 29.2103 3.93467C30.3003 5.15467 31.0603 6.55468 31.4703 8.09468C31.8703 9.62468 31.9703 11.3247 31.7503 13.1647C31.5303 14.9747 31.0503 16.9547 30.3303 19.0247C29.6003 21.0947 28.5503 23.5047 27.1903 26.1947C25.8303 28.8847 24.4703 31.5447 23.1003 34.1747C21.7403 36.7747 20.5103 39.2547 19.4303 41.5447C18.3803 43.7847 17.7403 45.5147 17.5403 46.6747C17.3603 47.7447 17.4303 48.5047 17.7703 48.9547C18.1403 49.4347 18.5603 49.7647 19.0203 49.9347C19.5803 50.1147 20.3003 50.1647 21.1503 50.0647L33.7803 50.1547C35.1603 45.9147 36.6403 41.7247 38.1803 37.7147C38.8703 35.9547 39.6003 34.1147 40.3503 32.2147C41.1103 30.2947 41.8903 28.3947 42.6803 26.5747C43.4603 24.7447 44.2903 22.9347 45.1303 21.1947C45.9703 19.4647 46.8203 17.8747 47.6803 16.4647C49.3303 13.6547 50.8903 11.4147 52.3003 9.80467C53.7303 8.17467 55.0803 7.00467 56.3103 6.33467C57.5803 5.64467 58.7703 5.34467 59.8403 5.44467C60.9003 5.55467 61.8603 5.91467 62.6903 6.54467C63.5303 7.17467 64.0703 7.84468 64.2903 8.53468C64.5003 9.21468 64.5303 9.87467 64.3503 10.4947C64.1903 11.1347 63.8603 11.7647 63.3803 12.3647L63.2903 12.4547C62.3903 13.1347 61.4303 14.0547 60.4403 15.2047C59.5403 16.1947 58.5203 17.4747 57.4103 19.0247C56.3003 20.5747 55.1003 22.5247 53.8403 24.8447C53.0303 26.3747 52.1803 28.1447 51.3103 30.0847C50.4303 32.0447 49.5703 34.0847 48.7403 36.1547C47.8903 38.2547 47.0903 40.3647 46.3603 42.4247C45.6103 44.5247 44.9303 46.4847 44.3003 48.2947C43.6703 50.1047 43.1403 51.6947 42.7103 53.0647C42.2803 54.4147 41.9803 55.4247 41.8203 56.0947C41.5403 57.2447 40.6003 58.0747 39.0203 58.5847C37.5803 59.0547 36.0203 59.3347 34.4003 59.4247C33.5103 59.5047 32.5603 59.5347 31.5703 59.5347L31.5803 59.5647ZM17.5203 9.25468C18.0403 9.25468 18.5803 9.36467 19.1403 9.57467C19.8303 9.84467 20.4603 10.3347 21.0303 11.0447C21.5703 11.7247 21.9803 12.4147 22.2603 13.1047C22.5403 13.8347 22.5903 14.7347 22.3903 15.7647C22.2003 16.7547 21.7603 17.9747 21.0903 19.3947C20.4303 20.7947 19.4303 22.6447 18.1103 24.8947C16.8003 27.1347 15.5703 29.2747 14.4203 31.3047C13.2903 33.3147 12.2603 35.3147 11.3603 37.2347C10.4703 39.1447 9.74031 41.0547 9.19031 42.9247C8.64031 44.7747 8.27027 46.6947 8.09027 48.6147C7.92027 50.4647 8.17032 52.0147 8.83032 53.2247C9.49032 54.4347 10.6103 55.4147 12.1603 56.1447C13.7603 56.9047 15.8903 57.4547 18.5003 57.7847C21.1503 58.1247 24.3903 58.3347 28.1303 58.4147C30.4003 58.5947 32.4803 58.6047 34.3303 58.4447C35.8803 58.3547 37.3503 58.0947 38.7203 57.6547C39.9603 57.2547 40.6603 56.6747 40.8503 55.8847C41.0103 55.2047 41.3203 54.1547 41.7603 52.7847C42.2003 51.4147 42.7303 49.8247 43.3603 47.9947C43.9903 46.1747 44.6703 44.2147 45.4203 42.1147C46.1603 40.0347 46.9603 37.9147 47.8103 35.8047C48.6503 33.7247 49.5203 31.6747 50.4003 29.7047C51.2803 27.7347 52.1403 25.9547 52.9603 24.4047C54.2403 22.0447 55.4603 20.0547 56.6003 18.4747C57.7303 16.9047 58.7703 15.5847 59.6903 14.5747C60.7003 13.4047 61.6903 12.4447 62.6303 11.7247C63.0003 11.2447 63.2503 10.7547 63.3803 10.2647C63.5003 9.81468 63.4803 9.36468 63.3303 8.86468C63.1803 8.38468 62.7603 7.88468 62.0903 7.37468C61.4003 6.86468 60.6103 6.55467 59.7403 6.47467C58.8703 6.38467 57.8803 6.64467 56.7903 7.24467C55.6603 7.86467 54.4003 8.95467 53.0503 10.4947C51.6803 12.0547 50.1603 14.2547 48.5303 17.0147C47.6903 18.3947 46.8503 19.9547 46.0303 21.6647C45.1903 23.3947 44.3803 25.1947 43.6003 27.0047C42.8203 28.8247 42.0403 30.7147 41.2803 32.6247C40.5303 34.5247 39.8003 36.3647 39.1103 38.1247C37.5403 42.2247 36.0303 46.5047 34.6203 50.8547L34.5103 51.2047L21.2103 51.1047C20.2803 51.2147 19.4203 51.1547 18.7003 50.9147C18.0403 50.6747 17.4703 50.2347 16.9803 49.5947C16.4603 48.9147 16.3203 47.9147 16.5603 46.5447C16.7803 45.2747 17.4203 43.5147 18.5303 41.1547C19.6103 38.8547 20.8503 36.3647 22.2103 33.7447C23.5803 31.1147 24.9403 28.4547 26.3003 25.7747C27.6403 23.1247 28.6703 20.7547 29.3803 18.7247C30.0803 16.7147 30.5503 14.8147 30.7603 13.0747C30.9703 11.3647 30.8803 9.77468 30.5103 8.37468C30.1403 6.98468 29.4603 5.72468 28.4703 4.62468C27.4803 3.51468 26.1103 2.58468 24.3903 1.84468C22.6803 1.11468 20.8903 0.874671 19.0503 1.13467C17.1703 1.40467 15.2803 2.01468 13.4203 2.95468C11.5503 3.90468 9.69029 5.11468 7.92029 6.53468C6.14029 7.96468 4.46032 9.45467 2.95032 10.9647C2.44032 11.5247 2.02032 12.0747 1.70032 12.6047C1.44032 13.0647 1.24028 13.5747 1.10028 14.1147C0.980281 14.5747 1.03031 15.0247 1.26031 15.4947C2.04031 16.9247 2.22028 17.3847 2.29028 17.6047C2.39028 17.9347 2.43028 18.2647 2.41028 18.5947C2.43028 18.6147 2.46031 18.6347 2.51031 18.6647C2.63031 18.7347 2.8803 18.8347 3.3703 18.8547C3.7803 18.8747 4.26031 18.7747 4.82031 18.5647C5.38031 18.3547 6.01031 17.9247 6.69031 17.3047C7.43031 16.6747 8.18027 16.0147 8.96027 15.3047C9.75027 14.5947 10.4903 13.9147 11.2003 13.2647C11.9103 12.6147 12.5503 12.0347 13.1303 11.5247C13.7103 11.0147 14.1303 10.6447 14.3903 10.4147C14.6903 10.1647 15.0703 9.93468 15.5703 9.70468C16.0703 9.48468 16.6203 9.34468 17.2103 9.28468C17.3103 9.28468 17.4103 9.27467 17.5103 9.27467L17.5203 9.25468Z" fill="var(--fill-0, black)"/>
</g>
</svg>
