<svg preserveAspectRatio="none" width="100%" height="100%" overflow="visible" style="display: block;" viewBox="0 0 60.4406 63.7334" fill="none" xmlns="http://www.w3.org/2000/svg">
<g id="Group">
<path id="Vector" d="M56.1609 3.64341C56.6709 3.59341 57.1309 3.69341 57.5109 3.95341C57.9009 4.21341 58.2209 4.54341 58.4809 4.95341C58.7409 5.36341 58.9009 5.80342 58.9809 6.26342C59.0609 6.72342 59.0209 7.16341 58.8609 7.57341C58.7109 7.98341 58.461 8.34342 58.131 8.65342C57.791 8.96342 57.4109 9.31342 56.9709 9.69342C56.5309 10.0834 56.0909 10.5734 55.6609 11.1634C55.2209 11.7534 54.8009 12.5134 54.3909 13.4434C54.1309 14.0634 53.6909 15.3634 53.0809 17.3434C52.4609 19.3234 51.7509 21.6534 50.9609 24.3334C50.1609 27.0134 49.3009 29.8934 48.3709 32.9834C47.4409 36.0734 46.5709 39.0134 45.7509 41.8234C44.9309 44.6234 44.1809 47.1534 43.5109 49.3934C42.8409 51.6334 42.351 53.2634 42.041 54.2934C41.581 55.7834 40.9309 57.0334 40.1109 58.0334C39.2909 59.0334 38.2109 59.8434 36.8709 60.4634C35.5309 61.0834 33.9209 61.5334 32.0509 61.8134C30.1709 62.0934 27.9509 62.2634 25.3709 62.3134C22.8009 62.3634 20.691 61.9634 19.041 61.1134C17.391 60.2634 16.1109 59.2134 15.1809 57.9434C14.2509 56.6834 13.6409 55.3434 13.3309 53.9334C13.0209 52.5134 12.941 51.2734 13.101 50.1934C13.201 49.5734 13.3309 48.7834 13.4909 47.8034C13.6509 46.8234 13.8609 45.7734 14.1509 44.6334C14.4309 43.5034 14.7709 42.3334 15.1509 41.1234C15.5409 39.9134 15.9909 38.7734 16.5009 37.6834C14.7009 37.5334 12.9209 37.1734 11.1709 36.6034C9.42093 36.0334 7.84094 35.1234 6.42094 33.8634C5.00094 32.6034 3.85094 30.9034 2.95094 28.7734C2.05094 26.6334 1.55093 23.9534 1.44093 20.7034C1.34093 17.1034 1.99093 14.0134 3.41093 11.4434C4.82093 8.87342 6.63094 6.80341 8.81094 5.23341C11.0009 3.66341 13.421 2.58341 16.071 1.99341C18.721 1.40341 21.231 1.26341 23.601 1.57341C26.021 1.88341 27.8609 2.54341 29.1209 3.54341C30.3809 4.54341 31.1309 5.61341 31.3609 6.74341C31.5909 7.87341 31.3109 8.93341 30.5109 9.91341C29.7109 10.8934 28.4109 11.4834 26.6109 11.6934C25.6309 11.0234 24.5809 10.5134 23.4409 10.1534C22.4609 9.84341 21.3409 9.65341 20.0809 9.57341C18.8209 9.49341 17.4409 9.76341 15.9509 10.3834C14.5109 10.9534 13.3409 11.7834 12.4409 12.8934C11.5409 14.0034 10.8709 15.1834 10.4309 16.4434C9.99094 17.7034 9.72094 18.9434 9.62094 20.1534C9.52094 21.3634 9.52094 22.3534 9.62094 23.1234C9.72094 23.8934 10.0109 24.7334 10.4709 25.6334C10.9309 26.5334 11.6009 27.3434 12.4809 28.0634C13.3509 28.7834 14.4709 29.3134 15.8409 29.6434C17.2009 29.9834 18.8409 29.9934 20.7409 29.6834C20.9509 29.5834 21.241 29.3534 21.631 28.9834C22.021 28.6234 22.4809 28.2134 23.0209 27.7434C23.5609 27.2834 24.1909 26.8034 24.9109 26.3134C25.6309 25.8234 26.4309 25.4534 27.3009 25.1934C28.2309 24.8834 29.0909 24.8034 29.8909 24.9634C30.6909 25.1134 31.331 25.4434 31.821 25.9234C32.311 26.4134 32.6009 27.0734 32.7109 27.8934C32.8109 28.7134 32.6309 29.6734 32.1709 30.7534C31.5509 32.1434 30.7409 33.3534 29.7409 34.3834C28.7409 35.4134 27.4409 36.2334 25.8409 36.8534C25.3209 37.5734 24.581 38.9134 23.601 40.8634C22.621 42.8234 21.9309 45.2334 21.5209 48.1234C21.2609 49.9234 21.3809 51.2934 21.8709 52.2134C22.3609 53.1434 23.0109 53.7834 23.8409 54.1434C24.6609 54.5034 25.5909 54.6834 26.6209 54.6834H29.4009C30.2709 54.6834 30.9409 54.5934 31.4109 54.4134C31.8709 54.2334 32.2309 54.0134 32.4909 53.7534C32.8009 53.4934 32.9809 53.1834 33.0309 52.8234C34.5709 47.5734 36.0909 42.5334 37.5809 37.6934C38.2009 35.6334 38.8509 33.5134 39.5509 31.3234C40.2409 29.1334 40.931 27.0034 41.601 24.9134C42.271 22.8334 42.921 20.8534 43.571 18.9734C44.211 17.0934 44.7909 15.4634 45.3109 14.0734C46.3409 11.1934 47.4809 9.03341 48.7509 7.59341C50.0109 6.15341 51.2109 5.15342 52.3409 4.58342C53.6309 3.91342 54.9109 3.60342 56.2009 3.65342L56.1609 3.64341Z" fill="var(--fill-0, white)"/>
<path id="Vector_2" d="M24.9309 63.7334C22.3309 63.7334 20.1309 63.2734 18.3809 62.3734C16.5409 61.4234 15.0809 60.2234 14.0309 58.7834C12.9909 57.3634 12.2909 55.8334 11.9309 54.2334C11.5909 52.6634 11.5009 51.2334 11.6809 49.9834C11.7909 49.3334 11.921 48.5434 12.071 47.5734C12.231 46.5434 12.4609 45.4334 12.7509 44.2834C13.0309 43.1434 13.3809 41.9334 13.7809 40.6834C13.9809 40.0534 14.2009 39.4434 14.4309 38.8534C13.1809 38.6434 11.9309 38.3434 10.7209 37.9534C8.79095 37.3334 7.02095 36.3134 5.47095 34.9234C3.90095 33.5334 2.61093 31.6434 1.63093 29.3234C0.670935 27.0334 0.12094 24.1534 0.0109396 20.7534C-0.0990604 16.9034 0.620939 13.5434 2.15094 10.7634C3.66094 8.01341 5.62095 5.77341 7.97095 4.08341C10.3009 2.41341 12.9209 1.24341 15.7409 0.613408C18.5409 -0.00659239 21.2409 -0.156597 23.7609 0.163403C26.4209 0.503403 28.5209 1.26341 29.9809 2.42341C31.5009 3.63341 32.4309 4.9934 32.7309 6.4534C33.0509 7.9934 32.6509 9.5034 31.5909 10.8034C30.5509 12.0734 28.9309 12.8434 26.7509 13.0934L26.2309 13.1534L25.791 12.8534C24.931 12.2634 23.9909 11.8034 22.9909 11.4934C22.1309 11.2234 21.1109 11.0434 19.9809 10.9734C18.9409 10.9134 17.7609 11.1434 16.4809 11.6834C15.2309 12.1734 14.2709 12.8534 13.5209 13.7734C12.7309 14.7534 12.1309 15.8034 11.7509 16.8934C11.3509 18.0334 11.1109 19.1634 11.0109 20.2534C10.9209 21.3534 10.9109 22.2534 11.0109 22.9134C11.0909 23.5234 11.3309 24.2134 11.7109 24.9634C12.0809 25.6934 12.6409 26.3534 13.3609 26.9534C14.0709 27.5334 15.0109 27.9734 16.1609 28.2534C17.2609 28.5234 18.6309 28.5434 20.2109 28.3134C20.3009 28.2434 20.4409 28.1234 20.6409 27.9334C21.0409 27.5634 21.521 27.1334 22.071 26.6534C22.641 26.1634 23.3209 25.6534 24.0909 25.1334C24.9309 24.5634 25.8609 24.1234 26.8809 23.8234C27.9909 23.4534 29.1009 23.3534 30.1409 23.5634C31.2109 23.7734 32.1109 24.2234 32.8009 24.9134C33.5109 25.6334 33.9509 26.5734 34.0909 27.7034C34.2209 28.7834 34.0109 29.9834 33.4509 31.2934C32.7609 32.8534 31.8509 34.2134 30.7309 35.3534C29.6809 36.4334 28.3409 37.3134 26.7509 37.9834C26.3909 38.5534 25.791 39.5934 24.851 41.4834C23.941 43.2934 23.2909 45.5934 22.9009 48.3034C22.6309 50.1634 22.861 51.0834 23.101 51.5334C23.441 52.1734 23.8609 52.5934 24.3809 52.8234C25.0209 53.1034 25.7609 53.2434 26.5909 53.2434H29.3709C30.2809 53.2434 30.7009 53.1334 30.8609 53.0734C31.2309 52.9334 31.3909 52.8034 31.4609 52.7334L31.5509 52.6434V52.5434L31.6409 52.4034C33.2009 47.1134 34.7309 42.0134 36.2009 37.2534C36.8209 35.2034 37.4709 33.0734 38.1709 30.8734C38.8609 28.6834 39.5509 26.5434 40.2209 24.4634C40.8909 22.3734 41.5509 20.3834 42.2009 18.4934C42.8509 16.6034 43.4309 14.9534 43.9509 13.5534C45.0409 10.4934 46.2609 8.21341 47.6509 6.62341C49.0509 5.03341 50.3609 3.93341 51.6709 3.28341C53.1209 2.52341 54.621 2.1634 56.131 2.2034C56.941 2.1434 57.6709 2.32341 58.3009 2.75341C58.8509 3.12341 59.3209 3.60341 59.6809 4.18341C60.0409 4.76341 60.271 5.37341 60.381 6.01341C60.501 6.72341 60.4409 7.4134 60.1909 8.0534C59.9609 8.6734 59.5909 9.2134 59.0909 9.6734C58.7509 9.9934 58.3509 10.3434 57.9109 10.7334C57.5509 11.0534 57.1709 11.4734 56.8009 11.9834C56.4309 12.4934 56.0509 13.1634 55.6809 13.9934C55.4509 14.5334 55.0309 15.8034 54.4309 17.7334C53.8109 19.7134 53.1109 22.0334 52.3109 24.7034C51.5109 27.3834 50.6509 30.2634 49.7209 33.3534C48.7909 36.4434 47.921 39.3834 47.101 42.1834C46.281 44.9934 45.5309 47.5134 44.8609 49.7534L43.3909 54.6534C42.8709 56.3234 42.1309 57.7434 41.2009 58.8934C40.2409 60.0634 38.9809 61.0134 37.4609 61.7134C36.0009 62.3834 34.2509 62.8834 32.2509 63.1834C30.3209 63.4734 28.0109 63.6534 25.3909 63.7034C25.2309 63.7034 25.0809 63.7034 24.9309 63.7034V63.7334ZM21.1109 2.8134C19.5909 2.8134 18.0009 2.99341 16.3609 3.36341C13.9109 3.91341 11.6409 4.92341 9.62094 6.37341C7.62094 7.81341 5.94093 9.74341 4.63093 12.1234C3.34093 14.4634 2.74094 17.3334 2.84094 20.6634C2.94094 23.7134 3.41094 26.2534 4.23094 28.2234C5.04094 30.1534 6.09094 31.6934 7.34094 32.8134C8.60094 33.9334 10.0309 34.7634 11.5809 35.2634C13.2209 35.7934 14.9009 36.1334 16.5909 36.2834L18.6309 36.4534L17.7509 38.3034C17.2709 39.3134 16.8409 40.4134 16.4709 41.5634C16.0909 42.7534 15.7609 43.9034 15.4909 44.9834C15.2209 46.0534 15.0109 47.0834 14.8609 48.0234C14.7109 49.0034 14.5809 49.8034 14.4709 50.4234C14.3509 51.3034 14.4209 52.3934 14.6909 53.6334C14.9609 54.8434 15.5009 56.0134 16.3009 57.1134C17.0909 58.1934 18.2209 59.1134 19.6709 59.8534C21.1009 60.5934 23.001 60.9334 25.321 60.8934C27.821 60.8434 30.001 60.6834 31.821 60.4034C33.551 60.1434 35.0509 59.7234 36.2609 59.1634C37.3909 58.6434 38.3209 57.9534 39.0009 57.1234C39.7009 56.2634 40.2709 55.1634 40.6709 53.8534L42.131 48.9634C42.801 46.7234 43.5409 44.2034 44.3709 41.4034C45.1909 38.5934 46.0709 35.6434 47.0009 32.5534C47.9309 29.4634 48.7909 26.5834 49.5909 23.9134C50.3909 21.2334 51.1009 18.8934 51.7209 16.9134C52.3609 14.8634 52.8009 13.5534 53.0809 12.8934C53.5509 11.8334 54.0209 11.0034 54.5209 10.3234C55.0109 9.65341 55.5209 9.0834 56.0309 8.6334C56.4609 8.2534 56.8409 7.91341 57.1709 7.61341C57.3409 7.45341 57.461 7.28341 57.541 7.08341C57.611 6.90341 57.6209 6.72341 57.5909 6.50341C57.5409 6.22341 57.4409 5.9634 57.2809 5.7034C57.1309 5.4634 56.9509 5.2734 56.7309 5.1334C56.6609 5.0834 56.5509 5.0334 56.3109 5.0534H56.2109H56.1109C55.0709 5.0134 54.0309 5.26341 52.9609 5.82341C51.9809 6.31341 50.9209 7.21341 49.7809 8.51341C48.6409 9.81341 47.5809 11.8434 46.6109 14.5434C46.0909 15.9434 45.521 17.5634 44.881 19.4334C44.241 21.3034 43.5909 23.2734 42.9209 25.3534C42.2509 27.4334 41.571 29.5734 40.881 31.7534C40.191 33.9334 39.5309 36.0534 38.9209 38.1034C37.4609 42.8434 35.9409 47.9034 34.3909 53.1434C34.2709 53.7834 33.9409 54.3534 33.4209 54.7934C33.0209 55.1734 32.5309 55.4834 31.9009 55.7234C31.2709 55.9734 30.4509 56.0934 29.3809 56.0934H26.601C25.371 56.0934 24.2509 55.8734 23.2509 55.4334C22.1309 54.9434 21.241 54.0834 20.601 52.8634C19.961 51.6534 19.801 50.0334 20.101 47.9134C20.531 44.8934 21.281 42.3034 22.321 40.2234C23.341 38.1834 24.1109 36.8134 24.6709 36.0234L24.9209 35.6734L25.321 35.5234C26.721 34.9834 27.8609 34.2634 28.7109 33.3834C29.5909 32.4834 30.3209 31.3934 30.8609 30.1634C31.2109 29.3434 31.361 28.6234 31.291 28.0534C31.231 27.5434 31.0709 27.1734 30.8109 26.9134C30.5209 26.6234 30.1309 26.4434 29.6109 26.3434C29.0609 26.2334 28.4309 26.2934 27.7409 26.5234C26.9609 26.7534 26.2909 27.0634 25.6909 27.4734C25.0109 27.9334 24.4209 28.3834 23.9209 28.8034C23.4009 29.2534 22.951 29.6534 22.571 30.0034C22.081 30.4634 21.691 30.7634 21.351 30.9334L21.1609 31.0334L20.9509 31.0634C18.8609 31.4034 17.0209 31.3834 15.4809 31.0034C13.9109 30.6234 12.5909 29.9934 11.5609 29.1334C10.5409 28.2934 9.75095 27.3334 9.19095 26.2534C8.65095 25.2134 8.32094 24.2134 8.20094 23.2834C8.08094 22.4034 8.08094 21.3334 8.20094 20.0034C8.31094 18.6834 8.61093 17.3234 9.08093 15.9534C9.57093 14.5434 10.3209 13.2034 11.3309 11.9734C12.3809 10.6834 13.7609 9.69341 15.4209 9.04341C17.0809 8.35341 18.6809 8.0434 20.1609 8.1334C21.5309 8.2134 22.7809 8.4334 23.8609 8.7734C24.9409 9.1134 25.9709 9.59341 26.9309 10.1934C28.0909 9.99341 28.9209 9.59341 29.4009 9.00341C29.9309 8.35341 30.1009 7.7234 29.9609 7.0234C29.8009 6.2334 29.2209 5.43341 28.2309 4.64341C27.1809 3.81341 25.5609 3.24341 23.4109 2.97341C22.6609 2.87341 21.9009 2.82341 21.1209 2.82341L21.1109 2.8134Z" fill="var(--fill-0, #353535)"/>
</g>
</svg>
