<svg preserveAspectRatio="none" width="100%" height="100%" overflow="visible" style="display: block;" viewBox="0 0 920 510" fill="none" xmlns="http://www.w3.org/2000/svg">
<g id="Group 41">
<path id="Vector" d="M19.4534 77.5228C26.8943 64.9831 31.1741 55.8456 32.2926 50.159C33.0708 47.0969 33.8489 44.3751 34.7243 41.8964C35.5997 39.4176 36.3778 37.4248 37.156 35.9181C38.1287 34.217 39.3931 32.4672 40.998 30.6203C42.6029 28.822 44.451 27.0722 46.5422 25.3225C51.1138 21.5314 55.5881 18.761 59.9651 17.0599L59.6733 17.3515C62.7372 15.456 66.3361 13.9493 70.5186 12.7828C74.701 11.6649 79.4185 10.6928 84.6223 9.91515C89.8747 9.13749 95.6134 8.60285 101.887 8.21402C108.161 7.82519 114.921 7.43636 122.167 7.09614C123.48 10.8872 123.091 12.9772 121 13.366C120.417 13.366 119.882 13.4146 119.298 13.5118C118.714 13.609 118.179 13.6576 117.596 13.6576C111.906 14.4353 106.653 15.1643 101.887 15.942C97.1211 16.7197 92.9386 17.6431 89.3397 18.8096C85.7408 19.7817 81.6556 21.0454 77.0841 22.6493C72.5125 24.2532 68.0382 26.003 63.6612 27.9471C59.6733 29.8426 56.123 32.0298 53.1078 34.5086C50.0439 36.9874 47.7581 39.6606 46.2504 42.4796C42.992 48.7495 39.5877 56.8177 35.9888 66.7328C30.8336 82.529 25.7271 98.2766 20.572 114.073C15.4168 129.869 10.3103 145.714 5.15515 161.704L0 160.003L19.4534 77.5228ZM103.93 121.995C106.605 124.085 109.571 125.835 112.927 127.293C116.234 128.703 120.027 129.432 124.21 129.432C125.718 129.432 127.614 129.237 129.9 128.848C131.019 129.043 132.283 129.14 133.596 129.14H141.28C142.399 129.14 143.663 129.043 144.976 128.848C147.262 128.654 149.256 128.119 150.958 127.293C152.661 126.418 154.12 125.349 155.238 124.037V124.328C157.913 120.926 159.956 117.329 161.366 113.635C162.776 109.941 163.311 105.421 162.922 100.075C162.728 95.7006 162.144 91.4235 161.22 87.2436C160.442 83.4525 157.962 80.196 153.779 77.5228C151.299 75.8217 148.916 74.2664 146.63 72.8083C144.344 71.3988 142.253 69.9893 140.356 68.677C136.757 66.1982 131.602 64.6915 124.939 64.1082C122.265 63.7194 120.076 63.525 118.374 63.525C106.216 63.525 97.267 70.6697 91.5282 84.9106L69.5459 124.814L64.6825 121.655C65.8011 120.148 66.9197 118.787 67.941 117.669C68.9623 116.552 70.1781 115.093 71.4912 113.392C70.9076 109.407 70.2268 105.033 69.4972 100.269C68.7191 95.5062 68.0382 90.6944 67.3574 85.7369C66.6765 80.7793 65.9956 75.9675 65.2175 71.2044C64.4394 66.4412 63.8071 62.0669 63.2235 58.0814C65.7038 60.5602 67.6005 62.7959 68.9136 64.7887C70.2268 66.7814 70.9076 68.92 70.9076 71.2044V70.3295C70.7131 69.3574 70.5672 68.434 70.4699 67.4619C70.3727 66.4898 70.324 65.6635 70.324 64.8859C70.324 62.9903 70.5672 61.0948 71.0535 59.1993C71.5399 57.3037 72.1235 55.4082 72.9016 53.5126C74.2147 50.645 76.0628 48.2148 78.2999 46.0763C80.5857 43.9863 83.066 42.3824 85.7408 41.2159C88.2211 40.4382 90.9932 39.6606 94.0085 38.7857C97.0238 37.9109 99.6014 37.4248 101.693 37.2304C103.784 37.036 106.605 36.5013 110.106 35.6751C113.608 34.8002 117.839 33.6337 122.8 32.127L125.669 33.5365C126.058 33.7309 126.35 33.8281 126.544 33.8281H126.836L127.42 34.1198C141.134 35.8209 152.563 39.9036 161.804 46.3679C171.044 52.8322 177.804 61.7753 182.181 73.1971L179.895 74.6066C179.895 76.1133 179.798 77.6686 179.603 79.1754L179.895 80.8765L179.312 101.144C178.534 95.2632 177.853 90.1112 177.172 85.7369C176.491 81.3625 175.81 78.4949 175.032 77.1826C174.837 76.405 174.691 75.7731 174.594 75.1899C174.497 74.6066 174.448 74.2178 174.448 74.072L175.324 73.4887C174.74 72.7111 174.205 72.0792 173.767 71.496C173.281 70.9127 172.746 70.3295 172.211 69.7949C171.822 69.0172 171.336 67.8993 170.801 66.3926V66.6842C170.217 65.1775 169.536 63.5736 168.661 61.9697C167.786 60.3657 166.327 58.7132 164.235 56.9635C162.922 55.6512 161.171 54.3875 159.08 53.2696C156.989 52.1517 154.411 51.2769 151.396 50.6936C147.797 50.1104 144.344 49.4785 141.134 48.7009C137.876 47.9232 134.083 46.7081 129.706 45.007C123.043 45.5902 116.477 45.8819 110.009 45.8819C104.513 46.0763 100.039 48.3606 96.5861 52.735C92.9872 55.4082 89.6801 58.7618 86.7621 62.8445C83.7955 66.9272 81.7529 72.4195 80.6343 79.224C80.6343 81.5083 80.6343 83.7441 80.7802 85.9313C80.8775 88.1184 80.9261 90.257 80.9261 92.347C81.5097 91.1805 82.0933 90.014 82.6283 88.7989C83.2119 87.5838 83.7469 86.3687 84.3305 85.2508C86.2272 81.2653 88.367 77.62 90.7501 74.2664C93.1331 70.9613 95.6621 68.2395 98.3369 66.1496C101.206 63.6708 104.951 61.8725 109.62 60.7546C114.289 59.6367 119.93 59.0534 126.593 59.0534C128.295 59.2479 129.997 59.4909 131.748 59.7825C133.45 60.0741 135.152 60.3171 136.903 60.5116C138.022 60.706 139.189 60.8518 140.308 60.949C141.475 61.0462 142.593 61.192 143.712 61.3864C149.402 62.3585 154.654 65.4691 159.421 70.8155L162.825 78.2519C166.813 80.7307 169.536 83.5011 170.947 86.5145C172.357 89.5765 173.378 92.4928 173.962 95.3604C173.962 95.7492 173.962 96.2839 174.108 96.9157C174.205 97.5962 174.351 98.0822 174.546 98.471C174.74 100.367 174.983 102.165 175.275 103.866C175.567 105.567 175.616 107.122 175.421 108.435C175.032 111.108 174.497 113.635 173.865 115.968C173.184 118.35 172.406 120.391 171.433 122.092C170.46 123.988 169.39 125.835 168.175 127.633C166.91 129.432 165.548 131.278 164.041 133.174C160.442 137.354 156.503 139.736 152.32 140.319C150.812 140.513 149.208 140.853 147.603 141.339C145.998 141.825 144.393 142.457 142.885 143.186C140.988 143.381 138.946 143.381 136.757 143.186C134.569 142.992 132.332 142.798 130.046 142.603C127.76 142.214 125.766 142.02 124.064 142.02C122.167 142.02 119.979 141.437 117.498 140.319C115.018 139.201 112.927 137.937 111.225 136.625C103.784 150.866 96.4402 165.107 89.0965 179.25C81.7529 193.394 74.4092 207.635 66.9683 221.876L26.7484 229.555L20.7665 219.008H19.6479L19.9397 217.307L18.2376 214.148L20.5233 214.439L25.9216 186.784L31.3686 187.659L28.791 213.03L27.6725 215.606L66.7738 221.292C68.0869 212.738 69.4972 203.844 70.9076 194.609C72.318 185.374 73.7284 176.188 75.0415 166.954C76.3546 157.719 77.7649 148.581 79.1753 139.444C80.5857 130.306 81.9961 121.461 83.3092 112.906L103.832 122.044L103.93 121.995ZM129.025 79.5156C134.18 81.4111 138.362 83.7927 141.572 86.6603C144.782 89.5279 147.359 92.9302 149.256 96.9157C147.943 103.186 146.192 107.997 144.101 111.302C142.01 114.607 138.946 116.309 134.958 116.309C133.256 116.309 131.456 115.92 129.56 115.191C122.702 116.163 117.742 114.802 114.726 111.205C111.662 107.609 110.447 101.776 111.03 93.8051C111.225 83.9385 115.699 79.6614 124.453 80.9737L129.025 79.5642V79.5156ZM122.167 7.09614C121.778 5.97825 121.292 4.81176 120.757 3.69388C120.222 2.57599 119.492 1.3123 118.763 0C125.231 1.70113 131.213 3.49946 136.757 5.39501C142.253 7.29055 147.408 9.38051 152.174 11.6649C148.77 10.547 144.831 9.62353 140.454 8.94307C136.076 8.26262 131.31 7.77659 126.204 7.38776L124.21 6.80451C123.821 6.80451 123.48 6.85312 123.189 6.95032C122.897 7.04753 122.556 7.09614 122.167 7.09614ZM123.043 103.769V104.352C123.043 106.053 123.675 107.171 124.891 107.609C126.107 108.095 128.149 108.338 131.019 108.338C135.007 109.115 137.779 108.629 139.286 106.928C139.675 106.15 140.016 105.421 140.308 104.644C140.599 103.866 140.745 103.234 140.745 102.651C140.745 101.533 140.454 100.075 139.87 98.3738C140.259 96.4783 140.356 95.0688 140.162 94.0967C139.773 94.0967 139.335 94.0967 138.897 93.9509C138.411 93.8537 137.973 93.7079 137.633 93.5134C136.855 93.319 136.222 93.1732 135.639 93.076C135.055 92.9788 134.374 92.9302 133.645 92.9302C130.581 93.319 128.149 94.1939 126.204 95.652C124.259 97.1101 123.529 99.1029 123.918 101.776L123.043 103.769ZM192.929 62.6987C192.929 41.2159 179.312 24.2046 152.126 11.6649H152.417C155.627 12.637 158.983 13.9006 162.387 15.5046C165.792 17.1085 169.05 18.8582 172.114 20.8024C175.129 22.6979 178.047 24.5935 180.819 26.489C183.591 28.3845 185.926 29.9885 187.823 31.3494V31.0577C189.33 32.1756 190.789 33.3907 192.102 34.6058C193.415 35.8209 194.68 37.3276 195.798 39.0287V38.4455L200.662 43.3059C201.245 44.0835 201.78 44.8126 202.364 45.5902C202.948 46.3679 203.531 47.0969 204.066 47.8746C204.455 48.6523 204.844 49.2355 205.185 49.7215C205.574 50.2076 206.06 50.7422 206.595 51.2769C208.686 53.9501 210.486 58.0328 211.993 63.525C212.188 64.1082 212.382 64.6429 212.577 65.2261C212.771 65.8094 212.966 66.2954 213.161 66.6356C213.744 68.3368 214.23 69.9407 214.717 71.496C215.203 73.0027 215.592 74.4608 215.981 75.7731C216.759 77.6687 217.489 80.0016 218.267 82.772C219.045 85.5425 219.872 88.4101 220.845 91.4721L244.529 219.251L192.88 229.215L181.743 223.237L183.445 218.376L214.571 220.661C210.972 194.998 207.325 169.432 203.726 143.964C200.127 118.496 196.479 92.9302 192.88 67.2675V62.6987H192.929ZM179.263 219.251C178.679 219.64 178.242 219.98 177.999 220.272C177.707 220.563 177.269 220.904 176.734 221.292L179.603 101.241C179.798 102.748 179.993 104.401 180.187 106.102C180.382 107.803 180.576 109.504 180.771 111.254L178.193 218.182L179.312 219.3L179.263 219.251ZM179.263 219.251L178.971 218.96V218.668L180.09 219.786L179.214 219.203L179.263 219.251Z" fill="var(--fill-0, #06AB6E)"/>
<path id="Vector_2" d="M398.698 142.265C397.919 142.265 397.482 142.168 397.287 141.973C396.169 141.779 394.904 141.876 393.591 142.265C389.603 142.265 386.004 142.411 382.892 142.702C379.731 142.994 376.958 143.334 374.478 143.723C372.387 143.918 370.393 144.598 368.496 145.716C366.599 146.834 364.897 148.292 363.341 149.993C359.937 153.59 357.554 157.041 356.192 160.248C355.608 161.22 355.219 162.387 355.073 163.796C354.879 165.206 354.782 167.004 354.782 169.094V172.108C354.782 173.177 354.879 174.246 355.073 175.364C355.268 178.766 355.56 181.877 355.949 184.647C356.338 187.418 356.727 190.042 357.067 192.473C357.651 194.368 358.624 196.361 360.083 198.451C361.493 200.541 363.438 202.728 365.919 205.012C370.879 209.581 375.451 212.157 379.633 212.692C382.114 212.886 384.934 213.226 388.047 213.712C391.208 214.198 394.661 214.733 398.454 215.268C403.415 215.462 408.084 215.122 412.558 214.247C417.032 213.372 420.972 211.525 424.425 208.706C428.024 205.839 431.087 202.242 433.568 197.868C434.881 195.583 435.562 192.375 435.562 188.147C435.562 186.835 435.464 185.182 435.27 183.287C435.075 181.391 434.784 179.301 434.395 177.017C435.319 176.433 435.854 175.802 435.951 175.024C436.048 174.246 435.951 173.517 435.805 172.74C433.13 158.11 430.407 143.529 427.683 128.948C424.911 114.415 422.139 99.9313 419.27 85.4474C419.659 82.3853 419.853 79.3719 419.853 76.3099C419.853 58.2293 414.601 43.6968 404.145 32.6638C393.688 21.6308 377.688 13.757 356.192 8.99381C356.776 8.99381 357.311 8.99381 357.894 8.848C358.478 8.75079 359.11 8.70219 359.888 8.70219C368.253 9.28543 375.499 10.2575 381.579 11.7156C387.658 13.1251 392.716 14.9235 396.704 17.0134C400.692 19.1034 405.02 21.9224 409.689 25.4218C414.358 28.9213 419.415 33.1498 424.96 38.1074V41.2666L425.251 41.8499C428.121 45.1063 430.698 48.3628 433.081 51.6678C435.465 54.9729 437.118 58.3751 438.091 61.7774V61.4858C438.48 63.1869 439.015 65.0824 439.647 67.1724C440.328 69.2624 441.203 71.4495 442.37 73.7339C443.538 76.4071 444.413 78.9831 445.094 81.4133C445.775 83.8921 446.115 86.2736 446.115 88.558L435.854 179.252C440.425 182.509 443.538 185.911 445.288 189.508C446.991 193.104 447.38 196.653 446.407 200.055C444.121 206.325 440.522 211.865 435.562 216.58C431.574 220.177 427.489 223.044 423.306 225.134C419.124 227.224 414.552 228.294 409.591 228.294C408.278 228.294 406.771 228.196 405.166 228.002C403.561 227.807 402.053 227.613 400.74 227.419C399.962 227.419 399.135 227.419 398.163 227.564C397.19 227.662 396.363 227.71 395.585 227.71C393.105 227.71 390.479 227.37 387.755 226.69C384.983 226.009 382.454 225.232 380.168 224.259C374.284 221.781 370.539 219.01 369.031 215.997C368.448 215.608 367.961 215.171 367.621 214.733C367.232 214.247 366.843 213.81 366.454 213.469V213.761C363.779 211.671 361.153 209.387 358.624 206.908C356.046 204.429 354.101 201.513 352.788 198.062C352.204 196.75 351.669 195.389 351.085 194.077C350.502 192.764 349.821 191.695 349.091 190.917C347.973 189.216 347.389 186.835 347.389 183.773C347.389 182.266 347.487 180.613 347.681 178.912C348.07 176.433 348.459 174.052 348.8 171.767C349.189 169.483 349.675 167.102 350.21 164.623C350.405 163.116 350.696 161.609 351.085 160.2C351.474 158.79 351.766 157.284 351.961 155.777C352.739 151.597 354.587 148.195 357.505 145.667C360.472 143.091 364.411 141.244 369.323 140.126C371.025 139.009 372.776 138.085 374.624 137.405C376.423 136.724 378.223 136.238 380.071 135.849C381.87 135.461 383.573 135.266 385.226 135.266C386.88 135.266 388.144 135.461 389.068 135.849H392.473C393.64 135.849 394.564 135.947 395.342 136.141H397.336L380.217 70.526C383.816 71.1093 386.88 71.5467 389.36 71.7897C391.84 72.0814 393.64 72.2272 394.758 72.2272C395.342 72.2272 395.731 72.5188 395.925 73.102C395.731 68.3389 394.856 64.5478 393.348 61.6802C391.84 58.8126 390.187 56.8198 388.485 55.7019C386.588 54.584 383.378 53.1259 378.904 51.4248C374.429 49.7237 369.323 48.1198 363.633 46.5644V46.8561C361.931 46.4672 360.326 46.1756 358.77 45.9812C357.262 45.7868 355.803 45.6896 354.49 45.6896C344.958 46.2728 336.593 49.189 329.395 54.5354C324.045 58.5209 321.419 63.5757 321.419 69.6512C321.419 70.7691 321.614 72.616 322.003 75.0462L325.164 97.8413L283.777 87.0027C282.658 87.3915 281.442 87.7803 280.226 88.1206C278.962 88.5094 277.795 88.8982 276.676 89.2385C276.287 89.6273 275.703 90.2105 274.974 90.9396C274.196 91.7172 273.418 92.4949 272.542 93.3698C271.667 94.2446 270.5 95.3139 268.992 96.6262L274.974 71.8383C274.196 69.1651 273.71 66.5891 273.418 64.159C273.126 61.6802 272.98 59.2986 272.98 57.0142C272.98 54.1466 273.32 51.3762 274.001 48.6058C274.682 45.8354 275.46 43.308 276.433 41.0236C278.719 36.6493 281.491 32.8096 284.701 29.456C287.911 26.1509 291.753 23.0403 296.13 20.1727C300.312 18.6659 304.105 17.2078 307.558 15.8955C310.963 14.5832 314.221 13.514 317.285 12.7363C320.495 11.7642 324.434 10.7435 329.006 9.57705C333.577 8.41057 338.732 7.19547 344.423 5.88318C345.395 6.272 346.271 6.61223 347.146 6.90385C348.022 7.19547 348.8 7.43849 349.578 7.63291C350.891 10.6949 351.231 12.9793 350.599 14.486C349.918 15.9927 348.459 16.6732 346.173 16.4788C344.666 16.4788 343.304 16.4788 342.185 16.333C341.067 16.2358 339.997 16.0899 339.024 15.8955C328.763 16.6732 320.835 18.0827 315.34 20.1727C312.665 21.1447 309.893 22.5542 307.072 24.4498C304.203 26.3453 301.285 28.5325 298.221 31.0113C295.546 33.6845 293.066 36.6979 290.78 40.1488C288.494 43.5996 286.792 47.1963 285.625 50.9874C284.506 54.584 283.485 58.2293 282.609 61.826C281.734 65.4227 281.053 68.5819 280.47 71.2551C280.47 72.7618 280.47 74.1227 280.324 75.2406C280.226 76.3585 280.129 77.525 280.032 78.6429C279.935 79.7607 279.837 80.9758 279.74 82.1909C279.643 83.4546 279.594 84.8155 279.594 86.3222C284.895 86.3222 290.002 86.4194 294.865 86.6139C299.728 86.8083 304.884 86.9055 310.428 86.9055C310.233 84.4267 310.039 81.7535 309.844 78.9345C309.65 76.0669 309.455 73.4423 309.261 70.9635C309.066 69.9914 308.969 68.9707 308.969 67.8042V64.402C308.969 46.7103 317.82 37.8644 335.523 37.8644C336.836 37.8644 338.246 37.8644 339.657 38.0102C341.067 38.1074 342.575 38.2532 344.082 38.4476C347.876 37.3297 351.474 36.4549 354.782 35.8716C358.089 35.2884 361.298 34.9968 364.314 34.9968C374.381 34.9968 382.308 38.3504 387.998 44.9605C392.375 50.1125 395.925 55.5075 398.698 61.1941C401.47 66.8808 403.318 72.616 404.242 78.3026C405.214 83.2602 406.09 88.4608 406.965 94.0016C407.841 99.5424 408.765 105.035 409.835 110.527C410.905 116.068 411.829 121.56 412.704 127.052C413.579 132.544 414.455 137.696 415.428 142.459C411.051 142.265 407.5 142.168 404.728 142.168C401.956 142.168 400.108 142.362 399.184 142.751L398.892 141.876L398.698 142.265ZM352.739 8.50777C353.857 8.70219 355.025 8.8966 356.143 9.09102H354.879C354.392 9.09102 353.858 8.99381 353.323 8.7994C352.933 8.7994 352.496 8.79939 352.058 8.65358C351.572 8.55638 351.037 8.41057 350.502 8.21615C350.307 8.21615 349.918 8.11894 349.335 7.92453C350.502 8.11894 351.62 8.31336 352.739 8.50777ZM393.834 197.284C391.354 196.701 389.068 195.632 386.977 194.028C384.886 192.424 383.038 190.528 381.433 188.341C379.828 186.154 378.563 183.724 377.737 181.051C376.861 178.378 376.569 175.656 376.715 172.788C376.521 167.49 377.737 163.699 380.411 161.512C383.086 159.325 386.977 158.596 392.132 159.374C395.391 159.568 398.26 160.054 400.837 160.783C403.415 161.561 405.555 162.727 407.257 164.331C408.959 165.935 410.175 167.928 410.807 170.309C411.488 172.691 411.634 175.51 411.245 178.718C413.336 189.556 407.938 195.826 395.001 197.527L393.883 197.236L393.834 197.284ZM404.388 177.065C404.582 175.753 404.679 174.83 404.679 174.343C404.679 173.857 404.582 173.517 404.388 173.323C403.999 172.934 403.61 172.642 403.269 172.448C402.88 172.254 402.296 172.156 401.567 172.156C401.178 172.156 400.837 172.205 400.546 172.302C400.254 172.399 400.011 172.448 399.816 172.448C397.919 172.642 396.46 172.885 395.391 173.177C394.321 173.469 393.445 174.198 392.667 175.316C392.278 176.288 391.986 177.114 391.792 177.892C391.597 178.669 391.403 179.593 391.208 180.759C391.208 181.537 391.159 182.266 391.062 183.044C390.965 183.821 390.819 184.647 390.624 185.62C390.43 186.203 390.479 186.543 390.77 186.64C391.062 186.737 391.403 186.883 391.792 187.078L393.786 187.369C393.786 187.369 394.175 187.369 394.369 187.223C394.564 187.126 394.758 187.078 394.953 187.078V192.764L404.388 177.065Z" fill="var(--fill-0, #06AB6E)"/>
<path id="Vector_3" d="M602.131 19.6363C608.21 22.8927 613.268 26.1491 617.256 29.4542C621.244 32.7592 623.919 35.6755 625.232 38.1542C626.01 38.5431 626.788 38.9805 627.663 39.4179C628.539 39.904 629.22 40.4386 629.803 40.9733C632.089 43.452 634.18 45.9794 636.077 48.5068C637.974 51.0828 639.773 53.8046 641.475 56.6236C634.618 51.1314 625.767 45.3476 614.921 39.3693C604.076 33.3911 590.945 26.9754 575.528 20.1223C578.933 19.539 581.802 19.1016 584.088 18.7128C580.829 17.7407 577.474 16.8658 573.972 15.991C570.471 15.1161 566.774 14.3385 562.981 13.5608H558.993L553.303 13.8524C551.406 13.4636 549.996 13.3664 549.023 13.5608V13.2692C543.333 14.5815 538.081 15.748 533.315 16.6714C528.548 17.6435 524.56 18.2753 521.351 18.6642C518.481 19.9765 516.098 21.2888 514.202 22.5039C512.305 23.719 510.505 24.9341 508.755 26.0519C507.052 27.1698 505.448 28.2391 503.891 29.2112C502.384 30.1832 500.925 31.2039 499.612 32.3704L500.195 32.662C499.417 33.4397 498.833 34.1687 498.347 34.9464C497.861 35.7241 497.423 36.4531 497.083 37.2308L496.499 36.9392C495.186 38.6403 493.824 40.5358 492.511 42.6258C491.198 44.7157 489.933 47.0001 488.815 49.4789C487.307 52.1521 486.529 54.8253 486.529 57.4499C486.529 57.8387 486.529 58.2276 486.675 58.5678C486.772 58.9566 486.821 59.3454 486.821 59.6857C491.781 61.1924 496.304 62.6991 500.39 64.1086C504.475 65.5181 508.998 67.0248 513.958 68.5315L515.952 65.1293C516.147 58.8594 517.557 53.6588 520.232 49.5761C522.907 45.4934 526.214 42.0425 530.202 39.1749C534.384 35.9671 539.053 33.7799 544.16 32.6134C549.509 31.6414 555.783 32.6134 562.981 35.481H566.969C573.632 35.481 579.419 36.7933 584.38 39.4665C589.34 42.1397 593.328 45.2504 596.344 48.8957C599.748 52.8812 602.423 57.9359 604.319 64.0114C604.903 66.879 605.633 69.3578 606.605 71.4478C601.11 77.1344 597.754 79.9534 596.635 79.8562C595.517 79.759 596.441 76.94 599.505 71.4478C600.088 70.4757 600.283 69.5522 600.088 68.5801C600.477 66.4902 599.796 64.0114 598.094 61.1438C596.003 57.5471 594.69 54.9711 594.106 53.4644C593.134 52.8812 591.869 52.3951 590.264 51.9091C588.659 51.423 586.957 50.8884 585.255 50.3538C584.137 49.9649 582.872 49.6247 581.559 49.3331C580.246 49.0415 578.981 48.7012 577.863 48.3124C576.744 48.3124 575.626 48.3124 574.604 48.1666C573.534 48.0694 572.562 48.0208 571.589 48.0208C569.887 47.632 568.331 47.1459 567.018 46.6113H567.309C566.337 46.4169 565.461 46.1739 564.586 45.8822C563.71 45.5906 562.835 45.542 561.862 45.7364C557.485 45.7364 553.789 46.2711 550.725 47.2917C547.661 48.361 544.743 49.5275 541.874 50.8398C541.29 51.0342 540.755 51.3258 540.172 51.7147C539.588 52.1035 539.053 52.3951 538.47 52.5895L538.761 52.2979C535.698 53.6102 533.655 55.9432 532.634 59.2968C531.564 62.6019 531.077 66.5874 531.077 71.1075C530.299 71.8852 530.105 72.6142 530.494 73.3919C530.494 73.5863 530.494 74.2668 530.64 75.3847C530.737 76.5025 530.786 77.183 530.786 77.3774L480.012 74.5098L481.179 67.3651C481.179 67.3651 480.79 67.5595 480.596 67.3651C480.596 66.2472 480.596 65.3723 480.45 64.7891C480.353 64.2058 480.304 63.7198 480.304 63.2337V61.3868C479.915 55.8946 480.596 50.3538 482.298 44.8616C484 39.3693 486.967 34.0229 491.149 28.8709C491.733 29.4542 492.268 29.8916 492.851 30.1346C493.435 30.4263 493.873 30.7665 494.262 31.1553C494.456 30.7665 494.651 30.4263 494.845 30.1346C495.04 29.843 495.332 29.5028 495.721 29.114L497.715 30.8151L496.013 28.2391C496.596 27.8503 497.131 27.267 497.715 26.538C499.028 24.448 500.876 22.4067 503.113 20.4139C505.399 18.4212 507.685 16.6714 509.97 15.1161C511.089 14.144 512.402 13.4636 513.812 12.9776C515.223 12.4915 516.828 12.2485 518.53 12.2485C521.399 11.1306 525.29 9.86692 530.251 8.55462C532.731 8.16579 535.017 7.82556 537.108 7.53394C539.199 7.24232 540.999 7.19371 542.555 7.38813H546.543C547.856 7.38813 549.023 7.48534 549.947 7.67975C550.531 7.67975 551.066 7.72835 551.649 7.82556C552.233 7.92277 552.671 7.97137 553.06 7.97137C554.762 7.97137 556.513 8.11718 558.361 8.40881C560.16 8.70043 562.008 9.23507 563.905 9.96412C567.698 10.5474 571.249 11.0334 574.458 11.3736C577.668 11.7625 580.44 12.0541 582.726 12.2485C584.817 13.0262 586.617 13.658 588.173 14.2412C589.681 14.8245 590.945 15.2133 591.869 15.4077L591.286 17.9837H592.988C596.781 17.9837 599.845 18.4698 602.131 19.3932V19.6363ZM610.982 81.2171C610.01 79.516 609.231 77.912 608.551 76.3567C607.87 74.85 607.286 73.1975 606.702 71.4964C608.21 69.9897 609.912 68.1913 611.858 66.1014C613.754 64.0114 615.846 61.6298 618.131 58.9566C617.159 72.8573 616.235 86.2233 615.262 99.1518C614.289 112.08 613.365 124.912 612.393 137.646C611.42 150.38 610.496 163.211 609.523 176.14C608.551 189.069 607.626 202.386 606.654 216.044C605.535 217.162 604.465 218.279 603.493 219.3C602.52 220.321 601.499 221.439 600.331 222.557L610.885 81.1199L610.982 81.2171ZM608.988 221.244L605.292 218.377L609.864 217.21H610.447L612.149 216.627H612.441L633.84 212.35L632.138 224.598L618.715 228.583L609.572 221.439V221.73L608.988 221.147V221.244ZM644.393 142.847C643.615 154.268 642.934 165.544 642.254 176.772C641.573 187.999 640.843 199.421 640.114 210.989L633.84 212.398L644.393 142.798V142.847ZM642.108 58.1304C642.108 58.1304 641.816 57.6929 641.816 57.4013C641.816 57.1097 641.719 56.8667 641.524 56.6722C643.032 57.9845 644.442 59.2482 645.658 60.3661C646.874 61.484 648.09 62.6505 649.208 63.7684C649.014 65.4695 648.868 67.1706 648.77 68.9204C648.673 70.6215 648.527 72.3226 648.333 74.0724C647.214 70.4757 646.144 67.3165 645.171 64.6432C644.199 61.97 643.178 59.7829 642.01 58.0818L642.108 58.1304ZM644.393 142.847C645.172 131.425 645.804 120.051 646.387 108.63C646.971 97.2077 647.603 85.7372 648.381 74.121C649.159 76.2109 649.84 78.4467 650.521 80.8283C651.202 83.2098 651.883 85.7372 652.661 88.3618L644.393 142.847Z" fill="var(--fill-0, #06AB6E)"/>
<path id="Vector_4" d="M898.358 187.612C892.668 182.655 888.048 178.669 884.497 175.656C880.996 172.594 878.467 170.407 876.959 169.094L876.084 170.261C876.084 169.678 876.084 169.289 875.938 169.094C875.841 168.9 875.792 168.511 875.792 167.977C873.701 166.47 871.512 164.769 869.226 162.825C866.941 160.929 864.363 158.645 861.542 155.972L860.959 156.846C857.7 155.145 854.247 152.812 850.551 149.847C846.855 146.883 842.721 143.432 838.15 139.446C830.174 131.864 821.42 127.83 811.887 127.49V126.323C810.38 126.323 809.65 126.323 809.748 126.177C809.845 126.08 809.748 125.934 809.31 125.74C808.726 125.546 808.337 125.351 808.191 125.157L807.9 128.024L802.209 127.441C802.209 125.546 801.237 124.768 799.34 125.157L808.191 52.1541C803.231 53.272 800.41 52.7373 799.632 50.453L799.924 48.1686C799.34 44.5719 798.562 41.0725 797.492 37.7674C796.422 34.4624 795.158 31.4489 793.65 28.7757C792.142 26.1025 790.489 23.7209 788.787 21.631C787.084 19.541 785.382 17.9371 783.631 16.7706C781.929 15.993 779.984 15.1181 777.795 14.0488C775.607 13.0281 773.273 12.1047 770.792 11.327V11.0354C770.403 11.0354 770.014 10.9382 769.674 10.7438C769.285 10.5493 768.993 10.3549 768.798 10.1605C766.318 9.57728 763.74 9.13984 761.114 8.75101C758.439 8.36218 755.716 8.16777 752.846 8.16777H748.859C745.454 8.16777 741.904 8.45939 738.305 9.04264C733.734 10.0147 730.037 12.3477 727.168 16.1874H727.46C727.071 16.5762 726.779 16.965 726.584 17.3053C726.39 17.6941 726.001 18.1801 725.466 18.7148C724.347 20.2215 723.277 21.631 722.305 22.8461C721.332 24.1098 720.505 25.3735 719.727 26.6858C718.414 29.359 717.247 32.664 716.323 36.6495V38.3506C717.101 42.9194 718.171 47.3423 719.581 51.6194C720.992 55.8966 722.888 59.4446 725.125 62.3123C726.438 63.819 728.287 65.3257 730.67 66.7352C733.053 68.1447 735.971 69.457 739.375 70.5749C742.779 71.6928 746.816 72.6648 751.339 73.4425C755.91 74.2201 761.065 74.5604 766.756 74.5604L768.458 113.638C765.199 119.519 761.066 122.775 755.91 123.31C747.934 123.31 740.834 124.671 734.658 127.441C728.481 130.212 723.083 134.051 718.511 139.009C714.329 143.772 711.848 148.73 711.119 153.833C710.73 156.701 710.292 159.86 709.854 163.408C709.368 166.907 708.833 170.796 708.298 174.976C708.104 176.482 707.958 177.94 707.86 179.253C707.763 180.565 707.715 181.829 707.715 182.947C707.715 200.249 716.371 208.901 733.685 208.901C735.776 208.901 738.159 208.755 740.834 208.463C743.509 208.172 746.427 207.734 749.685 207.2L754.549 214.053H756.251C757.029 214.247 757.515 214.296 757.807 214.199C758.099 214.101 758.537 214.053 759.072 214.053H760.482C761.066 214.053 761.601 214.15 762.184 214.345C784.993 211.477 796.519 199.034 796.714 176.968C796.714 172.788 796.714 168.025 796.86 162.727C796.957 157.43 797.006 152.666 797.006 148.487C802.696 149.604 808.921 152.18 815.681 156.166C822.441 160.151 829.444 165.498 836.642 172.157C841.214 174.635 845.201 177.26 848.606 179.982C852.01 182.752 855.074 185.814 857.749 189.265L857.457 188.973C859.743 191.841 862.369 195.195 865.287 199.083C868.254 202.971 871.512 207.297 875.111 212.06L876.23 213.47C878.904 213.275 881.677 212.935 884.643 212.449C887.61 211.963 890.577 211.525 893.64 211.185C896.656 210.796 899.768 210.359 902.929 209.922C906.091 209.436 908.96 208.998 911.635 208.658L913.629 181.829L919.319 182.12L916.741 221.489L911.294 221.198V218.622L875.354 222.899L872.777 217.747L873.068 218.33C870.588 215.268 868.156 212.206 865.773 209.047C863.39 205.887 861.056 202.728 858.77 199.472C856.874 196.799 854.977 194.32 853.08 192.035C851.183 189.751 849.287 187.564 847.39 185.474C846.612 185.474 845.98 185.182 845.396 184.599C844.812 184.016 844.132 183.481 843.402 182.898V183.19C842.818 182.801 842.332 182.461 841.992 182.169C841.603 181.877 841.116 181.634 840.581 181.44C836.593 178.572 832.897 176.191 829.444 174.295C826.04 172.4 822.781 170.893 819.717 169.726C818.015 168.949 816.459 168.268 815.146 167.588C813.833 166.907 812.471 166.13 811.158 165.158C810.963 168.414 810.769 171.427 810.574 174.295C810.38 177.163 810.088 180.468 809.699 184.259C810.623 184.064 811.353 184.162 811.839 184.55C812.325 184.939 812.568 185.474 812.568 186.106C812.568 186.738 812.52 187.467 812.422 188.244C812.325 189.022 812.179 189.848 811.985 190.82C812.179 201.076 807.9 208.998 799.146 214.49C795.158 216.969 790.537 219.837 785.334 223.19C780.081 226.495 774.537 230.189 768.652 234.175C761.99 232.279 756.251 230.53 751.387 228.877C746.524 227.273 742.39 225.766 738.986 224.454H739.278C736.214 223.336 733.247 221.927 730.28 220.323C727.314 218.719 724.347 216.775 721.283 214.49L719.289 212.789C717.587 211.817 715.934 210.699 714.426 209.387C712.918 208.075 711.508 206.519 710.292 204.818C709.028 203.117 708.006 201.416 707.131 199.666C706.256 197.916 705.672 196.361 705.283 194.806C705.088 193.688 704.651 192.424 704.018 191.112C703.338 189.8 702.657 188.244 701.879 186.543C700.906 184.259 700.468 181.683 700.468 178.864C700.468 176.385 700.76 173.906 701.344 171.427V171.719C701.927 166.421 702.462 161.561 703.046 157.187C703.629 152.812 704.164 148.827 704.748 145.23C705.526 141.439 706.936 138.037 709.028 135.121C711.119 132.156 713.891 129.92 717.295 128.413C720.311 127.101 723.229 125.74 726.001 124.428C728.773 123.115 731.448 121.755 734.123 120.442C736.797 118.936 739.959 117.818 743.655 117.186C747.351 116.505 751.29 116.36 755.521 116.748H760.676C761.455 112.18 762.184 107.854 762.962 103.771C763.74 99.6885 764.567 95.1683 765.54 90.2108C762.865 88.704 760.482 87.489 758.391 86.6627C756.299 85.7878 754.208 85.2046 752.117 84.8157C747.351 84.0381 743.655 82.9202 740.98 81.4135C738.5 79.9068 736.068 78.5459 733.685 77.428C731.302 76.3101 729.454 75.338 728.141 74.5604L723.277 69.1654C721.186 67.0754 719.289 65.0341 717.587 63.0413C715.885 61.0486 714.231 58.8128 712.724 56.334C711.411 54.244 710.633 52.3485 710.438 50.6474C710.244 48.9462 710.244 47.0507 710.438 44.9607V45.2524V42.3847C710.244 41.2669 710.098 40.149 710 39.1283C709.903 38.1076 710 36.8925 710.438 35.5802V33.5875C710.438 30.1852 711.362 26.1511 713.307 21.631C715.593 16.8678 718.56 13.4656 722.159 11.3756C723.666 10.4035 725.369 9.43147 727.314 8.36218C729.211 7.34151 731.302 6.22362 733.588 5.10574C735.679 3.98785 737.916 3.06439 740.299 2.38393C742.682 1.70348 745.114 1.31465 747.594 1.12024C749.88 1.31465 751.922 1.50907 753.722 1.70348C755.521 1.8979 757.272 2.18952 759.023 2.57835C761.309 3.35601 763.984 3.89065 766.999 4.27948C767.582 4.47389 768.166 4.5711 768.847 4.5711C769.528 4.5711 770.111 4.66831 770.695 4.86272C771.862 5.44596 772.543 5.78619 772.835 5.8834C773.127 5.9806 773.37 6.12642 773.564 6.32083L773.273 6.61245C774.78 7.1957 776.239 7.73034 777.552 8.16777C778.865 8.65381 780.227 9.09124 781.54 9.43147L781.832 9.72309C783.729 10.6952 785.48 11.7644 787.133 12.9795C788.738 14.2432 790.294 15.5069 791.851 16.8192C793.164 17.0136 794.136 17.4025 794.72 17.9371C795.303 18.5204 796.033 19.1522 797.006 19.9299C797.2 20.3187 797.492 20.6589 797.881 20.9505C798.27 21.2422 798.659 21.4852 799 21.6796L802.161 25.3735V25.0818C803.863 27.1718 805.371 29.4562 806.732 31.935C808.045 34.4137 809.115 37.2814 809.894 40.4892L809.602 40.1976C810.915 45.8842 812.374 50.6474 813.881 54.4385L808.191 124.865L811.353 123.456V122.338C811.936 122.143 812.422 122.046 812.763 122.046C815.049 121.463 817.334 121.56 819.62 122.338C821.906 123.115 824.386 124.233 827.061 125.74C830.076 127.636 833.043 129.191 835.912 130.455C838.782 131.718 841.505 132.593 844.18 133.176C847.585 138.328 850.843 141.633 853.907 143.14C855.609 144.647 857.311 146.251 859.062 147.855C860.764 149.459 862.466 150.965 864.217 152.278L863.925 152.569L864.509 152.278L864.217 152.569C866.503 154.854 868.546 157.138 870.345 159.422C872.144 161.707 873.895 163.894 875.646 165.984L869.956 120.053L875.354 118.644L898.455 187.661L898.358 187.612ZM740.834 163.068C740.639 153.541 748.275 147.271 763.643 144.258L766.804 148.535L765.394 175.073C764.81 178.669 763.74 181.683 762.135 184.064C760.531 186.446 757.71 188.196 753.722 189.362C748.761 188.585 745.065 186.592 742.585 183.384C740.104 180.176 738.889 174.927 738.889 167.685L740.591 165.692V164.429C740.591 164.137 740.688 163.699 740.883 163.165L740.834 163.068ZM757.369 25.9081C758.293 25.9081 758.974 26.1025 759.363 26.4914C765.832 27.0746 770.209 28.6785 772.494 31.3517C774.78 34.0249 776.288 37.816 777.066 42.7736C774.586 51.7167 769.285 56.1882 761.065 56.1882H759.217C758.731 56.1882 758.196 56.091 757.661 55.8966C755.959 57.0145 754.062 57.5977 751.971 57.5977C750.852 57.5977 749.734 57.4033 748.713 57.0145C747.643 56.6256 746.573 56.1396 745.454 55.6049C741.855 53.7094 740.007 50.5502 740.007 46.1758C740.007 45.3982 740.007 44.6205 740.153 43.7457C740.25 42.8708 740.396 41.9959 740.591 41.0238C740.007 37.2328 740.834 34.0735 743.023 31.5947C745.211 29.116 748.956 27.026 754.305 25.3249L757.467 26.1997C757.078 25.8109 757.078 25.7137 757.467 25.9081H757.369ZM755.667 40.4406C754.695 41.0238 753.868 43.9401 753.09 49.2865C753.284 49.4809 753.576 49.6753 753.965 49.8697C754.743 50.0641 755.764 50.3071 757.126 50.5988C758.439 50.8904 759.704 50.8418 760.822 50.453C761.795 50.6474 762.719 50.5988 763.692 50.3071C764.664 50.0155 765.588 49.6753 766.561 49.2865H766.269C767.582 48.3144 768.166 46.5161 767.971 43.8915V41.8987C767.971 41.8987 768.069 41.4127 768.263 41.0238C768.263 40.635 768.361 40.2462 768.555 39.906C768.361 39.3227 767.874 38.9339 767.145 38.7881C766.367 38.5937 765.637 38.4965 764.859 38.4965H763.157C761.455 38.8853 759.947 39.2255 758.731 39.5171C757.467 39.8088 756.494 40.149 755.716 40.5378L755.667 40.4406ZM756.834 164.234C755.862 165.012 755.229 165.741 754.84 166.518C754.451 172.011 754.354 175.17 754.549 175.948C754.354 178.426 754.354 180.614 754.549 182.509H754.84C756.543 182.704 757.758 181.829 758.391 179.933C759.072 178.038 759.217 175.559 758.828 172.497L759.12 171.087L759.704 161.95C759.12 162.339 758.585 162.679 758.148 162.97C757.661 163.262 757.223 163.699 756.883 164.234H756.834ZM875.792 16.1874L908.036 18.1801L908.328 24.45C909.106 25.2277 909.835 26.1025 910.613 27.1718C911.392 28.2411 911.927 29.0187 912.316 29.602V29.8936C907.355 29.8936 902.394 29.8936 897.337 29.7478C892.279 29.6506 887.318 29.602 882.357 29.602V28.7271C881.579 28.5327 880.947 28.3383 880.363 28.1439C879.78 27.9495 878.856 27.755 877.494 27.5606V29.5534H869.518L875.792 16.1388V16.1874ZM882.357 29.602C881.579 36.0663 880.898 42.4334 880.218 48.7032C879.537 54.9731 878.856 61.1458 878.078 67.2212L877.494 29.5534H882.357V29.602ZM912.316 29.8936H920C918.103 44.1345 916.304 58.2781 914.601 72.2274C912.899 86.2253 911.197 100.029 909.446 113.735L912.316 29.8936Z" fill="var(--fill-0, #06AB6E)"/>
<path id="Vector_5" d="M12.7907 406.96C17.6541 398.697 20.4748 392.719 21.2529 388.976C21.7393 386.984 22.2743 385.185 22.8579 383.533C23.4415 381.929 23.9278 380.616 24.4628 379.596C25.095 378.478 25.9218 377.311 26.9917 376.145C28.0616 374.978 29.2775 373.812 30.6392 372.694C33.6545 370.215 36.5725 368.368 39.4419 367.25L39.2473 367.445C41.2413 366.181 43.6244 365.209 46.3965 364.431C49.1686 363.654 52.2325 363.071 55.6855 362.536C59.1384 362.05 62.9319 361.661 67.0171 361.418C71.1509 361.175 75.5766 360.932 80.3426 360.689C81.218 363.168 80.9749 364.577 79.6131 364.82C79.2241 364.82 78.8836 364.82 78.4946 364.917C78.1055 364.966 77.7651 365.015 77.376 365.015C73.6312 365.501 70.1782 366.035 67.0657 366.521C63.9532 367.007 61.181 367.639 58.798 368.417C56.415 369.049 53.7401 369.875 50.7248 370.944C47.7096 372.014 44.7916 373.18 41.9222 374.395C39.296 375.659 36.9616 377.068 34.9676 378.721C32.9736 380.325 31.466 382.075 30.4447 383.97C28.3048 388.101 26.0677 393.399 23.6846 399.912C20.3289 410.313 16.9246 420.666 13.5689 431.067C10.2131 441.468 6.8088 451.869 3.45309 462.368L0.0973816 461.25L12.8394 407.057L12.7907 406.96ZM68.3788 436.219C70.1296 437.58 72.1236 438.746 74.3121 439.67C76.5006 440.593 78.9809 441.079 81.7044 441.079C82.7257 441.079 83.9415 440.934 85.4492 440.691C86.1787 440.836 87.0054 440.885 87.8808 440.885H92.9387C93.6682 440.885 94.495 440.836 95.3704 440.691C96.878 440.545 98.1911 440.205 99.3097 439.67C100.428 439.135 101.352 438.406 102.13 437.531V437.726C103.881 435.49 105.243 433.108 106.167 430.678C107.091 428.248 107.431 425.283 107.188 421.784C107.042 418.916 106.702 416.097 106.07 413.327C105.583 410.848 103.93 408.709 101.206 406.96C99.6015 405.842 97.9966 404.821 96.5376 403.849C95.03 402.926 93.6682 402.002 92.4037 401.127C90.0207 399.523 86.665 398.503 82.288 398.114C80.5372 397.871 79.0782 397.725 77.9596 397.725C69.9351 397.725 64.0504 402.391 60.3056 411.771L45.8615 438.017L42.6517 435.976C43.3812 434.955 44.1107 434.081 44.7916 433.351C45.4724 432.622 46.2506 431.65 47.126 430.532C46.7369 427.908 46.2992 425.04 45.8129 421.881C45.3265 418.77 44.8402 415.562 44.4025 412.306C43.9648 409.05 43.4785 405.89 42.9921 402.731C42.5058 399.621 42.0681 396.753 41.679 394.08C43.2839 395.684 44.5484 397.19 45.4238 398.503C46.2992 399.815 46.7369 401.224 46.7369 402.731V402.148C46.591 401.516 46.4937 400.884 46.4451 400.252C46.3965 399.621 46.3478 399.086 46.3478 398.551C46.3478 397.288 46.4937 396.072 46.8342 394.809C47.126 393.545 47.5637 392.33 48.05 391.066C48.9254 389.171 50.0926 387.567 51.6002 386.206C53.1079 384.845 54.7128 383.776 56.4636 382.998C58.0685 382.512 59.9166 381.977 61.9105 381.394C63.9045 380.811 65.6067 380.471 66.9684 380.373C68.3302 380.228 70.1782 379.887 72.5126 379.353C74.8471 378.77 77.6192 377.992 80.8776 377.02L82.7743 377.943C83.0175 378.089 83.212 378.138 83.3579 378.138H83.5524L83.9415 378.332C92.9387 379.45 100.477 382.172 106.556 386.4C112.635 390.629 117.11 396.51 119.979 404.043L118.471 404.967C118.471 405.988 118.423 406.96 118.277 407.98L118.471 409.098L118.082 422.416C117.596 418.527 117.11 415.174 116.672 412.306C116.234 409.438 115.748 407.543 115.261 406.668C115.116 406.182 115.018 405.745 114.97 405.356C114.921 404.967 114.872 404.724 114.872 404.627L115.456 404.238C115.067 403.752 114.727 403.314 114.435 402.926C114.143 402.537 113.802 402.197 113.413 401.808C113.17 401.322 112.83 400.544 112.489 399.572V399.766C112.1 398.746 111.663 397.725 111.079 396.656C110.495 395.586 109.523 394.517 108.161 393.351C107.286 392.476 106.167 391.65 104.805 390.92C103.444 390.191 101.741 389.608 99.7474 389.219C97.3644 388.83 95.1272 388.393 92.9873 387.907C90.8475 387.421 88.3672 386.595 85.4978 385.477C81.1208 385.866 76.7924 386.06 72.5613 386.06C68.9138 386.206 65.9958 387.664 63.7586 390.58C61.3756 392.33 59.2357 394.566 57.2904 397.239C55.345 399.912 53.9833 403.509 53.2538 408.029C53.2538 409.536 53.2538 410.994 53.3511 412.452C53.3997 413.91 53.4483 415.319 53.4483 416.68C53.8374 415.951 54.1778 415.174 54.5669 414.347C54.956 413.521 55.2964 412.743 55.6855 412.014C56.9499 409.39 58.3603 406.96 59.9166 404.773C61.4728 402.585 63.1264 400.787 64.8772 399.426C66.7739 397.822 69.2056 396.607 72.2695 395.878C75.3334 395.149 79.0782 394.76 83.4552 394.76C84.5738 394.906 85.6923 395.052 86.8109 395.246C87.9295 395.441 89.048 395.586 90.1666 395.732C90.8961 395.878 91.6742 395.975 92.4037 396.024C93.1332 396.072 93.9114 396.17 94.6409 396.315C98.3857 396.947 101.839 398.989 104.951 402.488L107.188 407.348C109.815 408.952 111.614 410.799 112.538 412.792C113.462 414.785 114.143 416.729 114.532 418.625C114.532 418.868 114.532 419.208 114.629 419.645C114.678 420.083 114.775 420.423 114.921 420.666C115.067 421.93 115.213 423.096 115.407 424.214C115.602 425.332 115.602 426.353 115.505 427.227C115.261 428.977 114.921 430.63 114.483 432.185C114.046 433.74 113.511 435.101 112.878 436.219C112.246 437.483 111.517 438.698 110.739 439.864C109.912 441.031 109.036 442.295 108.015 443.51C105.632 446.28 103.054 447.835 100.331 448.176C99.3097 448.321 98.2884 448.516 97.2185 448.807C96.1485 449.099 95.1272 449.536 94.1059 450.023C92.8414 450.168 91.5283 450.168 90.0693 450.023C88.6103 449.877 87.1513 449.779 85.6437 449.634C84.1361 449.391 82.823 449.245 81.7044 449.245C80.4399 449.245 79.0295 448.856 77.376 448.127C75.7225 447.398 74.3607 446.572 73.2421 445.697C68.3788 455.077 63.5155 464.409 58.7007 473.741C53.886 483.073 49.0227 492.405 44.1593 501.785L17.7027 506.84L13.7634 499.89H13.0339L13.2284 498.772L12.1099 496.731L13.6175 496.925L17.1677 478.747L20.718 479.331L19.0158 496.002L18.2863 497.703L44.0134 501.445C44.8888 495.807 45.8129 489.975 46.7369 483.899C47.6609 477.824 48.585 471.748 49.4604 465.722C50.3358 459.646 51.2598 453.619 52.1838 447.641C53.1079 441.663 54.0319 435.83 54.9073 430.192L68.4274 436.17L68.3788 436.219ZM84.8656 408.272C88.2213 409.536 90.9934 411.091 93.1332 412.938C95.2731 414.785 96.9267 417.069 98.1911 419.694C97.3157 423.825 96.1972 426.984 94.8354 429.172C93.4737 431.359 91.4797 432.477 88.8535 432.477C87.7349 432.477 86.5191 432.234 85.3033 431.748C80.7803 432.379 77.5219 431.505 75.5279 429.123C73.534 426.741 72.7072 422.95 73.0963 417.701C73.2422 411.188 76.1602 408.369 81.8989 409.244L84.9142 408.321L84.8656 408.272ZM80.3913 360.64C80.1481 359.911 79.8077 359.134 79.4672 358.405C79.1268 357.676 78.6405 356.849 78.1541 355.974C82.3852 357.092 86.3246 358.307 89.9721 359.523C93.6196 360.786 96.9753 362.147 100.088 363.654C97.8507 362.925 95.2731 362.293 92.4037 361.855C89.5344 361.418 86.3732 361.078 83.0175 360.835L81.7044 360.446C81.4612 360.446 81.218 360.446 81.0721 360.543C80.8776 360.592 80.6831 360.64 80.4399 360.64H80.3913ZM80.9262 424.214V424.603C80.9262 425.721 81.3153 426.45 82.1421 426.741C82.9688 427.033 84.2819 427.227 86.1787 427.227C88.8049 427.713 90.6043 427.422 91.6256 426.304C91.8688 425.818 92.1119 425.283 92.2578 424.797C92.4524 424.311 92.5496 423.874 92.5496 423.485C92.5496 422.756 92.3551 421.784 91.966 420.666C92.2092 419.402 92.2578 418.479 92.1606 417.847C91.9174 417.847 91.6256 417.847 91.3338 417.75C91.042 417.701 90.7502 417.604 90.507 417.458C90.0207 417.312 89.583 417.264 89.1939 417.166C88.8049 417.118 88.3672 417.069 87.8808 417.069C85.8869 417.312 84.2333 417.896 83.0175 418.868C81.753 419.791 81.2667 421.152 81.5098 422.902L80.9262 424.214ZM126.934 397.19C126.934 383.047 117.985 371.868 100.088 363.605H100.282C102.422 364.237 104.611 365.063 106.848 366.133C109.085 367.202 111.225 368.368 113.219 369.583C115.213 370.847 117.11 372.062 118.958 373.326C120.757 374.59 122.313 375.659 123.578 376.534V376.339C124.599 377.068 125.523 377.895 126.399 378.672C127.274 379.499 128.101 380.471 128.83 381.589V381.2L132.04 384.408C132.429 384.894 132.77 385.428 133.159 385.914C133.548 386.4 133.888 386.935 134.277 387.421C134.52 387.907 134.764 388.344 135.007 388.636C135.25 388.928 135.59 389.317 135.931 389.657C137.292 391.406 138.508 394.08 139.481 397.725C139.627 398.114 139.724 398.454 139.87 398.843C140.016 399.232 140.113 399.523 140.259 399.766C140.648 400.884 140.989 401.953 141.28 402.974C141.572 403.995 141.864 404.918 142.107 405.793C142.594 407.057 143.128 408.564 143.615 410.411C144.101 412.209 144.685 414.153 145.317 416.146L160.88 500.181L126.934 506.743L119.59 502.806L120.708 499.598L141.183 501.105C138.8 484.239 136.417 467.423 134.034 450.654C131.651 433.886 129.268 417.069 126.885 400.204V397.19H126.934ZM117.888 500.181C117.499 500.425 117.207 500.668 117.061 500.813C116.866 501.008 116.575 501.202 116.234 501.494L118.131 422.513C118.277 423.534 118.374 424.554 118.52 425.721C118.666 426.839 118.763 427.956 118.909 429.074L117.207 499.404L117.936 500.133L117.888 500.181ZM117.888 500.181L117.693 499.987V499.793L118.423 500.522L117.839 500.133L117.888 500.181Z" fill="var(--fill-0, #06AB6E)"/>
<path id="Vector_6" d="M252.651 368.856C256.639 370.994 259.994 373.133 262.621 375.32C265.247 377.507 266.998 379.403 267.873 381.055C268.359 381.298 268.894 381.59 269.478 381.881C270.061 382.173 270.499 382.562 270.888 382.902C272.396 384.506 273.758 386.207 275.022 387.86C276.287 389.512 277.454 391.31 278.572 393.206C274.049 389.561 268.262 385.818 261.113 381.881C253.964 377.944 245.356 373.716 235.24 369.244C237.477 368.856 239.374 368.564 240.881 368.321C238.742 367.689 236.553 367.106 234.219 366.523C231.884 365.939 229.501 365.405 226.972 364.919H224.346L220.601 365.113C219.337 364.87 218.413 364.821 217.78 364.919V364.724C214.036 365.599 210.583 366.328 207.47 366.96C204.358 367.592 201.731 368.029 199.592 368.272C197.695 369.147 196.139 369.973 194.923 370.8C193.658 371.626 192.491 372.404 191.372 373.133C190.254 373.862 189.184 374.591 188.163 375.174C187.141 375.806 186.217 376.486 185.342 377.215L185.731 377.41C185.245 377.896 184.807 378.43 184.515 378.916C184.223 379.403 183.932 379.937 183.688 380.423L183.299 380.229C182.424 381.347 181.549 382.61 180.673 383.971C179.798 385.332 178.971 386.839 178.241 388.491C177.22 390.241 176.734 391.991 176.734 393.741C176.734 393.984 176.734 394.227 176.831 394.47C176.88 394.713 176.928 394.956 176.928 395.199C180.187 396.219 183.153 397.191 185.828 398.115C188.503 399.038 191.47 400.01 194.728 401.031L196.041 398.795C196.139 394.664 197.111 391.262 198.862 388.589C200.613 385.915 202.801 383.631 205.428 381.736C208.2 379.597 211.264 378.187 214.619 377.41C218.121 376.778 222.255 377.41 227.021 379.305H229.647C234.024 379.305 237.817 380.18 241.076 381.93C244.334 383.68 246.961 385.77 248.955 388.103C251.192 390.727 252.942 394.032 254.207 398.066C254.596 399.962 255.082 401.566 255.715 402.927C252.067 406.669 249.879 408.516 249.149 408.468C248.42 408.419 249.003 406.572 251.046 402.927C251.435 402.295 251.532 401.663 251.435 401.031C251.678 399.67 251.24 398.018 250.122 396.171C248.76 393.789 247.885 392.088 247.496 391.116C246.863 390.727 246.037 390.387 244.967 390.095C243.897 389.804 242.827 389.463 241.66 389.075C240.93 388.832 240.103 388.589 239.228 388.443C238.352 388.248 237.526 388.054 236.796 387.762C236.067 387.762 235.337 387.762 234.656 387.665C233.975 387.617 233.295 387.568 232.662 387.568C231.544 387.325 230.522 386.985 229.647 386.644H229.842C229.209 386.499 228.626 386.353 228.042 386.158C227.459 385.964 226.875 385.964 226.243 386.061C223.373 386.061 220.942 386.401 218.899 387.082C216.905 387.762 214.96 388.54 213.063 389.415C212.674 389.561 212.334 389.706 211.944 389.998C211.555 390.241 211.215 390.436 210.826 390.581L211.02 390.387C209.026 391.262 207.665 392.817 206.984 395.004C206.303 397.191 205.963 399.767 205.963 402.781C205.476 403.267 205.33 403.802 205.573 404.288C205.573 404.433 205.573 404.871 205.671 405.6C205.768 406.329 205.768 406.766 205.768 406.912L172.357 405.017L173.086 400.351C173.086 400.351 172.843 400.496 172.697 400.351C172.697 399.622 172.697 399.038 172.6 398.65C172.503 398.261 172.503 397.921 172.503 397.629V396.414C172.26 392.769 172.697 389.172 173.816 385.527C174.934 381.881 176.88 378.382 179.652 375.028C180.041 375.417 180.381 375.66 180.77 375.854C181.159 376.049 181.451 376.243 181.694 376.486C181.792 376.243 181.938 376 182.083 375.854C182.229 375.66 182.375 375.466 182.667 375.223L183.98 376.34L182.862 374.639C183.251 374.396 183.591 374.008 183.98 373.521C184.856 372.161 186.023 370.8 187.53 369.487C189.038 368.175 190.546 367.009 192.053 366.037C192.783 365.405 193.658 364.967 194.582 364.627C195.506 364.335 196.528 364.141 197.695 364.141C199.592 363.412 202.12 362.586 205.379 361.711C206.984 361.468 208.491 361.225 209.902 361.079C211.264 360.885 212.479 360.885 213.452 360.982H216.078C216.954 360.982 217.683 361.03 218.315 361.176C218.705 361.176 219.045 361.176 219.434 361.273C219.823 361.322 220.115 361.371 220.358 361.371C221.477 361.371 222.644 361.468 223.811 361.662C224.978 361.857 226.194 362.197 227.459 362.683C229.939 363.072 232.273 363.363 234.413 363.606C236.553 363.849 238.352 364.044 239.86 364.19C241.222 364.676 242.438 365.113 243.41 365.502C244.432 365.891 245.21 366.134 245.842 366.231L245.453 367.932H246.571C249.052 367.932 251.094 368.224 252.602 368.856H252.651ZM258.487 409.391C257.854 408.273 257.319 407.204 256.882 406.183C256.444 405.162 256.055 404.142 255.666 402.975C256.687 401.955 257.806 400.788 259.022 399.427C260.286 398.066 261.648 396.511 263.156 394.761C262.523 403.899 261.891 412.696 261.259 421.202C260.627 429.707 259.994 438.164 259.362 446.524C258.73 454.884 258.098 463.341 257.465 471.847C256.833 480.352 256.201 489.101 255.569 498.093C254.839 498.822 254.11 499.551 253.526 500.231C252.894 500.912 252.213 501.641 251.483 502.37L258.438 409.342L258.487 409.391ZM257.174 501.495L254.742 499.599L257.757 498.87H258.146L259.265 498.481H259.459L273.514 495.662L272.396 503.731L263.593 506.355L257.563 501.689V501.884L257.174 501.495ZM280.42 449.878C279.934 457.363 279.448 464.799 279.01 472.187C278.572 479.575 278.086 487.06 277.6 494.69L273.466 495.614L280.42 449.829V449.878ZM278.961 394.178C278.961 394.178 278.767 393.886 278.767 393.692C278.767 393.498 278.718 393.352 278.572 393.206C279.594 394.081 280.469 394.907 281.296 395.636C282.123 396.365 282.901 397.143 283.63 397.872C283.484 398.99 283.387 400.108 283.338 401.226C283.29 402.343 283.193 403.461 283.047 404.579C282.317 402.198 281.588 400.156 281.004 398.407C280.372 396.657 279.691 395.199 278.961 394.081V394.178ZM280.42 449.878C280.907 442.393 281.344 434.859 281.733 427.374C282.123 419.889 282.56 412.307 283.047 404.676C283.533 406.037 284.019 407.544 284.457 409.099C284.895 410.655 285.381 412.307 285.867 414.057L280.42 449.878Z" fill="var(--fill-0, #06AB6E)"/>
<path id="Vector_7" d="M386.684 438.26L387.268 440.302C386.392 440.447 385.566 440.545 384.836 440.593C384.107 440.642 383.377 440.69 382.794 440.69L342.428 465.624L353.711 398.648L356.142 397.919C355.997 394.177 357.164 391.358 359.498 389.462C359.887 389.219 360.228 388.976 360.617 388.733C361.006 388.49 361.346 388.247 361.735 388.004C363.243 386.74 364.653 385.574 366.064 384.456C368.301 382.852 370.878 381.637 373.748 380.908C376.617 380.179 379.584 379.547 382.55 379.012L384.447 378.818C384.933 378.672 385.468 378.623 386.052 378.623H387.851C389.116 378.623 390.283 378.672 391.402 378.818C392.52 378.964 393.444 379.061 394.222 379.207H393.833C407.451 380.227 417.712 382.949 424.521 387.372C431.33 391.795 434.88 397.968 435.123 405.842C435.755 417.215 436.388 428.928 437.069 440.933C437.749 452.938 438.479 464.652 439.208 476.025C440.716 477.289 442.126 478.455 443.44 479.476C444.753 480.545 446.017 481.566 447.184 482.587C448.352 483.607 449.616 484.628 450.929 485.697C452.242 486.767 453.701 487.933 455.355 489.148C454.723 473.498 454.139 458.09 453.555 442.926C452.972 427.713 452.437 412.306 451.95 396.704C450.345 395.44 447.719 393.35 444.169 390.434C440.619 387.518 436.436 383.97 431.67 379.839C428.315 377.214 423.743 375.075 417.956 373.374C412.217 371.673 405.214 370.652 396.946 370.264L396.362 366.91H396.557L394.514 366.521H392.812C392.18 366.521 391.596 366.473 391.11 366.327C390.089 366.327 388.97 366.327 387.754 366.23C386.49 366.181 385.177 366.132 383.815 366.132C383.426 366.132 383.037 366.132 382.599 366.23C382.161 366.278 381.821 366.327 381.578 366.327L381.189 362.584C381.675 362.584 382.161 362.584 382.599 362.487C383.037 362.438 383.572 362.39 384.204 362.39H384.398C388.143 362.876 391.596 363.556 394.709 364.431C396.605 363.702 398.162 363.41 399.378 363.702L398.794 366.132C401.809 365.112 404.435 364.869 406.673 365.403C408.667 365.549 410.661 365.889 412.655 366.424C414.648 367.007 416.74 367.688 418.831 368.562C423.208 370.458 426.71 372.645 429.336 375.124C430.357 376.242 431.573 377.165 433.081 377.846C434.588 378.526 436.29 379.012 438.138 379.255C438.625 379.984 439.743 381.248 441.494 382.998C441.737 383.387 441.981 383.678 442.224 383.921C442.37 384.164 442.515 384.359 442.71 384.505C442.905 384.65 443.05 384.748 443.196 384.893C443.342 385.039 443.44 385.136 443.585 385.282C444.461 386.303 445.385 387.324 446.309 388.49C447.233 389.608 448.206 390.92 449.227 392.427C450.248 393.788 451.172 395.1 452.048 396.364C452.923 397.627 453.75 398.843 454.479 400.106C455.355 401.467 455.938 402.828 456.182 404.14C456.425 405.453 456.473 406.862 456.376 408.369C456.23 409.39 456.279 410.41 456.473 411.48C456.668 412.549 456.96 413.618 457.3 414.785L469.313 501.056L431.038 506.694L429.919 499.549V499.161C428.558 489.051 427.099 478.601 425.591 467.86C424.083 457.118 422.576 446.377 421.068 435.587C420.825 436.073 420.485 436.608 420.047 437.094C419.609 437.58 419.269 438.017 419.026 438.406C418.296 439.281 417.567 440.204 416.983 441.225C416.351 442.246 415.816 443.169 415.281 444.044C413.384 446.523 411.196 449.099 408.618 451.723C406.04 454.348 403.074 457.167 399.718 460.18C393.347 465.818 389.067 470.825 386.976 475.199C385.857 477.581 384.398 480.059 382.55 482.587C380.751 485.163 378.514 487.787 375.888 490.558C373.505 493.328 371.365 496.05 369.419 498.82C367.474 501.591 365.772 504.361 364.264 507.277L328.616 507.083L321.126 499.938H322.245C321.856 499.549 321.613 499.306 321.515 499.209L322.099 498.626L320.98 498.82L302.208 391.163L305.953 390.58C308.579 408.855 311.156 426.79 313.637 444.481C316.117 462.173 318.695 480.157 321.321 498.383H322.634L324.336 497.265V497.994H325.26L324.677 499.695L357.164 496.876C365.431 487.398 373.602 478.018 381.772 468.735C389.894 459.5 398.113 450.119 406.381 440.593C408.861 436.073 410.952 432.185 412.557 428.88C414.162 425.575 415.378 422.707 416.108 420.325C416.108 419.694 416.108 419.062 416.205 418.43C416.253 417.798 416.302 417.166 416.302 416.534C416.302 412.889 415.67 410.264 414.405 408.661C413.53 407.397 412.557 406.133 411.487 404.821C410.417 403.509 409.347 402.245 408.18 400.981C407.062 399.717 405.846 398.794 404.63 398.162C403.366 397.53 402.15 397.093 400.885 396.85C399.28 396.607 397.578 396.364 395.925 396.121C394.222 395.878 392.18 395.635 389.845 395.392C386.733 395.781 383.766 396.607 381.043 397.919C378.271 399.231 376.179 400.641 374.672 402.148H374.866C373.991 403.023 373.067 403.897 372.143 404.772C371.219 405.647 370.295 406.522 369.419 407.397C369.03 407.883 368.739 408.515 368.495 409.195C368.252 409.876 368.106 410.653 368.106 411.528C368.106 412.257 368.155 413.132 368.301 414.153C368.301 414.639 368.301 415.125 368.204 415.562C368.155 416 368.106 416.534 368.106 417.166C368.106 425.04 373.845 431.747 385.371 437.239C385.468 437.094 385.663 437.045 385.857 436.948C386.052 436.899 386.198 436.851 386.344 436.851L386.538 437.774C386.538 437.774 386.927 437.823 387.268 437.969L386.684 438.357V438.26ZM328.13 399.815C328.373 398.065 328.567 396.461 328.713 394.954C328.859 393.448 328.956 392.038 329.102 390.629C329.199 389.025 329.686 387.421 330.513 385.963C331.339 384.456 332.507 383.046 333.966 381.637C335.23 380.519 336.397 379.353 337.516 378.186C338.634 377.02 339.704 375.902 340.726 374.881C342.963 372.256 345.784 370.118 349.188 368.514C351.668 366.764 355.267 365.257 359.887 363.994C364.653 362.633 369.079 361.952 373.213 361.952C374.477 362.098 375.644 362.147 376.763 362.147H379.973C379.973 362.147 380.265 362.147 380.556 362.244C380.8 362.293 380.994 362.341 381.14 362.341L380.946 366.084C379.438 365.841 378.028 365.695 376.617 365.695C372.386 365.695 368.349 366.57 364.605 368.319C361.735 369.583 358.963 370.75 356.337 371.77C353.711 372.84 351.279 373.812 349.042 374.687C347.048 375.318 345.2 376.485 343.498 378.235C341.796 379.984 340.288 382.123 338.878 384.602C337.516 387.226 336.203 389.9 334.938 392.573C333.674 395.246 332.604 397.919 331.728 400.544V400.349C331.583 400.738 331.485 401.127 331.437 401.564C331.388 402.002 331.291 402.391 331.145 402.779L327.595 402.05L328.178 399.815H328.13ZM356.823 397.773C356.58 397.53 356.337 397.579 356.094 397.968L356.823 397.773ZM416.497 403.023C416.497 403.023 416.691 403.217 416.788 403.217C416.886 403.217 416.886 403.266 416.886 403.411L426.272 407.543V406.036C426.272 403.654 425.883 401.419 425.056 399.28C424.229 397.141 422.965 395.343 421.214 393.836C420.095 392.962 418.88 392.184 417.664 391.503C416.399 390.823 415.086 390.288 413.724 389.9C412.217 389.511 410.758 389.122 409.299 388.684C407.84 388.247 406.527 387.858 405.262 387.469C403.998 386.983 402.685 386.74 401.323 386.74C400.691 386.74 400.058 386.74 399.329 386.837C398.648 386.886 397.87 387.08 396.995 387.324C395.633 387.567 394.174 387.712 392.666 387.712C390.769 387.712 389.116 387.421 387.608 386.789C384.739 387.275 381.821 387.907 378.903 388.587C375.985 389.268 372.872 390.434 369.614 392.038C366.355 393.545 364.021 395.683 362.659 398.405C361.298 401.176 360.665 404.529 360.763 408.515L358.136 447.543C361.395 446.28 364.653 445.065 368.009 443.801C371.316 442.537 374.623 441.322 377.882 440.059C377.638 440.059 377.444 439.864 377.298 439.475C377.055 439.232 376.763 438.941 376.471 438.649C376.179 438.357 375.839 437.969 375.45 437.628L373.213 435.004C367.717 430.386 364.459 424.748 363.437 418.138C363.535 413.618 364.118 409.633 365.14 406.133C366.161 402.634 367.571 399.96 369.468 398.065C370.343 397.336 371.462 396.461 372.824 395.44C374.185 394.42 375.839 393.399 377.687 392.232C380.167 390.629 383.183 389.802 386.684 389.802C388.678 389.802 390.818 390.045 393.055 390.531C393.298 390.531 393.736 390.58 394.368 390.726C395.876 391.115 397.53 391.552 399.329 392.135C401.128 392.719 403.317 393.788 405.797 395.44C406.673 395.926 407.402 396.364 408.034 396.753C408.667 397.141 409.299 397.482 409.931 397.871C410.32 398.114 410.709 398.357 411.147 398.502C411.585 398.697 411.925 398.843 412.168 398.988C412.898 399.474 413.724 400.106 414.503 400.884C415.281 401.662 415.962 402.391 416.497 403.12V403.023ZM394.174 405.064C398.551 405.793 401.469 407.397 402.976 409.73C404.484 411.868 405.603 414.736 406.332 418.381C405.311 425.137 401.955 428.345 396.216 427.956C390.186 428.199 385.906 426.887 383.28 424.019C381.772 422.415 381.043 420.568 381.043 418.576C381.043 417.555 381.335 416.534 381.967 415.368C381.821 414.882 381.772 414.444 381.772 414.056V412.938C381.772 410.702 382.794 408.758 384.788 407.202C386.782 405.647 389.748 404.383 393.59 403.363L393.979 405.064H394.368H394.174ZM390.964 414.444C390.332 415.465 390.137 418.381 390.38 423.242C390.769 423.63 391.402 423.825 392.277 423.825C392.909 423.825 393.833 423.776 395.098 423.63C397.092 424.116 398.551 423.776 399.523 422.513C400.448 421.249 400.983 419.159 401.128 416.145V415.125C401.128 414.833 401.08 414.396 400.934 413.91C400.058 413.764 399.232 413.618 398.502 413.424C397.773 413.229 397.238 413.229 396.995 413.326C393.639 413.326 391.596 413.715 391.013 414.444H390.964Z" fill="var(--fill-0, #06AB6E)"/>
<path id="Vector_8" d="M526.507 412.938C524.756 412.452 523.491 412.015 522.665 411.723C521.838 411.432 521.011 411.14 520.136 410.897C519.26 410.508 518.434 410.217 517.607 409.974C516.78 409.731 516.148 409.585 515.613 409.585C513.084 408.71 510.847 407.689 508.853 406.474C506.859 405.308 505.546 404.335 504.913 403.558L503.406 401.322C499.515 399.329 496.889 396.753 495.527 393.643C495.041 392.282 494.554 390.629 494.117 388.685C493.679 386.741 493.29 384.457 492.901 381.832C493.29 379.936 493.533 377.847 493.63 375.465C493.776 374.201 494.165 372.84 494.846 371.334C495.527 369.827 496.5 368.272 497.764 366.668C498.883 365.161 500.099 363.751 501.412 362.439C502.725 361.127 503.989 359.912 505.254 358.794C508.269 356.655 512.5 355.732 517.996 355.975C519.747 355.732 522.178 355.829 525.291 356.364V356.947L526.409 357.336L526.02 357.141C527.285 357.287 528.598 357.482 529.96 357.773C531.321 358.065 532.635 358.502 533.899 358.988C535.018 359.377 536.039 359.717 537.012 360.009C537.936 360.301 538.665 360.592 539.151 360.835C540.27 361.224 541.437 361.661 542.604 362.245C543.772 362.828 544.939 363.606 546.057 364.578L546.446 364.189C547.565 365.064 548.586 365.841 549.462 366.522C550.337 367.202 551.067 367.931 551.699 368.66L554.325 371.674C555.2 372.792 555.979 374.104 556.659 375.611C557.34 377.117 557.973 378.624 558.556 380.228C559.14 381.783 559.577 383.436 559.967 385.088C560.356 386.79 560.55 388.442 560.55 390.046C560.647 390.289 560.745 390.532 560.745 390.775V391.504C560.599 391.747 560.55 392.039 560.55 392.33C560.55 392.622 560.599 392.962 560.745 393.351L562.058 446.621C562.69 446.135 563.322 445.503 564.003 444.822L566.143 442.684C566.775 442.052 567.407 441.323 568.088 440.545C568.769 439.719 569.353 439.039 569.888 438.407C570.763 437.289 571.59 436.268 572.319 435.296C573.049 434.373 574.07 433.643 575.335 433.157C577.086 430.776 578.885 428.492 580.782 426.207C582.678 423.971 584.672 421.833 586.764 419.84C590.897 415.855 593.475 412.112 594.448 408.564C591.092 405.794 588.855 402.829 587.882 399.572C587.396 397.968 586.715 395.83 585.937 393.205C585.11 390.581 584.235 387.664 583.213 384.408C583.457 383.922 583.748 383.339 584.04 382.707C584.332 382.075 584.624 381.589 584.867 381.2C585.499 379.936 586.229 378.673 587.007 377.36C587.834 376.048 588.903 374.833 590.314 373.715C591.335 372.84 592.308 372.063 593.232 371.382C594.156 370.702 595.129 370.119 596.15 369.584C597.025 369.098 598.192 368.612 599.7 368.174C601.208 367.737 603.056 367.251 605.342 366.765C606.947 367.154 608.406 367.397 609.67 367.591C610.934 367.786 612.004 368.077 612.88 368.417C614.387 368.903 616.09 369.146 617.938 369.146C620.321 369.146 622.461 369.73 624.309 370.848C626.205 371.965 627.616 373.326 628.637 374.979C629.756 376 630.582 376.777 631.166 377.312C631.75 377.846 632.236 378.478 632.771 379.11C633.014 379.353 633.354 379.645 633.695 379.936C634.084 380.228 634.376 380.52 634.619 380.763C635.64 381.881 636.564 383.096 637.44 384.408C638.315 385.72 639.191 387.178 640.066 388.831C642.206 392.476 643.13 395.635 642.887 398.406L641.574 400.642C642.06 404.141 641.379 407.252 639.531 410.022C638.267 411.918 636.516 413.667 634.279 415.271L634.862 416L635.057 415.806L635.251 416.195H635.446C635.689 416.584 635.932 416.875 636.175 417.118C636.418 417.361 636.662 417.604 636.905 417.847C637.537 418.576 638.072 419.305 638.607 419.889C639.093 420.521 639.336 421.201 639.336 421.93C639.482 422.416 639.58 422.951 639.725 423.534C639.871 424.117 639.969 424.652 640.115 425.138C640.212 425.624 640.358 426.11 640.504 426.547C640.65 426.985 640.747 427.471 640.893 427.957C641.282 429.318 641.622 430.97 641.914 432.817C642.206 434.713 642.498 436.803 642.741 439.184L645.951 497.314L638.996 499.939C637.732 493.815 636.467 487.448 635.154 480.886C633.841 474.325 632.528 467.715 631.215 461.105C629.902 454.494 628.637 447.884 627.373 441.323C626.108 434.761 624.941 428.492 623.822 422.465C629.561 427.325 632.479 430.338 632.479 431.456C632.479 430.581 632.479 429.852 632.576 429.318C632.625 428.735 632.722 428.297 632.868 427.908C632.868 427.422 632.868 426.936 632.771 426.499C632.722 426.061 632.674 425.575 632.674 425.089C632.674 423.485 632.576 422.076 632.382 420.958C632.187 419.84 631.75 418.722 630.971 417.604V417.41C630.971 417.41 630.68 417.653 630.485 417.701C630.291 417.75 630.145 417.847 629.999 417.993C629.367 416 628.977 414.931 628.88 414.785C627.762 413.91 625.379 412.841 621.731 411.577C629.756 407.446 633.744 403.12 633.744 398.649C633.744 398.017 633.695 397.288 633.549 396.413C633.306 394.177 632.965 391.99 632.625 389.949C632.236 387.907 631.701 385.963 630.923 384.214C629.658 380.86 627.81 378.721 625.281 377.846C623.774 377.215 622.266 376.534 620.758 375.805C619.251 375.076 617.694 374.25 616.09 373.375C613.852 372.014 611.518 371.625 609.135 372.257C605.779 372.403 602.667 372.84 599.846 373.569C597.025 374.298 594.545 375.514 592.454 377.117C589.195 379.353 587.59 382.318 587.59 385.915C587.59 386.547 587.639 387.373 587.785 388.345C588.271 390.483 588.952 392.428 589.779 394.177C590.606 395.927 591.822 397.823 593.426 399.815C594.545 400.933 595.42 401.954 596.053 402.926C596.685 403.849 597.22 404.724 597.755 405.453C598.144 406.085 600.332 406.377 604.32 406.377L558.362 462.271L546.544 386.887C550.191 387.373 551.991 388.15 551.991 389.123V386.498C551.991 381.978 551.31 378.576 549.948 376.194C549.219 374.93 548.489 373.667 547.905 372.354C547.273 371.042 546.592 369.632 545.863 368.126C545.62 367.98 545.377 367.834 545.133 367.543C544.89 367.299 544.647 367.057 544.404 366.813L543.82 367.397C542.702 366.036 541.68 365.161 540.805 364.772C539.686 364.286 538.519 363.849 537.352 363.46C536.185 363.071 534.823 362.779 533.315 362.536C532.051 362.293 530.738 362.002 529.376 361.71C528.014 361.418 526.604 360.932 525.242 360.301H524.853V359.717C523.735 359.863 522.616 360.009 521.497 360.203C520.379 360.398 519.358 360.544 518.482 360.689C517.85 360.544 517.266 360.495 516.78 360.398C516.294 360.349 515.759 360.301 515.272 360.301C514.251 360.301 513.327 360.446 512.452 360.689C511.576 360.932 510.749 361.321 510.02 361.807C508.658 362.682 507.345 363.508 506.178 364.335C504.962 365.161 503.892 365.987 502.871 366.862C501.995 367.494 501.217 368.369 500.536 369.487C499.856 370.605 499.272 371.868 498.737 373.229C498.494 374.59 498.251 375.805 498.105 376.777C497.91 377.798 497.862 378.527 498.007 379.013C497.862 381.54 497.91 383.825 498.105 385.963C498.299 388.102 498.64 390.095 499.126 391.942V391.747C499.612 393.254 500.439 394.469 501.558 395.392C502.676 396.316 504.135 397.045 505.886 397.531C508.026 398.017 510.02 398.552 511.965 399.038C513.911 399.524 515.613 400.058 517.12 400.544C518.482 401.03 520.525 401.468 523.2 401.759C525.874 402.051 529.182 402.391 533.072 402.78L532.343 407.835L533.461 406.523L528.938 447.787L525.194 447.593L527.236 413.813L527.625 413.23C527.382 413.084 527.139 413.036 526.993 412.938C526.799 412.89 526.604 412.793 526.312 412.647H526.507V412.938ZM525.534 371.334C532.78 373.229 536.428 376.486 536.428 381.103C536.428 382.367 536.136 383.679 535.504 385.04C536.525 389.414 533.267 392.33 525.729 393.837C521.497 393.837 518.336 392.525 516.342 389.9C514.446 387.519 513.424 385.137 513.133 382.755C513.619 378.527 514.932 375.416 516.975 373.472C519.017 371.528 521.935 370.75 525.68 371.139L525.485 371.334H525.534ZM528.549 380.131C526.799 380.277 525.437 380.86 524.415 382.026C523.394 383.144 522.713 385.137 522.373 388.005C522.762 388.248 523.297 388.394 524.075 388.491C524.805 388.539 525.777 388.588 526.896 388.588C527.917 388.734 528.695 388.588 529.327 388.296C529.96 388.005 530.495 387.567 530.932 386.984C531.37 386.401 531.662 385.769 531.856 384.991C532.051 384.262 532.197 383.436 532.343 382.561C532.197 382.172 532.1 381.832 532.051 381.54C532.002 381.249 531.905 381.006 531.759 380.909C531.273 380.763 530.738 380.666 530.154 380.52C529.571 380.374 529.036 380.277 528.549 380.131ZM612.053 381.443C619.056 381.589 622.606 385.769 622.752 394.032C622.363 399.184 619.543 401.419 614.29 400.787L613.707 424.798C613.804 431.165 613.901 437.872 613.998 444.871C614.047 451.87 614.144 458.577 614.29 464.944H610.545L608.308 436.074C607.433 437.58 606.509 439.087 605.487 440.691C604.466 442.246 603.348 443.802 602.132 445.308C597.755 450.801 594.01 458.237 590.849 467.617C587.493 477.63 583.067 485.552 577.718 491.433C574.946 494.301 572.125 497.363 569.256 500.522C566.386 503.73 563.565 506.889 560.793 510L526.264 509.076L523.637 499.501L523.832 498.384C523.686 491.53 523.589 484.58 523.54 477.678C523.491 470.728 523.443 463.875 523.443 457.119L526.799 456.73L534.677 490.704C538.568 490.461 542.313 490.267 545.96 490.121C549.608 489.975 553.352 489.829 557.243 489.538C565.851 474.665 574.557 459.695 583.213 444.725C591.919 429.707 600.576 414.785 609.184 399.913C608.551 399.67 607.968 399.427 607.384 399.184C606.801 398.94 606.266 398.6 605.779 398.26C604.758 397.531 603.931 396.364 603.25 394.809C602.569 393.254 602.083 391.358 601.84 389.074C601.354 386.304 601.694 384.214 602.861 382.804C604.028 381.346 606.071 380.811 608.94 381.2L610.983 381.589H611.567C611.81 381.589 612.053 381.638 612.296 381.783L611.907 381.589L612.053 381.443ZM561.036 447.836C561.28 447.593 561.474 447.398 561.62 447.253C561.474 447.398 561.328 447.544 561.036 447.836ZM594.788 408.467C594.788 408.467 594.642 408.661 594.691 408.661C594.739 408.661 594.788 408.613 594.788 408.467ZM594.983 408.807L594.788 408.613C594.885 408.856 595.177 409.196 595.615 409.633C596.053 410.071 596.393 410.411 596.636 410.654L594.934 408.758L594.983 408.807ZM610.545 393.643V395.344C610.789 395.83 611.032 396.17 611.275 396.267C611.275 396.121 611.324 396.073 611.469 396.073L612.783 396.462H612.977C614.582 396.316 615.846 396.024 616.722 395.538C617.597 395.052 617.986 394.177 617.84 392.914V390.872C617.84 390.386 617.646 390.046 617.257 389.852C616.868 389.657 616.381 389.56 615.749 389.56H614.047C611.907 389.56 610.594 390.386 610.108 391.99C610.254 392.379 610.302 392.719 610.302 393.011C610.302 393.302 610.351 393.545 610.497 393.691L610.545 393.643ZM615.068 493.961L614.485 472.381L618.229 472.186L620.272 495.467L638.656 500.328L624.017 505.577L617.84 500.522C617.354 500.668 616.819 500.765 616.235 500.911C615.652 501.057 615.311 501.105 615.214 501.105L615.02 496.974V493.961H615.068ZM639.093 500.182V500.376H638.704L639.093 500.182Z" fill="var(--fill-0, #06AB6E)"/>
<path id="Vector_9" d="M758.828 449.537C758.342 449.537 758.001 449.488 757.904 449.342C757.174 449.196 756.348 449.294 755.472 449.537C752.846 449.537 750.512 449.634 748.42 449.828C746.378 450.023 744.53 450.217 742.876 450.46C741.514 450.606 740.201 451.043 738.937 451.772C737.672 452.501 736.554 453.473 735.581 454.591C733.344 456.973 731.739 459.209 730.912 461.347C730.523 461.979 730.28 462.757 730.183 463.68C730.037 464.604 729.988 465.77 729.988 467.131V469.124C729.988 469.804 730.037 470.533 730.183 471.262C730.329 473.498 730.475 475.54 730.766 477.338C731.01 479.136 731.253 480.886 731.496 482.49C731.885 483.754 732.517 485.066 733.49 486.427C734.414 487.788 735.727 489.246 737.332 490.752C740.59 493.766 743.606 495.418 746.329 495.807C747.934 495.953 749.782 496.147 751.873 496.439C753.916 496.731 756.202 497.12 758.731 497.46C761.989 497.606 765.102 497.363 768.02 496.779C770.938 496.196 773.564 494.981 775.801 493.134C778.184 491.239 780.178 488.906 781.783 485.989C782.658 484.483 783.096 482.344 783.096 479.622C783.096 478.747 783.047 477.678 782.901 476.414C782.756 475.151 782.61 473.79 782.318 472.283C782.95 471.894 783.291 471.457 783.339 470.971C783.388 470.485 783.339 469.95 783.242 469.464C781.491 459.841 779.692 450.217 777.892 440.691C776.093 431.116 774.245 421.589 772.348 412.063C772.591 410.07 772.737 408.078 772.737 406.085C772.737 394.226 769.284 384.651 762.427 377.409C755.569 370.167 745.016 364.966 730.912 361.856C731.301 361.856 731.642 361.856 732.031 361.758C732.42 361.71 732.858 361.661 733.344 361.661C738.84 362.05 743.606 362.682 747.594 363.654C751.582 364.577 754.937 365.744 757.563 367.105C760.19 368.466 763.01 370.313 766.123 372.646C769.187 374.979 772.543 377.749 776.141 381.005V383.047L776.336 383.436C778.233 385.574 779.935 387.713 781.491 389.9C783.047 392.087 784.166 394.323 784.75 396.559V396.364C784.993 397.482 785.333 398.746 785.771 400.107C786.209 401.468 786.792 402.926 787.57 404.432C788.3 406.182 788.932 407.883 789.37 409.487C789.807 411.091 790.002 412.695 790.002 414.153L783.242 473.79C786.257 475.928 788.3 478.164 789.418 480.546C790.537 482.927 790.78 485.212 790.148 487.496C788.64 491.627 786.257 495.273 782.999 498.383C780.373 500.765 777.698 502.612 774.926 504.021C772.154 505.382 769.187 506.063 765.928 506.063C765.053 506.063 764.08 506.014 763.01 505.868C761.94 505.722 760.968 505.625 760.092 505.479C759.606 505.479 759.022 505.479 758.39 505.577C757.758 505.625 757.223 505.674 756.688 505.674C755.083 505.674 753.332 505.431 751.533 504.993C749.733 504.556 748.08 504.021 746.572 503.389C742.682 501.786 740.25 499.939 739.229 497.946C738.84 497.703 738.548 497.411 738.305 497.12C738.061 496.828 737.818 496.536 737.575 496.293V496.488C735.824 495.127 734.122 493.62 732.42 491.968C730.718 490.364 729.453 488.419 728.578 486.135C728.189 485.26 727.848 484.385 727.459 483.511C727.07 482.636 726.633 481.955 726.146 481.469C725.417 480.351 725.028 478.796 725.028 476.803C725.028 475.783 725.076 474.762 725.222 473.595C725.465 471.991 725.708 470.388 725.952 468.929C726.195 467.423 726.535 465.867 726.876 464.263C727.022 463.243 727.168 462.271 727.459 461.347C727.703 460.424 727.897 459.452 728.043 458.431C728.529 455.661 729.745 453.473 731.69 451.772C733.636 450.071 736.213 448.856 739.472 448.127C740.59 447.398 741.758 446.766 742.925 446.329C744.092 445.891 745.308 445.551 746.475 445.308C747.642 445.065 748.809 444.919 749.831 444.919C750.852 444.919 751.727 445.065 752.36 445.308H754.597C755.326 445.308 755.959 445.357 756.493 445.502H757.807L746.524 402.342C748.907 402.731 750.901 402.974 752.506 403.169C754.11 403.363 755.326 403.46 756.056 403.46C756.445 403.46 756.688 403.655 756.785 404.044C756.639 400.933 756.104 398.405 755.083 396.559C754.062 394.663 753.041 393.351 751.873 392.622C750.609 391.893 748.518 390.921 745.6 389.803C742.682 388.685 739.326 387.615 735.581 386.595V386.789C734.463 386.546 733.393 386.352 732.371 386.206C731.35 386.06 730.426 386.012 729.551 386.012C723.277 386.4 717.781 388.345 713.015 391.844C709.514 394.469 707.763 397.774 707.763 401.808C707.763 402.537 707.909 403.752 708.152 405.356L710.194 420.374L682.96 413.23C682.23 413.473 681.403 413.716 680.625 413.959C679.799 414.202 679.02 414.445 678.291 414.688C678.048 414.931 677.659 415.32 677.172 415.806L675.567 417.41C674.984 417.993 674.206 418.673 673.233 419.548L677.172 403.217C676.686 401.468 676.346 399.766 676.151 398.162C675.956 396.559 675.859 394.955 675.859 393.497C675.859 391.601 676.054 389.754 676.491 387.956C676.929 386.157 677.464 384.505 678.096 382.998C679.604 380.131 681.403 377.603 683.543 375.416C685.683 373.229 688.163 371.187 691.033 369.341C693.805 368.32 696.285 367.396 698.522 366.521C700.76 365.647 702.899 364.966 704.893 364.48C707.033 363.848 709.562 363.168 712.577 362.439C715.593 361.71 718.948 360.883 722.693 360.009C723.325 360.252 723.909 360.495 724.493 360.689C725.076 360.883 725.611 361.029 726.098 361.175C726.973 363.168 727.167 364.675 726.778 365.695C726.341 366.716 725.368 367.153 723.86 367.008C722.839 367.008 721.964 367.008 721.234 366.91C720.505 366.862 719.775 366.765 719.192 366.619C712.432 367.105 707.228 368.077 703.629 369.438C701.878 370.07 700.079 370.993 698.182 372.257C696.285 373.52 694.34 374.93 692.346 376.582C690.595 378.332 688.99 380.325 687.483 382.561C685.975 384.796 684.856 387.178 684.127 389.705C683.397 392.087 682.717 394.469 682.133 396.85C681.549 399.232 681.112 401.273 680.723 403.023C680.723 404.044 680.723 404.918 680.625 405.647L680.431 407.883C680.382 408.612 680.285 409.439 680.236 410.216C680.188 411.042 680.139 411.917 680.139 412.938C683.641 412.938 686.996 412.987 690.157 413.132C693.367 413.278 696.772 413.327 700.37 413.327C700.225 411.723 700.127 409.973 699.981 408.078C699.836 406.182 699.738 404.432 699.592 402.828C699.446 402.197 699.398 401.516 699.398 400.787V398.551C699.398 386.935 705.234 381.103 716.857 381.103C717.733 381.103 718.657 381.103 719.581 381.2C720.505 381.248 721.477 381.346 722.499 381.491C724.979 380.762 727.362 380.179 729.551 379.79C731.739 379.401 733.83 379.207 735.824 379.207C742.438 379.207 747.642 381.394 751.387 385.769C754.256 389.122 756.591 392.719 758.439 396.461C760.238 400.204 761.454 403.946 762.086 407.737C762.719 410.994 763.302 414.445 763.886 418.041C764.469 421.687 765.053 425.283 765.782 428.929C766.463 432.574 767.096 436.171 767.679 439.816C768.263 443.461 768.846 446.815 769.479 449.925C766.609 449.78 764.275 449.731 762.427 449.731C760.579 449.731 759.411 449.877 758.779 450.12L758.585 449.537H758.828ZM728.627 361.564C729.356 361.71 730.134 361.807 730.864 361.953H730.037C729.745 361.953 729.405 361.904 729.016 361.758C728.772 361.758 728.481 361.758 728.189 361.661C727.897 361.613 727.557 361.515 727.167 361.37C727.022 361.37 726.778 361.321 726.438 361.175C727.168 361.321 727.946 361.418 728.675 361.564H728.627ZM755.618 485.746C754.013 485.357 752.506 484.677 751.095 483.608C749.733 482.538 748.518 481.275 747.448 479.865C746.378 478.407 745.551 476.852 745.016 475.102C744.432 473.352 744.238 471.554 744.384 469.658C744.238 466.159 745.065 463.68 746.815 462.271C748.566 460.813 751.144 460.375 754.5 460.861C756.639 461.007 758.536 461.299 760.238 461.785C761.94 462.271 763.351 463.048 764.469 464.118C765.588 465.187 766.366 466.499 766.804 468.055C767.242 469.61 767.339 471.457 767.096 473.595C768.457 480.74 764.907 484.871 756.396 485.989L755.667 485.795L755.618 485.746ZM762.573 472.429C762.719 471.554 762.767 470.971 762.767 470.631C762.767 470.29 762.719 470.096 762.573 469.95C762.329 469.707 762.086 469.513 761.843 469.367C761.6 469.221 761.211 469.172 760.725 469.172C760.481 469.172 760.238 469.172 760.044 469.27C759.849 469.318 759.703 469.367 759.557 469.367C758.293 469.513 757.32 469.658 756.639 469.853C755.959 470.047 755.375 470.485 754.84 471.262C754.597 471.894 754.402 472.429 754.256 472.964C754.11 473.45 754.013 474.081 753.867 474.859C753.867 475.345 753.867 475.88 753.77 476.366C753.721 476.852 753.624 477.435 753.478 478.067C753.332 478.456 753.381 478.65 753.576 478.699C753.77 478.747 753.965 478.845 754.208 478.99L755.521 479.185C755.521 479.185 755.764 479.185 755.91 479.088C756.007 479.039 756.153 478.99 756.299 478.99V482.733L762.475 472.429H762.573Z" fill="var(--fill-0, #06AB6E)"/>
<path id="Vector_10" d="M720.36 306.398C720.506 304.405 721.089 302.363 722.159 300.322C723.229 298.281 724.445 296.482 725.807 294.976C727.071 293.469 729.065 292.303 731.789 291.525C734.561 290.699 737.819 290.261 741.564 290.115C743.947 289.483 746.427 289.192 749.053 289.192C752.944 289.192 756.64 289.921 760.142 291.428C765.783 293.663 768.653 296.92 768.799 301.197C769.528 301.586 770.306 301.975 771.036 302.412C771.765 302.849 772.349 303.19 772.738 303.433C772.592 303.822 772.543 304.016 772.446 304.016H772.154V304.21C773.759 306.738 775.024 308.925 775.802 310.869C776.629 312.813 777.358 314.757 777.942 316.799C778.088 317.188 778.136 317.528 778.136 317.917C778.136 318.305 778.088 318.646 777.942 319.035V318.84V321.27C777.796 322.388 777.65 323.409 777.358 324.284C777.504 324.284 777.601 324.284 777.65 324.381C777.698 324.43 777.796 324.478 777.942 324.478C779.206 324.964 780.422 325.402 781.686 325.693C782.951 325.985 784.07 326.179 785.042 326.179C785.772 326.179 786.55 325.985 787.279 325.596H789.711L789.906 329.144C788.155 329.144 786.209 329.29 784.07 329.533C782.173 329.29 780.276 328.95 778.331 328.609C776.385 328.221 774.586 327.88 772.981 327.589C771.376 327.297 770.063 327.006 769.042 326.86C768.02 326.665 767.437 326.519 767.145 326.374L762.087 323.555C764.324 322.826 766.27 321.708 767.826 320.25C769.382 318.792 770.403 317.09 770.938 315.098C770.209 312.862 769.285 310.675 768.215 308.633C767.145 306.592 765.491 304.308 763.254 301.78V301.975C760.871 299.496 758.051 297.795 754.792 296.92C752.895 296.434 750.999 295.899 748.956 295.413C746.962 294.927 744.822 294.344 742.585 293.712C739.57 293.712 736.846 294.101 734.317 294.927C731.837 295.753 729.795 296.968 728.336 298.572C727.606 299.593 726.877 300.468 726.293 301.294C725.661 302.12 725.174 302.849 724.785 303.433C724.153 304.696 723.861 306.543 723.861 309.071V308.876C723.861 308.876 723.91 309.265 724.056 309.605C724.202 309.994 724.25 310.286 724.25 310.529V311.258L724.445 311.841V312.036C724.591 312.279 724.639 312.619 724.639 312.959C724.639 312.813 724.493 312.667 724.25 312.376L722.548 313.105H721.624L722.548 312.522L721.04 313.105H720.846C720.749 312.862 720.651 312.619 720.651 312.473V311.987C720.554 311.598 720.457 311.355 720.457 311.258V310.869C720.457 310.237 720.457 309.557 720.36 308.828C720.262 308.099 720.262 307.321 720.262 306.592V306.398H720.36ZM720.895 313.542L721.089 313.737V313.931C721.089 313.931 720.895 313.688 720.895 313.542V313.153H721.624L720.895 313.542ZM734.415 330.991C733.782 330.602 733.15 330.165 732.421 329.679C731.74 329.193 731.205 328.609 730.816 327.978L729.308 326.86H729.503C727.752 325.596 726.293 324.381 725.077 323.214C723.91 322.048 722.84 320.104 721.965 317.479C721.721 317.09 721.575 316.653 721.575 316.167C721.575 316.021 721.575 315.875 721.478 315.584C721.43 315.341 721.381 315.146 721.381 315H721.186C721.04 314.612 720.992 314.271 720.992 313.883C720.992 314.028 721.138 314.174 721.381 314.466L722.889 313.737H723.083L722.5 314.126L724.396 313.737H724.785C725.272 315.341 725.952 316.993 726.828 318.597V318.403C729.94 322.388 734.22 325.547 739.57 327.783C739.473 328.269 739.57 328.707 739.959 329.095C740.591 329.484 741.126 329.776 741.564 330.019C742.002 330.262 742.391 330.505 742.78 330.748L754.063 334.49C757.564 336.386 761.941 337.31 767.194 337.31C768.458 337.31 769.82 337.261 771.327 337.115C772.835 336.969 774.44 336.823 776.191 336.532C778.428 337.65 780.568 338.33 782.562 338.573C783.583 338.573 784.75 338.67 786.112 338.865C787.474 339.059 789.127 339.399 790.975 339.886C793.602 339.642 796.374 339.302 799.243 338.962C802.113 338.573 804.982 338.087 807.9 337.455C810.915 336.969 813.639 336.289 816.07 335.463C818.502 334.636 820.739 333.664 822.733 332.546V332.741C824.63 331.623 826.186 330.408 827.402 329.193C828.666 327.929 829.59 326.568 830.223 325.061C830.952 323.555 831.682 322.194 832.265 320.93C832.897 319.666 833.53 318.5 834.162 317.382C833.043 316.264 831.828 315.195 830.514 314.174C829.201 313.153 827.985 312.133 826.867 310.966L829.104 308.147L835.281 313.008L835.086 312.813C835.572 313.056 836.156 313.348 836.788 313.64C837.42 313.931 837.955 314.223 838.49 314.466L843.743 320.104C843.354 320.59 842.916 321.27 842.43 322.097C841.943 322.923 841.506 323.555 841.117 324.089C840.241 325.693 839.22 327.394 838.004 329.047C836.788 330.748 835.426 332.255 833.773 333.664C832.411 334.928 830.806 336.24 829.007 337.601C827.207 338.962 825.602 340.177 824.241 341.149C823.754 341.538 823.219 341.878 822.636 342.267C822.052 342.656 821.615 342.948 821.225 343.191C818.842 343.822 816.508 344.406 814.174 344.989C811.839 345.572 809.748 346.01 807.9 346.398C805.906 346.787 803.377 346.982 800.41 346.982H797.152C795.985 346.982 794.72 346.933 793.504 346.787C792.872 346.933 792.24 346.982 791.51 346.982H789.371C787.377 346.982 785.577 346.836 784.021 346.496C782.465 346.204 780.762 345.912 778.866 345.669L776.24 345.086C775.85 345.232 775.413 345.281 774.829 345.281H773.224C770.355 345.281 767.291 344.6 764.032 343.239L764.227 343.434C761.99 342.559 759.996 341.83 758.294 341.198C756.592 340.566 755.084 340.031 753.674 339.497C752.409 339.011 751.145 338.525 749.832 338.087C748.518 337.65 747.254 337.261 745.989 336.872C745.844 336.726 745.698 336.678 745.406 336.58C745.163 336.532 744.968 336.435 744.822 336.289C744.093 335.803 743.315 335.317 742.488 334.879C741.661 334.442 740.883 334.053 740.153 333.664L740.348 333.275C740.105 333.13 739.91 333.032 739.764 332.887C739.619 332.741 739.473 332.644 739.181 332.498C738.792 332.498 738.5 332.449 738.257 332.303C737.527 332.157 736.798 332.012 736.117 331.72C735.436 331.477 734.755 331.137 734.172 330.797H734.366L734.415 330.991ZM722.597 313.153H724.104L724.299 312.959L724.494 313.153H724.688V313.348C724.688 313.348 724.883 313.591 724.883 313.737H723.18H723.375H721.138L722.645 313.153H722.597ZM747.935 301.926C755.716 302.655 759.51 306.252 759.364 312.619C758.099 318.354 755.133 320.833 750.366 319.909C747.983 319.909 745.844 319.666 743.996 319.18C742.099 318.694 740.542 318.014 739.327 317.139C737.722 315.875 736.652 314.66 736.214 313.494C735.776 312.327 735.922 310.966 736.7 309.46C736.846 306.446 737.576 304.308 738.938 302.995C740.299 301.683 742.196 301.197 744.579 301.586H745.698C745.941 301.586 746.184 301.634 746.427 301.78H746.233C746.719 301.926 747.157 301.975 747.546 301.975H747.935V301.926ZM748.713 309.8C747.594 309.654 746.719 310.189 746.087 311.307C745.454 312.424 745.211 313.883 745.357 315.632C745.989 316.021 746.768 316.216 747.692 316.264C748.616 316.313 749.54 316.361 750.415 316.361C751.777 316.507 752.75 316.313 753.333 315.778C753.917 315.292 754.452 314.271 754.938 312.765C754.792 312.376 754.744 312.036 754.646 311.647C754.598 311.258 754.5 310.966 754.354 310.723V310.334C753.868 310.189 753.382 310.14 752.944 310.14C752.506 310.14 752.02 310.091 751.534 309.946H750.026C749.637 309.946 749.199 309.897 748.713 309.751V309.8ZM825.262 306.592C825.408 306.835 825.554 307.078 825.846 307.224C826.089 307.418 826.283 307.613 826.429 307.904L823.414 309.946V309.751C822.295 312.862 820.788 315.243 818.891 316.896C817.87 317.917 816.605 318.937 815.049 320.104C813.493 321.222 811.839 322.437 810.088 323.652C809.213 324.041 808.435 324.381 807.754 324.77C807.073 325.159 806.392 325.402 805.809 325.499V325.693C804.787 325.936 803.863 326.276 802.988 326.617C802.113 327.006 801.237 327.297 800.362 327.54C800.119 327.686 799.778 327.783 799.34 327.929C798.903 328.075 798.416 328.172 797.93 328.318C796.325 328.464 794.866 328.561 793.602 328.609C792.337 328.658 791.17 328.707 790.051 328.707L790.44 324.964C791.705 325.11 793.018 325.11 794.477 324.964C795.936 324.818 797.444 324.673 799.049 324.381C800.313 324.138 802.064 323.36 804.301 322.145L805.225 324.187L804.641 321.951C805.128 321.805 805.663 321.659 806.149 321.465C806.635 321.27 807.073 320.979 807.462 320.638C808.727 319.618 809.991 318.5 811.207 317.285C812.471 316.021 813.639 314.612 814.757 312.959C816.022 311.452 817.092 309.848 818.064 308.196C818.988 306.495 819.912 304.648 820.788 302.655L825.651 306.203L825.262 306.592Z" fill="var(--fill-0, #06AB6E)"/>
<path id="Vector_11" d="M809.505 436.219L812.86 421.006L807.608 414.639L825.797 404.869L816.605 421.006L883.963 482.732L892.23 497.751L893.543 496.244L893.738 497.362L893.932 498.48L908.377 494.932C908.62 479.913 908.863 464.992 909.009 450.119C909.203 435.247 909.349 420.228 909.495 405.112H913.24L920 501.882L892.619 498.528L893.932 500.959L891.112 503L887.367 499.258L887.562 499.452L809.505 436.267V436.219ZM829.59 406.765L829.785 406.57L829.979 406.376L830.174 406.182L831.487 405.258L839.755 413.132L837.323 415.951L827.207 408.66L829.639 406.765H829.59ZM863.537 406.57H863.731C861.98 405.55 860.521 404.48 859.305 403.265C858.138 402.099 857.117 400.689 856.29 399.134C855.463 397.579 854.831 395.78 854.345 393.788C853.858 391.795 853.469 389.559 853.226 387.032C853.323 384.65 853.858 382.512 854.831 380.567C855.755 378.623 856.728 376.728 857.749 374.832L859.257 372.402H859.062C860.327 370.166 862.856 368.028 866.746 366.035C870.491 364.139 874.576 362.924 878.953 362.292C883.719 362.049 888.096 362.827 892.084 364.625C896.072 366.424 899.72 369.097 902.978 372.596C903.708 373.471 904.34 374.152 904.778 374.638C905.215 375.124 905.896 375.756 906.772 376.533L908.474 378.769V378.575C909.738 379.838 910.76 381.151 911.586 382.512C912.413 383.872 912.948 385.428 913.191 387.178C913.921 388.198 914.65 389.559 915.234 391.309H915.428V391.698C915.672 392.816 915.915 393.933 916.061 395.051C916.207 396.169 916.401 397.093 916.547 397.87L915.818 399.571C916.304 401.467 916.79 403.411 917.228 405.404C917.666 407.397 918.055 409.341 918.444 411.236L914.893 411.965C914.504 409.341 914.164 406.765 913.872 404.286C913.58 401.807 913.289 399.231 913.045 396.607C912.656 395.1 912.316 393.739 911.927 392.475C909.69 389.219 907.647 386.157 905.848 383.289C904.048 380.422 902.395 377.651 900.887 375.027C899.136 374.006 897.142 373.034 894.954 372.013C892.765 370.993 890.48 370.069 888.096 369.194C885.47 368.319 883.233 367.882 881.336 367.882C879.829 367.882 878.467 368.271 877.203 369C876.473 369 875.792 369 875.209 368.903C874.625 368.854 874.285 368.805 874.187 368.805C871.561 368.805 869.518 369.34 868.108 370.409C866.649 371.479 865.336 372.742 864.072 374.249C863.439 375.124 862.807 376.047 862.078 376.971C861.348 377.894 860.716 378.963 860.084 380.081C858.965 381.685 858.722 383.581 859.354 385.719C860.959 394.857 863.439 401.078 866.649 404.48C868.886 406.959 874.041 408.223 882.017 408.223C883.136 408.223 884.595 408.174 886.443 408.028C888.242 407.883 890.334 407.785 892.717 407.64L898.358 471.796L884.108 468.443L883.914 465.089L842.43 408.077L845.445 405.841L883.914 454.251L883.525 416.534C883.525 416.534 883.817 416.68 884.449 416.534C885.081 416.388 886.2 416.242 887.805 415.951L885.908 415.756C885.422 415.756 884.887 415.756 884.303 415.854C883.719 415.902 883.184 415.951 882.698 415.951C881.191 415.951 879.731 415.756 878.272 415.368C876.813 414.979 875.549 414.444 874.43 413.667C873.944 413.423 873.409 413.083 872.923 412.743C872.436 412.354 871.853 412.014 871.221 411.625C869.227 410.361 867.135 409.049 865.044 407.688L863.537 406.57ZM884.595 379.207C885.957 379.45 887.172 379.936 888.242 380.616C889.312 381.296 890.139 382.171 890.771 383.143C892.133 385.671 893.203 388.101 893.981 390.483C895.002 397.238 892.084 400.544 885.324 400.446C880.315 400.203 876.716 398.988 874.43 396.898C872.193 394.76 871.172 391.843 871.415 388.101C872.145 381.345 876.668 378.234 884.935 378.72L884.546 379.304L884.595 379.207ZM880.801 393.059V393.253C880.656 394.128 881.045 394.711 881.92 395.051C882.795 395.343 883.817 395.392 884.935 395.148C886.297 395.294 887.318 394.76 887.951 393.642C888.583 392.524 889.069 391.26 889.458 389.899L889.264 389.705C889.264 389.073 889.118 388.587 888.777 388.295C888.486 388.004 887.513 387.712 885.859 387.469H886.054C884.157 387.226 882.795 387.566 881.92 388.49C881.045 389.413 880.801 390.726 881.19 392.33L880.801 393.059Z" fill="var(--fill-0, #06AB6E)"/>
</g>
</svg>
