<svg preserveAspectRatio="none" width="100%" height="100%" overflow="visible" style="display: block;" viewBox="0 0 72.4162 76.4601" fill="none" xmlns="http://www.w3.org/2000/svg">
<g id="Group">
<path id="Vector" d="M67.5728 4.13013C68.1928 4.07013 68.7428 4.19013 69.2028 4.50013C69.6728 4.81013 70.0528 5.22013 70.3728 5.71013C70.6828 6.21013 70.8828 6.74013 70.9828 7.30013C71.0828 7.86013 71.0328 8.39013 70.8428 8.89013C70.6528 9.39013 70.3628 9.82013 69.9528 10.2001C69.5428 10.5701 69.0828 10.9901 68.5528 11.4601C68.0228 11.9301 67.4928 12.5201 66.9628 13.2301C66.4328 13.9501 65.9228 14.8601 65.4228 15.9801C65.1128 16.7301 64.5828 18.3001 63.8328 20.6901C63.0828 23.0901 62.2328 25.9001 61.2628 29.1301C60.2928 32.3601 59.2528 35.8501 58.1328 39.5801C57.0128 43.3101 55.9528 46.8701 54.9628 50.2601C53.9628 53.6501 53.0628 56.7001 52.2528 59.4001C51.4428 62.1101 50.8528 64.0801 50.4828 65.3201C49.9228 67.1301 49.1428 68.6301 48.1528 69.8501C47.1528 71.0601 45.8528 72.0401 44.2328 72.7901C42.6128 73.5401 40.6728 74.0801 38.4028 74.4201C36.1328 74.7601 33.4428 74.9701 30.3328 75.0301C27.2228 75.0901 24.6728 74.6101 22.6828 73.5801C20.6928 72.5501 19.1328 71.2801 18.0228 69.7501C16.9028 68.2301 16.1528 66.6101 15.7828 64.9001C15.4128 63.1901 15.3128 61.6801 15.5028 60.3701C15.6228 59.6201 15.7828 58.6601 15.9728 57.4801C16.1628 56.3001 16.4228 55.0201 16.7628 53.6501C17.1028 52.2801 17.5128 50.8701 17.9728 49.4001C18.4428 47.9401 18.9828 46.5501 19.6028 45.2501C17.4228 45.0601 15.2828 44.6301 13.1628 43.9401C11.0428 43.2601 9.13281 42.1501 7.42281 40.6301C5.71281 39.1101 4.3128 37.0501 3.2228 34.4701C2.1328 31.8901 1.5228 28.6401 1.4028 24.7201C1.2828 20.3701 2.0728 16.6301 3.7828 13.5201C5.4928 10.4101 7.67283 7.91013 10.3128 6.01013C12.9528 4.11013 15.8828 2.81013 19.0828 2.09013C22.2828 1.38013 25.3228 1.20013 28.1828 1.58013C31.1028 1.95013 33.3328 2.75013 34.8528 3.96013C36.3728 5.17013 37.2828 6.46014 37.5628 7.83014C37.8428 9.20014 37.5028 10.4801 36.5328 11.6601C35.5728 12.8401 33.9928 13.5601 31.8228 13.8101C30.6428 13.0001 29.3628 12.3801 27.9928 11.9401C26.8128 11.5701 25.4528 11.3301 23.9328 11.2401C22.4028 11.1501 20.7428 11.4701 18.9428 12.2201C17.2028 12.9001 15.7828 13.9201 14.7028 15.2501C13.6128 16.5901 12.8028 18.0201 12.2728 19.5401C11.7428 21.0601 11.4228 22.5601 11.2928 24.0201C11.1628 25.4801 11.1628 26.6801 11.2928 27.6101C11.4128 28.5401 11.7628 29.5501 12.3228 30.6401C12.8828 31.7301 13.6928 32.7101 14.7528 33.5801C15.8128 34.4501 17.1628 35.0901 18.8128 35.4901C20.4628 35.9001 22.4328 35.9101 24.7328 35.5401C24.9828 35.4201 25.3428 35.1401 25.8028 34.7001C26.2728 34.2701 26.8328 33.7701 27.4828 33.2101C28.1328 32.6501 28.8928 32.0801 29.7728 31.4801C30.6428 30.8901 31.6028 30.4401 32.6628 30.1301C33.7828 29.7601 34.8228 29.6601 35.7828 29.8501C36.7428 30.0401 37.5228 30.4201 38.1128 31.0201C38.7028 31.6101 39.0628 32.4101 39.1828 33.4001C39.3028 34.4001 39.0928 35.5501 38.5328 36.8501C37.7828 38.5301 36.8028 39.9901 35.5928 41.2401C34.3828 42.4801 32.8128 43.4801 30.8828 44.2201C30.2628 45.0901 29.3528 46.7101 28.1728 49.0701C26.9928 51.4301 26.1528 54.3601 25.6528 57.8401C25.3428 60.0201 25.4828 61.6701 26.0728 62.7901C26.6628 63.9101 27.4528 64.6901 28.4528 65.1201C29.4428 65.5601 30.5628 65.7701 31.8128 65.7701H35.1728C36.2328 65.7701 37.0428 65.6601 37.6028 65.4401C38.1628 65.2201 38.5928 64.9601 38.9128 64.6501C39.2828 64.3401 39.5028 63.9701 39.5628 63.5301C41.4328 57.1901 43.2628 51.0901 45.0628 45.2401C45.8128 42.7501 46.6028 40.1901 47.4428 37.5401C48.2828 34.9001 49.1028 32.3101 49.9128 29.8001C50.7228 27.2801 51.5128 24.8901 52.2928 22.6201C53.0728 20.3501 53.7728 18.3701 54.3928 16.6901C55.6328 13.2101 57.0228 10.5901 58.5428 8.85013C60.0628 7.11013 61.5128 5.90013 62.8828 5.21013C64.4328 4.40013 65.9928 4.03013 67.5528 4.09013L67.5728 4.13013Z" fill="var(--fill-0, white)"/>
<path id="Vector_2" d="M29.8128 76.4601C26.7228 76.4601 24.1128 75.9201 22.0428 74.8501C19.8628 73.7301 18.1328 72.3001 16.8828 70.6001C15.6528 68.9201 14.8128 67.1101 14.4028 65.2101C13.9928 63.3401 13.8928 61.6501 14.1028 60.1801C14.2328 59.4001 14.3828 58.4501 14.5728 57.2701C14.7728 56.0301 15.0428 54.7001 15.3928 53.3201C15.7328 51.9401 16.1528 50.4801 16.6328 48.9901C16.9128 48.1201 17.2128 47.2701 17.5528 46.4501C15.9328 46.2001 14.3228 45.8201 12.7428 45.3101C10.4528 44.5701 8.3428 43.3601 6.5028 41.7101C4.6428 40.0501 3.1028 37.8101 1.9428 35.0501C0.792804 32.3201 0.142812 28.8701 0.0128117 24.8001C-0.117188 20.2101 0.742799 16.1901 2.5628 12.8701C4.3628 9.59013 6.70281 6.90013 9.51281 4.89013C12.3028 2.89013 15.4228 1.49013 18.8028 0.740132C22.1528 -0.00986778 25.3828 -0.189869 28.3928 0.200131C31.5528 0.600131 34.0428 1.50013 35.7628 2.87013C37.5428 4.29013 38.6228 5.87013 38.9728 7.57013C39.3328 9.34013 38.8828 11.0801 37.6528 12.5801C36.4528 14.0501 34.5528 14.9501 32.0028 15.2401L31.4828 15.3001L31.0428 15.0001C29.9828 14.2701 28.8128 13.7101 27.5828 13.3101C26.5228 12.9701 25.2728 12.7601 23.8628 12.6701C22.5628 12.5901 21.0928 12.8801 19.5028 13.5501C17.9728 14.1501 16.7428 15.0301 15.8128 16.1701C14.8328 17.3801 14.0928 18.6701 13.6228 20.0301C13.1328 21.4401 12.8328 22.8301 12.7128 24.1601C12.5928 25.5101 12.5928 26.6201 12.7128 27.4401C12.8128 28.2101 13.1128 29.0801 13.5928 30.0101C14.0628 30.9201 14.7628 31.7601 15.6628 32.5001C16.5528 33.2301 17.7228 33.7801 19.1628 34.1301C20.5528 34.4701 22.2628 34.4901 24.2528 34.2001C24.3628 34.1201 24.5628 33.9601 24.8628 33.6801C25.3428 33.2301 25.9228 32.7201 26.5828 32.1501C27.2728 31.5601 28.0628 30.9601 28.9928 30.3301C29.9828 29.6601 31.0828 29.1401 32.2828 28.7901C33.5828 28.3501 34.8728 28.2401 36.0828 28.4801C37.3228 28.7201 38.3528 29.2401 39.1428 30.0301C39.9628 30.8501 40.4528 31.9201 40.6228 33.2301C40.7828 34.4801 40.5228 35.8801 39.8628 37.4201C39.0428 39.2601 37.9628 40.8801 36.6328 42.2401C35.3728 43.5301 33.7628 44.5901 31.8328 45.3901C31.2628 46.2701 30.4628 47.7201 29.4628 49.7201C28.3528 51.9401 27.5528 54.7401 27.0828 58.0601C26.7528 60.3801 27.0428 61.5601 27.3528 62.1401C27.7928 62.9801 28.3528 63.5301 29.0428 63.8301C29.8528 64.1901 30.7928 64.3601 31.8328 64.3601H35.1928C36.3428 64.3601 36.8828 64.2201 37.1028 64.1301C37.5728 63.9501 37.8028 63.7701 37.9228 63.6601L38.0228 63.5701C38.1628 63.4501 38.1728 63.3801 38.1828 63.3301L38.2228 63.1301C40.0928 56.7601 41.9528 50.6101 43.7328 44.8201C44.4828 42.3401 45.2728 39.7601 46.1128 37.1101C46.9528 34.4701 47.7728 31.8801 48.5828 29.3601C49.3928 26.8301 50.2028 24.4001 50.9728 22.1501C51.7528 19.8701 52.4628 17.8601 53.0828 16.1901C54.3928 12.5201 55.8428 9.80013 57.4928 7.91013C59.1528 6.01013 60.7128 4.71013 62.2628 3.94013C63.9828 3.05013 65.7528 2.61013 67.5228 2.67013C68.4328 2.60013 69.2628 2.81013 69.9728 3.28013C70.6128 3.71013 71.1428 4.26013 71.5528 4.92013C71.9628 5.58013 72.2328 6.29013 72.3528 7.03013C72.4828 7.84013 72.4128 8.62013 72.1428 9.35013C71.8828 10.0501 71.4628 10.6701 70.8928 11.2001C70.4828 11.5801 70.0028 12.0101 69.4728 12.4801C69.0128 12.8801 68.5528 13.4001 68.0828 14.0301C67.6128 14.6601 67.1528 15.5001 66.7028 16.5201C66.4228 17.1801 65.9028 18.7301 65.1728 21.0801C64.4328 23.4701 63.5728 26.2801 62.6128 29.5101C61.6428 32.7501 60.6028 36.2301 59.4828 39.9601C58.3628 43.6901 57.3028 47.2501 56.3128 50.6301C55.3128 54.0201 54.4128 57.0701 53.6028 59.7801L51.8328 65.7101C51.2128 67.6901 50.3428 69.3801 49.2428 70.7301C48.1128 72.1101 46.6228 73.2301 44.8228 74.0601C43.0828 74.8601 40.9928 75.4501 38.6128 75.8101C36.2928 76.1601 33.5128 76.3701 30.3628 76.4301C30.1728 76.4301 29.9928 76.4301 29.8128 76.4301V76.4601ZM25.2028 2.84013C23.3428 2.84013 21.4028 3.06013 19.4028 3.51013C16.4028 4.18013 13.6228 5.42013 11.1528 7.20013C8.69277 8.97013 6.63278 11.3301 5.04278 14.2401C3.46278 17.1101 2.72276 20.6401 2.83276 24.7101C2.95276 28.4301 3.52278 31.5401 4.54278 33.9501C5.54278 36.3301 6.83281 38.2301 8.38281 39.6001C9.93281 40.9901 11.6928 42.0001 13.6128 42.6201C15.6128 43.2701 17.6728 43.6901 19.7328 43.8601L21.7728 44.0301L20.8928 45.8801C20.3028 47.1201 19.7728 48.4601 19.3328 49.8501C18.8728 51.2901 18.4728 52.6901 18.1428 54.0101C17.8128 55.3101 17.5528 56.5601 17.3728 57.7201C17.1828 58.9101 17.0328 59.8701 16.9028 60.6201C16.7428 61.7201 16.8328 63.0701 17.1728 64.6101C17.5028 66.1201 18.1728 67.5701 19.1728 68.9201C20.1528 70.2601 21.5628 71.4001 23.3428 72.3201C25.1128 73.2301 27.4628 73.6601 30.3128 73.6101C33.3428 73.5501 36.0028 73.3501 38.2028 73.0201C40.3228 72.7001 42.1628 72.1901 43.6528 71.5001C45.0628 70.8501 46.2128 69.9901 47.0728 68.9501C47.9428 67.8801 48.6428 66.5201 49.1528 64.9001L50.9228 58.9901C51.7328 56.2901 52.6328 53.2401 53.6228 49.8501C54.6228 46.4601 55.6728 42.8901 56.7928 39.1601C57.9128 35.4301 58.9528 31.9501 59.9228 28.7101C60.8828 25.4701 61.7428 22.6501 62.4928 20.2501C63.2628 17.7801 63.7928 16.2001 64.1228 15.4101C64.6728 14.1701 65.2428 13.1601 65.8328 12.3601C66.4128 11.5701 67.0128 10.9001 67.6228 10.3701C68.1428 9.91013 68.6028 9.50013 69.0028 9.13013C69.2428 8.91013 69.4128 8.66013 69.5228 8.37013C69.6228 8.11013 69.6428 7.83014 69.5928 7.51014C69.5328 7.13014 69.3928 6.78014 69.1828 6.44014C68.9828 6.12014 68.7328 5.86013 68.4328 5.66013C68.3128 5.58013 68.1128 5.48013 67.7228 5.52013H67.6228H67.5228C66.2228 5.47013 64.8928 5.79013 63.5628 6.48013C62.3428 7.09013 61.0328 8.20014 59.6328 9.79014C58.2328 11.3901 56.9228 13.8701 55.7528 17.1701C55.1328 18.8401 54.4328 20.8201 53.6628 23.0801C52.8928 25.3201 52.1028 27.7201 51.2928 30.2401C50.4828 32.7601 49.6628 35.3401 48.8228 37.9801C47.9828 40.6201 47.1928 43.1701 46.4528 45.6601C44.6728 51.4101 42.8328 57.5301 40.9728 63.8601C40.8428 64.5701 40.4728 65.2101 39.8928 65.7101C39.4428 66.1501 38.8728 66.4901 38.1428 66.7801C37.4128 67.0601 36.4528 67.2001 35.2028 67.2001H31.8428C30.4028 67.2001 29.0828 66.9401 27.9128 66.4301C26.6228 65.8701 25.5928 64.8701 24.8528 63.4601C24.1128 62.0601 23.9228 60.1601 24.2828 57.6501C24.8028 54.0301 25.6928 50.9401 26.9328 48.4501C28.1528 46.0001 29.0828 44.3501 29.7528 43.4101L30.0028 43.0601L30.4028 42.9101C32.1328 42.2401 33.5528 41.3501 34.6128 40.2601C35.7028 39.1401 36.5928 37.8101 37.2728 36.2901C37.7228 35.2401 37.9028 34.3301 37.8128 33.5901C37.7228 32.9101 37.5128 32.4001 37.1428 32.0401C36.7528 31.6501 36.2328 31.4001 35.5428 31.2601C34.8228 31.1201 34.0128 31.2001 33.1328 31.4901C32.1728 31.7701 31.3328 32.1701 30.5828 32.6701C29.7528 33.2401 29.0228 33.7801 28.4228 34.3001C27.7828 34.8501 27.2428 35.3301 26.7828 35.7501C26.2028 36.2901 25.7628 36.6301 25.3828 36.8201L25.1928 36.9201L24.9828 36.9501C22.5028 37.3501 20.3128 37.3301 18.4928 36.8801C16.6428 36.4301 15.0928 35.6901 13.8728 34.6801C12.6728 33.6901 11.7328 32.5601 11.0828 31.3001C10.4528 30.0701 10.0528 28.9001 9.91278 27.8101C9.77278 26.7701 9.77278 25.4901 9.91278 23.9101C10.0428 22.3401 10.4028 20.7201 10.9628 19.0901C11.5428 17.4201 12.4428 15.8301 13.6328 14.3701C14.8728 12.8501 16.4928 11.6901 18.4628 10.9101C20.4328 10.0901 22.3228 9.73014 24.0628 9.83014C25.6928 9.93014 27.1728 10.1901 28.4628 10.5901C29.7828 11.0101 31.0328 11.5901 32.1928 12.3301C33.7228 12.0901 34.8228 11.5601 35.4728 10.7601C36.1728 9.91014 36.4028 9.07013 36.2128 8.12013C36.0028 7.09013 35.2628 6.07013 34.0128 5.07013C32.7028 4.03013 30.6928 3.33013 28.0428 2.99013C27.1328 2.87013 26.1928 2.81013 25.2328 2.81013L25.2028 2.84013Z" fill="var(--fill-0, #353535)"/>
</g>
</svg>
