<svg preserveAspectRatio="none" width="100%" height="100%" overflow="visible" style="display: block;" viewBox="0 0 72.8198 72.4839" fill="none" xmlns="http://www.w3.org/2000/svg">
<g id="Group">
<path id="Vector" d="M70.2827 5.98388C71.2627 6.96388 71.6027 8.05388 71.3127 9.26388C71.0227 10.4739 70.5927 11.3639 70.0227 11.9339C69.7327 12.2239 69.2327 12.8839 68.5127 13.9139C67.7927 14.9439 66.9927 16.3439 66.1027 18.0939C65.2127 19.8439 64.2827 21.9139 63.3027 24.3039C62.3227 26.6939 61.4327 29.3439 60.6327 32.2739C59.8227 35.2039 59.0527 38.4639 58.3027 42.0539C57.5527 45.6439 56.8627 48.9939 56.2327 52.0939C55.5427 55.8339 54.8827 59.5339 54.2527 63.2139C54.1927 64.1939 54.0527 65.1139 53.8227 65.9739C53.5927 66.7239 53.2427 67.4939 52.7927 68.3039C52.3327 69.1139 51.7027 69.7739 50.8927 70.2839C50.0327 70.8039 49.2427 71.0639 48.5227 71.0639C47.8027 71.0639 47.1427 70.9639 46.5427 70.7639C45.9427 70.5639 45.4327 70.3139 45.0327 70.0339C44.6327 69.7439 44.3127 69.5139 44.0827 69.3439C43.8527 69.1739 43.6627 68.8239 43.5227 68.3139C43.3827 67.7939 43.1727 67.0339 42.9227 66.0339C42.6627 65.0239 42.2927 63.7539 41.8027 62.1939C41.3127 60.6439 40.6127 58.7439 39.6927 56.5039C38.4327 53.4039 37.0227 50.9739 35.4727 49.2239C33.9227 47.4739 32.6527 46.2239 31.6827 45.4739C30.9927 47.5439 30.2327 49.6139 29.4027 51.6839C28.5727 53.7539 27.7227 55.7239 26.8627 57.5939C26.0027 59.4639 25.1127 61.1239 24.1927 62.5939C23.2727 64.0639 22.3527 65.1939 21.4327 65.9939C19.9427 67.3139 18.5127 68.0639 17.1627 68.2339C15.8127 68.4039 14.6527 68.3239 13.6727 67.9739C12.4627 67.6339 11.3427 66.9939 10.3127 66.0739C8.99271 64.5839 8.0227 62.7539 7.4227 60.6039C6.8227 58.4439 6.57272 56.1739 6.69272 53.7939C6.80272 51.4139 7.26269 49.0539 8.07269 46.7239C8.87269 44.3939 9.9827 42.3039 11.3927 40.4339C12.8027 38.5639 14.5127 37.0539 16.5227 35.9039C18.5327 34.7539 20.8027 34.1839 23.3327 34.1839C23.6827 34.1839 24.0027 34.1939 24.3227 34.2239C24.6327 34.2539 24.9427 34.2639 25.2327 34.2639C25.5227 33.3439 25.8527 32.1239 26.2227 30.6039C26.5927 29.0839 26.9427 27.4739 27.2527 25.7739C27.5627 24.0839 27.8027 22.3539 27.9427 20.6039C28.0827 18.8539 28.0127 17.2539 27.7227 15.8239C27.4327 14.3839 26.9127 13.2139 26.1727 12.2939C25.4227 11.3739 24.3027 10.8839 22.8127 10.8239C21.7827 10.7639 20.6427 11.0539 19.4127 11.6839C18.1727 12.3139 16.9827 13.1539 15.8327 14.1839C14.6827 15.2139 13.5927 16.3839 12.5527 17.6739C11.5127 18.9639 10.6827 20.2439 10.0527 21.5139C9.4227 22.7839 8.66269 23.6139 7.76269 24.0139C6.87269 24.4139 6.02271 24.6439 5.22271 24.7039C4.24271 24.7039 3.27269 24.5039 2.29269 24.1039C1.77269 24.1639 1.48271 23.6339 1.43271 22.5139C1.38271 21.3939 1.57271 20.0039 2.03271 18.3339C2.49271 16.6639 3.1927 14.9039 4.1427 13.0339C5.0927 11.1639 6.28271 9.51388 7.72271 8.07388C9.16271 6.63388 10.9527 5.33388 13.1127 4.15388C15.2727 2.97388 17.5627 2.17388 20.0127 1.74388C22.4527 1.31388 24.9127 1.34388 27.3827 1.83388C29.8527 2.32388 32.0627 3.51388 34.0227 5.41388C36.1427 7.48388 37.4827 9.86388 38.0327 12.5639C38.5827 15.2639 38.6927 18.0639 38.3827 20.9639C38.0627 23.8639 37.4727 26.7639 36.6127 29.6739C35.7527 32.5739 34.9427 35.2339 34.2027 37.6439C36.2127 38.9639 37.9527 40.4739 39.4227 42.1739C40.8927 43.8739 42.1127 45.4939 43.0827 47.0439C44.2327 48.8239 45.2127 50.6339 46.0127 52.4739C46.7027 48.9139 47.4927 45.2339 48.3827 41.4439C49.2727 37.6539 50.2527 33.9739 51.3127 30.4139C52.3727 26.8539 53.4827 23.5039 54.6327 20.3739C55.7827 17.2439 56.9627 14.5839 58.1627 12.4039C59.3727 10.1639 60.5927 8.48388 61.8227 7.36388C63.0527 6.24388 64.2227 5.49388 65.3127 5.12388C66.4027 4.75388 67.3927 4.67388 68.2827 4.90388C69.1727 5.13388 69.8527 5.50388 70.3127 6.02388L70.2827 5.98388ZM17.2727 56.6639C17.5027 56.3739 18.1227 54.9839 19.1227 52.4839C20.1327 49.9839 21.2627 46.8339 22.5227 43.0439C21.4327 43.2739 20.4927 43.7239 19.7227 44.3839C18.9427 45.0439 18.3027 45.7739 17.7827 46.5839C17.2627 47.3939 16.8627 48.2039 16.5727 49.0439C16.2827 49.8739 16.0827 50.6139 15.9727 51.2439C15.8027 52.1639 15.7227 53.0139 15.7527 53.7839C15.7827 54.5639 15.8827 55.2039 16.0527 55.7239C16.2227 56.2439 16.4227 56.5839 16.6527 56.7539C16.8827 56.9239 17.0827 56.8939 17.2527 56.6639H17.2727Z" fill="var(--fill-0, white)"/>
<path id="Vector_2" d="M48.5227 72.4839C47.6527 72.4839 46.8327 72.3539 46.0927 72.1139C45.3527 71.8739 44.7227 71.5539 44.2127 71.1839C43.8027 70.8939 43.4727 70.6539 43.2427 70.4739C42.7527 70.1039 42.4027 69.5239 42.1727 68.6839C42.0327 68.1639 41.8227 67.3939 41.5627 66.3739C41.3127 65.4039 40.9427 64.1439 40.4627 62.6139C39.9927 61.1139 39.2927 59.2339 38.3927 57.0339C37.1927 54.0939 35.8627 51.7739 34.4227 50.1539C33.6527 49.2839 32.9527 48.5439 32.3427 47.9339C31.8327 49.3539 31.2927 50.7839 30.7227 52.2039C29.8827 54.2939 29.0127 56.3039 28.1527 58.1739C27.2727 60.0839 26.3427 61.8239 25.3927 63.3339C24.4027 64.9139 23.3827 66.1639 22.3627 67.0539C20.6627 68.5539 18.9727 69.4239 17.3427 69.6339C15.7727 69.8339 14.3827 69.7239 13.2027 69.3039C11.8727 68.9239 10.5627 68.1839 9.37271 67.1339L9.25271 67.0139C7.79271 65.3639 6.72271 63.3339 6.06271 60.9839C5.42271 58.6839 5.15271 56.2439 5.28271 53.7239C5.40271 51.2139 5.89269 48.7039 6.73269 46.2639C7.58269 43.8039 8.77269 41.5639 10.2627 39.5839C11.7827 37.5739 13.6527 35.9239 15.8227 34.6839C18.0427 33.4139 20.5727 32.7739 23.3327 32.7739C23.6227 32.7739 23.9127 32.7739 24.1827 32.8039C24.3827 32.0839 24.6027 31.2439 24.8427 30.2739C25.2027 28.8039 25.5427 27.2039 25.8627 25.5239C26.1727 23.8739 26.3927 22.1839 26.5327 20.4939C26.6627 18.8839 26.6027 17.4039 26.3427 16.1039C26.1027 14.9039 25.6727 13.9239 25.0827 13.1839C24.6027 12.5939 23.8427 12.2839 22.7627 12.2439C21.9627 12.2039 21.0627 12.4339 20.0527 12.9539C18.9227 13.5339 17.8227 14.3039 16.7827 15.2439C15.6927 16.2239 14.6427 17.3439 13.6627 18.5639C12.6927 19.7739 11.9127 20.9739 11.3227 22.1439C10.5427 23.7039 9.54269 24.7639 8.35269 25.3039C7.31269 25.7739 6.29269 26.0439 5.32269 26.1139C4.15269 26.1339 3.06271 25.9139 2.00271 25.5039C1.61271 25.4639 1.25269 25.3039 0.952693 25.0539C0.192693 24.4039 0.0526903 23.3339 0.0126903 22.5739C-0.0573097 21.2939 0.162684 19.7739 0.662684 17.9439C1.14268 16.1939 1.89271 14.3239 2.87271 12.3739C3.88271 10.3839 5.1727 8.59388 6.7127 7.05388C8.2327 5.53388 10.1527 4.13388 12.4227 2.89388C14.7127 1.64388 17.1727 0.783876 19.7527 0.323876C22.3527 -0.136124 25.0027 -0.10612 27.6427 0.41388C30.3727 0.95388 32.8427 2.28388 34.9927 4.36388C37.3227 6.62388 38.8027 9.28388 39.4027 12.2539C39.9727 15.0839 40.0927 18.0539 39.7727 21.0939C39.4427 24.0739 38.8327 27.0839 37.9527 30.0539C37.2027 32.5639 36.5027 34.8939 35.8427 37.0439C37.5927 38.2939 39.1427 39.6939 40.4627 41.2239C41.9627 42.9639 43.2427 44.6639 44.2527 46.2639C44.6527 46.8839 45.0427 47.5139 45.4027 48.1539C45.8927 45.8339 46.4127 43.4739 46.9727 41.0839C47.8627 37.2739 48.8627 33.5439 49.9227 29.9739C50.9827 26.4039 52.1127 22.9939 53.2727 19.8439C54.4427 16.6639 55.6627 13.9139 56.8927 11.6739C58.1827 9.27388 59.4827 7.50388 60.8427 6.26388C62.2127 5.02388 63.5527 4.16388 64.8227 3.73388C66.1727 3.27388 67.4427 3.18388 68.6027 3.48388C69.7527 3.78388 70.6627 4.29388 71.3027 5.00388C72.6027 6.32388 73.0827 7.90388 72.6827 9.58388C72.3327 11.0639 71.7827 12.1639 71.0127 12.9339C70.9127 13.0339 70.5727 13.4139 69.6627 14.7239C68.9827 15.6939 68.2127 17.0439 67.3527 18.7339C66.4827 20.4439 65.5527 22.4939 64.6027 24.8339C63.6527 27.1539 62.7727 29.7839 61.9827 32.6439C61.1827 35.5439 60.4127 38.8039 59.6727 42.3439C58.9227 45.9339 58.2327 49.2739 57.6027 52.3839C56.9127 56.1139 56.2527 59.8239 55.6427 63.3839C55.5727 64.4139 55.4227 65.4139 55.1727 66.3439C54.8927 67.2439 54.5027 68.1239 54.0027 69.0139C53.4327 70.0139 52.6327 70.8439 51.6427 71.4839C50.5227 72.1539 49.4827 72.4839 48.5027 72.4839H48.5227ZM45.0027 68.2639C45.2227 68.4239 45.5027 68.6339 45.8427 68.8739C46.1327 69.0839 46.5127 69.2639 46.9827 69.4139C47.4327 69.5639 47.9527 69.6439 48.5227 69.6439C48.9727 69.6439 49.5327 69.4539 50.1627 69.0739C50.7427 68.7039 51.2127 68.2139 51.5527 67.6039C51.9527 66.8939 52.2627 66.2139 52.4627 65.5639C52.6527 64.8439 52.7827 64.0139 52.8327 63.1439L52.8527 62.9839C53.4727 59.3839 54.1427 55.6339 54.8427 51.8439C55.4827 48.7139 56.1727 45.3639 56.9127 41.7739C57.6627 38.1839 58.4527 34.8639 59.2627 31.9039C60.0827 28.9339 60.9927 26.1939 61.9927 23.7639C62.9827 21.3539 63.9427 19.2339 64.8427 17.4539C65.7727 15.6139 66.6027 14.1939 67.3527 13.1039C68.3727 11.6339 68.7827 11.1739 69.0227 10.9239C69.2827 10.6639 69.6627 10.1039 69.9427 8.92388C70.0527 8.44388 70.0827 7.78388 69.2827 6.98388L69.2227 6.92388C68.9527 6.62388 68.5127 6.39388 67.9027 6.23388C67.2927 6.07388 66.5627 6.14388 65.7427 6.42388C64.8327 6.73388 63.8227 7.39388 62.7427 8.37388C61.6327 9.38388 60.5027 10.9539 59.3727 13.0439C58.1927 15.1739 57.0427 17.7939 55.9227 20.8339C54.7827 23.9239 53.6827 27.2739 52.6327 30.7939C51.5827 34.3139 50.6027 37.9939 49.7227 41.7439C48.8427 45.4939 48.0527 49.1839 47.3627 52.7239L46.5027 57.1939L44.6727 53.0239C43.9027 51.2539 42.9527 49.4939 41.8527 47.7939C40.9127 46.2939 39.7227 44.7139 38.3127 43.0839C36.9427 41.4939 35.2827 40.0639 33.3927 38.8139L32.5027 38.2239L32.8127 37.2039C33.5627 34.7939 34.3627 32.1439 35.2227 29.2439C36.0527 26.4439 36.6327 23.5939 36.9427 20.7839C37.2427 18.0439 37.1327 15.3539 36.6127 12.8139C36.1227 10.4139 34.9127 8.25388 33.0027 6.39388C31.2327 4.67388 29.2927 3.63388 27.0827 3.19388C24.7927 2.74388 22.4827 2.71388 20.2327 3.11388C17.9527 3.51388 15.7827 4.27388 13.7727 5.37388C11.7427 6.48388 10.0427 7.72388 8.7127 9.05388C7.3927 10.3739 6.27269 11.9239 5.39269 13.6539C4.49269 15.4239 3.81269 17.1239 3.38269 18.6939C2.96269 20.2039 2.7827 21.4639 2.8327 22.4239C2.8327 22.5839 2.8527 22.7039 2.8627 22.8039C3.6527 23.1239 4.42269 23.2839 5.20269 23.2839C5.73269 23.2439 6.42268 23.0539 7.16268 22.7239C7.74268 22.4639 8.28269 21.8439 8.76269 20.8839C9.43269 19.5339 10.3327 18.1639 11.4227 16.7939C12.5027 15.4439 13.6527 14.2139 14.8527 13.1339C16.0827 12.0239 17.3827 11.1139 18.7327 10.4239C20.1827 9.68388 21.5727 9.34388 22.8627 9.40388C24.7527 9.47388 26.2327 10.1439 27.2427 11.3939C28.1327 12.4939 28.7527 13.8839 29.0827 15.5439C29.3927 17.1039 29.4727 18.8439 29.3227 20.7239C29.1727 22.5039 28.9427 24.2939 28.6127 26.0439C28.2927 27.7739 27.9327 29.4239 27.5627 30.9539C27.1827 32.5039 26.8427 33.7639 26.5527 34.7039L26.2427 35.7039H25.2027C24.8727 35.7039 24.5227 35.6839 24.1627 35.6539C23.8927 35.6339 23.6027 35.6139 23.3027 35.6139C21.0327 35.6139 18.9827 36.1339 17.1927 37.1539C15.3627 38.2039 13.7827 39.5939 12.4927 41.3039C11.1827 43.0439 10.1327 45.0339 9.38269 47.2039C8.62269 49.3939 8.1927 51.6339 8.0827 53.8739C7.9727 56.0939 8.20269 58.2339 8.76269 60.2339C9.29269 62.1439 10.1427 63.7739 11.2927 65.0839C12.1427 65.8239 13.0627 66.3439 14.0427 66.6239C14.8827 66.9139 15.8427 66.9839 16.9627 66.8439C18.0227 66.7039 19.2027 66.0739 20.4727 64.9439C21.2927 64.2239 22.1327 63.1839 22.9727 61.8439C23.8527 60.4339 24.7227 58.8039 25.5627 57.0039C26.4027 55.1739 27.2527 53.2139 28.0727 51.1639C28.8927 49.1239 29.6527 47.0639 30.3227 45.0439L30.9527 43.1639L32.5327 44.3739C33.5927 45.1839 34.9027 46.4739 36.5227 48.3139C38.1727 50.1839 39.6827 52.7639 40.9927 56.0039C41.9227 58.2739 42.6427 60.2239 43.1427 61.8039C43.6427 63.4039 44.0227 64.6839 44.2827 65.7139C44.5427 66.7039 44.7327 67.4639 44.8827 67.9739C44.9327 68.1639 44.9827 68.2639 45.0027 68.3139V68.2639ZM16.9427 58.2839C16.6227 58.2839 16.2227 58.1939 15.8127 57.8839C15.3527 57.5339 14.9927 56.9739 14.7227 56.1739C14.5027 55.5239 14.3827 54.7539 14.3527 53.8339C14.3227 52.9639 14.4027 52.0039 14.5927 50.9739C14.7227 50.2739 14.9427 49.4639 15.2527 48.5739C15.5727 47.6439 16.0327 46.7139 16.6027 45.8139C17.1927 44.8939 17.9327 44.0539 18.8127 43.3039C19.7727 42.4939 20.9227 41.9339 22.2427 41.6539L24.6627 41.1439L23.8827 43.4939C22.6127 47.2939 21.4627 50.4939 20.4427 53.0139C18.8927 56.8739 18.5827 57.2939 18.3927 57.5339C17.9927 58.0539 17.5227 58.2139 17.1927 58.2639C17.1227 58.2739 17.0327 58.2839 16.9527 58.2839H16.9427ZM20.0027 46.0639C19.6127 46.4639 19.2727 46.8939 18.9827 47.3439C18.5327 48.0539 18.1727 48.7739 17.9227 49.4939C17.6627 50.2539 17.4727 50.9139 17.3727 51.4839C17.2327 52.2239 17.1727 52.9039 17.1727 53.5039C17.3527 53.0739 17.5627 52.5539 17.8127 51.9439C18.4827 50.2839 19.2127 48.3039 20.0027 46.0539V46.0639Z" fill="var(--fill-0, #353535)"/>
</g>
</svg>
