<svg preserveAspectRatio="none" width="100%" height="100%" overflow="visible" style="display: block;" viewBox="0 0 553.145 179" fill="none" xmlns="http://www.w3.org/2000/svg">
<g id="&#224;&#184;&#129;&#224;&#184;&#148;&#224;&#184;&#148;&#224;&#184;&#177;&#224;&#184;&#153;&#224;&#185;&#131;&#224;&#184;&#171;&#224;&#184;&#141;&#224;&#185;&#136;">
<path id="Vector" d="M23.0843 67.2522C20.5345 67.9677 17.6319 68.3205 14.3716 68.3205H13.6812C13.3235 68.3205 12.8901 68.2701 12.3862 68.1693L13.4545 70.9207C13.8576 70.8199 14.1952 70.7191 14.4472 70.6133C14.6991 70.5125 14.9309 70.4117 15.1375 70.3059C12.5877 71.4296 10.4209 72.498 8.63707 73.5159C6.85322 74.5338 5.45235 75.5012 4.43444 76.4184C4.43444 76.5191 4.40925 76.5696 4.35886 76.5696C4.30343 76.5696 4.27823 76.625 4.27823 76.7207L6.87842 79.0135C7.58894 79.2201 8.32969 79.4469 9.09563 79.7039C9.85654 79.9609 10.5973 80.1876 11.3128 80.3892C12.6331 80.6966 13.913 80.9989 15.1325 81.3063C16.357 81.6137 17.3245 81.8707 18.035 82.0723H17.8839C18.5944 82.3797 19.2848 82.6619 19.9499 82.9138C20.61 83.1708 21.3004 83.4479 22.0109 83.7553C22.7214 84.0627 23.6184 84.3449 24.6867 84.5969C25.755 84.8539 27.3574 85.0806 29.4991 85.2873C28.8893 85.6954 28.1486 86.28 27.2818 87.0459C26.4151 87.8118 25.5232 88.5476 24.6061 89.2631C23.6889 89.9787 22.8222 90.6892 22.0059 91.4048C21.1895 92.1203 20.5798 92.6796 20.1716 93.0878L18.796 94.1561C18.5894 95.0732 18.413 95.94 18.2618 96.7563C18.1106 97.5726 17.9796 98.4394 17.8788 99.3565L16.8055 99.2053C16.9063 100.223 16.9315 100.989 16.8861 101.498C16.8307 102.007 16.8055 102.466 16.8055 102.874V103.181C16.7047 104.098 17.4707 108.583 19.0983 116.631L10.693 145.822L7.7905 145.364L11.6102 109.294C11.6102 105.832 12.7792 101.856 15.1275 97.3711C16.6543 91.561 20.0658 88.1495 25.367 87.1316C24.0417 85.7055 22.6408 84.5868 21.1643 83.7705C19.6879 82.9541 18.0804 82.3444 16.352 81.9362C15.2282 81.6288 13.9836 81.3013 12.6079 80.9435C11.2322 80.5857 9.80614 80.2078 8.32968 79.7946C6.85321 79.3864 5.39691 78.9833 3.97588 78.5701C2.54477 78.1619 1.22451 77.7537 0 77.3456C2.44902 75.0024 4.6612 73.0926 6.65165 71.6161C8.63707 70.1396 10.4965 68.9957 12.23 68.1794C11.6202 68.1794 10.9551 68.1542 10.2446 68.1038C9.529 68.0534 8.84368 68.003 8.18355 67.9526C7.51839 67.9022 6.93384 67.8519 6.42489 67.8015C5.91594 67.7511 5.55817 67.7259 5.35157 67.7259C16.7652 62.0216 27.2617 59.1694 36.8411 59.1694C37.9598 59.1694 39.1339 59.1946 40.3533 59.245C41.5778 59.2954 42.7469 59.376 43.8656 59.4718C46.2088 60.0815 48.3504 60.5955 50.2855 60.9986C52.2205 61.4068 54.0043 61.7142 55.637 61.9158L55.0273 64.8183C54.0094 64.5109 52.9612 64.259 51.8929 64.0524C50.8246 63.8508 49.7261 63.6946 48.6074 63.5938C46.874 63.6946 44.9137 63.8004 42.7217 63.9012C40.5297 64.002 38.3125 64.1078 36.0701 64.2086C33.7269 64.3094 31.5097 64.5915 29.4235 65.0501C27.3322 65.5087 25.3216 66.194 23.3866 67.1111L23.0843 67.2623V67.2522ZM11.6202 169.809C11.9226 170.015 12.1544 170.217 12.3106 170.418C12.4618 170.625 12.6381 170.877 12.8447 171.184L7.19084 170.267L12.6936 152.691L15.4449 153.608L11.6253 169.809H11.6202ZM17.123 171.95C16.8156 172.258 16.488 172.56 16.1303 172.867C15.7725 173.175 15.4399 173.477 15.1375 173.784C14.6286 173.275 14.1952 172.817 13.8375 172.409C13.4797 172.001 13.1471 171.592 12.8447 171.184L17.123 171.95ZM15.4399 70.1598C15.4399 70.2606 15.3845 70.3109 15.2887 70.3109H15.1375C15.2383 70.3109 15.3391 70.2606 15.4399 70.1598ZM37.2946 114.786C37.5012 113.668 37.7028 112.645 37.9094 111.728C38.1109 110.81 38.3125 109.994 38.5191 109.284C40.0459 111.833 43.2055 115.194 47.9977 119.372L36.6899 175.16L17.123 171.95C18.549 170.726 19.9247 169.531 21.25 168.357C22.5753 167.188 23.9459 165.938 25.3771 164.613C27.4129 156.258 29.4285 147.954 31.4139 139.7C33.3994 131.446 35.3596 123.091 37.2946 114.635V114.786ZM47.5391 93.8487C48.2497 93.4406 49.1668 92.987 50.2905 92.4731C51.4092 91.9641 52.6841 91.3544 54.1102 90.6388C54.3168 90.8454 54.5183 91.047 54.7249 91.2485C54.9265 91.4552 55.1785 91.6567 55.4858 91.8583C53.3493 92.2664 51.4596 93.1584 49.8319 94.534C48.1993 95.9097 46.365 97.6684 44.3292 99.805C43.1047 101.13 42.0868 102.355 41.2705 103.473C40.4541 104.597 39.8444 105.665 39.4362 106.683C39.028 107.5 38.7207 108.366 38.5191 109.284C37.602 107.656 37.2946 106.331 37.602 105.308C38.3125 103.982 39.1036 102.657 39.9704 101.337C40.8321 100.012 41.6736 98.8929 42.4899 97.9758C43.3063 97.0587 44.173 96.2423 45.0901 95.5318C46.0072 94.8213 46.8236 94.2569 47.5341 93.8487H47.5391ZM53.3493 76.5746C52.7345 76.6754 52.1247 76.8064 51.515 76.9576C50.9053 77.1087 50.2401 77.2901 49.5296 77.4917C48.3051 77.7991 47.1814 78.0813 46.1635 78.3333C45.1456 78.5903 44.2788 78.817 43.5683 79.0236C42.8528 78.6154 42.1372 78.2375 41.4267 77.8747C40.7111 77.5169 40.0006 77.139 39.2901 76.7308C40.1014 76.5292 40.9429 76.373 41.8096 76.2722C42.6764 76.1715 43.5683 76.1211 44.4854 76.1211C45.5033 76.1211 46.5464 76.1715 47.6198 76.2722C48.688 76.373 49.837 76.5796 51.0564 76.882C51.4646 76.7812 51.8426 76.7308 52.2003 76.7308C52.5581 76.7308 52.9411 76.6804 53.3493 76.5796V76.5746ZM42.495 79.1748H43.0291C43.1803 79.1748 43.3617 79.1244 43.5633 79.0236C45.8006 80.3489 47.9977 81.901 50.1343 83.6848C52.2759 85.4687 54.3117 87.4843 56.2468 89.7217C55.8386 89.9283 55.4808 90.1046 55.1734 90.2558C54.8711 90.407 54.5133 90.538 54.1051 90.6388L53.9539 90.4876V88.8046C52.4271 86.5672 50.744 84.9849 48.9098 84.0678C47.0755 83.1507 44.9339 82.4402 42.4899 81.9262V79.1748H42.495ZM53.3493 76.5746C54.7753 76.373 56.1006 76.3226 57.3201 76.4234C56.6045 76.4234 55.9192 76.4486 55.2591 76.499C54.5939 76.5494 53.959 76.5746 53.3493 76.5746ZM56.5541 92.7804C56.3475 92.6796 56.1712 92.5486 56.02 92.3975C55.8688 92.2463 55.6874 92.0649 55.4858 91.8633C56.2971 91.6617 57.3705 91.5559 58.6958 91.5559L57.6224 94.1561C57.4158 93.9545 57.2647 93.7731 57.1689 93.622C57.0631 93.4708 56.8615 93.1886 56.5541 92.7804ZM68.3255 66.1839C67.3076 65.6749 65.9823 65.418 64.3497 65.418C62.8228 65.418 60.9886 65.6749 58.8469 66.1839L58.6958 64.5008C58.4892 64.4001 58.3128 64.3497 58.1616 64.3497C58.0104 64.3497 57.829 64.2993 57.6275 64.1985C57.3251 64.0977 57.0177 64.0473 56.7103 64.0473H55.7932L55.6421 60.9886C56.0452 60.9886 56.4282 61.0138 56.7859 61.0642C57.1437 61.1196 57.5217 61.1952 57.9298 61.2909C58.338 61.3917 58.7713 61.4975 59.2299 61.5983C59.6885 61.6991 60.1722 61.8553 60.6812 62.0569L60.2226 63.2814H72.2208C73.2891 63.2814 74.181 63.231 74.8966 63.1302C77.7487 64.3547 80.4194 65.5742 82.9189 66.7987C85.4132 68.0232 87.832 69.2426 90.1802 70.4672V70.6184L90.6388 70.7695V70.9207C90.8404 71.0215 91.047 71.2785 91.2485 71.6866C92.2664 72.0948 93.2591 72.6794 94.2267 73.4453C95.1942 74.2112 96.0861 75.0477 96.9024 75.9649L96.4439 76.116C98.7871 77.6429 100.571 79.1244 101.795 80.5505C102.506 82.1831 103.04 83.7352 103.398 85.2117C103.756 86.6881 103.932 88.1444 103.932 89.5705C103.932 90.9966 103.781 92.3219 103.473 93.5413L107.142 122.733L104.083 123.04C103.877 119.579 103.675 116.217 103.473 112.952C103.267 109.692 103.065 106.331 102.864 102.864C102.047 101.337 101.639 99.6034 101.639 97.6684C101.639 96.7513 101.69 95.9349 101.79 95.2244C101.992 94.4081 102.093 93.5968 102.093 92.7804C102.093 91.5559 101.836 90.4372 101.327 89.4193C100.309 87.4843 99.2355 85.6501 98.1169 83.9166C96.9931 82.1882 95.8241 80.8125 94.5995 79.7895L93.8386 79.0236L93.3801 76.7308C92.5637 76.1211 91.7273 75.5315 90.8605 74.9721C89.9938 74.4128 89.2026 73.7779 88.4921 73.0623C88.1847 72.8608 87.6254 72.6541 86.8141 72.4526C85.9977 72.251 84.8287 71.9184 83.2968 71.4599C81.7699 71.0013 80.2884 70.4672 78.8674 69.8574C77.5421 69.1469 76.0152 68.5069 74.2818 67.9476C72.5483 67.3883 70.6637 66.8541 68.6279 66.3452L68.3205 66.194L68.3255 66.1839ZM77.0382 81.009C76.2218 80.7016 75.2795 80.3489 74.2112 79.9407C73.1429 79.5326 72.0444 79.1748 70.9257 78.8724C68.8849 78.2627 66.6979 77.7537 64.3547 77.3456C62.0115 76.9374 59.7137 76.6351 57.4763 76.4285H57.3251C57.8341 76.3277 58.343 76.2773 58.852 76.2773H60.3788C67.7158 76.2773 72.8608 77.5018 75.8137 79.9458C76.0203 80.1524 76.2168 80.3287 76.4234 80.4799C76.625 80.6311 76.8316 80.8125 77.0332 81.014L77.0382 81.009ZM82.0773 94.4585C82.7878 103.222 83.4782 111.934 84.1434 120.596C84.8035 129.259 85.4938 137.971 86.2094 146.734C85.2923 138.178 84.3752 129.667 83.458 121.211C82.5409 112.756 81.6238 104.244 80.7067 95.688C80.8074 95.1791 80.8579 94.6197 80.8579 94.01V92.3269C80.8579 87.3331 79.5829 83.5638 77.0382 81.014C77.3456 81.1148 77.653 81.2459 77.9553 81.397C78.2577 81.5482 78.5146 81.6792 78.7212 81.78C79.0236 81.8808 79.331 81.9866 79.6384 82.0874C79.9458 82.1882 80.1977 82.294 80.4043 82.3948C81.523 83.8209 82.5459 86.0129 83.4631 88.9658C84.2744 92.0246 83.8209 93.8538 82.0874 94.4685L82.0773 94.4585ZM88.0386 171.184L85.1361 170.574C85.5392 169.557 85.9222 168.539 86.2799 167.516C86.6377 166.498 87.0207 165.48 87.4289 164.457C87.5296 165.475 87.6052 166.498 87.6556 167.516C87.706 168.534 87.7816 169.501 87.8874 170.418L88.0386 171.184ZM87.4289 164.462C87.2223 161.509 87.0207 158.551 86.8191 155.598C86.6125 152.645 86.411 149.692 86.2094 146.734L87.8874 163.394C87.6808 163.903 87.5296 164.26 87.4289 164.462ZM112.191 170.423C108.931 171.441 105.872 172.384 103.02 173.25C100.168 174.117 97.109 175.009 93.8487 175.926C93.5413 175.619 93.2138 175.336 92.856 175.085C92.4982 174.828 92.2211 174.601 92.0145 174.394L104.703 172.56C104.295 169.708 103.912 166.956 103.559 164.306C103.201 161.655 102.844 159.01 102.491 156.359C102.133 153.709 101.775 151.008 101.417 148.256C101.06 145.505 100.727 142.653 100.425 139.7L112.191 170.423Z" fill="var(--fill-0, #DB0585)"/>
<path id="Vector_2" d="M195.029 121.513L195.488 123.197C194.772 123.297 194.112 123.373 193.503 123.423C192.888 123.479 192.328 123.499 191.819 123.499L158.959 143.827L168.13 89.2631L170.116 88.6483C170.015 85.5895 170.927 83.2967 172.867 81.7699C173.175 81.5683 173.477 81.3617 173.784 81.1601C174.092 80.9586 174.399 80.752 174.702 80.5504C175.926 79.5325 177.095 78.565 178.219 77.6479C180.053 76.3226 182.139 75.3551 184.482 74.7453C186.826 74.1356 189.219 73.6266 191.663 73.2185L193.19 73.0673C193.593 72.9665 194.032 72.9161 194.49 72.9161H195.941C196.959 72.9161 197.927 72.9665 198.844 73.0673C199.761 73.1681 200.522 73.2739 201.137 73.3747H200.829C211.936 74.191 220.265 76.4082 225.818 80.0263C231.372 83.6444 234.249 88.6634 234.455 95.0782C234.964 104.35 235.499 113.879 236.058 123.66C236.617 133.441 237.202 142.97 237.817 152.242C239.041 153.26 240.185 154.202 241.258 155.069C242.327 155.936 243.345 156.777 244.317 157.589C245.285 158.405 246.302 159.246 247.376 160.108C248.444 160.975 249.643 161.917 250.969 162.935C250.46 150.201 249.976 137.639 249.512 125.263C249.059 112.881 248.62 100.324 248.217 87.585C246.892 86.5671 244.776 84.8588 241.873 82.4653C238.971 80.0717 235.579 77.1893 231.709 73.8282C228.958 71.6866 225.239 69.933 220.553 68.5573C215.866 67.1816 210.162 66.3401 203.435 66.0327L202.976 63.2813H203.127L201.449 62.9739H200.074C199.565 62.9739 199.106 62.9235 198.698 62.8227C197.882 62.8227 196.964 62.7975 195.946 62.7471C194.929 62.6968 193.855 62.6716 192.737 62.6716C192.429 62.6716 192.097 62.6968 191.744 62.7471C191.386 62.7975 191.104 62.8227 190.902 62.8227L190.595 59.764C190.998 59.764 191.381 59.7388 191.744 59.6884C192.097 59.638 192.53 59.6128 193.039 59.6128H193.19C196.249 60.021 199.046 60.5803 201.595 61.2909C203.122 60.6811 204.397 60.4795 205.415 60.6811L204.956 62.6665C207.4 61.8502 209.542 61.6486 211.376 62.0568C213.004 62.1576 214.637 62.4398 216.264 62.8983C217.892 63.3569 219.575 63.9465 221.308 64.657C224.876 66.1839 227.728 67.9677 229.865 70.0085C230.681 70.9257 231.699 71.6664 232.924 72.2258C234.148 72.7851 235.524 73.1681 237.051 73.3696C237.459 73.9844 238.376 75.0023 239.802 76.4284C240.004 76.7358 240.21 76.9877 240.412 77.1943C240.513 77.401 240.639 77.5521 240.795 77.6529C240.946 77.7537 241.072 77.8595 241.178 77.9603C241.278 78.0611 241.384 78.1669 241.485 78.2677C242.196 79.084 242.936 79.9507 243.702 80.8679C244.463 81.785 245.254 82.8533 246.071 84.0778C246.887 85.2015 247.648 86.2698 248.364 87.2877C249.074 88.3056 249.739 89.3286 250.349 90.3465C251.059 91.4702 251.518 92.5637 251.725 93.632C251.931 94.7003 251.977 95.8492 251.876 97.0687C251.775 97.885 251.8 98.7265 251.951 99.5882C252.103 100.455 252.334 101.347 252.642 102.264L262.423 172.57L231.241 177.156L230.323 171.345V171.038C229.2 162.784 228.031 154.278 226.811 145.515C225.587 136.752 224.362 127.989 223.143 119.226C222.936 119.634 222.659 120.042 222.301 120.45C221.943 120.858 221.661 121.216 221.46 121.518C220.845 122.234 220.285 123 219.777 123.811C219.268 124.628 218.809 125.394 218.401 126.104C216.874 128.145 215.065 130.231 212.974 132.368C210.882 134.509 208.464 136.802 205.712 139.246C200.517 143.832 197.05 147.908 195.317 151.471C194.399 153.406 193.2 155.422 191.729 157.508C190.247 159.599 188.443 161.766 186.302 164.003C184.367 166.246 182.608 168.488 181.026 170.731C179.443 172.968 178.047 175.261 176.823 177.609L147.782 177.458L141.67 171.648H142.587C142.28 171.34 142.078 171.139 141.972 171.038L142.431 170.579L141.514 170.731L126.23 82.9994L129.289 82.5409C131.431 97.4214 133.517 112.065 135.553 126.482C137.588 140.899 139.68 155.548 141.816 170.423H142.89L144.265 169.506V170.116H145.031L144.573 171.492L171.013 169.199C177.735 161.459 184.412 153.814 191.033 146.271C197.655 138.732 204.327 131.088 211.054 123.343C213.09 119.674 214.773 116.489 216.098 113.788C217.423 111.088 218.391 108.77 219.006 106.835C219.006 106.326 219.031 105.817 219.081 105.308C219.132 104.799 219.162 104.29 219.162 103.781C219.162 100.828 218.653 98.6862 217.635 97.3609C216.919 96.343 216.128 95.2999 215.267 94.2266C214.4 93.1583 213.508 92.1101 212.596 91.0922C211.679 90.0743 210.711 89.3084 209.688 88.7994C208.67 88.2905 207.647 87.9327 206.629 87.7312C205.304 87.5296 203.954 87.323 202.578 87.1214C201.202 86.9199 199.544 86.7133 197.609 86.5117C195.06 86.8191 192.666 87.5044 190.424 88.5777C188.181 89.646 186.448 90.7949 185.228 92.0144H185.379C184.664 92.73 183.928 93.4405 183.162 94.156C182.401 94.8716 181.661 95.5821 180.945 96.2977C180.643 96.7058 180.386 97.1896 180.179 97.7489C179.972 98.3083 179.877 98.9482 179.877 99.6588C179.877 100.268 179.927 100.984 180.028 101.8C180.028 102.209 180.003 102.592 179.952 102.949C179.897 103.307 179.877 103.74 179.877 104.249C179.877 110.669 184.563 116.122 193.936 120.601C194.037 120.501 194.168 120.425 194.319 120.375C194.47 120.324 194.601 120.299 194.702 120.299L194.853 121.065C194.954 121.065 195.155 121.115 195.463 121.216L195.004 121.524L195.029 121.513ZM147.344 90.1802C147.551 88.7541 147.702 87.4288 147.803 86.2043C147.903 84.9798 148.004 83.8107 148.105 82.687C148.206 81.3617 148.589 80.0868 149.249 78.8673C149.909 77.6428 150.851 76.4737 152.076 75.35C153.094 74.4329 154.066 73.4906 154.983 72.5231C155.901 71.5556 156.762 70.6636 157.584 69.8473C159.418 67.7057 161.711 65.9772 164.462 64.652C166.498 63.2259 169.405 62.0014 173.175 60.9835C177.045 59.8648 180.663 59.3054 184.024 59.3054C185.042 59.4062 186.014 59.4566 186.931 59.4566H189.532C189.632 59.4566 189.784 59.4818 189.99 59.5322C190.192 59.5826 190.348 59.6078 190.449 59.6078L190.298 62.6665C189.073 62.465 187.904 62.3592 186.785 62.3592C183.318 62.3592 180.058 63.0747 177.004 64.5008C174.656 65.5187 172.419 66.466 170.277 67.3277C168.141 68.1945 166.15 68.9856 164.316 69.6961C162.683 70.2051 161.182 71.1726 159.806 72.5987C158.43 74.0247 157.18 75.7582 156.062 77.794C154.943 79.9356 153.87 82.0974 152.852 84.2894C151.829 86.4814 150.967 88.6432 150.252 90.7849V90.6337C150.146 90.9411 150.07 91.2737 150.02 91.6264C149.964 91.9842 149.889 92.3168 149.788 92.6191L146.88 92.0094L147.339 90.1751L147.344 90.1802ZM170.731 88.4971C170.524 88.2955 170.323 88.3459 170.116 88.6483L170.731 88.4971ZM219.333 92.7804C219.434 92.8811 219.509 92.9315 219.565 92.9315C219.615 92.9315 219.64 92.987 219.64 93.0827L227.285 96.4438V95.2193C227.285 93.2843 226.952 91.45 226.292 89.7166C225.632 87.9831 224.584 86.5066 223.158 85.2821C222.241 84.5716 221.273 83.9317 220.255 83.3723C219.237 82.813 218.164 82.3796 217.045 82.0722C215.821 81.7648 214.621 81.4373 213.457 81.0795C212.283 80.7217 211.185 80.3891 210.172 80.0868C209.149 79.6786 208.081 79.4771 206.962 79.4771C206.453 79.4771 205.914 79.5023 205.36 79.5527C204.795 79.603 204.16 79.729 203.45 79.9356C202.326 80.1422 201.157 80.243 199.937 80.243C198.411 80.243 197.03 79.991 195.81 79.4771C193.467 79.8852 191.099 80.369 188.705 80.9283C186.312 81.4877 183.787 82.435 181.142 83.7553C178.491 84.9798 176.606 86.7132 175.488 88.9506C174.364 91.193 173.855 93.9444 173.961 97.2047L171.824 128.997C174.47 127.979 177.145 126.961 179.846 125.938C182.547 124.92 185.218 123.902 187.869 122.879C187.662 122.879 187.511 122.728 187.41 122.421C187.204 122.219 186.977 121.987 186.72 121.735C186.463 121.483 186.186 121.201 185.878 120.894L184.044 118.752C179.559 114.983 176.909 110.397 176.097 104.995C176.198 101.327 176.657 98.0664 177.473 95.2143C178.289 92.3621 179.463 90.1701 180.99 88.6432C181.706 88.0335 182.618 87.3179 183.742 86.5016C184.86 85.6903 186.186 84.8185 187.713 83.9014C189.748 82.5761 192.197 81.916 195.05 81.916C196.677 81.916 198.411 82.1226 200.245 82.5257C200.446 82.5257 200.804 82.5761 201.318 82.6769C202.543 82.9843 203.888 83.3673 205.37 83.8258C206.846 84.2844 208.605 85.1763 210.641 86.5016C211.356 86.9098 211.966 87.2675 212.475 87.5699C212.984 87.8773 213.493 88.1796 214.002 88.487C214.304 88.6936 214.637 88.87 214.994 89.0212C215.352 89.1723 215.629 89.3034 215.836 89.4041C216.451 89.8123 217.086 90.3213 217.746 90.931C218.406 91.5407 218.945 92.1555 219.353 92.7652L219.333 92.7804ZM201.142 94.4584C204.71 95.0681 207.103 96.343 208.323 98.278C209.547 100.012 210.464 102.355 211.074 105.308C210.258 110.81 207.506 113.411 202.82 113.103C197.927 113.31 194.415 112.236 192.273 109.893C191.048 108.568 190.439 107.091 190.439 105.459C190.439 104.642 190.691 103.776 191.205 102.859C191.104 102.45 191.053 102.093 191.053 101.79V100.873C191.053 99.039 191.865 97.4869 193.497 96.212C195.125 94.9371 197.519 93.894 200.678 93.0777L200.986 94.4534H201.293H201.142V94.4584ZM198.547 102.103C198.038 102.919 197.882 105.313 198.088 109.289C198.395 109.596 198.899 109.747 199.615 109.747C200.124 109.747 200.89 109.697 201.908 109.596C203.535 110.004 204.735 109.697 205.501 108.679C206.262 107.661 206.695 105.927 206.796 103.483V102.642C206.796 102.39 206.745 102.057 206.645 101.649C205.929 101.548 205.269 101.417 204.659 101.266C204.049 101.115 203.641 101.09 203.435 101.191C200.683 101.191 199.051 101.498 198.547 102.108V102.103Z" fill="var(--fill-0, #DB0585)"/>
<path id="Vector_3" d="M338.393 121.513L338.851 123.197C338.136 123.297 337.475 123.373 336.861 123.423C336.251 123.479 335.692 123.499 335.183 123.499L302.323 143.827L311.494 89.2631L313.479 88.6483C313.378 85.5895 314.295 83.2967 316.231 81.7699C316.533 81.5683 316.84 81.3617 317.148 81.1601C317.45 80.9586 317.757 80.752 318.065 80.5504C319.289 79.5325 320.458 78.565 321.577 77.6479C323.411 76.3226 325.503 75.3551 327.841 74.7453C330.184 74.1356 332.582 73.6266 335.026 73.2185L336.553 73.0673C336.961 72.9665 337.395 72.9161 337.853 72.9161H339.305C340.323 72.9161 341.295 72.9665 342.212 73.0673C343.129 73.1681 343.895 73.2739 344.505 73.3747H344.203C355.309 74.191 363.634 76.4082 369.192 80.0263C374.745 83.6444 377.622 88.6634 377.829 95.0782C378.338 104.35 378.872 113.879 379.436 123.66C379.996 133.441 380.58 142.97 381.195 152.242C382.419 153.26 383.563 154.202 384.632 155.069C385.705 155.936 386.718 156.777 387.69 157.589C388.658 158.405 389.676 159.246 390.749 160.108C391.822 160.975 393.017 161.917 394.342 162.935C393.833 150.201 393.349 137.639 392.891 125.263C392.432 112.881 391.999 100.324 391.591 87.585C390.265 86.5671 388.154 84.8588 385.251 82.4653C382.344 80.0717 378.958 77.1893 375.088 73.8282C372.336 71.6866 368.617 69.933 363.931 68.5573C359.245 67.1816 353.535 66.3401 346.813 66.0327L346.354 63.2813H346.506L344.823 62.9739H343.447C342.938 62.9739 342.479 62.9235 342.071 62.8227C341.255 62.8227 340.338 62.7975 339.32 62.7471C338.302 62.6968 337.234 62.6716 336.11 62.6716C335.802 62.6716 335.475 62.6968 335.117 62.7471C334.759 62.7975 334.482 62.8227 334.276 62.8227L333.973 59.764C334.381 59.764 334.759 59.7388 335.117 59.6884C335.475 59.638 335.908 59.6128 336.417 59.6128H336.568C339.627 60.021 342.429 60.5803 344.974 61.2909C346.501 60.6811 347.775 60.4795 348.793 60.6811L348.335 62.6665C350.779 61.8502 352.92 61.6486 354.755 62.0568C356.382 62.1576 358.015 62.4398 359.648 62.8983C361.275 63.3569 362.958 63.9465 364.692 64.657C368.26 66.1839 371.112 67.9677 373.253 70.0085C374.065 70.9257 375.088 71.6664 376.307 72.2258C377.531 72.7851 378.907 73.1681 380.434 73.3696C380.842 73.9844 381.759 75.0023 383.185 76.4284C383.387 76.7358 383.589 76.9877 383.795 77.1943C383.896 77.401 384.027 77.5521 384.178 77.6529C384.329 77.7537 384.455 77.8595 384.561 77.9603C384.662 78.0611 384.763 78.1669 384.868 78.2677C385.579 79.084 386.32 79.9507 387.086 80.8679C387.852 81.785 388.638 82.8533 389.454 84.0778C390.265 85.2015 391.031 86.2698 391.747 87.2877C392.457 88.3056 393.123 89.3286 393.737 90.3465C394.448 91.4702 394.906 92.5637 395.113 93.632C395.315 94.7003 395.365 95.8492 395.264 97.0687C395.158 97.885 395.189 98.7265 395.34 99.5882C395.491 100.455 395.723 101.347 396.03 102.264L405.811 172.57L374.634 177.156L373.717 171.345V171.038C372.593 162.784 371.424 154.278 370.2 145.515C368.975 136.752 367.756 127.989 366.531 119.226C366.324 119.634 366.047 120.042 365.69 120.45C365.332 120.858 365.055 121.216 364.848 121.518C364.238 122.234 363.679 123 363.17 123.811C362.661 124.628 362.197 125.394 361.794 126.104C360.267 128.145 358.453 130.231 356.367 132.368C354.276 134.509 351.857 136.802 349.111 139.246C343.915 143.832 340.449 147.908 338.715 151.471C337.798 153.406 336.599 155.422 335.122 157.508C333.646 159.599 331.837 161.766 329.695 164.003C327.755 166.246 326.001 168.488 324.419 170.731C322.837 172.968 321.441 175.261 320.216 177.609L291.176 177.458L285.064 171.648H285.981C285.678 171.34 285.472 171.139 285.371 171.038L285.824 170.579L284.907 170.731L269.624 82.9994L272.682 82.5409C274.819 97.4214 276.91 112.065 278.946 126.482C280.982 140.899 283.073 155.548 285.21 170.423H286.278L287.654 169.506V170.116H288.415L287.961 171.492L314.401 169.199C321.129 161.459 327.8 153.814 334.422 146.271C341.043 138.732 347.72 131.088 354.442 123.343C356.478 119.674 358.161 116.489 359.486 113.788C360.812 111.088 361.779 108.77 362.389 106.835C362.389 106.326 362.414 105.817 362.47 105.308C362.52 104.799 362.545 104.29 362.545 103.781C362.545 100.828 362.036 98.6862 361.018 97.3609C360.308 96.343 359.517 95.2999 358.65 94.2266C357.783 93.1583 356.891 92.1101 355.974 91.0922C355.057 90.0743 354.089 89.3084 353.072 88.7994C352.054 88.2905 351.036 87.9327 350.013 87.7312C348.688 87.5296 347.337 87.323 345.961 87.1214C344.586 86.9199 342.928 86.7133 340.993 86.5117C338.443 86.8191 336.049 87.5044 333.812 88.5777C331.57 89.646 329.836 90.7949 328.617 92.0144H328.768C328.052 92.73 327.312 93.4405 326.551 94.156C325.785 94.8716 325.044 95.5821 324.333 96.2977C324.026 96.7058 323.769 97.1896 323.573 97.7489C323.366 98.3083 323.265 98.9482 323.265 99.6588C323.265 100.268 323.316 100.984 323.416 101.8C323.416 102.209 323.391 102.592 323.341 102.949C323.285 103.307 323.265 103.74 323.265 104.249C323.265 110.669 327.952 116.122 337.324 120.601C337.425 120.501 337.551 120.425 337.707 120.375C337.858 120.324 337.984 120.299 338.09 120.299L338.241 121.065C338.342 121.065 338.549 121.115 338.856 121.216L338.398 121.524L338.393 121.513ZM290.707 90.1802C290.909 88.7541 291.065 87.4288 291.166 86.2043C291.267 84.9798 291.372 83.8107 291.473 82.687C291.574 81.3617 291.957 80.0868 292.617 78.8673C293.277 77.6428 294.225 76.4737 295.444 75.35C296.462 74.4329 297.43 73.4906 298.347 72.5231C299.264 71.5556 300.13 70.6636 300.947 69.8473C302.781 67.7057 305.074 65.9772 307.825 64.652C309.861 63.2259 312.769 62.0014 316.538 60.9835C320.408 59.8648 324.026 59.3054 327.392 59.3054C328.41 59.4062 329.378 59.4566 330.295 59.4566H332.895C332.996 59.4566 333.147 59.4818 333.353 59.5322C333.56 59.5826 333.711 59.6078 333.812 59.6078L333.661 62.6665C332.436 62.465 331.267 62.3592 330.144 62.3592C326.677 62.3592 323.421 63.0747 320.363 64.5008C318.019 65.5187 315.777 66.466 313.64 67.3277C311.499 68.1945 309.513 68.9856 307.679 69.6961C306.046 70.2051 304.545 71.1726 303.169 72.5987C301.793 74.0247 300.544 75.7582 299.425 77.794C298.301 79.9356 297.233 82.0974 296.215 84.2894C295.197 86.4814 294.33 88.6432 293.615 90.7849V90.6337C293.514 90.9411 293.439 91.2737 293.388 91.6264C293.333 91.9842 293.257 92.3168 293.156 92.6191L290.254 92.0094L290.712 90.1751L290.707 90.1802ZM314.089 88.4971C313.882 88.2955 313.681 88.3459 313.479 88.6483L314.089 88.4971ZM362.696 92.7804C362.797 92.8811 362.873 92.9315 362.923 92.9315C362.973 92.9315 363.004 92.987 363.004 93.0827L370.648 96.4438V95.2193C370.648 93.2843 370.315 91.45 369.655 89.7166C368.99 87.9831 367.947 86.5066 366.521 85.2821C365.604 84.5716 364.636 83.9317 363.613 83.3723C362.596 82.813 361.527 82.3796 360.404 82.0722C359.179 81.7648 357.98 81.4373 356.811 81.0795C355.642 80.7217 354.543 80.3891 353.525 80.0868C352.507 79.6786 351.439 79.4771 350.315 79.4771C349.806 79.4771 349.267 79.5023 348.708 79.5527C348.148 79.603 347.508 79.729 346.798 79.9356C345.674 80.1422 344.505 80.243 343.281 80.243C341.754 80.243 340.378 79.991 339.154 79.4771C336.81 79.8852 334.437 80.369 332.048 80.9283C329.655 81.4877 327.13 82.435 324.485 83.7553C321.834 84.9798 319.949 86.7132 318.831 88.9506C317.707 91.193 317.198 93.9444 317.304 97.2047L315.162 128.997C317.813 127.979 320.489 126.961 323.19 125.938C325.891 124.92 328.561 123.902 331.217 122.879C331.01 122.879 330.859 122.728 330.758 122.421C330.552 122.219 330.325 121.987 330.068 121.735C329.811 121.483 329.534 121.201 329.226 120.894L327.392 118.752C322.907 114.983 320.257 110.397 319.445 104.995C319.546 101.327 320.005 98.0664 320.821 95.2143C321.632 92.3621 322.807 90.1701 324.333 88.6432C325.044 88.0335 325.961 87.3179 327.085 86.5016C328.203 85.6903 329.529 84.8185 331.061 83.9014C333.096 82.5761 335.54 81.916 338.398 81.916C340.025 81.916 341.759 82.1226 343.593 82.5257C343.8 82.5257 344.152 82.5761 344.661 82.6769C345.886 82.9843 347.236 83.3673 348.713 83.8258C350.189 84.2844 351.948 85.1763 353.989 86.5016C354.699 86.9098 355.314 87.2675 355.823 87.5699C356.332 87.8773 356.841 88.1796 357.35 88.487C357.657 88.6936 357.985 88.87 358.343 89.0212C358.7 89.1723 358.977 89.3034 359.184 89.4041C359.794 89.8123 360.429 90.3213 361.094 90.931C361.754 91.5407 362.288 92.1555 362.696 92.7652V92.7804ZM344.505 94.4584C348.073 95.0681 350.466 96.343 351.691 98.278C352.915 100.012 353.827 102.355 354.442 105.308C353.626 110.81 350.875 113.411 346.188 113.103C341.3 113.31 337.783 112.236 335.641 109.893C334.417 108.568 333.807 107.091 333.807 105.459C333.807 104.642 334.059 103.776 334.568 102.859C334.467 102.45 334.417 102.093 334.417 101.79V100.873C334.417 99.039 335.228 97.4869 336.861 96.212C338.488 94.9371 340.887 93.894 344.047 93.0777L344.349 94.4534H344.651H344.5L344.505 94.4584ZM341.91 102.103C341.401 102.919 341.25 105.313 341.456 109.289C341.759 109.596 342.268 109.747 342.983 109.747C343.492 109.747 344.253 109.697 345.276 109.596C346.904 110.004 348.103 109.697 348.864 108.679C349.63 107.661 350.063 105.927 350.164 103.483V102.642C350.164 102.39 350.109 102.057 350.013 101.649C349.297 101.548 348.637 101.417 348.027 101.266C347.418 101.115 347.01 101.09 346.803 101.191C344.052 101.191 342.424 101.498 341.91 102.108V102.103Z" fill="var(--fill-0, #DB0585)"/>
<path id="Vector_4" d="M342.212 14.0642C342.313 12.4366 342.802 10.7787 343.663 9.09562C344.53 7.41255 345.523 5.96128 346.642 4.74181C347.659 3.5173 349.292 2.58003 351.535 1.91486C353.777 1.25474 356.423 0.871748 359.481 0.765927C361.416 0.256975 363.457 0 365.594 0C368.753 0 371.757 0.609742 374.614 1.83425C379.199 3.66849 381.543 6.31905 381.643 9.78093C382.258 10.0883 382.868 10.4209 383.478 10.7737C384.087 11.1314 384.546 11.4136 384.853 11.6152C384.753 11.9226 384.677 12.0737 384.621 12.0737H384.395V12.2249C385.72 14.2658 386.713 16.0748 387.373 17.652C388.038 19.2343 388.623 20.8368 389.132 22.4644C389.232 22.7718 389.283 23.0741 389.283 23.3815C389.283 23.6889 389.232 23.9913 389.132 24.2987V24.1475V26.1329C389.031 27.05 388.88 27.8664 388.673 28.5769C388.779 28.5769 388.849 28.6021 388.905 28.6525C388.955 28.7029 389.036 28.7281 389.132 28.7281C390.154 29.1362 391.172 29.4688 392.19 29.7208C393.208 29.9778 394.125 30.1037 394.942 30.1037C395.551 30.1037 396.166 29.9526 396.776 29.6452H398.766L398.917 32.5477C397.491 32.5477 395.914 32.6485 394.181 32.8551C392.654 32.6536 391.102 32.3966 389.519 32.0892C387.942 31.7818 386.491 31.5046 385.161 31.2476C383.84 30.9957 382.772 30.7891 381.951 30.6379C381.139 30.4867 380.625 30.3557 380.424 30.2549L376.297 27.9621C378.131 27.3524 379.683 26.4605 380.958 25.2863C382.233 24.1173 383.074 22.7164 383.483 21.0837C382.868 19.2495 382.132 17.4908 381.265 15.8128C380.399 14.1297 379.048 12.2753 377.214 10.2345V10.3856C375.279 8.34983 372.986 6.97414 370.336 6.25859C368.809 5.85042 367.231 5.44225 365.599 5.03408C363.971 4.62591 362.233 4.16736 360.403 3.65841C357.959 3.65841 355.717 3.99098 353.676 4.65111C351.64 5.31627 350.008 6.30897 348.788 7.63426C348.178 8.4506 347.619 9.19136 347.105 9.85149C346.596 10.5167 346.188 11.1012 345.881 11.6101C345.372 12.628 345.12 14.16 345.12 16.1958V16.0446C345.12 16.1453 345.17 16.352 345.271 16.6543C345.372 16.9567 345.422 17.2137 345.422 17.4203V18.03L345.573 18.4886V18.6397C345.674 18.8463 345.724 19.0983 345.724 19.4057C345.724 19.3049 345.624 19.1537 345.422 18.9471L344.046 19.5569H343.28L344.046 19.0983L342.822 19.5569H342.671C342.57 19.3553 342.52 19.1739 342.52 19.0227V18.6397C342.419 18.3323 342.368 18.1308 342.368 18.03V17.7226C342.368 17.2137 342.343 16.6543 342.293 16.0396C342.242 15.4298 342.217 14.815 342.217 14.2053V14.0541L342.212 14.0642ZM342.676 19.8743L342.827 20.0255V20.1767C342.726 20.0759 342.676 19.9751 342.676 19.8693V19.5619H343.285L342.676 19.8693V19.8743ZM353.676 34.0897C353.167 33.7823 352.633 33.4296 352.074 33.0214C351.514 32.6132 351.081 32.1547 350.774 31.6457L349.549 30.7286H349.7C348.274 29.7107 347.08 28.718 346.107 27.7505C345.14 26.783 344.298 25.2309 343.588 23.0893C343.381 22.7819 343.28 22.4292 343.28 22.021C343.28 21.9202 343.255 21.769 343.205 21.5624C343.154 21.3609 343.124 21.2047 343.124 21.1039H342.973C342.872 20.7965 342.822 20.4941 342.822 20.1867C342.822 20.2875 342.928 20.4437 343.124 20.6453L344.349 20.0356H344.5L344.041 20.343L345.568 20.0356H345.871C346.279 21.3609 346.843 22.6862 347.554 24.0064V23.8552C350.103 27.1155 353.565 29.6654 357.949 31.4996C357.849 31.9078 357.949 32.2655 358.252 32.5679C358.761 32.8753 359.194 33.1272 359.552 33.3338C359.91 33.5404 360.242 33.742 360.545 33.9436L369.716 37.0023C372.568 38.5292 376.136 39.2951 380.414 39.2951C381.432 39.2951 382.555 39.2447 383.775 39.1439C384.999 39.0432 386.325 38.892 387.746 38.6854C389.58 39.6025 391.313 40.1618 392.941 40.3684C393.757 40.3684 394.725 40.444 395.849 40.5952C396.972 40.7464 398.293 41.0286 399.825 41.4367C401.961 41.2352 404.204 40.9782 406.547 40.6708C408.89 40.3634 411.233 39.9603 413.576 39.4463C416.02 39.0381 418.237 38.504 420.223 37.8438C422.213 37.1837 424.022 36.3926 425.65 35.4754V35.6266C427.177 34.7095 428.452 33.742 429.47 32.7241C430.488 31.7062 431.254 30.5824 431.763 29.363C432.372 28.1385 432.932 27.0198 433.441 26.0019C433.949 24.984 434.458 24.0165 434.967 23.0993C434.05 22.1822 433.058 21.3155 431.989 20.4992C430.921 19.6879 429.923 18.8211 429.011 17.904L430.845 15.6112L435.89 19.582L435.738 19.4309C436.142 19.6375 436.6 19.8642 437.114 20.1212C437.623 20.3782 438.082 20.605 438.49 20.8065L442.768 25.3922C442.466 25.8003 442.103 26.3345 441.7 26.9946C441.292 27.6598 440.934 28.1939 440.631 28.5971C439.916 29.9223 439.074 31.2728 438.107 32.6485C437.139 34.0242 435.99 35.2739 434.67 36.3926C433.546 37.4105 432.246 38.4838 430.775 39.6025C429.298 40.7262 427.998 41.6937 426.88 42.505C426.471 42.8124 426.038 43.1148 425.58 43.4222C425.121 43.7295 424.738 43.9815 424.436 44.1881C422.501 44.6971 420.591 45.1808 418.706 45.6394C416.821 46.0979 415.113 46.4809 413.586 46.7883C411.959 47.0957 409.918 47.2469 407.474 47.2469H404.798C403.831 47.2469 402.838 47.1965 401.815 47.0957C401.306 47.1965 400.772 47.2469 400.213 47.2469H398.454C396.826 47.2469 395.37 47.1209 394.1 46.8639C392.825 46.6119 391.424 46.3801 389.897 46.1735L387.756 45.715C387.453 45.8157 387.065 45.8661 386.612 45.8661H385.312C382.969 45.8661 380.474 45.3068 377.824 44.1831L377.975 44.3342C376.141 43.6237 374.533 43.0089 373.157 42.5C371.782 41.991 370.537 41.5325 369.413 41.1243C368.395 40.7161 367.347 40.3382 366.279 39.9754C365.206 39.6176 364.163 39.285 363.145 38.9827C363.044 38.8819 362.888 38.8063 362.686 38.7559C362.48 38.7055 362.328 38.6299 362.228 38.5292C361.618 38.121 360.983 37.7431 360.318 37.3802C359.658 37.0225 359.023 36.6949 358.408 36.3875L358.559 36.0801C358.358 35.9794 358.206 35.8786 358.101 35.7728C358 35.672 357.849 35.5712 357.642 35.4654C357.335 35.4654 357.083 35.415 356.876 35.3142C356.266 35.2134 355.677 35.0622 355.117 34.8556C354.558 34.6541 354.024 34.3971 353.51 34.0897H353.661H353.676ZM344.046 19.5669H345.271L345.422 19.4157L345.573 19.5669H345.724V19.7181C345.83 19.8189 345.876 19.9247 345.876 20.0255H344.5H344.651H342.817L344.041 19.5669H344.046ZM364.682 10.3957C371.001 11.0055 374.105 13.913 374.004 19.1084C372.986 23.7948 370.542 25.7852 366.667 25.0697C364.732 25.0697 362.999 24.8681 361.472 24.4599C359.945 24.0517 358.67 23.4924 357.652 22.7769C356.327 21.759 355.49 20.7662 355.132 19.7987C354.775 18.8312 354.901 17.7327 355.515 16.5132C355.621 14.0692 356.231 12.3106 357.35 11.2372C358.473 10.169 360 9.78597 361.935 10.0934H362.852C363.059 10.0934 363.261 10.1438 363.462 10.2446H363.311C363.719 10.3453 364.077 10.3957 364.384 10.3957H364.687H364.682ZM365.291 16.8156C364.374 16.7148 363.664 17.123 363.155 18.0401C362.646 18.9572 362.439 20.1313 362.54 21.5574C363.049 21.8648 363.689 22.0411 364.45 22.0915C365.216 22.147 365.957 22.1671 366.667 22.1671C367.791 22.2679 368.577 22.1167 369.035 21.7086C369.494 21.3004 369.927 20.484 370.336 19.2646C370.235 18.9572 370.159 18.6548 370.109 18.3475C370.058 18.0401 369.983 17.7881 369.877 17.5815V17.2741C369.474 17.1733 369.091 17.1229 368.733 17.1229C368.375 17.1229 367.992 17.0726 367.584 16.9718H366.36C366.052 16.9718 365.7 16.9214 365.291 16.8206V16.8156ZM427.651 14.2204C427.751 14.427 427.903 14.6034 428.109 14.7546C428.311 14.9057 428.462 15.0871 428.563 15.2887L426.119 16.9667V16.8156C425.202 19.3654 423.982 21.3004 422.45 22.6257C421.634 23.442 420.591 24.3037 419.316 25.2259C418.041 26.143 416.69 27.1105 415.264 28.1284C414.554 28.4358 413.914 28.7432 413.355 29.0455C412.795 29.3479 412.261 29.5545 411.747 29.6553V29.8064C410.931 30.013 410.17 30.265 409.454 30.5724C408.744 30.8798 408.028 31.1317 407.318 31.3383C407.111 31.4391 406.834 31.5449 406.476 31.6457C406.118 31.7465 405.74 31.8523 405.332 31.9531C404.007 32.0539 402.838 32.1345 401.815 32.1849C400.797 32.2353 399.83 32.2605 398.912 32.2605L399.215 29.2018C400.238 29.3025 401.331 29.3025 402.5 29.2018C403.674 29.101 404.924 28.9498 406.244 28.7432C407.262 28.5416 408.688 27.9268 410.523 26.9089L411.289 28.592L410.83 26.7578C411.238 26.657 411.646 26.526 412.054 26.3748C412.463 26.2236 412.82 25.9918 413.128 25.6844C414.146 24.8681 415.164 23.951 416.187 22.9331C417.204 21.9152 418.172 20.741 419.094 19.4157C420.112 18.1912 421.004 16.8962 421.765 15.5205C422.531 14.1448 423.267 12.6432 423.982 11.0105L427.958 13.913L427.651 14.2204Z" fill="var(--fill-0, #DB0585)"/>
<path id="Vector_5" d="M519.05 112.342L521.651 112.952C521.55 116.313 520.859 119.12 519.59 121.357C518.315 123.6 516.405 125.177 513.86 126.094C503.162 128.538 494.802 132.156 488.795 136.943C489.002 138.878 489.229 140.743 489.486 142.522C489.738 144.306 489.97 146.115 490.176 147.949C488.543 146.83 487.168 145.787 486.049 144.815C484.93 143.847 484.064 142.955 483.449 142.139C482.431 143.363 481.514 144.638 480.698 145.958C479.881 147.284 479.221 148.659 478.712 150.085L475.961 149.476L479.02 88.7996C477.588 84.4206 476.238 80.8025 474.968 77.9504C473.693 75.0982 472.544 72.9566 471.526 71.5305C469.284 68.4718 466.89 66.0832 464.341 64.3498C463.116 63.4327 461.871 62.5911 460.596 61.8302C459.317 61.0643 458.072 60.3789 456.852 59.7642C454.812 58.847 451.607 58.2373 447.228 57.9299C446.205 57.8291 445.288 57.7787 444.476 57.7787C442.844 57.7787 441.292 57.9854 439.815 58.3885C438.339 58.7967 436.882 59.5122 435.461 60.5301C433.627 61.8554 432.201 63.5385 431.178 65.5743C430.16 67.6151 429.394 69.8525 428.885 72.3015C429.193 74.5439 429.52 76.479 429.878 78.1116C430.231 79.7443 430.614 81.12 431.022 82.2387C431.833 84.3803 434.484 86.8243 438.969 89.5757C440.702 90.8002 443.171 91.8936 446.381 92.8611C449.591 93.8287 453.537 94.5694 458.223 95.0784L450.886 128.548L451.037 97.0638C449.914 99.407 448.689 100.173 447.369 99.3566C446.552 98.9484 445.786 98.5705 445.076 98.2127C444.365 97.8549 443.599 97.5778 442.783 97.3712C442.682 97.2704 442.556 97.1948 442.4 97.1444C442.249 97.094 442.118 97.0688 442.017 97.0688C440.284 96.3583 438.757 95.6428 437.432 94.9272C436.106 94.2167 435.189 93.1937 434.68 91.8684C434.474 91.6669 434.272 91.4603 434.07 91.2587C433.864 91.0571 433.662 90.8002 433.461 90.4928C432.236 89.883 431.244 89.0919 430.478 88.1244C429.717 87.1569 429.026 86.1641 428.417 85.1462V85.2974C428.311 84.99 428.185 84.7381 428.034 84.5315C427.882 84.3299 427.751 84.1233 427.651 83.9217C426.734 82.4957 426.144 81.1452 425.892 79.8703C425.635 78.5954 425.408 77.0433 425.202 75.2091C425.302 73.6822 425.559 72.2058 425.963 70.7747C426.371 69.3486 426.93 67.9225 427.646 66.4964C428.457 65.0703 429.273 63.7703 430.09 62.6012C430.901 61.4321 431.717 60.4394 432.534 59.6231C433.96 58.197 435.562 56.9977 437.351 56.0302C439.13 55.0627 441.402 54.5789 444.154 54.5789C445.378 54.5789 446.598 54.6797 447.822 54.8863C449.047 54.4781 450.216 54.2765 451.34 54.2765C452.564 54.2765 453.577 54.4832 454.398 54.8863C455.21 55.0929 456.051 55.3196 456.918 55.5766C457.785 55.8336 458.621 56.0604 459.437 56.267C460.556 56.3678 461.629 56.65 462.647 57.1086C463.665 57.5671 464.734 58.1567 465.857 58.8672C466.366 59.0738 466.85 59.3257 467.309 59.6331C467.767 59.9405 468.201 60.1925 468.609 60.3991C469.118 60.7065 469.677 61.1398 470.287 61.6992C470.896 62.2585 471.456 62.6919 471.965 62.9993C471.864 63.2059 471.965 63.4578 472.272 63.7652C472.58 64.0726 472.932 64.4304 473.34 64.8335C473.648 65.0401 473.955 65.2669 474.258 65.5239C474.56 65.7809 474.867 66.0076 475.175 66.2142C477.311 68.3559 478.742 70.4925 479.453 72.6341C479.755 73.5512 480.088 74.7505 480.446 76.227C480.803 77.7034 481.081 79.4117 481.287 81.3467V84.4055C482.406 92.2514 483.555 100.43 484.729 108.936C485.898 117.447 487.097 125.878 488.322 134.232C489.032 133.824 489.748 133.416 490.463 133.008C491.174 132.6 491.839 132.197 492.449 131.783C494.59 130.559 497.034 128.881 499.786 126.739C502.845 124.396 507.224 123.071 512.928 122.768C513.437 122.461 513.996 122.033 514.611 121.468C515.221 120.909 515.881 120.168 516.596 119.251C517.307 118.435 517.765 117.649 517.972 116.883C518.179 116.117 518.179 115.431 517.972 114.817L518.279 113.9V113.748L518.431 113.597L519.04 112.373L519.05 112.342ZM450.73 169.506C449.097 169.713 447.52 169.99 445.993 170.348C444.466 170.706 442.934 171.038 441.407 171.341L450.886 128.543L450.735 169.506H450.73ZM451.954 67.1011C456.842 67.3077 459.901 70.2607 461.126 75.965C460.103 81.4677 457.099 84.476 452.106 84.985C448.946 85.2924 446.447 84.3249 444.617 82.0825C443.7 81.0646 442.985 79.9408 442.476 78.7214C441.967 77.4968 441.659 76.2774 441.559 75.0529C441.866 73.8284 442.194 72.7097 442.551 71.6918C442.904 70.6739 443.393 69.7819 444.003 69.016C444.617 68.25 445.353 67.6907 446.22 67.3329C447.087 66.9752 448.079 66.7988 449.198 66.7988C450.317 67.1062 451.183 67.2069 451.798 67.1062H451.949L451.954 67.1011ZM454.247 73.8284C451.597 74.2365 449.969 76.4286 449.359 80.3994C449.762 80.3994 450.125 80.4548 450.427 80.5506C450.836 80.6513 451.239 80.7269 451.652 80.7773C452.06 80.8328 452.418 80.8025 452.72 80.7017C454.247 80.7017 455.421 80.3188 456.238 79.5579C457.054 78.7919 457.613 77.8546 457.916 76.7309C457.815 76.3227 457.739 75.9952 457.689 75.7382C457.633 75.4862 457.613 75.2544 457.613 75.0478V74.8967C457.407 74.6951 457.024 74.4633 456.469 74.2063C455.905 73.9544 455.169 73.8233 454.252 73.8233L454.247 73.8284ZM535.407 66.3352L536.173 67.7109L536.481 66.7937C536.99 67.4035 537.574 68.0938 538.239 68.8598C538.899 69.6257 539.484 70.2607 539.998 70.7696L536.486 128.851C537.095 128.241 537.71 127.707 538.32 127.248C538.935 126.79 539.393 126.407 539.696 126.104C539.696 128.145 539.796 129.365 540.003 129.773L541.53 130.997C541.731 131.204 541.983 131.456 542.291 131.763C542.598 132.071 542.951 132.373 543.359 132.68C543.566 132.887 543.692 133.013 543.742 133.063C543.792 133.119 543.868 133.139 543.974 133.139C544.075 133.345 544.276 133.572 544.584 133.829C544.891 134.086 545.143 134.313 545.35 134.52C545.45 134.62 545.526 134.746 545.576 134.903C545.627 135.054 545.702 135.185 545.803 135.286C545.904 135.386 546.01 135.492 546.11 135.593L547.028 136.359C547.637 137.175 548.171 138.118 548.63 139.186C549.089 140.254 549.472 141.403 549.774 142.623C549.875 142.829 549.95 143.056 550.006 143.313C550.056 143.57 550.132 143.847 550.238 144.154V144.003C550.439 144.719 550.62 145.354 550.772 145.913C550.923 146.472 551.049 146.961 551.155 147.364C551.361 148.181 551.563 148.967 551.769 149.733C551.971 150.499 552.278 151.184 552.687 151.794C552.888 152.509 553.019 153.169 553.07 153.779C553.12 154.389 553.145 155.004 553.145 155.613C553.145 156.939 552.969 158.264 552.611 159.589C552.253 160.915 551.82 162.189 551.311 163.409C550.595 165.042 550.011 166.518 549.552 167.843C549.094 169.169 548.811 170.343 548.711 171.361C547.184 172.379 545.627 173.271 544.049 174.036C542.467 174.802 540.915 175.589 539.388 176.405C537.957 177.115 536.536 177.65 535.11 178.007C533.679 178.365 532.409 178.541 531.29 178.541C530.373 178.743 529.456 178.874 528.539 178.924C527.622 178.975 526.705 179 525.788 179C522.427 179 519.393 178.259 516.697 176.783C513.996 175.306 511.628 172.983 509.592 169.829C509.491 169.728 509.335 169.652 509.133 169.602C508.927 169.552 508.776 169.526 508.675 169.526L507.758 167.692C507.551 168.1 507.501 168.357 507.607 168.458C506.281 167.44 505.183 166.422 504.321 165.399C503.454 164.381 502.819 163.364 502.411 162.341C502.109 161.731 501.801 160.839 501.494 159.665C501.187 158.496 500.829 157.095 500.426 155.462C499.917 155.971 499.357 156.48 498.743 156.989C498.133 157.498 497.468 157.957 496.757 158.365C496.248 158.874 495.709 159.357 495.15 159.816C494.59 160.275 494.006 160.758 493.391 161.267C491.864 162.391 490.539 163.535 489.415 164.704C488.292 165.878 487.324 167.072 486.513 168.297C485.696 169.521 484.93 170.615 484.22 171.582C483.504 172.55 482.844 173.391 482.229 174.102C480.294 176.753 478.969 178.179 478.254 178.38C477.543 178.582 477.387 177.665 477.8 175.629C473.618 175.422 469.39 175.221 465.117 175.014C460.833 174.807 456.605 174.606 452.428 174.404L450.75 171.043V169.516C454.519 168.806 458.314 168.04 462.138 167.224C465.958 166.407 469.702 165.646 473.371 164.931L475.512 167.072C476.429 165.954 477.83 164.477 479.715 162.638C481.6 160.804 483.968 158.566 486.82 155.911C494.157 149.189 499.252 145.162 502.104 143.837C502.613 147.405 503.122 150.408 503.631 152.857C504.14 155.301 504.649 157.191 505.157 158.511C505.566 159.836 506.206 161.086 507.067 162.255C507.934 163.429 509.028 164.523 510.353 165.541C513.104 167.682 515.931 169.184 518.834 170.051C521.741 170.917 524.261 171.194 526.397 170.892C527.108 170.993 527.773 171.073 528.383 171.124C528.993 171.174 529.607 171.199 530.217 171.199C531.235 171.199 532.202 171.124 533.12 170.973C534.037 170.821 534.903 170.645 535.72 170.439C538.27 169.521 539.897 168.246 540.613 166.619C541.223 165.394 541.837 164.15 542.447 162.875C543.057 161.6 543.671 160.355 544.281 159.131C544.992 157.805 545.531 156.536 545.889 155.311C546.241 154.087 546.373 152.917 546.272 151.794V151.945C545.763 149.294 545.103 146.573 544.286 143.766C543.47 140.965 542.251 137.679 540.618 133.91C539.701 132.993 538.834 132.333 538.018 131.924L538.169 131.617L536.944 130.851C535.619 130.035 532.611 129.274 527.924 128.558L536.637 121.221C535.921 112.665 535.236 104.053 534.576 95.3908C533.911 86.7336 533.276 78.1217 532.666 69.5602L535.417 66.3503L535.407 66.3352ZM525.012 139.09C526.433 139.397 527.783 139.755 529.063 140.158C530.338 140.567 531.431 140.975 532.349 141.383C533.367 141.993 534.158 142.965 534.717 144.285C535.276 145.611 535.453 147.294 535.251 149.33C534.536 152.998 533.518 155.548 532.192 156.974C530.968 157.992 528.68 159.065 525.314 160.184C521.847 159.877 519.222 158.758 517.443 156.823C515.659 154.888 514.772 152.338 514.772 149.178V147.803C514.772 147.395 514.823 146.986 514.923 146.578V146.729C515.432 141.942 518.234 138.989 523.329 137.866L525.012 139.09ZM517.372 114.479C517.473 113.461 517.549 112.468 517.599 111.501C517.649 110.533 517.725 109.641 517.826 108.825C517.927 109.949 518.002 110.71 518.058 111.118C518.108 111.526 518.133 111.758 518.133 111.808C518.133 111.859 518.133 111.783 518.133 111.582C518.133 111.38 518.108 111.274 518.058 111.274C518.002 111.274 518.002 111.425 518.058 111.733C518.108 112.04 518.184 112.7 518.289 113.718L517.372 114.484V114.479ZM519.05 66.0328L520.885 64.506V66.0328C522.82 65.932 524.729 65.8817 526.614 65.8817H532.344L532.651 65.7305L532.344 68.7892L519.045 66.0379L519.05 66.0328ZM520.885 70.7696C520.885 70.0591 520.859 69.5451 520.809 69.2428C520.754 68.9354 520.733 68.633 520.733 68.3256H521.041L520.89 70.7696H520.885ZM522.87 147.188C522.663 147.596 522.462 148.055 522.26 148.564C522.054 149.073 521.902 149.582 521.802 150.091V152.842C521.902 153.351 522.008 153.86 522.109 154.369C522.21 154.878 522.311 155.185 522.417 155.286C522.517 155.387 522.719 155.492 523.026 155.593C523.334 155.694 523.893 155.649 524.709 155.442C526.952 155.649 528.529 155.392 529.446 154.676C530.061 154.268 530.822 152.64 531.739 149.788C531.331 149.481 530.923 149.128 530.514 148.72C530.106 148.312 529.854 148.06 529.753 147.954C530.363 147.752 530.746 147.647 530.897 147.647C531.049 147.647 531.174 147.702 531.28 147.798C531.28 146.881 530.872 146.296 530.056 146.039C529.239 145.787 528.529 145.606 527.914 145.505C525.364 145.606 523.686 146.17 522.87 147.188Z" fill="var(--fill-0, #DB0585)"/>
</g>
</svg>
