<svg preserveAspectRatio="none" width="100%" height="100%" overflow="visible" style="display: block;" viewBox="0 0 104.496 36.3242" fill="none" xmlns="http://www.w3.org/2000/svg">
<g id="Group">
<path id="Vector" d="M103.707 12.2342C103.967 12.8542 104.047 13.6642 103.957 14.6742C103.867 15.6842 103.377 16.7642 102.507 17.9242C99.0371 17.5742 95.237 17.4942 91.117 17.6742C86.997 17.8542 82.8171 18.2642 78.5871 18.8942C74.3571 19.5242 70.217 20.3643 66.177 21.4043C62.127 22.4443 58.4871 23.6643 55.2371 25.0443C52.9871 26.0043 50.6471 27.0142 48.2171 28.0942C45.7971 29.1642 43.4871 30.1843 41.2971 31.1543C39.1071 32.1143 37.1171 32.9742 35.3271 33.7142C33.5371 34.4542 32.1571 34.9742 31.1671 35.2742C30.5071 35.4742 29.747 35.6242 28.877 35.7342C28.007 35.8442 27.1471 35.8542 26.2971 35.7742C25.4471 35.6942 24.6571 35.4842 23.9171 35.1442C23.1871 34.8142 22.6571 34.2643 22.3471 33.5143C21.9771 32.7543 21.7971 32.0442 21.8271 31.3942C21.8571 30.7442 21.9971 30.1143 22.2371 29.5143C22.4871 28.9143 22.8071 28.3242 23.2171 27.7442C23.6271 27.1642 24.007 26.5942 24.377 26.0342C24.527 25.7842 24.8971 25.2642 25.4771 24.4642C26.0671 23.6742 26.5871 22.8342 27.0471 21.9642C27.5071 21.0942 27.807 20.3042 27.937 19.5942C28.067 18.8842 27.7871 18.4942 27.0871 18.4242C26.3871 18.3542 25.7371 18.4542 25.0971 18.7242C24.4671 18.9942 23.8371 19.2742 23.2071 19.5742C22.5771 19.8742 21.9471 20.1542 21.3171 20.4242C20.6871 20.6942 20.0271 20.7842 19.3371 20.7142C18.6471 20.6442 17.837 20.3842 16.927 19.9342C16.017 19.4842 15.0471 18.5842 14.0271 17.2342C13.0571 16.0242 12.2271 14.9242 11.5171 13.9342C10.8171 12.9442 10.2371 12.1642 9.77707 11.5942C9.19707 13.0442 9.09709 14.8142 9.47709 16.8842C9.85709 18.9542 10.3871 20.9442 11.0671 22.8542C11.7471 24.7642 12.7871 27.0643 14.1971 29.7643C13.0071 30.9643 11.6971 31.7042 10.2671 31.9842C8.83706 32.2742 7.44708 31.8242 6.09708 30.6342C5.15708 29.8142 4.34704 28.5742 3.67704 26.8942C3.00704 25.2242 2.4471 23.4042 1.9871 21.4542C1.5371 19.5042 1.18706 17.5842 0.947056 15.6842C0.707056 13.7842 0.547076 12.2442 0.467076 11.0542C0.437076 10.0642 0.557071 8.91424 0.837071 7.59424C1.11707 6.27424 1.5871 5.04424 2.2371 3.89424C2.8871 2.74424 3.68706 1.83424 4.63706 1.17424C5.58706 0.51424 6.71707 0.34424 8.02707 0.67424C9.51707 1.08424 10.9071 1.84425 12.2071 2.96425C13.5071 4.07425 14.7171 5.23425 15.8471 6.43425C16.9771 7.63425 17.9771 8.71425 18.8371 9.68425C19.6971 10.6542 20.4471 11.1742 21.0771 11.2342C21.5171 11.2742 22.037 11.1842 22.627 10.9442C23.227 10.7042 23.9071 10.4342 24.6671 10.1142C25.4271 9.79424 26.2871 9.53424 27.2271 9.33424C28.1671 9.13424 29.2071 9.08424 30.3471 9.20424C32.0471 9.37424 33.4971 9.86424 34.6971 10.6742C35.8971 11.4842 36.6871 12.5642 37.0671 13.9142C37.4071 15.0042 37.537 16.0642 37.437 17.1042C37.337 18.1442 37.1171 19.1742 36.7671 20.1942C36.4171 21.2142 35.977 22.2142 35.437 23.2142C34.897 24.2142 34.3271 25.2042 33.7271 26.1942L33.2871 26.8442C33.7371 26.7542 34.2771 26.5842 34.9171 26.3142C35.5471 26.0442 36.2071 25.7542 36.9071 25.4342C37.6071 25.1042 38.2771 24.7842 38.9071 24.4542C39.5471 24.1242 40.0571 23.8443 40.4671 23.6243C42.4071 22.6343 44.7071 21.4542 47.3871 20.0742C50.0571 18.7042 52.9471 17.3242 56.0271 15.9642C59.1171 14.5942 62.3071 13.3342 65.5971 12.1842C68.8871 11.0342 72.0871 10.1543 75.1971 9.54425C77.4671 9.11425 79.707 8.74424 81.937 8.44424C84.157 8.14424 86.217 7.90424 88.117 7.73424C90.017 7.56424 91.677 7.44424 93.117 7.39424C94.557 7.34424 95.6171 7.34425 96.3171 7.41425C96.8171 7.46425 97.4271 7.60424 98.1371 7.84424C98.8471 8.08424 99.5671 8.39425 100.287 8.79425C101.017 9.19425 101.687 9.68425 102.297 10.2742C102.907 10.8642 103.377 11.5342 103.687 12.2842L103.707 12.2342Z" fill="var(--fill-0, #FF6602)"/>
<path id="Vector_2" d="M27.4171 36.3242C27.0271 36.3242 26.6371 36.3043 26.2571 36.2643C25.3571 36.1743 24.4971 35.9442 23.7271 35.5942C22.8771 35.2042 22.2671 34.5742 21.9071 33.6942C21.5071 32.8942 21.3171 32.0942 21.3571 31.3642C21.3871 30.6542 21.5371 29.9642 21.8071 29.3142C22.0671 28.6942 22.4071 28.0642 22.8371 27.4442C23.2371 26.8642 23.6271 26.2942 23.9971 25.7442C24.1471 25.5042 24.4971 24.9942 25.1071 24.1642C25.6671 23.3942 26.1871 22.5742 26.6371 21.7242C27.0771 20.8942 27.3571 20.1442 27.4771 19.4942C27.5171 19.2842 27.5071 19.1242 27.4471 19.0542C27.3971 18.9842 27.2571 18.9342 27.0771 18.9142C26.4671 18.8542 25.8871 18.9442 25.3371 19.1742C24.7171 19.4342 24.0871 19.7143 23.4671 20.0143C22.8271 20.3143 22.1971 20.6042 21.5571 20.8642C20.8571 21.1642 20.1071 21.2742 19.3271 21.1942C18.5771 21.1242 17.7071 20.8442 16.7471 20.3642C15.7571 19.8742 14.7471 18.9443 13.6671 17.5143C12.7071 16.3143 11.8571 15.1942 11.1471 14.2042C10.7171 13.6042 10.3371 13.0842 10.0071 12.6342C9.71708 13.8242 9.71708 15.2042 10.0071 16.7742C10.3771 18.8142 10.9071 20.7942 11.5771 22.6642C12.2471 24.5342 13.2871 26.8443 14.6771 29.5143L14.8471 29.8342L14.5871 30.0942C13.3271 31.3542 11.9171 32.1442 10.3971 32.4542C8.81709 32.7742 7.26711 32.2742 5.79711 30.9942C4.79711 30.1342 3.93707 28.8042 3.24707 27.0642C2.56707 25.3642 1.9971 23.5142 1.5371 21.5542C1.0871 19.6042 0.727117 17.6542 0.487117 15.7342C0.247117 13.7942 0.087075 12.2643 0.007075 11.0743C-0.032925 10.0343 0.0970799 8.83424 0.38708 7.47424C0.67708 6.11424 1.16709 4.82425 1.83709 3.63425C2.52709 2.42425 3.37708 1.45424 4.38708 0.754243C5.45708 0.0142428 6.73707 -0.185759 8.18707 0.174241C9.75707 0.604241 11.2271 1.41424 12.5671 2.56424C13.8771 3.69424 15.1171 4.86424 16.2471 6.06424C17.3571 7.24424 18.3671 8.34425 19.2471 9.32425C20.2071 10.4143 20.8171 10.6742 21.1671 10.7142C21.5271 10.7542 21.9671 10.6642 22.4871 10.4542C23.0771 10.2142 23.7571 9.94425 24.5171 9.62425C25.3071 9.29425 26.1971 9.02424 27.1671 8.81424C28.1571 8.60424 29.2571 8.55424 30.4371 8.67424C32.2171 8.85424 33.7571 9.37424 35.0171 10.2242C36.3071 11.0942 37.1771 12.2842 37.5871 13.7442C37.9471 14.8742 38.0771 16.0142 37.9771 17.1142C37.8771 18.1842 37.6471 19.2642 37.2771 20.3142C36.9271 21.3442 36.4671 22.3843 35.9171 23.4043C35.4671 24.2443 34.9871 25.0842 34.4871 25.9142C34.5771 25.8842 34.6571 25.8442 34.7471 25.8042C35.3671 25.5442 36.0271 25.2442 36.7271 24.9242C37.4171 24.6042 38.0771 24.2742 38.7071 23.9542C39.3371 23.6242 39.8571 23.3542 40.2571 23.1342C42.2071 22.1342 44.5171 20.9542 47.1871 19.5842C49.8571 18.2142 52.7771 16.8242 55.8571 15.4542C58.9471 14.0842 62.1771 12.8042 65.4671 11.6642C68.7471 10.5142 72.0071 9.62424 75.1371 9.00424C77.4171 8.57424 79.6871 8.20424 81.9071 7.89424C84.1271 7.59424 86.2171 7.35424 88.1071 7.17424C90.0171 7.00424 91.7071 6.88424 93.1271 6.83424C94.5971 6.78424 95.6671 6.78425 96.3871 6.85425C96.9271 6.90425 97.5571 7.05425 98.3171 7.30425C99.0571 7.55425 99.8071 7.88425 100.557 8.29425C101.317 8.71425 102.027 9.23425 102.667 9.85425C103.327 10.4842 103.837 11.2242 104.167 12.0342C104.467 12.7342 104.557 13.6142 104.457 14.7142C104.357 15.8142 103.837 16.9942 102.907 18.2242L102.737 18.4442L102.457 18.4142C99.0271 18.0742 95.2171 17.9942 91.1371 18.1742C87.0571 18.3542 82.8571 18.7642 78.6571 19.3842C74.4671 20.0042 70.3071 20.8542 66.2971 21.8842C62.2971 22.9142 58.6371 24.1342 55.4271 25.5042C53.1771 26.4642 50.8371 27.4743 48.4171 28.5443C45.9971 29.6143 43.6871 30.6342 41.4971 31.6042C39.2971 32.5742 37.2871 33.4342 35.5171 34.1642C33.7271 34.9042 32.3071 35.4342 31.3171 35.7342C30.6471 35.9342 29.8471 36.0942 28.9471 36.2142C28.4371 36.2842 27.9171 36.3142 27.4071 36.3142L27.4171 36.3242ZM26.6971 17.8842C26.8571 17.8842 27.0071 17.8843 27.1671 17.9043C27.6471 17.9543 28.0171 18.1342 28.2371 18.4342C28.4671 18.7442 28.5471 19.1542 28.4471 19.6642C28.3071 20.4142 27.9971 21.2642 27.5071 22.1842C27.0271 23.0842 26.4871 23.9442 25.8971 24.7542C25.3271 25.5442 24.9571 26.0542 24.8171 26.2842C24.4371 26.8542 24.0471 27.4343 23.6371 28.0143C23.2571 28.5743 22.9371 29.1342 22.7071 29.6942C22.4871 30.2342 22.3571 30.8143 22.3271 31.4043C22.3071 31.9743 22.4571 32.6042 22.7971 33.2842C23.0771 33.9542 23.5071 34.4042 24.1271 34.6842C24.8071 34.9942 25.5471 35.1942 26.3471 35.2742C27.1571 35.3542 27.9871 35.3442 28.8171 35.2342C29.6571 35.1242 30.4071 34.9743 31.0271 34.7943C31.9871 34.5043 33.3771 33.9842 35.1371 33.2542C36.8971 32.5242 38.8971 31.6642 41.0971 30.7042C43.2871 29.7442 45.5971 28.7243 48.0171 27.6543C50.4471 26.5843 52.7871 25.5642 55.0371 24.6042C58.2971 23.2142 61.9971 21.9842 66.0471 20.9442C70.0971 19.9042 74.2871 19.0542 78.5071 18.4242C82.7371 17.7942 86.9671 17.3842 91.0871 17.2042C95.0971 17.0242 98.8571 17.1042 102.257 17.4242C102.967 16.4242 103.367 15.4942 103.447 14.6442C103.537 13.7242 103.467 12.9842 103.237 12.4442C102.957 11.7542 102.527 11.1342 101.967 10.6042C101.387 10.0542 100.747 9.58424 100.057 9.20424C99.3671 8.82424 98.6671 8.51424 97.9871 8.28424C97.3071 8.06424 96.7371 7.92425 96.2771 7.88425C95.6071 7.81425 94.5571 7.81424 93.1471 7.86424C91.7371 7.91424 90.0671 8.03424 88.1771 8.20424C86.2971 8.37424 84.2271 8.61425 82.0271 8.91425C79.8271 9.21425 77.5671 9.58425 75.3171 10.0143C72.2271 10.6243 69.0271 11.5042 65.7871 12.6342C62.5271 13.7742 59.3271 15.0342 56.2571 16.3942C53.1971 17.7542 50.2971 19.1342 47.6371 20.4942C44.9571 21.8742 42.6571 23.0543 40.7171 24.0443C40.3271 24.2643 39.7971 24.5443 39.1671 24.8743C38.5271 25.2043 37.8471 25.5342 37.1471 25.8642C36.4371 26.1942 35.7671 26.4842 35.1371 26.7542C34.4771 27.0342 33.8971 27.2242 33.4071 27.3142L32.2171 27.5443L33.3471 25.8942C33.9271 24.9442 34.4971 23.9442 35.0271 22.9542C35.5471 21.9842 35.9871 20.9943 36.3271 20.0143C36.6671 19.0343 36.8771 18.0343 36.9771 17.0443C37.0671 16.0743 36.9471 15.0742 36.6271 14.0542C36.2671 12.7942 35.5571 11.8243 34.4571 11.0743C33.3371 10.3143 31.9471 9.85425 30.3371 9.69425C29.2571 9.58425 28.2671 9.63425 27.3771 9.82425C26.4671 10.0143 25.6371 10.2743 24.9071 10.5743C24.1471 10.8943 23.4671 11.1742 22.8671 11.4142C22.1971 11.6742 21.5971 11.7842 21.0771 11.7342C20.3071 11.6542 19.4671 11.0943 18.5071 10.0143C17.6371 9.03425 16.6371 7.94425 15.5271 6.77425C14.4171 5.60425 13.2071 4.44424 11.9271 3.34424C10.6971 2.28424 9.35707 1.55425 7.93707 1.16425C6.77707 0.874246 5.8071 1.01424 4.9671 1.59424C4.0871 2.20424 3.3271 3.06424 2.7171 4.14424C2.0971 5.24424 1.64707 6.44424 1.37707 7.70424C1.10707 8.97424 0.987085 10.1043 1.01708 11.0443C1.09708 12.1943 1.24712 13.7043 1.48712 15.6243C1.72712 17.5043 2.06708 19.4242 2.51708 21.3442C2.95708 23.2542 3.51707 25.0642 4.18707 26.7142C4.82707 28.3042 5.5971 29.5043 6.4671 30.2643C7.7071 31.3543 8.9371 31.7542 10.2171 31.5042C11.4371 31.2642 12.5871 30.6442 13.6271 29.6742C12.3071 27.1042 11.2971 24.8742 10.6471 23.0342C9.95709 21.1142 9.4171 19.0842 9.0371 16.9842C8.6471 14.8242 8.75706 12.9542 9.36706 11.4242L9.68707 10.6243L10.2271 11.2943C10.6871 11.8643 11.2771 12.6643 11.9871 13.6543C12.6871 14.6343 13.5271 15.7342 14.4771 16.9342C15.4571 18.2242 16.3671 19.0842 17.2071 19.5042C18.0571 19.9242 18.8171 20.1742 19.4471 20.2342C20.0671 20.2942 20.6371 20.2142 21.1871 19.9742C21.8071 19.7142 22.4371 19.4342 23.0671 19.1342C23.7071 18.8342 24.3471 18.5542 24.9771 18.2842C25.5371 18.0442 26.1271 17.9242 26.7371 17.9242L26.6971 17.8842Z" fill="var(--fill-0, black)"/>
</g>
</svg>
