<svg preserveAspectRatio="none" width="100%" height="100%" overflow="visible" style="display: block;" viewBox="0 0 18.6675 34.5945" fill="none" xmlns="http://www.w3.org/2000/svg">
<g id="Group">
<path id="Vector" d="M10.85 1.60447C12.16 1.29447 13.31 1.32447 14.3 1.69447C15.17 2.06447 15.92 2.79446 16.54 3.88446C17.16 4.97447 17.38 6.79447 17.19 9.34447C17 11.8345 16.47 14.3845 15.6 16.9945C14.73 19.6045 13.69 22.0145 12.47 24.2245C11.26 26.4345 9.97004 28.3145 8.60004 29.8645C7.23004 31.4245 5.96002 32.4145 4.77002 32.8545C4.21002 33.0445 3.74 33.1345 3.37 33.1345C2.62 33.1345 2.11002 32.8545 1.83002 32.2945C1.55002 31.7345 1.41003 31.0345 1.41003 30.1945C1.41003 29.3545 1.5 28.4845 1.69 27.5845C1.88 26.6845 2.10003 25.8545 2.34003 25.1145C2.59003 24.3045 2.93 23.2145 3.37 21.8445C3.81 20.4745 4.23 18.9945 4.63 17.4145C5.04 15.8245 5.38003 14.1945 5.66003 12.5145C5.94003 10.8345 6.04999 9.28447 5.98999 7.84447C5.92999 6.41447 6.15001 5.29447 6.64001 4.48447C7.14001 3.67447 7.70001 3.05447 8.32001 2.61447C9.07001 2.11447 9.91003 1.77447 10.84 1.58447L10.85 1.60447Z" fill="var(--fill-0, white)"/>
<path id="Vector_2" d="M3.38 34.5645C2.09 34.5645 1.09001 33.9845 0.570007 32.9445C0.190007 32.1845 0 31.2645 0 30.2145C0 29.2845 0.0999976 28.3045 0.309998 27.3145C0.509998 26.3745 0.74001 25.4845 1.01001 24.6845C1.25001 23.9045 1.60003 22.8045 2.03003 21.4345C2.45003 20.1045 2.87002 18.6345 3.27002 17.0845C3.66002 15.5545 4.00002 13.9545 4.27002 12.3045C4.53002 10.7345 4.64002 9.26446 4.58002 7.93446C4.50002 6.19446 4.79 4.83447 5.44 3.77447C6.04 2.80447 6.74001 2.03446 7.51001 1.49446C8.43001 0.884464 9.44004 0.464464 10.54 0.244464C12.11 -0.125536 13.54 -0.0755359 14.79 0.394464C16.01 0.914464 16.99 1.85446 17.76 3.21446C18.53 4.56446 18.81 6.61447 18.6 9.47447C18.41 12.0645 17.85 14.7545 16.94 17.4745C16.04 20.1645 14.95 22.6845 13.71 24.9445C12.45 27.2345 11.09 29.2145 9.66003 30.8445C8.12003 32.5945 6.68001 33.7045 5.26001 34.2245C4.50001 34.4745 3.9 34.5945 3.37 34.5945L3.38 34.5645ZM12.55 2.81446C12.13 2.81446 11.67 2.87446 11.17 2.99446H11.12C10.37 3.15446 9.69999 3.42446 9.10999 3.82446C8.67999 4.12446 8.24004 4.61446 7.85004 5.25446C7.51004 5.81446 7.36003 6.67446 7.41003 7.80446C7.48003 9.32446 7.36001 10.9945 7.07001 12.7645C6.78001 14.4945 6.43002 16.1745 6.02002 17.7845C5.61002 19.3945 5.17999 20.9145 4.73999 22.2945C4.30999 23.6545 3.97003 24.7445 3.72003 25.5445C3.48003 26.2745 3.27004 27.0445 3.10004 27.8845C2.93004 28.6845 2.85004 29.4745 2.85004 30.2045C2.85004 30.8145 2.94 31.3145 3.12 31.6745C3.12 31.6945 3.19001 31.7245 3.39001 31.7245C3.51001 31.7245 3.80003 31.6945 4.34003 31.5145C5.25003 31.1745 6.33999 30.3045 7.54999 28.9345C8.83999 27.4645 10.09 25.6545 11.24 23.5445C12.4 21.4345 13.42 19.0745 14.26 16.5445C15.09 14.0545 15.6 11.5945 15.78 9.23446C15.99 6.43446 15.64 5.16446 15.31 4.58446C14.85 3.77446 14.32 3.24446 13.74 2.99446C13.4 2.86446 13 2.80446 12.55 2.80446V2.81446Z" fill="var(--fill-0, #353535)"/>
</g>
</svg>
