<svg preserveAspectRatio="none" width="100%" height="100%" overflow="visible" style="display: block;" viewBox="0 0 40.5371 46.4802" fill="none" xmlns="http://www.w3.org/2000/svg">
<g id="Group">
<path id="Vector" d="M17.4871 30.9802C17.5671 30.5402 17.7271 30.1502 17.9771 29.8002C18.1871 29.5202 18.4771 29.2702 18.8571 29.0502C19.2371 28.8302 19.7771 28.7302 20.4571 28.7602C21.1071 28.7902 21.6071 28.8702 21.9571 28.9902C22.3071 29.1202 22.5471 29.2902 22.6671 29.5102C22.7871 29.7302 22.8471 29.9702 22.8171 30.2202C22.7871 30.4702 22.7471 30.7502 22.6871 31.0502C22.6571 31.3802 22.6071 31.8102 22.5371 32.3202C22.4671 32.8402 22.5371 33.2202 22.7271 33.4602C22.9171 33.7002 23.3171 33.6802 23.8971 33.3802C24.4871 33.0802 25.3971 32.3102 26.6371 31.0502C27.8771 29.7602 28.9971 28.2902 29.9771 26.6502C30.9571 25.0102 31.7971 23.3602 32.4771 21.6902C33.1571 20.0202 33.6671 18.4102 34.0171 16.8602C34.3571 15.3102 34.4771 13.9702 34.3671 12.8302C34.2571 11.6902 33.9071 10.6602 33.3271 9.70021C32.7471 8.75021 31.8871 8.07021 30.7471 7.68021C29.6071 7.29021 28.1771 7.26021 26.4671 7.59021C24.7571 7.92021 22.7071 8.83021 20.3271 10.3102C17.9771 11.7902 15.9171 13.6302 14.1371 15.8302C12.3571 18.0202 10.8771 20.2702 9.67712 22.5602C8.48712 24.8502 7.55708 27.0402 6.88708 29.1402C6.21708 31.2402 5.8071 32.9302 5.6571 34.2302C5.4971 35.5202 5.46713 36.6402 5.55713 37.5802C5.64713 38.5202 5.81714 39.3102 6.06714 39.9502C6.31714 40.5902 6.59712 41.1002 6.92712 41.4902C7.24712 41.8802 7.56708 42.1402 7.88708 42.2902C8.08708 42.4202 8.25713 42.6102 8.37713 42.8402C8.50713 43.0402 8.58708 43.2702 8.63708 43.5402C8.68708 43.8102 8.63713 44.1202 8.49713 44.4802C8.35713 44.8402 8.10708 45.1502 7.75708 45.4102C7.40708 45.6702 6.98709 45.8502 6.51709 45.9302C6.03709 46.0102 5.51708 45.9802 4.94708 45.8302C4.37708 45.6802 3.81712 45.3702 3.23712 44.9002C2.66712 44.4302 2.13711 43.6402 1.66711 42.5302C1.18711 41.4202 0.857103 40.0902 0.657103 38.5402C0.457103 36.9902 0.407088 35.2602 0.517088 33.3502C0.627088 31.4402 0.957079 29.4502 1.50708 27.3702C2.06708 25.3002 2.84711 23.1302 3.84711 20.8802C4.85711 18.6302 6.08713 16.4502 7.55713 14.3302C9.01713 12.2202 10.6871 10.2402 12.5671 8.3902C14.4371 6.5402 16.5271 4.9502 18.8171 3.6102C21.1171 2.2702 23.5071 1.3502 25.9971 0.850205C28.4871 0.350205 30.7771 0.380201 32.8571 0.940201C34.9371 1.5002 36.6471 2.6502 37.9871 4.3902C39.3271 6.1302 39.9971 8.57021 39.9871 11.7002C39.9871 14.8702 39.5071 17.9702 38.5771 21.0002C37.6471 24.0202 36.4871 26.7802 35.1171 29.2802C33.7471 31.7802 32.2571 33.9102 30.6671 35.6702C29.0671 37.4302 27.5971 38.6402 26.2271 39.2902C24.8971 39.9402 23.5971 40.2902 22.3271 40.3302C21.0571 40.3702 19.9671 40.0702 19.0771 39.4202C18.1771 38.7702 17.5571 37.7602 17.2171 36.3802C16.8771 35.0002 16.9571 33.2002 17.4471 30.9702L17.4871 30.9802Z" fill="var(--fill-0, #FF6602)"/>
<path id="Vector_2" d="M6.0071 46.4802C5.6371 46.4802 5.24712 46.4302 4.84712 46.3202C4.21712 46.1502 3.57711 45.8102 2.95711 45.3002C2.31711 44.7702 1.75715 43.9402 1.24715 42.7402C0.757147 41.5902 0.407098 40.2002 0.197098 38.6102C-0.00290185 37.0402 -0.0528555 35.2602 0.0571445 33.3202C0.167145 31.3802 0.507154 29.3402 1.06715 27.2402C1.62715 25.1502 2.42715 22.9402 3.43715 20.6802C4.44715 18.4102 5.70715 16.1802 7.18715 14.0502C8.66715 11.9202 10.3671 9.90021 12.2571 8.04021C14.1471 6.17021 16.2871 4.54021 18.6071 3.18021C20.9371 1.82021 23.4071 0.870201 25.9371 0.360201C28.4871 -0.149799 30.8771 -0.119793 33.0271 0.460207C35.2071 1.05021 37.0271 2.27021 38.4271 4.09021C39.8271 5.91021 40.5371 8.47021 40.5371 11.7102C40.5371 14.9202 40.0471 18.1002 39.1071 21.1502C38.1671 24.1902 36.9871 27.0102 35.6071 29.5202C34.2271 32.0402 32.7071 34.2202 31.0871 36.0002C29.4571 37.8102 27.9071 39.0602 26.4971 39.7402C25.1171 40.4202 23.7371 40.7802 22.3971 40.8302C21.0171 40.8802 19.8171 40.5402 18.8371 39.8202C17.8471 39.1002 17.1571 37.9802 16.7871 36.4902C16.4271 35.0402 16.5071 33.1502 17.0171 30.8602C17.1071 30.3502 17.2971 29.8902 17.5871 29.4802C17.8371 29.1402 18.1872 28.8402 18.6272 28.5902C19.0972 28.3202 19.7071 28.2002 20.4971 28.2302C21.2071 28.2602 21.7471 28.3502 22.1471 28.4902C22.6071 28.6602 22.9371 28.9102 23.1171 29.2302C23.2971 29.5402 23.3671 29.8802 23.3271 30.2402C23.2971 30.5202 23.2571 30.8102 23.1871 31.1302C23.1671 31.4102 23.1171 31.8402 23.0471 32.3602C22.9971 32.7202 23.0272 32.9902 23.1272 33.1202C23.1272 33.1102 23.2871 33.1202 23.6871 32.9102C24.0571 32.7202 24.8071 32.1902 26.2971 30.6702C27.5071 29.4102 28.6072 27.9602 29.5672 26.3602C30.5372 24.7502 31.3671 23.1002 32.0271 21.4702C32.6971 19.8402 33.1971 18.2402 33.5371 16.7202C33.8671 15.2202 33.9872 13.9202 33.8772 12.8502C33.7772 11.8002 33.4471 10.8202 32.9071 9.93021C32.3871 9.07021 31.6271 8.48021 30.5871 8.12021C29.5371 7.76021 28.1872 7.7302 26.5672 8.0502C24.9272 8.3702 22.9171 9.26021 20.5871 10.7102C18.2971 12.1602 16.2571 13.9802 14.5271 16.1202C12.7771 18.2802 11.2972 20.5202 10.1272 22.7602C8.95715 25.0202 8.02715 27.2002 7.37715 29.2602C6.71715 31.3302 6.31713 33.0102 6.16713 34.2502C6.01713 35.5002 5.98715 36.5902 6.06715 37.4902C6.15715 38.3802 6.31713 39.1402 6.54713 39.7302C6.77713 40.3102 7.0371 40.7902 7.3271 41.1302C7.6071 41.4602 7.86713 41.6802 8.10713 41.7902C8.44713 42.0002 8.66711 42.2502 8.83711 42.5702C8.97711 42.7902 9.08711 43.0802 9.14711 43.4102C9.20711 43.7702 9.14713 44.1702 8.97713 44.6202C8.79713 45.0602 8.4971 45.4502 8.0771 45.7702C7.6671 46.0802 7.17714 46.2902 6.61714 46.3802C6.41714 46.4102 6.2171 46.4302 6.0071 46.4302V46.4802ZM29.3971 1.01021C28.3471 1.01021 27.2571 1.12021 26.1171 1.35021C23.6971 1.84021 21.3271 2.7502 19.0871 4.0502C16.8371 5.3602 14.7671 6.95021 12.9271 8.76021C11.0871 10.5802 9.41713 12.5502 7.97713 14.6302C6.53713 16.7102 5.30715 18.8902 4.31715 21.1002C3.32715 23.3202 2.54715 25.4802 1.99715 27.5102C1.45715 29.5402 1.12711 31.5202 1.01711 33.3902C0.917105 35.2602 0.95712 36.9802 1.15712 38.4902C1.34712 39.9902 1.6771 41.2902 2.1371 42.3502C2.5771 43.3802 3.05715 44.1102 3.56715 44.5302C4.07715 44.9502 4.58711 45.2302 5.08711 45.3602C5.57711 45.4902 6.03715 45.5202 6.43715 45.4502C6.83715 45.3802 7.17712 45.2402 7.46712 45.0202C7.74712 44.8102 7.92712 44.5802 8.03712 44.3002C8.13712 44.0302 8.18711 43.8002 8.14711 43.6302C8.10711 43.4302 8.04711 43.2502 7.95711 43.1102C7.85711 42.9202 7.74714 42.8002 7.61714 42.7102C7.29714 42.5702 6.92713 42.2602 6.54713 41.8202C6.18713 41.3902 5.86713 40.8202 5.60713 40.1402C5.34713 39.4602 5.15715 38.6202 5.06715 37.6302C4.96715 36.6502 5.00713 35.4902 5.16713 34.1702C5.32713 32.8602 5.74713 31.1202 6.41713 28.9902C7.08713 26.8802 8.03714 24.6302 9.23714 22.3302C10.4371 20.0302 11.9571 17.7402 13.7471 15.5202C15.5571 13.2902 17.6771 11.4002 20.0571 9.90021C22.4871 8.39021 24.6072 7.4502 26.3772 7.1102C28.1672 6.7602 29.6971 6.8002 30.9171 7.2202C32.1671 7.6502 33.1171 8.40021 33.7571 9.45021C34.3771 10.4602 34.7471 11.5902 34.8671 12.7902C34.9871 13.9702 34.8671 15.3702 34.5071 16.9702C34.1571 18.5502 33.6271 20.2002 32.9471 21.8802C32.2571 23.5602 31.4071 25.2502 30.4171 26.9102C29.4171 28.5702 28.2671 30.0802 27.0071 31.4002C25.7171 32.7102 24.7772 33.5102 24.1272 33.8302C23.2972 34.2502 22.6971 34.2302 22.3371 33.7702C22.0471 33.4102 21.9571 32.9202 22.0371 32.2602C22.0971 31.7502 22.1471 31.3302 22.1771 31.0002C22.2471 30.6702 22.2871 30.4102 22.3071 30.1702C22.3171 30.0202 22.2971 29.8802 22.2171 29.7502C22.1571 29.6402 21.9971 29.5402 21.7671 29.4502C21.4671 29.3402 21.0171 29.2702 20.4171 29.2502C19.8371 29.2202 19.3871 29.3002 19.0871 29.4702C18.7671 29.6602 18.5171 29.8702 18.3471 30.0902C18.1471 30.3702 18.0171 30.6902 17.9471 31.0602V31.0802C17.4671 33.2202 17.3871 34.9602 17.7071 36.2602C18.0171 37.5102 18.5772 38.4402 19.3772 39.0202C20.1772 39.6002 21.1672 39.8702 22.3172 39.8402C23.5072 39.8002 24.7471 39.4702 26.0071 38.8502C27.3071 38.2302 28.7471 37.0502 30.2971 35.3402C31.8571 33.6102 33.3371 31.4902 34.6771 29.0402C36.0271 26.5902 37.1771 23.8302 38.0971 20.8502C39.0071 17.8902 39.4771 14.8102 39.4871 11.7002C39.4871 8.69021 38.8471 6.3402 37.5871 4.6902C36.3171 3.0502 34.6871 1.95021 32.7171 1.42021C31.6571 1.14021 30.5371 0.990206 29.3671 0.990206L29.3971 1.01021Z" fill="var(--fill-0, black)"/>
</g>
</svg>
