<svg preserveAspectRatio="none" width="100%" height="100%" overflow="visible" style="display: block;" viewBox="0 0 91.8597 100.709" fill="none" xmlns="http://www.w3.org/2000/svg">
<g id="Group">
<path id="Vector" d="M73.63 1.52851C76.74 1.21851 79.52 1.5485 81.98 2.5085C84.44 3.4785 86.4 4.91851 87.86 6.84851C89.32 8.77851 90.16 11.0485 90.38 13.6585C90.6 16.2685 90.02 19.0685 88.65 22.0585C87.72 24.0485 86.54 25.8985 85.1 27.6085C83.67 29.3185 82.15 30.9085 80.53 32.3685C78.91 33.8285 77.28 35.1385 75.63 36.2885C73.98 37.4385 72.47 38.4385 71.11 39.2785C69.74 40.1185 68.59 40.7885 67.66 41.2885C66.73 41.7885 66.2 42.0985 66.07 42.2185C66.01 42.2785 65.8 42.4485 65.46 42.7285C65.12 43.0085 64.64 43.3985 64.01 43.8985C63.45 49.1885 63.04 54.4785 62.8 59.7585C62.55 65.0485 62.39 69.8385 62.33 74.1285C62.2 79.1685 62.17 83.9885 62.24 88.5885C62.24 88.9585 62.33 89.1985 62.52 89.2885C62.71 89.3785 62.94 89.4785 63.22 89.5685C63.5 89.6585 63.79 89.7985 64.11 89.9885C64.42 90.1785 64.7 90.5485 64.95 91.1085C65.2 91.6685 65.34 92.3385 65.37 93.1185C65.4 93.8985 65.28 94.6585 65 95.4085C64.72 96.1585 64.28 96.8585 63.69 97.5085C63.1 98.1585 62.31 98.6385 61.31 98.9585C60.31 99.2685 59.43 99.3785 58.65 99.2885C57.87 99.1985 57.2 99.0185 56.64 98.7785C55.95 98.4685 55.36 98.0885 54.87 97.6585C53.62 95.4185 52.69 93.0085 52.07 90.4285C51.45 87.8485 51.09 84.7985 51 81.2885C50.91 77.7785 51.05 73.6885 51.42 69.0185C51.79 64.3585 52.35 58.8185 53.1 52.4085C50.42 54.5285 47.6 56.7185 44.61 58.9885C41.62 61.2585 38.81 63.4185 36.17 65.4685C33.53 67.5185 31.18 69.3285 29.13 70.8785C27.08 72.4385 25.62 73.5585 24.75 74.2385C23.26 75.2985 21.95 76.0285 20.83 76.4285C19.71 76.8385 18.75 76.9885 17.94 76.8985C17.13 76.8085 16.46 76.5285 15.93 76.0585C15.4 75.5885 15.01 74.9885 14.76 74.2385C14.51 73.4885 14.39 72.7285 14.39 71.9485C14.39 71.1685 14.45 70.4385 14.58 69.7585C14.77 69.0085 14.98 68.2685 15.23 67.5185C16.91 63.4785 18.56 59.4985 20.17 55.5785C21.54 52.1585 22.98 48.5685 24.51 44.7985C26.03 41.0385 27.32 37.6585 28.38 34.6785C29.44 31.6985 29.97 29.2185 29.97 27.2585C29.97 25.2985 29.67 23.7585 29.08 22.6385C28.49 21.5185 27.68 20.7685 26.65 20.3985C25.62 20.0285 24.64 19.9685 23.71 20.2085C21.72 20.7685 19.88 21.9685 18.21 23.7985C16.53 25.6385 14.63 27.7985 12.52 30.2785C11.46 31.4585 10.53 32.2985 9.72 32.7985C8.91 33.2985 8.15998 33.5785 7.47998 33.6385C6.79998 33.6985 6.15998 33.5885 5.56998 33.3085C4.97998 33.0285 4.37 32.7385 3.75 32.4185C3.13 32.1085 2.64999 31.6685 2.29999 31.1085C1.95999 30.5485 1.72001 30.0185 1.60001 29.5185C1.47001 28.8385 1.41 28.1485 1.41 27.4685C2.22 24.7985 3.39999 22.2785 4.95999 19.9085C6.19999 17.9185 7.89999 15.9085 10.05 13.8885C12.2 11.8685 14.92 10.3285 18.21 9.26851C21.51 8.20851 24.59 7.71851 27.45 7.77851C30.31 7.83851 32.81 8.39851 34.96 9.45851C37.11 10.5185 38.83 11.9985 40.14 13.8885C41.45 15.7885 42.19 18.0085 42.38 20.5585C42.5 21.8685 42.41 23.3885 42.1 25.1285C41.79 26.8685 41.35 28.7185 40.79 30.6785C40.23 32.6385 39.58 34.6585 38.83 36.7385C38.08 38.8185 37.3 40.8585 36.5 42.8485C34.63 47.5085 32.49 52.3985 30.06 57.4985C31.18 56.8785 32.63 55.9585 34.4 54.7485C36.17 53.5385 38.15 52.1485 40.33 50.5985C42.51 49.0485 44.82 47.3485 47.28 45.5085C49.74 43.6785 52.18 41.8185 54.6 39.9585C55.47 33.7385 56.4 28.2985 57.4 23.6285C58.39 18.9685 59.62 15.0485 61.09 11.8685C62.55 8.69851 64.29 6.25851 66.32 4.54851C68.34 2.83851 70.78 1.82851 73.64 1.51851L73.63 1.52851ZM76.34 22.7985C77.4 21.8685 78.19 20.8885 78.72 19.8585C79.25 18.8285 79.64 17.8485 79.89 16.9185C80.14 15.9885 80.25 15.1285 80.22 14.3485C80.19 13.5685 80.11 12.9685 79.99 12.5285C79.93 12.2185 79.66 11.8585 79.2 11.4585C78.73 11.0585 78.14 10.7885 77.43 10.6685C76.71 10.5485 75.9 10.6385 75 10.9485C74.1 11.2585 73.16 12.0185 72.2 13.2385C71.24 14.4485 70.27 16.1885 69.31 18.4685C68.34 20.7385 67.43 23.7385 66.56 27.4685C66.43 28.0885 66.31 28.7185 66.19 29.3385C66.06 29.9585 65.94 30.6185 65.82 31.2985C68.43 29.2485 70.69 27.4585 72.58 25.9385C74.48 24.4185 75.74 23.3685 76.36 22.8185L76.34 22.7985Z" fill="var(--fill-0, white)"/>
<path id="Vector_2" d="M59.21 100.709C58.96 100.709 58.73 100.699 58.49 100.669C57.58 100.559 56.77 100.349 56.08 100.049C55.26 99.6785 54.55 99.2285 53.95 98.6985L53.76 98.5385L53.64 98.3185C52.34 95.9785 51.35 93.4285 50.7 90.7285C50.06 88.0685 49.68 84.8985 49.59 81.2885C49.5 77.7385 49.64 73.5585 50.01 68.8685C50.32 65.0385 50.75 60.5885 51.31 55.5885C49.43 57.0585 47.47 58.5585 45.47 60.0885C42.49 62.3585 39.68 64.5185 37.04 66.5685C34.39 68.6285 32.04 70.4385 29.98 71.9885C27.94 73.5385 26.48 74.6485 25.62 75.3285C23.95 76.5185 22.56 77.2885 21.31 77.7385C19.97 78.2185 18.81 78.3985 17.77 78.2785C16.67 78.1485 15.74 77.7485 14.99 77.0885C14.27 76.4585 13.74 75.6385 13.42 74.6585C13.12 73.7685 12.97 72.8485 12.97 71.9285C12.97 71.0685 13.04 70.2385 13.18 69.4785C13.39 68.6085 13.62 67.8285 13.88 67.0485L13.92 66.9585C15.6 62.9185 17.25 58.9385 18.86 55.0185C20.22 51.6085 21.67 48.0185 23.2 44.2485C24.71 40.5185 26.01 37.1285 27.05 34.1885C28.05 31.3685 28.55 29.0285 28.55 27.2485C28.55 25.4685 28.31 24.1985 27.83 23.2885C27.4 22.4785 26.86 21.9685 26.17 21.7185C25.42 21.4485 24.73 21.3985 24.08 21.5685C22.38 22.0485 20.75 23.1185 19.26 24.7485C17.6 26.5685 15.69 28.7385 13.6 31.1985C12.42 32.5185 11.4 33.4285 10.47 34.0085C9.48 34.6185 8.51999 34.9685 7.60999 35.0585C6.66999 35.1385 5.77999 34.9885 4.95999 34.5985C4.35999 34.3185 3.74999 34.0185 3.10999 33.6985C2.24999 33.2685 1.57 32.6485 1.09 31.8585C0.679996 31.1885 0.37998 30.5185 0.22998 29.8785C0.0699805 29.0285 0 28.2585 0 27.4785V27.2685L0.0599976 27.0685C0.899998 24.2785 2.15 21.6085 3.78 19.1385C5.06 17.0885 6.84999 14.9685 9.07999 12.8685C11.37 10.7085 14.3 9.04851 17.78 7.92851C21.21 6.82851 24.47 6.30851 27.48 6.36851C30.54 6.43851 33.27 7.04851 35.59 8.19851C37.95 9.35851 39.87 11.0085 41.31 13.0985C42.76 15.1985 43.59 17.6785 43.8 20.4685C43.93 21.8685 43.83 23.5385 43.5 25.3885C43.18 27.1685 42.73 29.0885 42.16 31.0785C41.6 33.0585 40.93 35.1285 40.17 37.2285C39.42 39.3085 38.63 41.3785 37.82 43.3985C36.49 46.7185 35.01 50.1785 33.39 53.7385C33.46 53.6885 33.53 53.6385 33.61 53.5885C35.35 52.3985 37.33 51.0085 39.51 49.4485C41.67 47.9085 44 46.1985 46.44 44.3785C48.7 42.6885 51.01 40.9485 53.29 39.1885C54.14 33.1785 55.06 27.8485 56.03 23.3385C57.04 18.5885 58.32 14.5385 59.81 11.2885C61.35 7.93851 63.23 5.30851 65.41 3.47851C67.64 1.58851 70.36 0.458507 73.5 0.118507H73.51C76.83 -0.211493 79.86 0.148506 82.52 1.18851C85.21 2.24851 87.39 3.85851 89.01 5.98851C90.63 8.12851 91.57 10.6685 91.81 13.5385C92.05 16.3885 91.42 19.4485 89.96 22.6385C88.97 24.7385 87.72 26.7185 86.21 28.5085C84.75 30.2585 83.16 31.9085 81.5 33.4085C79.84 34.9085 78.15 36.2585 76.46 37.4385C74.82 38.5885 73.28 39.6085 71.87 40.4685C70.45 41.3385 69.29 42.0085 68.34 42.5185C67.38 43.0285 67.1 43.2085 67.02 43.2685C66.91 43.3685 66.69 43.5585 66.37 43.8185C66.12 44.0285 65.78 44.2985 65.38 44.6185C64.85 49.6785 64.47 54.7885 64.23 59.8085C63.98 65.0485 63.83 69.8685 63.76 74.1285C63.64 79.0185 63.61 83.7485 63.66 88.1985C63.66 88.1985 63.66 88.1985 63.67 88.1985C64.05 88.3285 64.43 88.5085 64.84 88.7485C65.42 89.0985 65.88 89.6685 66.25 90.5085C66.57 91.2285 66.75 92.0785 66.79 93.0385C66.83 93.9985 66.67 94.9585 66.33 95.8785C65.99 96.7885 65.46 97.6485 64.75 98.4285C63.99 99.2685 62.98 99.8885 61.74 100.279C60.84 100.559 59.99 100.699 59.21 100.699V100.709ZM55.99 96.7085C56.35 96.9885 56.76 97.2385 57.24 97.4585C57.66 97.6485 58.2 97.7785 58.83 97.8585C59.4 97.9285 60.1 97.8385 60.9 97.5885C61.65 97.3485 62.23 97.0085 62.65 96.5385C63.12 96.0185 63.46 95.4685 63.68 94.8985C63.89 94.3285 63.99 93.7585 63.96 93.1685C63.94 92.5785 63.84 92.0785 63.66 91.6785C63.49 91.2885 63.37 91.1885 63.36 91.1885C63.16 91.0685 62.96 90.9685 62.78 90.9085C62.44 90.7985 62.15 90.6785 61.9 90.5485C61.5 90.3485 60.84 89.8285 60.84 88.5785C60.78 83.9985 60.81 79.1185 60.93 74.0785C60.99 69.7985 61.15 64.9485 61.4 59.6785C61.65 54.4085 62.06 49.0385 62.62 43.7385L62.68 43.1485L63.14 42.7785C63.76 42.2885 64.23 41.8985 64.57 41.6185C64.84 41.3985 65.02 41.2485 65.09 41.1885C65.26 41.0185 65.53 40.8085 67 40.0185C67.9 39.5385 69 38.8985 70.38 38.0585C71.74 37.2185 73.24 36.2385 74.83 35.1185C76.42 34.0085 78.02 32.7285 79.59 31.3085C81.15 29.8985 82.64 28.3485 84.02 26.6885C85.37 25.0785 86.49 23.3185 87.37 21.4485C88.62 18.7085 89.16 16.1285 88.97 13.7685C88.77 11.4085 88.04 9.41851 86.73 7.69851C85.43 5.98851 83.66 4.68851 81.46 3.81851C79.23 2.93851 76.64 2.64851 73.77 2.92851C71.17 3.20851 69.03 4.09851 67.21 5.62851C65.36 7.19851 63.72 9.49851 62.36 12.4685C60.95 15.5285 59.74 19.3885 58.77 23.9285C57.79 28.5185 56.85 33.9785 55.99 40.1585L55.91 40.7285L55.45 41.0785C53.01 42.9585 50.54 44.8285 48.11 46.6385C45.66 48.4685 43.31 50.1885 41.14 51.7385C38.94 53.3085 36.94 54.7085 35.19 55.9085C33.36 57.1585 31.9 58.0885 30.74 58.7285L26.87 60.8785L28.77 56.8785C31.17 51.8285 33.32 46.9285 35.17 42.3085C35.98 40.3285 36.75 38.2885 37.48 36.2485C38.21 34.1985 38.86 32.1885 39.41 30.2685C39.95 28.3685 40.38 26.5485 40.68 24.8585C40.97 23.2585 41.05 21.8485 40.94 20.6685C40.77 18.3585 40.1 16.3485 38.94 14.6685C37.78 12.9885 36.22 11.6485 34.3 10.6985C32.35 9.73851 30.03 9.21851 27.38 9.16851C24.68 9.10851 21.74 9.58851 18.61 10.5985C15.53 11.5885 12.96 13.0385 10.99 14.8985C8.93999 16.8285 7.30998 18.7585 6.13998 20.6385C4.68998 22.8485 3.58 25.1985 2.81 27.6485C2.82 28.1785 2.87 28.7185 2.97 29.2385C3.04 29.5085 3.21998 29.9085 3.47998 30.3385C3.67998 30.6685 3.97001 30.9285 4.35001 31.1185C4.96001 31.4285 5.55998 31.7185 6.13998 31.9885C6.49998 32.1585 6.88998 32.2285 7.31998 32.1885C7.77998 32.1485 8.32998 31.9285 8.94998 31.5485C9.63998 31.1285 10.47 30.3685 11.44 29.2885C13.53 26.8285 15.45 24.6385 17.14 22.7885C18.99 20.7685 21.07 19.4185 23.31 18.7885C24.55 18.4585 25.82 18.5385 27.12 19.0085C28.48 19.5085 29.56 20.4885 30.31 21.9185C31.02 23.2585 31.36 24.9885 31.36 27.1985C31.36 29.4085 30.81 31.9185 29.69 35.0885C28.63 38.0685 27.32 41.4985 25.8 45.2685C24.28 49.0285 22.83 52.6185 21.46 56.0385C19.84 59.9585 18.2 63.9285 16.53 67.9485C16.3 68.6385 16.1 69.3485 15.92 70.0385C15.83 70.5385 15.78 71.1985 15.78 71.8885C15.78 72.5085 15.88 73.1285 16.08 73.7285C16.25 74.2385 16.5 74.6285 16.84 74.9285C17.15 75.1985 17.55 75.3685 18.07 75.4285C18.66 75.4985 19.41 75.3685 20.32 75.0385C21.32 74.6785 22.52 73.9985 23.9 73.0185C24.72 72.3685 26.19 71.2485 28.25 69.6885C30.3 68.1385 32.64 66.3385 35.28 64.2885C37.93 62.2385 40.75 60.0685 43.74 57.7985C46.7 55.5485 49.55 53.3385 52.21 51.2385L54.89 49.1185L54.49 52.5185C53.75 58.8685 53.19 64.4385 52.82 69.0785C52.45 73.6685 52.31 77.7485 52.4 81.1985C52.49 84.6085 52.84 87.5785 53.43 90.0485C54 92.4085 54.85 94.6385 55.97 96.6985L55.99 96.7085ZM63.74 34.7085L64.4 31.0385C64.52 30.3485 64.65 29.6785 64.78 29.0485L65.15 27.1785C66.04 23.3385 67 20.2385 67.99 17.8985C69.01 15.4885 70.02 13.6685 71.08 12.3485C72.22 10.9085 73.35 10.0085 74.53 9.60851C75.66 9.21851 76.71 9.10851 77.66 9.26851C78.63 9.43851 79.46 9.81851 80.12 10.3885C80.81 10.9885 81.22 11.5785 81.36 12.1885C81.51 12.7285 81.6 13.4185 81.63 14.2885C81.67 15.2085 81.54 16.2085 81.26 17.2785C80.99 18.2985 80.56 19.3785 79.99 20.4985C79.38 21.6785 78.47 22.8085 77.29 23.8485C76.64 24.4385 75.38 25.4685 73.45 27.0185C71.55 28.5485 69.29 30.3385 66.68 32.3885L63.75 34.6885L63.74 34.7085ZM76.77 12.0285C76.38 12.0285 75.94 12.1185 75.44 12.2885C75 12.4385 74.27 12.8785 73.29 14.1185C72.41 15.2285 71.5 16.8685 70.59 19.0185C69.66 21.1985 68.76 24.1585 67.91 27.7885V27.8185C69.28 26.7285 70.53 25.7285 71.66 24.8285C73.52 23.3285 74.78 22.2985 75.38 21.7585H75.39C76.31 20.9385 77 20.0885 77.45 19.2185C77.93 18.2785 78.29 17.3885 78.51 16.5685C78.72 15.7785 78.82 15.0585 78.79 14.4285C78.76 13.6085 78.67 13.1685 78.61 12.9385V12.9085C78.61 12.9085 78.48 12.7385 78.25 12.5485C77.98 12.3185 77.62 12.1585 77.16 12.0785C77.04 12.0585 76.91 12.0485 76.77 12.0485V12.0285Z" fill="var(--fill-0, #353535)"/>
</g>
</svg>
