<svg preserveAspectRatio="none" width="100%" height="100%" overflow="visible" style="display: block;" viewBox="0 0 188.673 100.9" fill="none" xmlns="http://www.w3.org/2000/svg">
<g id="Group">
<path id="Vector" d="M182.58 26.93L182.32 26.69C178.9 23.7 174.39 21.93 168.9 21.43H168.79C165.5 21.17 162.66 21.22 160.1 21.57C154.92 22.28 150.39 24.03 146.67 26.74C145.87 27.32 144.67 28.18 143.53 29.36L142.49 28.9C142.62 28.72 142.76 28.54 142.88 28.35C144.1 26.51 145.35 23.54 144.9 19.38L145.25 19.19L146.07 18.62L147.8 7.07L143.49 1.62L132.67 0C132.29 0.26 131.94 0.520003 131.57 0.800003C131.35 0.970003 131.15 1.14 130.95 1.32C130.77 1.41 130.59 1.49 130.41 1.56C130.29 1.6 129.6 1.83 127.86 2.07L123.52 2.67C121.26 2.98 119.18 3.35 117.36 3.77C115.18 4.27 113.02 5.05 110.95 6.09C108.01 7.45 105.57 9.58 103.69 12.42C102 14.99 100.97 17.86 100.62 20.98C100.36 22.42 100.52 23.61 100.6 24.16C100.78 25.49 101.26 27.29 102.44 29.1L99.28 29.54L97.89 30.78C96.8 30.74 95.79 30.78 94.83 30.91L80.86 32.84C79.46 33.03 78.05 33.5 76.54 34.27C75.18 34.97 73.85 35.94 72.6 37.14L72.39 37.35L69.75 40.09L69.21 41.74L61.06 35.57L49.95 37.1L46.04 42.27C45.97 42.22 45.91 42.17 45.84 42.13C45.94 41.99 46.04 41.86 46.13 41.72C47.35 39.88 48.6 36.91 48.15 32.75L48.5 32.56L49.32 31.99L51.05 20.44L46.74 14.99L35.92 13.37C35.54 13.63 35.19 13.89 34.82 14.17C34.6 14.34 34.4 14.51 34.2 14.69C34.02 14.78 33.84 14.86 33.66 14.93C33.54 14.97 32.85 15.2 31.11 15.44L26.77 16.04C24.51 16.35 22.43 16.72 20.61 17.14C18.43 17.64 16.27 18.42 14.2 19.46C11.26 20.82 8.82 22.95 6.94 25.79C5.25 28.36 4.22003 31.23 3.87003 34.35C3.61003 35.79 3.77001 36.98 3.85001 37.53C4.14001 39.62 5.16002 42.88 8.49002 45.5C7.39002 46.54 6.33001 47.86 5.39001 49.54C5.38001 49.54 5.10001 49.73 5.10001 49.73C5.16001 49.69 5.25002 49.64 5.36002 49.59C5.28002 49.74 5.20002 49.89 5.11002 50.05L5.36002 50.18L0 58.23L1.71002 70.61L5.56003 73.53L8.39001 94.07L17.41 100.9L28.42 99.38L33.53 92.63L40.27 97.74L51.28 96.22L54.76 91.63C58 94 62.11 94.95 66.76 94.31C72.52 93.52 75.9 90.77 77.84 88.23C77.95 88.31 78.05 88.41 78.16 88.49C81.64 91.07 85.92 92.1 90.53 91.46C95.8 90.73 99.1 88.26 101.13 85.84L105.05 88.81L116.16 87.28L121.61 80.09C121.98 80.47 122.37 80.84 122.78 81.19C126.56 84.41 131.25 85.74 136.35 85.04C141.45 84.34 145.3 81.98 148.02 78.14C150.57 74.7 151.58 70.48 150.95 65.9C152.21 66.72 153.77 67.52 155.7 68.06L156.47 73.65L165.49 80.48L176.6 78.95L183.49 70.5L183.1 64.51L183.08 64.28C183.1 64.06 183.21 63.23 183.76 61.47L184 60.51C183.98 60.63 183.94 60.92 183.8 61.34C183.86 61.14 184.22 60.09 186.21 54.69L186.28 54.49C186.82 52.89 187.27 51.47 187.62 50.28C188.07 48.74 188.34 47.33 188.44 46.01C188.76 43.62 188.75 41.17 188.41 38.73C187.76 34.02 185.79 30.06 182.56 26.97L182.58 26.93Z" fill="var(--fill-0, #F70200)"/>
<path id="Vector_2" d="M39.18 89.77L35.05 59.81C34.94 59.54 34.88 59.33 34.86 59.19C34.84 59.05 34.78 58.91 34.7 58.78C34.39 58.1 34.05 57.61 33.69 57.3C33.32 56.99 32.98 56.71 32.66 56.47C32.03 56.05 31.29 55.9 30.44 56.02L20.6 57.38C20.11 57.45 19.62 57.8 19.13 58.45C18.76 58.93 18.62 59.46 18.7 60.02L18.77 60.55L23 59.97L27.33 91.41L16.32 92.93L13.02 69.01L9.63 69.48L7.92001 57.1C8.47001 56.95 9.01001 56.7 9.54001 56.34C10.73 55.6 11.62 54.72 12.2 53.71C13.45 51.31 15.1 49.97 17.15 49.68L34.19 47.33C35.18 47.19 36.41 47.24 37.88 47.47C39.73 47.86 41.22 48.52 42.36 49.44C43.18 50.19 44 51.44 44.82 53.2C44.93 53.47 45.05 53.82 45.18 54.23C45.31 54.64 45.48 55.12 45.7 55.67L50.19 88.27L39.18 89.79V89.77Z" fill="var(--fill-0, white)"/>
<path id="Vector_3" d="M44.37 25.63C44.24 25.72 44.11 25.81 43.98 25.9C42.42 26.55 40.29 27.06 37.61 27.43C36.2 27.62 34.66 27.78 32.98 27.9C31.31 28.02 29.25 28.11 26.81 28.16L25.43 28.35C23.03 28.68 21.08 29.56 19.59 30.99C18.1 32.42 17.44 33.8 17.63 35.14C17.81 36.41 18.67 37.19 20.22 37.48C20.59 37.57 20.86 37.18 21.03 36.29C21.38 35.16 21.71 34.29 22.02 33.67C22.33 33.05 22.63 32.62 22.92 32.36C23.21 32.1 23.49 31.94 23.77 31.87C24.05 31.8 24.36 31.73 24.72 31.69C25.57 31.57 26.55 31.65 27.67 31.93C27.82 31.98 28.01 32.03 28.23 32.07C28.45 32.11 28.71 32.18 29.01 32.29C28.95 31.36 29.4 30.51 30.33 29.74C31.27 28.96 32.41 28.48 33.74 28.3C35.51 28.06 37 28.46 38.22 29.52C39.27 30.38 39.92 31.66 40.15 33.35C40.38 35.04 40.13 36.3 39.4 37.34C38.64 38.6 37.45 39.34 35.82 39.56C34.82 39.63 34.07 39.62 33.55 39.55C31.73 39.37 30.51 38.85 29.89 38.01C29.71 37.75 29.06 37.46 27.94 37.15C26.82 36.84 25.87 36.73 25.09 36.84C24.31 36.95 23.92 37.22 23.91 37.65C23.82 38.02 24.31 38.71 25.38 39.71C25.81 40.23 25.93 40.53 25.72 40.63C25.48 40.95 24.79 41.19 23.66 41.34C21.26 41.67 18.89 41.46 16.56 40.7C13.63 39.81 12.03 38.38 11.76 36.4C11.7 35.98 11.7 35.72 11.76 35.64C11.91 33.61 12.52 31.78 13.59 30.16C14.66 28.54 16.01 27.36 17.63 26.64C19.18 25.85 20.75 25.28 22.35 24.91C23.95 24.55 25.78 24.22 27.82 23.94L31.53 23.43L32.17 23.34C33.93 23.1 35.31 22.8 36.31 22.45C37.3 22.1 38.26 21.61 39.18 20.98C39.3 20.82 39.48 20.65 39.7 20.48C39.93 20.3 40.17 20.13 40.44 19.95L44.75 25.4C44.62 25.49 44.49 25.58 44.36 25.67L44.37 25.63ZM36.5 35.46C36.82 34.91 36.94 34.36 36.86 33.79C36.76 33.09 36.49 32.53 36.04 32.12C35.59 31.71 34.98 31.56 34.2 31.67C33.5 31.77 32.95 32.08 32.55 32.6C32.15 33.12 32.01 33.74 32.1 34.44C32.19 35.08 32.47 35.59 32.96 35.99C33.45 36.39 34.08 36.54 34.85 36.43C35.62 36.32 36.18 36 36.49 35.45L36.5 35.46Z" fill="var(--fill-0, white)"/>
<path id="Vector_4" d="M70.61 71.26C72.04 72.75 72.9 74.56 73.19 76.68C73.51 79.01 73.07 81.05 71.87 82.79C70.63 84.76 68.56 85.94 65.67 86.34C62.07 86.84 59.41 85.8 57.69 83.23C56.53 81.59 55.73 79.15 55.28 75.9L51.02 44.99L62.13 43.46L65.7 69.39C67.53 69.14 69.17 69.76 70.59 71.25L70.61 71.26ZM67.79 79.74C68.27 79.06 68.45 78.3 68.34 77.45C68.23 76.6 67.86 75.92 67.25 75.39C66.64 74.86 65.84 74.67 64.85 74.8C63.86 74.93 63.14 75.34 62.7 76.01C62.25 76.68 62.09 77.44 62.2 78.29C62.31 79.14 62.7 79.82 63.35 80.34C64 80.86 64.78 81.06 65.7 80.93C66.62 80.8 67.32 80.4 67.8 79.72L67.79 79.74Z" fill="var(--fill-0, white)"/>
<path id="Vector_5" d="M110.87 36.97C110.91 37.25 110.91 37.54 110.88 37.83C110.59 38.88 110.27 39.69 109.92 40.28C109.57 40.87 109.29 41.3 109.07 41.58C108.86 41.86 108.7 42.05 108.61 42.13C108.51 42.22 108.57 42.24 108.78 42.21C109.66 43.38 110.2 44.46 110.41 45.44L110.59 46.71L115.08 79.31L103.97 80.84L101.49 62.84C101.23 60.93 100.11 60.12 98.13 60.39L90.4 61.45C90.05 61.5 89.72 61.72 89.41 62.13C89.1 62.54 88.97 62.88 89.01 63.16L89.46 66.44C91.35 66.61 93.01 67.43 94.43 68.88C95.69 70.22 96.46 71.87 96.73 73.85C97.05 76.18 96.65 78.21 95.52 79.95C94.21 81.93 92.18 83.11 89.43 83.49C86.89 83.84 84.72 83.35 82.92 82.01C81.12 80.68 80.08 78.99 79.79 76.94L77.75 62.12C77.71 61.33 77.73 60.65 77.79 60.06C78.02 58.59 78.56 57.42 79.41 56.55C80.26 55.68 80.95 55.06 81.47 54.7C82.34 54.22 83.23 53.92 84.15 53.79L95.9 52.17C96.32 52.11 96.73 52.07 97.12 52.06C97.51 52.04 98.05 52.17 98.74 52.43C98.82 52.49 98.92 52.57 99.04 52.66C99.16 52.75 99.35 52.92 99.6 53.18C99.68 53.24 99.78 53.34 99.91 53.46C100.04 53.59 100.18 53.71 100.34 53.83L99.96 51.08L99.74 49.49C99.56 48.72 99.31 48.18 98.98 47.87C98.65 47.56 98.23 47.36 97.71 47.29C97.2 47.22 96.55 47.23 95.78 47.34C95.07 47.44 94.25 47.48 93.32 47.46L80.62 49.21C80.27 49.26 79.83 49.5 79.32 49.93C78.88 50.42 78.52 50.79 78.23 51.05C77.94 51.31 77.51 51.94 76.93 52.96C76.81 53.12 76.69 53.32 76.58 53.55L75.49 45.61L78.13 42.87C78.83 42.2 79.51 41.69 80.18 41.35C80.85 41.01 81.43 40.8 81.93 40.73L95.9 38.8C96.46 38.72 97.11 38.71 97.83 38.75C98.55 38.8 99.23 38.99 99.85 39.33L100.34 37.43L110.82 35.99C110.8 36.35 110.81 36.68 110.85 36.96L110.87 36.97ZM91.03 76.59C91.48 75.95 91.65 75.25 91.55 74.47C91.45 73.76 91.1 73.15 90.49 72.62C89.88 72.09 89.08 71.9 88.09 72.03C87.1 72.16 86.38 72.55 85.93 73.19C85.48 73.83 85.31 74.53 85.41 75.31C85.51 76.09 85.87 76.72 86.48 77.21C87.09 77.7 87.88 77.88 88.87 77.74C89.86 77.6 90.58 77.22 91.03 76.58V76.59Z" fill="var(--fill-0, white)"/>
<path id="Vector_6" d="M142.01 43.03C141.09 43.16 137.97 42.65 132.63 41.52C132.48 41.47 132.3 41.46 132.09 41.49C131.17 41.62 130.24 42.12 129.28 43.01C128.32 43.9 127.9 44.76 128.02 45.61C128.07 45.96 128.22 46.27 128.47 46.52L129.36 47.48L140.16 45.99L143.05 66.95C143.4 69.49 142.9 71.64 141.57 73.41C140.13 75.48 138.03 76.7 135.28 77.08C132.53 77.46 130.03 76.8 127.99 75.06C126.19 73.51 125.13 71.5 124.79 69.03C124.49 66.84 124.83 64.89 125.82 63.17C126.93 61.29 128.69 60.01 131.11 59.31L130.56 55.29L118.81 56.91L116.78 42.2C117.88 40.75 118.9 39.61 119.87 38.76C121.13 37.51 122.26 36.56 123.25 35.92C124.24 35.28 125.11 34.82 125.86 34.53C126.61 34.25 127.27 34.08 127.84 34.04C128.41 34 128.91 33.95 129.33 33.89C131.45 33.6 134.48 33.72 138.44 34.25C138.87 34.26 139.58 33.91 140.56 33.2C140.69 33.11 140.79 33.06 140.86 33.05C140.93 33.04 141.03 32.99 141.16 32.9L142.52 42.74C142.54 42.88 142.37 42.98 142.02 43.02L142.01 43.03ZM136.57 69.72C137.02 69.05 137.18 68.29 137.06 67.44C136.95 66.66 136.59 66.01 135.98 65.48C135.37 64.95 134.57 64.76 133.58 64.89C132.59 65.02 131.87 65.43 131.43 66.1C130.98 66.77 130.81 67.5 130.92 68.27C131.04 69.12 131.4 69.8 132.01 70.33C132.62 70.86 133.42 71.05 134.41 70.92C135.4 70.79 136.12 70.38 136.56 69.71L136.57 69.72Z" fill="var(--fill-0, white)"/>
<path id="Vector_7" d="M141.12 12.3C140.99 12.39 140.86 12.48 140.73 12.57C139.17 13.22 137.04 13.73 134.36 14.1C132.95 14.29 131.41 14.45 129.73 14.57C128.06 14.69 126 14.78 123.56 14.83L122.18 15.02C119.78 15.35 117.83 16.23 116.34 17.66C114.85 19.09 114.19 20.47 114.38 21.81C114.56 23.08 115.42 23.86 116.97 24.15C117.34 24.24 117.61 23.85 117.78 22.96C118.13 21.83 118.46 20.96 118.77 20.34C119.08 19.72 119.38 19.29 119.67 19.03C119.96 18.77 120.24 18.61 120.52 18.54C120.8 18.47 121.11 18.4 121.47 18.36C122.32 18.24 123.3 18.32 124.42 18.6C124.57 18.65 124.76 18.7 124.98 18.74C125.2 18.78 125.46 18.85 125.76 18.96C125.7 18.03 126.15 17.18 127.08 16.41C128.02 15.63 129.16 15.15 130.49 14.97C132.26 14.73 133.75 15.13 134.97 16.19C136.02 17.05 136.67 18.33 136.9 20.02C137.13 21.71 136.88 22.97 136.15 24.01C135.39 25.27 134.2 26.01 132.57 26.23C131.57 26.3 130.82 26.29 130.3 26.22C128.48 26.04 127.26 25.52 126.64 24.68C126.46 24.42 125.81 24.13 124.69 23.82C123.57 23.51 122.62 23.4 121.84 23.51C121.06 23.62 120.67 23.89 120.66 24.32C120.57 24.69 121.06 25.38 122.13 26.38C122.56 26.9 122.68 27.2 122.47 27.3C122.23 27.62 121.54 27.86 120.41 28.01C118.01 28.34 115.64 28.13 113.31 27.37C110.38 26.48 108.78 25.05 108.51 23.07C108.45 22.65 108.45 22.39 108.51 22.31C108.66 20.28 109.27 18.45 110.34 16.83C111.41 15.21 112.76 14.03 114.38 13.31C115.93 12.52 117.5 11.95 119.1 11.58C120.7 11.22 122.53 10.89 124.57 10.61L128.28 10.1L128.92 10.01C130.68 9.77 132.06 9.47 133.06 9.12C134.05 8.77 135.01 8.28 135.93 7.65C136.05 7.49 136.23 7.32 136.45 7.15C136.68 6.97 136.92 6.8 137.19 6.62L141.5 12.07C141.37 12.16 141.24 12.25 141.11 12.34L141.12 12.3ZM133.25 22.13C133.57 21.58 133.69 21.03 133.61 20.46C133.51 19.76 133.24 19.2 132.79 18.79C132.34 18.38 131.73 18.23 130.95 18.34C130.25 18.44 129.7 18.75 129.3 19.27C128.9 19.79 128.76 20.41 128.85 21.11C128.94 21.75 129.22 22.26 129.71 22.66C130.2 23.06 130.83 23.21 131.6 23.1C132.37 22.99 132.93 22.67 133.24 22.12L133.25 22.13Z" fill="var(--fill-0, white)"/>
<path id="Vector_8" d="M179.96 48C179.64 49.09 179.23 50.39 178.72 51.89C177.04 56.44 176.19 58.82 176.15 59.04C175.3 61.75 174.96 63.73 175.14 65L175.53 70.99L164.42 72.52L162.77 60.56C159.59 61 156.96 60.43 154.87 58.84C153.02 57.44 151.93 55.54 151.6 53.14C151.27 50.74 151.74 48.45 153.05 46.47C154.48 44.33 156.54 43.08 159.22 42.71C161.62 42.38 163.81 42.91 165.8 44.28C167.41 45.5 168.55 47.28 169.23 49.63L170.62 59.69L171.1 55.31C171.06 55.03 171.42 53.43 172.17 50.52C172.61 48.52 172.72 46.71 172.5 45.08C172.36 44.09 172.05 43.09 171.55 42.08C170.58 40.27 169.19 39.03 167.37 38.34C165.55 37.66 163.48 37.47 161.15 37.79C158.26 38.19 155.72 39.08 153.54 40.46C150.69 42.22 149.32 43.52 149.44 44.37L148.36 36.54C148.26 35.84 149.26 34.73 151.35 33.22C154.03 31.27 157.31 30.03 161.19 29.49C163.16 29.22 165.5 29.18 168.19 29.39C171.98 29.73 174.93 30.83 177.06 32.7C178.96 34.52 180.12 36.88 180.52 39.77C180.77 41.61 180.77 43.4 180.51 45.16C180.47 45.96 180.3 46.9 179.98 47.98L179.96 48ZM162.95 53.68C163.4 53.01 163.56 52.25 163.45 51.4C163.34 50.62 162.98 49.95 162.36 49.39C161.74 48.83 160.98 48.61 160.06 48.74C159.14 48.87 158.44 49.27 157.96 49.95C157.48 50.63 157.3 51.39 157.41 52.24C157.52 53.09 157.89 53.78 158.5 54.3C159.11 54.83 159.91 55.02 160.9 54.89C161.82 54.76 162.5 54.36 162.95 53.69V53.68Z" fill="var(--fill-0, white)"/>
</g>
</svg>
