<svg preserveAspectRatio="none" width="100%" height="100%" overflow="visible" style="display: block;" viewBox="0 0 135.03 32.57" fill="none" xmlns="http://www.w3.org/2000/svg">
<g id="Group">
<path id="Vector" d="M19.96 22.9C19.96 24.21 19.58 25.11 18.83 25.6C20.23 26.32 20.92 27.41 20.92 28.89C20.92 29.94 20.53 30.81 19.74 31.51C18.95 32.21 18 32.56 16.9 32.56C15.86 32.56 14.97 32.26 14.22 31.65C13.47 31.04 13.02 30.28 12.88 29.37C11.73 29.89 10.91 30.29 10.41 30.55C9.55 31.04 8.87 31.58 8.37 32.17H4.99001V19.56C4.63001 19.63 4.33 19.66 4.08 19.66C2.93 19.66 1.96999 19.29 1.17999 18.56C0.389993 17.82 0 16.93 0 15.89C0 14.85 0.389993 14.01 1.17999 13.29C1.96999 12.57 2.93 12.21 4.08 12.21C5.3 12.21 6.31 12.59 7.11 13.34C7.92 14.09 8.31999 15.04 8.31999 16.18V28.64C8.88999 28.25 10.18 27.68 12.18 26.92C13.97 26.23 15.2 25.55 15.88 24.86C16.38 24.37 16.63 23.58 16.63 22.51V12.6H19.96V22.9ZM5.89 15.94C5.89 15.48 5.70999 15.09 5.34999 14.76C4.98999 14.43 4.56 14.27 4.06 14.27C3.56 14.27 3.13 14.43 2.77 14.76C2.41 15.09 2.23 15.48 2.23 15.94C2.23 16.4 2.41 16.79 2.77 17.12C3.13 17.45 3.56 17.61 4.06 17.61C4.56 17.61 4.98999 17.45 5.34999 17.12C5.70999 16.79 5.89 16.4 5.89 15.94ZM18.67 28.89C18.67 28.43 18.49 28.04 18.13 27.71C17.77 27.38 17.34 27.22 16.84 27.22C16.34 27.22 15.91 27.38 15.55 27.71C15.19 28.04 15.01 28.43 15.01 28.89C15.01 29.35 15.19 29.74 15.55 30.07C15.91 30.4 16.34 30.56 16.84 30.56C17.34 30.56 17.77 30.4 18.13 30.07C18.49 29.74 18.67 29.35 18.67 28.89Z" fill="var(--fill-0, white)"/>
<path id="Vector_2" d="M37.99 32.17H34.66V17.9C34.66 16.98 34.32 16.24 33.64 15.67C32.96 15.1 32.03 14.81 30.85 14.81C29.67 14.81 28.7 15.17 27.95 15.89C27.2 16.61 26.8 17.52 26.77 18.64H23.55C23.66 16.68 24.36 15.12 25.67 13.96C26.98 12.8 28.7 12.22 30.85 12.22C32.85 12.22 34.54 12.69 35.92 13.62C37.3 14.55 37.99 15.97 37.99 17.86V32.18V32.17Z" fill="var(--fill-0, white)"/>
<path id="Vector_3" d="M58.71 27.22C58.71 30.78 56.06 32.57 50.77 32.57C45.48 32.57 42.88 30.79 42.88 27.22V24.96C42.88 23.39 43.61 22.28 45.08 21.62C43.43 20.61 42.61 19.12 42.61 17.16C42.61 15.72 43.05 14.54 43.93 13.6C44.81 12.67 46.01 12.2 47.55 12.2C48.62 12.2 49.54 12.5 50.29 13.11C51.04 13.72 51.42 14.51 51.42 15.49C51.42 16.37 51.08 17.14 50.4 17.79C49.72 18.45 48.82 18.77 47.72 18.77C47.15 18.77 46.65 18.69 46.22 18.52C46.51 19.76 47.15 20.38 48.15 20.38H51.96V22.78H48.15C47.58 22.78 47.11 23.01 46.75 23.47C46.39 23.93 46.21 24.45 46.21 25.04V27.3C46.21 29.07 47.73 29.95 50.77 29.95C53.81 29.95 55.39 29.07 55.39 27.3V12.58H58.72V27.2L58.71 27.22ZM49.43 15.55C49.43 15.09 49.27 14.72 48.95 14.42C48.63 14.13 48.22 13.98 47.72 13.98C47.22 13.98 46.81 14.13 46.49 14.42C46.17 14.71 46.01 15.09 46.01 15.55C46.01 16.01 46.17 16.38 46.49 16.68C46.81 16.97 47.22 17.12 47.72 17.12C48.22 17.12 48.63 16.97 48.95 16.68C49.27 16.39 49.43 16.01 49.43 15.55Z" fill="var(--fill-0, white)"/>
<path id="Vector_4" d="M84.59 32.17H80.83L75.78 16.96L70.57 32.17H66.97V19.56C66.61 19.63 66.31 19.66 66.06 19.66C64.91 19.66 63.95 19.29 63.16 18.56C62.37 17.82 61.98 16.93 61.98 15.89C61.98 14.85 62.37 14.01 63.16 13.29C63.95 12.57 64.91 12.21 66.06 12.21C67.28 12.21 68.29 12.59 69.09 13.34C69.9 14.09 70.3 15.04 70.3 16.18V23.49C70.3 24.34 70.09 26.07 69.66 28.69C70.45 25.71 70.89 24.11 71 23.88L74.76 13.43H76.8L80.56 23.88C80.63 24.08 81.08 25.68 81.9 28.69C81.47 26.07 81.26 24.34 81.26 23.49V12.6H84.59V32.17ZM67.89 15.94C67.89 15.48 67.71 15.09 67.35 14.76C66.99 14.43 66.56 14.27 66.06 14.27C65.56 14.27 65.13 14.43 64.77 14.76C64.41 15.09 64.23 15.48 64.23 15.94C64.23 16.4 64.41 16.79 64.77 17.12C65.13 17.45 65.56 17.61 66.06 17.61C66.56 17.61 66.99 17.45 67.35 17.12C67.71 16.79 67.89 16.4 67.89 15.94Z" fill="var(--fill-0, white)"/>
<path id="Vector_5" d="M84.69 10.1C80.25 8.79 76.19 8.14 72.5 8.14C70.82 8.14 69.12 8.24 67.4 8.43C67.83 4.05 70.44 1.86 75.24 1.86C78 1.86 80.18 2.62 81.79 4.14C83.4 5.66 84.37 7.65 84.69 10.1ZM81.26 7.21C81.05 6.39 80.4 5.63 79.33 4.91C78.26 4.19 77.04 3.83 75.68 3.83C74.39 3.83 73.28 4.07 72.35 4.54C71.42 5.01 70.83 5.64 70.58 6.43C71.19 6.3 72.14 6.23 73.43 6.23C76.08 6.23 78.69 6.56 81.27 7.21H81.26Z" fill="var(--fill-0, white)"/>
<path id="Vector_6" d="M100.64 28.84C100.64 29.89 100.24 30.77 99.43 31.49C98.62 32.21 97.67 32.57 96.56 32.57C95.34 32.57 94.32 32.19 93.5 31.44C92.68 30.69 92.27 29.74 92.27 28.59V9.12C92.09 8.01 91.2 7.11 89.59 6.42C88.27 5.86 86.92 5.59 85.56 5.59C85.74 1.86 87.56 0 91.04 0C91.97 0 93.02 0.269998 94.18 0.809998C95.34 1.35 96.16 1.62 96.62 1.62C97.01 1.62 97.41 1.13 97.8 0.149998L100.27 0.739998C99.59 2.96 98.52 4.07 97.05 4.07C96.37 4.07 95.4 3.8 94.15 3.26C92.9 2.72 91.86 2.45 91.04 2.45C89.79 2.45 88.96 2.86 88.57 3.68C93.26 4.79 95.6 6.69 95.6 9.37V25.21C95.78 25.14 96.1 25.11 96.57 25.11C97.68 25.11 98.64 25.47 99.44 26.19C100.25 26.91 100.65 27.79 100.65 28.84H100.64ZM98.38 28.84C98.38 28.38 98.2 27.99 97.84 27.66C97.48 27.33 97.05 27.17 96.55 27.17C96.05 27.17 95.62 27.33 95.26 27.66C94.9 27.99 94.72 28.38 94.72 28.84C94.72 29.3 94.9 29.69 95.26 30.02C95.62 30.35 96.05 30.51 96.55 30.51C97.05 30.51 97.48 30.35 97.84 30.02C98.2 29.69 98.38 29.3 98.38 28.84Z" fill="var(--fill-0, white)"/>
<path id="Vector_7" d="M114.06 28.89C114.06 29.94 113.66 30.81 112.85 31.51C112.04 32.21 111.07 32.56 109.92 32.56C108.77 32.56 107.8 32.2 106.99 31.48C106.18 30.76 105.78 29.88 105.78 28.83C105.78 27.78 106.18 26.9 106.99 26.18C107.8 25.46 108.77 25.1 109.92 25.1C110.35 25.1 110.62 25.12 110.73 25.15V20.93C110.73 20.41 109.54 19.89 107.16 19.39C104.78 18.88 102.62 18.48 100.69 18.19C100.76 16.39 101.28 14.94 102.25 13.85C103.22 12.76 104.61 12.21 106.44 12.21C107.19 12.21 108.22 12.37 109.53 12.68C110.84 12.99 111.78 13.15 112.35 13.15C112.96 13.15 113.3 12.79 113.37 12.07L116 12.71C115.36 14.71 114.17 15.7 112.46 15.7C111.82 15.7 110.89 15.55 109.7 15.26C108.5 14.97 107.6 14.82 106.99 14.82C105.41 14.82 104.52 15.38 104.31 16.49C107.07 17.01 109.38 17.57 111.26 18.16C113.14 18.75 114.08 19.76 114.08 21.2V28.9L114.06 28.89ZM111.75 28.84C111.75 28.38 111.57 27.99 111.21 27.66C110.85 27.33 110.42 27.17 109.92 27.17C109.42 27.17 108.99 27.33 108.63 27.66C108.27 27.99 108.09 28.38 108.09 28.84C108.09 29.3 108.27 29.69 108.63 30.02C108.99 30.35 109.42 30.51 109.92 30.51C110.42 30.51 110.85 30.35 111.21 30.02C111.57 29.69 111.75 29.3 111.75 28.84Z" fill="var(--fill-0, white)"/>
<path id="Vector_8" d="M133.27 28C133.27 31.04 131.03 32.56 126.56 32.56C122.09 32.56 119.9 31.04 119.9 28V21.57H123.23V28.19C123.23 29.37 124.36 29.96 126.61 29.96C128.86 29.96 129.94 29.37 129.94 28.19V21.72C129.94 20.97 128.54 20.31 125.75 19.73C122.96 19.16 120.54 18.69 118.5 18.33C118.71 16.24 119.27 14.72 120.16 13.77C121.2 12.72 122.83 12.2 125.04 12.2C125.83 12.2 126.94 12.36 128.37 12.67C129.8 12.98 130.8 13.14 131.38 13.14C131.99 13.14 132.33 12.78 132.4 12.06L135.03 12.7C134.64 13.78 134.17 14.56 133.63 15.03C133.09 15.5 132.27 15.74 131.16 15.74C130.52 15.74 129.53 15.58 128.21 15.25C126.89 14.92 125.87 14.76 125.15 14.76C123.22 14.76 122.18 15.3 122.04 16.38C125.55 17.07 128.29 17.72 130.28 18.34C132.27 18.96 133.26 20.02 133.26 21.53V28H133.27Z" fill="var(--fill-0, white)"/>
</g>
</svg>
