<svg preserveAspectRatio="none" width="100%" height="100%" overflow="visible" style="display: block;" viewBox="0 0 35.289 85.532" fill="none" xmlns="http://www.w3.org/2000/svg">
<g id="Group">
<path id="Vector" d="M1.14046 76.9619C2.48046 75.7919 3.73041 75.232 4.90041 75.302C6.07041 75.362 7.07042 75.7319 7.91042 76.4019C8.75042 77.0719 9.37042 77.882 9.78042 78.822C10.1904 79.762 10.3204 80.532 10.1704 81.112C10.0204 81.702 9.77041 82.3119 9.40041 82.9619C9.03041 83.6019 8.56042 84.112 7.97042 84.482C7.39042 84.852 6.69045 85.032 5.88045 85.032C5.07045 85.032 4.12044 84.672 3.05044 83.972C1.98044 83.262 1.28046 82.512 0.95046 81.702C0.62046 80.902 0.460428 80.1419 0.480428 79.4319C0.530428 78.6219 0.750452 77.7919 1.13045 76.9619H1.14046ZM34.0805 1.37196C34.5205 1.88196 34.7504 2.69196 34.7904 3.79196C34.8304 4.89196 34.7305 6.16196 34.5105 7.60196C34.2905 9.04196 33.9604 10.582 33.5304 12.232C33.1004 13.882 32.6304 15.522 32.1204 17.162C30.9304 21.032 29.4404 25.242 27.6704 29.812C26.7504 32.202 25.8104 34.722 24.8504 37.352C23.8904 39.982 22.9104 42.652 21.9204 45.362C20.9304 48.072 19.9405 50.762 18.9505 53.452C17.9605 56.142 16.9704 58.772 15.9704 61.342C15.5804 62.282 15.1805 63.232 14.7605 64.192C14.3405 65.152 13.8804 66.032 13.4004 66.832C12.9104 67.632 12.4105 68.322 11.8805 68.882C11.3605 69.442 10.8205 69.792 10.2705 69.942C9.28047 70.212 8.62044 70.062 8.30044 69.502C7.98044 68.942 7.82041 68.272 7.84041 67.482C7.83041 66.592 7.99045 65.502 8.32045 64.222C11.0205 55.472 13.5404 47.322 15.8704 39.772C16.8804 36.532 17.8805 33.262 18.8905 29.982C19.9005 26.702 20.8605 23.612 21.7705 20.712C22.6805 17.812 23.5105 15.212 24.2605 12.892C25.0105 10.582 25.5904 8.76197 26.0004 7.45197C26.8904 4.87197 27.8105 3.09195 28.7605 2.11195C29.7105 1.13195 30.5805 0.601954 31.3805 0.501954C32.2905 0.381954 33.1904 0.661955 34.0904 1.36195L34.0805 1.37196Z" fill="var(--fill-0, #FF6602)"/>
<path id="Vector_2" d="M5.90038 85.532C4.99038 85.532 3.9504 85.142 2.8004 84.382C1.6504 83.622 0.880426 82.782 0.510426 81.882C0.160426 81.022 -0.00958336 80.192 0.000416644 79.422C0.0604166 78.532 0.290419 77.642 0.690419 76.752L0.820424 76.582C2.26042 75.322 3.64042 74.722 4.94042 74.792C6.21042 74.862 7.32041 75.272 8.24041 76.002C9.14041 76.722 9.82043 77.602 10.2604 78.612C10.7204 79.672 10.8504 80.522 10.6804 81.222C10.5204 81.852 10.2504 82.512 9.8604 83.192C9.4504 83.902 8.92044 84.472 8.27044 84.892C7.61044 85.312 6.81039 85.522 5.91039 85.522L5.90038 85.532ZM1.5504 77.272C1.2204 78.012 1.04041 78.752 0.990407 79.472C0.990407 80.082 1.13041 80.782 1.43041 81.522C1.72041 82.222 2.36038 82.912 3.34038 83.562C5.33038 84.882 6.71039 84.702 7.72039 84.072C8.23039 83.752 8.6504 83.292 8.9804 82.722C9.3204 82.122 9.56043 81.542 9.70043 81.002C9.82043 80.532 9.70043 79.862 9.33043 79.032C8.96043 78.172 8.37039 77.422 7.60039 76.802C6.84039 76.192 5.94041 75.862 4.87041 75.812C3.86041 75.762 2.74039 76.252 1.54039 77.282L1.5504 77.272ZM9.41039 70.572C8.54039 70.572 8.09039 70.152 7.85039 69.752C7.48039 69.112 7.30042 68.352 7.32042 67.482C7.31042 66.562 7.47042 65.422 7.82042 64.102C10.5304 55.332 13.0504 47.182 15.3804 39.632C16.3904 36.392 17.3904 33.122 18.4004 29.842C19.4104 26.562 20.3704 23.472 21.2804 20.572C22.1904 17.672 23.0204 15.072 23.7704 12.752C24.5204 10.442 25.0904 8.63196 25.5004 7.32196C26.4304 4.63196 27.3704 2.82196 28.3804 1.78196C29.4204 0.711956 30.3804 0.131956 31.3104 0.0319561C32.3504 -0.108044 33.3804 0.211963 34.3804 0.991963L34.4504 1.06197C34.9704 1.67197 35.2404 2.56197 35.2804 3.79197C35.3204 4.92197 35.2204 6.23196 35.0004 7.69196C34.7804 9.13196 34.4504 10.702 34.0104 12.372C33.5804 14.012 33.1004 15.682 32.6004 17.322C31.4104 21.182 29.9104 25.452 28.1304 30.012C27.2204 32.402 26.2804 34.912 25.3104 37.542L22.3804 45.552C21.3904 48.262 20.4004 50.952 19.4104 53.642C18.4304 56.302 17.4304 58.962 16.4304 61.542C16.0404 62.502 15.6304 63.452 15.2104 64.412C14.7804 65.382 14.3104 66.292 13.8204 67.112C13.3104 67.952 12.7804 68.672 12.2404 69.242C11.6604 69.872 11.0304 70.272 10.3904 70.442C10.0104 70.542 9.69039 70.582 9.41039 70.582V70.572ZM31.7904 0.981968C31.6704 0.981968 31.5604 0.981957 31.4404 1.00196C30.7504 1.08196 29.9704 1.57196 29.1104 2.46196C28.2204 3.38196 27.3304 5.11196 26.4604 7.61196C26.0504 8.91196 25.4704 10.722 24.7304 13.042C23.9804 15.352 23.1504 17.962 22.2404 20.852C21.3304 23.752 20.3704 26.842 19.3604 30.122C18.3504 33.402 17.3404 36.672 16.3404 39.912C14.0104 47.462 11.4904 55.612 8.78039 64.362C8.46039 65.572 8.30042 66.622 8.32042 67.472C8.31042 68.172 8.44039 68.762 8.72039 69.242C8.79039 69.372 9.01042 69.752 10.1304 69.452C10.5904 69.332 11.0504 69.022 11.5104 68.532C12.0004 68.012 12.4904 67.352 12.9604 66.572C13.4304 65.792 13.8804 64.922 14.2904 63.992C14.7104 63.042 15.1104 62.092 15.5004 61.152C16.5004 58.582 17.5004 55.932 18.4704 53.272C19.4604 50.582 20.4504 47.892 21.4304 45.182L24.3604 37.172C25.3304 34.532 26.2704 32.022 27.1904 29.622C28.9604 25.082 30.4504 20.842 31.6304 17.002C32.1304 15.372 32.6004 13.722 33.0304 12.092C33.4604 10.462 33.7804 8.92196 34.0004 7.52196C34.2204 6.12196 34.3104 4.87197 34.2704 3.81197C34.2404 2.86197 34.0504 2.16197 33.7104 1.73197C33.0504 1.23197 32.4104 0.981968 31.7704 0.981968H31.7904Z" fill="var(--fill-0, black)"/>
</g>
</svg>
