<svg preserveAspectRatio="none" width="100%" height="100%" overflow="visible" style="display: block;" viewBox="0 0 15.9078 29.0984" fill="none" xmlns="http://www.w3.org/2000/svg">
<g id="Group">
<path id="Vector" d="M9.20999 1.58838C10.29 1.32838 11.24 1.35838 12.07 1.66838C12.79 1.97838 13.41 2.57838 13.92 3.47838C14.43 4.37838 14.62 5.88838 14.46 7.99838C14.31 10.0584 13.87 12.1684 13.15 14.3284C12.43 16.4884 11.57 18.4884 10.56 20.3084C9.56 22.1384 8.49 23.6884 7.36 24.9784C6.23 26.2684 5.17 27.0884 4.19 27.4484C3.73 27.5984 3.34 27.6784 3.03 27.6784C2.41 27.6784 1.98999 27.4484 1.75999 26.9884C1.52999 26.5284 1.40999 25.9484 1.40999 25.2484C1.40999 24.5484 1.49 23.8384 1.64 23.0884C1.79 22.3384 1.97999 21.6584 2.17999 21.0384C2.38999 20.3684 2.67 19.4684 3.03 18.3384C3.39 17.2084 3.73999 15.9884 4.06999 14.6684C4.40999 13.3584 4.69 12.0084 4.92 10.6184C5.15 9.22838 5.24 7.93838 5.19 6.75838C5.14 5.57838 5.32 4.64838 5.73 3.97838C6.14 3.30838 6.6 2.79838 7.12 2.43838C7.74 2.02838 8.43 1.74838 9.2 1.58838H9.20999Z" fill="var(--fill-0, white)"/>
<path id="Vector_2" d="M3.03999 29.0984C1.87999 29.0984 0.98 28.5784 0.5 27.6184C0.17 26.9584 0 26.1584 0 25.2484C0 24.4584 0.0899945 23.6384 0.259995 22.7984C0.419995 22.0084 0.619996 21.2584 0.839996 20.5884C1.04 19.9484 1.31999 19.0384 1.67999 17.9084C2.02999 16.8184 2.37 15.6084 2.7 14.3184C3.02 13.0584 3.29999 11.7384 3.51999 10.3884C3.72999 9.09838 3.81999 7.89838 3.76999 6.81838C3.70999 5.32838 3.94999 4.15838 4.51999 3.23838C5.02999 2.40838 5.63 1.74838 6.3 1.27838C7.09 0.748383 7.95 0.398384 8.89 0.208384C10.24 -0.111616 11.47 -0.061617 12.55 0.348383C13.62 0.808383 14.47 1.61839 15.13 2.78839C15.79 3.94839 16.03 5.68839 15.85 8.10839C15.69 10.2784 15.22 12.5184 14.47 14.7784C13.72 17.0184 12.82 19.1084 11.78 20.9984C10.73 22.9084 9.58999 24.5684 8.39999 25.9184C7.09999 27.3984 5.87999 28.3384 4.65999 28.7784C3.99999 28.9984 3.47999 29.0984 3.00999 29.0984H3.03999ZM2.98999 26.2684C3.05999 26.2684 3.21 26.2884 3.75 26.1084C4.22 25.9284 5.09 25.4184 6.3 24.0484C7.36 22.8484 8.38 21.3584 9.33 19.6284C10.28 17.8984 11.12 15.9584 11.81 13.8784C12.49 11.8384 12.91 9.81838 13.05 7.88838C13.22 5.50838 12.9 4.54838 12.69 4.17838C12.33 3.55838 11.94 3.14839 11.51 2.96839C11.02 2.78839 10.34 2.77839 9.53999 2.96839H9.48999C8.89999 3.09839 8.36999 3.30839 7.90999 3.61839C7.57999 3.84839 7.25 4.22839 6.94 4.72839C6.68 5.13839 6.57 5.82839 6.61 6.69839C6.67 7.97839 6.56999 9.37839 6.31999 10.8584C6.07999 12.2884 5.79 13.6884 5.45 15.0284C5.11 16.3684 4.74999 17.6284 4.37999 18.7784C4.01999 19.9084 3.74 20.7984 3.53 21.4684C3.33 22.0584 3.16999 22.6984 3.01999 23.3784C2.88999 24.0284 2.81999 24.6584 2.81999 25.2484C2.81999 25.6584 2.87 26.0084 2.98 26.2584L2.98999 26.2684Z" fill="var(--fill-0, #353535)"/>
</g>
</svg>
