<svg preserveAspectRatio="none" width="100%" height="100%" overflow="visible" style="display: block;" viewBox="0 0 417.35 119.41" fill="none" xmlns="http://www.w3.org/2000/svg">
<g id="Group">
<path id="Vector" d="M416.71 54.69C415.96 50.56 414.32 47.05 411.85 44.24C409.39 41.26 405.81 39.08 400.9 37.58C397.05 36.41 392.92 35.82 388.63 35.82C385.26 35.82 381.97 36.15 378.84 36.82C375.35 37.57 372.1 38.8 369.19 40.48L368.59 40.85C368.2 41.11 367.81 41.4 367.42 41.7L361.99 36.27H346.1L342.17 40.2C338.14 37.02 333.15 35.36 327.49 35.36C320.48 35.36 314.34 37.99 309.71 42.99C309.1 43.66 308.54 44.35 308.01 45.06C307.94 44.98 307.86 44.9 307.79 44.83L315.79 36.83V19.88L304.79 8.88H288.9L285.82 11.96C281.79 11.01 278.06 10.55 274.52 10.55H273.01C271.82 10.55 270.62 10.67 269.44 10.89C265.77 11.58 261.9 12.89 257.59 14.92L257.05 15.19C255.69 15.92 254.36 16.66 253.04 17.39C251.67 18.16 250.24 19 248.8 19.88L248.16 20.3L244.98 22.57L240.97 35.09L242.79 40.38L248.35 44.35C247.82 44.82 247.29 45.31 246.78 45.83C243.97 48.64 241.71 51.76 239.99 55.17V47.25L228.99 36.25H213.1L208.33 41.02L203.56 36.25H187.67L177.54 46.38C176.71 44.97 175.74 43.66 174.65 42.45L174.26 42.04C169.87 37.66 163.99 35.34 157.26 35.34C152.59 35.34 148.85 36.41 145.87 37.94V30.92L134.87 19.92H134.63C134.76 19.29 134.87 18.63 134.98 17.94C135.09 17.4 135.19 16.82 135.29 16.23C135.41 15.49 135.54 14.63 135.66 13.63L124.74 1.29H119.29L117.61 2.61C115.28 1.17 112.73 0 109.69 0C107.92 0 106.22 0.4 104.69 1.15C103.19 0.42 101.53 0.04 99.81 0.04C94.41 0.04 90.89 3.7 87.48 7.23L87.36 7.35C82.41 12.64 80.01 17.82 80.01 23.19C80.01 28.1 81.43 32.39 84.03 35.71C77.14 36.85 72.76 40.47 70.16 43.67C69.33 44.64 68.6 45.68 67.93 46.76L57.42 36.25H41.53L34.19 43.59L26.85 36.25H10.96L0 47.29V91.47C0 97.9 1.03 103.03 3.14 107.16C6.95 114.87 14.2 119.11 23.56 119.11C30.74 119.11 35.64 116.64 38.87 113.91C42.81 117.31 48.02 119.11 54.12 119.11C63.22 119.11 68.73 115.14 71.77 111.75C72.76 110.69 73.81 109.32 74.74 107.62V107.81L85.74 118.81H134.91L144.67 109.05L154.43 118.81H203.6L209.44 112.97C213.48 116.97 219.05 119.11 225.69 119.11C234.91 119.11 240.37 115.05 243.35 111.57C244.24 110.58 245.01 109.52 245.7 108.4L253.83 118.81H270.02L279.53 113.33L280.97 110.85L288.93 118.81H304.82L309.59 114.04L314.36 118.81H362.02L372.86 107.97C373.53 109.07 374.27 110.13 375.11 111.13L375.31 111.36C380.03 116.63 386.26 119.41 393.34 119.41C400.42 119.41 406.01 117.04 410.5 112.56L410.88 112.16C414.26 108.42 416.39 103.75 417.23 98.27L417.35 96.62V61.52C417.35 59.38 417.14 57.11 416.72 54.71L416.71 54.69ZM68.45 76.96L148.5 88.5498L268.81 71.36" fill="var(--fill-0, #F8F809)"/>
<path id="Vector_2" d="M33.39 87.91C35.1 90.28 35.96 92.98 35.96 96C35.96 99.33 34.95 102.1 32.93 104.32C30.81 106.84 27.68 108.1 23.55 108.1C18.41 108.1 14.87 106.13 12.96 102.2C11.65 99.68 10.99 96.1 10.99 91.46V47.28H26.88V84.35C29.5 84.35 31.67 85.54 33.39 87.91ZM27.72 99.26C28.48 98.4 28.85 97.37 28.85 96.16C28.85 95.05 28.47 94.04 27.72 93.13C26.96 92.22 25.93 91.77 24.62 91.77C23.31 91.77 22.25 92.2 21.44 93.06C20.63 93.92 20.23 94.95 20.23 96.16C20.23 97.37 20.61 98.41 21.37 99.26C22.13 100.12 23.21 100.55 24.62 100.55C25.93 100.55 26.97 100.12 27.72 99.26ZM63.95 87.91C65.66 90.28 66.52 92.98 66.52 96C66.52 99.53 65.56 102.31 63.65 104.32C61.43 106.84 58.25 108.1 54.12 108.1C48.98 108.1 45.44 106.13 43.53 102.2C42.22 99.68 41.56 96.1 41.56 91.46V47.28H57.45V84.35C60.07 84.35 62.24 85.54 63.96 87.91H63.95ZM57.07 98.8C57.83 97.94 58.2 96.91 58.2 95.7C58.2 94.59 57.82 93.58 57.07 92.67C56.31 91.76 55.23 91.31 53.82 91.31C52.51 91.31 51.47 91.74 50.72 92.6C49.96 93.46 49.59 94.49 49.59 95.7C49.59 96.91 49.97 97.95 50.72 98.8C51.48 99.66 52.51 100.09 53.82 100.09C55.23 100.09 56.32 99.66 57.07 98.8Z" fill="var(--fill-0, #353535)"/>
<path id="Vector_3" d="M85.74 107.8V72.24C82.51 72.24 79.97 71.06 78.1 68.68C76.23 66.31 75.3 63.51 75.3 60.28C75.3 56.45 76.41 53.27 78.63 50.75C80.95 47.83 84.28 46.36 88.62 46.36C92.45 46.36 95.53 47.52 97.85 49.84C99.76 51.96 100.97 54.68 101.48 58.01V96.44H119.03V30.96H134.92V107.8H85.75H85.74ZM91.87 62.34C92.63 61.48 93.01 60.5 93.01 59.39C93.01 58.18 92.63 57.15 91.87 56.29C91.11 55.43 90.03 55 88.62 55C87.21 55 86.12 55.43 85.37 56.29C84.61 57.15 84.24 58.18 84.24 59.39C84.24 60.5 84.62 61.48 85.37 62.34C86.13 63.2 87.21 63.63 88.62 63.63C90.03 63.63 91.12 63.2 91.87 62.34Z" fill="var(--fill-0, #353535)"/>
<path id="Vector_4" d="M124.47 14.45C124.37 15.06 124.27 15.61 124.17 16.11C123.97 17.52 123.72 18.73 123.41 19.74C123.11 20.75 122.86 21.61 122.65 22.31C120.74 27.86 117.96 30.63 114.33 30.63H106.46V27.3C106.66 27.2 106.79 27.1 106.84 27C106.89 26.9 106.97 26.8 107.07 26.7C107.98 26.1 108.68 25.34 109.19 24.43C110.1 23.12 110.55 21.66 110.55 20.04V18.83C110.35 18.23 110.25 17.98 110.25 18.07C110.05 18.17 109.9 18.22 109.8 18.22C109.7 18.22 109.55 18.27 109.35 18.37C108.04 20.19 106.63 20.99 105.11 20.79C104.61 20.69 103.55 19.93 101.93 18.52C101.23 18.02 100.52 17.81 99.81 17.91C98.6 18.01 97.59 18.87 96.78 20.48C96.68 20.68 96.58 20.99 96.48 21.39C96.38 21.79 96.23 22.25 96.03 22.75C96.63 22.35 96.99 22.1 97.09 21.99C98.1 21.49 99.01 21.23 99.81 21.23C101.42 21.23 102.63 21.71 103.44 22.67C104.25 23.63 104.65 24.86 104.65 26.38C104.65 27.79 104.17 29.05 103.21 30.16C102.25 31.27 100.97 31.82 99.35 31.82C97.53 31.72 96.17 31.42 95.26 30.91C92.44 29.6 91.02 27.03 91.02 23.19C91.02 20.77 92.48 18 95.41 14.87C98.13 12.05 99.65 10.78 99.95 11.09C100.66 12.3 101.16 13.06 101.46 13.36C102.77 14.87 103.93 15.63 104.94 15.63C105.85 15.63 106.86 14.87 107.97 13.36C108.17 12.96 108.42 12.58 108.73 12.23C109.03 11.88 109.29 11.5 109.49 11.09C109.79 10.79 111.06 11.39 113.27 12.91C114.99 14.02 116.02 15.13 116.37 16.24C116.72 17.35 116.9 18.46 116.9 19.57C116.9 20.48 116.8 21.36 116.6 22.22C116.4 23.08 116.05 23.91 115.54 24.72L115.69 24.87C116.6 23.96 117.41 22.4 118.11 20.18C118.41 19.07 118.71 17.06 119.02 14.13C119.12 13.93 119.17 13.68 119.17 13.37C119.17 13.06 119.22 12.72 119.32 12.31H124.77C124.67 13.12 124.57 13.82 124.47 14.43V14.45ZM98.07 24.89C97.62 25.4 97.39 25.95 97.39 26.55C97.39 27.96 98.15 28.67 99.66 28.67C100.47 28.67 101.07 28.44 101.48 27.99C101.88 27.54 102.08 27.01 102.08 26.4C102.08 25.79 101.88 25.27 101.48 24.81C101.08 24.36 100.52 24.13 99.82 24.13C99.12 24.13 98.53 24.38 98.08 24.89H98.07Z" fill="var(--fill-0, #353535)"/>
<path id="Vector_5" d="M154.43 107.8V72.24C151.2 72.24 148.66 71.06 146.79 68.68C144.92 66.31 143.99 63.51 143.99 60.28C143.99 56.45 145.1 53.27 147.32 50.75C149.64 47.83 152.97 46.36 157.31 46.36C161.14 46.36 164.22 47.52 166.54 49.84C168.45 51.96 169.66 54.68 170.17 58.01V96.44H187.72V47.27H203.61V107.79H154.44L154.43 107.8ZM160.56 62.34C161.32 61.48 161.7 60.5 161.7 59.39C161.7 58.18 161.32 57.15 160.56 56.29C159.8 55.43 158.72 55 157.31 55C155.9 55 154.81 55.43 154.06 56.29C153.3 57.15 152.93 58.18 152.93 59.39C152.93 60.5 153.31 61.48 154.06 62.34C154.82 63.2 155.9 63.63 157.31 63.63C158.72 63.63 159.81 63.2 160.56 62.34Z" fill="var(--fill-0, #353535)"/>
<path id="Vector_6" d="M235.53 87.91C237.24 90.28 238.1 92.98 238.1 96C238.1 99.33 237.09 102.1 235.07 104.32C232.95 106.84 229.82 108.1 225.69 108.1C220.55 108.1 217.01 106.13 215.1 102.2C213.79 99.68 213.13 96.1 213.13 91.46V47.28H229.02V84.35C231.64 84.35 233.81 85.54 235.53 87.91ZM229.93 99.26C230.74 98.4 231.14 97.37 231.14 96.16C231.14 94.95 230.76 93.92 230.01 93.06C229.25 92.2 228.17 91.77 226.76 91.77C225.35 91.77 224.26 92.2 223.51 93.06C222.75 93.92 222.37 94.95 222.37 96.16C222.37 97.37 222.77 98.41 223.58 99.26C224.39 100.12 225.45 100.55 226.76 100.55C228.07 100.55 229.13 100.12 229.94 99.26H229.93Z" fill="var(--fill-0, #353535)"/>
<path id="Vector_7" d="M288.93 107.8V66.5C288.83 66 288.73 65.52 288.63 65.06C288.53 64.61 288.43 64.23 288.33 63.92C287.52 61.9 286.36 60.54 284.85 59.84C281.72 58.23 278.34 57.42 274.71 57.42C271.08 57.42 267.98 58.2 265.1 59.77C262.23 61.34 260.08 63.68 258.67 66.81C258.07 68.22 257.76 69.59 257.76 70.9C257.76 75.04 259.73 79.88 263.66 85.42C264.67 86.53 265.68 87.67 266.69 88.82C267.7 89.98 268.71 91.12 269.72 92.22L272.75 87.08C269.22 86.47 266.49 84.91 264.58 82.39C262.76 80.17 261.86 77.45 261.86 74.22C261.86 70.79 262.92 67.86 265.04 65.45C267.36 62.83 270.54 61.52 274.57 61.52C278.6 61.52 281.76 62.71 284.03 65.08C286.3 67.45 287.43 70.35 287.43 73.78C287.43 75.9 287.08 77.86 286.37 79.68L270.03 107.82H253.84C254.04 107.01 254.24 106.33 254.45 105.78C254.65 105.23 254.8 104.75 254.9 104.34C255.71 101.31 256.11 98.89 256.11 97.08C256.11 96.38 256.06 95.77 255.96 95.26C255.66 93.44 253.54 88.25 249.61 79.68C247.99 76.35 247.19 73.28 247.19 70.45V69.39C247.29 69.09 247.34 68.74 247.34 68.33C248.15 62.58 250.57 57.69 254.6 53.65C258.84 49.41 263.63 47.29 268.97 47.29H287.88C292.72 47.29 296.96 49.26 300.59 53.19C302.1 54.91 303.21 57.22 303.92 60.15C304.32 62.97 304.62 64.54 304.83 64.84V107.81H288.94L288.93 107.8ZM277.81 77.55C278.57 76.74 278.94 75.73 278.94 74.52C278.94 73.31 278.56 72.28 277.81 71.42C277.05 70.56 275.97 70.13 274.56 70.13C273.15 70.13 272.06 70.56 271.31 71.42C270.55 72.28 270.18 73.31 270.18 74.52C270.18 75.63 270.56 76.61 271.31 77.47C272.07 78.33 273.15 78.76 274.56 78.76C275.97 78.76 277.06 78.36 277.81 77.55Z" fill="var(--fill-0, #353535)"/>
<path id="Vector_8" d="M253.23 36.85L251.41 31.56L254.59 29.29C255.9 28.48 257.19 27.73 258.45 27.02C259.71 26.31 261 25.61 262.31 24.9C265.74 23.29 268.82 22.23 271.54 21.72C272.05 21.62 272.55 21.57 273.05 21.57H274.56C278.7 21.57 283.49 22.48 288.93 24.29V19.9H304.82V36.85H253.23ZM287.42 30.64C286.72 30.34 285.96 30.03 285.15 29.73C281.02 28.62 277.69 28.07 275.16 28.07C274.46 28.07 273.85 28.1 273.34 28.15C272.84 28.2 272.33 28.28 271.83 28.38C270.82 28.48 269.41 29.04 267.59 30.04C267.19 30.24 266.83 30.47 266.53 30.72C266.23 30.97 265.88 31.2 265.47 31.4H289.53C288.83 31.2 288.12 30.95 287.41 30.64H287.42Z" fill="var(--fill-0, #353535)"/>
<path id="Vector_9" d="M314.35 107.8V88.13C314.35 87.83 314.65 87.07 315.26 85.86C316.87 82.74 318.79 81.02 321.01 80.72C320.5 80.52 320.05 80.27 319.65 79.96C319.25 79.66 318.84 79.41 318.44 79.2C315.72 77.69 314.35 76.28 314.35 74.96V59.07C314.35 55.84 315.51 52.97 317.83 50.45C320.35 47.73 323.58 46.37 327.51 46.37C331.44 46.37 334.72 47.73 337.04 50.45C339.16 52.87 340.22 55.8 340.22 59.22C340.22 62.35 339.41 65.02 337.8 67.24C336.08 69.66 333.61 71.27 330.39 72.08C330.39 72.38 330.79 72.86 331.6 73.52C332.41 74.18 333.01 74.5 333.42 74.5H342.65V85.24H330.24V96.29H346.13V47.27H362.02V107.79H314.36L314.35 107.8ZM330.77 62.34C331.53 61.48 331.9 60.5 331.9 59.39C331.9 58.18 331.52 57.15 330.77 56.29C330.01 55.43 328.93 55 327.52 55C326.11 55 325.02 55.43 324.27 56.29C323.51 57.15 323.14 58.18 323.14 59.39C323.14 60.5 323.52 61.48 324.27 62.34C325.03 63.2 326.11 63.63 327.52 63.63C328.93 63.63 330.02 63.2 330.77 62.34Z" fill="var(--fill-0, #353535)"/>
<path id="Vector_10" d="M402.71 104.78C400.29 107.2 397.16 108.41 393.33 108.41C389.5 108.41 386.12 106.95 383.5 104.02C381.28 101.4 380.17 98.22 380.17 94.49C380.17 91.26 380.98 88.69 382.59 86.77C384.51 84.55 387.13 83.44 390.46 83.44V62.56C390.26 61.95 390.06 61.45 389.86 61.05C388.65 59.34 385.87 58.48 381.54 58.48C379.72 58.48 377.51 59.34 374.88 61.05C374.48 61.35 374 61.73 373.44 62.19C372.88 62.64 372.25 63.17 371.55 63.78V53.19C371.55 52.99 371.93 52.51 372.68 51.75C373.44 50.99 374.12 50.41 374.72 50.01C376.63 48.9 378.78 48.09 381.15 47.59C383.52 47.09 386.02 46.83 388.64 46.83C391.87 46.83 394.89 47.26 397.72 48.12C400.54 48.98 402.46 50.06 403.47 51.37C404.68 52.68 405.49 54.45 405.89 56.67C406.19 58.39 406.34 60 406.34 61.51V96.61C405.83 99.94 404.62 102.66 402.71 104.78ZM396.58 98.5C397.34 97.64 397.71 96.61 397.71 95.4C397.71 94.29 397.33 93.28 396.58 92.37C395.82 91.46 394.74 91.01 393.33 91.01C391.92 91.01 390.83 91.44 390.08 92.3C389.32 93.16 388.95 94.19 388.95 95.4C388.95 96.61 389.33 97.65 390.08 98.5C390.84 99.36 391.92 99.79 393.33 99.79C394.74 99.79 395.83 99.36 396.58 98.5Z" fill="var(--fill-0, #353535)"/>
</g>
</svg>
