<svg preserveAspectRatio="none" width="100%" height="100%" overflow="visible" style="display: block;" viewBox="0 0 76.1182 79.8136" fill="none" xmlns="http://www.w3.org/2000/svg">
<g id="Group">
<path id="Vector" d="M72.9502 0.523553C73.8102 0.513553 74.4303 0.703549 74.8003 1.11355C75.1703 1.52355 75.4102 1.95356 75.5102 2.40356C75.6502 2.96356 75.6603 3.58356 75.5503 4.26356C75.0703 5.30356 74.6202 6.17356 74.1902 6.87356C73.7702 7.57356 73.2502 8.38356 72.6302 9.31356C69.7802 13.6836 67.1602 18.1236 64.7702 22.6336C62.3802 27.1436 60.1302 31.7936 58.0002 36.5736C55.0802 43.2136 52.3203 49.8436 49.7403 56.4936C47.1503 63.1336 44.3502 69.7436 41.3402 76.3236C41.1502 76.8036 40.8202 77.1936 40.3302 77.5236C39.8402 77.8436 39.2703 78.1236 38.6003 78.3536C37.9303 78.5836 37.2103 78.7636 36.4303 78.8836C35.6503 79.0036 34.8703 79.1036 34.1003 79.1736C32.2603 79.3336 30.2703 79.3636 28.1203 79.2436C26.6403 79.1936 25.2403 79.1435 23.9303 79.0835C22.6203 79.0235 21.3902 78.9435 20.2502 78.8335C15.5502 78.3635 12.2002 77.3736 10.2102 75.8736C8.22024 74.3636 7.34024 72.0435 7.59024 68.8935C7.77024 66.9335 8.14024 65.0036 8.71024 63.1036C9.27024 61.2036 10.0002 59.2836 10.9002 57.3536C11.8002 55.4136 12.8302 53.4235 13.9702 51.3935C15.1202 49.3535 16.3502 47.2135 17.6602 44.9735C18.9702 42.7335 19.9603 40.9136 20.6203 39.5136C21.2803 38.1236 21.7002 36.9535 21.8802 36.0035C22.0602 35.0535 22.0302 34.2636 21.7802 33.6236C21.5302 32.9836 21.1502 32.3336 20.6302 31.6936C19.8602 30.7236 18.9502 30.1935 17.9002 30.0835C17.2302 30.0135 16.6203 30.1036 16.0403 30.3436C15.4703 30.5836 15.0202 30.8336 14.7102 31.1036C14.4502 31.3236 14.0302 31.6936 13.4602 32.2036C12.8802 32.7136 12.2403 33.2936 11.5403 33.9436C10.8303 34.5936 10.0903 35.2736 9.30026 35.9836C8.51026 36.6936 7.76024 37.3636 7.03024 37.9836C6.20024 38.6936 5.45024 39.1536 4.78024 39.3536C4.11024 39.5636 3.54022 39.6336 3.07022 39.5936C2.26022 39.5136 1.88025 39.3036 1.91025 38.9636C1.94025 38.6736 1.91021 38.3736 1.81021 38.0636C1.71021 37.7536 1.39021 37.0836 0.810212 36.0336C0.530212 35.4636 0.460261 34.8836 0.610261 34.3036C0.760261 33.7236 0.980234 33.1836 1.27023 32.6636C1.61023 32.1036 2.05023 31.5336 2.58023 30.9436C3.90023 29.6436 5.33026 28.3536 6.86026 27.0636C8.39026 25.7836 9.99023 24.6536 11.6402 23.6836C13.2902 22.7136 14.9703 21.9636 16.6703 21.4336C18.3703 20.9136 20.0302 20.7335 21.6502 20.8935C22.7402 21.0035 23.7503 21.2736 24.6703 21.7136C28.2603 23.3036 30.3803 25.5935 31.0403 28.5835C31.7003 31.5635 31.3003 35.1135 29.8703 39.2235C29.4103 40.5635 28.7802 42.0736 27.9702 43.7436C27.1702 45.4236 26.3203 47.1536 25.4303 48.9436C24.5403 50.7336 23.6302 52.5236 22.7002 54.3136C21.7702 56.1036 20.9102 57.7936 20.1402 59.4036C19.3702 61.0136 18.7002 62.4636 18.1502 63.7736C17.6002 65.0836 17.2602 66.1435 17.1302 66.9735C16.9202 68.1935 17.0203 69.0736 17.4203 69.6336C17.8203 70.1936 18.3003 70.5736 18.8603 70.7736C19.5103 70.9836 20.3002 71.0436 21.2202 70.9336L34.1602 71.0336C37.4902 63.0536 40.6703 55.5336 43.6803 48.4636C44.9703 45.4236 46.3003 42.3436 47.6703 39.2136C49.0403 36.0836 50.3803 33.0935 51.6703 30.2235C52.9703 27.3635 54.1703 24.7236 55.2903 22.3136C56.4003 19.9036 57.3702 17.8936 58.1902 16.2936C58.4902 15.6836 58.7802 15.1036 59.0702 14.5636C59.3602 14.0236 59.6502 13.4936 59.9402 12.9836C61.1402 10.3836 62.3502 8.26355 63.5602 6.63355C64.7702 4.99355 65.9303 3.72356 67.0403 2.82356C68.1503 1.92356 69.2302 1.31355 70.2702 0.993554C71.3102 0.673554 72.2102 0.533552 72.9702 0.553552L72.9502 0.523553Z" fill="var(--fill-0, #FF6602)"/>
<path id="Vector_2" d="M30.7003 79.8136C29.8603 79.8136 28.9903 79.7936 28.1103 79.7436C26.6403 79.6936 25.2403 79.6436 23.9203 79.5836C22.6003 79.5236 21.3503 79.4436 20.2103 79.3236C15.4403 78.8536 11.9703 77.8136 9.91028 76.2636C7.78028 74.6536 6.83027 72.1636 7.09027 68.8536C7.28027 66.8636 7.66028 64.8836 8.22028 62.9636C8.78028 61.0536 9.53025 59.0936 10.4402 57.1436C11.3502 55.1936 12.3903 53.1736 13.5303 51.1436C14.6803 49.1036 15.9103 46.9636 17.2303 44.7136C18.5303 42.4936 19.5203 40.6736 20.1703 39.2936C20.8103 37.9436 21.2203 36.8036 21.3903 35.9036C21.5503 35.0536 21.5302 34.3436 21.3102 33.7936C21.0802 33.2036 20.7103 32.5936 20.2303 31.9936C19.5403 31.1236 18.7603 30.6636 17.8403 30.5736C17.2603 30.5136 16.7203 30.5936 16.2203 30.7936C15.7003 31.0136 15.2903 31.2436 15.0203 31.4736C14.7603 31.6936 14.3503 32.0536 13.7703 32.5636C13.2003 33.0736 12.5603 33.6536 11.8503 34.2936C11.1403 34.9436 10.3903 35.6236 9.61029 36.3336C8.82029 37.0536 8.06026 37.7236 7.33026 38.3436C6.43026 39.1036 5.64027 39.5836 4.90027 39.8136C4.17027 40.0336 3.5303 40.1236 2.9903 40.0736C1.5803 39.9336 1.34025 39.3536 1.38025 38.8936C1.40025 38.6636 1.38029 38.4336 1.30029 38.1836C1.25029 38.0036 1.03027 37.5136 0.340271 36.2536C-0.00972921 35.5536 -0.0897194 34.8536 0.100281 34.1636C0.260281 33.5436 0.500241 32.9536 0.810241 32.4036C1.17024 31.8036 1.63025 31.2036 2.19025 30.5836C3.53025 29.2636 4.98026 27.9436 6.52026 26.6536C8.06026 25.3636 9.69029 24.2136 11.3603 23.2236C13.0303 22.2336 14.7602 21.4636 16.5002 20.9336C18.2602 20.3936 20.0003 20.2036 21.6703 20.3736C22.8103 20.4836 23.8803 20.7736 24.8503 21.2336C28.5703 22.8836 30.8102 25.3136 31.5002 28.4436C32.1702 31.5036 31.7702 35.1736 30.3102 39.3536C29.8402 40.7036 29.2003 42.2436 28.3903 43.9236C27.5803 45.6036 26.7403 47.3336 25.8503 49.1336C24.9903 50.8736 24.0703 52.6836 23.1103 54.5136C22.1803 56.3036 21.3202 58.0036 20.5602 59.5836C19.8002 61.1736 19.1303 62.6336 18.5803 63.9236C18.0503 65.1836 17.7103 66.2236 17.6003 67.0036C17.4103 68.0836 17.4803 68.8536 17.8003 69.3036C18.1503 69.7836 18.5403 70.1036 19.0103 70.2736C19.5703 70.4536 20.2903 70.5036 21.1403 70.4036L33.8003 70.4936C37.1103 62.5836 40.2702 55.0936 43.1902 48.2236C44.4802 45.1836 45.8103 42.1036 47.1803 38.9736C48.5503 35.8436 49.8902 32.8436 51.1902 29.9836C52.4902 27.1236 53.6902 24.4836 54.8102 22.0636C55.9202 19.6536 56.9003 17.6136 57.7203 16.0236C58.0103 15.4136 58.3103 14.8336 58.6103 14.2836C58.9003 13.7436 59.1903 13.2136 59.4803 12.6936C60.6803 10.1036 61.9102 7.93358 63.1302 6.28358C64.3602 4.62358 65.5603 3.30357 66.7003 2.38357C67.8603 1.44357 69.0003 0.803569 70.1003 0.463569C71.1803 0.133569 72.1503 -0.0264376 72.9503 0.00356241C73.9603 -0.0164376 74.7003 0.243572 75.1703 0.763572C75.6003 1.23357 75.8703 1.74358 75.9903 2.28358C76.1403 2.89358 76.1603 3.58356 76.0403 4.33356L76.0002 4.46357C75.5102 5.51357 75.0503 6.41357 74.6103 7.12357C74.1803 7.82357 73.6603 8.64356 73.0403 9.58356C70.2103 13.9236 67.5703 18.3836 65.2003 22.8536C62.8303 27.3236 60.5603 32.0036 58.4503 36.7636C55.5403 43.3736 52.7603 50.0636 50.2003 56.6536C47.6203 63.2836 44.7903 69.9636 41.7903 76.5136C41.5803 77.0636 41.1703 77.5436 40.6003 77.9236C40.0803 78.2736 39.4602 78.5636 38.7502 78.8136C38.0602 79.0536 37.3003 79.2336 36.4903 79.3636C35.7103 79.4836 34.9202 79.5836 34.1302 79.6536C33.0402 79.7536 31.8803 79.8036 30.6703 79.8036L30.7003 79.8136ZM17.4803 29.5536C17.6403 29.5536 17.7903 29.5536 17.9503 29.5736C19.1303 29.6936 20.1603 30.2936 21.0203 31.3636C21.5603 32.0436 21.9702 32.7336 22.2502 33.4236C22.5302 34.1536 22.5802 35.0536 22.3802 36.0836C22.1902 37.0736 21.7503 38.2936 21.0803 39.7136C20.4203 41.1136 19.4203 42.9636 18.1003 45.2136C16.7903 47.4536 15.5603 49.5936 14.4103 51.6236C13.2803 53.6336 12.2503 55.6336 11.3503 57.5536C10.4603 59.4636 9.7303 61.3736 9.1803 63.2436C8.6303 65.0936 8.26026 67.0136 8.08026 68.9336C7.85026 71.9136 8.64024 74.0536 10.5002 75.4636C12.4102 76.9136 15.7003 77.8736 20.2903 78.3336C21.4103 78.4436 22.6402 78.5336 23.9402 78.5836C25.2502 78.6436 26.6502 78.6936 28.1302 78.7436C30.2602 78.8536 32.2403 78.8336 34.0503 78.6736C34.8103 78.6036 35.5903 78.5036 36.3503 78.3936C37.0903 78.2836 37.7903 78.1136 38.4303 77.8836C39.0603 77.6736 39.6003 77.4136 40.0503 77.1136C40.4503 76.8436 40.7203 76.5336 40.8703 76.1436C43.8703 69.5936 46.6903 62.9336 49.2703 56.3136C51.8403 49.7036 54.6203 43.0036 57.5403 36.3736C59.6603 31.5936 61.9403 26.8936 64.3203 22.3936C66.7003 17.8936 69.3503 13.4036 72.2003 9.03358C72.8103 8.11358 73.3302 7.30357 73.7502 6.60357C74.1502 5.93357 74.5903 5.09357 75.0503 4.10357C75.1403 3.51357 75.1203 2.98357 75.0103 2.51357C74.9303 2.13357 74.7303 1.77357 74.4203 1.43357C74.1503 1.14357 73.6603 0.993562 72.9503 1.00356H72.9402H72.9303C72.2303 0.973562 71.3703 1.11357 70.3903 1.41357C69.4203 1.71357 68.3903 2.29357 67.3303 3.15357C66.2503 4.02357 65.1103 5.27357 63.9303 6.87357C62.7503 8.47357 61.5503 10.5836 60.3703 13.1436C60.0603 13.6936 59.7803 14.2136 59.4903 14.7536C59.2003 15.2836 58.9103 15.8536 58.6203 16.4636C57.8003 18.0536 56.8303 20.0736 55.7203 22.4736C54.6103 24.8836 53.4003 27.5236 52.1103 30.3836C50.8103 33.2436 49.4803 36.2436 48.1103 39.3636C46.7403 42.4936 45.4103 45.5736 44.1203 48.6036C41.1603 55.5536 37.9603 63.1536 34.6003 71.1736L34.4703 71.4836L21.2003 71.3836C20.2703 71.4936 19.4102 71.4336 18.6902 71.1936C18.0202 70.9536 17.4602 70.5036 17.0002 69.8636C16.5102 69.1836 16.3903 68.1836 16.6203 66.8236C16.7503 65.9536 17.1003 64.8736 17.6703 63.5136C18.2303 62.2036 18.9003 60.7236 19.6703 59.1236C20.4403 57.5336 21.3003 55.8236 22.2403 54.0236C23.1903 52.2036 24.1103 50.4036 24.9703 48.6636C25.8603 46.8736 26.7002 45.1436 27.5002 43.4636C28.2902 41.8136 28.9202 40.3136 29.3802 38.9936C30.7802 34.9936 31.1703 31.5036 30.5403 28.6236C29.9203 25.8136 27.8703 23.6236 24.4503 22.1036C23.5703 21.6836 22.6103 21.4236 21.5903 21.3236C20.0503 21.1736 18.4402 21.3436 16.8102 21.8436C15.1502 22.3536 13.4903 23.0936 11.8903 24.0436C10.2703 25.0036 8.6803 26.1236 7.1803 27.3836C5.6603 28.6536 4.2303 29.9536 2.9303 31.2336C2.4403 31.7736 2.02026 32.3336 1.70026 32.8636C1.44026 33.3236 1.24028 33.8336 1.10028 34.3736C0.980281 34.8336 1.03025 35.2836 1.26025 35.7536C2.04025 37.1836 2.22028 37.6436 2.29028 37.8636C2.39028 38.2036 2.43028 38.5536 2.41028 38.8836C2.48028 38.9236 2.6703 39.0036 3.1203 39.0436C3.5303 39.0836 4.04026 39.0136 4.64026 38.8236C5.24026 38.6436 5.93027 38.2136 6.71027 37.5536C7.43027 36.9336 8.19028 36.2736 8.97028 35.5636C9.76028 34.8536 10.5003 34.1736 11.2103 33.5236C11.9203 32.8736 12.5603 32.2936 13.1403 31.7836C13.7203 31.2736 14.1403 30.9036 14.4003 30.6736C14.7503 30.3736 15.2303 30.0936 15.8603 29.8336C16.3703 29.6236 16.9103 29.5136 17.4903 29.5136L17.4803 29.5536Z" fill="var(--fill-0, black)"/>
</g>
</svg>
