<svg preserveAspectRatio="none" width="100%" height="100%" overflow="visible" style="display: block;" viewBox="0 0 385.042 172.413" fill="none" xmlns="http://www.w3.org/2000/svg">
<g id="Group">
<path id="Vector" d="M383.592 70.9127C383.382 64.6027 380.912 60.4027 378.872 57.9927C378.132 57.1227 377.312 56.3327 376.422 55.6327C372.822 52.8327 368.632 51.3527 364.302 51.3527C363.512 51.3527 362.712 51.4027 361.922 51.5027C357.422 52.0627 353.332 54.2127 349.742 57.9027C346.992 60.7327 344.902 64.4227 343.142 69.5027C343.092 69.6627 343.032 69.8127 342.992 69.9727C342.592 71.2527 342.032 73.0127 341.302 75.2627C340.542 77.6127 339.702 80.2627 338.772 83.2027C337.852 86.1327 336.872 89.2627 335.862 92.5727C335.512 93.7227 335.152 94.8627 334.802 96.0027C332.622 94.6227 330.252 93.5527 327.722 92.8627C325.282 92.2027 322.722 91.8727 320.122 91.8727C318.002 91.8727 315.822 92.0927 313.622 92.5327C309.972 93.2627 306.422 94.5427 303.052 96.3227C302.582 95.8327 302.082 95.3627 301.552 94.9127C298.792 92.6027 295.392 91.2027 291.812 90.9027C291.112 90.8327 290.402 90.7927 289.702 90.7927C286.962 90.7927 284.242 91.3327 281.622 92.4127C281.602 92.4127 281.582 92.4227 281.572 92.4327C278.892 90.1727 275.622 88.5527 271.862 87.6127C272.432 86.5427 272.922 85.6027 273.342 84.7527C274.012 83.3727 274.772 81.7027 275.242 79.7427C276.082 76.2527 275.982 72.6327 274.932 69.2227C274.072 66.4427 272.652 63.9527 270.702 61.7927C269.312 60.2627 267.712 58.9527 265.952 57.9127C263.792 56.6427 261.472 55.8327 259.052 55.5027C258.162 55.3727 257.262 55.3027 256.362 55.3027C254.452 55.3027 252.552 55.6027 250.712 56.1827C250.542 56.2327 250.372 56.2927 250.202 56.3527C248.302 57.0227 246.492 58.0127 244.822 59.2727C242.962 58.0927 241.042 57.0927 239.102 56.2827C235.662 54.8427 232.282 53.9427 229.072 53.6227C228.072 53.5227 227.082 53.4727 226.122 53.4727C223.222 53.4727 220.482 53.9327 217.962 54.8527C212.722 56.7627 208.602 60.5827 206.362 65.6227C204.892 68.9427 204.372 72.5727 204.782 76.2327C203.912 76.1027 203.032 76.0327 202.142 76.0327C201.702 76.0327 201.252 76.0527 200.812 76.0827C199.662 74.4027 198.102 72.6627 195.972 71.0727C192.882 68.7627 189.212 67.3427 185.382 66.9527C184.732 66.8927 184.082 66.8527 183.432 66.8527C179.872 66.8527 176.342 67.7927 172.942 69.6527C171.002 70.7127 169.142 72.0727 167.322 73.7827C166.592 72.6727 165.772 71.6027 164.872 70.5927C162.222 67.6327 158.862 65.2527 154.882 63.5427C153.492 62.9427 152.072 62.4827 150.632 62.1327C151.192 60.8427 151.592 59.4827 151.822 58.0927C151.942 57.3527 152.022 56.6127 152.072 55.8727C152.612 55.7227 153.142 55.5727 153.702 55.4227C157.202 54.5227 160.832 53.7827 164.492 53.2427C168.162 52.6927 171.832 52.3427 175.382 52.1827C176.572 52.1327 177.732 52.1027 178.842 52.1027C180.862 52.1027 182.762 52.1927 184.512 52.3627C185.032 52.4127 185.562 52.4427 186.082 52.4427C191.092 52.4427 195.862 50.0627 198.972 45.9227C201.762 42.2127 203.372 38.1927 203.762 33.9827C204.122 30.1227 203.612 26.5227 202.262 23.2827C201.042 20.3627 199.272 17.7727 196.982 15.5927C195.352 14.0427 193.542 12.7027 191.572 11.6127C190.002 10.7427 188.372 10.0327 186.682 9.47271C184.852 8.87271 183.152 8.50271 181.462 8.33271C180.542 8.24271 179.542 8.20271 178.392 8.20271C177.732 8.20271 176.972 8.21271 176.122 8.25271C174.412 8.31271 172.502 8.4427 170.272 8.6527C168.162 8.8427 165.842 9.11271 163.382 9.45271C160.912 9.79271 158.372 10.2027 155.842 10.6827C155.812 10.6827 155.772 10.6927 155.742 10.7027C151.892 11.4627 147.922 12.5527 143.962 13.9327C140.292 15.2127 136.662 16.6427 133.192 18.1827C132.812 18.3527 132.442 18.5227 132.062 18.6827C130.692 17.0127 129.062 15.5327 127.212 14.2827C123.792 11.9727 119.852 10.5827 115.502 10.1527C114.582 10.0627 113.662 10.0127 112.762 10.0127C111.502 10.0127 110.262 10.1027 109.042 10.2827C108.142 9.41271 107.202 8.5627 106.242 7.7327C103.122 5.0527 99.6323 3.1627 95.8523 2.1227C95.7223 2.0927 95.5923 2.05271 95.4723 2.02271C93.7923 1.60271 92.0822 1.39271 90.4022 1.39271C86.3722 1.39271 82.4923 2.6027 79.1623 4.9127C76.1523 7.0027 73.6623 9.76271 71.7523 13.1427C70.2623 15.7827 69.1822 18.6427 68.5322 21.6827C67.9522 24.4127 67.7123 26.9127 67.7923 29.3427C67.7923 29.5327 67.8123 29.7227 67.8223 29.9127C67.9223 31.4327 68.1123 33.2727 68.3923 35.5427C68.7023 38.0327 69.1623 40.5727 69.7423 43.0727C70.3923 45.8627 71.2222 48.5227 72.2122 51.0127C72.8922 52.7227 73.7023 54.2927 74.6023 55.7427C73.9423 55.8927 73.2823 56.0627 72.6223 56.2527C70.3823 51.5227 66.4123 47.9727 61.3723 46.3727C59.6523 45.8227 57.8423 45.5527 56.0123 45.5527C53.9723 45.5527 51.9222 45.8927 49.8422 46.5827C48.6422 45.8627 47.3523 45.2827 45.9823 44.8427C44.2623 44.2927 42.4523 44.0227 40.6223 44.0227C36.6523 44.0227 32.6623 45.3027 28.4223 47.9527C26.2423 49.3127 24.3923 51.1827 23.0423 53.4127C22.3423 54.5727 21.5823 56.0127 20.6323 58.0027C20.0023 59.3327 19.2023 61.1027 18.2723 63.2727C17.3323 65.4327 16.1623 68.2027 14.7923 71.5027C14.7823 71.5327 14.7623 71.5727 14.7523 71.6027C13.8223 73.8827 12.8323 76.4027 11.8123 79.0927C10.7723 81.8227 9.75225 84.6127 8.78225 87.3827C7.77225 90.2327 6.81226 93.1127 5.92226 95.9727C5.02226 98.8627 4.2323 101.583 3.5823 104.073C2.8423 106.903 2.29226 109.393 1.92226 111.673C1.31226 115.383 1.26229 118.443 1.76229 121.293C2.37229 124.913 3.62227 128.193 5.49227 131.043C7.52227 134.153 10.0723 136.603 13.0523 138.323C16.0823 140.063 19.5023 140.993 22.9423 140.993C23.5023 140.993 24.0723 140.973 24.6423 140.923C26.0923 140.793 27.5123 140.513 28.8723 140.073C31.8123 141.683 35.1022 142.533 38.4022 142.533C38.9722 142.533 39.5422 142.513 40.0922 142.463C44.6622 142.073 48.8423 140.103 52.1923 136.773C53.1623 135.803 54.0123 134.793 54.7523 133.733C56.2723 136.353 58.2823 138.653 60.7623 140.523C65.2723 143.933 71.0323 145.893 78.8923 146.673C80.3023 146.813 81.8422 146.923 83.4622 146.993C84.7822 147.053 86.1823 147.103 87.6723 147.153C88.7723 147.213 89.8623 147.233 90.9123 147.233C92.5623 147.233 94.1823 147.163 95.7723 147.023C96.8623 146.923 97.9623 146.783 99.0623 146.623C100.782 146.363 102.442 145.953 103.972 145.423C105.922 144.753 107.732 143.863 109.402 142.763C112.432 140.743 114.802 137.953 116.292 134.653C116.772 136.363 117.432 137.983 118.262 139.513C120.662 143.903 124.452 147.423 129.212 149.673C132.432 151.193 136.132 152.213 140.512 152.763C143.662 153.163 147.242 153.403 151.432 153.503C152.872 153.603 154.292 153.653 155.642 153.653C156.992 153.653 158.302 153.603 159.562 153.503C162.412 153.323 165.192 152.803 167.802 151.963C169.772 151.333 171.572 150.453 173.182 149.373C174.922 151.713 177.022 153.593 179.422 154.973C182.302 156.633 185.562 157.513 188.842 157.513C189.382 157.513 189.922 157.493 190.462 157.443C193.752 157.153 196.832 156.023 199.512 154.123C199.962 154.413 200.422 154.703 200.892 154.963C203.902 156.613 207.252 157.443 210.842 157.443C212.632 157.443 214.492 157.233 216.392 156.803C216.452 156.793 216.512 156.773 216.572 156.763C216.912 156.683 217.262 156.593 217.602 156.493C220.532 159.373 224.372 161.143 228.702 161.573C229.382 161.643 230.062 161.673 230.732 161.673C234.042 161.673 237.302 160.833 240.152 159.253C242.222 158.103 244.092 156.613 245.732 154.813C247.392 157.033 249.442 158.953 251.852 160.563C255.242 162.813 259.252 164.133 263.762 164.493C265.352 164.623 266.862 164.683 268.252 164.683C269.052 164.683 269.832 164.663 270.552 164.623C273.412 164.473 276.092 163.943 278.532 163.063C279.112 162.853 279.682 162.613 280.242 162.363C281.322 163.873 282.542 165.193 283.912 166.303C286.272 168.233 288.882 169.593 291.722 170.353C293.402 170.793 295.102 171.013 296.782 171.013C297.862 171.013 298.952 170.923 300.022 170.733C303.012 170.213 305.752 169.033 308.182 167.203C308.982 166.603 309.722 165.943 310.412 165.233C311.242 165.323 312.082 165.373 312.922 165.373C313.172 165.373 313.412 165.373 313.662 165.363C316.942 165.253 320.202 164.463 323.352 163.023C324.402 164.043 325.562 164.983 326.852 165.843C330.592 168.313 334.502 169.563 338.472 169.563C342.442 169.563 345.932 168.523 349.102 166.523C351.942 164.723 354.342 162.193 356.062 159.173C357.192 157.183 358.032 155.123 358.542 153.073C359.052 151.063 359.392 148.273 358.842 144.953C359.172 144.463 359.502 143.963 359.822 143.433C360.672 142.033 361.462 140.503 362.182 138.873C362.672 137.773 363.132 136.683 363.572 135.603C363.612 135.503 363.652 135.393 363.702 135.293C364.742 132.593 365.782 129.843 366.782 127.123C367.772 124.423 368.772 121.713 369.762 119.003C370.752 116.303 371.722 113.633 372.692 111.013C373.622 108.483 374.542 106.033 375.412 103.733C377.322 98.8227 378.952 94.1927 380.262 89.9527C380.832 88.0927 381.372 86.2027 381.862 84.3327C382.442 82.1027 382.902 79.9527 383.212 77.9427C383.602 75.4227 383.752 73.1227 383.682 70.9327L383.592 70.9127Z" fill="var(--fill-0, white)"/>
<path id="Vector_2" d="M296.712 172.403C294.902 172.403 293.082 172.163 291.282 171.693C288.272 170.893 285.462 169.433 282.942 167.373C281.772 166.413 280.692 165.313 279.712 164.073C279.452 164.183 279.202 164.273 278.952 164.363C276.392 165.283 273.572 165.843 270.572 166.003C268.552 166.113 266.162 166.073 263.592 165.873C258.842 165.503 254.602 164.103 251.012 161.713C248.952 160.343 247.122 158.733 245.572 156.923C244.112 158.323 242.502 159.513 240.782 160.463C237.102 162.503 232.812 163.373 228.512 162.953C224.162 162.523 220.252 160.823 217.152 158.033C217.052 158.063 216.952 158.083 216.852 158.103L216.652 158.153C214.662 158.603 212.692 158.823 210.802 158.823C206.972 158.823 203.402 157.933 200.182 156.173C199.962 156.053 199.732 155.923 199.502 155.783C196.782 157.523 193.772 158.543 190.542 158.823C186.412 159.173 182.282 158.243 178.682 156.173C176.482 154.903 174.512 153.243 172.822 151.223C171.372 152.073 169.822 152.763 168.202 153.293C165.472 154.173 162.582 154.713 159.612 154.893C157.062 155.093 154.222 155.103 151.292 154.893C147.112 154.793 143.492 154.553 140.292 154.143C135.752 153.563 131.912 152.513 128.562 150.923C123.522 148.543 119.522 144.823 116.972 140.163C116.602 139.493 116.262 138.793 115.962 138.073C114.442 140.383 112.472 142.363 110.152 143.913C108.402 145.073 106.462 146.023 104.402 146.733C102.782 147.293 101.052 147.723 99.2523 147.993C98.1323 148.163 97.0023 148.303 95.8823 148.413C93.2423 148.653 90.5023 148.693 87.5823 148.543C86.1223 148.493 84.7123 148.443 83.3923 148.383C81.7523 148.313 80.1823 148.203 78.7423 148.063C70.6123 147.253 64.6222 145.213 59.9022 141.633C57.8622 140.083 56.1023 138.263 54.6423 136.183C54.1823 136.733 53.6923 137.263 53.1823 137.773C49.5923 141.343 45.1023 143.453 40.2023 143.873C36.3523 144.213 32.2823 143.423 28.7223 141.593C27.4323 141.963 26.1023 142.213 24.7623 142.333C20.4123 142.703 16.1222 141.733 12.3422 139.553C9.16225 137.723 6.45227 135.123 4.30227 131.823C2.33227 128.803 1.00227 125.343 0.36227 121.533C-0.16773 118.533 -0.117696 115.333 0.522304 111.453C0.902304 109.123 1.45225 106.593 2.21225 103.723C2.87225 101.213 3.66228 98.4727 4.56228 95.5627C5.46228 92.6827 6.42228 89.7827 7.43228 86.9227C8.41228 84.1327 9.44225 81.3327 10.4723 78.6027C11.5023 75.8827 12.4923 73.3527 13.4223 71.0827L14.7723 71.5127L13.4622 70.9727C14.8422 67.6427 16.0123 64.8727 16.9523 62.7127C17.8923 60.5427 18.6923 58.7627 19.3323 57.4027C20.2923 55.3827 21.0823 53.8927 21.8123 52.6827C23.2723 50.2727 25.3023 48.2227 27.6623 46.7527C32.1323 43.9627 36.3723 42.6127 40.6123 42.6127C42.5923 42.6127 44.5322 42.9127 46.4022 43.5027C47.6522 43.9027 48.8623 44.4227 50.0023 45.0527C54.0123 43.8427 58.0723 43.8527 61.7923 45.0327C65.2023 46.1127 68.1823 48.0327 70.5223 50.6127C69.6623 48.3327 68.9323 45.9127 68.3523 43.4127C67.7523 40.8527 67.2923 38.2727 66.9723 35.7327C66.6823 33.4327 66.4923 31.5627 66.3923 30.0227C66.3823 29.8227 66.3723 29.6127 66.3623 29.4027C66.2723 26.8627 66.5323 24.2427 67.1323 21.4027C67.8123 18.2427 68.9423 15.2327 70.5023 12.4627C72.5123 8.8927 75.1522 5.97271 78.3422 3.76271C83.4022 0.262707 89.7123 -0.857299 95.8123 0.662701L96.2223 0.772702C100.212 1.8727 103.892 3.8627 107.162 6.6727C107.962 7.3527 108.752 8.07271 109.522 8.80271C111.512 8.56271 113.552 8.55271 115.642 8.75271C120.222 9.20271 124.382 10.6727 128.002 13.1227C129.652 14.2327 131.142 15.5227 132.442 16.9727L132.612 16.8927C136.122 15.3427 139.782 13.8927 143.482 12.6027C147.512 11.1927 151.542 10.0927 155.462 9.3127L155.572 9.2927C158.122 8.8127 160.682 8.3927 163.182 8.0427C165.662 7.7027 168.002 7.43271 170.132 7.24271C172.392 7.03271 174.322 6.9027 176.052 6.8427C178.452 6.7527 180.072 6.7827 181.582 6.9327C183.372 7.1127 185.172 7.5027 187.102 8.1427C188.862 8.7227 190.582 9.4827 192.232 10.3927C194.312 11.5427 196.232 12.9527 197.942 14.5927C200.372 16.9127 202.252 19.6627 203.552 22.7627C205.002 26.2227 205.542 30.0527 205.162 34.1427C204.742 38.6227 203.042 42.8827 200.092 46.8027C196.412 51.7027 190.352 54.3927 184.362 53.8027C181.732 53.5427 178.722 53.4827 175.442 53.6227C171.932 53.7727 168.312 54.1327 164.692 54.6727C161.082 55.2127 157.502 55.9327 154.042 56.8227C153.822 56.8827 153.602 56.9427 153.382 57.0027C153.332 57.4527 153.272 57.9027 153.202 58.3527C153.042 59.3127 152.812 60.2727 152.492 61.2127C153.492 61.5127 154.482 61.8727 155.422 62.2827C159.592 64.0727 163.122 66.5627 165.912 69.6927C166.492 70.3427 167.042 71.0127 167.552 71.7127C169.072 70.4227 170.622 69.3427 172.252 68.4627C176.522 66.1227 181.032 65.1427 185.512 65.5927C189.602 66.0027 193.512 67.5227 196.812 69.9827C198.632 71.3427 200.212 72.9227 201.502 74.6727C202.072 74.6527 202.652 74.6627 203.232 74.6927C203.112 71.3627 203.732 68.0727 205.052 65.0927C207.452 59.7027 211.862 55.6127 217.462 53.5627C221.012 52.2727 224.932 51.8227 229.202 52.2527C232.552 52.5827 236.062 53.5127 239.632 55.0127C241.352 55.7227 243.072 56.5927 244.742 57.6027C246.312 56.5227 247.982 55.6727 249.712 55.0527C249.892 54.9827 250.082 54.9227 250.272 54.8627C253.182 53.9427 256.262 53.6827 259.242 54.1327C261.832 54.4827 264.342 55.3627 266.662 56.7227C268.552 57.8327 270.262 59.2327 271.752 60.8727C273.842 63.1827 275.362 65.8627 276.282 68.8327C277.402 72.4627 277.522 76.3627 276.612 80.1027C276.102 82.2027 275.312 83.9627 274.602 85.4027C274.392 85.8327 274.162 86.2727 273.922 86.7527C276.892 87.6927 279.542 89.0627 281.812 90.8327C285.142 89.6027 288.572 89.1627 291.952 89.5127C295.822 89.8427 299.462 91.3427 302.452 93.8427C302.742 94.0927 303.032 94.3527 303.312 94.6127C306.522 93.0127 309.892 91.8627 313.332 91.1627C318.432 90.1427 323.442 90.2627 328.082 91.5127C330.122 92.0627 332.092 92.8627 333.972 93.8827L334.502 92.1727C335.522 88.8627 336.492 85.7227 337.422 82.7927C338.352 79.8527 339.192 77.2027 339.952 74.8427C340.682 72.5927 341.242 70.8327 341.642 69.5627C341.692 69.3927 341.752 69.2227 341.812 69.0627C343.642 63.7727 345.842 59.9127 348.732 56.9327C352.542 53.0027 356.922 50.7127 361.752 50.1127C362.592 50.0027 363.452 49.9527 364.302 49.9527C368.952 49.9527 373.442 51.5327 377.292 54.5327C378.262 55.2927 379.162 56.1527 379.962 57.0927C382.152 59.6727 384.802 64.1627 385.022 70.8827C385.102 73.1627 384.942 75.5327 384.542 78.1527C384.222 80.2127 383.762 82.4127 383.162 84.6927C382.662 86.5827 382.122 88.4927 381.542 90.3727C380.232 94.6427 378.582 99.3027 376.662 104.253C375.792 106.533 374.872 108.983 373.952 111.503L371.022 119.493C370.032 122.203 369.042 124.913 368.042 127.613C367.042 130.343 366.002 133.103 364.952 135.813L364.822 136.153C364.372 137.253 363.902 138.353 363.412 139.463C362.672 141.133 361.852 142.723 360.972 144.173C360.742 144.553 360.502 144.923 360.272 145.283C360.662 148.053 360.532 150.793 359.862 153.413C359.312 155.603 358.432 157.773 357.242 159.873C355.412 163.083 352.842 165.793 349.812 167.713C346.422 169.843 342.482 170.973 338.422 170.973C334.362 170.973 329.992 169.643 326.022 167.013C324.972 166.323 323.962 165.543 323.012 164.683C319.952 165.963 316.812 166.663 313.652 166.773C312.722 166.803 311.792 166.773 310.882 166.703C310.282 167.283 309.642 167.823 308.982 168.323C306.372 170.283 303.422 171.563 300.212 172.113C299.062 172.313 297.902 172.413 296.732 172.413L296.712 172.403ZM280.642 160.563L281.322 161.503C282.332 162.913 283.482 164.143 284.742 165.173C286.952 166.983 289.402 168.243 292.012 168.943C294.562 169.613 297.182 169.743 299.702 169.303C302.472 168.823 305.012 167.723 307.252 166.033C307.982 165.483 308.672 164.873 309.312 164.213L309.802 163.713L310.492 163.793C311.492 163.903 312.502 163.953 313.532 163.913C316.612 163.813 319.682 163.073 322.682 161.703L323.562 161.303L324.262 161.973C325.282 162.963 326.392 163.853 327.562 164.623C331.062 166.933 334.712 168.113 338.402 168.113C342.092 168.113 345.342 167.133 348.272 165.293C350.912 163.623 353.152 161.253 354.752 158.443C355.812 156.573 356.602 154.633 357.092 152.693C357.702 150.273 357.802 147.733 357.362 145.153L357.272 144.593L357.592 144.123C357.912 143.653 358.222 143.173 358.522 142.673C359.342 141.323 360.102 139.843 360.802 138.273C361.282 137.193 361.742 136.113 362.182 135.043L362.302 134.753C363.342 132.063 364.382 129.323 365.372 126.603C366.362 123.903 367.352 121.193 368.352 118.493L371.282 110.493C372.212 107.953 373.132 105.503 374.012 103.193C375.912 98.3027 377.532 93.7027 378.822 89.5027C379.382 87.6627 379.922 85.7927 380.412 83.9427C380.982 81.7627 381.432 79.6627 381.732 77.6927C382.102 75.2527 382.252 73.0427 382.182 70.9427C381.992 65.0327 379.692 61.1227 377.792 58.8927C377.122 58.1027 376.362 57.3727 375.552 56.7327C371.602 53.6527 366.842 52.2827 362.102 52.8927C357.932 53.4127 354.112 55.4227 350.762 58.8727C348.162 61.5527 346.172 65.0727 344.482 69.9527C344.432 70.0927 344.382 70.2427 344.342 70.3827C343.942 71.6627 343.372 73.4327 342.652 75.6827C341.892 78.0327 341.052 80.6727 340.132 83.6127C339.212 86.5427 338.242 89.6727 337.222 92.9827L335.612 98.1927L334.042 97.1927C331.942 95.8627 329.692 94.8627 327.352 94.2327C323.132 93.0927 318.572 92.9927 313.902 93.9227C310.392 94.6327 306.972 95.8527 303.722 97.5727L302.772 98.0727L302.032 97.3027C301.592 96.8427 301.122 96.4027 300.632 95.9927C298.092 93.8627 295.002 92.5927 291.692 92.3127C288.372 91.9727 285.232 92.4627 282.152 93.7227L281.352 94.0527L280.642 93.5227C278.142 91.4127 275.072 89.8927 271.512 89.0027L269.742 88.5627L270.602 86.9627C271.162 85.9127 271.642 84.9827 272.052 84.1427C272.692 82.8427 273.402 81.2627 273.842 79.4227C274.622 76.1827 274.532 72.8027 273.552 69.6527C272.752 67.0727 271.432 64.7527 269.622 62.7527C268.332 61.3227 266.842 60.1127 265.202 59.1427C263.212 57.9727 261.062 57.2227 258.822 56.9127C256.212 56.5227 253.602 56.7427 251.102 57.5427C250.942 57.5927 250.792 57.6427 250.642 57.7027C248.882 58.3227 247.202 59.2427 245.632 60.4127L244.852 61.0027L244.022 60.4727C242.232 59.3427 240.382 58.3727 238.522 57.6027C235.202 56.2127 231.972 55.3527 228.902 55.0527C225.062 54.6727 221.572 55.0527 218.412 56.2027C213.532 57.9827 209.702 61.5427 207.622 66.2227C206.272 69.2627 205.772 72.6727 206.162 76.1027L206.372 77.9427L204.542 77.6627C203.342 77.4827 202.112 77.4327 200.892 77.5227L200.082 77.5827L199.622 76.9127C198.412 75.1527 196.892 73.5827 195.102 72.2327C192.212 70.0827 188.802 68.7527 185.222 68.3927C181.302 68.0027 177.372 68.8727 173.602 70.9327C171.752 71.9427 170.012 73.2227 168.262 74.8527L167.032 76.0027L166.112 74.5927C165.422 73.5427 164.642 72.5227 163.792 71.5727C161.282 68.7627 158.092 66.5127 154.302 64.8827C153.022 64.3327 151.662 63.8827 150.272 63.5427L148.642 63.1527L149.302 61.6127C149.822 60.4027 150.192 59.1627 150.392 57.9027C150.502 57.2127 150.582 56.5027 150.632 55.8127L150.692 54.8127L151.882 54.4727C152.352 54.3427 152.822 54.2027 153.312 54.0827C156.862 53.1727 160.542 52.4227 164.242 51.8727C167.962 51.3227 171.672 50.9527 175.282 50.8027C178.702 50.6527 181.852 50.7127 184.612 50.9927C189.622 51.4927 194.702 49.2227 197.792 45.1127C200.422 41.6127 201.932 37.8427 202.302 33.8927C202.642 30.2727 202.172 26.9027 200.902 23.8627C199.762 21.1227 198.092 18.6927 195.952 16.6527C194.412 15.1827 192.692 13.9127 190.832 12.8827C189.332 12.0627 187.772 11.3727 186.182 10.8427C184.452 10.2727 182.852 9.9227 181.272 9.7627C179.892 9.6227 178.362 9.6027 176.132 9.6827C174.452 9.7427 172.562 9.8727 170.362 10.0727C168.272 10.2627 165.972 10.5327 163.532 10.8627C161.072 11.2027 158.562 11.6127 156.062 12.0827C152.182 12.8427 148.282 13.9127 144.382 15.2827C140.742 16.5527 137.162 17.9727 133.722 19.4927L131.612 20.4327L130.922 19.5927C129.632 18.0227 128.102 16.6327 126.382 15.4727C123.152 13.2927 119.432 11.9827 115.332 11.5827C113.232 11.3727 111.192 11.4127 109.212 11.7027L108.522 11.8027L108.022 11.3227C107.132 10.4627 106.212 9.62271 105.282 8.83271C102.322 6.29271 99.0123 4.50271 95.4323 3.51271L95.0823 3.4227C89.7623 2.0927 84.3023 3.06271 79.9123 6.10271C77.0823 8.06271 74.7323 10.6827 72.9323 13.8627C71.5123 16.3827 70.4823 19.1227 69.8623 22.0027C69.3023 24.6127 69.0722 27.0027 69.1522 29.3227C69.1522 29.5027 69.1623 29.6727 69.1823 29.8427C69.2823 31.3327 69.4623 33.1527 69.7423 35.3927C70.0523 37.8327 70.4923 40.3227 71.0723 42.7827C71.7023 45.5027 72.5123 48.1027 73.4823 50.5127C74.1223 52.1027 74.8823 53.6227 75.7623 55.0227L76.8223 56.7227L74.8623 57.1527C74.2623 57.2827 73.6423 57.4427 72.9723 57.6427L71.8123 57.9827L71.2923 56.8927C69.1923 52.4627 65.5023 49.2227 60.8923 47.7527C59.3123 47.2527 57.6522 46.9927 55.9622 46.9927C54.0522 46.9927 52.1823 47.3027 50.2323 47.9527L49.6123 48.1527L49.0523 47.8227C47.9323 47.1527 46.7423 46.6127 45.4923 46.2227C43.9123 45.7227 42.2523 45.4627 40.5623 45.4627C36.8723 45.4627 33.1223 46.6727 29.1123 49.1727C27.1223 50.4127 25.4223 52.1327 24.1923 54.1627C23.5123 55.2827 22.7623 56.7027 21.8423 58.6227C21.2223 59.9427 20.4323 61.7027 19.5023 63.8427C18.5723 65.9827 17.4023 68.7427 16.0323 72.0527L14.6823 71.6127L15.9923 72.1527C15.0723 74.4027 14.0923 76.9127 13.0723 79.6127C12.0423 82.3227 11.0223 85.1027 10.0523 87.8627C9.05227 90.6927 8.09225 93.5627 7.21225 96.4027C6.32225 99.2627 5.5423 101.963 4.8923 104.433C4.1623 107.213 3.63229 109.653 3.26229 111.903C2.68229 115.463 2.63226 118.363 3.10226 121.053C3.68226 124.483 4.86228 127.583 6.62228 130.273C8.53228 133.193 10.9123 135.493 13.7023 137.093C16.9823 138.973 20.6922 139.823 24.4622 139.503C25.8022 139.383 27.1223 139.123 28.3823 138.713L28.9622 138.523L29.5023 138.813C32.7023 140.573 36.4123 141.343 39.9123 141.033C44.1423 140.673 48.0223 138.843 51.1323 135.753C52.0023 134.883 52.8123 133.923 53.5323 132.903L54.8023 131.093L55.9123 133.013C57.3523 135.503 59.2523 137.643 61.5523 139.383C65.8423 142.633 71.3722 144.493 78.9622 145.253C80.3522 145.393 81.8623 145.493 83.4523 145.563C84.7623 145.623 86.1623 145.673 87.6423 145.723C90.4923 145.863 93.0623 145.823 95.5623 145.603C96.6223 145.503 97.7023 145.373 98.7623 145.213C100.392 144.963 101.962 144.573 103.422 144.073C105.262 143.443 106.982 142.603 108.532 141.573C111.322 139.713 113.532 137.113 114.912 134.063L116.512 130.533L117.572 134.263C118.032 135.893 118.662 137.433 119.422 138.823C121.682 142.953 125.242 146.253 129.742 148.383C132.822 149.843 136.382 150.813 140.622 151.353C143.732 151.753 147.252 151.993 151.402 152.083C154.322 152.283 156.932 152.283 159.382 152.083C162.142 151.913 164.792 151.413 167.302 150.603C169.102 150.023 170.802 149.203 172.332 148.183L173.452 147.433L174.262 148.513C175.892 150.693 177.842 152.453 180.072 153.733C183.182 155.523 186.732 156.323 190.282 156.013C193.322 155.753 196.132 154.713 198.642 152.943L199.432 152.383L200.242 152.913C200.662 153.183 201.092 153.453 201.532 153.693C204.332 155.223 207.452 156.003 210.792 156.003C212.482 156.003 214.242 155.803 216.032 155.403L216.522 156.743L216.192 155.363C216.512 155.283 216.842 155.203 217.162 155.113L217.952 154.893L218.542 155.473C221.262 158.143 224.802 159.763 228.792 160.153C232.532 160.523 236.232 159.773 239.412 158.013C241.332 156.953 243.092 155.553 244.632 153.863L245.792 152.593L246.822 153.963C248.382 156.043 250.322 157.873 252.592 159.383C255.782 161.503 259.562 162.743 263.832 163.073C266.272 163.263 268.522 163.303 270.432 163.203C273.162 163.053 275.702 162.563 278.012 161.733C278.502 161.553 279.012 161.343 279.612 161.073L280.672 160.593L280.642 160.563Z" fill="var(--fill-0, black)"/>
</g>
</svg>
