<svg preserveAspectRatio="none" width="100%" height="100%" overflow="visible" style="display: block;" viewBox="0 0 82.3652 78.5244" fill="none" xmlns="http://www.w3.org/2000/svg">
<g id="Group">
<path id="Vector" d="M73.27 1.75441C75.7 1.32441 77.45 1.33441 78.54 1.80441C79.63 2.27441 80.33 2.87441 80.64 3.62441C81.01 4.43441 81.04 5.46441 80.73 6.70441C80.17 7.38441 79.58 8.23441 78.96 9.22441C78.46 10.0944 77.86 11.2044 77.14 12.5344C76.42 13.8744 75.66 15.4744 74.85 17.3444C74.48 18.2744 73.99 19.4244 73.4 20.7944C72.81 22.1644 72.15 23.6744 71.44 25.3144C70.72 26.9644 69.99 28.6544 69.25 30.4044C68.5 32.1444 67.76 33.8544 67.01 35.5344C65.33 39.5144 63.56 43.7144 61.69 48.1344C63.74 53.0444 64.77 57.2044 64.77 60.5944C64.77 63.9844 64.33 66.7644 63.46 68.9444C62.4 71.4944 60.91 73.5444 58.98 75.1044C57.8 76.3444 56.68 77.0144 55.62 77.1144C54.56 77.2044 53.61 76.8944 52.77 76.1844C51.93 75.4744 51.23 74.4444 50.67 73.1044C50.11 71.7644 49.71 70.2544 49.46 68.5744C49.09 65.9644 49.27 62.1744 50.02 57.1944C45.92 57.2544 42.18 58.3144 38.82 60.3644C35.46 62.4144 32.47 65.1544 29.86 68.5744C28.43 70.4444 27.11 71.7944 25.89 72.6344C24.68 73.4744 23.57 73.9844 22.58 74.1744C21.58 74.3644 20.7 74.2644 19.92 73.8944C19.14 73.5244 18.5 73.0244 18.01 72.4044C17.33 71.5944 17.08 70.3944 17.26 68.8144C17.45 67.2244 18.35 65.3444 19.97 63.1744C19.78 62.4944 19.69 61.9344 19.69 61.4944C19.69 61.3044 19.83 60.6444 20.11 59.4844C20.39 58.3344 20.76 56.8744 21.23 55.1044C21.7 53.3344 22.22 51.3544 22.82 49.1844C23.41 47.0044 23.99 44.8144 24.55 42.6044C25.11 40.3944 25.62 38.2544 26.09 36.1644C26.56 34.0844 26.94 32.2944 27.26 30.8044C28.19 26.2044 28.21 22.6544 27.31 20.1644C26.41 17.6744 24.99 16.6544 23.07 17.0844C22.14 17.3344 21.1 17.8944 19.94 18.7644C18.79 19.6344 17.64 20.6444 16.49 21.7944C15.34 22.9444 14.24 24.1744 13.18 25.4844C12.12 26.7944 11.19 28.0044 10.38 29.1244C9.57 30.2444 8.84998 31.0544 8.22998 31.5544C7.60998 32.0544 7.04999 32.3644 6.54999 32.4844C6.04999 32.6144 5.62998 32.5944 5.28998 32.4344C4.94998 32.2844 4.65002 32.1044 4.40002 31.9244C4.15002 31.7344 3.98999 31.5644 3.92999 31.4144C3.86999 31.2644 3.79001 31.0544 3.70001 30.8044C3.61001 30.5544 3.48002 30.3044 3.33002 30.0544C3.17002 29.8044 2.88 29.4944 2.44 29.1244C2 28.7544 1.71998 28.3144 1.59998 27.8144C1.46998 27.3144 1.40997 26.8244 1.40997 26.3244C1.40997 25.7644 1.46998 25.2044 1.59998 24.6444C3.02998 21.5944 4.71001 18.7644 6.64001 16.1544C8.26001 13.9144 10.25 11.7344 12.61 9.62441C14.97 7.51441 17.71 6.04441 20.82 5.23441C23.93 4.42441 26.54 4.27441 28.66 4.76441C30.77 5.26441 32.49 5.97441 33.79 6.91441C35.34 7.97441 36.62 9.31441 37.62 10.9244C38.49 13.6044 38.91 16.3644 38.88 19.2244C38.85 22.0844 38.55 25.0544 37.99 28.1344C37.43 31.2144 36.65 34.4044 35.66 37.6944C34.66 40.9944 33.61 44.4744 32.49 48.1444C32.12 49.3844 31.76 50.5044 31.42 51.5044C31.08 52.5044 30.72 53.4344 30.35 54.3044C32.53 52.9944 34.69 51.9744 36.83 51.2244C38.98 50.4744 41.01 49.9044 42.94 49.4944C44.87 49.0944 46.59 48.8144 48.12 48.6544C49.64 48.5044 50.87 48.4244 51.81 48.4244C52.62 45.0644 53.58 41.5344 54.7 37.8344C55.82 34.1344 57.16 30.2944 58.71 26.3144C60.58 21.5244 62.38 17.5544 64.12 14.4144C65.86 11.2744 67.42 8.77441 68.78 6.90441C70.33 4.72441 71.83 3.01441 73.26 1.77441L73.27 1.75441Z" fill="var(--fill-0, white)"/>
<path id="Vector_2" d="M55.27 78.5244C54.02 78.5244 52.88 78.0944 51.87 77.2344C50.87 76.3844 50.03 75.1644 49.38 73.6244C48.78 72.1744 48.34 70.5444 48.07 68.7544C47.72 66.2944 47.82 62.9844 48.39 58.6644C45.2 58.9444 42.24 59.9144 39.58 61.5444C36.39 63.4944 33.5 66.1344 31.01 69.4044C29.47 71.4144 28.07 72.8344 26.72 73.7644C25.33 74.7244 24.07 75.3044 22.86 75.5344C21.57 75.7744 20.38 75.6444 19.33 75.1344C18.36 74.6744 17.55 74.0344 16.92 73.2444C16 72.1644 15.64 70.5944 15.87 68.6044C16.07 66.8944 16.92 64.9944 18.45 62.8244C18.34 62.3044 18.28 61.8444 18.28 61.4444C18.28 61.2044 18.31 60.8544 18.74 59.1044C19.02 57.9444 19.4 56.4744 19.87 54.6944C20.34 52.9144 20.87 50.9444 21.46 48.7544C22.05 46.5844 22.62 44.4044 23.18 42.2044C23.73 40.0144 24.25 37.8644 24.71 35.8044C25.17 33.7344 25.56 31.9444 25.87 30.4644C26.74 26.1544 26.78 22.8344 25.97 20.6044C25.04 18.0444 23.91 18.3044 23.37 18.4244C22.67 18.6144 21.79 19.0944 20.79 19.8544C19.7 20.6844 18.58 21.6644 17.49 22.7544C16.38 23.8644 15.3 25.0644 14.28 26.3244C13.25 27.5944 12.33 28.7944 11.53 29.9044C10.64 31.1444 9.85 32.0244 9.12 32.6044C8.33 33.2344 7.60001 33.6344 6.89001 33.8044C6.08001 34.0044 5.34001 33.9644 4.70001 33.6744C4.27001 33.4844 3.87999 33.2544 3.54999 33.0044C3.08999 32.6544 2.78 32.2944 2.62 31.8844C2.56 31.7244 2.47 31.5044 2.38 31.2444C2.32 31.0944 2.24 30.9244 2.13 30.7544C2.13 30.7444 2.00002 30.5544 1.52002 30.1444C0.86002 29.5844 0.42998 28.8944 0.22998 28.1044C0.0799805 27.5044 0 26.8844 0 26.2644C0 25.5944 0.0699707 24.9244 0.219971 24.2744L0.320007 23.9844C1.78001 20.8644 3.53 17.9344 5.5 15.2544C7.16 12.9544 9.23998 10.6844 11.67 8.50441C14.19 6.24441 17.15 4.66441 20.47 3.80441C23.79 2.94441 26.66 2.78441 28.99 3.33441C31.28 3.87441 33.17 4.67441 34.62 5.70441C36.31 6.85441 37.73 8.34441 38.83 10.1244L38.97 10.4344C39.88 13.2444 40.33 16.1844 40.3 19.1944C40.27 22.1344 39.96 25.2144 39.39 28.3444C38.82 31.4544 38.03 34.7244 37.02 38.0644C36.02 41.3644 34.97 44.8444 33.85 48.5144C33.56 49.4744 33.27 50.3844 33 51.2244C34.13 50.6844 35.26 50.2244 36.37 49.8344C38.55 49.0744 40.66 48.4744 42.65 48.0644C44.61 47.6544 46.4 47.3644 47.97 47.2044C49.01 47.0944 49.91 47.0244 50.68 46.9944C51.44 43.9444 52.33 40.7144 53.34 37.3844C54.47 33.6544 55.83 29.7344 57.39 25.7544C59.27 20.9244 61.12 16.8644 62.88 13.6844C64.64 10.5044 66.24 7.93441 67.64 6.02441C69.24 3.78441 70.82 1.97441 72.33 0.664407L72.63 0.404412L73.02 0.334412C75.75 -0.155588 77.74 -0.105588 79.1 0.474412C80.53 1.09441 81.49 1.95441 81.95 3.05441C82.44 4.11441 82.5 5.46441 82.11 7.02441L82.03 7.33441L81.83 7.58441C81.3 8.22441 80.74 9.02441 80.16 9.95441C79.7 10.7744 79.1 11.8644 78.39 13.1844C77.69 14.4944 76.94 16.0744 76.16 17.8844C75.8 18.7944 75.31 19.9544 74.71 21.3344L72.75 25.8644C72.03 27.5144 71.3 29.2044 70.56 30.9444C69.81 32.6944 69.06 34.4044 68.31 36.0944L63.23 48.1244C65.2 52.9544 66.19 57.1444 66.19 60.5744C66.19 64.0044 65.72 67.1144 64.78 69.4544C63.64 72.1944 62.02 74.4444 59.95 76.1344C58.53 77.6044 57.16 78.3844 55.75 78.5044C55.58 78.5144 55.42 78.5244 55.26 78.5244H55.27ZM51.69 55.7344L51.44 57.3844C50.72 62.2044 50.53 65.8944 50.88 68.3544C51.11 69.8944 51.48 71.3044 52 72.5344C52.47 73.6544 53.05 74.5144 53.71 75.0844C54.26 75.5544 54.83 75.7444 55.51 75.6844C56.2 75.6244 57.05 75.0844 57.97 74.1144L58.11 73.9844C59.84 72.5844 61.21 70.7044 62.17 68.3844C62.96 66.4044 63.37 63.7644 63.37 60.5744C63.37 57.3844 62.37 53.3844 60.4 48.6644L60.17 48.1144L65.72 34.9744C66.48 33.2744 67.22 31.5744 67.96 29.8344C68.71 28.0944 69.44 26.3944 70.15 24.7444L72.11 20.2244C72.69 18.8744 73.17 17.7344 73.54 16.8044C74.37 14.8944 75.15 13.2444 75.89 11.8544C76.61 10.5044 77.23 9.38441 77.73 8.50441C78.32 7.55441 78.89 6.73441 79.42 6.05441C79.58 5.27441 79.56 4.65441 79.35 4.20441C79.13 3.67441 78.48 3.31441 77.98 3.09441C77.54 2.90441 76.44 2.66441 73.91 3.07441C72.65 4.22441 71.32 5.77441 69.95 7.70441C68.61 9.53441 67.07 12.0044 65.37 15.0744C63.67 18.1344 61.88 22.0844 60.04 26.7944C58.51 30.7144 57.17 34.5544 56.06 38.2144C54.95 41.8844 53.98 45.4144 53.19 48.7244L52.93 49.8144H51.81C50.94 49.8144 49.75 49.8944 48.27 50.0444C46.8 50.1944 45.1 50.4744 43.24 50.8644C41.37 51.2544 39.37 51.8244 37.3 52.5444C35.26 53.2544 33.16 54.2444 31.08 55.5044L27.32 57.7544L29.05 53.7244C29.41 52.8944 29.76 51.9844 30.09 51.0244C30.43 50.0344 30.78 48.9244 31.14 47.7244C32.26 44.0444 33.32 40.5644 34.31 37.2744C35.29 34.0344 36.06 30.8744 36.6 27.8644C37.14 24.8844 37.43 21.9644 37.46 19.1944C37.49 16.5544 37.11 13.9744 36.32 11.5044C35.45 10.1344 34.33 8.97441 32.99 8.06441C31.82 7.22441 30.26 6.58441 28.33 6.12441C26.45 5.68441 24.05 5.83441 21.17 6.58441C18.29 7.33441 15.73 8.70441 13.55 10.6544C11.27 12.6944 9.32997 14.8144 7.77997 16.9544C5.93997 19.4544 4.31 22.1744 2.94 25.0744C2.86 25.4744 2.82001 25.8844 2.82001 26.2944C2.82001 26.6744 2.87002 27.0644 2.96002 27.4444C2.99002 27.5844 3.06998 27.7844 3.34998 28.0144C3.90998 28.4944 4.28002 28.8944 4.52002 29.2744C4.73002 29.6044 4.89002 29.9444 5.02002 30.2744C5.08002 30.4444 5.14 30.5944 5.19 30.7144C5.21 30.7244 5.21999 30.7444 5.23999 30.7544C5.40999 30.8844 5.61999 31.0044 5.85999 31.1144C5.87999 31.1144 5.99 31.1244 6.19 31.0744C6.36 31.0344 6.73002 30.8944 7.33002 30.4144C7.69002 30.1244 8.30002 29.5244 9.21002 28.2644C10.04 27.1144 11 25.8644 12.06 24.5644C13.14 23.2244 14.29 21.9544 15.47 20.7744C16.66 19.5844 17.87 18.5244 19.07 17.6144C20.38 16.6244 21.57 15.9944 22.69 15.6944C24.28 15.3344 27.08 15.3944 28.63 19.6544C29.63 22.4244 29.64 26.1544 28.64 31.0544C28.33 32.5644 27.94 34.3544 27.47 36.4444C27 38.5244 26.48 40.7044 25.92 42.9244C25.36 45.1444 24.78 47.3444 24.19 49.5244C23.6 51.6944 23.07 53.6644 22.61 55.4344C22.15 57.1944 21.78 58.6544 21.5 59.7944C21.17 61.1744 21.12 61.4844 21.12 61.5344C21.12 61.6744 21.16 62.0744 21.35 62.7744L21.53 63.4444L21.12 63.9944C19.66 65.9644 18.84 67.6344 18.68 68.9544C18.54 70.1344 18.68 70.9744 19.1 71.4644C19.49 71.9544 19.96 72.3144 20.54 72.5944C21.04 72.8344 21.63 72.8944 22.33 72.7544C23.12 72.6044 24.05 72.1644 25.1 71.4444C26.18 70.6944 27.41 69.4344 28.75 67.6844C31.46 64.1444 34.6 61.2644 38.09 59.1244C41.65 56.9444 45.66 55.8144 50 55.7444L51.67 55.7144L51.69 55.7344Z" fill="var(--fill-0, #353535)"/>
</g>
</svg>
