<svg preserveAspectRatio="none" width="100%" height="100%" overflow="visible" style="display: block;" viewBox="0 0 41.658 65.8605" fill="none" xmlns="http://www.w3.org/2000/svg">
<g id="Group">
<path id="Vector" d="M24.1942 10.8605C20.9442 19.0005 18.3042 25.7705 16.2942 31.1805C14.2742 36.5905 12.7042 41.0005 11.5742 44.4005C10.4442 47.8005 9.6642 50.3605 9.2442 52.0705C8.8242 53.7805 8.5942 55.0605 8.5642 55.9005C8.4842 56.7305 8.55422 57.4305 8.76422 58.0005C8.97422 58.5705 9.14422 59.1005 9.26422 59.6105C9.38422 60.1205 9.39419 60.6105 9.30419 61.1005C9.21419 61.5905 8.84423 62.1405 8.21423 62.7705C7.58423 63.4005 6.8642 63.7505 6.0642 63.8205C5.2642 63.8905 4.50423 63.7105 3.77423 63.3005C3.04423 62.8805 2.38419 62.2205 1.80419 61.3205C1.21419 60.4205 0.814182 59.3205 0.604182 58.0105C0.444182 57.1505 0.504174 55.8605 0.784174 54.1305C1.06417 52.4005 1.50423 50.4105 2.09423 48.1405C2.68423 45.8705 3.39418 43.4205 4.22418 40.7805C5.04418 38.1405 5.9342 35.4805 6.8742 32.8105C7.8142 30.1305 8.78423 27.5005 9.77423 24.9005C10.7642 22.3005 11.6842 19.9305 12.5642 17.7905C13.9242 14.5105 15.0442 11.8505 15.9342 9.81051C16.8142 7.77051 17.5342 6.18051 18.0642 5.05051C18.7142 3.68051 19.2442 2.67051 19.6442 2.02051C21.6342 0.780514 23.0742 0.310501 23.9842 0.600501C24.8942 0.890501 25.4342 1.59051 25.6242 2.69051C25.8042 3.80051 25.7442 5.1305 25.4342 6.6805C25.1242 8.2305 24.7142 9.63051 24.2142 10.8605H24.1942ZM35.0242 3.55051C37.0142 2.31051 38.4542 1.8405 39.3642 2.1305C40.2742 2.4205 40.8342 3.12051 41.0342 4.23051C41.2442 5.34051 41.1942 6.67051 40.8742 8.22051C40.5642 9.77051 40.1542 11.1705 39.6542 12.4005C36.4042 20.5405 33.7542 27.3105 31.7142 32.7205C29.6742 38.1305 28.0842 42.5405 26.9542 45.9405C25.8242 49.3405 25.0442 51.9005 24.6242 53.6105C24.2042 55.3205 23.9742 56.6005 23.9442 57.4405C23.9142 58.2805 24.0042 58.9805 24.2142 59.5405C24.4242 60.1105 24.5942 60.6405 24.7142 61.1505C24.8342 61.6605 24.8442 62.1505 24.7542 62.6405C24.6642 63.1305 24.2942 63.6805 23.6642 64.3105C23.0342 64.9405 22.3142 65.2905 21.5142 65.3605C20.7142 65.4305 19.9542 65.2505 19.2242 64.8405C18.4942 64.4205 17.8342 63.7605 17.2542 62.8605C16.6642 61.9605 16.2642 60.8605 16.0542 59.5505C15.8942 58.6905 15.9542 57.4005 16.2342 55.6705C16.5142 53.9405 16.9442 51.9405 17.5142 49.6805C18.0842 47.4105 18.7842 44.9605 19.6042 42.3205C20.4242 39.6805 21.3042 37.0205 22.2542 34.3505C23.1942 31.6705 24.1542 29.0405 25.1142 26.4405C26.0742 23.8405 27.0142 21.4705 27.9342 19.3405C29.2942 16.0605 30.4342 13.4105 31.3442 11.3705C32.2542 9.33051 32.9742 7.75051 33.5142 6.61051C34.1642 5.24051 34.6742 4.2305 35.0242 3.5705V3.55051Z" fill="var(--fill-0, #FF6602)"/>
<path id="Vector_2" d="M21.1742 65.8605C20.4142 65.8605 19.6742 65.6605 18.9742 65.2605C18.1742 64.8005 17.4542 64.0805 16.8342 63.1205C16.2142 62.1705 15.7842 60.9905 15.5542 59.6205C15.3842 58.7105 15.4442 57.3905 15.7342 55.5805C16.0142 53.8505 16.4442 51.8205 17.0242 49.5405C17.5942 47.2805 18.3042 44.7905 19.1242 42.1505C19.9442 39.5105 20.8342 36.8305 21.7842 34.1605C22.7342 31.4805 23.6842 28.8405 24.6442 26.2405C25.6142 23.6305 26.5642 21.2305 27.4742 19.1105C28.8142 15.8805 29.9642 13.1905 30.8842 11.1305C31.7942 9.0905 32.5242 7.50051 33.0642 6.36051C33.7142 5.00051 34.2242 3.97051 34.5842 3.30051L34.6442 3.1805L34.7542 3.11051C36.8942 1.78051 38.4442 1.3005 39.5142 1.6305C40.6042 1.9805 41.2842 2.81051 41.5242 4.11051C41.7442 5.28051 41.6942 6.6805 41.3642 8.2905C41.0442 9.8705 40.6242 11.3005 40.1242 12.5605C36.8742 20.7005 34.2042 27.5305 32.1842 32.8705C30.1542 38.2405 28.5642 42.6805 27.4342 46.0705C26.3042 49.4505 25.5242 52.0205 25.1142 53.7005C24.7042 55.3705 24.4742 56.6305 24.4442 57.4205C24.4142 58.1905 24.4942 58.8305 24.6842 59.3305C24.9042 59.9205 25.0742 60.4805 25.2042 61.0005C25.3442 61.5705 25.3542 62.1505 25.2542 62.7005C25.1342 63.2905 24.7342 63.9305 24.0242 64.6305C23.3042 65.3405 22.4842 65.7405 21.5642 65.8205C21.4342 65.8305 21.3142 65.8405 21.1842 65.8405L21.1742 65.8605ZM35.3942 3.9005C35.0442 4.5605 34.5642 5.54051 33.9642 6.80051C33.4242 7.93051 32.7042 9.5105 31.7942 11.5405C30.8742 13.5905 29.7342 16.2705 28.3942 19.5005C27.4842 21.6105 26.5442 23.9905 25.5842 26.5805C24.6242 29.1805 23.6742 31.8105 22.7242 34.4905C21.7842 37.1405 20.8942 39.8205 20.0842 42.4405C19.2642 45.0605 18.5642 47.5305 18.0042 49.7705C17.4342 52.0205 17.0042 54.0205 16.7342 55.7205C16.4642 57.3905 16.4042 58.6305 16.5442 59.4205C16.7442 60.6605 17.1242 61.7105 17.6742 62.5505C18.2142 63.3805 18.8242 63.9905 19.4742 64.3705C20.1142 64.7405 20.7742 64.8905 21.4742 64.8305C22.1542 64.7705 22.7642 64.4805 23.3142 63.9305C24.0042 63.2405 24.2142 62.7805 24.2642 62.5205C24.3442 62.1105 24.3342 61.6805 24.2242 61.2405C24.1142 60.7605 23.9442 60.2405 23.7442 59.6905C23.5142 59.0705 23.4142 58.2905 23.4442 57.3905C23.4742 56.5105 23.7042 55.2205 24.1442 53.4605C24.5642 51.7505 25.3542 49.1605 26.4942 45.7505C27.6242 42.3505 29.2342 37.9005 31.2642 32.5205C33.2742 27.1705 35.9542 20.3305 39.2042 12.1905C39.6942 10.9905 40.0942 9.6105 40.3942 8.0905C40.6942 6.6105 40.7442 5.3305 40.5542 4.2905C40.3842 3.3705 39.9442 2.81051 39.2242 2.58051C38.7142 2.42051 37.6342 2.5205 35.4142 3.8805L35.3942 3.9005ZM5.71424 64.3205C4.95424 64.3205 4.21422 64.1205 3.51422 63.7105C2.72422 63.2505 1.99421 62.5305 1.37421 61.5705C0.75421 60.6105 0.324241 59.4305 0.0942414 58.0705C-0.0757586 57.1605 -0.0157659 55.8405 0.274234 54.0305C0.554234 52.3005 1.00424 50.2705 1.59424 47.9905C2.18424 45.7305 2.90419 43.2505 3.72419 40.6105C4.55419 37.9605 5.44422 35.2705 6.38422 32.6205C7.31422 29.9805 8.29418 27.3105 9.28418 24.7005C10.2642 22.1105 11.2042 19.7205 12.0742 17.5805C13.4142 14.3605 14.5442 11.6705 15.4542 9.5905C16.3242 7.5905 17.0442 5.9805 17.5942 4.8205C18.2642 3.4105 18.7942 2.4105 19.1942 1.7405L19.2542 1.64051L19.3542 1.58051C21.4842 0.250507 23.0442 -0.229503 24.1142 0.100497C24.8642 0.340497 25.8242 0.960502 26.0942 2.5905C26.2842 3.7505 26.2242 5.1605 25.8942 6.7605C25.5742 8.3405 25.1542 9.7805 24.6542 11.0305C21.4242 19.1005 18.7742 25.9305 16.7542 31.3405C14.7442 36.7305 13.1542 41.1805 12.0342 44.5405C10.9042 47.9205 10.1242 50.4905 9.71424 52.1705C9.30424 53.8405 9.07419 55.0905 9.04419 55.8905C8.97419 56.6705 9.03424 57.3105 9.21424 57.7905C9.43424 58.3705 9.60418 58.9305 9.72418 59.4605C9.86418 60.0405 9.87423 60.6105 9.77423 61.1605C9.66423 61.7505 9.25419 62.3805 8.54419 63.0905C7.82419 63.8005 7.00423 64.2005 6.08423 64.2805C5.95423 64.2905 5.83423 64.3005 5.70423 64.3005L5.71424 64.3205ZM19.9942 2.3805C19.6142 3.0105 19.1142 3.98051 18.5042 5.27051C17.9542 6.42051 17.2442 8.0205 16.3742 10.0105C15.4742 12.0805 14.3442 14.7605 13.0042 17.9805C12.1342 20.1105 11.2042 22.4905 10.2242 25.0705C9.23418 27.6805 8.26423 30.3405 7.33423 32.9705C6.40423 35.6105 5.51421 38.2905 4.68421 40.9205C3.86421 43.5405 3.15421 46.0105 2.56421 48.2505C1.97421 50.4905 1.53422 52.4905 1.26422 54.1905C0.994224 55.8505 0.934232 57.1005 1.08423 57.8905C1.28423 59.1305 1.66424 60.1805 2.21424 61.0205C2.75424 61.8505 3.36422 62.4605 4.01422 62.8405C4.64422 63.2005 5.31422 63.3605 6.01422 63.3005C6.69422 63.2405 7.30419 62.9405 7.85419 62.4005C8.54419 61.7105 8.7542 61.2505 8.8042 60.9905C8.8842 60.5805 8.87422 60.1505 8.76422 59.7105C8.64422 59.2305 8.48418 58.7105 8.28418 58.1605C8.04418 57.5305 7.9742 56.7505 8.0542 55.8405C8.0842 54.9905 8.3142 53.7005 8.7442 51.9405C9.1642 50.2305 9.95424 47.6405 11.0942 44.2305C12.2142 40.8505 13.8142 36.4005 15.8242 30.9905C17.8442 25.5705 20.5042 18.7305 23.7342 10.6605C24.2142 9.46051 24.6142 8.0805 24.9242 6.5605C25.2242 5.0805 25.2842 3.80051 25.1142 2.75051C24.9642 1.82051 24.5442 1.28051 23.8142 1.05051C23.2942 0.890509 22.2242 0.990506 19.9942 2.36051V2.3805Z" fill="var(--fill-0, black)"/>
</g>
</svg>
