<svg preserveAspectRatio="none" width="100%" height="100%" overflow="visible" style="display: block;" viewBox="0 0 17.4611 32.1705" fill="none" xmlns="http://www.w3.org/2000/svg">
<g id="Group">
<path id="Vector" d="M10.12 1.61054C11.33 1.32054 12.39 1.35053 13.31 1.70053C14.11 2.04053 14.8 2.72054 15.38 3.73054C15.95 4.74054 16.16 6.42054 15.98 8.77054C15.81 11.0705 15.32 13.4305 14.51 15.8405C13.7 18.2505 12.74 20.4805 11.62 22.5205C10.5 24.5605 9.31001 26.3005 8.04001 27.7405C6.78001 29.1805 5.60001 30.1005 4.51001 30.5005C3.99001 30.6705 3.56 30.7605 3.22 30.7605C2.53 30.7605 2.05999 30.5005 1.79999 29.9805C1.53999 29.4605 1.41 28.8205 1.41 28.0405C1.41 27.2605 1.50001 26.4605 1.67001 25.6305C1.84001 24.8005 2.03999 24.0405 2.26999 23.3505C2.49999 22.6005 2.82 21.6005 3.22 20.3305C3.62 19.0705 4.01 17.7005 4.38 16.2305C4.75 14.7705 5.06999 13.2605 5.32999 11.7105C5.58999 10.1605 5.69 8.72053 5.63 7.40053C5.57 6.08053 5.77001 5.04053 6.23001 4.30053C6.69001 3.55053 7.21 2.98053 7.78 2.58053C8.47 2.12053 9.25002 1.80053 10.11 1.63053L10.12 1.61054Z" fill="var(--fill-0, white)"/>
<path id="Vector_2" d="M3.23001 32.1705C2.00001 32.1705 1.04001 31.6205 0.540009 30.6105C0.180009 29.8905 0 29.0305 0 28.0405C0 27.1705 0.100009 26.2705 0.290009 25.3405C0.470009 24.4605 0.690002 23.6405 0.940002 22.9005C1.16 22.1805 1.48 21.1705 1.88 19.9005C2.27 18.6705 2.64999 17.3205 3.01999 15.8805C3.37999 14.4705 3.69 12.9905 3.94 11.4705C4.18 10.0205 4.28 8.67053 4.22 7.45053C4.15 5.82053 4.42 4.55053 5.03 3.54053C5.59 2.63053 6.25001 1.91053 6.98001 1.40053C7.84001 0.83053 8.79001 0.440532 9.82001 0.230532C11.29 -0.119468 12.64 -0.0694685 13.81 0.370531C14.96 0.860532 15.88 1.75053 16.61 3.02053C17.34 4.29053 17.59 6.20053 17.4 8.87053C17.22 11.2705 16.7 13.7705 15.87 16.2805C15.04 18.7705 14.03 21.1005 12.88 23.2005C11.71 25.3205 10.45 27.1605 9.12 28.6705C7.68 30.3005 6.34001 31.3305 5.01001 31.8205C4.30001 32.0605 3.73001 32.1705 3.23001 32.1705ZM3.07001 29.3205C3.07001 29.3205 3.14001 29.3205 3.23001 29.3205C3.32001 29.3205 3.56999 29.3005 4.07999 29.1305C4.89999 28.8305 5.9 28.0305 7 26.7805C8.19 25.4305 9.32999 23.7605 10.4 21.8205C11.47 19.8705 12.41 17.7105 13.19 15.3705C13.95 13.0805 14.42 10.8105 14.59 8.64053C14.79 5.94053 14.41 4.83053 14.17 4.41053C13.75 3.68053 13.29 3.20053 12.77 2.98053C12.19 2.76053 11.39 2.75053 10.47 2.98053H10.42C9.74001 3.13053 9.13001 3.37053 8.60001 3.73053C8.21001 4.00053 7.82 4.44053 7.47 5.02053C7.17 5.51053 7.02999 6.31053 7.07999 7.32053C7.13999 8.73053 7.03001 10.2805 6.76001 11.9205C6.49001 13.5205 6.17001 15.0805 5.79001 16.5605C5.41001 18.0505 5.01001 19.4605 4.60001 20.7305C4.20001 21.9905 3.88 22.9905 3.66 23.7305C3.44 24.4005 3.25 25.1105 3.09 25.8805C2.94 26.6205 2.86002 27.3305 2.86002 28.0105C2.86002 28.5505 2.94 28.9805 3.09 29.3005L3.07001 29.3205Z" fill="var(--fill-0, #353535)"/>
</g>
</svg>
