<svg preserveAspectRatio="none" width="100%" height="100%" overflow="visible" style="display: block;" viewBox="0 0 708 229.112" fill="none" xmlns="http://www.w3.org/2000/svg">
<g id="&#224;&#184;&#129;&#224;&#184;&#148;&#224;&#184;&#148;&#224;&#184;&#177;&#224;&#184;&#153;&#224;&#185;&#131;&#224;&#184;&#171;&#224;&#184;&#141;&#224;&#185;&#136;">
<path id="Vector" d="M29.5468 86.0797C26.2832 86.9955 22.568 87.4471 18.395 87.4471H17.5114C17.0534 87.4471 16.4987 87.3825 15.8537 87.2535L17.2211 90.7752C17.7371 90.6462 18.1692 90.5172 18.4917 90.3817C18.8142 90.2527 19.1109 90.1237 19.3754 89.9883C16.1117 91.4266 13.3383 92.794 11.0551 94.0969C8.7718 95.3997 6.97875 96.6381 5.67588 97.8119C5.67588 97.9409 5.64363 98.0055 5.57914 98.0055C5.50819 98.0055 5.47594 98.0764 5.47594 98.199L8.80406 101.134C9.71349 101.398 10.6616 101.688 11.642 102.017C12.6159 102.346 13.564 102.636 14.4799 102.894C16.1698 103.288 17.808 103.675 19.3689 104.068C20.9362 104.462 22.1746 104.791 23.084 105.049H22.8905C23.8 105.442 24.6836 105.803 25.535 106.126C26.3799 106.455 27.2635 106.809 28.173 107.203C29.0824 107.596 30.2305 107.958 31.5978 108.28C32.9652 108.609 35.0162 108.899 37.7574 109.164C36.977 109.686 36.0289 110.434 34.9195 111.415C33.8101 112.395 32.6685 113.337 31.4946 114.253C30.3208 115.169 29.2114 116.078 28.1665 116.994C27.1216 117.91 26.3412 118.626 25.8187 119.148L24.0579 120.515C23.7935 121.689 23.5678 122.799 23.3743 123.844C23.1808 124.888 23.0131 125.998 22.8841 127.172L21.5103 126.978C21.6392 128.281 21.6715 129.261 21.6135 129.913C21.5425 130.564 21.5103 131.151 21.5103 131.674V132.067C21.3813 133.241 22.3616 138.981 24.4449 149.282L13.6866 186.646L9.97148 186.059L14.8605 139.891C14.8605 135.46 16.3568 130.371 19.3625 124.63C21.3168 117.194 25.6833 112.827 32.4686 111.524C30.7722 109.699 28.9792 108.267 27.0894 107.222C25.1996 106.177 23.1421 105.397 20.9298 104.875C19.4915 104.481 17.8983 104.062 16.1375 103.604C14.3767 103.146 12.5514 102.662 10.6616 102.133C8.77179 101.611 6.9078 101.095 5.08894 100.566C3.25718 100.044 1.56731 99.5212 0 98.9987C3.13463 95.9996 5.96612 93.5551 8.51381 91.6653C11.055 89.7755 13.435 88.3113 15.6538 87.2665C14.8734 87.2665 14.022 87.2342 13.1126 87.1697C12.1967 87.1052 11.3195 87.0407 10.4746 86.9762C9.62319 86.9117 8.87499 86.8472 8.22356 86.7827C7.57212 86.7182 7.1142 86.686 6.84976 86.686C21.4587 79.3847 34.8937 75.7341 47.1549 75.7341C48.5867 75.7341 50.0895 75.7664 51.6504 75.8309C53.2177 75.8954 54.7141 75.9986 56.1459 76.1211C59.1451 76.9015 61.8863 77.5594 64.363 78.0754C66.8398 78.5979 69.123 78.9913 71.2128 79.2493L70.4324 82.9644C69.1295 82.571 67.7879 82.2485 66.4206 81.984C65.0532 81.726 63.6471 81.5261 62.2153 81.3971C59.9965 81.5261 57.4875 81.6615 54.6818 81.7905C51.8761 81.9195 49.0382 82.055 46.168 82.184C43.1689 82.313 40.3309 82.6741 37.6607 83.2611C34.984 83.848 32.4105 84.7252 29.9338 85.8991L29.5468 86.0926V86.0797ZM14.8734 217.347C15.2604 217.611 15.5571 217.869 15.757 218.127C15.9505 218.392 16.1762 218.714 16.4407 219.108L9.20395 217.934L16.2472 195.437L19.7688 196.611L14.8798 217.347H14.8734ZM21.9166 220.088C21.5232 220.482 21.1039 220.869 20.646 221.262C20.188 221.656 19.7623 222.043 19.3754 222.436C18.7239 221.785 18.1692 221.198 17.7113 220.675C17.2534 220.153 16.8277 219.63 16.4407 219.108L21.9166 220.088ZM19.7623 89.8012C19.7623 89.9302 19.6914 89.9947 19.5689 89.9947H19.3754C19.5043 89.9947 19.6333 89.9302 19.7623 89.8012ZM47.7353 146.921C47.9998 145.489 48.2578 144.18 48.5222 143.006C48.7802 141.832 49.0382 140.787 49.3026 139.878C51.257 143.142 55.301 147.444 61.4348 152.79L46.9614 224.197L21.9166 220.088C23.7419 218.521 25.5027 216.992 27.199 215.489C28.8953 213.993 30.6497 212.394 32.4814 210.697C35.0872 200.003 37.6671 189.374 40.2084 178.809C42.7496 168.244 45.2586 157.55 47.7353 146.728V146.921ZM60.8479 120.122C61.7573 119.6 62.9312 119.019 64.3695 118.361C65.8014 117.71 67.4332 116.929 69.2585 116.013C69.5229 116.278 69.7809 116.536 70.0454 116.794C70.3034 117.058 70.6259 117.316 71.0193 117.574C68.2846 118.097 65.8659 119.238 63.7826 120.999C61.6928 122.76 59.3451 125.011 56.7393 127.746C55.172 129.442 53.8692 131.009 52.8243 132.441C51.7794 133.88 50.999 135.247 50.4765 136.55C49.9541 137.595 49.5606 138.704 49.3026 139.878C48.1288 137.795 47.7353 136.098 48.1288 134.789C49.0382 133.093 50.0508 131.396 51.1602 129.706C52.2631 128.01 53.3403 126.578 54.3851 125.404C55.43 124.231 56.5394 123.186 57.7133 122.276C58.8871 121.367 59.932 120.644 60.8414 120.122H60.8479ZM68.2846 98.0119C67.4977 98.1409 66.7172 98.3086 65.9368 98.5021C65.1564 98.6956 64.305 98.9278 63.3956 99.1858C61.8283 99.5792 60.3899 99.9404 59.0871 100.263C57.7842 100.592 56.6748 100.882 55.7654 101.147C54.8495 100.624 53.9337 100.14 53.0242 99.676C52.1083 99.218 51.1989 98.7343 50.2895 98.2118C51.3279 97.9538 52.405 97.7539 53.5144 97.6249C54.6238 97.4959 55.7654 97.4314 56.9393 97.4314C58.2421 97.4314 59.5773 97.4959 60.9511 97.6249C62.3184 97.7539 63.789 98.0184 65.3499 98.4054C65.8723 98.2764 66.3561 98.2118 66.814 98.2118C67.2719 98.2118 67.7621 98.1473 68.2846 98.0183V98.0119ZM54.3916 101.34H55.0753C55.2688 101.34 55.501 101.276 55.759 101.147C58.6227 102.843 61.4348 104.829 64.1696 107.113C66.9107 109.396 69.5165 111.976 71.9932 114.84C71.4708 115.104 71.0129 115.33 70.6194 115.523C70.2324 115.717 69.7745 115.884 69.252 116.013L69.0585 115.82V113.666C67.1042 110.802 64.95 108.777 62.6023 107.603C60.2545 106.429 57.5133 105.52 54.3851 104.862V101.34H54.3916ZM68.2846 98.0119C70.1099 97.7539 71.8062 97.6894 73.367 97.8184C72.4512 97.8184 71.574 97.8507 70.729 97.9152C69.8777 97.9797 69.065 98.0119 68.2846 98.0119ZM72.3867 118.755C72.1222 118.626 71.8965 118.458 71.703 118.264C71.5095 118.071 71.2773 117.839 71.0193 117.581C72.0577 117.323 73.4315 117.187 75.1278 117.187L73.754 120.515C73.4896 120.257 73.2961 120.025 73.1735 119.832C73.0381 119.638 72.7801 119.277 72.3867 118.755ZM87.4535 84.7123C86.1507 84.0609 84.4543 83.732 82.3646 83.732C80.4103 83.732 78.0625 84.0609 75.3213 84.7123L75.1278 82.5581C74.8634 82.4291 74.6377 82.3646 74.4442 82.3646C74.2507 82.3646 74.0185 82.3001 73.7605 82.1711C73.3735 82.0421 72.98 81.9776 72.5866 81.9776H71.4127L71.2192 78.0625C71.7352 78.0625 72.2254 78.0948 72.6834 78.1593C73.1413 78.2302 73.625 78.327 74.1475 78.4495C74.6699 78.5785 75.2246 78.714 75.8115 78.843C76.3985 78.972 77.0177 79.1719 77.6691 79.4299L77.0822 80.9972H92.4392C93.8066 80.9972 94.9482 80.9327 95.8641 80.8037C99.5147 82.371 102.933 83.9319 106.132 85.4992C109.325 87.0665 112.421 88.6274 115.427 90.1947V90.3882L116.013 90.5817V90.7752C116.271 90.9042 116.536 91.2331 116.794 91.7556C118.097 92.278 119.367 93.0262 120.606 94.0066C121.844 94.9869 122.986 96.0576 124.031 97.2315L123.444 97.425C126.443 99.3793 128.726 101.276 130.293 103.101C131.203 105.191 131.887 107.177 132.344 109.067C132.802 110.957 133.028 112.821 133.028 114.646C133.028 116.471 132.835 118.168 132.441 119.729L137.137 157.093L133.222 157.486C132.957 153.055 132.699 148.753 132.441 144.573C132.177 140.4 131.919 136.098 131.661 131.661C130.616 129.706 130.093 127.488 130.093 125.011C130.093 123.837 130.158 122.792 130.287 121.883C130.545 120.838 130.674 119.799 130.674 118.755C130.674 117.187 130.345 115.755 129.694 114.453C128.391 111.976 127.017 109.628 125.585 107.409C124.147 105.197 122.65 103.436 121.083 102.127L120.109 101.147L119.522 98.2118C118.477 97.4314 117.407 96.6768 116.297 95.9608C115.188 95.2449 114.175 94.4322 113.266 93.5164C112.872 93.2584 112.156 92.9939 111.118 92.7359C110.073 92.4779 108.577 92.0523 106.616 91.4653C104.662 90.8784 102.765 90.1947 100.947 89.4143C99.2503 88.5048 97.296 87.6857 95.0772 86.9697C92.8585 86.2538 90.4462 85.5701 87.8405 84.9187L87.4471 84.7252L87.4535 84.7123ZM98.6053 103.688C97.5604 103.294 96.3543 102.843 94.9869 102.32C93.6196 101.798 92.2135 101.34 90.7816 100.953C88.1694 100.173 85.3702 99.5212 82.371 98.9987C79.3719 98.4763 76.4307 98.0893 73.567 97.8249H73.3735C74.0249 97.6959 74.6764 97.6314 75.3278 97.6314H77.2821C86.6731 97.6314 93.2584 99.1987 97.038 102.327C97.3024 102.591 97.554 102.817 97.8184 103.011C98.0764 103.204 98.3409 103.436 98.5989 103.694L98.6053 103.688ZM105.055 120.902C105.965 132.119 106.848 143.271 107.7 154.358C108.545 165.445 109.428 176.597 110.344 187.813C109.17 176.861 107.996 165.968 106.822 155.145C105.649 144.322 104.475 133.428 103.301 122.476C103.43 121.825 103.494 121.109 103.494 120.328V118.174C103.494 111.782 101.862 106.958 98.6053 103.694C98.9987 103.823 99.3922 103.991 99.7792 104.184C100.166 104.378 100.495 104.546 100.76 104.675C101.147 104.804 101.54 104.939 101.933 105.068C102.327 105.197 102.649 105.332 102.914 105.461C104.346 107.287 105.655 110.092 106.829 113.872C107.867 117.787 107.287 120.128 105.068 120.915L105.055 120.902ZM112.685 219.108L108.97 218.327C109.486 217.025 109.976 215.722 110.434 214.412C110.892 213.109 111.382 211.807 111.905 210.497C112.034 211.8 112.131 213.109 112.195 214.412C112.26 215.715 112.356 216.954 112.492 218.127L112.685 219.108ZM111.905 210.504C111.64 206.724 111.382 202.938 111.124 199.158C110.86 195.379 110.602 191.599 110.344 187.813L112.492 209.136C112.227 209.788 112.034 210.246 111.905 210.504ZM143.599 218.134C139.426 219.437 135.511 220.643 131.861 221.752C128.21 222.862 124.295 224.003 120.122 225.177C119.729 224.784 119.309 224.423 118.851 224.1C118.393 223.771 118.039 223.481 117.774 223.216L134.015 220.869C133.493 217.218 133.002 213.696 132.551 210.304C132.093 206.911 131.635 203.525 131.183 200.132C130.726 196.74 130.268 193.283 129.81 189.761C129.352 186.239 128.926 182.589 128.539 178.809L143.599 218.134Z" fill="var(--fill-0, #DB0585)"/>
<path id="Vector_2" d="M249.629 155.532L250.215 157.686C249.3 157.815 248.455 157.912 247.674 157.976C246.887 158.047 246.171 158.073 245.52 158.073L203.461 184.092L215.199 114.253L217.74 113.466C217.611 109.551 218.779 106.616 221.262 104.662C221.656 104.404 222.043 104.139 222.436 103.881C222.829 103.623 223.223 103.359 223.61 103.101C225.177 101.798 226.673 100.56 228.112 99.3857C230.46 97.6894 233.13 96.4511 236.129 95.6706C239.128 94.8902 242.192 94.2387 245.32 93.7163L247.274 93.5228C247.79 93.3938 248.351 93.3293 248.938 93.3293H250.796C252.099 93.3293 253.337 93.3938 254.511 93.5228C255.685 93.6518 256.659 93.7873 257.446 93.9163H257.052C271.268 94.9611 281.929 97.7991 289.037 102.43C296.145 107.061 299.828 113.485 300.092 121.696C300.744 133.563 301.427 145.76 302.143 158.279C302.859 170.798 303.607 182.995 304.394 194.863C305.962 196.166 307.426 197.372 308.799 198.481C310.167 199.591 311.47 200.668 312.714 201.706C313.953 202.751 315.256 203.828 316.63 204.931C317.997 206.04 319.532 207.247 321.228 208.549C320.577 192.251 319.958 176.171 319.364 160.33C318.784 144.483 318.223 128.41 317.707 112.105C316.01 110.802 313.301 108.615 309.586 105.552C305.871 102.488 301.53 98.7988 296.577 94.4968C293.055 91.7556 288.295 89.511 282.297 87.7502C276.299 85.9894 268.997 84.9123 260.387 84.5188L259.8 80.9972H259.993L257.846 80.6038H256.085C255.433 80.6038 254.846 80.5393 254.324 80.4103C253.279 80.4103 252.105 80.378 250.802 80.3135C249.5 80.249 248.126 80.2168 246.694 80.2168C246.3 80.2168 245.875 80.249 245.423 80.3135C244.965 80.378 244.604 80.4103 244.346 80.4103L243.953 76.4952C244.469 76.4952 244.959 76.463 245.423 76.3985C245.875 76.334 246.429 76.3017 247.081 76.3017H247.274C251.189 76.8242 254.769 77.5401 258.033 78.4495C259.987 77.6691 261.619 77.4111 262.922 77.6691L262.335 80.2103C265.463 79.1654 268.204 78.9074 270.552 79.4299C272.635 79.5589 274.725 79.9201 276.808 80.507C278.891 81.094 281.046 81.8486 283.264 82.758C287.831 84.7123 291.482 86.9956 294.216 89.6078C295.261 90.7816 296.564 91.7298 298.131 92.4457C299.699 93.1616 301.46 93.6518 303.414 93.9098C303.936 94.6967 305.11 95.9996 306.935 97.8249C307.193 98.2183 307.458 98.5408 307.716 98.8053C307.845 99.0697 308.006 99.2632 308.206 99.3922C308.4 99.5212 308.561 99.6566 308.696 99.7856C308.825 99.9146 308.961 100.05 309.09 100.179C309.999 101.224 310.947 102.333 311.928 103.507C312.902 104.681 313.914 106.048 314.959 107.616C316.004 109.054 316.978 110.421 317.894 111.724C318.803 113.027 319.655 114.336 320.435 115.639C321.344 117.078 321.931 118.477 322.196 119.845C322.46 121.212 322.518 122.683 322.389 124.243C322.26 125.288 322.293 126.365 322.486 127.468C322.68 128.578 322.976 129.719 323.37 130.893L335.889 220.882L295.977 226.751L294.803 219.314V218.921C293.365 208.356 291.869 197.469 290.308 186.252C288.74 175.036 287.173 163.82 285.612 152.603C285.348 153.126 284.993 153.648 284.535 154.171C284.077 154.693 283.716 155.151 283.458 155.538C282.671 156.454 281.955 157.434 281.304 158.473C280.652 159.518 280.065 160.498 279.543 161.407C277.589 164.02 275.273 166.69 272.596 169.425C269.92 172.166 266.824 175.101 263.302 178.229C256.652 184.098 252.215 189.316 249.996 193.876C248.822 196.353 247.287 198.933 245.404 201.603C243.508 204.28 241.199 207.053 238.457 209.917C235.981 212.787 233.73 215.657 231.704 218.527C229.679 221.391 227.893 224.326 226.325 227.331L189.155 227.138L181.331 219.701H182.505C182.111 219.308 181.853 219.05 181.718 218.921L182.305 218.334L181.131 218.527L161.569 106.235L165.484 105.649C168.225 124.695 170.895 143.438 173.501 161.891C176.107 180.344 178.783 199.094 181.518 218.134H182.892L184.653 216.96V217.74H185.633L185.046 219.501L218.889 216.567C227.493 206.66 236.039 196.875 244.514 187.22C252.989 177.571 261.528 167.786 270.139 157.873C272.745 153.177 274.899 149.101 276.595 145.644C278.292 142.187 279.53 139.22 280.317 136.743C280.317 136.092 280.349 135.44 280.414 134.789C280.478 134.138 280.517 133.486 280.517 132.835C280.517 129.055 279.865 126.314 278.563 124.618C277.647 123.315 276.634 121.98 275.531 120.606C274.422 119.238 273.28 117.897 272.113 116.594C270.939 115.291 269.7 114.311 268.391 113.659C267.088 113.008 265.779 112.55 264.476 112.292C262.78 112.034 261.051 111.769 259.29 111.511C257.53 111.253 255.408 110.989 252.931 110.731C249.667 111.124 246.604 112.002 243.733 113.375C240.863 114.743 238.644 116.213 237.084 117.774H237.277C236.361 118.69 235.419 119.6 234.439 120.515C233.465 121.431 232.517 122.341 231.601 123.257C231.214 123.779 230.885 124.398 230.621 125.114C230.356 125.83 230.234 126.649 230.234 127.559C230.234 128.339 230.298 129.255 230.427 130.3C230.427 130.822 230.395 131.312 230.331 131.77C230.26 132.228 230.234 132.783 230.234 133.434C230.234 141.652 236.232 148.63 248.229 154.364C248.358 154.235 248.526 154.139 248.719 154.074C248.913 154.01 249.08 153.977 249.209 153.977L249.403 154.958C249.532 154.958 249.79 155.022 250.183 155.151L249.596 155.545L249.629 155.532ZM188.594 115.426C188.858 113.601 189.052 111.905 189.181 110.338C189.31 108.77 189.439 107.274 189.568 105.836C189.697 104.139 190.187 102.507 191.032 100.947C191.877 99.3793 193.083 97.8829 194.65 96.4446C195.953 95.2707 197.198 94.0646 198.372 92.8262C199.545 91.5879 200.648 90.4462 201.7 89.4014C204.047 86.6602 206.982 84.4479 210.504 82.7516C213.109 80.9263 216.831 79.3589 221.656 78.0561C226.609 76.6242 231.24 75.9083 235.542 75.9083C236.845 76.0373 238.09 76.1018 239.264 76.1018H242.592C242.721 76.1018 242.914 76.134 243.179 76.1985C243.437 76.263 243.637 76.2953 243.766 76.2953L243.572 80.2103C242.005 79.9523 240.508 79.8169 239.077 79.8169C234.639 79.8169 230.466 80.7328 226.557 82.5581C223.552 83.8609 220.688 85.0735 217.947 86.1764C215.212 87.2858 212.664 88.2984 210.317 89.2079C208.227 89.8593 206.305 91.0977 204.544 92.923C202.783 94.7483 201.184 96.967 199.752 99.5728C198.32 102.314 196.946 105.081 195.643 107.887C194.334 110.692 193.231 113.459 192.315 116.2V116.007C192.18 116.4 192.083 116.826 192.018 117.278C191.947 117.736 191.851 118.161 191.722 118.548L188 117.768L188.587 115.42L188.594 115.426ZM218.527 113.272C218.263 113.014 218.005 113.079 217.74 113.466L218.527 113.272ZM280.736 118.755C280.865 118.884 280.962 118.948 281.033 118.948C281.097 118.948 281.13 119.019 281.13 119.142L290.914 123.444V121.876C290.914 119.4 290.488 117.052 289.643 114.833C288.798 112.614 287.457 110.725 285.632 109.157C284.458 108.248 283.219 107.429 281.916 106.713C280.614 105.997 279.24 105.442 277.808 105.049C276.241 104.655 274.706 104.236 273.216 103.778C271.713 103.32 270.307 102.894 269.01 102.507C267.701 101.985 266.334 101.727 264.902 101.727C264.25 101.727 263.56 101.759 262.851 101.824C262.128 101.888 261.316 102.05 260.406 102.314C258.968 102.578 257.472 102.707 255.911 102.707C253.956 102.707 252.189 102.385 250.628 101.727C247.629 102.249 244.598 102.869 241.534 103.585C238.47 104.301 235.239 105.513 231.853 107.203C228.46 108.77 226.048 110.989 224.616 113.853C223.178 116.723 222.526 120.245 222.662 124.418L219.927 165.11C223.313 163.807 226.738 162.504 230.195 161.195C233.652 159.892 237.071 158.589 240.463 157.28C240.199 157.28 240.005 157.086 239.876 156.693C239.612 156.435 239.322 156.138 238.993 155.815C238.664 155.493 238.309 155.132 237.916 154.738L235.568 151.997C229.827 147.173 226.435 141.303 225.396 134.389C225.525 129.694 226.112 125.521 227.157 121.87C228.202 118.219 229.705 115.414 231.659 113.459C232.575 112.679 233.743 111.763 235.181 110.718C236.613 109.68 238.309 108.564 240.263 107.39C242.869 105.694 246.004 104.849 249.654 104.849C251.738 104.849 253.956 105.113 256.304 105.629C256.562 105.629 257.02 105.694 257.678 105.823C259.245 106.216 260.967 106.706 262.864 107.293C264.753 107.88 267.004 109.022 269.61 110.718C270.526 111.241 271.306 111.698 271.958 112.085C272.609 112.479 273.261 112.866 273.912 113.259C274.299 113.524 274.725 113.75 275.183 113.943C275.641 114.137 275.996 114.304 276.26 114.433C277.047 114.956 277.86 115.607 278.704 116.388C279.549 117.168 280.24 117.955 280.762 118.735L280.736 118.755ZM257.452 120.902C262.019 121.683 265.082 123.315 266.643 125.791C268.211 128.01 269.384 131.009 270.165 134.789C269.12 141.832 265.598 145.16 259.6 144.767C253.337 145.031 248.842 143.658 246.1 140.658C244.533 138.962 243.753 137.072 243.753 134.982C243.753 133.938 244.075 132.828 244.733 131.654C244.604 131.132 244.54 130.674 244.54 130.287V129.113C244.54 126.765 245.578 124.779 247.668 123.147C249.751 121.515 252.815 120.18 256.859 119.135L257.252 120.896H257.646H257.452V120.902ZM254.131 130.687C253.479 131.732 253.279 134.795 253.544 139.884C253.937 140.278 254.582 140.471 255.498 140.471C256.149 140.471 257.13 140.407 258.433 140.278C260.516 140.8 262.051 140.407 263.031 139.104C264.005 137.801 264.56 135.582 264.689 132.454V131.377C264.689 131.054 264.624 130.629 264.495 130.106C263.58 129.977 262.735 129.81 261.954 129.616C261.174 129.423 260.651 129.39 260.387 129.519C256.865 129.519 254.776 129.913 254.131 130.693V130.687Z" fill="var(--fill-0, #DB0585)"/>
<path id="Vector_3" d="M433.127 155.532L433.714 157.686C432.798 157.815 431.953 157.912 431.166 157.976C430.386 158.047 429.67 158.073 429.018 158.073L386.959 184.092L398.697 114.253L401.239 113.466C401.11 109.551 402.284 106.616 404.76 104.662C405.147 104.404 405.541 104.139 405.934 103.881C406.321 103.623 406.715 103.359 407.108 103.101C408.675 101.798 410.172 100.56 411.604 99.3857C413.951 97.6894 416.628 96.4511 419.621 95.6706C422.62 94.8902 425.69 94.2387 428.818 93.7163L430.773 93.5228C431.295 93.3938 431.85 93.3293 432.437 93.3293H434.294C435.597 93.3293 436.842 93.3938 438.016 93.5228C439.19 93.6518 440.17 93.7873 440.95 93.9163H440.563C454.779 94.9611 465.434 97.7991 472.548 102.43C479.656 107.061 483.339 113.485 483.603 121.696C484.255 133.563 484.938 145.76 485.661 158.279C486.377 170.798 487.125 182.995 487.912 194.863C489.479 196.166 490.943 197.372 492.311 198.481C493.684 199.591 494.981 200.668 496.226 201.706C497.464 202.751 498.767 203.828 500.141 204.931C501.515 206.04 503.043 207.247 504.739 208.549C504.088 192.251 503.469 176.171 502.882 160.33C502.295 144.483 501.74 128.41 501.218 112.105C499.522 110.802 496.819 108.615 493.104 105.552C489.382 102.488 485.048 98.7988 480.095 94.4968C476.573 91.7556 471.813 89.511 465.815 87.7502C459.816 85.9894 452.509 84.9123 443.904 84.5188L443.318 80.9972H443.511L441.357 80.6038H439.596C438.945 80.6038 438.358 80.5393 437.835 80.4103C436.79 80.4103 435.616 80.378 434.314 80.3135C433.011 80.249 431.643 80.2168 430.205 80.2168C429.812 80.2168 429.392 80.249 428.934 80.3135C428.476 80.378 428.122 80.4103 427.857 80.4103L427.47 76.4952C427.993 76.4952 428.476 76.463 428.934 76.3985C429.392 76.334 429.947 76.3017 430.598 76.3017H430.792C434.707 76.8242 438.293 77.5401 441.55 78.4495C443.505 77.6691 445.136 77.4111 446.439 77.6691L445.852 80.2103C448.981 79.1654 451.722 78.9074 454.069 79.4299C456.153 79.5589 458.242 79.9201 460.332 80.507C462.416 81.094 464.57 81.8486 466.789 82.758C471.355 84.7123 475.006 86.9956 477.747 89.6078C478.785 90.7816 480.095 91.7298 481.655 92.4457C483.223 93.1616 484.984 93.6518 486.938 93.9098C487.46 94.6967 488.634 95.9996 490.459 97.8249C490.717 98.2183 490.975 98.5408 491.24 98.8053C491.369 99.0697 491.537 99.2632 491.73 99.3922C491.924 99.5212 492.085 99.6566 492.22 99.7856C492.349 99.9146 492.478 100.05 492.614 100.179C493.523 101.224 494.471 102.333 495.452 103.507C496.432 104.681 497.438 106.048 498.483 107.616C499.521 109.054 500.502 110.421 501.418 111.724C502.327 113.027 503.179 114.336 503.965 115.639C504.875 117.078 505.462 118.477 505.726 119.845C505.984 121.212 506.049 122.683 505.92 124.243C505.784 125.288 505.823 126.365 506.017 127.468C506.21 128.578 506.507 129.719 506.9 130.893L519.419 220.882L479.514 226.751L478.34 219.314V218.921C476.902 208.356 475.406 197.469 473.838 186.252C472.271 175.036 470.71 163.82 469.143 152.603C468.878 153.126 468.524 153.648 468.066 154.171C467.608 154.693 467.253 155.151 466.988 155.538C466.208 156.454 465.492 157.434 464.841 158.473C464.189 159.518 463.596 160.498 463.08 161.407C461.126 164.02 458.804 166.69 456.133 169.425C453.457 172.166 450.361 175.101 446.846 178.229C440.196 184.098 435.758 189.316 433.54 193.876C432.366 196.353 430.831 198.933 428.941 201.603C427.051 204.28 424.735 207.053 421.994 209.917C419.511 212.787 417.267 215.657 415.241 218.527C413.216 221.391 411.429 224.326 409.862 227.331L372.692 227.138L364.868 219.701H366.042C365.655 219.308 365.39 219.05 365.261 218.921L365.842 218.334L364.668 218.527L345.106 106.235L349.021 105.649C351.755 124.695 354.432 143.438 357.038 161.891C359.644 180.344 362.32 199.094 365.055 218.134H366.422L368.183 216.96V217.74H369.157L368.577 219.501L402.419 216.567C411.03 206.66 419.569 196.875 428.044 187.22C436.519 177.571 445.065 167.786 453.67 157.873C456.275 153.177 458.43 149.101 460.126 145.644C461.822 142.187 463.06 139.22 463.841 136.743C463.841 136.092 463.873 135.44 463.944 134.789C464.009 134.138 464.041 133.486 464.041 132.835C464.041 129.055 463.389 126.314 462.087 124.618C461.177 123.315 460.165 121.98 459.055 120.606C457.946 119.238 456.804 117.897 455.63 116.594C454.456 115.291 453.218 114.311 451.915 113.659C450.612 113.008 449.309 112.55 448 112.292C446.304 112.034 444.575 111.769 442.814 111.511C441.054 111.253 438.932 110.989 436.455 110.731C433.191 111.124 430.128 112.002 427.264 113.375C424.394 114.743 422.175 116.213 420.614 117.774H420.808C419.892 118.69 418.944 119.6 417.97 120.515C416.989 121.431 416.041 122.341 415.132 123.257C414.738 123.779 414.409 124.398 414.158 125.114C413.893 125.83 413.764 126.649 413.764 127.559C413.764 128.339 413.829 129.255 413.958 130.3C413.958 130.822 413.926 131.312 413.861 131.77C413.79 132.228 413.764 132.783 413.764 133.434C413.764 141.652 419.763 148.63 431.759 154.364C431.888 154.235 432.05 154.139 432.25 154.074C432.443 154.01 432.604 153.977 432.74 153.977L432.933 154.958C433.062 154.958 433.327 155.022 433.72 155.151L433.133 155.545L433.127 155.532ZM372.092 115.426C372.35 113.601 372.55 111.905 372.679 110.338C372.808 108.77 372.943 107.274 373.072 105.836C373.201 104.139 373.691 102.507 374.536 100.947C375.381 99.3793 376.594 97.8829 378.155 96.4446C379.458 95.2707 380.696 94.0646 381.87 92.8262C383.044 91.5879 384.153 90.4462 385.198 89.4014C387.546 86.6602 390.48 84.4479 394.002 82.7516C396.608 80.9263 400.329 79.3589 405.154 78.0561C410.107 76.6242 414.738 75.9083 419.047 75.9083C420.35 76.0373 421.588 76.1018 422.762 76.1018H426.09C426.219 76.1018 426.412 76.134 426.677 76.1985C426.941 76.263 427.135 76.2953 427.264 76.2953L427.07 80.2103C425.503 79.9523 424.007 79.8169 422.568 79.8169C418.131 79.8169 413.964 80.7328 410.049 82.5581C407.05 83.8609 404.18 85.0735 401.445 86.1764C398.704 87.2858 396.163 88.2984 393.815 89.2079C391.725 89.8593 389.803 91.0977 388.042 92.923C386.282 94.7483 384.682 96.967 383.25 99.5728C381.812 102.314 380.444 105.081 379.142 107.887C377.839 110.692 376.729 113.459 375.813 116.2V116.007C375.684 116.4 375.588 116.826 375.523 117.278C375.452 117.736 375.355 118.161 375.226 118.548L371.511 117.768L372.098 115.42L372.092 115.426ZM402.019 113.272C401.755 113.014 401.497 113.079 401.239 113.466L402.019 113.272ZM464.234 118.755C464.363 118.884 464.46 118.948 464.525 118.948C464.589 118.948 464.628 119.019 464.628 119.142L474.412 123.444V121.876C474.412 119.4 473.987 117.052 473.142 114.833C472.29 112.614 470.955 110.725 469.13 109.157C467.956 108.248 466.718 107.429 465.408 106.713C464.105 105.997 462.738 105.442 461.3 105.049C459.732 104.655 458.197 104.236 456.701 103.778C455.205 103.32 453.799 102.894 452.496 102.507C451.193 101.985 449.825 101.727 448.387 101.727C447.736 101.727 447.046 101.759 446.33 101.824C445.614 101.888 444.795 102.05 443.885 102.314C442.447 102.578 440.95 102.707 439.383 102.707C437.429 102.707 435.668 102.385 434.101 101.727C431.102 102.249 428.064 102.869 425.006 103.585C421.943 104.301 418.711 105.513 415.325 107.203C411.933 108.77 409.52 110.989 408.088 113.853C406.65 116.723 405.999 120.245 406.134 124.418L403.393 165.11C406.786 163.807 410.21 162.504 413.668 161.195C417.125 159.892 420.543 158.589 423.942 157.28C423.678 157.28 423.484 157.086 423.355 156.693C423.091 156.435 422.801 156.138 422.472 155.815C422.143 155.493 421.788 155.132 421.394 154.738L419.047 151.997C413.306 147.173 409.914 141.303 408.875 134.389C409.004 129.694 409.591 125.521 410.636 121.87C411.675 118.219 413.177 115.414 415.132 113.459C416.041 112.679 417.215 111.763 418.653 110.718C420.085 109.68 421.781 108.564 423.742 107.39C426.348 105.694 429.476 104.849 433.133 104.849C435.217 104.849 437.435 105.113 439.783 105.629C440.047 105.629 440.499 105.694 441.15 105.823C442.718 106.216 444.446 106.706 446.336 107.293C448.226 107.88 450.477 109.022 453.089 110.718C453.998 111.241 454.785 111.698 455.437 112.085C456.088 112.479 456.74 112.866 457.391 113.259C457.785 113.524 458.204 113.75 458.662 113.943C459.12 114.137 459.474 114.304 459.739 114.433C460.519 114.956 461.332 115.607 462.183 116.388C463.028 117.168 463.712 117.955 464.234 118.735V118.755ZM440.95 120.902C445.517 121.683 448.581 123.315 450.148 125.791C451.715 128.01 452.883 131.009 453.67 134.789C452.625 141.832 449.103 145.16 443.105 144.767C436.848 145.031 432.346 143.658 429.605 140.658C428.038 138.962 427.257 137.072 427.257 134.982C427.257 133.938 427.58 132.828 428.231 131.654C428.102 131.132 428.038 130.674 428.038 130.287V129.113C428.038 126.765 429.076 124.779 431.166 123.147C433.249 121.515 436.319 120.18 440.364 119.135L440.75 120.896H441.137H440.944L440.95 120.902ZM437.629 130.687C436.977 131.732 436.784 134.795 437.048 139.884C437.435 140.278 438.087 140.471 439.003 140.471C439.654 140.471 440.628 140.407 441.937 140.278C444.021 140.8 445.556 140.407 446.53 139.104C447.51 137.801 448.065 135.582 448.194 132.454V131.377C448.194 131.054 448.123 130.629 448 130.106C447.084 129.977 446.239 129.81 445.459 129.616C444.678 129.423 444.156 129.39 443.892 129.519C440.37 129.519 438.287 129.913 437.629 130.693V130.687Z" fill="var(--fill-0, #DB0585)"/>
<path id="Vector_4" d="M438.016 18.0016C438.145 15.9183 438.77 13.7963 439.873 11.642C440.983 9.48777 442.253 7.6302 443.685 6.06934C444.988 4.50202 447.078 3.30236 449.948 2.45098C452.818 1.60605 456.204 1.11584 460.119 0.980396C462.596 0.328961 465.208 4.59105e-05 467.943 4.59105e-05C471.987 4.59105e-05 475.831 0.780487 479.488 2.3478C485.358 4.69555 488.357 8.08814 488.486 12.5192C489.273 12.9126 490.053 13.3383 490.833 13.7898C491.614 14.2478 492.201 14.6089 492.594 14.8669C492.465 15.2604 492.368 15.4539 492.298 15.4539H492.007V15.6474C493.704 18.2596 494.974 20.575 495.819 22.5938C496.671 24.6191 497.419 26.6702 498.07 28.7535C498.199 29.1469 498.264 29.5339 498.264 29.9273C498.264 30.3208 498.199 30.7078 498.07 31.1012V30.9077V33.449C497.941 34.6228 497.748 35.6677 497.483 36.5771C497.619 36.5771 497.709 36.6094 497.78 36.6739C497.844 36.7384 497.948 36.7706 498.07 36.7706C499.38 37.2931 500.682 37.7188 501.985 38.0412C503.288 38.3702 504.462 38.5314 505.507 38.5314C506.287 38.5314 507.074 38.338 507.855 37.9445H510.402L510.596 41.6596C508.77 41.6596 506.752 41.7886 504.533 42.0531C502.579 41.7951 500.592 41.4661 498.567 41.0727C496.548 40.6792 494.69 40.3245 492.988 39.9956C491.298 39.6731 489.93 39.4086 488.879 39.2151C487.841 39.0216 487.183 38.8539 486.925 38.7249L481.642 35.7903C483.99 35.0098 485.977 33.8682 487.608 32.3654C489.24 30.869 490.317 29.0759 490.84 26.9862C490.053 24.6384 489.111 22.3875 488.002 20.2397C486.893 18.0854 485.164 15.7119 482.816 13.0997V13.2932C480.34 10.6874 477.405 8.92663 474.012 8.01075C472.058 7.48831 470.039 6.96588 467.949 6.44344C465.866 5.921 463.641 5.33408 461.3 4.68264C458.171 4.68264 455.301 5.10831 452.689 5.95324C450.083 6.80462 447.994 8.07523 446.433 9.77154C445.652 10.8164 444.936 11.7646 444.278 12.6095C443.627 13.4609 443.105 14.209 442.711 14.8605C442.06 16.1634 441.737 18.1241 441.737 20.7299V20.5363C441.737 20.6653 441.802 20.9298 441.931 21.3168C442.06 21.7038 442.124 22.0327 442.124 22.2972V23.0776L442.318 23.6645V23.858C442.447 24.1225 442.511 24.445 442.511 24.8384C442.511 24.7094 442.382 24.5159 442.124 24.2515L440.363 25.0319H439.383L440.363 24.445L438.796 25.0319H438.603C438.474 24.7739 438.409 24.5417 438.409 24.3482V23.858C438.28 23.4646 438.216 23.2066 438.216 23.0776V22.6842C438.216 22.0327 438.183 21.3168 438.119 20.5299C438.054 19.7495 438.022 18.9626 438.022 18.1822V17.9887L438.016 18.0016ZM438.609 25.4383L438.802 25.6317V25.8252C438.673 25.6962 438.609 25.5672 438.609 25.4318V25.0384H439.389L438.609 25.4318V25.4383ZM452.689 43.6333C452.038 43.2398 451.354 42.7883 450.638 42.2659C449.922 41.7434 449.367 41.1565 448.974 40.5051L447.407 39.3312H447.6C445.775 38.0283 444.246 36.7577 443.001 35.5194C441.763 34.281 440.686 32.2944 439.776 29.5533C439.512 29.1598 439.383 28.7083 439.383 28.1859C439.383 28.0569 439.351 27.8634 439.286 27.5989C439.222 27.3409 439.183 27.141 439.183 27.012H438.99C438.861 26.6186 438.796 26.2316 438.796 25.8381C438.796 25.9671 438.932 26.1671 439.183 26.4251L440.75 25.6447H440.944L440.357 26.0381L442.311 25.6447H442.698C443.221 27.341 443.943 29.0373 444.852 30.7271V30.5336C448.116 34.7067 452.547 37.9703 458.158 40.3181C458.029 40.8405 458.159 41.2984 458.546 41.6854C459.197 42.0789 459.752 42.4013 460.21 42.6658C460.667 42.9302 461.093 43.1882 461.48 43.4462L473.219 47.3613C476.87 49.3156 481.436 50.296 486.912 50.296C488.215 50.296 489.653 50.2315 491.214 50.1025C492.781 49.9735 494.478 49.78 496.296 49.5155C498.644 50.6894 500.863 51.4053 502.946 51.6698C503.991 51.6698 505.23 51.7665 506.668 51.96C508.106 52.1535 509.796 52.5147 511.757 53.0371C514.492 52.7791 517.362 52.4502 520.361 52.0568C523.36 51.6633 526.359 51.1473 529.358 50.4894C532.487 49.967 535.325 49.2833 537.866 48.4384C540.413 47.5935 542.729 46.5808 544.812 45.407V45.6005C546.767 44.4266 548.398 43.1882 549.701 41.8854C551.004 40.5825 551.984 39.1442 552.636 37.5833C553.416 36.016 554.132 34.5841 554.784 33.2813C555.435 31.9784 556.087 30.74 556.738 29.5661C555.564 28.3923 554.293 27.2829 552.926 26.238C551.559 25.1996 550.282 24.0902 549.114 22.9163L551.462 19.9817L557.918 25.0641L557.725 24.8707C558.241 25.1351 558.828 25.4253 559.486 25.7543C560.137 26.0832 560.724 26.3735 561.246 26.6315L566.722 32.5008C566.335 33.0233 565.871 33.707 565.355 34.5519C564.833 35.4033 564.375 36.087 563.988 36.6029C563.072 38.2992 561.995 40.0278 560.756 41.7886C559.518 43.5494 558.047 45.149 556.357 46.5808C554.919 47.8837 553.255 49.2575 551.372 50.6894C549.482 52.1277 547.818 53.3661 546.386 54.4045C545.864 54.7979 545.309 55.1849 544.722 55.5784C544.135 55.9718 543.645 56.2943 543.258 56.5588C540.781 57.2102 538.337 57.8294 535.924 58.4163C533.512 59.0033 531.326 59.4934 529.371 59.8869C527.288 60.2803 524.676 60.4738 521.548 60.4738H518.123C516.884 60.4738 515.614 60.4093 514.304 60.2803C513.653 60.4093 512.969 60.4738 512.253 60.4738H510.002C507.919 60.4738 506.055 60.3126 504.43 59.9836C502.798 59.6611 501.005 59.3645 499.051 59.1L496.309 58.5131C495.922 58.6421 495.426 58.7065 494.845 58.7065H493.181C490.182 58.7065 486.989 57.9906 483.597 56.5523L483.79 56.7458C481.442 55.8364 479.385 55.0495 477.624 54.3981C475.863 53.7466 474.27 53.1597 472.832 52.6373C471.529 52.1148 470.187 51.6311 468.82 51.1667C467.446 50.7088 466.111 50.2831 464.808 49.8961C464.679 49.7671 464.479 49.6703 464.221 49.6058C463.957 49.5413 463.763 49.4446 463.634 49.3156C462.854 48.7931 462.041 48.3094 461.19 47.845C460.345 47.3871 459.532 46.9678 458.745 46.5744L458.939 46.1809C458.681 46.052 458.487 45.923 458.352 45.7875C458.223 45.6585 458.03 45.5295 457.765 45.3941C457.372 45.3941 457.049 45.3296 456.785 45.2006C456.004 45.0716 455.25 44.8781 454.534 44.6136C453.818 44.3556 453.134 44.0267 452.476 43.6333H452.67H452.689ZM440.363 25.0448H441.931L442.124 24.8513L442.318 25.0448H442.511V25.2383C442.647 25.3673 442.705 25.5027 442.705 25.6317H440.944H441.137H438.79L440.357 25.0448H440.363ZM466.776 13.3061C474.864 14.0865 478.837 17.8081 478.708 24.4579C477.405 30.4562 474.277 33.0039 469.317 32.088C466.84 32.088 464.621 31.83 462.667 31.3076C460.713 30.7852 459.081 30.0692 457.778 29.1534C456.082 27.8505 455.011 26.5799 454.553 25.3415C454.095 24.1031 454.256 22.697 455.043 21.1362C455.179 18.008 455.959 15.757 457.391 14.3832C458.829 13.0158 460.784 12.5256 463.26 12.9191H464.434C464.699 12.9191 464.957 12.9836 465.215 13.1126H465.021C465.544 13.2416 466.001 13.3061 466.395 13.3061H466.782H466.776ZM467.556 21.5232C466.382 21.3942 465.473 21.9166 464.821 23.0905C464.17 24.2644 463.905 25.7672 464.034 27.5925C464.686 27.9859 465.505 28.2117 466.479 28.2762C467.459 28.3471 468.407 28.3729 469.317 28.3729C470.755 28.5019 471.761 28.3084 472.348 27.786C472.935 27.2636 473.49 26.2187 474.012 24.6578C473.883 24.2644 473.787 23.8774 473.722 23.4839C473.658 23.0905 473.561 22.768 473.425 22.5036V22.1101C472.909 21.9811 472.419 21.9166 471.961 21.9166C471.503 21.9166 471.013 21.8521 470.491 21.7231H468.923C468.53 21.7231 468.078 21.6586 467.556 21.5296V21.5232ZM547.373 18.2015C547.502 18.4659 547.695 18.6917 547.96 18.8852C548.218 19.0787 548.411 19.3109 548.54 19.5689L545.412 21.7167V21.5232C544.238 24.7868 542.677 27.2635 540.717 28.9598C539.672 30.0047 538.337 31.1077 536.705 32.288C535.073 33.4619 533.344 34.7002 531.519 36.0031C530.61 36.3965 529.791 36.79 529.075 37.177C528.359 37.564 527.675 37.8284 527.017 37.9574V38.1509C525.972 38.4153 524.998 38.7378 524.082 39.1313C523.173 39.5247 522.257 39.8472 521.348 40.1117C521.083 40.2407 520.728 40.3761 520.271 40.5051C519.813 40.6341 519.329 40.7695 518.806 40.8985C517.11 41.0275 515.614 41.1307 514.304 41.1952C513.002 41.2597 511.763 41.292 510.589 41.292L510.976 37.3769C512.286 37.5059 513.685 37.5059 515.182 37.3769C516.684 37.2479 518.284 37.0544 519.974 36.79C521.277 36.532 523.102 35.7451 525.45 34.4422L526.43 36.5965L525.843 34.2487C526.366 34.1197 526.888 33.952 527.411 33.7585C527.933 33.565 528.391 33.2683 528.784 32.8749C530.087 31.83 531.39 30.6562 532.699 29.3533C534.002 28.0504 535.241 26.5476 536.421 24.8513C537.724 23.284 538.866 21.6264 539.839 19.8656C540.82 18.1048 541.761 16.1827 542.677 14.093L547.766 17.8081L547.373 18.2015Z" fill="var(--fill-0, #DB0585)"/>
<path id="Vector_5" d="M664.36 143.793L667.688 144.573C667.559 148.875 666.676 152.468 665.05 155.332C663.419 158.202 660.974 160.221 657.717 161.395C644.024 164.523 633.324 169.154 625.635 175.281C625.9 177.758 626.19 180.144 626.519 182.421C626.841 184.704 627.138 187.02 627.403 189.368C625.313 187.936 623.552 186.601 622.12 185.356C620.688 184.117 619.579 182.976 618.792 181.931C617.489 183.498 616.315 185.13 615.27 186.82C614.226 188.516 613.381 190.277 612.729 192.102L609.208 191.322L613.123 113.659C611.291 108.054 609.562 103.423 607.937 99.7728C606.305 96.1221 604.835 93.381 603.532 91.5557C600.662 87.6406 597.598 84.5834 594.334 82.3646C592.767 81.1908 591.174 80.1136 589.542 79.1397C587.904 78.1593 586.311 77.2821 584.75 76.4952C582.138 75.3214 578.035 74.5409 572.431 74.1475C571.121 74.0185 569.947 73.954 568.909 73.954C566.819 73.954 564.833 74.2185 562.943 74.7344C561.053 75.2569 559.189 76.1728 557.37 77.4756C555.022 79.1719 553.197 81.3262 551.888 83.9319C550.585 86.5441 549.605 89.4078 548.953 92.5425C549.347 95.4127 549.766 97.8894 550.224 99.9792C550.675 102.069 551.165 103.83 551.688 105.262C552.726 108.003 556.119 111.131 561.859 114.653C564.078 116.22 567.238 117.619 571.347 118.858C575.456 120.096 580.506 121.044 586.504 121.696L577.113 164.536L577.307 124.237C575.868 127.236 574.301 128.217 572.611 127.172C571.566 126.649 570.586 126.166 569.676 125.708C568.767 125.25 567.787 124.895 566.742 124.63C566.613 124.501 566.452 124.405 566.252 124.34C566.058 124.276 565.89 124.243 565.761 124.243C563.543 123.334 561.588 122.418 559.892 121.502C558.196 120.593 557.022 119.284 556.37 117.587C556.106 117.329 555.848 117.065 555.59 116.807C555.326 116.549 555.068 116.22 554.81 115.826C553.242 115.046 551.972 114.033 550.991 112.795C550.017 111.557 549.134 110.286 548.353 108.983V109.177C548.218 108.783 548.057 108.461 547.863 108.196C547.67 107.938 547.502 107.674 547.373 107.416C546.199 105.591 545.444 103.862 545.122 102.23C544.793 100.598 544.503 98.6118 544.238 96.264C544.367 94.3097 544.696 92.4199 545.212 90.5882C545.735 88.7629 546.451 86.9375 547.366 85.1122C548.405 83.2869 549.45 81.6229 550.495 80.1265C551.533 78.6301 552.578 77.3595 553.623 76.3147C555.448 74.4894 557.499 72.9543 559.789 71.7159C562.066 70.4775 564.975 69.8584 568.496 69.8584C570.063 69.8584 571.624 69.9873 573.192 70.2518C574.759 69.7294 576.255 69.4713 577.694 69.4713C579.261 69.4713 580.557 69.7358 581.609 70.2518C582.647 70.5162 583.724 70.8065 584.834 71.1354C585.943 71.4644 587.014 71.7546 588.059 72.019C589.49 72.148 590.864 72.5093 592.167 73.0962C593.47 73.6831 594.837 74.4378 596.276 75.3472C596.927 75.6116 597.546 75.9341 598.133 76.3275C598.72 76.721 599.275 77.0435 599.797 77.3079C600.449 77.7014 601.165 78.2561 601.945 78.972C602.725 79.6879 603.441 80.2426 604.093 80.636C603.964 80.9005 604.093 81.223 604.486 81.6164C604.88 82.0099 605.331 82.4678 605.854 82.9838C606.247 83.2482 606.641 83.5385 607.028 83.8674C607.415 84.1964 607.808 84.4866 608.201 84.751C610.936 87.4922 612.768 90.227 613.677 92.9682C614.064 94.1421 614.49 95.6771 614.948 97.5669C615.406 99.4567 615.761 101.643 616.025 104.12V108.035C617.457 118.077 618.928 128.546 620.43 139.433C621.927 150.327 623.462 161.117 625.029 171.811C625.939 171.289 626.854 170.766 627.77 170.244C628.68 169.721 629.531 169.205 630.311 168.676C633.053 167.109 636.181 164.961 639.703 162.22C643.618 159.221 649.222 157.525 656.524 157.138C657.175 156.744 657.891 156.196 658.678 155.474C659.458 154.758 660.303 153.81 661.219 152.636C662.129 151.591 662.716 150.585 662.98 149.604C663.244 148.624 663.244 147.747 662.98 146.96L663.373 145.786V145.592L663.567 145.399L664.347 143.832L664.36 143.793ZM576.913 216.96C574.823 217.225 572.805 217.579 570.85 218.037C568.896 218.495 566.935 218.921 564.981 219.308L577.113 164.529L576.92 216.96H576.913ZM578.481 85.8862C584.737 86.1507 588.652 89.9303 590.219 97.2315C588.91 104.275 585.066 108.125 578.674 108.777C574.63 109.17 571.431 107.932 569.09 105.062C567.916 103.759 567 102.32 566.348 100.76C565.697 99.1923 565.303 97.6314 565.174 96.0641C565.568 94.4968 565.987 93.0649 566.445 91.762C566.897 90.4592 567.522 89.3175 568.303 88.3372C569.09 87.3568 570.031 86.6409 571.141 86.1829C572.25 85.725 573.521 85.4992 574.952 85.4992C576.384 85.8927 577.494 86.0217 578.281 85.8927H578.474L578.481 85.8862ZM581.415 94.4968C578.023 95.0192 575.939 97.8249 575.159 102.907C575.675 102.907 576.139 102.978 576.526 103.101C577.049 103.23 577.565 103.327 578.094 103.391C578.616 103.462 579.074 103.423 579.461 103.294C581.415 103.294 582.918 102.804 583.963 101.83C585.008 100.85 585.724 99.6502 586.111 98.2119C585.982 97.6894 585.885 97.2702 585.82 96.9413C585.749 96.6188 585.724 96.3221 585.724 96.0576V95.8642C585.459 95.6062 584.969 95.3095 584.26 94.9805C583.537 94.658 582.596 94.4903 581.422 94.4903L581.415 94.4968ZM685.296 84.9059L686.277 86.6667L686.67 85.4928C687.322 86.2732 688.07 87.1568 688.921 88.1372C689.766 89.1176 690.514 89.9303 691.172 90.5817L686.677 164.923C687.457 164.142 688.244 163.459 689.024 162.872C689.811 162.285 690.398 161.795 690.785 161.408C690.785 164.02 690.914 165.581 691.179 166.103L693.133 167.67C693.391 167.935 693.714 168.257 694.107 168.651C694.5 169.044 694.952 169.431 695.474 169.825C695.739 170.089 695.9 170.25 695.965 170.315C696.029 170.386 696.126 170.411 696.261 170.411C696.39 170.676 696.648 170.966 697.042 171.295C697.435 171.624 697.758 171.914 698.022 172.179C698.151 172.308 698.248 172.469 698.312 172.669C698.377 172.862 698.473 173.03 698.602 173.159C698.731 173.288 698.867 173.424 698.996 173.553L700.17 174.533C700.95 175.578 701.634 176.784 702.221 178.151C702.808 179.519 703.298 180.989 703.685 182.55C703.814 182.815 703.911 183.105 703.982 183.434C704.046 183.763 704.143 184.117 704.278 184.511V184.317C704.536 185.233 704.769 186.046 704.962 186.762C705.156 187.478 705.317 188.103 705.452 188.619C705.717 189.664 705.975 190.671 706.239 191.651C706.497 192.631 706.891 193.508 707.413 194.289C707.671 195.205 707.839 196.05 707.903 196.83C707.968 197.611 708 198.397 708 199.178C708 200.874 707.774 202.57 707.316 204.267C706.858 205.963 706.304 207.595 705.652 209.156C704.736 211.245 703.988 213.135 703.401 214.832C702.814 216.528 702.453 218.031 702.324 219.334C700.37 220.636 698.377 221.778 696.358 222.758C694.333 223.739 692.346 224.745 690.392 225.79C688.56 226.699 686.741 227.383 684.916 227.841C683.084 228.299 681.459 228.525 680.027 228.525C678.853 228.783 677.679 228.95 676.505 229.015C675.331 229.079 674.158 229.112 672.984 229.112C668.682 229.112 664.799 228.163 661.348 226.274C657.891 224.384 654.86 221.41 652.254 217.373C652.125 217.244 651.925 217.147 651.667 217.083C651.402 217.018 651.209 216.986 651.08 216.986L649.906 214.638C649.642 215.161 649.577 215.49 649.713 215.619C648.016 214.316 646.61 213.013 645.507 211.703C644.398 210.401 643.585 209.098 643.063 207.788C642.676 207.008 642.282 205.866 641.889 204.364C641.496 202.867 641.038 201.074 640.522 198.984C639.87 199.636 639.154 200.287 638.367 200.939C637.587 201.59 636.736 202.177 635.826 202.699C635.175 203.351 634.485 203.97 633.769 204.557C633.053 205.144 632.304 205.763 631.518 206.415C629.563 207.853 627.867 209.317 626.429 210.813C624.99 212.316 623.752 213.845 622.714 215.412C621.669 216.979 620.688 218.379 619.779 219.617C618.863 220.856 618.018 221.933 617.231 222.842C614.755 226.235 613.058 228.06 612.142 228.318C611.233 228.576 611.033 227.402 611.562 224.797C606.208 224.532 600.797 224.274 595.328 224.01C589.845 223.745 584.434 223.487 579.087 223.229L576.939 218.927V216.973C581.763 216.064 586.62 215.083 591.516 214.038C596.405 212.993 601.197 212.019 605.892 211.104L608.634 213.845C609.807 212.413 611.601 210.523 614.013 208.169C616.425 205.821 619.456 202.957 623.107 199.558C632.498 190.954 639.019 185.801 642.669 184.105C643.321 188.671 643.972 192.515 644.624 195.65C645.275 198.778 645.927 201.197 646.578 202.887C647.101 204.583 647.92 206.182 649.023 207.679C650.132 209.182 651.532 210.581 653.228 211.884C656.749 214.625 660.368 216.547 664.083 217.657C667.804 218.766 671.029 219.121 673.764 218.734C674.674 218.863 675.525 218.966 676.305 219.03C677.086 219.095 677.873 219.127 678.653 219.127C679.956 219.127 681.194 219.03 682.368 218.837C683.542 218.643 684.651 218.418 685.696 218.153C688.96 216.979 691.043 215.348 691.959 213.264C692.74 211.697 693.527 210.104 694.307 208.472C695.087 206.84 695.874 205.247 696.655 203.68C697.564 201.984 698.254 200.358 698.712 198.791C699.164 197.224 699.331 195.727 699.202 194.289V194.482C698.551 191.09 697.706 187.607 696.661 184.014C695.616 180.428 694.055 176.223 691.966 171.398C690.792 170.224 689.682 169.38 688.638 168.857L688.831 168.464L687.264 167.483C685.567 166.438 681.717 165.464 675.718 164.549L686.87 155.158C685.954 144.206 685.077 133.183 684.232 122.096C683.381 111.015 682.568 99.992 681.788 89.0337L685.309 84.9252L685.296 84.9059ZM671.99 178.029C673.809 178.422 675.538 178.88 677.176 179.396C678.808 179.919 680.208 180.441 681.381 180.963C682.684 181.744 683.697 182.989 684.413 184.679C685.129 186.375 685.355 188.529 685.097 191.135C684.181 195.83 682.878 199.094 681.181 200.919C679.614 202.222 676.686 203.596 672.377 205.028C667.94 204.634 664.58 203.203 662.303 200.726C660.02 198.249 658.884 194.985 658.884 190.941V189.181C658.884 188.658 658.949 188.136 659.078 187.613V187.807C659.729 181.679 663.315 177.9 669.836 176.461L671.99 178.029ZM662.212 146.528C662.341 145.225 662.438 143.954 662.503 142.716C662.567 141.477 662.664 140.336 662.793 139.291C662.922 140.729 663.019 141.703 663.09 142.226C663.154 142.748 663.186 143.045 663.186 143.109C663.186 143.174 663.186 143.077 663.186 142.819C663.186 142.561 663.154 142.426 663.09 142.426C663.019 142.426 663.019 142.619 663.09 143.013C663.154 143.406 663.251 144.251 663.386 145.554L662.212 146.534V146.528ZM664.36 84.5189L666.708 82.5646V84.5189C669.185 84.3899 671.629 84.3254 674.041 84.3254H681.375L681.768 84.1319L681.375 88.0469L664.354 84.5253L664.36 84.5189ZM666.708 90.5817C666.708 89.6723 666.676 89.0144 666.611 88.6274C666.54 88.234 666.514 87.847 666.514 87.4535H666.908L666.714 90.5817H666.708ZM669.249 188.394C668.985 188.916 668.727 189.503 668.469 190.155C668.204 190.806 668.011 191.457 667.882 192.109V195.63C668.011 196.282 668.146 196.933 668.275 197.585C668.404 198.236 668.533 198.63 668.669 198.759C668.798 198.888 669.056 199.023 669.449 199.152C669.843 199.281 670.559 199.223 671.603 198.959C674.474 199.223 676.492 198.894 677.666 197.978C678.453 197.456 679.427 195.372 680.601 191.722C680.079 191.328 679.556 190.877 679.034 190.354C678.511 189.832 678.189 189.51 678.06 189.374C678.84 189.116 679.33 188.981 679.524 188.981C679.717 188.981 679.879 189.052 680.014 189.174C680.014 188 679.492 187.252 678.447 186.923C677.402 186.601 676.492 186.368 675.706 186.239C672.442 186.368 670.294 187.091 669.249 188.394Z" fill="var(--fill-0, #DB0585)"/>
</g>
</svg>
