<svg preserveAspectRatio="none" width="100%" height="100%" overflow="visible" style="display: block;" viewBox="0 0 299.088 50.0001" fill="none" xmlns="http://www.w3.org/2000/svg">
<g id="Group 3">
<path id="Vector" d="M2.90475 25.6924C4.01936 23.8122 4.66111 22.4387 4.82999 21.583C4.94258 21.1326 5.06643 20.7161 5.19027 20.3445C5.31412 19.973 5.43796 19.6803 5.55055 19.4438C5.69691 19.1849 5.88831 18.9259 6.12475 18.6557C6.36118 18.3855 6.64265 18.1266 6.95789 17.8676C7.64467 17.2934 8.30894 16.8881 8.96195 16.6292L8.91691 16.6742C9.36726 16.3927 9.91894 16.1563 10.5382 15.9874C11.1687 15.8185 11.8667 15.6722 12.6548 15.5596C13.4429 15.447 14.2986 15.3569 15.2443 15.3006C16.19 15.2443 17.1921 15.188 18.2842 15.1317C18.4868 15.7059 18.4305 16.0099 18.1153 16.0775C18.0252 16.0775 17.9464 16.0775 17.8563 16.1C17.7663 16.1113 17.6875 16.1225 17.5974 16.1225C16.7417 16.2351 15.9536 16.3477 15.2443 16.4603C14.535 16.5729 13.9045 16.7192 13.3641 16.8881C12.8237 17.0345 12.2045 17.2259 11.5289 17.4623C10.8422 17.71 10.1779 17.9689 9.52488 18.2504C8.92817 18.5319 8.39901 18.8584 7.94866 19.2299C7.48705 19.6015 7.14929 19.9955 6.92412 20.4233C6.43999 21.3691 5.92209 22.5738 5.38167 24.0599C4.61608 26.4242 3.83923 28.7886 3.07363 31.1529C2.30804 33.5172 1.53119 35.8928 0.765593 38.2909L0 38.032L2.90475 25.6812V25.6924ZM15.5596 32.3576C15.9536 32.6728 16.404 32.9318 16.9106 33.1457C17.406 33.3596 17.9689 33.4609 18.5994 33.4609C18.8246 33.4609 19.1173 33.4384 19.4551 33.3709C19.624 33.4047 19.8154 33.4159 20.0068 33.4159H21.1664C21.3353 33.4159 21.5267 33.4047 21.7181 33.3709C22.0558 33.3484 22.3598 33.2695 22.6188 33.1344C22.8777 33.0106 23.0916 32.8417 23.2605 32.6391V32.6841C23.6546 32.1662 23.9698 31.637 24.1837 31.0854C24.3977 30.5337 24.4765 29.8582 24.4202 29.0588C24.3864 28.4058 24.3076 27.764 24.1612 27.1335C24.0486 26.5593 23.6771 26.0752 23.0466 25.6812C22.6751 25.4222 22.3148 25.1858 21.977 24.9719C21.6393 24.758 21.324 24.5553 21.0313 24.3526C20.4909 23.9811 19.7253 23.7559 18.7233 23.6659C18.3292 23.6096 17.9914 23.5758 17.7438 23.5758C15.9198 23.5758 14.58 24.6454 13.7244 26.7845L10.4368 32.7742L9.70502 32.3013C9.8739 32.0761 10.0428 31.8735 10.2004 31.7046C10.358 31.5357 10.5382 31.3218 10.7296 31.0628C10.6395 30.4661 10.5382 29.8131 10.4256 29.0926C10.313 28.3833 10.2004 27.6514 10.0991 26.9084C9.99775 26.1653 9.89642 25.4447 9.78383 24.7242C9.67124 24.0149 9.56992 23.3506 9.47985 22.7539C9.85138 23.1254 10.1329 23.4632 10.3355 23.7559C10.5382 24.0599 10.6395 24.3752 10.6395 24.7129V24.5891C10.6057 24.4427 10.5945 24.3076 10.5719 24.1612C10.5607 24.0149 10.5494 23.891 10.5494 23.7784C10.5494 23.497 10.5832 23.2042 10.662 22.9228C10.7296 22.6413 10.8309 22.3486 10.9435 22.0671C11.1461 21.6393 11.4163 21.2677 11.7541 20.9525C12.0919 20.6373 12.4634 20.4008 12.8687 20.2207C13.2403 20.1081 13.6568 19.9843 14.1072 19.8604C14.5575 19.7366 14.9516 19.6578 15.2556 19.624C15.5708 19.6015 15.9874 19.5226 16.5165 19.3875C17.0457 19.2637 17.6762 19.0836 18.4193 18.8584L18.8471 19.0723C18.9034 19.1061 18.9484 19.1173 18.971 19.1173H19.016L19.1061 19.1624C21.1551 19.4213 22.8777 20.0293 24.2626 20.9975C25.6474 21.9658 26.6607 23.3056 27.3137 25.0169L26.9759 25.2308C26.9759 25.456 26.9646 25.6924 26.9309 25.9176L26.9759 26.1766L26.8858 29.2164C26.7732 28.3382 26.6607 27.5614 26.5593 26.9084C26.458 26.2554 26.3567 25.8275 26.2441 25.6249C26.2103 25.5123 26.1991 25.411 26.1765 25.3209C26.154 25.2308 26.154 25.1745 26.154 25.152L26.2779 25.0619C26.1878 24.9494 26.109 24.848 26.0414 24.758C25.9739 24.6679 25.8951 24.5891 25.805 24.499C25.7487 24.3864 25.6812 24.2175 25.5911 23.9811V24.0261C25.501 23.801 25.3997 23.5645 25.2758 23.3168C25.152 23.0804 24.9268 22.8215 24.6116 22.5738C24.4089 22.3711 24.15 22.191 23.846 22.0221C23.542 21.8532 23.1479 21.7181 22.6976 21.6393C22.1572 21.5492 21.6393 21.4591 21.1551 21.3353C20.671 21.2227 20.0968 21.0313 19.4438 20.7836C18.4418 20.8737 17.4623 20.9075 16.494 20.9075C15.6721 20.9412 14.9966 21.279 14.49 21.932C13.9496 22.3261 13.4542 22.8327 13.0151 23.4519C12.576 24.0599 12.272 24.8818 12.0919 25.9063C12.0919 26.2441 12.0919 26.5819 12.1144 26.9084C12.1256 27.2349 12.1369 27.5614 12.1369 27.8654C12.227 27.6965 12.3058 27.5163 12.3959 27.3362C12.4859 27.1561 12.5647 26.9759 12.6548 26.807C12.9363 26.2103 13.2628 25.6587 13.6118 25.1633C13.9721 24.6679 14.3436 24.2626 14.7489 23.9473C15.1768 23.5758 15.7397 23.3056 16.4377 23.1367C17.1358 22.9678 17.9802 22.8777 18.9822 22.8777C19.2412 22.9115 19.5001 22.9453 19.7478 22.9791C20.0068 23.0241 20.2657 23.0579 20.5134 23.0804C20.6823 23.1142 20.8512 23.1254 21.0313 23.148C21.2002 23.1592 21.3691 23.1817 21.5492 23.2155C22.4049 23.3619 23.193 23.8235 23.9023 24.6228L24.4202 25.7375C25.0169 26.109 25.4222 26.5256 25.6361 26.9759C25.85 27.4375 25.9964 27.8766 26.0865 28.3045C26.0865 28.3607 26.0865 28.4396 26.109 28.5409C26.1202 28.6422 26.1428 28.721 26.1765 28.7773C26.1991 29.0588 26.2441 29.329 26.2779 29.5879C26.3116 29.8469 26.3229 30.0721 26.3004 30.2747C26.2441 30.6688 26.1653 31.0516 26.0639 31.4119C25.9626 31.7721 25.8388 32.0761 25.7037 32.3351C25.5573 32.6165 25.3997 32.898 25.2083 33.1682C25.0169 33.4384 24.8142 33.7199 24.5891 34.0014C24.0486 34.6319 23.4632 34.9809 22.8327 35.0709C22.6075 35.1047 22.3711 35.1498 22.1234 35.2173C21.8757 35.2849 21.6505 35.3862 21.4141 35.4988C21.1326 35.5326 20.8174 35.5326 20.4909 35.4988C20.1644 35.4763 19.8266 35.4425 19.4889 35.4087C19.1511 35.3524 18.8471 35.3186 18.5882 35.3186C18.3067 35.3186 17.9802 35.2286 17.6086 35.0597C17.2371 34.8908 16.9219 34.6994 16.6629 34.508C15.5483 36.6472 14.4449 38.7751 13.3528 40.903C12.2608 43.0309 11.1461 45.1588 10.0428 47.2979L4.01936 48.4576L3.11867 46.8813H2.94979L2.99482 46.6224L2.73587 46.1495L3.07363 46.1946L3.88426 42.0514L4.69489 42.1752L4.31209 45.9806L4.14321 46.3634L9.99775 47.2191C10.2004 45.9356 10.4031 44.6071 10.617 43.2223C10.8309 41.8374 11.0335 40.4526 11.2362 39.0791C11.4389 37.6942 11.6415 36.3207 11.8554 34.9584C12.0694 33.5961 12.272 32.2675 12.4747 30.984L15.5483 32.3576H15.5596ZM19.32 25.9852C20.0856 26.2666 20.7161 26.6269 21.2002 27.0547C21.6843 27.4826 22.0671 28.0005 22.3486 28.5972C22.1459 29.5429 21.887 30.2522 21.583 30.7589C21.2677 31.2542 20.8174 31.5019 20.2094 31.5019C19.9505 31.5019 19.6803 31.4456 19.3988 31.333C18.3742 31.4794 17.6312 31.2768 17.1808 30.7363C16.7192 30.1959 16.5391 29.329 16.6291 28.1243C16.6517 26.6382 17.3272 25.9964 18.6332 26.1991L19.32 25.9852ZM18.2954 15.1317C18.2391 14.9629 18.1716 14.794 18.0815 14.6138C17.9914 14.4337 17.8901 14.2536 17.7775 14.0622C18.7458 14.3211 19.6465 14.5913 20.4684 14.8728C21.2902 15.1543 22.0671 15.4695 22.7764 15.8185C22.2585 15.6496 21.6843 15.5145 21.02 15.4132C20.367 15.3119 19.6577 15.2331 18.8809 15.1768L18.5769 15.0867C18.5206 15.0867 18.4756 15.0867 18.4305 15.1092C18.3855 15.1205 18.3405 15.1317 18.2842 15.1317H18.2954ZM18.4193 29.6217V29.7118C18.4193 29.9707 18.5093 30.1284 18.7007 30.2072C18.8809 30.2747 19.1961 30.3085 19.624 30.3085C20.2207 30.4211 20.6372 30.3535 20.8624 30.0946C20.9187 29.982 20.9637 29.8694 21.0088 29.7568C21.0538 29.6442 21.0763 29.5429 21.0763 29.4528C21.0763 29.284 21.0313 29.07 20.9525 28.8111C21.0088 28.5296 21.02 28.3157 20.9975 28.1693C20.9412 28.1693 20.8737 28.1693 20.8061 28.1468C20.7386 28.1356 20.671 28.1131 20.6147 28.0793C20.5021 28.0568 20.4008 28.0342 20.3107 28.0117C20.2207 28.0005 20.1193 27.9892 20.0068 27.9892C19.5451 28.0455 19.1849 28.1806 18.8921 28.3945C18.5994 28.6084 18.4981 28.9124 18.5544 29.3177L18.4305 29.6217H18.4193ZM28.9011 23.4632C28.9011 20.2432 26.8633 17.6875 22.7877 15.8073H22.8327C23.3168 15.9536 23.8122 16.145 24.3301 16.3815C24.848 16.6292 25.3321 16.8881 25.7825 17.1696C26.2328 17.451 26.6719 17.7438 27.0885 18.0252C27.5051 18.3067 27.8541 18.5544 28.1356 18.7571V18.712C28.3607 18.8809 28.5746 19.061 28.7773 19.2412C28.98 19.4213 29.1601 19.6465 29.329 19.9054V19.8154L30.0608 20.5472C30.1509 20.6598 30.2297 20.7724 30.3197 20.885C30.4098 20.9975 30.4886 21.1101 30.5787 21.2227C30.635 21.3353 30.6913 21.4254 30.7476 21.5042C30.8039 21.5717 30.8714 21.6505 30.9615 21.7406C31.2767 22.1347 31.5469 22.7539 31.7721 23.5758C31.7946 23.6659 31.8284 23.7447 31.8622 23.8347C31.8847 23.9248 31.9185 23.9924 31.9523 24.0487C32.0423 24.3076 32.1211 24.544 32.1887 24.7805C32.2562 25.0056 32.3238 25.2196 32.3801 25.4222C32.4927 25.7037 32.6053 26.0527 32.7179 26.4693C32.8304 26.8859 32.9543 27.3137 33.1007 27.7753L36.6471 46.9264L28.9124 48.4238L27.2461 47.5231L27.5051 46.7913L32.1662 47.129C31.6258 43.2786 31.0853 39.4506 30.5449 35.6339C30.0045 31.8172 29.4641 27.9779 28.9237 24.1387V23.4519L28.9011 23.4632ZM26.8408 46.9376C26.7507 46.9939 26.6944 47.039 26.6494 47.084C26.6044 47.129 26.5481 47.1741 26.458 47.2304L26.8858 29.2389C26.9084 29.4641 26.9421 29.7118 26.9759 29.9707C26.9984 30.2297 27.0322 30.4886 27.066 30.7363L26.6832 46.7688L26.8521 46.9376H26.8408ZM26.8408 46.9376L26.7958 46.8926V46.8476L26.9646 47.0165L26.8408 46.9264V46.9376Z" fill="var(--fill-0, #353535)"/>
<path id="Vector_2" d="M59.7163 35.3862C59.6037 35.3862 59.5362 35.375 59.5024 35.3412C59.3335 35.3187 59.1421 35.3299 58.9507 35.3862C58.354 35.3862 57.8136 35.4087 57.352 35.4538C56.8791 35.4988 56.4625 35.5439 56.091 35.6001C55.7757 35.6339 55.483 35.724 55.1903 35.9041C54.8976 36.0843 54.6499 36.2869 54.4247 36.5459C53.9068 37.0863 53.5578 37.6042 53.3551 38.0883C53.265 38.2347 53.2088 38.4036 53.1862 38.6175C53.1525 38.8314 53.1412 39.0903 53.1412 39.4056V39.8559C53.1412 40.0136 53.1525 40.1712 53.1862 40.3513C53.2088 40.8692 53.2538 41.3308 53.3101 41.7361C53.3664 42.1527 53.4227 42.5468 53.479 42.9071C53.569 43.1885 53.7154 43.4925 53.9293 43.8078C54.1432 44.123 54.436 44.4495 54.8075 44.7873C55.5506 45.474 56.2374 45.8568 56.8566 45.9469C57.2281 45.9807 57.6447 46.0257 58.1176 46.0933C58.5904 46.1608 59.1083 46.2396 59.6825 46.3297C60.4256 46.3635 61.1236 46.3072 61.7992 46.1833C62.4634 46.0595 63.0601 45.778 63.578 45.3502C64.1185 44.9224 64.5801 44.3819 64.9403 43.7289C65.143 43.3912 65.2443 42.9071 65.2443 42.2766C65.2443 42.0739 65.2331 41.8375 65.1993 41.5447C65.1655 41.2633 65.1317 40.948 65.0754 40.599C65.2218 40.5089 65.3006 40.4189 65.3119 40.295C65.3231 40.1824 65.3119 40.0699 65.2894 39.9573C64.8953 37.7618 64.4787 35.5776 64.0734 33.3934C63.6569 31.2092 63.2403 29.0363 62.8124 26.8746C62.8687 26.4243 62.9025 25.9627 62.9025 25.5011C62.9025 22.799 62.1144 20.6148 60.5494 18.9597C58.9845 17.3047 56.5864 16.1225 53.3664 15.4132C53.4564 15.4132 53.5353 15.4133 53.6253 15.3907C53.7154 15.3795 53.8055 15.3682 53.9293 15.3682C55.179 15.4583 56.2711 15.6046 57.1831 15.8186C58.095 16.0325 58.8494 16.2914 59.4461 16.6067C60.0428 16.9219 60.6958 17.3385 61.3938 17.8677C62.0919 18.3968 62.8575 19.0273 63.6794 19.7704V20.2432L63.7244 20.3333C64.1522 20.8174 64.5463 21.3128 64.8953 21.8082C65.2556 22.3036 65.5033 22.8102 65.6384 23.3281V23.2831C65.6947 23.542 65.7735 23.8235 65.8748 24.1388C65.9761 24.454 66.1113 24.7805 66.2801 25.1183C66.449 25.5123 66.5841 25.9064 66.6854 26.2779C66.7868 26.6495 66.8318 27.0097 66.8318 27.3475L65.2894 40.9368C65.9761 41.4209 66.449 41.9388 66.6967 42.4792C66.9557 43.0196 67.012 43.5488 66.8656 44.0554C66.5278 45.0012 65.9874 45.8231 65.2443 46.5324C64.6476 47.0728 64.0284 47.5006 63.4092 47.8159C62.7787 48.1311 62.1031 48.2887 61.3601 48.2887C61.1574 48.2887 60.9435 48.2775 60.6958 48.2437C60.4481 48.2099 60.2342 48.1874 60.0315 48.1536C59.919 48.1536 59.7838 48.1536 59.6487 48.1761C59.5024 48.1874 59.3785 48.1987 59.2659 48.1987C58.8944 48.1987 58.5004 48.1536 58.095 48.0523C57.6785 47.951 57.3069 47.8271 56.9579 47.692C56.0797 47.3205 55.5168 46.9039 55.2916 46.4536C55.2015 46.3973 55.134 46.3297 55.0777 46.2622C55.0214 46.1946 54.9651 46.1271 54.9088 46.0708V46.1158C54.5148 45.8005 54.1207 45.4628 53.7379 45.0912C53.3551 44.7197 53.0624 44.2806 52.8597 43.7627C52.7697 43.5601 52.6909 43.3687 52.6008 43.166C52.5107 42.9633 52.4094 42.8057 52.2968 42.6931C52.1279 42.4342 52.0378 42.0852 52.0378 41.6236C52.0378 41.3984 52.0491 41.1507 52.0829 40.8917C52.1392 40.5202 52.1955 40.1599 52.2518 39.8222C52.3081 39.4844 52.3756 39.1241 52.4657 38.7526C52.4882 38.5274 52.5332 38.3022 52.5895 38.0883C52.6458 37.8744 52.6909 37.6492 52.7134 37.4241C52.826 36.7936 53.1074 36.2869 53.5465 35.9041C53.9856 35.5213 54.5823 35.2399 55.3254 35.071C55.5843 34.9021 55.8433 34.767 56.1135 34.6657C56.3837 34.5643 56.6539 34.4855 56.9241 34.4292C57.1943 34.3729 57.4533 34.3392 57.6897 34.3392C57.9262 34.3392 58.1288 34.3729 58.2639 34.4292H58.7818C58.9507 34.4292 59.0971 34.4405 59.2097 34.4743H59.5136L56.9467 24.6454C57.4871 24.7355 57.9487 24.7918 58.309 24.8368C58.6805 24.8818 58.9507 24.9044 59.1196 24.9044C59.2097 24.9044 59.2659 24.9494 59.2885 25.0282C59.2547 24.3189 59.1308 23.7447 58.9057 23.3169C58.6805 22.889 58.4328 22.5851 58.1738 22.4162C57.8924 22.2473 57.4083 22.0334 56.744 21.7744C56.0685 21.5155 55.3141 21.279 54.4585 21.0426V21.0876C54.1995 21.0314 53.9631 20.9863 53.7267 20.9638C53.5015 20.9413 53.2876 20.9188 53.0849 20.9188C51.6551 21.0088 50.4053 21.4479 49.3245 22.2473C48.5251 22.844 48.1311 23.5983 48.1311 24.5103C48.1311 24.6792 48.1648 24.9494 48.2211 25.3209L48.694 28.7436L42.4904 27.1223C42.3216 27.1786 42.1414 27.2349 41.9613 27.2912C41.7699 27.3475 41.601 27.4038 41.4321 27.4601C41.3758 27.5164 41.2858 27.6064 41.1732 27.719C41.0606 27.8316 40.9367 27.9555 40.8129 28.0793C40.6891 28.2032 40.5089 28.372 40.2837 28.5747L41.1844 24.8593C41.0719 24.4653 40.993 24.0712 40.948 23.6997C40.903 23.3281 40.8805 22.9679 40.8805 22.6301C40.8805 22.2023 40.9255 21.7857 41.0268 21.3691C41.1281 20.9525 41.252 20.581 41.3871 20.232C41.7249 19.579 42.1414 19.0048 42.6256 18.4981C43.1097 18.0028 43.6839 17.5411 44.3369 17.1133C44.9674 16.8881 45.5303 16.6742 46.0482 16.4716C46.5661 16.2689 47.0502 16.1113 47.5006 15.9987C47.9847 15.8523 48.5702 15.6947 49.2569 15.5258C49.9437 15.357 50.7093 15.1656 51.565 14.9742C51.7113 15.0305 51.8464 15.0755 51.9703 15.1205C52.0941 15.1656 52.218 15.1993 52.3306 15.2219C52.5332 15.6835 52.5783 16.0212 52.4769 16.2464C52.3756 16.4716 52.1617 16.5729 51.8127 16.5504C51.5875 16.5504 51.3848 16.5504 51.216 16.5279C51.0471 16.5166 50.8895 16.4941 50.7431 16.4603C49.2006 16.5729 48.0185 16.7868 47.1966 17.1021C46.8025 17.2484 46.386 17.4623 45.9581 17.7438C45.5303 18.0253 45.0912 18.3518 44.6296 18.7233C44.2355 19.1174 43.864 19.579 43.515 20.0969C43.166 20.6148 42.9183 21.1552 42.7494 21.7181C42.5805 22.2586 42.4342 22.799 42.299 23.3394C42.1752 23.8798 42.0626 24.3527 41.9838 24.7467C41.9838 24.9719 41.9838 25.1746 41.9613 25.3434C41.95 25.5123 41.9275 25.6812 41.9163 25.8613C41.905 26.0415 41.8825 26.2104 41.8712 26.3905C41.86 26.5819 41.8487 26.7846 41.8487 27.0097C42.6481 27.0097 43.4137 27.021 44.1342 27.0548C44.866 27.0885 45.6316 27.0998 46.4648 27.0998C46.431 26.7283 46.4085 26.3342 46.3747 25.9064C46.3409 25.4786 46.3184 25.0845 46.2846 24.713C46.2509 24.5666 46.2396 24.409 46.2396 24.2401V23.7222C46.2396 21.0764 47.5681 19.7479 50.2139 19.7479C50.4166 19.7479 50.6192 19.7479 50.8332 19.7704C51.0471 19.7816 51.2723 19.8042 51.4974 19.8379C52.0716 19.669 52.6008 19.5339 53.0962 19.4551C53.5916 19.3651 54.0757 19.3313 54.526 19.3313C56.0347 19.3313 57.2169 19.8267 58.0725 20.8287C58.7255 21.5943 59.2659 22.4049 59.6713 23.2606C60.0878 24.1162 60.358 24.9719 60.5044 25.8276C60.6508 26.5706 60.7859 27.3475 60.9097 28.1806C61.0336 29.0025 61.1799 29.8357 61.3376 30.6576C61.4952 31.4795 61.6415 32.3126 61.7654 33.1345C61.8892 33.9564 62.0243 34.7332 62.1707 35.4425C61.5177 35.42 60.9773 35.3975 60.572 35.3975C60.1666 35.3975 59.8852 35.4313 59.7388 35.4876L59.6938 35.3637L59.7163 35.3862ZM52.8372 15.3457C53.0061 15.3795 53.175 15.402 53.3551 15.4358H53.1637C53.0962 15.4358 53.0174 15.4245 52.9273 15.3907C52.871 15.3907 52.8034 15.3907 52.7359 15.3682C52.6683 15.357 52.5895 15.3344 52.4995 15.3007C52.4657 15.3007 52.4094 15.2894 52.3306 15.2556C52.4995 15.2894 52.6683 15.3119 52.8485 15.3457H52.8372ZM58.9957 43.6389C58.6242 43.5488 58.2864 43.3912 57.9712 43.1435C57.656 42.9071 57.3745 42.6143 57.138 42.2878C56.9016 41.9613 56.7102 41.601 56.5864 41.1957C56.4625 40.8017 56.4062 40.3851 56.44 39.9573C56.4062 39.1579 56.5976 38.595 56.9917 38.2685C57.3857 37.942 57.9712 37.8294 58.748 37.9532C59.2322 37.987 59.6713 38.0545 60.0541 38.1671C60.4369 38.2797 60.7634 38.4599 61.011 38.6963C61.27 38.944 61.4501 39.2367 61.5402 39.597C61.6415 39.9573 61.6641 40.3738 61.6078 40.858C61.923 42.4792 61.1124 43.425 59.1759 43.6839L59.007 43.6389H58.9957ZM60.572 40.6103C60.6057 40.4076 60.617 40.2725 60.617 40.205C60.617 40.1374 60.6057 40.0811 60.572 40.0586C60.5157 40.0023 60.4594 39.9573 60.4031 39.9348C60.3468 39.9122 60.2567 39.8897 60.1441 39.8897C60.0878 39.8897 60.0315 39.8897 59.9978 39.9122C59.9527 39.9235 59.919 39.9348 59.8964 39.9348C59.615 39.9685 59.3898 40.0023 59.2322 40.0361C59.0746 40.0811 58.9394 40.1824 58.8269 40.3513C58.7706 40.4977 58.7255 40.6215 58.703 40.7341C58.6692 40.8467 58.6467 40.9931 58.6129 41.162C58.6129 41.2745 58.6129 41.3871 58.5904 41.4997C58.5792 41.6123 58.5566 41.7474 58.5229 41.8825C58.4891 41.9726 58.5004 42.0176 58.5454 42.0289C58.5904 42.0401 58.6355 42.0627 58.6918 42.0964L58.9957 42.1415C58.9957 42.1415 59.052 42.1415 59.0858 42.1189C59.1083 42.1077 59.1421 42.0964 59.1759 42.0964V42.9521L60.5832 40.599L60.572 40.6103Z" fill="var(--fill-0, #353535)"/>
<path id="Vector_3" d="M90.1936 17.012C91.1056 17.4961 91.8599 17.9915 92.4566 18.4869C93.0533 18.9822 93.4587 19.4213 93.65 19.7929C93.7626 19.8492 93.8865 19.9167 94.0103 19.9843C94.1342 20.0518 94.2468 20.1306 94.3256 20.2207C94.6633 20.5922 94.9786 20.9638 95.2713 21.3578C95.5528 21.7406 95.823 22.1459 96.0819 22.5738C95.0574 21.7519 93.7289 20.885 92.1076 19.9843C90.4863 19.0836 88.5161 18.1266 86.208 17.102C86.7259 17.012 87.1538 16.9444 87.4915 16.8881C87.0074 16.7418 86.5008 16.6066 85.9716 16.4828C85.4424 16.359 84.8908 16.2351 84.3278 16.1225H83.7311L82.8754 16.1676C82.594 16.1113 82.3801 16.1 82.2337 16.1225V16.0775C81.378 16.2801 80.5899 16.449 79.8806 16.5954C79.1713 16.7418 78.5746 16.8431 78.0905 16.8994C77.6627 17.102 77.3024 17.2934 77.0209 17.4736C76.7394 17.6537 76.4692 17.8339 76.2103 18.0027C75.9513 18.1716 75.7149 18.3292 75.4785 18.4756C75.2533 18.622 75.0394 18.7796 74.8367 18.9485L74.9268 18.9935C74.8142 19.1061 74.7241 19.2187 74.6453 19.3313C74.5778 19.4438 74.5102 19.5564 74.4539 19.669L74.3639 19.624C74.1612 19.8829 73.9698 20.1644 73.7671 20.4797C73.5645 20.7949 73.3843 21.1327 73.2155 21.5042C72.9903 21.8983 72.8777 22.3036 72.8777 22.6976C72.8777 22.7539 72.8777 22.8102 72.9002 22.8665C72.9115 22.9228 72.9227 22.9791 72.9227 23.0354C73.6658 23.2606 74.3413 23.4857 74.9493 23.6996C75.5573 23.9136 76.2441 24.1387 76.9759 24.3639L77.2799 23.846C77.3024 22.9003 77.5163 22.1347 77.9216 21.5155C78.3157 20.9075 78.8223 20.3783 79.419 19.9505C80.0495 19.4664 80.7476 19.1399 81.5131 18.971C82.3125 18.8246 83.247 18.971 84.3391 19.3988H84.9358C85.9378 19.3988 86.8047 19.6015 87.5478 19.9955C88.2909 20.3896 88.8876 20.8624 89.338 21.4029C89.8559 21.9996 90.2499 22.7539 90.5314 23.6659C90.6215 24.0937 90.734 24.4652 90.8691 24.7805C90.0473 25.6361 89.5406 26.0527 89.3717 26.0415C89.2028 26.0302 89.338 25.6024 89.7996 24.7805C89.8896 24.6341 89.9121 24.499 89.8896 24.3527C89.9459 24.0374 89.8446 23.6659 89.5856 23.238C89.2704 22.6976 89.0677 22.3148 88.9889 22.0784C88.8426 21.9883 88.6512 21.9095 88.4147 21.842C88.167 21.7744 87.9194 21.6956 87.6604 21.6055C87.4915 21.5492 87.3001 21.5042 87.1087 21.4592C86.9061 21.4141 86.7259 21.3691 86.557 21.3128C86.3882 21.3128 86.2193 21.3128 86.0617 21.2903C85.904 21.279 85.7577 21.2678 85.6113 21.2678C85.3524 21.2115 85.1272 21.1439 84.9245 21.0538H84.9696C84.8232 21.0313 84.6881 20.9863 84.5643 20.9525C84.4404 20.9075 84.3053 20.9075 84.1589 20.93C83.5059 20.93 82.943 21.0088 82.4926 21.1664C82.031 21.3241 81.5919 21.5042 81.1641 21.6956C81.074 21.7294 80.9952 21.7631 80.9052 21.8194C80.8151 21.8757 80.7363 21.9208 80.6462 21.9433L80.6913 21.8982C80.2296 22.1009 79.9257 22.4499 79.768 22.9453C79.6104 23.4407 79.5316 24.0374 79.5316 24.7242C79.419 24.8368 79.3852 24.9494 79.4415 25.062C79.4415 25.0957 79.4415 25.1858 79.4641 25.3659C79.4753 25.5348 79.4866 25.6361 79.4866 25.6699L71.8757 25.2421L72.0446 24.1725C72.0446 24.1725 71.9883 24.2063 71.9545 24.1725C71.9545 24.0036 71.9545 23.8685 71.932 23.7897C71.9207 23.6996 71.9094 23.6208 71.9094 23.5533V23.2718C71.8532 22.4499 71.9545 21.6168 72.2134 20.7949C72.4724 19.973 72.9115 19.1736 73.542 18.3968C73.632 18.4869 73.7108 18.5432 73.8009 18.5882C73.891 18.6332 73.9585 18.6783 74.0148 18.7345C74.0373 18.6783 74.0711 18.6332 74.1049 18.5882C74.1387 18.5432 74.1725 18.4981 74.2287 18.4418L74.5327 18.7008L74.2738 18.318C74.3639 18.2617 74.4427 18.1716 74.5327 18.059C74.7354 17.7438 75.0056 17.4398 75.3434 17.1358C75.6811 16.8318 76.0301 16.5729 76.3679 16.3477C76.5368 16.2013 76.7282 16.1 76.9421 16.0325C77.156 15.9649 77.3925 15.9311 77.6514 15.9311C78.0792 15.7622 78.6647 15.5708 79.4078 15.3794C79.7793 15.3232 80.1171 15.2781 80.4323 15.2331C80.7476 15.188 81.0178 15.1881 81.2429 15.2106H81.8396C82.0423 15.2106 82.2112 15.2218 82.3575 15.2556C82.4476 15.2556 82.5264 15.2556 82.6165 15.2781C82.7066 15.2894 82.7741 15.3006 82.8304 15.3006C83.0894 15.3006 83.3483 15.3232 83.6185 15.3682C83.8887 15.4132 84.1702 15.492 84.4517 15.6046C85.0259 15.6947 85.5438 15.7622 86.0391 15.8185C86.5233 15.8748 86.9398 15.9199 87.2776 15.9424C87.5929 16.055 87.8631 16.1563 88.0882 16.2464C88.3134 16.3364 88.5048 16.3927 88.6399 16.4153L88.5498 16.798H88.8088C89.383 16.798 89.8333 16.8656 90.1711 17.012H90.1936ZM91.5222 26.2441C91.3758 25.9852 91.2632 25.7487 91.1619 25.5123C91.0605 25.2871 90.9705 25.0394 90.8804 24.7805C91.1056 24.5553 91.3645 24.2851 91.646 23.9699C91.9275 23.6546 92.2427 23.3056 92.5917 22.9003C92.4454 24.9831 92.3103 26.9872 92.1639 28.9237C92.0175 30.8602 91.8824 32.7854 91.7361 34.6994C91.5897 36.6134 91.4546 38.5274 91.3082 40.4751C91.1619 42.4116 91.0268 44.4044 90.8804 46.4648C90.7115 46.6337 90.5539 46.8026 90.4075 46.9602C90.2612 47.1178 90.1035 47.2754 89.9347 47.4556L91.5109 26.2554L91.5222 26.2441ZM91.2294 47.2304L90.6777 46.8026L91.3645 46.6337H91.4546L91.7135 46.5436H91.7586L94.9673 45.9019L94.7084 47.737L92.6931 48.3337L91.3308 47.2642V47.3092L91.2407 47.2191L91.2294 47.2304ZM96.521 35.4763C96.4084 37.1876 96.2958 38.8764 96.2058 40.5652C96.1044 42.2428 96.0031 43.9541 95.8793 45.6992L94.9448 45.9131L96.521 35.4875V35.4763ZM96.1833 22.7764C96.1833 22.7764 96.1382 22.7089 96.1382 22.6751C96.1382 22.6413 96.127 22.5963 96.0932 22.5738C96.3184 22.7764 96.5323 22.9566 96.7124 23.1255C96.8926 23.2943 97.0727 23.4632 97.2416 23.6434C97.2078 23.9023 97.1965 24.1613 97.174 24.4089C97.1515 24.6566 97.1403 24.9268 97.1065 25.1745C96.9376 24.6341 96.78 24.1613 96.6336 23.7672C96.4872 23.3731 96.3296 23.0354 96.1607 22.7877L96.1833 22.7764ZM96.521 35.4763C96.6336 33.7649 96.7349 32.0536 96.825 30.3423C96.9151 28.631 97.0051 26.9084 97.129 25.1745C97.2416 25.4898 97.3542 25.8275 97.4442 26.1766C97.5456 26.5368 97.6469 26.9084 97.7595 27.3137L96.521 35.4763Z" fill="var(--fill-0, #353535)"/>
<path id="Vector_4" d="M134.576 42.1862C133.72 41.4431 133.033 40.8464 132.504 40.3961C131.975 39.9457 131.603 39.608 131.367 39.4166L131.243 39.5854C131.243 39.4954 131.243 39.4391 131.22 39.4166C131.209 39.394 131.198 39.3265 131.198 39.2477C130.883 39.0225 130.556 38.7636 130.218 38.4821C129.881 38.2006 129.487 37.8516 129.059 37.4575L128.969 37.5814C128.485 37.3224 127.967 36.9734 127.404 36.5343C126.852 36.0952 126.233 35.5773 125.546 34.9694C124.353 33.8322 123.035 33.2355 121.617 33.1792V33.0104C121.392 33.0104 121.279 33.0103 121.301 32.9878C121.313 32.9766 121.301 32.9541 121.234 32.9203C121.144 32.8978 121.088 32.864 121.065 32.8302L121.02 33.258L120.164 33.168C120.164 32.8865 120.018 32.7739 119.737 32.8302L121.065 21.8867C120.322 22.0556 119.894 21.9768 119.782 21.6278L119.827 21.29C119.737 20.7496 119.624 20.2317 119.466 19.7251C119.309 19.2297 119.117 18.7793 118.892 18.374C118.667 17.98 118.419 17.6197 118.16 17.3044C117.901 16.9892 117.642 16.7527 117.395 16.5726C117.136 16.46 116.843 16.3249 116.517 16.1673C116.19 16.0097 115.841 15.8746 115.469 15.762V15.7169C115.413 15.7169 115.357 15.7057 115.301 15.6719C115.244 15.6494 115.199 15.6156 115.177 15.5818C114.805 15.4918 114.422 15.4242 114.028 15.3679C113.634 15.3116 113.218 15.2779 112.79 15.2779H112.193C111.675 15.2779 111.157 15.3229 110.617 15.4017C109.93 15.5481 109.379 15.8971 108.951 16.4713H108.996C108.939 16.5276 108.894 16.5839 108.872 16.6402C108.838 16.6965 108.782 16.764 108.703 16.8541C108.534 17.0793 108.376 17.2932 108.23 17.4733C108.084 17.6647 107.96 17.8561 107.847 18.0475C107.645 18.4416 107.476 18.9482 107.329 19.5449V19.8039C107.442 20.4906 107.611 21.1549 107.825 21.7967C108.039 22.4384 108.32 22.9676 108.658 23.3954C108.861 23.6206 109.131 23.8457 109.491 24.0597C109.851 24.2736 110.279 24.465 110.797 24.6339C111.315 24.8027 111.912 24.9491 112.587 25.0617C113.274 25.1743 114.04 25.2306 114.895 25.2306L115.154 31.0851C114.67 31.9633 114.04 32.4474 113.274 32.5375C112.081 32.5375 111.011 32.7401 110.088 33.1567C109.165 33.5733 108.354 34.1475 107.667 34.8906C107.037 35.5999 106.665 36.3429 106.553 37.1085C106.496 37.5364 106.429 38.0092 106.361 38.5384C106.294 39.0675 106.215 39.6417 106.125 40.2722C106.091 40.4974 106.08 40.7113 106.057 40.914C106.046 41.1166 106.035 41.2968 106.035 41.4657C106.035 44.0552 107.329 45.3612 109.93 45.3612C110.245 45.3612 110.594 45.3387 111 45.2936C111.394 45.2486 111.844 45.1923 112.328 45.1022L113.06 46.1268H113.319C113.432 46.1605 113.51 46.1605 113.555 46.1493C113.601 46.138 113.668 46.1268 113.747 46.1268H113.961C114.051 46.1268 114.13 46.138 114.22 46.1718C117.642 45.744 119.365 43.875 119.388 40.5762C119.388 39.9457 119.388 39.2364 119.41 38.4371C119.421 37.6377 119.433 36.9284 119.433 36.2979C120.288 36.4668 121.223 36.8496 122.236 37.4575C123.249 38.0543 124.296 38.8536 125.377 39.8557C126.064 40.2272 126.661 40.6212 127.167 41.0266C127.685 41.4431 128.136 41.9047 128.541 42.4114L128.496 42.3663C128.834 42.7942 129.228 43.3008 129.667 43.8863C130.106 44.4717 130.601 45.1247 131.142 45.834L131.311 46.048C131.705 46.0254 132.132 45.9691 132.571 45.9016C133.011 45.834 133.461 45.7665 133.923 45.7102C134.373 45.6539 134.846 45.5863 135.307 45.5188C135.78 45.4512 136.208 45.3837 136.613 45.3274L136.917 41.308L137.773 41.3531L137.39 47.2526L136.58 47.2076V46.8248L131.198 47.4665L130.815 46.701L130.86 46.791C130.489 46.3407 130.128 45.8678 129.768 45.4062C129.408 44.9333 129.059 44.4605 128.721 43.9763C128.44 43.5823 128.147 43.2108 127.865 42.8617C127.584 42.524 127.291 42.1975 127.01 41.8822C126.897 41.8822 126.796 41.8372 126.706 41.7584C126.616 41.6796 126.514 41.5895 126.402 41.4994V41.5445C126.312 41.4882 126.244 41.4431 126.188 41.3981C126.131 41.3531 126.064 41.3193 125.974 41.2968C125.377 40.8689 124.814 40.5087 124.308 40.2272C123.79 39.9457 123.306 39.7093 122.855 39.5404C122.596 39.4278 122.371 39.3152 122.168 39.2252C121.966 39.1238 121.774 39 121.572 38.8649C121.538 39.349 121.515 39.8106 121.482 40.2272C121.448 40.655 121.414 41.1504 121.358 41.7246C121.504 41.7021 121.605 41.7133 121.673 41.7696C121.741 41.8259 121.786 41.9047 121.786 42.0061C121.786 42.1074 121.786 42.2087 121.763 42.3213C121.752 42.4339 121.729 42.569 121.696 42.7041C121.718 44.2466 121.088 45.4287 119.77 46.2506C119.174 46.6221 118.476 47.05 117.699 47.5566C116.911 48.052 116.077 48.6037 115.199 49.2004C114.197 48.9189 113.342 48.6487 112.61 48.4123C111.878 48.1646 111.259 47.9507 110.752 47.748H110.797C110.336 47.5791 109.896 47.3652 109.446 47.1288C109.007 46.8811 108.557 46.5996 108.095 46.2506L107.791 45.9917C107.532 45.8453 107.296 45.6764 107.059 45.4738C106.834 45.2711 106.62 45.0459 106.44 44.787C106.249 44.528 106.102 44.2691 105.967 44.0214C105.832 43.7737 105.742 43.526 105.686 43.2896C105.652 43.1207 105.596 42.9293 105.494 42.7379C105.393 42.5352 105.292 42.3101 105.168 42.0511C105.021 41.7133 104.954 41.3193 104.954 40.8915C104.954 40.5199 104.999 40.1484 105.078 39.7768V39.8219C105.168 39.0225 105.247 38.3019 105.337 37.6377C105.427 36.9847 105.506 36.388 105.596 35.8475C105.708 35.2734 105.922 34.7667 106.237 34.3276C106.553 33.8885 106.969 33.5508 107.476 33.3256C107.926 33.1229 108.365 32.9315 108.782 32.7289C109.198 32.5262 109.604 32.3348 109.998 32.1322C110.392 31.907 110.876 31.7381 111.428 31.6368C111.979 31.5355 112.576 31.5129 113.206 31.5692H113.972C114.085 30.8824 114.197 30.2407 114.31 29.6215C114.422 29.0135 114.546 28.3267 114.693 27.5949C114.299 27.3697 113.938 27.1896 113.623 27.0657C113.308 26.9419 112.993 26.8406 112.677 26.7843C111.968 26.6717 111.405 26.5028 111.011 26.2664C110.639 26.0412 110.279 25.8385 109.919 25.6697C109.559 25.5008 109.288 25.3544 109.086 25.2418L108.354 24.4312C108.039 24.116 107.757 23.812 107.498 23.508C107.239 23.204 107.003 22.8775 106.766 22.506C106.564 22.1907 106.451 21.9092 106.429 21.6503C106.395 21.3913 106.395 21.1099 106.429 20.7946V20.8397V20.4118C106.395 20.243 106.384 20.0741 106.361 19.9165C106.35 19.7588 106.361 19.5787 106.429 19.3873V19.0833C106.429 18.5654 106.575 17.9687 106.857 17.2932C107.194 16.5839 107.645 16.066 108.185 15.7507C108.41 15.6044 108.669 15.458 108.951 15.3004C109.232 15.1428 109.547 14.9851 109.896 14.805C110.212 14.6361 110.549 14.501 110.898 14.3997C111.259 14.2983 111.619 14.2308 111.991 14.2083C112.328 14.2421 112.644 14.2646 112.914 14.2983C113.184 14.3321 113.443 14.3659 113.702 14.4222C114.04 14.5348 114.445 14.6249 114.895 14.6811C114.985 14.7149 115.075 14.7262 115.177 14.7262C115.278 14.7262 115.368 14.7374 115.458 14.7712C115.627 14.8613 115.74 14.9063 115.785 14.9176C115.83 14.9288 115.864 14.9514 115.886 14.9851L115.841 15.0302C116.066 15.1202 116.28 15.199 116.483 15.2666C116.685 15.3342 116.877 15.4017 117.079 15.458L117.125 15.503C117.406 15.6494 117.676 15.807 117.913 15.9984C118.149 16.1898 118.385 16.3812 118.622 16.5726C118.825 16.6064 118.96 16.6627 119.05 16.7415C119.14 16.8316 119.252 16.9216 119.388 17.0455C119.421 17.1018 119.455 17.1468 119.511 17.1918C119.568 17.2369 119.624 17.2707 119.68 17.2932L120.153 17.8448V17.7998C120.412 18.1151 120.637 18.4528 120.84 18.8244C121.043 19.1959 121.2 19.6237 121.313 20.1079L121.268 20.0628C121.47 20.9185 121.684 21.6278 121.909 22.202L121.054 32.7627L121.527 32.5487V32.3799C121.617 32.3573 121.684 32.3348 121.741 32.3348C122.078 32.2448 122.427 32.2673 122.765 32.3799C123.103 32.4924 123.474 32.6613 123.88 32.8978C124.33 33.1792 124.78 33.4157 125.208 33.6071C125.636 33.7985 126.053 33.9223 126.447 34.0124C126.965 34.778 127.449 35.2846 127.899 35.5098C128.158 35.735 128.417 35.9714 128.665 36.2191C128.924 36.4668 129.183 36.6807 129.43 36.8833L129.385 36.9284L129.475 36.8833L129.43 36.9284C129.768 37.2661 130.083 37.6152 130.354 37.9529C130.624 38.2907 130.883 38.6172 131.142 38.9324L130.286 32.0534L131.097 31.8394L134.564 42.1862H134.576ZM110.977 38.5159C110.943 37.086 112.092 36.1515 114.4 35.6899L114.873 36.3317L114.659 40.306C114.569 40.8464 114.411 41.2968 114.163 41.657C113.916 42.0173 113.499 42.2763 112.902 42.4452C112.159 42.3326 111.608 42.0286 111.236 41.5445C110.865 41.0603 110.685 40.2722 110.685 39.1914L110.943 38.8874V38.696C110.943 38.696 110.955 38.5947 110.989 38.5046L110.977 38.5159ZM113.454 17.9462C113.601 17.9462 113.691 17.98 113.758 18.0362C114.726 18.1263 115.379 18.3627 115.728 18.7681C116.066 19.1621 116.303 19.7363 116.415 20.4794C116.044 21.8192 115.244 22.4834 114.017 22.4834H113.736C113.668 22.4834 113.589 22.4722 113.499 22.4384C113.24 22.6073 112.959 22.6974 112.644 22.6974C112.475 22.6974 112.306 22.6748 112.148 22.6073C111.991 22.551 111.833 22.4834 111.653 22.3934C111.112 22.1119 110.842 21.639 110.842 20.986C110.842 20.8734 110.842 20.7496 110.865 20.6258C110.876 20.5019 110.898 20.3668 110.932 20.2204C110.842 19.6462 110.966 19.1846 111.292 18.8131C111.619 18.4416 112.182 18.1263 112.981 17.8674L113.454 17.9912C113.398 17.9349 113.398 17.9237 113.454 17.9462ZM113.195 20.1304C113.049 20.2204 112.925 20.6595 112.812 21.4589C112.835 21.4927 112.88 21.5152 112.936 21.549C113.049 21.5827 113.206 21.6165 113.409 21.6503C113.612 21.6953 113.792 21.6841 113.961 21.6278C114.107 21.6616 114.242 21.6503 114.389 21.6053C114.535 21.5602 114.67 21.5152 114.816 21.4589H114.771C114.974 21.3125 115.053 21.0423 115.03 20.6483V20.3443C115.03 20.3443 115.042 20.2767 115.075 20.2204C115.075 20.1641 115.087 20.1079 115.12 20.0516C115.087 19.9615 115.019 19.9052 114.907 19.8827C114.794 19.8602 114.681 19.8376 114.569 19.8376H114.31C114.051 19.8939 113.837 19.939 113.646 19.984C113.454 20.029 113.308 20.0741 113.195 20.1304ZM113.364 38.6847C113.218 38.7973 113.128 38.9099 113.06 39.0225C113.004 39.8444 112.993 40.3173 113.015 40.4298C112.981 40.8014 112.981 41.1279 113.015 41.4094H113.06C113.319 41.4431 113.499 41.308 113.589 41.0266C113.691 40.7451 113.713 40.3736 113.657 39.9119L113.702 39.698L113.792 38.3245C113.702 38.3808 113.623 38.4258 113.555 38.4708C113.488 38.5159 113.42 38.5722 113.364 38.6622V38.6847ZM131.198 16.4938L136.028 16.7978L136.073 17.7435C136.186 17.8561 136.298 17.9912 136.411 18.1488C136.523 18.3065 136.613 18.4303 136.67 18.5091V18.5541C135.927 18.5541 135.184 18.5541 134.429 18.5316C133.675 18.5204 132.921 18.5091 132.189 18.5091V18.3853C132.076 18.3627 131.975 18.329 131.885 18.2952C131.795 18.2727 131.66 18.2389 131.457 18.2051V18.5091H130.263L131.198 16.5051V16.4938ZM132.177 18.5091C132.065 19.4774 131.952 20.4344 131.862 21.3688C131.761 22.3146 131.66 23.2378 131.536 24.1497L131.446 18.5091H132.177ZM136.67 18.5429H137.818C137.537 20.682 137.266 22.7987 137.007 24.8928C136.748 26.9869 136.49 29.0585 136.242 31.1076L136.67 18.5429Z" fill="var(--fill-0, #353535)"/>
<g id="Group">
<path id="Vector_5" d="M150.799 18.802C150.09 19.0047 149.279 19.106 148.367 19.106H148.176C148.075 19.106 147.951 19.0947 147.816 19.0609L148.12 19.8265C148.232 19.804 148.322 19.7702 148.401 19.7365C148.469 19.714 148.536 19.6802 148.593 19.6464C147.883 19.9616 147.275 20.2544 146.78 20.5471C146.285 20.8286 145.89 21.0988 145.609 21.3577C145.609 21.3915 145.609 21.4028 145.586 21.4028C145.575 21.4028 145.564 21.414 145.564 21.4478L146.296 22.0895C146.498 22.1458 146.701 22.2134 146.915 22.2809C147.129 22.3485 147.332 22.416 147.534 22.4723C147.906 22.5624 148.266 22.6412 148.604 22.7313C148.942 22.8214 149.212 22.8889 149.414 22.9452H149.369C149.572 23.0353 149.763 23.1141 149.944 23.1816C150.124 23.2492 150.326 23.328 150.518 23.4181C150.709 23.5081 150.968 23.587 151.272 23.6545C151.576 23.7221 152.015 23.7896 152.623 23.8459C152.454 23.9585 152.24 24.1274 152.004 24.3413C151.756 24.5552 151.509 24.7579 151.25 24.9605C150.991 25.1632 150.754 25.3546 150.518 25.5572C150.293 25.7599 150.124 25.9175 150 26.0301L149.617 26.3341C149.561 26.593 149.505 26.8295 149.471 27.0659C149.426 27.2911 149.392 27.5388 149.358 27.7977L149.054 27.7527C149.088 28.0341 149.088 28.2481 149.077 28.3944C149.065 28.5408 149.054 28.6646 149.054 28.7772V28.8673C149.02 29.1262 149.246 30.376 149.696 32.6277L147.343 40.7903L146.532 40.6664L147.602 30.5786C147.602 29.6104 147.928 28.4958 148.581 27.246C149.009 25.6248 149.966 24.6678 151.441 24.3863C151.069 23.9923 150.675 23.677 150.27 23.4406C149.854 23.2154 149.403 23.0465 148.919 22.9227C148.604 22.8326 148.255 22.7425 147.872 22.6412C147.489 22.5399 147.084 22.4386 146.679 22.326C146.262 22.2134 145.857 22.1008 145.463 21.9882C145.069 21.8756 144.697 21.763 144.348 21.6505C145.035 20.9974 145.654 20.457 146.206 20.0517C146.757 19.6351 147.287 19.3199 147.771 19.0947C147.602 19.0947 147.41 19.0947 147.219 19.0722C147.016 19.0609 146.825 19.0497 146.645 19.0272C146.453 19.0159 146.296 19.0047 146.149 18.9821C146.003 18.9709 145.902 18.9596 145.845 18.9596C149.032 17.3609 151.97 16.5615 154.65 16.5615C154.965 16.5615 155.292 16.5615 155.629 16.584C155.967 16.5953 156.294 16.6178 156.609 16.6516C157.262 16.8205 157.858 16.9668 158.399 17.0794C158.939 17.192 159.435 17.2821 159.896 17.3384L159.727 18.149C159.446 18.0589 159.153 17.9914 158.849 17.9351C158.545 17.8788 158.241 17.8337 157.926 17.8112C157.442 17.845 156.89 17.8675 156.282 17.9013C155.674 17.9351 155.044 17.9576 154.425 17.9914C153.772 18.0251 153.152 18.0927 152.567 18.2278C151.981 18.3516 151.418 18.543 150.878 18.802L150.788 18.847L150.799 18.802ZM147.591 47.478C147.681 47.5343 147.737 47.5906 147.782 47.6468C147.827 47.7031 147.872 47.7707 147.928 47.8608L146.352 47.6018L147.895 42.6817L148.66 42.9407L147.591 47.4667V47.478ZM149.122 48.0747C149.032 48.1647 148.942 48.2436 148.84 48.3336C148.739 48.4237 148.649 48.5025 148.559 48.5926C148.412 48.4462 148.3 48.3224 148.199 48.2098C148.097 48.0972 148.007 47.9846 147.917 47.872L149.11 48.0859L149.122 48.0747ZM148.66 19.6126C148.66 19.6126 148.649 19.6577 148.615 19.6577H148.57C148.57 19.6577 148.626 19.6464 148.66 19.6126ZM154.774 32.0873C154.83 31.772 154.886 31.4906 154.942 31.2316C154.999 30.9727 155.055 30.7475 155.111 30.5448C155.539 31.2541 156.417 32.1999 157.757 33.3708L154.593 48.9754L149.122 48.0747C149.516 47.7369 149.91 47.3992 150.281 47.0727C150.653 46.7461 151.036 46.3971 151.441 46.0256C152.015 43.6838 152.578 41.3645 153.13 39.0564C153.682 36.7484 154.233 34.4066 154.774 32.0423V32.0873ZM157.633 26.2328C157.836 26.1202 158.084 25.9963 158.399 25.85C158.714 25.7036 159.063 25.5347 159.468 25.3321C159.525 25.3883 159.581 25.4446 159.637 25.5009C159.694 25.5572 159.761 25.6135 159.851 25.6698C159.255 25.7824 158.725 26.0301 158.275 26.4129C157.813 26.7957 157.307 27.2911 156.733 27.8878C156.395 28.2593 156.102 28.5971 155.877 28.9123C155.652 29.2276 155.483 29.5203 155.359 29.813C155.246 30.0382 155.156 30.2859 155.1 30.5448C154.841 30.0945 154.762 29.723 154.841 29.4302C155.044 29.0587 155.258 28.6872 155.505 28.3156C155.742 27.9441 155.978 27.6288 156.215 27.3699C156.451 27.1109 156.688 26.8858 156.947 26.6831C157.205 26.4804 157.431 26.3228 157.633 26.2102V26.2328ZM159.255 21.4028C159.086 21.4365 158.917 21.4703 158.737 21.5041C158.568 21.5491 158.376 21.5942 158.185 21.6505C157.847 21.7405 157.532 21.8193 157.239 21.8869C156.958 21.9544 156.71 22.022 156.507 22.0783C156.305 21.9657 156.113 21.8531 155.911 21.763C155.708 21.6617 155.517 21.5604 155.314 21.4478C155.539 21.3915 155.776 21.3465 156.023 21.3239C156.26 21.3014 156.519 21.2789 156.778 21.2789C157.059 21.2789 157.352 21.2902 157.656 21.3239C157.96 21.3577 158.275 21.414 158.613 21.4928C158.725 21.4703 158.838 21.4478 158.928 21.4478C159.018 21.4478 159.131 21.4365 159.255 21.4028ZM156.226 22.1346H156.372C156.372 22.1346 156.462 22.1233 156.519 22.0895C157.149 22.4611 157.757 22.9002 158.354 23.3956C158.951 23.8909 159.525 24.4539 160.065 25.0844C159.953 25.1407 159.851 25.1857 159.761 25.2307C159.671 25.2758 159.581 25.3095 159.457 25.3321L159.412 25.287V24.8142C158.984 24.1837 158.511 23.7446 158.005 23.4856C157.487 23.2267 156.89 23.0353 156.215 22.8889V22.1233L156.226 22.1346ZM159.255 21.4028C159.649 21.3465 160.02 21.3352 160.369 21.3577C160.167 21.3577 159.975 21.3577 159.795 21.3802C159.604 21.3915 159.435 21.4028 159.266 21.4028H159.255ZM160.155 25.94C160.099 25.9062 160.054 25.8725 160.009 25.8387C159.964 25.7937 159.919 25.7486 159.863 25.6923C160.088 25.636 160.392 25.6023 160.763 25.6023L160.459 26.3341C160.403 26.2778 160.358 26.2328 160.335 26.1877C160.302 26.1427 160.245 26.0639 160.167 25.9513L160.155 25.94ZM163.443 18.498C163.161 18.3516 162.79 18.2841 162.328 18.2841C161.9 18.2841 161.394 18.3516 160.786 18.498L160.741 18.0251C160.684 18.0026 160.628 17.9801 160.594 17.9801C160.561 17.9801 160.504 17.9688 160.448 17.9351C160.358 17.9126 160.279 17.89 160.189 17.89H159.93L159.885 17.0344C159.998 17.0344 160.11 17.0344 160.2 17.0569C160.302 17.0682 160.403 17.0907 160.516 17.1244C160.628 17.1582 160.752 17.1807 160.876 17.2145C161 17.2483 161.135 17.2821 161.281 17.3384L161.157 17.6761H164.512C164.816 17.6761 165.064 17.6649 165.255 17.6311C166.055 17.9688 166.798 18.3179 167.496 18.6556C168.194 18.9934 168.87 19.3424 169.523 19.6802V19.7252L169.646 19.7702V19.8153C169.703 19.8491 169.759 19.9166 169.815 20.0292C170.097 20.1418 170.378 20.3107 170.648 20.5246C170.919 20.7385 171.166 20.9749 171.391 21.2339L171.268 21.2789C171.921 21.7067 172.427 22.1233 172.765 22.5174C172.968 22.979 173.114 23.4068 173.215 23.8234C173.317 24.24 173.362 24.6453 173.362 25.0393C173.362 25.4334 173.317 25.8049 173.238 26.1539L174.262 34.3165L173.407 34.4066C173.351 33.4383 173.294 32.4926 173.238 31.5806C173.182 30.6687 173.125 29.723 173.069 28.7547C172.844 28.3269 172.731 27.8428 172.731 27.3023C172.731 27.0434 172.743 26.8182 172.776 26.6155C172.833 26.3904 172.866 26.1652 172.866 25.9288C172.866 25.591 172.799 25.2758 172.652 24.983C172.371 24.4426 172.067 23.9247 171.752 23.4406C171.437 22.9565 171.11 22.5737 170.772 22.2809L170.558 22.067L170.434 21.4253C170.209 21.2564 169.973 21.0875 169.725 20.9299C169.477 20.7723 169.264 20.5921 169.061 20.4007C168.971 20.3444 168.813 20.2881 168.588 20.2319C168.363 20.1756 168.036 20.0855 167.609 19.9504C167.181 19.8265 166.764 19.6689 166.37 19.5C165.999 19.2974 165.571 19.1285 165.087 18.9709C164.602 18.8133 164.073 18.6669 163.51 18.5205L163.42 18.4755L163.443 18.498ZM165.886 22.6412C165.661 22.5512 165.391 22.4611 165.098 22.3372C164.794 22.2246 164.49 22.1233 164.175 22.0332C163.6 21.8644 162.992 21.718 162.339 21.6054C161.686 21.4928 161.045 21.4028 160.414 21.3465H160.369C160.516 21.3239 160.651 21.3014 160.797 21.3014H161.225C163.274 21.3014 164.715 21.6392 165.537 22.326C165.593 22.3823 165.65 22.4273 165.706 22.4723C165.762 22.5174 165.818 22.5624 165.875 22.6187L165.886 22.6412ZM167.293 26.4016C167.496 28.856 167.687 31.2879 167.868 33.7085C168.048 36.1292 168.239 38.5723 168.442 41.0155C168.183 38.6173 167.924 36.2418 167.676 33.8774C167.417 31.5131 167.158 29.1375 166.911 26.7394C166.944 26.593 166.956 26.4354 166.956 26.2665V25.7937C166.956 24.3976 166.595 23.3393 165.886 22.63C165.976 22.6637 166.055 22.6975 166.145 22.7313C166.235 22.7763 166.303 22.8101 166.359 22.8326C166.449 22.8664 166.528 22.8889 166.618 22.9227C166.708 22.9565 166.775 22.979 166.832 23.0128C167.147 23.4068 167.428 24.026 167.687 24.8479C167.913 25.7036 167.789 26.2102 167.305 26.3904L167.293 26.4016ZM168.96 47.8608L168.149 47.6919C168.262 47.4104 168.374 47.1177 168.464 46.8362C168.566 46.5548 168.667 46.262 168.791 45.9806C168.813 46.262 168.836 46.5548 168.858 46.8362C168.87 47.1177 168.892 47.3879 168.926 47.6468L168.971 47.8608H168.96ZM168.791 45.9806C168.734 45.1587 168.678 44.3255 168.622 43.5036C168.566 42.6818 168.509 41.8486 168.453 41.0267L168.926 45.6878C168.87 45.8342 168.824 45.9355 168.802 45.9918L168.791 45.9806ZM175.715 47.6581C174.803 47.9396 173.947 48.2098 173.148 48.4462C172.348 48.6827 171.493 48.9416 170.581 49.1893C170.491 49.0992 170.401 49.0204 170.299 48.9529C170.198 48.8853 170.119 48.8178 170.063 48.7615L173.609 48.2436C173.497 47.4442 173.384 46.6786 173.294 45.9355C173.193 45.1924 173.092 44.4494 172.99 43.7176C172.889 42.9745 172.788 42.2201 172.686 41.4545C172.585 40.689 172.495 39.8896 172.405 39.0564L175.692 47.6468L175.715 47.6581Z" fill="var(--fill-0, #353535)"/>
<path id="Vector_6" d="M198.885 33.9789L199.009 34.4517C198.806 34.4855 198.626 34.4968 198.457 34.5193C198.289 34.5305 198.131 34.5418 197.985 34.5418L188.797 40.2275L191.364 24.9719L191.916 24.803C191.882 23.9473 192.141 23.3056 192.682 22.8778C192.772 22.8215 192.851 22.7652 192.941 22.7089C193.031 22.6526 193.11 22.5963 193.2 22.54C193.537 22.2585 193.864 21.9883 194.179 21.7294C194.697 21.3578 195.271 21.0876 195.935 20.9188C196.588 20.7499 197.264 20.6035 197.94 20.4909L198.367 20.4459C198.48 20.4234 198.604 20.4008 198.728 20.4008H199.133C199.414 20.4008 199.685 20.4121 199.944 20.4459C200.203 20.4797 200.416 20.5022 200.585 20.536H200.495C203.603 20.7611 205.933 21.3804 207.487 22.3936C209.041 23.4069 209.84 24.8143 209.908 26.6044C210.054 29.1939 210.2 31.8622 210.358 34.5981C210.515 37.334 210.673 40.0023 210.853 42.5918C211.191 42.8733 211.518 43.1435 211.81 43.3799C212.114 43.6276 212.396 43.8528 212.666 44.0892C212.936 44.3144 213.218 44.5508 213.522 44.7985C213.826 45.0462 214.152 45.3051 214.524 45.5866C214.377 42.0289 214.242 38.5161 214.118 35.0484C213.994 31.5808 213.871 28.068 213.758 24.5103C213.386 24.2288 212.801 23.7447 211.979 23.0804C211.169 22.4162 210.223 21.6055 209.142 20.6598C208.376 20.0631 207.329 19.5677 206.023 19.1849C204.717 18.8021 203.119 18.5657 201.238 18.4756L201.114 17.71H201.159L200.687 17.6199H200.304C200.157 17.6199 200.034 17.6087 199.921 17.5749C199.696 17.5749 199.437 17.5749 199.155 17.5524C198.874 17.5411 198.57 17.5299 198.255 17.5299C198.165 17.5299 198.075 17.5299 197.973 17.5524C197.872 17.5637 197.793 17.5749 197.737 17.5749L197.647 16.7192C197.759 16.7192 197.872 16.7192 197.973 16.6967C198.075 16.6855 198.198 16.6742 198.334 16.6742H198.379C199.234 16.7868 200.022 16.9444 200.732 17.1471C201.159 16.9782 201.52 16.9219 201.801 16.9782L201.677 17.5299C202.364 17.3047 202.961 17.2484 203.468 17.361C203.918 17.3948 204.379 17.4623 204.83 17.5974C205.28 17.7213 205.753 17.8902 206.237 18.0928C207.239 18.5206 208.027 19.016 208.635 19.5902C208.86 19.8492 209.153 20.0518 209.491 20.2094C209.829 20.3671 210.223 20.4684 210.639 20.5247C210.752 20.6936 211.011 20.9863 211.405 21.3804C211.461 21.4704 211.518 21.538 211.574 21.5943C211.596 21.6506 211.641 21.6956 211.675 21.7181C211.72 21.7519 211.754 21.7744 211.776 21.8082C211.81 21.842 211.833 21.8645 211.867 21.8983C212.069 22.1234 212.272 22.3711 212.486 22.6301C212.7 22.889 212.925 23.1818 213.15 23.5308C213.375 23.846 213.589 24.1387 213.792 24.4315C213.994 24.7129 214.175 25.0057 214.343 25.2871C214.546 25.6024 214.67 25.9064 214.726 26.2104C214.783 26.5143 214.794 26.8296 214.771 27.1673C214.738 27.3925 214.749 27.629 214.794 27.8766C214.839 28.1243 214.895 28.372 214.985 28.6197L217.721 48.2887L208.996 49.5722L208.737 47.9509V47.8609C208.421 45.5528 208.095 43.1772 207.757 40.7228C207.419 38.2684 207.07 35.8253 206.733 33.3709C206.676 33.4835 206.597 33.5961 206.496 33.7087C206.395 33.8212 206.316 33.9226 206.26 34.0126C206.091 34.2153 205.933 34.4292 205.787 34.6544C205.64 34.8796 205.517 35.0935 205.404 35.2961C204.976 35.8703 204.47 36.4558 203.884 37.0525C203.299 37.6492 202.623 38.291 201.858 38.9777C200.405 40.2612 199.437 41.3984 198.953 42.4004C198.694 42.9408 198.356 43.5038 197.951 44.0892C197.534 44.6747 197.028 45.2826 196.431 45.9019C195.89 46.5323 195.395 47.1516 194.956 47.7821C194.517 48.4126 194.123 49.0543 193.785 49.7073L185.668 49.6623L183.956 48.041H184.215C184.125 47.9509 184.069 47.8947 184.046 47.8721L184.17 47.7483L183.911 47.7933L179.633 23.2606L180.488 23.1367C181.085 27.3024 181.671 31.3894 182.245 35.4312C182.819 39.4619 183.404 43.56 184.001 47.7258H184.305L184.688 47.4668V47.6357H184.902L184.778 48.0185L192.175 47.3768C194.055 45.2151 195.924 43.0759 197.771 40.9593C199.617 38.8539 201.486 36.7147 203.366 34.5418C203.94 33.5173 204.402 32.6278 204.774 31.8735C205.145 31.1192 205.415 30.4661 205.584 29.9257C205.584 29.7794 205.584 29.6443 205.607 29.4979C205.618 29.3515 205.629 29.2164 205.629 29.0701C205.629 28.2482 205.483 27.6402 205.201 27.2799C204.999 26.9985 204.785 26.7057 204.537 26.4017C204.289 26.0978 204.042 25.805 203.794 25.5236C203.535 25.2421 203.265 25.0282 202.983 24.8818C202.702 24.7355 202.409 24.6454 202.128 24.5778C201.756 24.5215 201.385 24.4652 200.991 24.409C200.608 24.3527 200.146 24.2964 199.606 24.2401C198.896 24.3301 198.221 24.5215 197.602 24.8143C196.971 25.1183 196.487 25.4335 196.149 25.7713H196.194C195.992 25.9739 195.789 26.1653 195.575 26.368C195.361 26.5706 195.159 26.762 194.956 26.9647C194.866 27.0773 194.798 27.2124 194.742 27.37C194.686 27.5276 194.652 27.7078 194.652 27.8992C194.652 28.068 194.663 28.2707 194.697 28.4959C194.697 28.6085 194.697 28.721 194.674 28.8111C194.663 28.9124 194.652 29.0363 194.652 29.1714C194.652 30.9615 195.958 32.4927 198.581 33.7424C198.604 33.7199 198.649 33.6974 198.683 33.6749C198.728 33.6636 198.761 33.6524 198.795 33.6524L198.84 33.8663C198.84 33.8663 198.93 33.8775 199.009 33.9113L198.885 34.0014V33.9789ZM185.544 25.2083C185.6 24.8143 185.645 24.4427 185.668 24.0937C185.69 23.7559 185.724 23.4294 185.758 23.1142C185.78 22.7427 185.893 22.3824 186.073 22.0446C186.253 21.7069 186.523 21.3804 186.861 21.0651C187.142 20.8062 187.413 20.5472 187.672 20.277C187.931 20.0068 188.167 19.7591 188.403 19.5339C188.921 18.9372 189.563 18.4531 190.329 18.0816C190.903 17.6875 191.713 17.3385 192.761 17.057C193.841 16.7418 194.855 16.5841 195.8 16.5841C196.082 16.6179 196.352 16.6292 196.611 16.6292H197.343C197.343 16.6292 197.41 16.6292 197.467 16.6517C197.523 16.663 197.568 16.6742 197.59 16.6742L197.545 17.5299C197.208 17.4736 196.881 17.4398 196.566 17.4398C195.598 17.4398 194.686 17.6425 193.83 18.0365C193.177 18.318 192.547 18.5882 191.95 18.8246C191.353 19.0723 190.79 19.2862 190.284 19.4889C189.822 19.6353 189.405 19.9055 189.023 20.2995C188.64 20.6936 188.291 21.1777 187.976 21.7519C187.66 22.3486 187.368 22.9566 187.075 23.5646C186.793 24.1725 186.546 24.7805 186.343 25.3772V25.3322C186.309 25.4222 186.298 25.5123 186.275 25.6136C186.264 25.715 186.242 25.805 186.208 25.8951L185.397 25.7262L185.521 25.2083H185.544ZM192.085 24.7355C192.029 24.6792 191.972 24.6904 191.916 24.7805L192.085 24.7355ZM205.686 25.9401C205.686 25.9401 205.731 25.9852 205.753 25.9852C205.764 25.9852 205.776 25.9964 205.776 26.0302L207.915 26.9759V26.6382C207.915 26.0978 207.825 25.5799 207.633 25.0957C207.453 24.6116 207.16 24.195 206.755 23.8573C206.496 23.6546 206.226 23.4745 205.944 23.3281C205.663 23.1705 205.359 23.0466 205.044 22.9678C204.706 22.8778 204.368 22.7877 204.042 22.6864C203.715 22.585 203.411 22.495 203.119 22.4049C202.837 22.2923 202.533 22.236 202.218 22.236C202.071 22.236 201.925 22.236 201.767 22.2585C201.61 22.2698 201.43 22.3036 201.238 22.3599C200.923 22.4162 200.597 22.4499 200.259 22.4499C199.831 22.4499 199.448 22.3824 199.099 22.236C198.446 22.3486 197.782 22.4837 197.106 22.6413C196.442 22.799 195.733 23.0579 194.99 23.4294C194.247 23.7672 193.717 24.2513 193.413 24.8818C193.098 25.5123 192.952 26.2779 192.986 27.1899L192.389 36.0843C193.132 35.8028 193.875 35.5101 194.629 35.2286C195.384 34.9471 196.127 34.6544 196.87 34.3729C196.814 34.3729 196.769 34.3279 196.746 34.2491C196.69 34.1928 196.622 34.1252 196.555 34.0577C196.487 33.9901 196.408 33.9113 196.318 33.8212L195.8 33.2245C194.551 32.1662 193.808 30.8827 193.582 29.3741C193.605 28.3495 193.74 27.4376 193.965 26.6382C194.19 25.8388 194.517 25.2308 194.945 24.803C195.147 24.6341 195.395 24.4315 195.71 24.2063C196.026 23.9811 196.397 23.7334 196.825 23.4745C197.399 23.1029 198.075 22.9228 198.874 22.9228C199.324 22.9228 199.82 22.9791 200.326 23.0917C200.383 23.0917 200.484 23.1029 200.63 23.1367C200.968 23.2268 201.351 23.3281 201.767 23.452C202.184 23.5758 202.668 23.8348 203.242 24.195C203.445 24.3076 203.614 24.409 203.76 24.499C203.907 24.5891 204.042 24.6679 204.188 24.758C204.278 24.8143 204.368 24.8593 204.47 24.9043C204.571 24.9494 204.65 24.9831 204.706 25.0057C204.875 25.1183 205.055 25.2646 205.235 25.4335C205.415 25.6024 205.573 25.7713 205.686 25.9514V25.9401ZM200.597 26.4017C201.599 26.5706 202.263 26.9309 202.601 27.4713C202.938 27.9555 203.197 28.6085 203.366 29.4416C203.141 30.9841 202.364 31.7046 201.058 31.6258C199.685 31.6821 198.705 31.3894 198.108 30.7251C197.771 30.3536 197.59 29.937 197.59 29.4866C197.59 29.2615 197.658 29.0138 197.804 28.7548C197.771 28.6422 197.759 28.5409 197.759 28.4508V28.1919C197.759 27.674 197.985 27.2462 198.446 26.8859C198.896 26.5256 199.572 26.2329 200.45 26.0077L200.54 26.3905H200.63H200.585L200.597 26.4017ZM199.865 28.5409C199.718 28.7661 199.673 29.4416 199.741 30.545C199.831 30.635 199.966 30.6688 200.169 30.6688C200.315 30.6688 200.529 30.6575 200.81 30.6238C201.261 30.7364 201.599 30.6575 201.813 30.3648C202.026 30.0834 202.15 29.5992 202.173 28.9124V28.676C202.173 28.6085 202.162 28.5071 202.128 28.3945C201.925 28.372 201.745 28.327 201.576 28.2932C201.407 28.2482 201.295 28.2482 201.238 28.2707C200.473 28.2707 200.011 28.3608 199.876 28.5296L199.865 28.5409Z" fill="var(--fill-0, #353535)"/>
<path id="Vector_7" d="M238.989 33.9789L239.113 34.4517C238.91 34.4855 238.73 34.4968 238.561 34.5193C238.392 34.5305 238.235 34.5418 238.088 34.5418L228.901 40.2275L231.468 24.9719L232.02 24.803C231.986 23.9473 232.245 23.3056 232.785 22.8778C232.875 22.8215 232.954 22.7652 233.044 22.7089C233.134 22.6526 233.213 22.5963 233.303 22.54C233.641 22.2585 233.967 21.9883 234.283 21.7294C234.801 21.3578 235.375 21.0876 236.039 20.9188C236.703 20.7499 237.368 20.6035 238.054 20.4909L238.482 20.4459C238.595 20.4234 238.719 20.4008 238.842 20.4008H239.248C239.529 20.4008 239.799 20.4121 240.058 20.4459C240.317 20.4797 240.531 20.5022 240.7 20.536H240.61C243.718 20.7611 246.048 21.3804 247.602 22.3936C249.155 23.4069 249.955 24.8143 250.022 26.6044C250.169 29.1939 250.315 31.8622 250.473 34.5981C250.63 37.334 250.788 40.0023 250.968 42.5918C251.306 42.8733 251.632 43.1435 251.925 43.3799C252.229 43.6276 252.511 43.8528 252.781 44.0892C253.051 44.3144 253.332 44.5508 253.636 44.7985C253.94 45.0462 254.267 45.3051 254.638 45.5866C254.492 42.0289 254.357 38.5161 254.233 35.0484C254.109 31.5808 253.985 28.068 253.873 24.5103C253.501 24.2288 252.916 23.7447 252.094 23.0804C251.283 22.4162 250.338 21.6055 249.246 20.6598C248.48 20.0631 247.433 19.5677 246.127 19.1849C244.821 18.8021 243.222 18.5657 241.342 18.4756L241.218 17.71H241.263L240.79 17.6199H240.407C240.261 17.6199 240.137 17.6087 240.025 17.5749C239.799 17.5749 239.541 17.5749 239.259 17.5524C238.978 17.5411 238.674 17.5299 238.358 17.5299C238.268 17.5299 238.178 17.5299 238.077 17.5524C237.976 17.5637 237.897 17.5749 237.84 17.5749L237.75 16.7192C237.863 16.7192 237.976 16.7192 238.066 16.6967C238.167 16.6855 238.291 16.6742 238.426 16.6742H238.471C239.327 16.7868 240.115 16.9444 240.824 17.1471C241.252 16.9782 241.612 16.9219 241.894 16.9782L241.77 17.5299C242.457 17.3047 243.053 17.2484 243.56 17.361C244.01 17.3948 244.472 17.4623 244.933 17.5974C245.384 17.7213 245.857 17.8902 246.341 18.0928C247.343 18.5206 248.131 19.016 248.739 19.5902C248.964 19.8492 249.257 20.0518 249.595 20.2094C249.932 20.3671 250.326 20.4684 250.754 20.5247C250.867 20.6936 251.126 20.9863 251.52 21.3804C251.576 21.4704 251.632 21.538 251.689 21.5943C251.711 21.6506 251.756 21.6956 251.801 21.7181C251.846 21.7519 251.88 21.7744 251.903 21.8082C251.925 21.842 251.959 21.8645 251.993 21.8983C252.195 22.1234 252.398 22.3711 252.612 22.6301C252.826 22.889 253.051 23.1818 253.276 23.5308C253.501 23.846 253.715 24.1387 253.918 24.4315C254.121 24.7129 254.301 25.0057 254.47 25.2871C254.672 25.6024 254.796 25.9064 254.852 26.2104C254.909 26.5143 254.92 26.8296 254.897 27.1673C254.864 27.3925 254.875 27.629 254.92 27.8766C254.965 28.1243 255.021 28.372 255.111 28.6197L257.847 48.2887L249.122 49.5722L248.863 47.9509V47.8609C248.547 45.5528 248.221 43.1772 247.883 40.7228C247.545 38.2684 247.196 35.8253 246.859 33.3709C246.802 33.4835 246.724 33.5961 246.622 33.7087C246.521 33.8212 246.442 33.9226 246.386 34.0126C246.217 34.2153 246.059 34.4292 245.913 34.6544C245.767 34.8796 245.643 35.0935 245.53 35.2961C245.102 35.8703 244.596 36.4558 244.01 37.0525C243.425 37.6492 242.749 38.291 241.984 38.9777C240.531 40.2612 239.563 41.3984 239.079 42.4004C238.82 42.9408 238.482 43.5038 238.077 44.0892C237.66 44.6747 237.154 45.2826 236.557 45.9019C236.017 46.5323 235.521 47.1516 235.082 47.7821C234.643 48.4126 234.249 49.0543 233.911 49.7073L225.794 49.6623L224.082 48.041H224.341C224.251 47.9509 224.195 47.8947 224.172 47.8721L224.296 47.7483L224.037 47.7933L219.759 23.2606L220.615 23.1367C221.211 27.3024 221.797 31.3894 222.371 35.4312C222.945 39.4619 223.519 43.56 224.127 47.7258H224.431L224.814 47.4668V47.6357H225.028L224.904 48.0185L232.301 47.3768C234.181 45.2151 236.05 43.0759 237.897 40.9593C239.754 38.8539 241.612 36.7147 243.492 34.5418C244.067 33.5173 244.528 32.6278 244.9 31.8735C245.271 31.1192 245.541 30.4661 245.71 29.9257C245.71 29.7794 245.71 29.6443 245.733 29.4979C245.744 29.3515 245.755 29.2164 245.755 29.0701C245.755 28.2482 245.609 27.6402 245.327 27.2799C245.125 26.9985 244.911 26.7057 244.663 26.4017C244.416 26.0978 244.168 25.805 243.909 25.5236C243.65 25.2421 243.38 25.0282 243.098 24.8818C242.817 24.7355 242.524 24.6454 242.243 24.5778C241.871 24.5215 241.5 24.4652 241.105 24.409C240.723 24.3527 240.261 24.2964 239.721 24.2401C239.011 24.3301 238.336 24.5215 237.717 24.8143C237.086 25.1183 236.602 25.4335 236.264 25.7713H236.309C236.107 25.9739 235.904 26.1653 235.69 26.368C235.476 26.5706 235.273 26.762 235.071 26.9647C234.981 27.0773 234.913 27.2124 234.857 27.37C234.801 27.5276 234.767 27.7078 234.767 27.8992C234.767 28.068 234.778 28.2707 234.812 28.4959C234.812 28.6085 234.812 28.721 234.789 28.8111C234.778 28.9124 234.767 29.0363 234.767 29.1714C234.767 30.9615 236.073 32.4927 238.696 33.7424C238.719 33.7199 238.764 33.6974 238.797 33.6749C238.842 33.6636 238.876 33.6524 238.899 33.6524L238.944 33.8663C238.944 33.8663 239.034 33.8775 239.113 33.9113L238.989 34.0014V33.9789ZM225.647 25.2083C225.704 24.8143 225.749 24.4427 225.771 24.0937C225.794 23.7447 225.827 23.4294 225.861 23.1142C225.884 22.7427 225.996 22.3824 226.176 22.0446C226.357 21.7069 226.627 21.3804 226.965 21.0651C227.246 20.8062 227.516 20.5472 227.775 20.277C228.034 20.0068 228.271 19.7591 228.507 19.5339C229.025 18.9372 229.655 18.4531 230.432 18.0816C231.006 17.6875 231.817 17.3385 232.864 17.057C233.945 16.7418 234.958 16.5841 235.904 16.5841C236.185 16.6179 236.456 16.6292 236.715 16.6292H237.446C237.446 16.6292 237.514 16.6292 237.57 16.6517C237.627 16.663 237.672 16.6742 237.694 16.6742L237.649 17.5299C237.311 17.4736 236.974 17.4398 236.67 17.4398C235.701 17.4398 234.789 17.6425 233.934 18.0365C233.281 18.318 232.65 18.5882 232.053 18.8246C231.457 19.0723 230.905 19.2862 230.387 19.4889C229.926 19.6353 229.509 19.9055 229.126 20.2995C228.743 20.6936 228.394 21.1777 228.079 21.7519C227.764 22.3486 227.471 22.9566 227.178 23.5646C226.897 24.1725 226.649 24.7805 226.447 25.3772V25.3322C226.413 25.4222 226.402 25.5123 226.379 25.6136C226.368 25.715 226.345 25.805 226.312 25.8951L225.501 25.7262L225.625 25.2083H225.647ZM232.189 24.7355C232.132 24.6792 232.076 24.6904 232.02 24.7805L232.189 24.7355ZM245.778 25.9401C245.778 25.9401 245.823 25.9852 245.845 25.9852C245.868 25.9852 245.868 25.9964 245.868 26.0302L248.007 26.9759V26.6382C248.007 26.0978 247.917 25.5799 247.726 25.0957C247.534 24.6116 247.253 24.195 246.847 23.8573C246.588 23.6546 246.318 23.4745 246.037 23.3281C245.755 23.1705 245.451 23.0466 245.136 22.9678C244.798 22.8778 244.461 22.7877 244.134 22.6864C243.808 22.585 243.504 22.495 243.211 22.4049C242.929 22.2923 242.625 22.236 242.31 22.236C242.164 22.236 242.017 22.236 241.86 22.2585C241.702 22.2698 241.522 22.3036 241.331 22.3599C241.015 22.4162 240.689 22.4499 240.351 22.4499C239.923 22.4499 239.541 22.3824 239.203 22.236C238.55 22.3486 237.885 22.4837 237.21 22.6413C236.534 22.799 235.836 23.0579 235.093 23.4294C234.35 23.7672 233.821 24.2513 233.517 24.8818C233.202 25.5123 233.055 26.2779 233.089 27.1899L232.493 36.0843C233.236 35.8028 233.979 35.5101 234.733 35.2286C235.487 34.9471 236.23 34.6544 236.974 34.3729C236.917 34.3729 236.872 34.3279 236.85 34.2491C236.793 34.1928 236.726 34.1252 236.658 34.0577C236.591 33.9901 236.512 33.9113 236.422 33.8212L235.904 33.2245C234.654 32.1662 233.911 30.8827 233.686 29.3741C233.708 28.3495 233.844 27.4376 234.069 26.6382C234.294 25.8388 234.62 25.2308 235.048 24.803C235.251 24.6341 235.499 24.4315 235.814 24.2063C236.129 23.9811 236.501 23.7334 236.928 23.4745C237.503 23.1029 238.178 22.9228 238.978 22.9228C239.428 22.9228 239.923 22.9791 240.43 23.0917C240.486 23.0917 240.588 23.1029 240.734 23.1367C241.072 23.2268 241.454 23.3281 241.871 23.452C242.288 23.5758 242.772 23.8348 243.346 24.195C243.549 24.3076 243.718 24.409 243.864 24.499C244.01 24.5891 244.145 24.6679 244.292 24.758C244.382 24.8143 244.472 24.8593 244.573 24.9043C244.674 24.9494 244.753 24.9831 244.81 25.0057C244.978 25.1183 245.159 25.2646 245.339 25.4335C245.519 25.6024 245.677 25.7713 245.789 25.9514L245.778 25.9401ZM240.689 26.4017C241.691 26.5706 242.355 26.9309 242.704 27.4713C243.042 27.9555 243.301 28.6085 243.47 29.4416C243.245 30.9841 242.468 31.7046 241.162 31.6258C239.799 31.6821 238.809 31.3894 238.212 30.7251C237.874 30.3536 237.694 29.937 237.694 29.4866C237.694 29.2615 237.762 29.0138 237.908 28.7548C237.874 28.6422 237.863 28.5409 237.863 28.4508V28.1919C237.863 27.674 238.088 27.2462 238.55 26.8859C239 26.5256 239.676 26.2329 240.565 26.0077L240.655 26.3905H240.745H240.7L240.689 26.4017ZM239.968 28.5409C239.822 28.7661 239.788 29.4416 239.844 30.545C239.935 30.635 240.07 30.6688 240.272 30.6688C240.419 30.6688 240.633 30.6575 240.914 30.6238C241.364 30.7364 241.702 30.6575 241.916 30.3648C242.13 30.0834 242.254 29.5992 242.276 28.9124V28.676C242.276 28.6085 242.265 28.5071 242.231 28.3945C242.029 28.372 241.849 28.327 241.68 28.2932C241.511 28.2482 241.398 28.2482 241.342 28.2707C240.576 28.2707 240.115 28.3608 239.968 28.5296V28.5409Z" fill="var(--fill-0, #353535)"/>
<path id="Vector_8" d="M240.047 3.91804C240.081 3.46769 240.216 2.99482 240.453 2.53321C240.7 2.06035 240.97 1.65503 241.286 1.31727C241.567 0.979509 242.029 0.7093 242.659 0.52916C243.29 0.34902 244.022 0.236433 244.877 0.213916C245.418 0.0675524 245.992 0 246.589 0C247.467 0 248.311 0.168881 249.11 0.517901C250.394 1.0358 251.047 1.76762 251.081 2.73587C251.25 2.82594 251.419 2.91601 251.599 3.01734C251.768 3.11867 251.903 3.19748 251.981 3.25377C251.959 3.34384 251.936 3.37762 251.914 3.37762H251.846V3.42265C252.218 3.99685 252.499 4.50349 252.679 4.94258C252.871 5.38167 253.029 5.83202 253.175 6.29363C253.209 6.3837 253.22 6.46251 253.22 6.55258C253.22 6.64265 253.209 6.72146 253.175 6.81153V6.76649V7.31817C253.152 7.57712 253.107 7.8023 253.051 8.00495C253.085 8.00495 253.096 8.00495 253.119 8.02747C253.13 8.03873 253.152 8.04999 253.186 8.04999C253.468 8.16258 253.76 8.25264 254.042 8.33146C254.323 8.39901 254.582 8.43278 254.807 8.43278C254.976 8.43278 255.145 8.38775 255.325 8.30894H255.877L255.922 9.11957C255.528 9.11957 255.078 9.15334 254.593 9.20964C254.166 9.15334 253.727 9.08579 253.287 8.99572C252.848 8.90565 252.443 8.82684 252.072 8.75929C251.7 8.69174 251.407 8.63544 251.171 8.59041C250.946 8.54537 250.799 8.5116 250.743 8.48908L249.583 7.84733C250.101 7.67845 250.529 7.43076 250.889 7.10426C251.25 6.77775 251.486 6.3837 251.599 5.93335C251.43 5.41545 251.216 4.93132 250.979 4.45846C250.743 3.98559 250.36 3.46769 249.842 2.89349V2.93853C249.302 2.36433 248.66 1.98154 247.917 1.77888C247.489 1.66629 247.05 1.5537 246.589 1.44112C246.138 1.32853 245.643 1.20468 245.136 1.05832C244.449 1.05832 243.83 1.14839 243.256 1.33979C242.682 1.53119 242.231 1.8014 241.894 2.17293C241.725 2.39811 241.567 2.61202 241.421 2.79216C241.274 2.9723 241.162 3.14118 241.083 3.28755C240.937 3.56902 240.869 3.99685 240.869 4.57104V4.52601C240.869 4.52601 240.88 4.61608 240.914 4.69489C240.948 4.7737 240.959 4.85251 240.959 4.9088V5.07768L241.004 5.20153V5.24657C241.038 5.30286 241.049 5.37041 241.049 5.46048C241.049 5.43796 241.027 5.39293 240.959 5.33664L240.576 5.50552H240.362L240.576 5.38167L240.239 5.50552H240.194C240.16 5.44922 240.149 5.40419 240.149 5.35915V5.25782C240.115 5.16775 240.103 5.11146 240.103 5.08894V4.99887C240.103 4.85251 240.103 4.69489 240.081 4.52601C240.07 4.35713 240.058 4.18825 240.058 4.00811V3.96307L240.047 3.91804ZM240.182 5.55055L240.227 5.59559V5.64062C240.227 5.64062 240.182 5.58433 240.182 5.55055V5.46048H240.351L240.182 5.55055ZM243.256 9.52488C243.11 9.43481 242.963 9.34474 242.806 9.2209C242.648 9.10831 242.524 8.98446 242.445 8.8381L242.108 8.57915H242.153C241.759 8.29768 241.421 8.01621 241.151 7.746C240.88 7.47579 240.644 7.0367 240.441 6.43999C240.385 6.34992 240.351 6.25985 240.351 6.136C240.351 6.11349 240.351 6.06845 240.329 6.01216C240.317 5.95587 240.306 5.91083 240.306 5.88831H240.261C240.239 5.79824 240.216 5.71943 240.216 5.62936C240.216 5.66314 240.25 5.69691 240.306 5.75321L240.644 5.58433H240.689L240.565 5.6744L240.993 5.58433H241.083C241.196 5.95587 241.353 6.3274 241.556 6.69894V6.65391C242.265 7.56586 243.233 8.27516 244.461 8.79306C244.427 8.90565 244.461 9.00698 244.551 9.09705C244.697 9.18712 244.81 9.25467 244.911 9.31096C245.012 9.36726 245.102 9.42355 245.192 9.47985L247.759 10.3355C248.559 10.7633 249.55 10.9773 250.754 10.9773C251.036 10.9773 251.351 10.966 251.7 10.9322C252.038 10.9097 252.409 10.8647 252.815 10.8084C253.332 11.0673 253.817 11.2249 254.267 11.2812C254.492 11.2812 254.762 11.3038 255.078 11.3488C255.393 11.3938 255.764 11.4726 256.192 11.5852C256.789 11.5289 257.419 11.4614 258.072 11.3713C258.725 11.2812 259.378 11.1687 260.043 11.0336C260.729 10.921 261.349 10.7746 261.9 10.5832C262.452 10.4031 262.959 10.1779 263.42 9.91894V9.96397C263.848 9.70502 264.208 9.43481 264.49 9.15334C264.771 8.87188 264.985 8.55663 265.132 8.20761C265.301 7.86985 265.458 7.5546 265.605 7.26188C265.751 6.98041 265.886 6.7102 266.032 6.45125C265.773 6.1923 265.503 5.95587 265.199 5.71943C264.895 5.49426 264.625 5.24657 264.366 4.98761L264.884 4.34587L266.291 5.46048L266.246 5.41545C266.359 5.47174 266.483 5.53929 266.629 5.60684C266.775 5.6744 266.899 5.74195 267.012 5.79824L268.205 7.08174C268.115 7.19433 268.014 7.34069 267.901 7.53209C267.789 7.72348 267.687 7.86985 267.597 7.98244C267.395 8.35397 267.158 8.72551 266.888 9.11957C266.618 9.50236 266.291 9.85138 265.931 10.1666C265.616 10.4481 265.255 10.7521 264.839 11.0673C264.422 11.3826 264.062 11.6528 263.747 11.878C263.634 11.968 263.51 12.0468 263.387 12.1369C263.263 12.227 263.15 12.2945 263.071 12.3508C262.531 12.4972 261.99 12.6323 261.473 12.7561C260.943 12.88 260.471 12.9926 260.043 13.0714C259.592 13.1614 259.018 13.1952 258.331 13.1952H257.588C257.318 13.1952 257.037 13.184 256.755 13.1502C256.609 13.184 256.462 13.1952 256.305 13.1952H255.809C255.359 13.1952 254.942 13.1614 254.593 13.0939C254.233 13.0263 253.85 12.9588 253.423 12.9025L252.826 12.7787C252.736 12.8124 252.634 12.8237 252.511 12.8237H252.15C251.497 12.8237 250.799 12.6661 250.056 12.3508L250.101 12.3959C249.583 12.1932 249.144 12.0243 248.75 11.878C248.367 11.7316 248.018 11.6077 247.703 11.4952C247.422 11.3826 247.129 11.27 246.825 11.1799C246.521 11.0786 246.228 10.9885 245.947 10.8984C245.913 10.8759 245.879 10.8534 245.823 10.8309C245.767 10.8196 245.722 10.7971 245.699 10.7633C245.53 10.6508 245.35 10.5382 245.17 10.4481C244.99 10.3468 244.81 10.2567 244.641 10.1666L244.686 10.0766C244.63 10.054 244.584 10.0203 244.562 9.98649C244.539 9.96397 244.494 9.9302 244.438 9.89642C244.348 9.89642 244.28 9.88516 244.224 9.85138C244.055 9.82887 243.886 9.78383 243.729 9.72754C243.571 9.67124 243.425 9.60369 243.278 9.51362H243.323L243.256 9.52488ZM240.565 5.46048H240.903L240.948 5.41545L240.993 5.46048H241.038V5.50552C241.038 5.50552 241.083 5.56181 241.083 5.59559H240.7H240.745H240.227L240.565 5.47174V5.46048ZM246.341 2.89349C248.108 3.06237 248.975 3.873 248.953 5.32538C248.671 6.63139 247.985 7.19432 246.904 6.99167C246.363 6.99167 245.879 6.93537 245.451 6.82279C245.024 6.7102 244.663 6.55258 244.382 6.34992C244.01 6.06845 243.774 5.78698 243.672 5.51677C243.571 5.24657 243.605 4.94258 243.774 4.59356C243.808 3.90678 243.976 3.42265 244.292 3.11867C244.607 2.81468 245.035 2.71335 245.575 2.80342H245.834C245.89 2.80342 245.947 2.81468 246.003 2.84846H245.958C246.071 2.88223 246.172 2.89349 246.262 2.89349H246.352H246.341ZM246.51 4.69489C246.251 4.67237 246.059 4.78496 245.913 5.03265C245.767 5.28034 245.71 5.6181 245.744 6.01216C245.89 6.10223 246.071 6.14726 246.273 6.15852C246.487 6.16978 246.69 6.18104 246.892 6.18104C247.208 6.21482 247.422 6.16978 247.557 6.05719C247.681 5.94461 247.804 5.71943 247.917 5.37041C247.895 5.28034 247.872 5.20153 247.849 5.11146C247.827 5.02139 247.816 4.95384 247.782 4.89755V4.80748C247.669 4.78496 247.557 4.76244 247.467 4.76244C247.377 4.76244 247.264 4.75118 247.14 4.71741H246.802C246.712 4.71741 246.622 4.70615 246.498 4.67237L246.51 4.69489ZM263.949 3.96307C263.972 4.01936 264.017 4.0644 264.073 4.10943C264.13 4.15447 264.175 4.1995 264.197 4.2558L263.51 4.72866V4.68363C263.251 5.39293 262.914 5.93335 262.486 6.30489C262.261 6.53006 261.968 6.77775 261.608 7.0367C261.247 7.29565 260.876 7.56586 260.471 7.84733C260.268 7.9374 260.088 8.01621 259.941 8.10628C259.795 8.19635 259.637 8.25265 259.491 8.27516V8.3202C259.266 8.37649 259.052 8.44404 258.849 8.53411C258.647 8.62418 258.455 8.69174 258.253 8.74803C258.196 8.78181 258.117 8.80432 258.016 8.8381C257.915 8.87188 257.813 8.89439 257.701 8.92817C257.329 8.96194 257.003 8.9732 256.721 8.99572C256.44 9.00698 256.17 9.01824 255.911 9.01824L256.001 8.16258C256.282 8.19635 256.598 8.19635 256.924 8.16258C257.251 8.14006 257.6 8.09502 257.971 8.03873C258.253 7.98244 258.658 7.81355 259.165 7.52083L259.378 7.99369L259.255 7.47579C259.367 7.45328 259.48 7.40824 259.592 7.37446C259.705 7.32943 259.806 7.27314 259.896 7.18307C260.178 6.95789 260.471 6.69894 260.752 6.41747C261.033 6.136 261.304 5.8095 261.563 5.43796C261.844 5.1002 262.092 4.72866 262.306 4.34587C262.52 3.96307 262.722 3.5465 262.925 3.08489L264.04 3.89552L263.949 3.98559V3.96307Z" fill="var(--fill-0, #353535)"/>
<path id="Vector_9" d="M289.507 31.4119L290.238 31.5808C290.205 32.5265 290.013 33.3034 289.664 33.9339C289.304 34.5644 288.775 35.0035 288.066 35.2624C285.071 35.9492 282.74 36.9625 281.051 38.3023C281.108 38.8427 281.175 39.3606 281.243 39.8672C281.31 40.3626 281.378 40.8693 281.434 41.3872C280.973 41.0719 280.59 40.7792 280.274 40.509C279.959 40.2388 279.723 39.9911 279.543 39.7659C279.261 40.1037 279.002 40.4639 278.777 40.8355C278.552 41.207 278.36 41.5898 278.225 41.9951L277.46 41.8262L278.315 24.8594C277.921 23.6321 277.539 22.6189 277.178 21.8195C276.818 21.0201 276.503 20.4234 276.221 20.0294C275.591 19.1737 274.927 18.5094 274.217 18.0253C273.88 17.7664 273.531 17.5299 273.17 17.316C272.81 17.1021 272.461 16.9107 272.123 16.7418C271.549 16.4829 270.66 16.314 269.432 16.2239C269.151 16.2014 268.892 16.1789 268.667 16.1789C268.205 16.1789 267.777 16.2352 267.361 16.3478C266.944 16.4603 266.539 16.663 266.145 16.9445C265.627 17.316 265.233 17.7889 264.951 18.3518C264.67 18.926 264.456 19.5452 264.31 20.232C264.4 20.8625 264.49 21.4029 264.591 21.8533C264.692 22.3149 264.794 22.6977 264.906 23.0129C265.131 23.6096 265.875 24.2964 267.124 25.062C267.608 25.3998 268.295 25.715 269.196 25.9852C270.097 26.2554 271.2 26.4581 272.506 26.6045L270.457 35.9717L270.502 27.1674C270.187 27.8204 269.849 28.0343 269.477 27.8091C269.252 27.6965 269.038 27.584 268.836 27.4939C268.633 27.3926 268.419 27.3138 268.194 27.2575C268.16 27.2349 268.126 27.2124 268.093 27.1899C268.047 27.1786 268.014 27.1674 267.991 27.1674C267.507 26.9647 267.079 26.7733 266.708 26.5707C266.336 26.368 266.077 26.0866 265.942 25.715C265.886 25.6587 265.83 25.6024 265.773 25.5461C265.717 25.4898 265.661 25.4223 265.604 25.3322C265.267 25.1633 264.985 24.9382 264.771 24.668C264.557 24.3977 264.366 24.1163 264.197 23.8348V23.8798C264.163 23.7898 264.129 23.7222 264.084 23.6659C264.039 23.6096 264.006 23.5533 263.983 23.497C263.724 23.103 263.567 22.7202 263.488 22.3599C263.42 21.9996 263.353 21.5718 263.296 21.0539C263.319 20.6261 263.398 20.2095 263.51 19.8154C263.623 19.4214 263.78 19.0161 263.983 18.622C264.208 18.228 264.433 17.8564 264.67 17.5299C264.895 17.2034 265.12 16.9219 265.357 16.6968C265.751 16.3027 266.201 15.965 266.708 15.6947C267.203 15.4245 267.845 15.2894 268.61 15.2894C268.948 15.2894 269.297 15.3232 269.635 15.3795C269.973 15.2669 270.299 15.2106 270.614 15.2106C270.952 15.2106 271.245 15.2669 271.47 15.3795C271.695 15.4358 271.932 15.5034 272.179 15.5709C272.416 15.6385 272.652 15.706 272.889 15.7623C273.204 15.7961 273.497 15.8636 273.789 15.9987C274.071 16.1226 274.375 16.2915 274.69 16.4941C274.837 16.5504 274.972 16.618 275.095 16.708C275.219 16.7981 275.343 16.8657 275.456 16.9219C275.602 17.012 275.76 17.1246 275.929 17.2822C276.097 17.4399 276.255 17.5637 276.401 17.6425C276.368 17.6988 276.401 17.7664 276.492 17.8564C276.582 17.9465 276.672 18.0366 276.796 18.1604C276.886 18.2167 276.964 18.2843 277.054 18.3518C277.145 18.4194 277.223 18.4869 277.313 18.5432C277.91 19.1399 278.315 19.7366 278.507 20.3333C278.597 20.5923 278.687 20.9301 278.788 21.3354C278.89 21.7519 278.968 22.2248 279.025 22.7652V23.6209C279.34 25.8163 279.655 28.1019 279.982 30.4775C280.308 32.853 280.646 35.2174 280.984 37.5479C281.186 37.4353 281.378 37.3228 281.58 37.2102C281.783 37.0976 281.963 36.985 282.132 36.8724C282.729 36.5346 283.416 36.0618 284.181 35.4651C285.037 34.8121 286.264 34.4405 287.863 34.3505C288.009 34.2604 288.167 34.1478 288.336 33.9902C288.505 33.8326 288.696 33.6299 288.887 33.3709C289.09 33.1458 289.214 32.9206 289.27 32.7067C289.326 32.4928 289.326 32.3014 289.27 32.1325L289.36 31.8735V31.8285L289.405 31.7835L289.574 31.4457L289.507 31.4119ZM270.401 47.3993C269.939 47.4556 269.5 47.5344 269.072 47.6358C268.644 47.7371 268.216 47.8271 267.789 47.9172L270.434 35.9492L270.389 47.4106L270.401 47.3993ZM270.75 18.7571C272.112 18.8134 272.968 19.6353 273.317 21.234C273.035 22.7765 272.191 23.6096 270.795 23.756C269.905 23.8461 269.207 23.5759 268.701 22.9454C268.442 22.6639 268.239 22.3487 268.104 21.9996C267.957 21.6619 267.879 21.3129 267.845 20.9751C267.935 20.6373 268.025 20.3221 268.126 20.0294C268.228 19.7479 268.363 19.5002 268.532 19.2863C268.701 19.0724 268.914 18.9147 269.151 18.8134C269.387 18.7121 269.669 18.6671 269.984 18.6671C270.299 18.7571 270.536 18.7796 270.716 18.7571H270.761H270.75ZM271.391 20.6373C270.648 20.7499 270.198 21.3691 270.029 22.4725C270.142 22.4725 270.243 22.4838 270.333 22.5175C270.446 22.5513 270.558 22.5626 270.671 22.5851C270.783 22.5963 270.885 22.5851 270.975 22.5626C271.403 22.5626 271.729 22.4612 271.954 22.2473C272.179 22.0334 272.337 21.7745 272.427 21.4592C272.393 21.3466 272.382 21.2566 272.36 21.1777C272.348 21.1102 272.337 21.0426 272.337 20.9863V20.9413C272.281 20.885 272.168 20.8175 272.022 20.7499C271.864 20.6824 271.662 20.6486 271.403 20.6486L271.391 20.6373ZM294.089 18.5432L294.303 18.926L294.393 18.6671C294.539 18.8359 294.697 19.0273 294.888 19.2412C295.068 19.4552 295.237 19.6353 295.384 19.7704L294.404 36.0167C294.573 35.8479 294.742 35.7015 294.922 35.5664C295.091 35.4426 295.226 35.33 295.305 35.2512C295.305 35.8253 295.339 36.1631 295.395 36.2757L295.823 36.6135C295.879 36.6698 295.947 36.7373 296.037 36.8274C296.127 36.9174 296.217 36.9963 296.341 37.0863C296.397 37.1426 296.431 37.1764 296.453 37.1877C296.465 37.1989 296.487 37.2102 296.521 37.2102C296.543 37.2665 296.611 37.334 296.69 37.4016C296.78 37.4691 296.847 37.5367 296.904 37.593C296.926 37.6267 296.949 37.6605 296.971 37.6943C296.982 37.7393 297.005 37.7731 297.039 37.7956C297.072 37.8294 297.095 37.8519 297.129 37.8857L297.388 38.0996C297.557 38.3248 297.703 38.595 297.838 38.8877C297.973 39.1804 298.075 39.507 298.153 39.8447C298.187 39.901 298.198 39.9686 298.221 40.0361C298.232 40.1037 298.255 40.1825 298.288 40.2725V40.2275C298.345 40.4302 298.39 40.6103 298.435 40.7567C298.48 40.9143 298.514 41.0494 298.536 41.162C298.592 41.3872 298.649 41.6123 298.705 41.8262C298.761 42.0402 298.851 42.2316 298.964 42.4004C299.02 42.6031 299.054 42.7832 299.065 42.9521C299.077 43.121 299.088 43.2899 299.088 43.47C299.088 43.8416 299.043 44.2131 298.941 44.5846C298.84 44.9562 298.716 45.3165 298.581 45.6542C298.379 46.1158 298.221 46.5211 298.086 46.8927C297.962 47.2642 297.883 47.5907 297.849 47.8722C297.422 48.1537 296.982 48.4013 296.543 48.6153C296.104 48.8292 295.665 49.0543 295.237 49.2795C294.843 49.4822 294.438 49.6285 294.044 49.7299C293.65 49.8312 293.29 49.8762 292.974 49.8762C292.715 49.9325 292.456 49.9663 292.209 49.9776C291.95 49.9888 291.691 50.0001 291.443 50.0001C290.509 50.0001 289.653 49.7974 288.899 49.3809C288.144 48.9643 287.48 48.3225 286.906 47.4331C286.872 47.4106 286.838 47.3881 286.782 47.3655C286.726 47.3543 286.681 47.343 286.658 47.343L286.399 46.8251C286.343 46.9377 286.332 47.0053 286.354 47.039C285.983 46.7576 285.679 46.4648 285.431 46.1834C285.183 45.9019 285.014 45.6092 284.902 45.3277C284.812 45.1588 284.733 44.9111 284.643 44.5846C284.553 44.2581 284.451 43.8641 284.339 43.4137C284.193 43.5601 284.035 43.6952 283.866 43.8416C283.697 43.9879 283.506 44.1118 283.314 44.2244C283.168 44.3707 283.022 44.5058 282.864 44.6297C282.706 44.7535 282.549 44.8886 282.369 45.035C281.941 45.3502 281.569 45.6655 281.254 45.992C280.939 46.3185 280.669 46.6562 280.443 46.994C280.218 47.3318 280.004 47.647 279.802 47.9172C279.599 48.1874 279.419 48.4239 279.25 48.6265C278.71 49.3696 278.338 49.7636 278.135 49.8199C277.933 49.8762 277.899 49.6173 278.011 49.0544C276.841 48.9981 275.658 48.9418 274.465 48.8855C273.272 48.8292 272.089 48.7729 270.918 48.7166L270.446 47.7709V47.343C271.504 47.1404 272.562 46.9265 273.632 46.7013C274.701 46.4761 275.748 46.2622 276.773 46.0595L277.37 46.6562C277.629 46.341 278.023 45.9244 278.541 45.4178C279.07 44.8999 279.734 44.2807 280.533 43.5376C282.583 41.6574 284.012 40.5315 284.812 40.16C284.958 41.162 285.093 41.9951 285.24 42.6819C285.386 43.3687 285.521 43.8979 285.667 44.2581C285.78 44.6297 285.96 44.9787 286.197 45.3052C286.433 45.6317 286.748 45.9357 287.12 46.2284C287.885 46.8251 288.685 47.253 289.495 47.4894C290.306 47.7371 291.015 47.8046 291.612 47.7258C291.815 47.7596 291.995 47.7709 292.164 47.7934C292.333 47.8046 292.501 47.8159 292.682 47.8159C292.963 47.8159 293.233 47.7934 293.492 47.7483C293.751 47.7033 293.988 47.6583 294.224 47.602C294.933 47.343 295.395 46.994 295.598 46.5324C295.766 46.1946 295.935 45.8456 296.116 45.4853C296.284 45.1251 296.453 44.776 296.633 44.4383C296.836 44.0667 296.982 43.7065 297.084 43.3687C297.185 43.0309 297.219 42.7044 297.185 42.3892V42.4342C297.039 41.6911 296.859 40.9368 296.633 40.1487C296.408 39.3606 296.059 38.4486 295.609 37.3903C295.35 37.1314 295.113 36.9512 294.877 36.8386L294.922 36.7486L294.584 36.5346C294.213 36.3095 293.368 36.0956 292.062 35.8929L294.494 33.8438C294.292 31.4457 294.1 29.0476 293.92 26.6157C293.729 24.1951 293.56 21.7857 293.391 19.3876L294.156 18.4869L294.089 18.5432ZM291.184 38.8877C291.578 38.9778 291.961 39.0791 292.321 39.1917C292.682 39.3043 292.986 39.4169 293.245 39.5295C293.526 39.6983 293.751 39.9686 293.909 40.3401C294.066 40.7116 294.111 41.1845 294.055 41.7474C293.852 42.772 293.571 43.4813 293.2 43.8866C292.862 44.1681 292.22 44.4721 291.274 44.7873C290.306 44.6972 289.574 44.3932 289.068 43.8416C288.572 43.3011 288.324 42.5918 288.324 41.7024V41.3196C288.324 41.207 288.336 41.0944 288.37 40.9818V41.0269C288.516 39.6871 289.293 38.8652 290.723 38.55L291.195 38.8877H291.184ZM289.045 32.0086C289.068 31.7272 289.09 31.4457 289.113 31.1755C289.124 30.9053 289.146 30.6576 289.18 30.4324C289.214 30.7477 289.225 30.9616 289.248 31.0742C289.259 31.1868 289.27 31.2543 289.27 31.2656C289.27 31.2768 289.27 31.2656 289.27 31.198C289.27 31.1305 289.27 31.1079 289.248 31.1079C289.236 31.1079 289.236 31.153 289.248 31.2318C289.259 31.3219 289.281 31.502 289.315 31.7835L289.056 31.9974L289.045 32.0086ZM289.507 18.4531L290.025 18.0253V18.4531C290.565 18.4306 291.105 18.4081 291.623 18.4081H293.222L293.312 18.3631L293.222 19.2187L289.507 18.4531ZM290.025 19.7817C290.025 19.579 290.025 19.4439 290.002 19.3538C289.991 19.2638 289.979 19.185 289.979 19.0949H290.07L290.025 19.7817ZM290.576 41.1507C290.52 41.2633 290.464 41.3984 290.407 41.5335C290.351 41.6799 290.306 41.815 290.283 41.9614V42.7269C290.317 42.8733 290.34 43.0084 290.374 43.1548C290.396 43.3011 290.43 43.38 290.464 43.4137C290.486 43.4475 290.554 43.47 290.633 43.5038C290.723 43.5376 290.869 43.5151 291.105 43.4588C291.736 43.5151 292.175 43.4475 292.434 43.2448C292.603 43.1323 292.817 42.6707 293.076 41.8825C292.963 41.7925 292.85 41.7024 292.738 41.5786C292.625 41.466 292.558 41.3984 292.524 41.3646C292.693 41.3083 292.805 41.2746 292.839 41.2746C292.873 41.2746 292.918 41.2858 292.952 41.3196C292.952 41.0607 292.839 40.903 292.614 40.8242C292.389 40.7567 292.186 40.7004 292.017 40.6779C291.308 40.7116 290.835 40.8693 290.61 41.1507H290.576Z" fill="var(--fill-0, #353535)"/>
</g>
</g>
</svg>
