<svg preserveAspectRatio="none" width="100%" height="100%" overflow="visible" style="display: block;" viewBox="0 0 41.6259 47.1401" fill="none" xmlns="http://www.w3.org/2000/svg">
<g id="Group">
<path id="Vector" d="M26.683 0.640161C29.683 1.05016 32.1529 1.75016 34.0829 2.75016C36.0129 3.75016 37.5229 4.90016 38.5929 6.22016C39.6629 7.54016 40.383 8.97015 40.743 10.5202C41.103 12.0702 41.2129 13.6202 41.0729 15.1702C40.9829 16.1702 40.763 17.3702 40.433 18.7702C40.103 20.1702 39.6929 21.6502 39.2029 23.1802C38.7129 24.7202 38.1929 26.2902 37.6529 27.9002C37.1029 29.5102 36.573 31.0302 36.063 32.4702C35.553 33.9102 35.0629 35.2402 34.6029 36.4402C34.1429 37.6502 33.7929 38.6101 33.5429 39.3301C33.1829 40.4101 32.7929 41.4202 32.3629 42.3502C31.9329 43.2802 31.4629 44.0601 30.9529 44.7001C30.4429 45.3401 29.873 45.8302 29.243 46.1802C28.613 46.5302 27.883 46.6601 27.063 46.5801C26.243 46.5001 25.7329 46.2501 25.4529 45.8301C25.1629 45.4101 25.0129 44.9602 24.9829 44.4702C24.9629 43.9102 25.0729 43.2902 25.3229 42.6002C26.4429 39.9102 27.523 37.2702 28.563 34.6902C29.423 32.4202 30.3229 30.0502 31.2629 27.5702C32.2029 25.0902 32.9729 22.8702 33.5929 20.9102C34.0429 19.5402 34.3229 18.1202 34.4229 16.6502C34.5229 15.1902 34.4129 13.7902 34.0829 12.4702C33.7529 11.1502 33.163 9.95015 32.303 8.88015C31.443 7.81015 30.263 7.01016 28.753 6.48016C26.893 5.81016 25.163 5.63016 23.563 5.94016C21.963 6.25016 20.4929 6.87016 19.1529 7.80016C17.8129 8.73016 16.6329 9.91016 15.5929 11.3402C14.5529 12.7702 13.673 14.2802 12.943 15.8902C13.083 15.9002 13.233 15.9302 13.373 15.9602C13.513 15.9902 13.6729 16.0202 13.8529 16.0402C15.7629 16.4902 17.3729 17.2102 18.6729 18.2002C19.9729 19.1902 20.9529 20.6102 21.6129 22.4702C21.9329 23.3202 22.0229 24.3602 21.8929 25.5802C21.7629 26.8002 21.463 28.0802 20.993 29.4402C20.523 30.7902 19.9029 32.1602 19.1429 33.5402C18.3829 34.9202 17.503 36.2002 16.503 37.3702C15.503 38.5402 14.4329 39.5502 13.2829 40.4102C12.1329 41.2702 10.9529 41.8402 9.73294 42.1302C7.88294 42.5402 6.42292 42.4501 5.33292 41.8601C4.24292 41.2701 3.48294 40.2501 3.04294 38.8001C2.60294 37.3601 2.44291 35.5302 2.57291 33.3202C2.70291 31.1102 3.04293 28.6202 3.59293 25.8302C3.97293 24.0802 4.34297 22.4902 4.69297 21.0702C4.22297 21.1002 3.79293 21.1502 3.40293 21.2202C3.01293 21.2902 2.67297 21.3502 2.38297 21.4002C2.05297 21.4402 1.76296 21.4902 1.50296 21.5402C0.762964 20.5702 0.442942 19.7402 0.542942 19.0402C0.642942 18.3402 0.912939 17.7702 1.35294 17.3302C1.83294 16.8202 2.52296 16.3802 3.43296 16.0202C3.84296 15.8702 4.30294 15.7502 4.79294 15.6502C5.29294 15.5502 5.84292 15.4902 6.46292 15.4802C6.79292 14.6502 7.08293 13.9502 7.34293 13.3602C7.59293 12.7702 7.83295 12.2802 8.05295 11.8902C8.27295 11.4602 8.48297 11.1102 8.69297 10.8302C9.67297 9.28016 10.6829 7.95015 11.7229 6.82015C12.7629 5.69015 13.803 4.74015 14.813 3.96015C15.823 3.18015 16.823 2.56015 17.813 2.10015C18.793 1.64015 19.733 1.28015 20.623 1.04015C22.703 0.460155 24.723 0.330151 26.683 0.630151V0.640161ZM15.7929 29.5202C17.0029 27.0602 17.2829 25.1402 16.6529 23.7502C16.0229 22.3602 14.5629 21.4802 12.2829 21.1002L10.943 20.9702C10.383 22.6702 9.89292 24.4002 9.45292 26.1702C9.01292 27.9402 8.67296 29.5602 8.43296 31.0202C8.18296 32.4902 8.07292 33.7302 8.08292 34.7402C8.09292 35.7502 8.25296 36.3601 8.56296 36.5801C9.00296 36.8901 9.51294 36.9202 10.1029 36.6802C10.6829 36.4402 11.293 36.0002 11.933 35.3502C12.573 34.7002 13.2329 33.8702 13.9029 32.8602C14.5729 31.8402 15.2029 30.7302 15.7929 29.5202Z" fill="var(--fill-0, #FF6602)"/>
<path id="Vector_2" d="M27.523 47.1302C27.353 47.1302 27.1829 47.1302 27.0129 47.1002C26.0729 47.0102 25.403 46.6802 25.033 46.1302C24.693 45.6302 24.513 45.0902 24.473 44.5102C24.453 43.8802 24.573 43.1902 24.843 42.4402C25.973 39.7302 27.053 37.0902 28.083 34.5102C28.943 32.2502 29.843 29.8802 30.783 27.4002C31.713 24.9502 32.493 22.7202 33.103 20.7702C33.543 19.4402 33.813 18.0502 33.913 16.6302C34.013 15.2202 33.903 13.8702 33.583 12.6102C33.273 11.3702 32.703 10.2202 31.893 9.21015C31.103 8.22015 29.9829 7.46016 28.5729 6.97016C26.8029 6.33016 25.153 6.16016 23.643 6.45016C22.113 6.74016 20.693 7.34016 19.423 8.23016C18.143 9.12016 16.983 10.2802 15.983 11.6502C15.093 12.8702 14.313 14.1702 13.653 15.5302C13.723 15.5402 13.803 15.5502 13.883 15.5602C15.923 16.0402 17.603 16.7902 18.953 17.8202C20.323 18.8602 21.373 20.3802 22.063 22.3202C22.403 23.2402 22.503 24.3602 22.373 25.6502C22.233 26.9002 21.923 28.2402 21.443 29.6202C20.963 30.9902 20.333 32.4002 19.563 33.8002C18.783 35.2002 17.883 36.5202 16.873 37.7102C15.853 38.9002 14.7429 39.9502 13.5729 40.8302C12.3729 41.7202 11.113 42.3302 9.83296 42.6302C7.86296 43.0702 6.27296 42.9602 5.08296 42.3102C3.88296 41.6602 3.03299 40.5302 2.55299 38.9602C2.09299 37.4702 1.933 35.5602 2.063 33.3002C2.193 31.0802 2.54297 28.5402 3.09297 25.7502C3.42297 24.2602 3.73297 22.8902 4.03297 21.6402C3.84297 21.6602 3.66298 21.6902 3.48298 21.7202C3.09298 21.7902 2.743 21.8602 2.443 21.9002C2.113 21.9402 1.82295 21.9902 1.57295 22.0302L1.27296 22.0902L1.08296 21.8502C0.252956 20.7602 -0.0970419 19.8202 0.0229581 18.9702C0.142958 18.1702 0.46297 17.4902 0.97297 16.9802C1.49297 16.4302 2.25297 15.9502 3.22297 15.5602C3.67297 15.4002 4.15298 15.2702 4.67298 15.1702C5.10298 15.0802 5.58298 15.0302 6.10298 15.0002C6.38298 14.3002 6.64299 13.6902 6.86299 13.1702C7.12299 12.5702 7.36297 12.0602 7.59297 11.6502C7.81297 11.2202 8.04296 10.8402 8.27296 10.5402C9.24296 9.01016 10.283 7.63015 11.343 6.49015C12.403 5.34015 13.463 4.36017 14.493 3.58017C15.533 2.78017 16.573 2.14016 17.583 1.67016C18.583 1.20016 19.553 0.830165 20.473 0.580165C22.613 -0.00983464 24.723 -0.149833 26.743 0.160167C29.783 0.580167 32.323 1.30016 34.303 2.32016C36.293 3.34016 37.863 4.56016 38.973 5.92016C40.083 7.29016 40.843 8.81016 41.223 10.4202C41.593 12.0102 41.713 13.6302 41.563 15.2302C41.473 16.2402 41.253 17.4802 40.913 18.9002C40.583 20.3102 40.163 21.8102 39.673 23.3502C39.183 24.8902 38.663 26.4702 38.113 28.0802C37.563 29.6902 37.0329 31.2202 36.5129 32.6602C35.9929 34.1102 35.513 35.4301 35.053 36.6401C34.593 37.8401 34.243 38.8002 34.003 39.5202C33.643 40.6102 33.243 41.6402 32.803 42.5902C32.353 43.5502 31.8629 44.3802 31.3229 45.0402C30.7729 45.7302 30.143 46.2702 29.463 46.6502C28.883 46.9702 28.223 47.1401 27.503 47.1401L27.523 47.1302ZM25.103 5.32016C26.313 5.32016 27.593 5.56016 28.923 6.04016C30.513 6.59016 31.783 7.45015 32.693 8.60015C33.593 9.73015 34.2229 11.0002 34.5729 12.3802C34.9129 13.7402 35.033 15.2002 34.933 16.7102C34.833 18.2102 34.5429 19.6802 34.0729 21.0902C33.4529 23.0502 32.663 25.2902 31.733 27.7702C30.793 30.2502 29.893 32.6302 29.033 34.8902C27.993 37.4802 26.913 40.1202 25.793 42.8102C25.583 43.4102 25.473 43.9802 25.493 44.4702C25.513 44.8602 25.643 45.2202 25.873 45.5702C26.073 45.8602 26.493 46.0402 27.123 46.1002C27.853 46.1702 28.4729 46.0602 29.0129 45.7602C29.5829 45.4502 30.1129 44.9902 30.5729 44.4002C31.0529 43.8002 31.513 43.0402 31.923 42.1502C32.343 41.2402 32.733 40.2502 33.083 39.1902C33.333 38.4602 33.693 37.4902 34.143 36.2802C34.603 35.0802 35.083 33.7602 35.593 32.3202C36.103 30.8802 36.633 29.3602 37.183 27.7502C37.733 26.1502 38.243 24.5802 38.733 23.0402C39.213 21.5202 39.6229 20.0502 39.9529 18.6602C40.2729 17.2802 40.4829 16.0902 40.5729 15.1202C40.7129 13.6302 40.6029 12.1202 40.2629 10.6302C39.9229 9.16015 39.233 7.78016 38.213 6.53016C37.193 5.27016 35.733 4.15017 33.863 3.19017C31.983 2.23017 29.553 1.53015 26.623 1.13015C24.743 0.830153 22.773 0.970153 20.773 1.52015C19.913 1.76015 18.993 2.11017 18.043 2.55017C17.103 2.99017 16.123 3.60015 15.133 4.35015C14.153 5.10015 13.133 6.05016 12.103 7.15016C11.083 8.25016 10.083 9.57016 9.12299 11.0902C8.91299 11.3802 8.703 11.7102 8.503 12.1102C8.283 12.5002 8.053 12.9702 7.813 13.5502C7.563 14.1402 7.273 14.8402 6.943 15.6602L6.82295 15.9702H6.49299C5.90299 15.9902 5.37297 16.0502 4.91297 16.1402C4.44297 16.2302 4.00298 16.3502 3.61298 16.4902C2.80298 16.8102 2.16298 17.2102 1.73298 17.6702C1.35298 18.0502 1.14299 18.5102 1.05299 19.1102C0.982987 19.6202 1.21298 20.2502 1.73298 21.0002C1.91298 20.9702 2.11296 20.9402 2.33296 20.9102C2.61296 20.8702 2.94295 20.8102 3.32295 20.7402C3.73295 20.6602 4.18298 20.6102 4.67298 20.5802L5.35298 20.5402L5.193 21.2002C4.843 22.6202 4.48298 24.2002 4.10298 25.9502C3.56298 28.6902 3.22297 31.1902 3.09297 33.3602C2.96297 35.5002 3.11297 37.2802 3.53297 38.6602C3.94297 39.9902 4.61297 40.8901 5.59297 41.4201C6.56297 41.9501 7.92295 42.0201 9.64295 41.6401C10.783 41.3701 11.923 40.8202 13.003 40.0102C14.113 39.1802 15.173 38.1802 16.133 37.0502C17.103 35.9102 17.973 34.6502 18.713 33.3102C19.453 31.9602 20.063 30.6102 20.523 29.2902C20.983 27.9802 21.273 26.7202 21.403 25.5402C21.523 24.4102 21.443 23.4402 21.153 22.6602C20.523 20.9002 19.593 19.5402 18.383 18.6202C17.143 17.6802 15.583 16.9802 13.753 16.5502C13.613 16.5502 13.433 16.5102 13.273 16.4702C13.153 16.4402 13.033 16.4202 12.913 16.4102L12.223 16.3402L12.5129 15.7102C13.2529 14.0802 14.163 12.5202 15.213 11.0702C16.283 9.60016 17.513 8.37016 18.893 7.42016C20.283 6.45016 21.823 5.80016 23.493 5.48016C24.023 5.38016 24.573 5.33017 25.133 5.33017L25.103 5.32016ZM9.37299 37.3402C8.90299 37.3402 8.53297 37.1702 8.28297 37.0002C7.82297 36.6702 7.60297 35.9802 7.59297 34.7602C7.57297 33.7202 7.693 32.4402 7.943 30.9502C8.193 29.4702 8.53297 27.8302 8.97297 26.0602C9.41297 24.2802 9.91297 22.5202 10.473 20.8202L10.593 20.4402L12.333 20.6102C14.813 21.0202 16.403 22.0002 17.103 23.5502C17.803 25.1002 17.523 27.1202 16.233 29.7402C15.643 30.9602 15.003 32.1002 14.313 33.1402C13.623 34.1802 12.943 35.0402 12.283 35.7102C11.603 36.4002 10.923 36.8902 10.283 37.1502C9.94297 37.2902 9.63298 37.3502 9.36298 37.3502L9.37299 37.3402ZM11.293 21.5102C10.793 23.0602 10.333 24.6702 9.93299 26.2902C9.50299 28.0302 9.16297 29.6502 8.91297 31.1102C8.67297 32.5402 8.56295 33.7602 8.57295 34.7402C8.59295 35.9902 8.84297 36.1802 8.84297 36.1802C9.02297 36.3102 9.34296 36.4502 9.90296 36.2202C10.423 36.0102 10.9829 35.6002 11.5729 35.0002C12.1829 34.3802 12.833 33.5702 13.483 32.5802C14.143 31.5802 14.763 30.4802 15.333 29.3002C16.463 26.9902 16.753 25.2002 16.193 23.9602C15.643 22.7402 14.293 21.9502 12.203 21.6002L11.293 21.5102Z" fill="var(--fill-0, black)"/>
</g>
</svg>
