<svg preserveAspectRatio="none" width="100%" height="100%" overflow="visible" style="display: block;" viewBox="0 0 20.0378 48.7703" fill="none" xmlns="http://www.w3.org/2000/svg">
<g id="Group">
<path id="Vector" d="M14.9335 1.62032C16.4335 0.690317 17.5235 0.33031 18.2135 0.55031C18.9035 0.77031 19.3135 1.29031 19.4535 2.13031C19.5935 2.97031 19.5435 3.97032 19.3035 5.14032C19.0635 6.31032 18.7635 7.36031 18.3835 8.30031C15.9235 14.4403 13.9435 19.5503 12.4135 23.6403C10.8935 27.7303 9.70352 31.0503 8.85352 33.6203C7.99352 36.1903 7.41351 38.1203 7.09351 39.4103C6.77351 40.7003 6.60351 41.6703 6.58351 42.3003C6.52351 42.9303 6.58353 43.4603 6.73353 43.8803C6.89353 44.3103 7.01352 44.7103 7.10352 45.0903C7.19352 45.4703 7.20349 45.8503 7.13349 46.2103C7.06349 46.5803 6.79349 47.0003 6.31349 47.4703C5.83349 47.9503 5.29349 48.2103 4.69349 48.2603C4.09349 48.3103 3.51351 48.1803 2.96351 47.8603C2.41351 47.5403 1.91352 47.0503 1.47352 46.3703C1.03352 45.6903 0.723486 44.8603 0.563486 43.8703C0.443486 43.2203 0.4835 42.2503 0.7035 40.9403C0.9135 39.6403 1.24349 38.1303 1.69349 36.4203C2.14349 34.7103 2.67353 32.8603 3.29353 30.8703C3.91353 28.8803 4.58353 26.8703 5.29353 24.8503C6.00353 22.8303 6.73353 20.8403 7.48353 18.8803C8.22353 16.9203 8.9235 15.1303 9.5835 13.5203C10.6135 11.0503 11.4535 9.04032 12.1235 7.50032C12.7935 5.96032 13.3335 4.76031 13.7335 3.91031C14.2235 2.88031 14.6235 2.11032 14.9235 1.62032H14.9335Z" fill="var(--fill-0, #FF6602)"/>
<path id="Vector_2" d="M4.43346 48.7703C3.83346 48.7703 3.25349 48.6103 2.71349 48.3003C2.09349 47.9503 1.53345 47.3903 1.05345 46.6503C0.573453 45.9103 0.243472 45.0103 0.0734724 43.9603C-0.0565276 43.2603 -0.016513 42.2503 0.213487 40.8703C0.423487 39.5603 0.763487 38.0203 1.21349 36.3003C1.65349 34.6103 2.20347 32.7303 2.82347 30.7303C3.44347 28.7303 4.12348 26.7003 4.83348 24.6903C5.54348 22.6903 6.27348 20.6703 7.02348 18.7103C7.76348 16.7603 8.47347 14.9603 9.13347 13.3403C10.1635 10.8603 11.0135 8.85031 11.6835 7.31031C12.3535 5.76031 12.8935 4.56031 13.3035 3.70031C13.8135 2.64031 14.2035 1.88031 14.5235 1.37031L14.5835 1.2703L14.6835 1.21031C16.3235 0.190306 17.5335 -0.179699 18.3735 0.0803008C18.9735 0.270301 19.7335 0.770302 19.9535 2.0503C20.1035 2.9403 20.0535 4.0203 19.8035 5.2403C19.5635 6.4403 19.2435 7.5303 18.8535 8.4903C16.4235 14.5803 14.4135 19.7303 12.8935 23.8203C11.3735 27.8903 10.1835 31.2403 9.33348 33.7803C8.48348 36.3303 7.89348 38.2603 7.58348 39.5303C7.27348 40.7803 7.10348 41.7203 7.08348 42.3203C7.03348 42.9003 7.07348 43.3603 7.20348 43.7103C7.37348 44.1603 7.50349 44.5803 7.59349 44.9803C7.70349 45.4303 7.71347 45.8803 7.63347 46.3103C7.54347 46.7803 7.22351 47.2803 6.67351 47.8303C6.11351 48.3903 5.46346 48.7003 4.74346 48.7603C4.64346 48.7603 4.54347 48.7703 4.44347 48.7703H4.43346ZM15.3035 1.9903C15.0235 2.4703 14.6535 3.1903 14.1935 4.1303C13.7935 4.9803 13.2535 6.17031 12.5935 7.71031C11.9235 9.25031 11.0735 11.2503 10.0535 13.7203C9.39345 15.3303 8.69348 17.1303 7.95348 19.0703C7.21348 21.0303 6.47348 23.0303 5.77348 25.0303C5.07348 27.0203 4.39348 29.0403 3.77348 31.0303C3.15348 33.0203 2.61351 34.8803 2.17351 36.5603C1.73351 38.2503 1.40347 39.7503 1.19347 41.0403C0.993467 42.2803 0.943453 43.2103 1.05345 43.7903C1.20345 44.7103 1.48347 45.4903 1.88347 46.1103C2.28347 46.7203 2.72348 47.1703 3.20348 47.4403C3.66348 47.7103 4.13347 47.8103 4.63347 47.7703C5.12347 47.7303 5.55347 47.5203 5.94347 47.1203C6.44347 46.6203 6.59346 46.3003 6.62346 46.1203C6.68346 45.8203 6.67349 45.5203 6.59349 45.2103C6.50349 44.8503 6.38351 44.4603 6.23351 44.0603C6.04351 43.5703 5.98345 42.9603 6.05345 42.2603C6.07345 41.6203 6.24348 40.6403 6.58348 39.3003C6.90348 37.9903 7.4835 36.0803 8.3535 33.4703C9.2035 30.9203 10.4035 27.5503 11.9235 23.4803C13.4435 19.3903 15.4535 14.2303 17.8935 8.1303C18.2535 7.2303 18.5535 6.20031 18.7835 5.06031C19.0035 3.95031 19.0535 3.00031 18.9235 2.23031C18.7835 1.38031 18.3435 1.1503 18.0235 1.0503C17.7235 0.960302 16.9835 0.960309 15.2635 2.01031L15.3035 1.9903Z" fill="var(--fill-0, black)"/>
</g>
</svg>
