<svg preserveAspectRatio="none" width="100%" height="100%" overflow="visible" style="display: block;" viewBox="0 0 56.2996 68.861" fill="none" xmlns="http://www.w3.org/2000/svg">
<g id="Group">
<path id="Vector" d="M25.2076 45.171C25.2576 44.551 25.4376 43.991 25.7476 43.471C26.0076 43.061 26.3876 42.671 26.9076 42.311C27.4176 41.951 28.1676 41.741 29.1476 41.691C30.0776 41.641 30.7976 41.681 31.3076 41.811C31.8176 41.941 32.1776 42.151 32.3876 42.431C32.5976 42.711 32.6976 43.041 32.6976 43.391C32.6976 43.741 32.6676 44.141 32.6176 44.551C32.6176 45.011 32.6076 45.611 32.5776 46.331C32.5476 47.051 32.6976 47.571 32.9976 47.871C33.3076 48.181 33.8576 48.091 34.6576 47.601C35.4576 47.111 36.6476 45.921 38.2476 44.011C39.8476 42.051 41.2376 39.881 42.4176 37.491C43.5976 35.101 44.5676 32.701 45.3076 30.311C46.0576 27.921 46.5676 25.631 46.8476 23.441C47.1276 21.251 47.1176 19.391 46.8076 17.841C46.4976 16.291 45.8676 14.911 44.9176 13.671C43.9676 12.431 42.6476 11.621 40.9776 11.241C39.3076 10.851 37.2676 11.011 34.8776 11.701C32.4876 12.401 29.6876 13.931 26.4976 16.291C23.3576 18.661 20.6676 21.481 18.4276 24.741C16.1876 28.011 14.3776 31.301 12.9876 34.621C11.5976 37.941 10.5676 41.091 9.89759 44.081C9.22759 47.071 8.86759 49.461 8.81759 51.261C8.76759 53.061 8.86758 54.611 9.12758 55.891C9.38758 57.181 9.72759 58.241 10.1676 59.091C10.6076 59.941 11.0776 60.611 11.5976 61.101C12.1076 61.591 12.5976 61.911 13.0676 62.071C13.3776 62.221 13.6276 62.461 13.8376 62.761C14.0376 63.021 14.1976 63.331 14.2976 63.691C14.3976 64.051 14.3776 64.491 14.2176 65.001C14.0676 65.511 13.7576 65.981 13.2876 66.391C12.8276 66.801 12.2576 67.101 11.5876 67.281C10.9176 67.461 10.1676 67.491 9.34759 67.361C8.52759 67.231 7.6776 66.881 6.7976 66.321C5.9176 65.751 5.0776 64.741 4.2476 63.271C3.4276 61.801 2.76759 60.011 2.27759 57.901C1.78759 55.791 1.48759 53.411 1.38759 50.761C1.28759 48.111 1.48759 45.321 2.00759 42.381C2.51759 39.451 3.34759 36.361 4.47759 33.121C5.60759 29.881 7.07758 26.701 8.87758 23.591C10.6776 20.481 12.7876 17.521 15.2076 14.711C17.6276 11.911 20.3776 9.42104 23.4676 7.26103C26.5576 5.10103 29.8376 3.50103 33.3076 2.47103C36.7776 1.44103 40.0376 1.17104 43.0776 1.66104C46.1176 2.15104 48.6976 3.50104 50.8376 5.71104C52.9676 7.92104 54.2476 11.191 54.6576 15.511C55.0676 19.881 54.8076 24.221 53.8876 28.521C52.9576 32.821 51.6876 36.781 50.0676 40.411C48.4476 44.041 46.6176 47.181 44.5876 49.831C42.5576 52.481 40.6076 54.351 38.7576 55.431C36.9576 56.511 35.1576 57.171 33.3576 57.401C31.5576 57.631 29.9776 57.361 28.6076 56.591C27.2476 55.821 26.2276 54.511 25.5576 52.651C24.8876 50.801 24.7576 48.301 25.1676 45.161L25.2076 45.171Z" fill="var(--fill-0, white)"/>
<path id="Vector_2" d="M10.3676 68.861C9.97759 68.861 9.57759 68.831 9.16759 68.761C8.14759 68.601 7.10759 68.181 6.06759 67.511C4.98759 66.811 3.99759 65.651 3.05759 63.961C2.16759 62.381 1.45759 60.451 0.947592 58.221C0.437592 56.031 0.127593 53.541 0.0275933 50.811C-0.0824067 48.071 0.137593 45.151 0.667593 42.131C1.19759 39.141 2.04759 35.941 3.19759 32.641C4.34759 29.331 5.86759 26.041 7.70759 22.861C9.54759 19.681 11.7276 16.621 14.1876 13.771C16.6676 10.891 19.5376 8.30103 22.7076 6.08103C25.9076 3.84103 29.3576 2.17103 32.9576 1.10103C36.6176 0.0210346 40.1176 -0.268964 43.3476 0.251036C46.6776 0.791036 49.5576 2.29103 51.8976 4.72103C54.2476 7.16103 55.6676 10.751 56.1076 15.371C56.5276 19.871 56.2576 24.391 55.3076 28.811C54.3676 33.181 53.0476 37.281 51.3976 40.981C49.7376 44.691 47.8376 47.961 45.7476 50.681C43.5776 53.511 41.5376 55.451 39.5076 56.641C37.5576 57.811 35.5576 58.531 33.5676 58.791C31.4576 59.061 29.5676 58.731 27.9376 57.811C26.2776 56.871 25.0376 55.291 24.2576 53.121C23.5076 51.041 23.3576 48.381 23.7976 45.001C23.8676 44.181 24.1176 43.421 24.5276 42.721C24.8976 42.121 25.4176 41.601 26.0876 41.131C26.8276 40.611 27.7976 40.331 29.0576 40.261C30.1376 40.201 30.9776 40.261 31.6376 40.421C32.4876 40.631 33.1176 41.021 33.5276 41.581C33.9076 42.101 34.1076 42.721 34.1076 43.381C34.1076 43.771 34.0776 44.181 34.0276 44.621C34.0276 45.081 34.0176 45.651 33.9876 46.331C34.4076 46.051 35.3276 45.271 37.1576 43.091C38.6676 41.241 40.0076 39.141 41.1376 36.851C42.2876 34.531 43.2276 32.191 43.9476 29.881C44.6676 27.581 45.1676 25.351 45.4376 23.251C45.6976 21.221 45.6876 19.501 45.4176 18.111C45.1576 16.791 44.6076 15.591 43.7976 14.531C43.0476 13.551 42.0176 12.931 40.6676 12.611C39.2376 12.281 37.4276 12.431 35.2876 13.051C33.0676 13.691 30.4076 15.161 27.3576 17.421C24.3676 19.681 21.7576 22.411 19.6176 25.541C17.4376 28.721 15.6576 31.961 14.3176 35.171C12.9676 38.401 11.9476 41.501 11.3076 44.391C10.6576 47.281 10.3076 49.601 10.2576 51.301C10.2076 52.991 10.3076 54.441 10.5376 55.611C10.7676 56.761 11.0776 57.711 11.4476 58.441C11.8076 59.141 12.1976 59.691 12.5876 60.071C13.0376 60.501 13.3476 60.661 13.5276 60.721L13.7176 60.801C14.2276 61.061 14.6576 61.431 14.9976 61.931C15.2976 62.321 15.5276 62.781 15.6776 63.301C15.8576 63.921 15.8276 64.631 15.5976 65.411C15.3676 66.181 14.9176 66.861 14.2576 67.451C13.6276 68.011 12.8676 68.411 11.9876 68.651C11.4776 68.791 10.9376 68.861 10.3676 68.861ZM40.1276 2.85103C38.1076 2.85103 35.9676 3.18103 33.7576 3.84103C30.4476 4.82103 27.2676 6.37104 24.3276 8.43104C21.3476 10.511 18.6576 12.941 16.3276 15.641C13.9776 18.361 11.8976 21.281 10.1476 24.301C8.39759 27.321 6.95759 30.451 5.85759 33.591C4.75759 36.751 3.94759 39.791 3.44759 42.631C2.94759 45.451 2.74759 48.171 2.84759 50.711C2.94759 53.261 3.22759 55.571 3.69759 57.591C4.15759 59.561 4.7676 61.241 5.5176 62.581C6.2076 63.821 6.92759 64.701 7.59759 65.131C8.29759 65.581 8.97759 65.861 9.59759 65.961C10.2176 66.061 10.7776 66.041 11.2476 65.911C11.7076 65.791 12.0776 65.601 12.3776 65.331C12.6376 65.101 12.8076 64.851 12.8876 64.591C12.9976 64.221 12.9576 64.081 12.9576 64.081C12.9076 63.901 12.8376 63.751 12.7476 63.641L12.6776 63.551C12.6076 63.451 12.5476 63.401 12.4976 63.361C11.8776 63.131 11.2676 62.721 10.6376 62.121C10.0076 61.521 9.43759 60.721 8.92759 59.731C8.42759 58.771 8.03759 57.571 7.75759 56.161C7.47759 54.771 7.36759 53.111 7.41759 51.211C7.46759 49.311 7.83759 46.871 8.52759 43.761C9.20759 40.711 10.2776 37.451 11.6876 34.071C13.1076 30.681 14.9876 27.271 17.2676 23.931C19.5876 20.551 22.4076 17.591 25.6476 15.151C29.0176 12.651 31.9076 11.081 34.4776 10.331C37.0976 9.57104 39.3876 9.41103 41.2876 9.85103C43.2776 10.311 44.8776 11.301 46.0276 12.801C47.1076 14.211 47.8376 15.811 48.1876 17.561C48.5276 19.251 48.5476 21.281 48.2376 23.621C47.9476 25.881 47.4076 28.271 46.6376 30.731C45.8676 33.181 44.8676 35.671 43.6576 38.121C42.4276 40.601 40.9676 42.881 39.3176 44.911C37.5776 46.991 36.3276 48.231 35.3676 48.811C33.5876 49.901 32.5376 49.451 31.9676 48.871C31.3676 48.271 31.0876 47.401 31.1276 46.271C31.1476 45.571 31.1676 45.001 31.1676 44.551V44.381C31.2176 44.021 31.2476 43.691 31.2476 43.391C31.2476 43.331 31.2476 43.301 31.2176 43.271C31.2176 43.281 31.1276 43.231 30.9276 43.181C30.6776 43.121 30.1676 43.051 29.1876 43.111C28.2576 43.161 27.8476 43.361 27.6876 43.471C27.3276 43.721 27.0676 43.971 26.9176 44.221C26.7376 44.531 26.6176 44.881 26.5876 45.281V45.351C26.1976 48.251 26.3076 50.541 26.8976 52.171C27.4476 53.711 28.2376 54.751 29.3076 55.351C30.4076 55.971 31.6776 56.181 33.1776 55.991C34.7776 55.781 36.4076 55.191 38.0376 54.211C39.7376 53.221 41.5576 51.461 43.4676 48.971C45.4276 46.421 47.2076 43.351 48.7776 39.841C50.3476 36.321 51.6076 32.411 52.5076 28.231C53.3976 24.101 53.6476 19.861 53.2576 15.651C52.8776 11.681 51.7276 8.66103 49.8276 6.70103C47.8876 4.70103 45.6176 3.51103 42.8676 3.06103C41.9676 2.92103 41.0476 2.84103 40.1076 2.84103L40.1276 2.85103Z" fill="var(--fill-0, #353535)"/>
</g>
</svg>
