<svg preserveAspectRatio="none" width="100%" height="100%" overflow="visible" style="display: block;" viewBox="0 0 74.5363 76.8631" fill="none" xmlns="http://www.w3.org/2000/svg">
<g id="Group">
<path id="Vector" d="M40.9489 1.52308C45.1189 1.21308 48.9689 1.55308 52.5189 2.55308C56.0689 3.55308 59.2089 5.07308 61.9389 7.12308C64.6789 9.17308 66.9589 11.7131 68.7989 14.7231C70.6289 17.7431 71.8889 21.1131 72.5789 24.8431C73.2589 28.5731 73.2889 32.6231 72.6689 36.9731C72.0489 41.3231 70.6789 45.8731 68.5689 50.5931C66.4489 55.3231 64.1389 59.2431 61.6189 62.3531C59.0989 65.4631 56.5189 67.9631 53.8789 69.8631C51.2289 71.7631 48.5889 73.1131 45.9489 73.9231C43.3089 74.7331 40.7989 75.2131 38.4389 75.3731C36.0789 75.5331 33.9189 75.4231 31.9589 75.0431C29.9989 74.6731 28.3989 74.2331 27.1489 73.7331C25.8389 73.1731 24.4689 72.3031 23.0489 71.1231C21.6189 69.9431 20.2789 68.4831 19.0389 66.7431C17.7989 65.0031 16.6789 62.9931 15.6789 60.7231C14.6789 58.4531 13.9689 56.0131 13.5289 53.4031C12.9689 48.8031 13.2289 44.4831 14.3189 40.4331C15.4089 36.3931 17.0589 32.7731 19.2689 29.5631C21.4789 26.3631 24.0589 23.6831 27.0089 21.5431C29.9589 19.3931 33.0289 17.9231 36.1989 17.1131C37.8789 16.7431 39.7489 16.5431 41.7989 16.5031C43.8489 16.4731 45.8089 16.7331 47.6789 17.2931C49.5489 17.8531 51.1589 18.7431 52.5289 19.9531C53.8989 21.1631 54.7389 22.8631 55.0489 25.0431C55.2989 26.2231 55.3589 27.4031 55.2389 28.5931C55.1189 29.7731 54.8289 30.8331 54.3989 31.7631C53.9589 32.6931 53.4389 33.4931 52.8089 34.1431C52.1889 34.7931 51.4689 35.1831 50.6589 35.3131C49.4089 35.5631 48.5089 35.5031 47.9489 35.1231C47.3889 34.7531 47.0189 34.3131 46.8289 33.8131C46.5789 33.2531 46.5189 32.5431 46.6389 31.6631C47.0089 30.1131 47.0689 28.7431 46.8289 27.5631C46.6389 26.5731 46.0989 25.7131 45.1989 24.9931C44.2989 24.2831 42.7589 24.0731 40.5789 24.3831C38.3989 24.6331 36.3489 25.3631 34.4189 26.5731C32.4889 27.7831 30.7789 29.3731 29.2889 31.3331C27.7989 33.2931 26.5489 35.5731 25.5589 38.1931C24.5589 40.8031 23.9389 43.6631 23.6889 46.7731C23.3789 50.6931 23.8789 53.9931 25.1789 56.6631C26.4889 59.3431 28.3189 61.2831 30.6789 62.4931C33.0389 63.7031 35.7989 64.1231 38.9389 63.7531C42.0789 63.3831 45.3289 62.1031 48.6889 59.9231C52.9789 57.1231 56.2089 53.5131 58.3889 49.1031C60.5689 44.6831 61.8089 39.9631 62.1189 34.9231C62.3089 32.1231 62.1989 29.5131 61.7889 27.0831C61.3789 24.6531 60.6389 22.4631 59.5489 20.5031C58.4589 18.5431 56.9789 16.8531 55.1189 15.4131C53.2489 13.9831 50.8889 12.8631 48.0289 12.0531C44.7989 11.1231 41.6089 10.8531 38.4689 11.2631C35.3289 11.6731 32.3389 12.5531 29.5089 13.9231C26.6789 15.2931 24.0489 17.0631 21.6289 19.2431C19.1989 21.4231 17.0389 23.8431 15.1489 26.5231C13.2489 29.2031 11.6689 32.0331 10.3889 35.0131C9.10893 38.0031 8.22889 40.9831 7.72889 43.9731C7.47889 44.0331 6.96892 44.1331 6.18892 44.2531C5.40892 44.3831 4.64888 44.2231 3.89888 43.7831C3.14888 43.3531 2.5089 42.5131 1.9889 41.2631C1.4589 40.0231 1.28889 38.0931 1.47889 35.4731C1.66889 33.5431 2.17887 31.4131 3.01887 29.0831C3.85887 26.7531 5.0589 24.3731 6.6089 21.9431C8.1589 19.5131 10.0589 17.1531 12.2989 14.8531C14.5389 12.5531 17.0889 10.4731 19.9489 8.60307C22.8089 6.73307 25.9989 5.16308 29.5089 3.89308C33.0189 2.62308 36.8289 1.82308 40.9389 1.51308L40.9489 1.52308Z" fill="var(--fill-0, white)"/>
<path id="Vector_2" d="M36.4089 76.8631C34.7289 76.8631 33.1489 76.7231 31.6789 76.4431C29.6089 76.0531 27.9489 75.5931 26.6089 75.0631C25.1489 74.4331 23.6489 73.4831 22.1289 72.2231C20.6089 70.9731 19.1789 69.4031 17.8689 67.5731C16.5689 65.7631 15.3989 63.6531 14.3689 61.3031C13.3289 58.9331 12.5789 56.3631 12.1189 53.6431C11.5289 48.8231 11.8089 44.2731 12.9389 40.0731C14.0589 35.8931 15.7989 32.0931 18.0889 28.7631C20.3789 25.4431 23.0989 22.6231 26.1689 20.3931C29.2489 18.1531 32.5089 16.5831 35.8389 15.7331C37.6389 15.3331 39.6188 15.1131 41.7688 15.0831C43.9588 15.0531 46.0789 15.3331 48.0789 15.9331C50.1389 16.5531 51.9489 17.5431 53.4689 18.8931C55.0889 20.3331 56.0889 22.3331 56.4489 24.8331C56.7089 26.0631 56.7789 27.4031 56.6389 28.7331C56.4989 30.0631 56.1789 31.2831 55.6789 32.3531C55.1789 33.4231 54.5589 34.3531 53.8389 35.1131C52.9889 36.0031 51.9989 36.5331 50.8789 36.7031C49.2989 37.0231 48.0689 36.8931 47.1789 36.2931C46.3689 35.7531 45.8088 35.0831 45.5188 34.3031C45.1888 33.5831 45.0889 32.5931 45.2589 31.4631L45.2789 31.3331C45.5989 29.9931 45.6589 28.8231 45.4589 27.8531C45.3289 27.1731 44.9589 26.6131 44.3289 26.1031C43.9989 25.8431 43.1089 25.4631 40.7889 25.7931C38.7989 26.0231 36.9189 26.6931 35.1889 27.7831C33.4189 28.8931 31.8089 30.3831 30.4289 32.2031C29.0289 34.0431 27.8389 36.2331 26.8989 38.7031C25.9589 41.1831 25.3589 43.9331 25.1189 46.8931C24.8289 50.5331 25.2889 53.6131 26.4689 56.0431C27.6489 58.4631 29.2489 60.1531 31.3489 61.2331C33.4489 62.3131 35.9489 62.6831 38.7889 62.3431C41.6989 61.9931 44.7789 60.7831 47.9389 58.7331C51.9889 56.0931 55.0889 52.6331 57.1389 48.4731C59.2189 44.2531 60.4289 39.6631 60.7289 34.8331C60.9089 32.1531 60.7989 29.6231 60.4189 27.3131C60.0389 25.0531 59.3389 22.9931 58.3389 21.1931C57.3489 19.4131 55.9889 17.8531 54.2789 16.5431C52.5689 15.2331 50.3389 14.1831 47.6689 13.4231C44.6289 12.5431 41.6089 12.2931 38.6689 12.6731C35.6989 13.0531 32.8289 13.9031 30.1489 15.2031C27.4489 16.5031 24.9089 18.2231 22.5989 20.3031C20.2689 22.4031 18.1489 24.7731 16.3189 27.3431C14.4889 29.9231 12.9389 32.6831 11.7089 35.5731C10.4789 38.4431 9.61891 41.3531 9.13891 44.2031L8.98888 45.1131L8.08886 45.3431C7.89886 45.3931 7.52887 45.4731 6.41887 45.6531C5.31887 45.8331 4.2289 45.6131 3.1989 45.0131C2.1889 44.4231 1.3489 43.3531 0.698903 41.8231C0.0789028 40.3631 -0.131092 38.2531 0.0789077 35.3831C0.278908 33.3131 0.818903 31.0431 1.6989 28.6131C2.5689 26.1931 3.82888 23.6931 5.42888 21.1931C7.02888 18.7031 8.99888 16.2431 11.2989 13.8831C13.5989 11.5131 16.2589 9.34307 19.1889 7.43307C22.1289 5.51307 25.4389 3.88307 29.0389 2.57307C32.6589 1.26307 36.6289 0.433072 40.8489 0.113072C45.1589 -0.206928 49.2189 0.153072 52.9089 1.18307C56.6089 2.22307 59.9289 3.83307 62.7989 5.98307C65.6689 8.13307 68.0989 10.8231 70.0189 13.9831C71.9389 17.1331 73.2689 20.7031 73.9789 24.5831C74.6889 28.4531 74.7189 32.6831 74.0789 37.1631C73.4389 41.6231 72.0189 46.3431 69.8689 51.1631C67.7089 55.9831 65.3089 60.0431 62.7289 63.2331C60.1489 66.4231 57.4489 69.0431 54.7089 71.0031C51.9489 72.9831 49.1389 74.4131 46.3689 75.2631C43.6289 76.1031 40.9889 76.6031 38.5389 76.7631C37.8189 76.8131 37.1089 76.8331 36.4189 76.8331L36.4089 76.8631ZM42.1089 17.9131C42.0089 17.9131 41.9089 17.9131 41.8089 17.9131C39.8589 17.9431 38.0689 18.1331 36.4989 18.4831C33.5589 19.2331 30.6289 20.6531 27.8389 22.6831C25.0289 24.7231 22.5389 27.3131 20.4289 30.3631C18.3189 33.4231 16.7289 36.9331 15.6889 40.7931C14.6489 44.6431 14.3989 48.8231 14.9289 53.2231C15.3289 55.6431 16.0189 57.9931 16.9689 60.1531C17.9189 62.3231 18.9989 64.2631 20.1789 65.9131C21.3489 67.5531 22.6189 68.9331 23.9389 70.0331C25.2589 71.1231 26.5189 71.9331 27.6989 72.4331C28.8189 72.8831 30.3389 73.2931 32.2089 73.6531C34.0389 74.0031 36.0989 74.1031 38.3389 73.9531C40.5789 73.8031 42.9989 73.3431 45.5289 72.5631C48.0089 71.8031 50.5389 70.5031 53.0489 68.7031C55.5789 66.8931 58.0888 64.4531 60.5188 61.4531C62.9488 58.4531 65.2189 54.6031 67.2789 50.0131C69.3289 45.4331 70.6689 40.9731 71.2789 36.7731C71.8789 32.5931 71.8489 28.6631 71.1989 25.1031C70.5489 21.5631 69.3389 18.3131 67.5989 15.4631C65.8689 12.6131 63.6789 10.1931 61.0989 8.25307C58.5189 6.31307 55.4989 4.85307 52.1389 3.91307C48.7689 2.96307 45.0389 2.64307 41.0589 2.93307C37.0989 3.23307 33.3789 4.00307 30.0089 5.23307C26.6089 6.46307 23.4889 8.00307 20.7389 9.80307C17.9789 11.6031 15.4889 13.6331 13.3289 15.8531C11.1689 18.0731 9.3089 20.3831 7.8189 22.7231C6.3289 25.0431 5.16889 27.3531 4.36889 29.5731C3.56889 31.7831 3.07886 33.8131 2.90886 35.6231C2.69886 38.5431 3.0189 40.0131 3.3189 40.7131C3.8189 41.9031 4.31891 42.3731 4.63891 42.5631C5.10891 42.8331 5.52888 42.9231 5.98888 42.8531C6.19888 42.8231 6.37886 42.7931 6.52886 42.7631C7.06886 40.0031 7.92888 37.2131 9.10888 34.4531C10.4189 31.3831 12.0689 28.4431 14.0089 25.7031C15.9589 22.9531 18.2089 20.4231 20.6989 18.1931C23.2189 15.9331 25.9789 14.0731 28.9089 12.6531C31.8689 11.2231 35.0289 10.2831 38.2989 9.86307C41.6189 9.43307 45.0289 9.71308 48.4389 10.7031C51.4489 11.5531 53.9989 12.7631 55.9989 14.3031C58.0089 15.8431 59.6289 17.7031 60.8089 19.8231C61.9689 21.9131 62.7789 24.2831 63.2089 26.8531C63.6289 29.3731 63.7489 32.1231 63.5489 35.0131C63.2289 40.2131 61.9189 45.1631 59.6789 49.7231C57.3989 54.3531 53.9689 58.1831 49.4789 61.1031C45.9489 63.3931 42.4689 64.7531 39.1189 65.1531C35.7089 65.5531 32.6589 65.0831 30.0489 63.7431C27.4189 62.3931 25.3589 60.2131 23.9189 57.2731C22.5089 54.3831 21.9589 50.8031 22.2889 46.6531C22.5489 43.4231 23.2089 40.4031 24.2489 37.6731C25.2889 34.9431 26.6089 32.5231 28.1789 30.4631C29.7689 28.3731 31.6189 26.6631 33.6889 25.3631C35.7889 24.0431 38.0589 23.2331 40.4389 22.9631C43.0089 22.6031 44.8689 22.8931 46.0989 23.8631C47.2689 24.7931 47.9989 25.9431 48.2489 27.2831C48.5289 28.6231 48.4689 30.1931 48.0589 31.9131C47.9889 32.4731 48.0189 32.9231 48.1489 33.2231C48.2589 33.5131 48.4589 33.7231 48.7589 33.9231C48.7689 33.9231 49.1289 34.1531 50.3989 33.9031C50.9589 33.8131 51.3889 33.5731 51.7989 33.1531C52.3089 32.6131 52.7589 31.9431 53.1289 31.1531C53.4989 30.3631 53.7389 29.4531 53.8389 28.4331C53.9489 27.4031 53.8889 26.3631 53.6789 25.3231C53.3989 23.3831 52.7289 22.0031 51.6089 21.0031C50.3989 19.9331 48.9489 19.1431 47.2889 18.6431C45.6589 18.1531 43.9289 17.9031 42.1389 17.9031L42.1089 17.9131Z" fill="var(--fill-0, #353535)"/>
</g>
</svg>
