<svg preserveAspectRatio="none" width="100%" height="100%" overflow="visible" style="display: block;" viewBox="0 0 326.51 45.42" fill="none" xmlns="http://www.w3.org/2000/svg">
<g id="Group">
<path id="Vector" d="M10.02 37.75H8.40001L0 28.36L0.900009 27.32L8.39 35.45V25.34C7.97 25.55 7.50001 25.66 6.99001 25.66C6.18001 25.66 5.48 25.37 4.89 24.78C4.3 24.19 4.01001 23.51 4.01001 22.73C4.01001 21.86 4.30001 21.14 4.87001 20.56C5.44001 19.98 6.15001 19.7 6.99001 19.7C7.95001 19.7 8.72001 20.02 9.29001 20.65C9.77001 21.22 10.01 21.91 10.01 22.73V37.76L10.02 37.75ZM8.53001 22.63C8.53001 22.21 8.38 21.85 8.08 21.55C7.78 21.25 7.42 21.1 7 21.1C6.58 21.1 6.22001 21.25 5.92001 21.55C5.62001 21.85 5.47 22.21 5.47 22.63C5.47 23.05 5.62001 23.41 5.92001 23.71C6.22001 24.01 6.58 24.16 7 24.16C7.42 24.16 7.78 24.01 8.08 23.71C8.38 23.41 8.53001 23.05 8.53001 22.63Z" fill="var(--fill-0, white)"/>
<path id="Vector_2" d="M24.28 37.75H22.66V24.25C22.66 23.35 22.32 22.6 21.64 22.02C20.96 21.43 20.04 21.14 18.86 21.14C17.81 21.14 16.96 21.49 16.33 22.2C15.7 22.91 15.35 23.67 15.29 24.48H13.62C13.65 23.22 14.15 22.1 15.13 21.14C16.11 20.18 17.36 19.7 18.9 19.7C20.65 19.7 21.98 20.12 22.9 20.96C23.82 21.8 24.28 22.92 24.28 24.3V37.75Z" fill="var(--fill-0, white)"/>
<path id="Vector_3" d="M44.15 35.18C44.15 35.99 43.86 36.68 43.27 37.26C42.68 37.83 41.98 38.12 41.17 38.12C40.36 38.12 39.66 37.83 39.09 37.26C38.52 36.69 38.23 36 38.23 35.18V34.86C36.36 35.61 34.92 36.57 33.9 37.75H31.91V25.34C31.52 25.55 31.07 25.66 30.56 25.66C29.75 25.66 29.05 25.37 28.46 24.78C27.87 24.19 27.58 23.49 27.58 22.68C27.58 21.87 27.87 21.17 28.46 20.58C29.05 19.99 29.75 19.7 30.56 19.7C31.37 19.7 32.07 19.99 32.66 20.58C33.25 21.17 33.54 21.87 33.54 22.68V36C34.14 35.34 35.21 34.66 36.75 33.97C38.47 33.19 39.58 32.59 40.09 32.16C41.11 31.35 41.63 30.31 41.63 29.05V20.07H43.25V29.28C43.25 30.72 42.92 31.78 42.26 32.44C43.52 32.95 44.16 33.87 44.16 35.19L44.15 35.18ZM32.09 22.67C32.09 22.25 31.94 21.89 31.64 21.59C31.34 21.29 30.98 21.14 30.56 21.14C30.14 21.14 29.78 21.29 29.48 21.59C29.18 21.89 29.03 22.25 29.03 22.67C29.03 23.09 29.18 23.45 29.48 23.75C29.78 24.05 30.14 24.2 30.56 24.2C30.98 24.2 31.34 24.05 31.64 23.75C31.94 23.45 32.09 23.09 32.09 22.67ZM42.7 35.13C42.7 34.71 42.55 34.35 42.25 34.05C41.95 33.75 41.59 33.6 41.17 33.6C40.75 33.6 40.39 33.75 40.09 34.05C39.79 34.35 39.64 34.71 39.64 35.13C39.64 35.55 39.79 35.91 40.09 36.21C40.39 36.51 40.75 36.66 41.17 36.66C41.59 36.66 41.95 36.51 42.25 36.21C42.55 35.91 42.7 35.55 42.7 35.13Z" fill="var(--fill-0, white)"/>
<path id="Vector_4" d="M58.37 35.13C58.37 35.94 58.08 36.64 57.49 37.23C56.9 37.82 56.2 38.11 55.39 38.11C54.58 38.11 53.88 37.82 53.29 37.23C52.7 36.64 52.41 35.94 52.41 35.13C52.41 34.32 52.7 33.62 53.29 33.03C53.88 32.44 54.58 32.15 55.39 32.15C55.9 32.15 56.35 32.26 56.74 32.47V25.16C56.74 22.48 55.25 21.14 52.27 21.14C49.92 21.14 48.46 22.22 47.89 24.39H46.22C46.88 21.26 48.93 19.7 52.36 19.7C54.08 19.7 55.5 20.15 56.65 21.05C57.79 21.95 58.37 23.23 58.37 24.89V35.14V35.13ZM56.92 35.13C56.92 34.71 56.77 34.35 56.47 34.05C56.17 33.75 55.81 33.6 55.39 33.6C54.97 33.6 54.61 33.75 54.31 34.05C54.01 34.35 53.86 34.71 53.86 35.13C53.86 35.55 54.01 35.91 54.31 36.21C54.61 36.51 54.97 36.66 55.39 36.66C55.81 36.66 56.17 36.51 56.47 36.21C56.77 35.91 56.92 35.55 56.92 35.13Z" fill="var(--fill-0, white)"/>
<path id="Vector_5" d="M63.11 9.81C63.08 11.86 62.4 13.53 61.08 14.84C59.76 16.15 58.09 16.8 56.07 16.8C54.32 16.8 52.93 16.44 51.87 15.72C50.82 15 50.29 14.05 50.29 12.88C50.29 12.1 50.58 11.42 51.15 10.85C51.72 10.28 52.4 9.99 53.18 9.99C53.96 9.99 54.64 10.27 55.21 10.82C55.78 11.38 56.07 12.05 56.07 12.83C56.07 13.85 55.62 14.67 54.72 15.27C55.14 15.36 55.7 15.41 56.39 15.41C57.87 15.38 59.08 14.79 60.05 13.65C60.89 12.6 61.34 11.32 61.4 9.81H63.12H63.11ZM54.62 12.79C54.62 12.37 54.48 12.02 54.19 11.73C53.9 11.44 53.57 11.3 53.17 11.3C52.77 11.3 52.43 11.44 52.13 11.73C51.83 12.02 51.68 12.37 51.68 12.79C51.68 13.21 51.83 13.56 52.13 13.83C52.43 14.1 52.78 14.24 53.17 14.24C53.56 14.24 53.9 14.1 54.19 13.83C54.48 13.56 54.62 13.21 54.62 12.79Z" fill="var(--fill-0, white)"/>
<path id="Vector_6" d="M78.23 35.18C78.23 35.99 77.94 36.68 77.35 37.26C76.76 37.83 76.06 38.12 75.25 38.12C74.44 38.12 73.74 37.83 73.17 37.26C72.6 36.69 72.31 36 72.31 35.18V34.86C70.44 35.61 69 36.57 67.98 37.75H65.99V25.34C65.6 25.55 65.15 25.66 64.64 25.66C63.83 25.66 63.13 25.37 62.54 24.78C61.95 24.19 61.66 23.49 61.66 22.68C61.66 21.87 61.95 21.17 62.54 20.58C63.13 19.99 63.83 19.7 64.64 19.7C65.45 19.7 66.15 19.99 66.74 20.58C67.33 21.17 67.62 21.87 67.62 22.68V36C68.22 35.34 69.29 34.66 70.83 33.97C72.55 33.19 73.66 32.59 74.17 32.16C75.19 31.35 75.71 30.31 75.71 29.05V20.07H77.33V29.28C77.33 30.72 77 31.78 76.34 32.44C77.6 32.95 78.24 33.87 78.24 35.19L78.23 35.18ZM66.18 22.67C66.18 22.25 66.03 21.89 65.73 21.59C65.43 21.29 65.07 21.14 64.65 21.14C64.23 21.14 63.87 21.29 63.57 21.59C63.27 21.89 63.12 22.25 63.12 22.67C63.12 23.09 63.27 23.45 63.57 23.75C63.87 24.05 64.23 24.2 64.65 24.2C65.07 24.2 65.43 24.05 65.73 23.75C66.03 23.45 66.18 23.09 66.18 22.67ZM76.78 35.13C76.78 34.71 76.63 34.35 76.33 34.05C76.03 33.75 75.67 33.6 75.25 33.6C74.83 33.6 74.47 33.75 74.17 34.05C73.87 34.35 73.72 34.71 73.72 35.13C73.72 35.55 73.87 35.91 74.17 36.21C74.47 36.51 74.83 36.66 75.25 36.66C75.67 36.66 76.03 36.51 76.33 36.21C76.63 35.91 76.78 35.55 76.78 35.13Z" fill="var(--fill-0, white)"/>
<path id="Vector_7" d="M97.19 35.18C97.19 35.99 96.9 36.68 96.31 37.26C95.72 37.83 95.02 38.12 94.21 38.12C93.4 38.12 92.7 37.83 92.13 37.26C91.56 36.69 91.27 36 91.27 35.18V34.86C89.4 35.61 87.96 36.57 86.94 37.75H84.95V25.34C84.56 25.55 84.11 25.66 83.6 25.66C82.79 25.66 82.09 25.37 81.5 24.78C80.91 24.19 80.62 23.49 80.62 22.68C80.62 21.87 80.91 21.17 81.5 20.58C82.09 19.99 82.79 19.7 83.6 19.7C84.41 19.7 85.11 19.99 85.7 20.58C86.29 21.17 86.58 21.87 86.58 22.68V36C87.18 35.34 88.25 34.66 89.79 33.97C91.51 33.19 92.62 32.59 93.13 32.16C94.15 31.35 94.67 30.31 94.67 29.05V20.07H96.29V29.28C96.29 30.72 95.96 31.78 95.3 32.44C96.56 32.95 97.2 33.87 97.2 35.19L97.19 35.18ZM85.14 22.67C85.14 22.25 84.99 21.89 84.69 21.59C84.39 21.29 84.03 21.14 83.61 21.14C83.19 21.14 82.83 21.29 82.53 21.59C82.23 21.89 82.08 22.25 82.08 22.67C82.08 23.09 82.23 23.45 82.53 23.75C82.83 24.05 83.19 24.2 83.61 24.2C84.03 24.2 84.39 24.05 84.69 23.75C84.99 23.45 85.14 23.09 85.14 22.67ZM95.74 35.13C95.74 34.71 95.59 34.35 95.29 34.05C94.99 33.75 94.63 33.6 94.21 33.6C93.79 33.6 93.43 33.75 93.13 34.05C92.83 34.35 92.68 34.71 92.68 35.13C92.68 35.55 92.83 35.91 93.13 36.21C93.43 36.51 93.79 36.66 94.21 36.66C94.63 36.66 94.99 36.51 95.29 36.21C95.59 35.91 95.74 35.55 95.74 35.13Z" fill="var(--fill-0, white)"/>
<path id="Vector_8" d="M96.56 17.21C93.1 15.98 89.85 15.36 86.81 15.36C85.73 15.36 84.54 15.45 83.24 15.63C83.27 14.07 83.92 12.8 85.18 11.84C86.32 10.97 87.69 10.53 89.29 10.53C91.7 10.53 93.53 11.33 94.8 12.92V8.54H96.29V15.99C96.41 16.38 96.5 16.79 96.56 17.21ZM94.8 15.5C93.48 13.06 91.66 11.84 89.34 11.84C87.23 11.84 85.82 12.64 85.1 14.23C85.73 14.14 86.44 14.09 87.22 14.09C90.11 14.09 92.64 14.56 94.8 15.49V15.5Z" fill="var(--fill-0, white)"/>
<path id="Vector_9" d="M100.71 0.459999C100.29 3.05 99.18 4.87 97.37 5.92C95.93 6.76 93.92 7.18 91.37 7.18H90.56V6.32C91.55 5.9 92.26 5.31 92.68 4.56C92.08 4.56 91.55 4.34 91.1 3.9C90.65 3.46 90.42 2.93 90.42 2.3C90.42 1.67 90.65 1.13 91.1 0.68C91.55 0.23 92.09 0 92.72 0C93.35 0 93.83 0.209997 94.26 0.629997C94.68 1.05 94.92 1.61 94.98 2.3C94.98 3.81 94.3 5.04 92.95 6C96.53 5.7 98.56 3.85 99.04 0.449997H100.71V0.459999ZM93.71 2.31C93.71 2.01 93.61 1.75 93.42 1.54C93.22 1.33 92.98 1.22 92.68 1.22C92.38 1.22 92.12 1.33 91.91 1.54C91.7 1.75 91.59 2.01 91.59 2.31C91.59 2.61 91.7 2.86 91.91 3.06C92.12 3.26 92.38 3.35 92.68 3.35C92.98 3.35 93.23 3.25 93.42 3.06C93.62 2.86 93.71 2.62 93.71 2.31Z" fill="var(--fill-0, white)"/>
<path id="Vector_10" d="M113.44 34C113.44 36.74 112.04 38.11 109.24 38.11C106.44 38.11 105.13 36.74 105.13 34V29.71C105.13 28.96 105.51 27.93 106.26 26.64C107.01 25.35 107.39 24.34 107.39 23.62C107.39 22.9 107.1 22.32 106.51 21.79C105.92 21.26 105.21 21 104.37 21C103.05 21 102.04 21.44 101.35 22.31C101.62 22.19 101.97 22.13 102.39 22.13C103.17 22.13 103.81 22.38 104.31 22.88C104.81 23.38 105.05 24 105.05 24.75C105.05 25.5 104.8 26.19 104.31 26.71C103.81 27.24 103.17 27.5 102.39 27.5C101.46 27.5 100.74 27.15 100.25 26.46C99.76 25.77 99.51 24.92 99.51 23.93C99.51 22.82 99.94 21.83 100.8 20.97C101.66 20.11 102.85 19.68 104.39 19.68C105.71 19.68 106.81 20.01 107.66 20.67C108.52 21.33 108.95 22.24 108.95 23.38C108.95 24.25 108.59 25.4 107.87 26.81C107.15 28.22 106.79 29.26 106.79 29.92V34.12C106.79 35.81 107.63 36.65 109.32 36.65C111.01 36.65 111.85 35.81 111.85 34.12V26.85C111.85 25.53 111.2 24.64 109.91 24.19C109.97 24.01 110 23.66 110 23.15C111.65 22.46 112.53 21.06 112.62 18.95H114.34C114.25 20.09 113.93 21.09 113.39 21.93C112.85 22.77 112.29 23.35 111.72 23.65C112.89 24.1 113.48 25.11 113.48 26.67V33.98L113.44 34ZM103.82 24.79C103.82 24.37 103.68 24.02 103.41 23.75C103.14 23.48 102.79 23.34 102.37 23.34C101.95 23.34 101.6 23.48 101.33 23.75C101.06 24.02 100.92 24.37 100.92 24.79C100.92 25.21 101.06 25.56 101.33 25.83C101.6 26.1 101.95 26.24 102.37 26.24C102.79 26.24 103.14 26.1 103.41 25.83C103.68 25.56 103.82 25.21 103.82 24.79Z" fill="var(--fill-0, white)"/>
<path id="Vector_11" d="M113.71 17.21C110.25 15.98 107 15.36 103.96 15.36C102.88 15.36 101.69 15.45 100.39 15.63C100.42 14.07 101.07 12.8 102.33 11.84C103.47 10.97 104.84 10.53 106.44 10.53C110.5 10.53 112.93 12.76 113.71 17.21ZM111.95 15.5C110.63 13.06 108.81 11.84 106.49 11.84C104.38 11.84 102.97 12.64 102.25 14.23C102.88 14.14 103.59 14.09 104.37 14.09C107.26 14.09 109.79 14.56 111.95 15.49V15.5Z" fill="var(--fill-0, white)"/>
<path id="Vector_12" d="M128.56 35.13C128.56 35.94 128.27 36.64 127.68 37.23C127.09 37.82 126.39 38.11 125.58 38.11C124.77 38.11 124.07 37.82 123.48 37.23C122.89 36.64 122.6 35.94 122.6 35.13C122.6 34.32 122.89 33.62 123.48 33.03C124.07 32.44 124.77 32.15 125.58 32.15C126.09 32.15 126.54 32.26 126.93 32.47V25.16C126.93 22.48 125.44 21.14 122.46 21.14C120.11 21.14 118.65 22.22 118.08 24.39H116.41C117.07 21.26 119.12 19.7 122.55 19.7C124.27 19.7 125.69 20.15 126.84 21.05C127.98 21.95 128.56 23.23 128.56 24.89V35.14V35.13ZM127.12 35.13C127.12 34.71 126.97 34.35 126.67 34.05C126.37 33.75 126.01 33.6 125.59 33.6C125.17 33.6 124.81 33.75 124.51 34.05C124.21 34.35 124.06 34.71 124.06 35.13C124.06 35.55 124.21 35.91 124.51 36.21C124.81 36.51 125.17 36.66 125.59 36.66C126.01 36.66 126.37 36.51 126.67 36.21C126.97 35.91 127.12 35.55 127.12 35.13Z" fill="var(--fill-0, white)"/>
<path id="Vector_13" d="M146.17 45.42H144.5V24.2C144.5 22.66 143.81 21.48 142.42 20.63L140.3 22.25L137.82 20.58C136.56 21.12 135.83 22.05 135.65 23.38C136.1 23.08 136.57 22.93 137.05 22.93C137.83 22.93 138.49 23.2 139.04 23.74C139.58 24.28 139.85 24.94 139.85 25.73C139.85 26.52 139.58 27.17 139.04 27.69C138.5 28.22 137.84 28.48 137.05 28.48C136.12 28.48 135.36 28.13 134.77 27.44C134.18 26.75 133.87 25.94 133.84 25C133.75 21.93 135.13 19.96 137.99 19.09L140.2 20.58L142.28 19.09C144.87 20.08 146.16 21.78 146.16 24.19V45.41L146.17 45.42ZM138.4 25.74C138.4 25.35 138.27 25.03 138.02 24.77C137.76 24.52 137.44 24.39 137.05 24.39C136.66 24.39 136.34 24.52 136.1 24.77C135.86 25.03 135.74 25.35 135.74 25.74C135.74 26.13 135.86 26.45 136.1 26.69C136.34 26.93 136.66 27.05 137.05 27.05C137.44 27.05 137.76 26.93 138.02 26.69C138.28 26.45 138.4 26.13 138.4 25.74Z" fill="var(--fill-0, white)"/>
<path id="Vector_14" d="M176.5 37.75H174.51L170.22 22.09L165.93 37.75H163.94V25.34C163.55 25.55 163.1 25.66 162.59 25.66C161.78 25.66 161.08 25.37 160.49 24.78C159.9 24.19 159.61 23.49 159.61 22.68C159.61 21.87 159.9 21.17 160.49 20.58C161.08 19.99 161.78 19.7 162.59 19.7C163.4 19.7 164.1 19.99 164.69 20.58C165.28 21.17 165.57 21.87 165.57 22.68V32.11C165.57 32.86 165.49 33.92 165.34 35.27C165.55 34.28 165.82 33.18 166.15 31.97L169.45 20.05H170.98L174.28 31.97C174.61 33.17 174.88 34.27 175.09 35.27C174.94 33.92 174.86 32.86 174.86 32.11V20.06H176.48V37.76L176.5 37.75ZM164.13 22.67C164.13 22.25 163.98 21.89 163.68 21.59C163.38 21.29 163.02 21.14 162.6 21.14C162.18 21.14 161.82 21.29 161.52 21.59C161.22 21.89 161.07 22.25 161.07 22.67C161.07 23.09 161.22 23.45 161.52 23.75C161.82 24.05 162.18 24.2 162.6 24.2C163.02 24.2 163.38 24.05 163.68 23.75C163.98 23.45 164.13 23.09 164.13 22.67Z" fill="var(--fill-0, white)"/>
<path id="Vector_15" d="M190.5 35.13C190.5 35.94 190.23 36.64 189.69 37.23C189.15 37.82 188.43 38.11 187.52 38.11C186.71 38.11 186.01 37.82 185.42 37.23C184.83 36.64 184.54 35.94 184.54 35.13C184.54 34.32 184.83 33.62 185.42 33.03C186.01 32.44 186.71 32.15 187.52 32.15C188.03 32.15 188.48 32.26 188.87 32.47V27.73C188.87 26.5 185.97 25.41 180.16 24.48C180.34 21.29 181.8 19.69 184.54 19.69C185.17 19.69 186.07 19.85 187.23 20.16C188.39 20.48 189.22 20.63 189.74 20.63C190.04 20.63 190.33 20.28 190.6 19.59L192 19.95C191.55 21.4 190.78 22.12 189.7 22.12C189.07 22.12 188.16 21.95 186.97 21.62C185.78 21.29 184.89 21.12 184.28 21.12C183.74 21.12 183.23 21.35 182.77 21.82C182.3 22.29 182.05 22.76 182.03 23.24C183.96 23.57 185.85 24.07 187.72 24.73C189.59 25.39 190.52 26.34 190.52 27.57V35.11L190.5 35.13ZM189.05 35.13C189.05 34.71 188.9 34.35 188.6 34.05C188.3 33.75 187.94 33.6 187.52 33.6C187.1 33.6 186.74 33.75 186.44 34.05C186.14 34.35 185.99 34.71 185.99 35.13C185.99 35.55 186.14 35.91 186.44 36.21C186.74 36.51 187.1 36.66 187.52 36.66C187.94 36.66 188.3 36.51 188.6 36.21C188.9 35.91 189.05 35.55 189.05 35.13Z" fill="var(--fill-0, white)"/>
<path id="Vector_16" d="M194.42 8.72C193.97 11.58 192.73 13.6 190.72 14.77C189.07 15.73 186.84 16.21 184.04 16.21H183.14V15.26C184.31 14.78 185.13 14.09 185.58 13.18C183.86 12.97 183.01 12.11 183.01 10.61C183.01 9.95 183.25 9.4 183.73 8.96C184.21 8.52 184.78 8.3 185.45 8.3C186.2 8.3 186.8 8.54 187.23 9.02C187.67 9.5 187.88 10.1 187.88 10.83C187.88 12.52 187.19 13.87 185.8 14.89C189.83 14.59 192.09 12.53 192.57 8.71H194.42V8.72ZM186.66 10.76C186.66 10.43 186.55 10.15 186.32 9.92C186.09 9.69 185.82 9.58 185.48 9.58C185.14 9.58 184.87 9.69 184.65 9.92C184.43 10.15 184.31 10.42 184.31 10.76C184.31 11.1 184.42 11.37 184.65 11.59C184.88 11.81 185.15 11.93 185.48 11.93C185.81 11.93 186.09 11.82 186.32 11.59C186.55 11.36 186.66 11.09 186.66 10.76Z" fill="var(--fill-0, white)"/>
<path id="Vector_17" d="M208.51 33.91C208.45 36.71 206.43 38.11 202.46 38.11C198.49 38.11 196.5 36.71 196.5 33.91V28.36C196.5 27.55 196.79 26.85 197.38 26.26C197.97 25.67 198.67 25.38 199.48 25.38C200.29 25.38 200.99 25.67 201.58 26.26C202.17 26.85 202.46 27.55 202.46 28.36C202.46 29.17 202.19 29.87 201.65 30.46C201.11 31.05 200.39 31.34 199.48 31.34C198.97 31.34 198.52 31.23 198.13 31.02V33.55C198.13 35.6 199.6 36.62 202.55 36.62C205.5 36.62 206.88 35.6 206.88 33.55V25.15C206.88 23.89 206.35 22.88 205.3 22.13C204.34 21.47 203.15 21.14 201.73 21.14C200.5 21.14 199.37 21.43 198.34 22C197.23 22.63 196.56 23.43 196.35 24.39H194.73C195.03 22.98 195.82 21.84 197.1 20.98C198.38 20.12 199.95 19.69 201.82 19.69C203.69 19.69 205.1 20.11 206.33 20.95C207.77 21.91 208.5 23.22 208.5 24.88V33.91H208.51ZM201.01 28.36C201.01 27.94 200.86 27.58 200.56 27.28C200.26 26.98 199.9 26.83 199.48 26.83C199.06 26.83 198.7 26.98 198.4 27.28C198.1 27.58 197.95 27.94 197.95 28.36C197.95 28.78 198.1 29.14 198.4 29.44C198.7 29.74 199.06 29.89 199.48 29.89C199.9 29.89 200.26 29.74 200.56 29.44C200.86 29.14 201.01 28.78 201.01 28.36Z" fill="var(--fill-0, white)"/>
<path id="Vector_18" d="M226.56 37.75H224.8C222.45 35.94 220.26 34.76 218.21 34.18C218.3 34.45 218.35 34.72 218.35 34.99C218.35 35.86 218.04 36.6 217.42 37.2C216.8 37.8 216.06 38.1 215.19 38.1C214.32 38.1 213.58 37.8 212.98 37.2C212.38 36.6 212.08 35.86 212.08 34.99C212.08 34.12 212.38 33.37 212.98 32.76C213.58 32.14 214.32 31.84 215.19 31.84C215.52 31.84 215.84 31.88 216.14 31.97V25.33C215.75 25.54 215.3 25.65 214.79 25.65C213.98 25.65 213.28 25.36 212.69 24.77C212.1 24.18 211.81 23.48 211.81 22.67C211.81 21.86 212.1 21.16 212.69 20.57C213.28 19.98 213.98 19.69 214.79 19.69C215.6 19.69 216.3 19.98 216.89 20.57C217.48 21.16 217.77 21.86 217.77 22.67V32.42C220.75 33.47 223.14 34.69 224.95 36.08V20.05H226.57V37.75H226.56ZM216.32 22.67C216.32 22.25 216.17 21.89 215.87 21.59C215.57 21.29 215.21 21.14 214.79 21.14C214.37 21.14 214.01 21.29 213.71 21.59C213.41 21.89 213.26 22.25 213.26 22.67C213.26 23.09 213.41 23.45 213.71 23.75C214.01 24.05 214.37 24.2 214.79 24.2C215.21 24.2 215.57 24.05 215.87 23.75C216.17 23.45 216.32 23.09 216.32 22.67ZM216.86 34.95C216.86 34.5 216.69 34.11 216.36 33.78C216.03 33.45 215.64 33.28 215.19 33.28C214.74 33.28 214.35 33.45 214.02 33.78C213.69 34.11 213.52 34.5 213.52 34.95C213.52 35.4 213.69 35.79 214.02 36.12C214.35 36.45 214.74 36.62 215.19 36.62C215.64 36.62 216.03 36.45 216.36 36.12C216.69 35.79 216.86 35.4 216.86 34.95Z" fill="var(--fill-0, white)"/>
<path id="Vector_19" d="M239.43 35.04C239.43 35.88 239.13 36.6 238.53 37.21C237.93 37.81 237.22 38.11 236.41 38.11C235.45 38.11 234.66 37.78 234.06 37.12C233.55 36.55 233.29 35.86 233.29 35.04V10.62L230.04 15.31L228.55 14.77C228.4 12.75 228.05 10.41 227.51 7.73H228.91C229.39 10.35 229.68 12.32 229.77 13.64L233.47 8.18C233.86 8.21 234.2 8.39 234.49 8.72C234.78 9.05 234.92 9.4 234.92 9.76V32.38C235.34 32.14 235.84 32.02 236.41 32.02C237.22 32.02 237.93 32.31 238.53 32.9C239.13 33.49 239.43 34.2 239.43 35.04ZM237.89 35.04C237.89 34.62 237.74 34.26 237.44 33.96C237.14 33.66 236.78 33.51 236.36 33.51C235.94 33.51 235.58 33.66 235.28 33.96C234.98 34.26 234.83 34.62 234.83 35.04C234.83 35.46 234.98 35.82 235.28 36.12C235.58 36.42 235.94 36.57 236.36 36.57C236.78 36.57 237.14 36.42 237.44 36.12C237.74 35.82 237.89 35.46 237.89 35.04Z" fill="var(--fill-0, white)"/>
<path id="Vector_20" d="M256.85 37.75H255.23V28C255.23 26.62 254.87 25.92 254.15 25.92C253.7 25.92 253.16 26.45 252.53 27.5L246.71 37.75H245.22V25.34C244.83 25.55 244.38 25.66 243.87 25.66C243.06 25.66 242.36 25.37 241.77 24.78C241.18 24.19 240.89 23.49 240.89 22.68C240.89 21.87 241.18 21.17 241.77 20.58C242.36 19.99 243.06 19.7 243.87 19.7C244.68 19.7 245.38 19.99 245.97 20.58C246.56 21.17 246.85 21.87 246.85 22.68V32.48C246.85 32.75 246.77 33.68 246.62 35.28C246.98 34.53 247.31 33.86 247.61 33.29L251.27 26.56C251.69 25.81 252.19 25.28 252.76 24.98C252.04 24.41 251.68 23.64 251.68 22.68C251.68 21.87 251.97 21.17 252.56 20.58C253.15 19.99 253.85 19.7 254.66 19.7C255.47 19.7 256.17 19.99 256.76 20.58C257.35 21.17 257.64 21.87 257.64 22.68C257.64 23.82 257.14 24.68 256.15 25.25C256.63 25.76 256.87 26.68 256.87 28V37.75H256.85ZM245.39 22.67C245.39 22.25 245.24 21.89 244.94 21.59C244.64 21.29 244.28 21.14 243.86 21.14C243.44 21.14 243.08 21.29 242.78 21.59C242.48 21.89 242.33 22.25 242.33 22.67C242.33 23.09 242.48 23.45 242.78 23.75C243.08 24.05 243.44 24.2 243.86 24.2C244.28 24.2 244.64 24.05 244.94 23.75C245.24 23.45 245.39 23.09 245.39 22.67ZM256.18 22.67C256.18 22.25 256.03 21.89 255.73 21.59C255.43 21.29 255.07 21.14 254.65 21.14C254.23 21.14 253.87 21.29 253.57 21.59C253.27 21.89 253.12 22.25 253.12 22.67C253.12 23.09 253.27 23.45 253.57 23.75C253.87 24.05 254.23 24.2 254.65 24.2C255.07 24.2 255.43 24.05 255.73 23.75C256.03 23.45 256.18 23.09 256.18 22.67Z" fill="var(--fill-0, white)"/>
<path id="Vector_21" d="M274.91 37.75H273.15C270.8 35.94 268.61 34.76 266.56 34.18C266.65 34.45 266.7 34.72 266.7 34.99C266.7 35.86 266.39 36.6 265.77 37.2C265.15 37.8 264.41 38.1 263.54 38.1C262.67 38.1 261.93 37.8 261.33 37.2C260.73 36.6 260.43 35.86 260.43 34.99C260.43 34.12 260.73 33.37 261.33 32.76C261.93 32.14 262.67 31.84 263.54 31.84C263.87 31.84 264.19 31.88 264.49 31.97V25.33C264.1 25.54 263.65 25.65 263.14 25.65C262.33 25.65 261.63 25.36 261.04 24.77C260.45 24.18 260.16 23.48 260.16 22.67C260.16 21.86 260.45 21.16 261.04 20.57C261.63 19.98 262.33 19.69 263.14 19.69C263.95 19.69 264.65 19.98 265.24 20.57C265.83 21.16 266.12 21.86 266.12 22.67V32.42C269.1 33.47 271.49 34.69 273.3 36.08V20.05H274.92V37.75H274.91ZM264.66 22.67C264.66 22.25 264.51 21.89 264.21 21.59C263.91 21.29 263.55 21.14 263.13 21.14C262.71 21.14 262.35 21.29 262.05 21.59C261.75 21.89 261.6 22.25 261.6 22.67C261.6 23.09 261.75 23.45 262.05 23.75C262.35 24.05 262.71 24.2 263.13 24.2C263.55 24.2 263.91 24.05 264.21 23.75C264.51 23.45 264.66 23.09 264.66 22.67ZM265.21 34.95C265.21 34.5 265.04 34.11 264.71 33.78C264.38 33.45 263.99 33.28 263.54 33.28C263.09 33.28 262.7 33.45 262.37 33.78C262.04 34.11 261.87 34.5 261.87 34.95C261.87 35.4 262.04 35.79 262.37 36.12C262.7 36.45 263.09 36.62 263.54 36.62C263.99 36.62 264.38 36.45 264.71 36.12C265.04 35.79 265.21 35.4 265.21 34.95Z" fill="var(--fill-0, white)"/>
<path id="Vector_22" d="M292.65 37.75H291.02V25.61C291.02 24.16 290.49 23.06 289.42 22.29C288.35 21.52 287.14 21.14 285.79 21.14C284.44 21.14 283.19 21.61 282.16 22.56C281.12 23.51 280.6 24.68 280.6 26.06C280.6 26.72 280.72 27.52 280.96 28.45C281.29 29.77 281.47 30.53 281.5 30.71C281.77 28.99 282.24 27.54 282.9 26.33C283.77 24.77 284.87 23.98 286.2 23.98C286.95 23.98 287.57 24.22 288.05 24.7C288.53 25.18 288.77 25.83 288.77 26.64C288.77 27.39 288.51 28.03 288 28.56C287.49 29.09 286.86 29.35 286.1 29.35C285.34 29.35 284.63 28.99 284.02 28.27C283.6 28.9 283.18 29.8 282.76 30.98C282.25 32.42 281.99 33.7 281.99 34.82V37.75H280.37V33.6C280.37 32.73 280.13 31.49 279.65 29.9C279.17 28.31 278.93 27.09 278.93 26.24C278.93 24.28 279.59 22.7 280.92 21.5C282.24 20.3 283.9 19.69 285.89 19.69C287.73 19.69 289.31 20.18 290.65 21.16C291.99 22.14 292.66 23.58 292.66 25.47V37.75H292.65ZM287.51 26.65C287.51 26.26 287.37 25.93 287.1 25.66C286.83 25.39 286.5 25.25 286.11 25.25C285.72 25.25 285.39 25.38 285.12 25.66C284.85 25.93 284.71 26.26 284.71 26.65C284.71 27.04 284.85 27.37 285.12 27.64C285.39 27.91 285.72 28.05 286.11 28.05C286.5 28.05 286.83 27.91 287.1 27.64C287.37 27.37 287.51 27.04 287.51 26.65Z" fill="var(--fill-0, white)"/>
<path id="Vector_23" d="M306.64 35.13C306.64 35.94 306.37 36.64 305.83 37.23C305.29 37.82 304.57 38.11 303.66 38.11C302.85 38.11 302.15 37.82 301.56 37.23C300.97 36.64 300.68 35.94 300.68 35.13C300.68 34.32 300.97 33.62 301.56 33.03C302.15 32.44 302.85 32.15 303.66 32.15C304.17 32.15 304.62 32.26 305.01 32.47V27.73C305.01 26.5 302.11 25.41 296.3 24.48C296.48 21.29 297.94 19.69 300.68 19.69C301.31 19.69 302.21 19.85 303.37 20.16C304.53 20.48 305.36 20.63 305.88 20.63C306.18 20.63 306.47 20.28 306.74 19.59L308.14 19.95C307.69 21.4 306.92 22.12 305.84 22.12C305.21 22.12 304.3 21.95 303.11 21.62C301.92 21.29 301.03 21.12 300.42 21.12C299.88 21.12 299.37 21.35 298.91 21.82C298.44 22.29 298.19 22.76 298.17 23.24C300.1 23.57 301.99 24.07 303.86 24.73C305.73 25.39 306.66 26.34 306.66 27.57V35.11L306.64 35.13ZM305.2 35.13C305.2 34.71 305.05 34.35 304.75 34.05C304.45 33.75 304.09 33.6 303.67 33.6C303.25 33.6 302.89 33.75 302.59 34.05C302.29 34.35 302.14 34.71 302.14 35.13C302.14 35.55 302.29 35.91 302.59 36.21C302.89 36.51 303.25 36.66 303.67 36.66C304.09 36.66 304.45 36.51 304.75 36.21C305.05 35.91 305.2 35.55 305.2 35.13Z" fill="var(--fill-0, white)"/>
<path id="Vector_24" d="M311.93 9.81C311.9 11.86 311.22 13.53 309.9 14.84C308.58 16.15 306.91 16.8 304.89 16.8C303.14 16.8 301.75 16.44 300.69 15.72C299.64 15 299.11 14.05 299.11 12.88C299.11 12.1 299.4 11.42 299.97 10.85C300.54 10.28 301.22 9.99 302 9.99C302.78 9.99 303.46 10.27 304.03 10.82C304.6 11.38 304.89 12.05 304.89 12.83C304.89 13.85 304.44 14.67 303.54 15.27C303.96 15.36 304.52 15.41 305.21 15.41C306.69 15.38 307.9 14.79 308.87 13.65C309.71 12.6 310.16 11.32 310.22 9.81H311.94H311.93ZM303.44 12.79C303.44 12.37 303.3 12.02 303.01 11.73C302.72 11.44 302.39 11.3 301.99 11.3C301.59 11.3 301.25 11.44 300.95 11.73C300.65 12.02 300.5 12.37 300.5 12.79C300.5 13.21 300.65 13.56 300.95 13.83C301.25 14.1 301.6 14.24 301.99 14.24C302.38 14.24 302.72 14.1 303.01 13.83C303.3 13.56 303.44 13.21 303.44 12.79Z" fill="var(--fill-0, white)"/>
<path id="Vector_25" d="M326.51 33.91C326.51 36.71 324.57 38.11 320.69 38.11C316.81 38.11 314.82 36.71 314.82 33.91V25.33C314.43 25.54 313.98 25.65 313.47 25.65C312.66 25.65 311.96 25.36 311.37 24.77C310.78 24.18 310.49 23.48 310.49 22.67C310.49 21.86 310.78 21.16 311.37 20.57C311.96 19.98 312.66 19.69 313.47 19.69C314.28 19.69 314.98 19.98 315.57 20.57C316.16 21.16 316.45 21.86 316.45 22.67V33.77C316.45 35.67 317.86 36.61 320.69 36.61C323.52 36.61 324.89 35.66 324.89 33.77V20.05H326.51V33.91ZM315 22.67C315 22.25 314.85 21.89 314.55 21.59C314.25 21.29 313.89 21.14 313.47 21.14C313.05 21.14 312.69 21.29 312.39 21.59C312.09 21.89 311.94 22.25 311.94 22.67C311.94 23.09 312.09 23.45 312.39 23.75C312.69 24.05 313.05 24.2 313.47 24.2C313.89 24.2 314.25 24.05 314.55 23.75C314.85 23.45 315 23.09 315 22.67Z" fill="var(--fill-0, white)"/>
</g>
</svg>
