<svg preserveAspectRatio="none" width="100%" height="100%" overflow="visible" style="display: block;" viewBox="0 0 60.4784 60.1486" fill="none" xmlns="http://www.w3.org/2000/svg">
<g id="Group">
<path id="Vector" d="M58.1212 5.15864C58.9212 5.95864 59.2112 6.85865 58.9712 7.85865C58.7312 8.84865 58.3812 9.58865 57.9112 10.0586C57.6712 10.2986 57.2612 10.8387 56.6712 11.6887C56.0812 12.5387 55.4212 13.6886 54.6812 15.1286C53.9512 16.5686 53.1812 18.2786 52.3712 20.2386C51.5712 22.1986 50.8312 24.3887 50.1712 26.7987C49.5112 29.2087 48.8712 31.8986 48.2512 34.8486C47.6312 37.7986 47.0712 40.5586 46.5512 43.1186C45.9812 46.1986 45.4412 49.2486 44.9212 52.2686C44.8712 53.0786 44.7512 53.8286 44.5712 54.5386C44.3812 55.1586 44.1012 55.7886 43.7212 56.4586C43.3412 57.1186 42.8212 57.6686 42.1612 58.0886C41.4512 58.5186 40.8012 58.7286 40.2112 58.7286C39.6212 58.7286 39.0712 58.6486 38.5812 58.4786C38.0812 58.3086 37.6712 58.1086 37.3412 57.8786C37.0112 57.6386 36.7512 57.4486 36.5612 57.3086C36.3712 57.1686 36.2212 56.8786 36.1012 56.4586C35.9812 56.0286 35.8212 55.4087 35.6012 54.5787C35.3912 53.7487 35.0812 52.6986 34.6812 51.4186C34.2812 50.1386 33.7012 48.5786 32.9412 46.7386C31.9012 44.1886 30.7412 42.1886 29.4612 40.7386C28.1812 39.2986 27.1412 38.2686 26.3412 37.6486C25.7712 39.3486 25.1512 41.0586 24.4612 42.7586C23.7712 44.4586 23.0812 46.0786 22.3712 47.6186C21.6612 49.1586 20.9312 50.5286 20.1712 51.7386C19.4112 52.9486 18.6612 53.8786 17.9012 54.5386C16.6712 55.6286 15.5012 56.2386 14.3912 56.3786C13.2812 56.5186 12.3212 56.4486 11.5212 56.1686C10.5312 55.8886 9.60123 55.3687 8.75123 54.6087C7.66123 53.3787 6.87123 51.8786 6.37123 50.0986C5.87123 48.3286 5.67123 46.4586 5.77123 44.4886C5.86123 42.5286 6.24123 40.5886 6.90123 38.6686C7.56123 36.7486 8.47123 35.0286 9.63123 33.4886C10.7912 31.9486 12.2012 30.7086 13.8512 29.7586C15.5112 28.8086 17.3712 28.3386 19.4612 28.3386C19.7412 28.3386 20.0212 28.3486 20.2812 28.3786C20.5412 28.3986 20.7912 28.4186 21.0312 28.4186C21.2712 27.6586 21.5412 26.6586 21.8512 25.3986C22.1612 24.1486 22.4412 22.8186 22.7012 21.4286C22.9612 20.0386 23.1512 18.6186 23.2712 17.1686C23.3912 15.7286 23.3312 14.4086 23.0912 13.2286C22.8512 12.0486 22.4312 11.0786 21.8112 10.3186C21.1912 9.55864 20.2712 9.15865 19.0412 9.10865C18.1912 9.05865 17.2512 9.29864 16.2412 9.81864C15.2212 10.3386 14.2412 11.0286 13.3012 11.8786C12.3512 12.7286 11.4612 13.6887 10.6012 14.7487C9.74123 15.8087 9.06123 16.8686 8.54123 17.9086C8.02123 18.9486 7.39123 19.6387 6.66123 19.9687C5.93123 20.2987 5.23123 20.4886 4.57123 20.5386C3.76123 20.5386 2.96123 20.3786 2.16123 20.0386C1.73123 20.0886 1.50123 19.6486 1.45123 18.7286C1.40123 17.8086 1.57123 16.6586 1.95123 15.2886C2.33123 13.9186 2.91123 12.4586 3.69123 10.9286C4.47123 9.38864 5.45123 8.02864 6.63123 6.84864C7.81123 5.66864 9.29123 4.58865 11.0612 3.61865C12.8312 2.64865 14.7312 1.98864 16.7412 1.62864C18.7512 1.26864 20.7712 1.29865 22.8112 1.69865C24.8412 2.09865 26.6612 3.07865 28.2712 4.63865C30.0212 6.33865 31.1212 8.30865 31.5712 10.5286C32.0212 12.7486 32.1112 15.0586 31.8512 17.4486C31.5912 19.8386 31.1012 22.2286 30.3912 24.6186C29.6812 27.0086 29.0212 29.1986 28.4012 31.1786C30.0612 32.2686 31.4912 33.5086 32.6912 34.9086C33.8912 36.3086 34.9012 37.6386 35.7112 38.9186C36.6612 40.3886 37.4612 41.8786 38.1212 43.3886C38.6912 40.4586 39.3412 37.4286 40.0712 34.3086C40.8012 31.1886 41.6112 28.1586 42.4812 25.2286C43.3512 22.2986 44.2712 19.5386 45.2112 16.9586C46.1512 14.3786 47.1312 12.1886 48.1212 10.3986C49.1112 8.55864 50.1212 7.16865 51.1412 6.24865C52.1612 5.32865 53.1112 4.70864 54.0112 4.40864C54.9112 4.09864 55.7212 4.03865 56.4612 4.22865C57.1912 4.41865 57.7512 4.72864 58.1312 5.14864L58.1212 5.15864ZM14.4812 46.8786C14.6712 46.6386 15.1812 45.4987 16.0112 43.4387C16.8412 41.3787 17.7712 38.7886 18.8112 35.6686C17.9112 35.8586 17.1412 36.2286 16.5012 36.7686C15.8612 37.3086 15.3312 37.9187 14.9012 38.5787C14.4712 39.2387 14.1412 39.9186 13.9112 40.5986C13.6712 41.2886 13.5112 41.8886 13.4112 42.4086C13.2712 43.1686 13.2112 43.8586 13.2312 44.4986C13.2512 45.1386 13.3412 45.6686 13.4812 46.0986C13.6212 46.5286 13.7912 46.8086 13.9812 46.9486C14.1712 47.0886 14.3312 47.0686 14.4812 46.8786Z" fill="var(--fill-0, white)"/>
<path id="Vector_2" d="M40.2012 60.1486C39.4612 60.1486 38.7612 60.0387 38.1212 59.8287C37.4912 59.6187 36.9512 59.3487 36.5012 59.0287C36.1612 58.7887 35.8912 58.5887 35.6912 58.4387C35.2412 58.1087 34.9212 57.5787 34.7212 56.8287C34.6012 56.3987 34.4312 55.7686 34.2212 54.9286C34.0212 54.1386 33.7112 53.1086 33.3212 51.8486C32.9312 50.6186 32.3612 49.0787 31.6212 47.2787C30.6412 44.8787 29.5612 42.9987 28.3912 41.6887C27.8712 41.1087 27.4012 40.5886 26.9612 40.1486C26.5812 41.1986 26.1812 42.2487 25.7612 43.2987C25.0612 45.0287 24.3512 46.6786 23.6412 48.2286C22.9112 49.8086 22.1412 51.2487 21.3512 52.4987C20.5212 53.8187 19.6712 54.8686 18.8112 55.6186C17.3812 56.8886 15.9412 57.6287 14.5412 57.7987C13.2112 57.9687 12.0312 57.8686 11.0212 57.5186C9.91123 57.1986 8.79123 56.5786 7.78123 55.6786L7.66123 55.5587C6.43123 54.1787 5.53123 52.4687 4.98123 50.4987C4.44123 48.5787 4.22123 46.5387 4.33123 44.4387C4.43123 42.3487 4.84123 40.2586 5.54123 38.2286C6.25123 36.1786 7.24123 34.3086 8.48123 32.6586C9.75123 30.9686 11.3212 29.5887 13.1312 28.5587C15.0012 27.4887 17.1212 26.9487 19.4412 26.9487C19.6212 26.9487 19.7912 26.9486 19.9612 26.9586C20.1112 26.4186 20.2712 25.7887 20.4512 25.0787C20.7512 23.8687 21.0312 22.5586 21.2912 21.1786C21.5412 19.8286 21.7312 18.4386 21.8412 17.0686C21.9512 15.7686 21.8912 14.5687 21.6912 13.5287C21.5012 12.5787 21.1712 11.8086 20.7012 11.2386C20.5712 11.0786 20.1812 10.5987 18.9812 10.5587C18.3712 10.5287 17.6612 10.7087 16.8812 11.1087C15.9712 11.5687 15.0912 12.1986 14.2412 12.9586C13.3612 13.7586 12.5012 14.6687 11.7012 15.6687C10.9212 16.6487 10.2812 17.6287 9.80123 18.5787C9.13123 19.9187 8.27123 20.8287 7.23123 21.2987C6.34123 21.6987 5.48123 21.9286 4.65123 21.9886C3.63123 21.9886 2.73123 21.8186 1.84123 21.4886C1.48123 21.4486 1.15123 21.2987 0.871231 21.0587C0.171231 20.4687 0.0412305 19.5086 0.0112305 18.8386C-0.0487695 17.7486 0.131232 16.4787 0.561232 14.9487C0.961232 13.4887 1.58123 11.9386 2.40123 10.3186C3.25123 8.65865 4.32123 7.15864 5.61123 5.87864C6.88123 4.60864 8.48123 3.43864 10.3712 2.40864C12.2712 1.36864 14.3312 0.648643 16.4812 0.268643C18.6512 -0.111357 20.8712 -0.0913551 23.0712 0.348645C25.3712 0.798645 27.4412 1.91865 29.2512 3.66865C31.2012 5.56865 32.4512 7.79866 32.9512 10.2987C33.4312 12.6587 33.5312 15.1286 33.2512 17.6486C32.9812 20.1186 32.4712 22.6086 31.7412 25.0686C31.1512 27.0686 30.5812 28.9286 30.0612 30.6486C31.4612 31.6586 32.7012 32.7886 33.7612 34.0186C35.0112 35.4586 36.0612 36.8687 36.9012 38.1987C37.1112 38.5287 37.3212 38.8687 37.5212 39.1987C37.8812 37.4987 38.2712 35.7686 38.6812 34.0086C39.4212 30.8686 40.2412 27.7886 41.1112 24.8486C41.9912 21.9086 42.9112 19.0987 43.8712 16.4987C44.8412 13.8687 45.8412 11.5986 46.8712 9.73864C47.9412 7.73864 49.0312 6.25866 50.1812 5.21866C51.3312 4.16866 52.4612 3.45866 53.5512 3.07866C54.7112 2.67866 55.8112 2.60865 56.8112 2.86865C57.8012 3.12865 58.5912 3.56866 59.1612 4.18866C60.5912 5.63866 60.6012 7.15866 60.3612 8.18866C60.0612 9.45866 59.5912 10.3987 58.9212 11.0587C58.8612 11.1187 58.6012 11.4087 57.8412 12.4987C57.2912 13.2887 56.6512 14.3886 55.9512 15.7686C55.2412 17.1686 54.4812 18.8486 53.6912 20.7686C52.9112 22.6686 52.1912 24.8287 51.5512 27.1687C50.9012 29.5387 50.2612 32.2187 49.6512 35.1387C49.0412 38.0887 48.4712 40.8486 47.9512 43.3986C47.3912 46.4186 46.8512 49.4386 46.3412 52.4286C46.2812 53.2886 46.1512 54.1186 45.9512 54.8986C45.7112 55.6686 45.3912 56.4086 44.9612 57.1586C44.4712 58.0186 43.7912 58.7287 42.9412 59.2787C41.9712 59.8587 41.0712 60.1387 40.2212 60.1387L40.2012 60.1486ZM37.5112 56.2586C37.6812 56.3886 37.8912 56.5387 38.1512 56.7187C38.3712 56.8787 38.6612 57.0086 39.0212 57.1286C39.3712 57.2486 39.7612 57.3087 40.2012 57.3087C40.5212 57.3087 40.9512 57.1586 41.4212 56.8686C41.8512 56.5886 42.2112 56.2187 42.4812 55.7487C42.8112 55.1787 43.0512 54.6286 43.2112 54.1186C43.3612 53.5486 43.4612 52.8786 43.5012 52.1786L43.5212 52.0186C44.0412 48.9886 44.5912 45.9286 45.1612 42.8486C45.6812 40.2686 46.2512 37.5087 46.8712 34.5487C47.4912 31.5787 48.1412 28.8386 48.8112 26.4086C49.4812 23.9586 50.2412 21.6887 51.0612 19.6887C51.8812 17.6887 52.6712 15.9387 53.4112 14.4787C54.1812 12.9587 54.8712 11.7786 55.5012 10.8686C56.3512 9.64865 56.6912 9.24866 56.9012 9.04866C57.0912 8.85866 57.3712 8.42864 57.5912 7.51864C57.6812 7.14864 57.6812 6.71865 57.1112 6.14865L57.0512 6.08865C56.8612 5.87865 56.5412 5.70864 56.0912 5.59864C55.6312 5.47864 55.0812 5.52865 54.4612 5.74865C53.7512 5.98865 52.9512 6.51866 52.0812 7.29866C51.1912 8.10866 50.2712 9.37865 49.3612 11.0686C48.4012 12.8086 47.4512 14.9587 46.5312 17.4487C45.6012 19.9987 44.6912 22.7486 43.8312 25.6286C42.9712 28.5186 42.1612 31.5486 41.4412 34.6286C40.7112 37.7286 40.0612 40.7586 39.5012 43.6586L38.6412 48.1286L36.8112 43.9586C36.1812 42.5186 35.4012 41.0787 34.5012 39.6887C33.7312 38.4587 32.7612 37.1686 31.6012 35.8386C30.4912 34.5486 29.1412 33.3786 27.6012 32.3686L26.7112 31.7787L27.0212 30.7586C27.6312 28.7786 28.2912 26.5986 29.0012 24.2086C29.6812 21.9186 30.1512 19.5886 30.4012 17.2886C30.6412 15.0586 30.5512 12.8787 30.1412 10.8087C29.7412 8.85865 28.8012 7.16864 27.2412 5.65864C25.8212 4.27864 24.2712 3.43865 22.4912 3.08865C20.6412 2.71865 18.7712 2.69864 16.9512 3.01864C15.1012 3.34864 13.3412 3.95864 11.7012 4.84864C10.0512 5.74864 8.67123 6.75865 7.59123 7.83865C6.52123 8.90865 5.62123 10.1587 4.91123 11.5587C4.18123 12.9987 3.63123 14.3786 3.27123 15.6586C2.93123 16.8786 2.78123 17.8886 2.82123 18.6486C2.82123 18.6986 2.82123 18.7486 2.82123 18.7886C3.39123 19.0086 3.95123 19.1087 4.52123 19.1087C4.91123 19.0787 5.45123 18.9287 6.03123 18.6687C6.45123 18.4787 6.86123 17.9986 7.23123 17.2686C7.79123 16.1486 8.54123 14.9987 9.45123 13.8587C10.3512 12.7387 11.3112 11.7186 12.3012 10.8186C13.3312 9.88865 14.4212 9.12866 15.5512 8.54866C16.7912 7.91866 17.9812 7.62866 19.0812 7.68866C20.7112 7.74866 21.9912 8.32865 22.8712 9.41865C23.6312 10.3587 24.1612 11.5387 24.4412 12.9387C24.7012 14.2487 24.7712 15.7086 24.6412 17.2686C24.5212 18.7386 24.3212 20.2187 24.0512 21.6687C23.7812 23.0987 23.4912 24.4587 23.1812 25.7187C22.8612 27.0187 22.5912 28.0286 22.3412 28.8186L22.0312 29.8186H20.9912C20.7112 29.8186 20.4212 29.8087 20.1112 29.7787C19.9012 29.7587 19.6712 29.7487 19.4312 29.7487C17.6112 29.7487 15.9612 30.1586 14.5312 30.9786C13.0512 31.8186 11.7812 32.9487 10.7412 34.3287C9.68123 35.7387 8.83123 37.3486 8.22123 39.1186C7.60123 40.8986 7.25123 42.7286 7.16123 44.5386C7.07123 46.3386 7.26123 48.0687 7.71123 49.6987C8.14123 51.2287 8.82123 52.5287 9.73123 53.5787C10.4012 54.1587 11.1212 54.5587 11.8812 54.7787C12.5512 55.0087 13.3012 55.0587 14.1912 54.9487C15.0112 54.8487 15.9412 54.3387 16.9412 53.4487C17.6012 52.8787 18.2712 52.0387 18.9512 50.9487C19.6712 49.7987 20.3812 48.4686 21.0612 46.9886C21.7512 45.4886 22.4512 43.8787 23.1212 42.1887C23.8012 40.5087 24.4212 38.8186 24.9712 37.1586L25.6012 35.2686L27.1812 36.4786C28.0712 37.1586 29.1512 38.2287 30.5012 39.7487C31.8812 41.3087 33.1312 43.4586 34.2312 46.1486C35.0012 48.0186 35.6012 49.6387 36.0112 50.9387C36.4312 52.2687 36.7412 53.3187 36.9512 54.1687C37.1612 54.9887 37.3212 55.5986 37.4412 56.0186C37.4612 56.1086 37.4812 56.1686 37.5012 56.2086L37.5112 56.2586ZM14.2212 48.4586C13.8412 48.4586 13.4612 48.3287 13.1312 48.0787C12.7112 47.7587 12.3812 47.2587 12.1412 46.5487C11.9512 45.9887 11.8512 45.3387 11.8212 44.5587C11.7912 43.8287 11.8612 43.0186 12.0212 42.1486C12.1312 41.5686 12.3112 40.8887 12.5712 40.1387C12.8412 39.3587 13.2212 38.5686 13.7112 37.8186C14.2112 37.0386 14.8412 36.3287 15.5812 35.6987C16.4012 34.9987 17.3912 34.5286 18.5112 34.2886L20.9312 33.7787L20.1512 36.1286C19.1112 39.2486 18.1612 41.8886 17.3212 43.9786C16.0312 47.1886 15.7712 47.5486 15.6012 47.7586C15.3112 48.1386 14.9012 48.3887 14.4512 48.4487C14.3712 48.4587 14.3012 48.4687 14.2212 48.4687V48.4586ZM15.9612 39.5686C15.6612 40.0586 15.4212 40.5687 15.2512 41.0587C15.0512 41.6287 14.9112 42.1287 14.8312 42.5587C15.1912 41.6587 15.5612 40.6586 15.9612 39.5686Z" fill="var(--fill-0, #353535)"/>
</g>
</svg>
